<svg width="20" height="20" viewBox="0 0 20 20" fill="none" xmlns="http://www.w3.org/2000/svg">
<path fill-rule="evenodd" clip-rule="evenodd" d="M17.3944 15.5665L15.5467 17.4142L13.1818 16.7554L12.5055 17.0343L11.2915 19.1658H8.67931L7.47195 17.0271L6.79631 16.7438L4.43166 17.3944L2.58489 15.5477L3.24369 13.1828L2.9647 12.5063L0.833252 11.2914V8.6793L2.9729 7.47196L3.25615 6.79641L2.6055 4.43175L4.45157 2.58568L6.81646 3.2454L7.49218 2.96671L8.70445 0.833344H11.3173L12.5246 2.97299L13.2002 3.25624L15.5644 2.6057L17.4134 4.45197L16.7545 6.81724L17.0332 7.49312L19.1666 8.70538V11.3182L17.0271 12.5254L16.7436 13.2025L17.3944 15.5665ZM14.984 13.0898L15.7105 11.3547L17.4999 10.345V9.67527L15.7111 8.65881L14.995 6.92247L15.5464 4.94306L15.0724 4.4697L13.0869 5.01601L11.3536 4.28926L10.344 2.50001H9.67434L8.65787 4.2888L6.92138 5.00497L4.94159 4.45268L4.46971 4.92456L5.01591 6.90964L4.28917 8.64293L2.49992 9.65254V10.323L4.28727 11.3418L5.00313 13.0775L4.45161 15.0574L4.92447 15.5302L6.90954 14.984L8.64276 15.7107L9.65235 17.4992H10.3227L11.3407 15.7119L13.0766 14.996L15.0564 15.5475L15.5301 15.0738L14.984 13.0898ZM9.99992 13.3333C8.15897 13.3333 6.66658 11.841 6.66658 10C6.66658 8.15906 8.15897 6.66668 9.99992 6.66668C11.8409 6.66668 13.3333 8.15906 13.3333 10C13.3333 11.841 11.8409 13.3333 9.99992 13.3333ZM9.99992 11.6667C10.9204 11.6667 11.6666 10.9205 11.6666 10C11.6666 9.07954 10.9204 8.33334 9.99992 8.33334C9.07944 8.33334 8.33325 9.07954 8.33325 10C8.33325 10.9205 9.07944 11.6667 9.99992 11.6667Z"
      fill="currentColor"/>
</svg>
