<svg width="20" height="19" viewBox="0 0 20 19" fill="none" xmlns="http://www.w3.org/2000/svg">
<path fill-rule="evenodd" clip-rule="evenodd" d="M9.99992 18.6666C4.93731 18.6666 0.833252 14.5625 0.833252 9.49992C0.833252 4.43731 4.93731 0.333252 9.99992 0.333252C15.0625 0.333252 19.1666 4.43731 19.1666 9.49992C19.1666 14.5625 15.0625 18.6666 9.99992 18.6666ZM9.99992 16.9999C14.1421 16.9999 17.4999 13.6421 17.4999 9.49992C17.4999 5.35778 14.1421 1.99992 9.99992 1.99992C5.85778 1.99992 2.49992 5.35778 2.49992 9.49992C2.49992 13.6421 5.85778 16.9999 9.99992 16.9999ZM10.8333 8.66658H14.1666V10.3333H10.8333V13.6666H9.16658V10.3333H5.83325V8.66658H9.16658V5.33325H10.8333V8.66658Z"
      fill="currentColor"/>
</svg>
