<svg width="18" height="18" viewBox="0 0 18 18" fill="none" xmlns="http://www.w3.org/2000/svg">
<path fill-rule="evenodd" clip-rule="evenodd" d="M3.73792 11.3363C4.08008 11.8047 4.46122 12.2812 4.88119 12.7659C3.32934 13.1154 2.33329 13.6115 2.33329 14.0001C2.33329 14.6725 5.31591 15.6667 8.99996 15.6667C12.684 15.6667 15.6666 14.6725 15.6666 14.0001C15.6666 13.6115 14.6706 13.1154 13.1187 12.7659C13.5387 12.2812 13.9198 11.8047 14.262 11.3363C16.136 11.9049 17.3333 12.8171 17.3333 14.0001C17.3333 16.089 13.6002 17.3334 8.99996 17.3334C4.39974 17.3334 0.666626 16.089 0.666626 14.0001C0.666626 12.8171 1.86391 11.9049 3.73792 11.3363ZM9.91347 14.2129L8.99996 15.0106L8.08645 14.2129C4.82364 11.3639 3.16663 8.84276 3.16663 6.50008C3.16663 3.18459 5.75287 0.666748 8.99996 0.666748C12.247 0.666748 14.8333 3.18459 14.8333 6.50008C14.8333 8.84276 13.1763 11.3639 9.91347 14.2129ZM13.1666 6.50008C13.1666 4.11521 11.3364 2.33341 8.99996 2.33341C6.6635 2.33341 4.83329 4.11521 4.83329 6.50008C4.83329 8.20589 6.1894 10.305 8.99996 12.7968C11.8105 10.305 13.1666 8.20589 13.1666 6.50008ZM8.99996 4.00008C10.3807 4.00008 11.5 5.11937 11.5 6.50008C11.5 7.88079 10.3807 9.00008 8.99996 9.00008C7.61925 9.00008 6.49996 7.88079 6.49996 6.50008C6.49996 5.11937 7.61925 4.00008 8.99996 4.00008ZM8.99996 5.66675C8.53972 5.66675 8.16663 6.03984 8.16663 6.50008C8.16663 6.96032 8.53972 7.33342 8.99996 7.33342C9.4602 7.33342 9.83329 6.96032 9.83329 6.50008C9.83329 6.03984 9.4602 5.66675 8.99996 5.66675Z" fill="#C5C7D2"/>
</svg>
