<svg width="28" height="25" viewBox="0 0 28 25" fill="none" xmlns="http://www.w3.org/2000/svg">
<path fill-rule="evenodd" clip-rule="evenodd" d="M18.2954 2.47202L27.052 17.4415C27.9633 18.9819 27.983 20.8915 27.1036 22.4504C26.2231 24.0111 24.5775 24.9803 22.7654 24.9979L5.21809 24.9978C3.42467 24.9833 1.77587 24.0111 0.895312 22.449C0.015481 20.8882 0.0360305 18.9743 0.944373 17.447L9.70429 2.47209C10.5943 0.939945 12.2335 -0.00207109 14.0057 3.41932e-06C15.7777 0.00207771 17.4162 0.947998 18.2954 2.47202ZM11.8641 3.73113L3.09769 18.7171C2.64292 19.4818 2.63264 20.4399 3.07314 21.2214C3.51412 22.0037 4.34 22.4906 5.22826 22.4979L22.7532 22.498C23.6609 22.4891 24.4852 22.0037 24.9261 21.2221C25.3664 20.4416 25.3566 19.4856 24.8972 18.7091L16.1336 3.72778C15.697 2.97092 14.8831 2.50103 14.0027 2.5C13.1223 2.49897 12.3081 2.96692 11.8641 3.73113ZM14.0005 19.9979C13.3099 19.9979 12.7501 19.4383 12.7501 18.7479C12.7501 18.0576 13.3099 17.4979 14.0005 17.4979C14.6911 17.4979 15.2509 18.0576 15.2509 18.7479C15.2509 19.4383 14.6911 19.9979 14.0005 19.9979ZM12.7538 7.49793H15.2546V16.2479H12.7538V7.49793Z" fill="#FB595B"/>
</svg>
