<svg width="28" height="29" viewBox="0 0 28 29" fill="none" xmlns="http://www.w3.org/2000/svg">
<path fill-rule="evenodd" clip-rule="evenodd" d="M14 28.25C6.40608 28.25 0.25 22.0939 0.25 14.5C0.25 6.90608 6.40608 0.75 14 0.75C21.5939 0.75 27.75 6.90608 27.75 14.5C27.75 22.0939 21.5939 28.25 14 28.25ZM14 25.75C20.2132 25.75 25.25 20.7132 25.25 14.5C25.25 8.2868 20.2132 3.25 14 3.25C7.7868 3.25 2.75 8.2868 2.75 14.5C2.75 20.7132 7.7868 25.75 14 25.75ZM15.2545 16.9979H16.5037V19.4979H11.5037V16.9979H12.7537V14.4979H11.5037V11.9979H15.2545V16.9979ZM14.0004 10.7479C13.3098 10.7479 12.75 10.1883 12.75 9.49793C12.75 8.80758 13.3098 8.24793 14.0004 8.24793C14.691 8.24793 15.2508 8.80758 15.2508 9.49793C15.2508 10.1883 14.691 10.7479 14.0004 10.7479Z" fill="#ED9135"/>
</svg>
