<svg viewBox="0 0 18 18" xmlns="http://www.w3.org/2000/svg">
    <path d="M4.41669 17.3333C2.34562 17.3333 0.666687 15.6544 0.666687 13.5833C0.666687 11.5123 2.34562 9.83332 4.41669 9.83332C6.48776 9.83332 8.16669 11.5123 8.16669 13.5833C8.16669 15.6544 6.48776 17.3333 4.41669 17.3333ZM13.5834 17.3333C11.5123 17.3333 9.83335 15.6544 9.83335 13.5833C9.83335 11.5123 11.5123 9.83332 13.5834 9.83332C15.6544 9.83332 17.3334 11.5123 17.3334 13.5833C17.3334 15.6544 15.6544 17.3333 13.5834 17.3333ZM4.41669 8.16666C2.34562 8.16666 0.666687 6.48772 0.666687 4.41666C0.666687 2.34559 2.34562 0.666656 4.41669 0.666656C6.48776 0.666656 8.16669 2.34559 8.16669 4.41666C8.16669 6.48772 6.48776 8.16666 4.41669 8.16666ZM13.5834 8.16666C11.5123 8.16666 9.83335 6.48772 9.83335 4.41666C9.83335 2.34559 11.5123 0.666656 13.5834 0.666656C15.6544 0.666656 17.3334 2.34559 17.3334 4.41666C17.3334 6.48772 15.6544 8.16666 13.5834 8.16666ZM13.5834 6.49999C14.7339 6.49999 15.6667 5.56725 15.6667 4.41666C15.6667 3.26606 14.7339 2.33332 13.5834 2.33332C12.4328 2.33332 11.5 3.26606 11.5 4.41666C11.5 5.56725 12.4328 6.49999 13.5834 6.49999ZM4.41669 6.49999C5.56728 6.49999 6.50002 5.56725 6.50002 4.41666C6.50002 3.26606 5.56728 2.33332 4.41669 2.33332C3.26609 2.33332 2.33335 3.26606 2.33335 4.41666C2.33335 5.56725 3.26609 6.49999 4.41669 6.49999ZM13.5834 15.6667C14.7339 15.6667 15.6667 14.7339 15.6667 13.5833C15.6667 12.4327 14.7339 11.5 13.5834 11.5C12.4328 11.5 11.5 12.4327 11.5 13.5833C11.5 14.7339 12.4328 15.6667 13.5834 15.6667ZM4.41669 15.6667C5.56728 15.6667 6.50002 14.7339 6.50002 13.5833C6.50002 12.4327 5.56728 11.5 4.41669 11.5C3.26609 11.5 2.33335 12.4327 2.33335 13.5833C2.33335 14.7339 3.26609 15.6667 4.41669 15.6667Z"
          fill="currentColor"></path>
</svg>
