<svg width="495" height="391" viewBox="0 0 495 391" fill="none" xmlns="http://www.w3.org/2000/svg">
<path d="M378.559 37.927H144.812V202.747H378.559V37.927Z" fill="#E6E6E6"/>
<path d="M207.866 150.379C200.847 150.376 193.986 148.291 188.151 144.387C182.315 140.483 177.768 134.935 175.084 128.445C172.399 121.955 171.698 114.815 173.069 107.926C174.44 101.037 177.822 94.7103 182.786 89.7447C187.75 84.779 194.075 81.3977 200.959 80.0284C207.844 78.6591 214.98 79.3632 221.465 82.0517C227.949 84.7401 233.492 89.2923 237.391 95.1326C241.291 100.973 243.372 107.839 243.372 114.863C243.362 124.281 239.617 133.311 232.96 139.969C226.304 146.628 217.278 150.372 207.866 150.379ZM207.866 88.9134C202.737 88.916 197.725 90.4401 193.462 93.293C189.199 96.1459 185.877 100.2 183.916 104.941C181.956 109.683 181.444 114.9 182.446 119.933C183.448 124.966 185.919 129.589 189.546 133.216C193.174 136.844 197.794 139.314 202.825 140.314C207.855 141.315 213.068 140.8 217.806 138.836C222.544 136.871 226.593 133.545 229.442 129.278C232.291 125.011 233.812 119.995 233.812 114.863C233.805 107.98 231.069 101.382 226.204 96.5168C221.339 91.6515 214.744 88.9168 207.866 88.9134Z" fill="white"/>
<path d="M243.372 114.863H233.812C233.801 107.981 231.064 101.385 226.2 96.5206C221.336 91.656 214.743 88.9203 207.866 88.9134V79.3469C217.278 79.3538 226.304 83.0975 232.96 89.7561C239.617 96.4147 243.362 105.444 243.372 114.863Z" fill="#24285B"/>
<path d="M207.866 150.379V140.76C214.743 140.753 221.336 138.017 226.2 133.153C231.064 128.288 233.801 121.692 233.812 114.811H243.372C243.376 124.238 239.637 133.281 232.979 139.951C226.32 146.621 217.287 150.372 207.866 150.379Z" fill="#FFD200"/>
<path d="M296.697 186.729L294.691 202.342L345.814 202.577L341.789 186.729H296.697Z" fill="#24285B"/>
<path opacity="0.08" d="M306.609 63.746C306.609 63.746 299.236 64.7235 299.236 75.5933C299.236 86.4631 305.228 93.6445 301.425 100.487C297.621 107.33 255.928 98.8578 263.105 158.16L229.149 132.093C229.149 132.093 220.683 142.35 230.985 154.484C241.288 166.618 267.976 202.017 267.976 202.017H303.912L306.27 171.141L313.903 91.0378L314.658 69.8587L306.609 63.746Z" fill="black"/>
<path d="M301.425 97.2287C301.425 97.2287 266.088 99.5877 273.551 163.699L237.368 135.025L231.181 140.76C231.181 140.76 267.221 203.711 293.701 179.117L301.425 97.2287Z" fill="#68C2E9"/>
<path opacity="0.08" d="M301.425 97.2287C301.425 97.2287 266.088 99.5877 273.551 163.699L237.368 135.025L231.181 140.76C231.181 140.76 267.221 203.711 293.701 179.117L301.425 97.2287Z" fill="black"/>
<path d="M309.721 95.769L320.871 96.1339C320.871 96.1339 355.244 98.532 360.454 118.734C365.664 138.935 341.789 186.729 341.789 186.729H296.709C296.709 186.729 257.687 99.2098 309.721 95.769Z" fill="#68C2E9"/>
<path d="M47.6065 162.539H33.0966V188.97H47.6065V162.539Z" fill="#FFD200"/>
<path opacity="0.08" d="M338.012 111.266C338.012 111.266 317.81 117.3 324.961 138.714C332.111 160.128 325.742 185.634 309.721 186.729H341.789L356.989 145.126L338.012 111.266Z" fill="black"/>
<path d="M333.231 121.718C332.802 109.298 348.64 103.472 356.273 113.299C360.571 118.812 363.632 126.332 363.202 136.655C361.9 167.609 353.85 202.343 353.85 202.343L339.744 202.642C339.744 202.642 343.547 172.066 337.139 148.984C334.771 140.081 333.459 130.929 333.231 121.718Z" fill="#68C2E9"/>
<path opacity="0.46" d="M333.231 121.718C332.802 109.298 348.64 103.472 356.273 113.299C360.571 118.812 363.632 126.332 363.202 136.655C361.9 167.609 353.85 202.343 353.85 202.343L339.744 202.642C339.744 202.642 343.547 172.066 337.139 148.984C334.771 140.081 333.459 130.929 333.231 121.718Z" fill="white"/>
<path d="M389.044 215.506L351.675 170.15L342.922 176.106C342.922 176.106 368.816 233.688 380.942 233.883C393.068 234.079 389.044 215.506 389.044 215.506Z" fill="#68C2E9"/>
<path opacity="0.08" d="M389.044 215.506L351.675 170.15L342.922 176.106C342.922 176.106 368.816 233.688 380.942 233.883C393.068 234.079 389.044 215.506 389.044 215.506Z" fill="black"/>
<path d="M97.4009 202.694L72.94 234.444L55.239 183.301C55.239 183.301 48.7265 177.762 44.3892 182.323C40.0519 186.885 50.9017 190.352 50.9017 190.352C50.9017 190.352 48.2967 249.419 70.4392 254.645C87.6582 258.699 128.947 235.903 125.287 209.693C123.425 196.126 105.763 191.851 97.4009 202.694Z" fill="#F4A28C"/>
<path opacity="0.45" d="M263.886 363.487C386.536 363.487 485.963 355.679 485.963 346.048C485.963 336.417 386.536 328.609 263.886 328.609C141.237 328.609 41.8102 336.417 41.8102 346.048C41.8102 355.679 141.237 363.487 263.886 363.487Z" fill="#E6E6E6"/>
<path d="M309.37 71.7615C308.672 75.1154 308.431 78.5482 308.653 81.9666C308.773 82.7747 309.207 83.5025 309.861 83.991C310.515 84.4795 311.336 84.6889 312.144 84.5733C313.455 84.4757 314.71 84.0021 315.758 83.2092C316.807 82.4164 317.605 81.3379 318.057 80.1029L320.519 74.9677C320.901 73.8889 320.939 72.7182 320.629 71.6167C320.319 70.5151 319.675 69.5367 318.787 68.816C315.635 65.9747 309.995 68.047 309.37 71.7615Z" fill="#F4A28C"/>
<path d="M320.076 75.9452L320.871 96.1339L309.721 95.7689L313.616 81.2368L320.076 75.9452Z" fill="#F4A28C"/>
<path d="M310.855 72.1916C312.732 72.4878 314.638 72.5665 316.534 72.4262C315.888 73.1934 315.481 74.133 315.363 75.1289C315.245 76.1248 315.421 77.1336 315.869 78.0306C316.288 78.9054 316.998 79.6073 317.877 80.0162C318.756 80.4251 319.75 80.5157 320.689 80.2723L321.522 72.4523C321.687 71.3232 321.543 70.1706 321.104 69.1171C320.666 68.0636 319.951 67.1488 319.034 66.47C318.241 65.892 317.415 65.3611 316.56 64.8799C314.397 63.7069 310.907 64.8148 309.07 63.0553C308.884 62.8767 308.654 62.7498 308.404 62.6871C308.153 62.6244 307.891 62.6281 307.642 62.6978C307.394 62.7676 307.168 62.9009 306.987 63.0847C306.805 63.2685 306.675 63.4965 306.609 63.746C305.97 66.092 305.957 69.8978 309.031 71.566C309.598 71.8792 310.215 72.0909 310.855 72.1916Z" fill="#24285B"/>
<path d="M315.205 77.7699C315.205 77.7699 315.531 75.4109 317.276 75.8019C319.021 76.1928 318.578 79.5945 316.13 79.6336L315.205 77.7699Z" fill="#F4A28C"/>
<path d="M308.771 75.5933L306.791 77.7569C306.677 77.8782 306.597 78.0264 306.557 78.1876C306.516 78.3487 306.518 78.5174 306.561 78.6779C306.604 78.8383 306.687 78.9851 306.802 79.1045C306.918 79.2238 307.062 79.3117 307.221 79.36L309.5 80.0768L308.771 75.5933Z" fill="#F4A28C"/>
<path opacity="0.31" d="M312.6 84.3778C314.043 84.21 315.404 83.6156 316.507 82.6704C316.507 82.6704 315.908 86.3198 311.454 89.4608L312.6 84.3778Z" fill="#CE8172"/>
<path d="M373.257 326.772C373.257 326.772 373.192 331.907 369.181 333.679C365.169 335.452 365.482 339.857 369.558 339.636C373.635 339.414 381.554 331.333 381.554 331.333L378.611 323.891L373.257 326.772Z" fill="#68C2E9"/>
<path d="M389.044 272.84C389.044 272.84 365.143 273.896 367.748 290.122C370.353 306.348 380.89 323.891 380.89 323.891L371.708 327.801C371.708 327.801 353.473 306.844 351.675 280.999C349.878 255.154 386.465 260.836 389.044 272.84Z" fill="#24285B"/>
<path opacity="0.08" d="M389.044 272.84C389.044 272.84 365.143 273.896 367.748 290.122C370.353 306.348 380.89 323.891 380.89 323.891L371.708 327.801C371.708 327.801 353.473 306.844 351.675 280.999C349.878 255.154 386.465 260.836 389.044 272.84Z" fill="black"/>
<path d="M354.059 327.88C354.059 327.88 353.98 333.093 349.982 334.787C345.983 336.482 346.283 340.978 350.36 340.743C354.436 340.509 362.356 332.454 362.356 332.454L359.412 325.012L354.059 327.88Z" fill="#68C2E9"/>
<path d="M407.552 280.06H402.16V326.602H407.552V280.06Z" fill="#FFD200"/>
<path opacity="0.46" d="M407.552 280.06H402.16V326.602H407.552V280.06Z" fill="white"/>
<path d="M422.726 167.244C422.726 167.244 427.676 140.63 451.551 152.672C469.161 161.548 451.968 232.345 441.704 268.943C439.95 275.199 436.201 280.712 431.029 284.64C425.856 288.569 419.543 290.7 413.049 290.709H379.314C369.024 290.709 367.188 276.02 377.152 273.465L377.751 273.322C383.547 272.019 390.359 270.924 396.572 270.103C401.811 269.418 406.655 266.948 410.289 263.11C413.923 259.272 416.125 254.3 416.527 249.028L422.726 167.244Z" fill="#FFD200"/>
<path d="M402.16 326.602L382.844 341.838H425.826L407.552 326.602H402.16Z" fill="#FFD200"/>
<path opacity="0.08" d="M402.16 326.602L382.844 341.838H425.826L407.552 326.602H402.16Z" fill="black"/>
<path d="M402.824 137.567C402.802 140.99 403.24 144.401 404.127 147.707C404.396 148.476 404.957 149.108 405.688 149.466C406.419 149.825 407.262 149.881 408.034 149.623C409.299 149.264 410.433 148.548 411.302 147.561C412.17 146.574 412.736 145.358 412.932 144.057L414.325 138.544C414.486 137.41 414.291 136.253 413.769 135.234C413.247 134.214 412.422 133.381 411.408 132.849C407.813 130.646 402.642 133.813 402.824 137.567Z" fill="#F4A28C"/>
<path d="M414.143 139.535L418.949 159.15L407.969 161.027L408.881 145.999L414.143 139.535Z" fill="#F4A28C"/>
<path opacity="0.31" d="M408.542 149.284C409.894 148.824 411.081 147.976 411.955 146.847C411.955 146.847 412.098 150.535 408.36 154.51L408.542 149.284Z" fill="#CE8172"/>
<path d="M416.8 156.791C409.235 156.504 401.746 158.388 395.217 162.222C388.688 166.055 383.391 171.678 379.952 178.426C377.731 182.945 376.141 187.747 375.224 192.698C369.233 223.704 386.322 251.543 386.322 251.543L421.567 251.843C421.567 251.843 468.171 162.03 416.8 156.791Z" fill="#68C2E9"/>
<path d="M421.567 251.843C421.567 251.843 421.085 272.019 407.435 273.765C393.785 275.512 362.538 264.981 358.63 282.015C354.723 299.05 362.538 326.133 362.538 326.133L352.978 328.805C352.978 328.805 331.604 287.854 344.186 268.435C356.768 249.015 386.322 251.491 386.322 251.491L421.567 251.843Z" fill="#24285B"/>
<path opacity="0.08" d="M425.409 179.169C425.409 179.169 434.345 204.154 418.897 217.722C403.449 231.29 394.657 232.971 402.472 251.843L386.321 251.543C386.321 251.543 377.881 236.164 376.175 225.255C374.469 214.346 425.409 179.169 425.409 179.169Z" fill="black"/>
<path d="M175.864 254.619H167.111V342.281H175.864V254.619Z" fill="#A5A5A5"/>
<path d="M356.989 254.619H348.236V342.281H356.989V254.619Z" fill="#A5A5A5"/>
<path d="M365.078 240.895H158.293V263.977H365.078V240.895Z" fill="#E6E6E6"/>
<path d="M284.687 241.469L273.551 199.931L278.969 198.771L289.468 235.134L319.855 237.741V241.469H284.687Z" fill="#FFD200"/>
<path d="M161.953 192.75C161.953 192.75 178.651 205.288 185.802 222.896C186.71 225.072 187.068 227.438 186.844 229.786C186.62 232.133 185.82 234.389 184.517 236.353C183.213 238.317 181.446 239.93 179.37 241.047C177.295 242.164 174.977 242.752 172.62 242.759L153.083 242.889L161.953 192.75Z" fill="#F4A28C"/>
<path d="M142.507 175.82L140.996 184.578L133.102 185.152L137.909 171.141L142.507 175.82Z" fill="#F4A28C"/>
<path d="M139.745 162.917C140.429 162.362 141.241 161.989 142.108 161.833C142.974 161.677 143.866 161.744 144.699 162.026C145.533 162.309 146.282 162.798 146.875 163.448C147.469 164.098 147.888 164.889 148.094 165.745C149.149 169.759 149.892 175.624 145.242 176.172C138.117 176.901 136.867 167.713 136.867 167.713C137.329 165.864 138.331 164.194 139.745 162.917Z" fill="#F4A28C"/>
<path d="M141.113 169.433C141.113 169.433 140.383 167.596 138.925 168.86C137.466 170.124 139.407 172.157 140.553 171.74C141.699 171.323 141.113 169.433 141.113 169.433Z" fill="#F4A28C"/>
<path d="M112.132 189.4C112.132 189.4 131.123 178.856 148.016 185.165C178.781 196.634 177.088 217.279 155.492 276.398L127.163 276.554L112.132 189.4Z" fill="#68C2E9"/>
<path opacity="0.08" d="M141.191 183.47C141.191 183.47 139.355 187.967 142.494 201.065C145.633 214.164 161.953 258.06 161.953 258.06L155.44 276.424H145.138L113.5 188.71C113.5 188.71 127.827 181.268 141.191 183.47Z" fill="black"/>
<path d="M131.318 180.042C132.464 178.552 133.229 176.804 133.544 174.95C133.86 173.096 133.717 171.193 133.128 169.407C132.588 167.697 132.517 165.873 132.923 164.126C133.328 162.379 134.196 160.773 135.434 159.476C142.311 151.317 152.145 157.078 148.889 161.718C145.632 166.357 143.848 168.469 143.848 168.469C143.848 168.469 155.727 180.955 149.527 188.579C144.017 195.357 121.51 192.502 131.318 180.042Z" fill="#24285B"/>
<path d="M86.1605 302.699L101.009 332.637L105.841 331.685L96.6065 297.525L86.1605 302.699Z" fill="#F4A28C"/>
<path d="M100.618 331.62C100.618 331.62 99.6152 335.96 96.3719 337.303C93.1287 338.645 94.7829 343.363 99.6803 340.483C101.201 339.588 102.647 338.573 104.005 337.446C105.271 336.438 106.78 335.782 108.381 335.543C108.688 335.475 108.965 335.313 109.175 335.079C109.385 334.845 109.517 334.552 109.553 334.24C110.204 331.842 104.786 329.613 104.786 329.613L100.618 331.62Z" fill="#68C2E9"/>
<path d="M107.222 302.699L122.07 332.637L126.903 331.685L117.668 297.525L107.222 302.699Z" fill="#F4A28C"/>
<path d="M121.68 331.62C121.68 331.62 120.69 335.96 117.433 337.303C114.177 338.645 115.844 343.363 120.742 340.483C122.253 339.587 123.691 338.572 125.04 337.446C126.306 336.438 127.816 335.782 129.416 335.543C129.724 335.474 130.002 335.311 130.214 335.078C130.426 334.845 130.561 334.552 130.602 334.24C131.24 331.842 125.821 329.613 125.821 329.613L121.68 331.62Z" fill="#68C2E9"/>
<path d="M94.6918 266.662C94.6918 266.662 72.5493 274.599 75.4539 289.001C78.3584 303.403 88.8045 326.042 88.8045 326.042L133.819 323.305C133.819 323.305 123.034 283.762 146.154 282.667L149.214 274.704L94.6918 266.662Z" fill="#24285B"/>
<path opacity="0.58" d="M211.904 228.761C211.904 228.761 202.369 226.154 200.298 217.279C200.298 217.279 215.069 214.294 215.486 229.543L211.904 228.761Z" fill="#68C2E9"/>
<path opacity="0.73" d="M213.063 227.823C213.063 227.823 206.407 217.279 212.268 207.439C212.268 207.439 223.496 214.568 218.507 227.836L213.063 227.823Z" fill="#68C2E9"/>
<path d="M214.782 227.823C214.782 227.823 218.299 216.692 228.94 214.594C228.94 214.594 230.933 221.814 222.05 227.849L214.782 227.823Z" fill="#68C2E9"/>
<path d="M207.866 227.575L209.807 240.804L221.972 240.856L223.769 227.64L207.866 227.575Z" fill="#24285B"/>
<path d="M135.799 282.667H130.406V329.209H135.799V282.667Z" fill="#FFD200"/>
<path opacity="0.46" d="M135.799 282.667H130.406V329.209H135.799V282.667Z" fill="white"/>
<path d="M130.927 329.209L111.611 344.445H154.594L136.32 329.209H130.927Z" fill="#FFD200"/>
<path opacity="0.08" d="M130.927 329.209L111.611 344.445H154.594L136.32 329.209H130.927Z" fill="black"/>
<path d="M145.776 274.704C145.776 274.704 151.598 193.793 117.121 187.55C82.6436 181.307 71.1425 211.01 91.3183 274.704H145.776Z" fill="#FFD200"/>
<path d="M91.2791 274.704C91.2791 274.704 92.8812 285.13 98.0912 288.845C103.301 292.559 163.841 300.014 168.075 290.226C171.24 282.915 161.236 275.473 145.776 274.704H91.2791Z" fill="#FFD200"/>
<path d="M405.143 138.649C405.143 138.649 404.791 150.626 412.346 148.789C419.9 146.951 415.784 137.593 415.784 137.593C415.784 137.593 415.511 129.669 409.793 128.834C404.075 128 395.96 128.326 396.181 131.637C396.403 134.947 398.708 140.851 405.143 138.649Z" fill="#24285B"/>
<path d="M404.205 163.399C407.383 162.26 410.854 162.237 414.047 163.334C417.24 164.431 419.966 166.582 421.776 169.433C424.902 174.451 426.777 181.685 421.567 190.417C411.251 207.686 404.413 249.992 318.123 240.895V229.856C318.123 229.856 374.625 225.946 382.844 204.141C389.773 185.725 389.174 168.69 404.205 163.399Z" fill="#68C2E9"/>
<path opacity="0.46" d="M404.205 163.399C407.383 162.26 410.854 162.237 414.047 163.334C417.24 164.431 419.966 166.582 421.776 169.433C424.902 174.451 426.777 181.685 421.567 190.417C411.251 207.686 404.413 249.992 318.123 240.895V229.856C318.123 229.856 374.625 225.946 382.844 204.141C389.773 185.725 389.174 168.69 404.205 163.399Z" fill="white"/>
<path d="M318.123 234.079C318.123 234.079 301.841 232.072 304.121 240.895H318.123V234.079Z" fill="#F4A28C"/>
<path d="M348.966 171.962C348.966 171.962 341.802 161.327 336.019 167.218C330.236 173.109 344.277 175.455 344.277 175.455L348.966 171.962Z" fill="#F4A28C"/>
<path d="M208.647 103.367C209.286 103.367 209.481 103.589 209.481 104.228V105.531C210.588 105.647 211.642 106.063 212.53 106.733C213.418 107.404 214.106 108.304 214.522 109.337C214.847 110.001 214.704 110.353 213.975 110.64L212.672 111.253C212.034 111.552 211.734 111.409 211.37 110.757C211.088 110.074 210.594 109.5 209.96 109.12C209.327 108.739 208.588 108.573 207.853 108.646C205.521 108.646 204.453 109.324 204.453 110.888C204.507 111.368 204.726 111.814 205.073 112.15C205.42 112.485 205.874 112.689 206.355 112.725C207.002 112.874 207.66 112.975 208.322 113.025C209.566 113.087 210.794 113.329 211.969 113.742C212.572 113.95 213.13 114.273 213.61 114.693C214.105 115.212 214.489 115.827 214.74 116.499C214.991 117.171 215.102 117.887 215.069 118.603C215.069 121.588 213.063 123.621 209.533 124.142V125.576C209.533 126.202 209.338 126.423 208.7 126.423H207.098C206.459 126.423 206.238 126.202 206.238 125.576V124.103C205.01 124.022 203.834 123.577 202.86 122.825C201.886 122.073 201.158 121.048 200.767 119.881C200.702 119.756 200.666 119.618 200.663 119.478C200.661 119.337 200.691 119.198 200.752 119.071C200.813 118.945 200.902 118.834 201.013 118.748C201.125 118.662 201.255 118.604 201.393 118.577L202.695 118.082C203.385 117.847 203.685 118.004 203.998 118.695C204.273 119.434 204.785 120.061 205.454 120.479C206.123 120.896 206.912 121.08 207.697 121.001C210.224 121.001 211.474 120.206 211.474 118.577C211.496 118.204 211.393 117.835 211.18 117.527C210.968 117.22 210.658 116.993 210.302 116.883C209.43 116.575 208.516 116.399 207.592 116.362C206.335 116.286 205.096 116.018 203.919 115.567C203.337 115.366 202.797 115.056 202.33 114.654C201.837 114.17 201.451 113.589 201.195 112.947C200.939 112.305 200.82 111.617 200.845 110.927C200.845 107.968 202.708 105.987 206.212 105.531V104.267C206.212 103.628 206.433 103.406 207.071 103.406L208.647 103.367Z" fill="#A5A5A5"/>
<path opacity="0.35" d="M233.799 162.539H183.64V185.073H233.799V162.539Z" fill="#A5A5A5"/>
<path d="M237.368 135.025C237.368 135.025 229.826 123.295 225.645 126.554C221.464 129.812 231.181 140.76 231.181 140.76L237.368 135.025Z" fill="#F4A28C"/>
<path d="M414.846 27.5004H349.851V75.5933H414.846V27.5004Z" fill="#FFD200"/>
<path d="M372.841 41.4069V62.6382L396.181 50.5302L372.841 41.4069Z" fill="white"/>
<path d="M162.643 59.6145C165.521 59.6145 167.853 57.2804 167.853 54.4011C167.853 51.5219 165.521 49.1878 162.643 49.1878C159.766 49.1878 157.433 51.5219 157.433 54.4011C157.433 57.2804 159.766 59.6145 162.643 59.6145Z" fill="#24285B"/>
<path d="M178.143 59.6145C181.02 59.6145 183.353 57.2804 183.353 54.4011C183.353 51.5219 181.02 49.1878 178.143 49.1878C175.265 49.1878 172.933 51.5219 172.933 54.4011C172.933 57.2804 175.265 59.6145 178.143 59.6145Z" fill="#68C2E9"/>
<path d="M192.744 59.6145C195.621 59.6145 197.954 57.2804 197.954 54.4011C197.954 51.5219 195.621 49.1878 192.744 49.1878C189.867 49.1878 187.534 51.5219 187.534 54.4011C187.534 57.2804 189.867 59.6145 192.744 59.6145Z" fill="#FFD200"/>
</svg>
