<svg width="374" height="411" viewBox="0 0 374 411" fill="none" xmlns="http://www.w3.org/2000/svg">
<path fill-rule="evenodd" clip-rule="evenodd" d="M19.5 39C30.2696 39 39 30.2696 39 19.5C39 8.73045 30.2696 0 19.5 0C8.73045 0 0 8.73045 0 19.5C0 30.2696 8.73045 39 19.5 39Z" fill="#D5E5FF"/>
<path fill-rule="evenodd" clip-rule="evenodd" d="M309 144C313.418 144 317 140.418 317 136C317 131.582 313.418 128 309 128C304.582 128 301 131.582 301 136C301 140.418 304.582 144 309 144Z" fill="#FFD167"/>
<path fill-rule="evenodd" clip-rule="evenodd" d="M366 411C370.418 411 374 407.418 374 403C374 398.582 370.418 395 366 395C361.582 395 358 398.582 358 403C358 407.418 361.582 411 366 411Z" fill="#68C2E9"/>
</svg>
