<svg width="40" height="40" viewBox="0 0 40 40" fill="none" xmlns="http://www.w3.org/2000/svg">
<path d="M23.9062 26.7188C24.5534 26.7188 25.0781 26.1941 25.0781 25.5469V24.7656H34.9219C35.5691 24.7656 36.0938 24.2409 36.0938 23.5938V20.0781H38.8281C39.4753 20.0781 40 19.5534 40 18.9062V15C40 14.3528 39.4753 13.8281 38.8281 13.8281H36.0938V10.3125C36.0938 9.66531 35.5691 9.14062 34.9219 9.14062H21.1719V6.79688H24.0234C25.8973 6.79688 27.4219 5.27234 27.4219 3.39844C27.4219 1.52453 25.8973 0 24.0234 0H15.9766C14.1027 0 12.5781 1.52453 12.5781 3.39844C12.5781 5.27234 14.1027 6.79688 15.9766 6.79688H18.8281V9.14062H5.07812C4.43094 9.14062 3.90625 9.66531 3.90625 10.3125V13.8281H1.17188C0.524687 13.8281 0 14.3528 0 15V18.9062C0 19.5534 0.524687 20.0781 1.17188 20.0781H3.90625V23.5938C3.90625 24.2409 4.43094 24.7656 5.07812 24.7656H14.9219V25.5469C14.9219 26.1941 15.4466 26.7188 16.0938 26.7188H18.8281V29.0625H5.07812C4.43094 29.0625 3.90625 29.5872 3.90625 30.2344V33.75H1.17188C0.524687 33.75 0 34.2747 0 34.9219V38.8281C0 39.4753 0.524687 40 1.17188 40H8.98438C9.63156 40 10.1562 39.4753 10.1562 38.8281V34.9219C10.1562 34.2747 9.63156 33.75 8.98438 33.75H6.25V31.4062H18.8281V33.75H16.0938C15.4466 33.75 14.9219 34.2747 14.9219 34.9219V38.8281C14.9219 39.4753 15.4466 40 16.0938 40H23.9062C24.5534 40 25.0781 39.4753 25.0781 38.8281V34.9219C25.0781 34.2747 24.5534 33.75 23.9062 33.75H21.1719V31.4062H33.75V33.75H31.0156C30.3684 33.75 29.8438 34.2747 29.8438 34.9219V38.8281C29.8438 39.4753 30.3684 40 31.0156 40H38.8281C39.4753 40 40 39.4753 40 38.8281V34.9219C40 34.2747 39.4753 33.75 38.8281 33.75H36.0938V30.2344C36.0938 29.5872 35.5691 29.0625 34.9219 29.0625H21.1719V26.7188H23.9062ZM16.0938 20.4688C15.4466 20.4688 14.9219 20.9934 14.9219 21.6406V22.4219H6.25V20.0781H8.98438C9.63156 20.0781 10.1562 19.5534 10.1562 18.9062V15C10.1562 14.3528 9.63156 13.8281 8.98438 13.8281H6.25V11.4844H33.75V13.8281H31.0156C30.3684 13.8281 29.8438 14.3528 29.8438 15V18.9062C29.8438 19.5534 30.3684 20.0781 31.0156 20.0781H33.75V22.4219H25.0781V21.6406C25.0781 20.9934 24.5534 20.4688 23.9062 20.4688H16.0938Z" fill="#C5C7D2"/>
<rect y="13.84" width="10.15" height="6.25" rx="1" fill="#4368E0"/>
<rect x="29.85" y="13.84" width="10.15" height="6.25" rx="1" fill="#4368E0"/>
<rect x="14.9" y="20.5" width="10.15" height="6.25" rx="1" fill="#4368E0"/>
<rect x="14.9" y="33.75" width="10.15" height="6.25" rx="1" fill="#4368E0"/>
<rect y="33.75" width="10.15" height="6.25" rx="1" fill="#4368E0"/>
<rect x="29.85" y="33.75" width="10.15" height="6.25" rx="1" fill="#4368E0"/>
</svg>
