<svg width="10" height="10" viewBox="0 0 10 10" fill="none" xmlns="http://www.w3.org/2000/svg">
<g clip-path="url(#clip0)">
<path d="M9.54523 2.27225H1.55168L3.04844 0.775466C3.22595 0.597981 3.22595 0.310163 3.04844 0.132648C2.87095 -0.0448671 2.58313 -0.0448671 2.40562 0.132648L0.132892 2.40538C-0.0446229 2.58286 -0.0446229 2.87068 0.132892 3.04819L2.40562 5.32092C2.49438 5.40968 2.61071 5.45407 2.72704 5.45407C2.84338 5.45407 2.95971 5.40968 3.04844 5.32092C3.22595 5.14344 3.22595 4.85562 3.04844 4.6781L1.55168 3.18135H9.54523C9.79626 3.18135 9.99977 2.97783 9.99977 2.7268C9.99977 2.47577 9.79626 2.27225 9.54523 2.27225Z" fill="#97AACD"/>
<path d="M7.59412 4.67852C7.41664 4.50104 7.12882 4.50104 6.9513 4.67852C6.77379 4.85601 6.77379 5.14383 6.9513 5.32134L8.44809 6.81813H0.454545C0.203515 6.81813 0 7.02164 0 7.27268C0 7.52371 0.203515 7.72722 0.454545 7.72722H8.44809L6.95133 9.22401C6.77382 9.40149 6.77382 9.68931 6.95133 9.86683C7.04006 9.95555 7.15639 9.99995 7.27273 9.99995C7.38906 9.99995 7.50539 9.95555 7.59412 9.8668L9.86685 7.59407C10.0444 7.41658 10.0444 7.12877 9.86685 6.95125L7.59412 4.67852Z" fill="#97AACD"/>
</g>
<defs>
<clipPath id="clip0">
<rect width="10" height="10" fill="white"/>
</clipPath>
</defs>
</svg>
