<svg width="283" height="212" viewBox="0 0 283 212" fill="none" xmlns="http://www.w3.org/2000/svg">
<path opacity="0.3" d="M66.2149 61.0136C45.9238 73.352 33.9034 96.0006 35.7924 119.667C36.79 131.744 41.2897 143.404 53.1828 149.813C84.9 166.773 223.365 167.091 243.861 137.093C264.357 107.095 256.731 64.4197 212.165 46.64C173.529 31.1852 118.598 29.15 66.2149 61.0136Z" fill="#F6F9FE"/>
<path opacity="0.58" d="M204.33 49.5976L189.609 56.2026L198.721 76.4629L213.442 69.8579L204.33 49.5976Z" fill="#C9C9C9"/>
<path d="M115.004 73.9668L98.5972 81.2172C92.6226 83.85 85.982 84.5842 79.5756 83.3201C73.1692 82.056 67.307 78.8548 62.7836 74.1505L46.6313 57.346L40.4761 61.586L54.0601 82.0793C59.7976 90.7253 67.8862 97.5563 77.3758 101.77C86.8654 105.983 97.3619 107.404 107.632 105.866L131.482 102.297L115.004 73.9668Z" fill="#68C2E9"/>
<path opacity="0.46" d="M115.004 73.9668L98.5972 81.2172C92.6226 83.85 85.982 84.5842 79.5756 83.3201C73.1692 82.056 67.307 78.8548 62.7836 74.1505L46.6313 57.346L40.4761 61.586L54.0601 82.0793C59.7976 90.7253 67.8862 97.5563 77.3758 101.77C86.8654 105.983 97.3619 107.404 107.632 105.866L131.482 102.297L115.004 73.9668Z" fill="white"/>
<path d="M204.093 87.9447C204.093 87.9447 221.78 81.6483 234.515 95.718C247.25 109.788 252.91 135.291 252.91 135.291C252.91 135.291 213.29 116.918 192.773 135.291C172.255 153.665 137.708 133.56 137.708 133.56L126.19 94.2764L117.799 77.5991L137.708 68.9707L164.119 69.4441L174.753 80.56L185.365 90.1353L204.093 87.9447Z" fill="#FFD200"/>
<path opacity="0.08" d="M204.093 87.9447C204.093 87.9447 221.78 81.6483 234.515 95.718C247.25 109.788 252.91 135.291 252.91 135.291C252.91 135.291 213.29 116.918 192.773 135.291C172.255 153.665 137.708 133.56 137.708 133.56L126.19 94.2764L117.799 77.5991L137.708 68.9707L164.119 69.4441L174.753 80.56L185.365 90.1353L204.093 87.9447Z" fill="black"/>
<path d="M162.265 165.848C162.265 165.848 165.187 168.413 164.232 171.586C163.277 174.759 165.972 176.759 167.847 174.299C169.722 171.84 168.986 163.318 168.986 163.318L163.249 161.346L162.265 165.848Z" fill="#68C2E9"/>
<path d="M211.91 169.261C211.91 169.261 215.696 170.172 216.332 173.43C216.969 176.688 220.28 177.19 220.797 174.137C221.313 171.084 216.672 163.89 216.672 163.89L210.679 164.823L211.91 169.261Z" fill="#68C2E9"/>
<path d="M128.864 135.199L154.886 153.742C168.342 163.331 184.289 168.824 200.803 169.558L211.642 170.038V164.145L194.18 158.293C187.518 156.046 181.478 152.265 176.55 147.255L159.287 129.702L128.864 135.199Z" fill="#24285B"/>
<path opacity="0.08" d="M128.864 135.199L154.886 153.742C168.342 163.331 184.289 168.824 200.803 169.558L211.642 170.038V164.145L194.18 158.293C187.518 156.046 181.478 152.265 176.55 147.255L159.287 129.702L128.864 135.199Z" fill="black"/>
<path opacity="0.75" d="M257.908 162.509L241.721 159.316L237.316 181.598L253.503 184.791L257.908 162.509Z" fill="#E6E6E6"/>
<path opacity="0.75" d="M142.77 169.603L130.381 176.747L140.237 193.797L152.626 186.653L142.77 169.603Z" fill="#E6E6E6"/>
<path d="M110.993 53.4593C110.993 53.4593 109.181 57.3107 108.87 60.2009C108.839 60.4818 108.864 60.766 108.944 61.037C109.025 61.3079 109.158 61.5601 109.338 61.7787C109.517 61.9973 109.738 62.1778 109.988 62.3098C110.239 62.4418 110.513 62.5224 110.795 62.5471C111.692 62.69 112.611 62.5721 113.442 62.2075C114.274 61.8428 114.983 61.2469 115.485 60.4907L117.961 57.4379C118.401 56.7737 118.622 55.9887 118.593 55.1929C118.564 54.397 118.286 53.6303 117.799 53C116.143 50.5832 111.976 51.0567 110.993 53.4593Z" fill="#F4A28C"/>
<path d="M116.179 57.9396L119.242 71.5359L111.622 72.6948L112.45 62.3351L116.179 57.9396Z" fill="#F4A28C"/>
<path d="M111.926 53.9893C113.143 54.4891 114.413 54.8472 115.712 55.0564C115.154 55.467 114.729 56.0321 114.49 56.6816C114.251 57.3311 114.209 58.0363 114.367 58.7099C114.507 59.3659 114.87 59.9531 115.396 60.3709C115.921 60.7886 116.576 61.0108 117.247 60.9995L119.072 55.8267C119.359 55.0991 119.445 54.3077 119.32 53.5357C119.196 52.7636 118.866 52.0392 118.365 51.4383C117.924 50.9213 117.452 50.4328 116.95 49.9755C115.69 48.8377 113.165 49.0285 112.202 47.5445C112.105 47.3957 111.971 47.2746 111.813 47.1932C111.656 47.1117 111.479 47.0726 111.301 47.0797C111.124 47.0868 110.951 47.1399 110.8 47.2338C110.649 47.3277 110.525 47.4591 110.441 47.6152C109.634 49.0921 109.026 51.6503 110.809 53.2685C111.14 53.5675 111.517 53.811 111.926 53.9893Z" fill="#24285B"/>
<path d="M113.985 58.4343C113.985 58.4343 114.58 56.9079 115.69 57.452C116.801 57.9961 115.959 60.208 114.275 59.8405L113.985 58.4343Z" fill="#F4A28C"/>
<path d="M109.981 55.9468L108.297 57.0704C108.207 57.1385 108.135 57.2272 108.086 57.329C108.037 57.4307 108.013 57.5427 108.017 57.6555C108.02 57.7682 108.051 57.8785 108.106 57.9771C108.161 58.0758 108.238 58.1598 108.332 58.2223L109.747 59.0703L109.981 55.9468Z" fill="#F4A28C"/>
<path opacity="0.31" d="M112.592 62.6531C113.573 62.5506 114.503 62.1624 115.266 61.5365C115.266 61.5365 115.436 64.1017 112.309 66.2005L112.592 62.6531Z" fill="#CE8172"/>
<path d="M111.622 72.6948L119.242 71.5429C119.242 71.5429 158.105 60.5967 163.765 83.8813C169.425 107.166 168.76 122.543 168.76 122.543L142.54 135.263C142.54 135.263 70.3751 106 111.622 72.6948Z" fill="#68C2E9"/>
<path d="M123.013 92.8092L103.143 98.1905L110.606 125.684L130.477 120.302L123.013 92.8092Z" fill="#24285B"/>
<path d="M115.078 92.9604L108.223 94.817L109.232 98.5341L116.087 96.6775L115.078 92.9604Z" fill="#FFD200"/>
<path opacity="0.08" d="M128.553 87.2521C128.553 87.2521 124.308 97.7603 140.241 101.152C156.174 104.544 156.159 115.286 145.724 115.915C135.288 116.543 119.879 110.904 120.155 123.101C120.155 123.101 132.281 131.405 142.54 135.291L168.76 122.571V120.946L170.133 98.2267L156.513 85.1533L128.553 87.2521Z" fill="black"/>
<path d="M127.01 80.4611C128.008 73.2036 134.842 68.2357 142.13 69.0625C152.127 70.1932 167.281 74.6593 174.3 90.6724C185.266 115.703 178.545 131.32 126.19 115.915L127.605 110.049C127.605 110.049 162.98 114.289 160.857 103.145C159.067 93.7676 124.711 97.2585 127.01 80.4611Z" fill="#68C2E9"/>
<path opacity="0.46" d="M127.01 80.4611C128.008 73.2036 134.842 68.2357 142.13 69.0625C152.127 70.1932 167.281 74.6593 174.3 90.6724C185.266 115.703 178.545 131.32 126.19 115.915L127.605 110.049C127.605 110.049 162.98 114.289 160.857 103.145C159.067 93.7676 124.711 97.2585 127.01 80.4611Z" fill="white"/>
<path d="M116.589 67.9389C112.317 68.8452 108.367 70.8834 105.156 73.8396C103.429 75.3795 102.065 77.2809 101.158 79.4081C98.675 85.8247 112.478 87.4712 129.112 80.9911C145.745 74.5109 153.167 69.2887 166.609 77.91C180.052 86.5313 185.712 96.4246 204.107 87.9446C204.107 87.9446 182.174 87.9447 175.099 71.3521C169.206 57.5439 129.763 65.0133 116.589 67.9389Z" fill="#FFD200"/>
<path d="M127.605 110.049C127.605 110.049 122.73 105.293 119.369 106C116.009 106.707 117.954 113.681 126.19 115.95L127.605 110.049Z" fill="#F4A28C"/>
<path d="M168.76 122.543C168.76 122.543 117.926 128.903 120.155 141.623C122.383 154.343 162.704 167.063 162.704 167.063L165.887 160.703L139.71 141.976C139.71 141.976 184.014 152.548 168.76 122.543Z" fill="#24285B"/>
<path d="M40.4761 61.5577C40.4761 61.5577 29.1561 60.0525 32.2266 56.8796C35.2972 53.7067 46.6313 57.346 46.6313 57.346L40.4761 61.5577Z" fill="#F4A28C"/>
<path d="M28.1302 20.0199H50.2325C50.2325 20.0199 52.5389 37.4533 39.1672 37.4533C39.1672 37.4533 26.3968 37.8703 28.1302 20.0199Z" fill="#FFD200"/>
<path d="M39.1813 23.3836C45.2847 23.3836 50.2325 21.9725 50.2325 20.2319C50.2325 18.4912 45.2847 17.0801 39.1813 17.0801C33.078 17.0801 28.1302 18.4912 28.1302 20.2319C28.1302 21.9725 33.078 23.3836 39.1813 23.3836Z" fill="#FFD200"/>
<path opacity="0.08" d="M39.1813 23.3836C45.2847 23.3836 50.2325 21.9725 50.2325 20.2319C50.2325 18.4912 45.2847 17.0801 39.1813 17.0801C33.078 17.0801 28.1302 18.4912 28.1302 20.2319C28.1302 21.9725 33.078 23.3836 39.1813 23.3836Z" fill="black"/>
<path d="M44.339 44.8733H33.2525V55.9468H44.339V44.8733Z" fill="#24285B"/>
<path d="M40.4832 34.0119H38.1201V44.8804H40.4832V34.0119Z" fill="#FFD200"/>
<path d="M29.715 26.3799H25.7671C24.6244 26.3799 23.5285 26.8333 22.7204 27.6403C21.9124 28.4474 21.4585 29.5421 21.4585 30.6834V30.6834C21.4603 31.8236 21.9151 32.9164 22.7229 33.722C23.5308 34.5275 24.6256 34.98 25.7671 34.98H37.0235" stroke="#FFD200" stroke-width="3" stroke-miterlimit="10"/>
<path d="M48.6477 26.3799H52.5956C53.7383 26.3799 54.8342 26.8333 55.6423 27.6403C56.4503 28.4474 56.9042 29.5421 56.9042 30.6834V30.6834C56.9024 31.8236 56.4476 32.9164 55.6398 33.722C54.8319 34.5275 53.7371 34.98 52.5956 34.98H41.3392" stroke="#FFD200" stroke-width="3" stroke-miterlimit="10"/>
<path opacity="0.46" d="M35.4953 33.2981C37.5935 33.2981 39.2945 31.5991 39.2945 29.5033C39.2945 27.4075 37.5935 25.7085 35.4953 25.7085C33.397 25.7085 31.696 27.4075 31.696 29.5033C31.696 31.5991 33.397 33.2981 35.4953 33.2981Z" fill="white"/>
</svg>
