<svg width="20" height="20" viewBox="0 0 20 20" fill="none" xmlns="http://www.w3.org/2000/svg">
<g>
<path d="M10 0C4.47737 0 0 4.47737 0 10C0 15.5226 4.47737 20 10 20C15.5226 20 20 15.5226 20 10C20 4.47737 15.5226 0 10 0ZM12.8724 13.9424C12.4362 14.4733 11.8683 14.8313 11.2058 15.0123C10.9177 15.0905 10.786 15.2428 10.8025 15.5432C10.8148 15.8395 10.8025 16.1317 10.7984 16.428C10.7984 16.6914 10.6626 16.8313 10.4033 16.8395C10.2346 16.8436 10.0658 16.8477 9.89712 16.8477C9.74897 16.8477 9.60082 16.8477 9.45267 16.8436C9.17284 16.8395 9.04115 16.679 9.04115 16.4074C9.03704 16.1934 9.03704 15.9753 9.03704 15.7613C9.03292 15.284 9.01646 15.2675 8.55967 15.1934C7.97531 15.0988 7.39918 14.9671 6.8642 14.7078C6.44444 14.5021 6.39918 14.3992 6.51852 13.9547C6.60905 13.6255 6.69959 13.2963 6.80247 12.9712C6.87654 12.7325 6.9465 12.6255 7.07407 12.6255C7.14815 12.6255 7.2428 12.6626 7.37037 12.7284C7.96296 13.037 8.59259 13.2099 9.25514 13.2922C9.36625 13.3045 9.47737 13.3128 9.58848 13.3128C9.89712 13.3128 10.1975 13.2551 10.4897 13.1276C11.2263 12.8066 11.3416 11.9547 10.7202 11.4444C10.5103 11.2716 10.2675 11.144 10.0165 11.0329C9.37037 10.749 8.69959 10.535 8.09054 10.1687C7.10288 9.57613 6.47737 8.76543 6.55144 7.56379C6.63375 6.20576 7.40329 5.35802 8.65021 4.90535C9.16461 4.72016 9.16873 4.72428 9.16873 4.1893C9.16873 4.00823 9.16461 3.82716 9.17284 3.64198C9.18519 3.23868 9.25103 3.16872 9.65432 3.15638C9.69959 3.15638 9.74897 3.15638 9.79424 3.15638C9.87243 3.15638 9.95062 3.15638 10.0288 3.15638C10.0617 3.15638 10.0947 3.15638 10.1235 3.15638C10.8889 3.15638 10.8889 3.1893 10.893 4.01646C10.8971 4.62551 10.8971 4.62551 11.5021 4.72016C11.9671 4.79424 12.4074 4.93004 12.8354 5.11934C13.07 5.22222 13.1605 5.38683 13.0864 5.63786C12.9794 6.00823 12.8765 6.38272 12.7613 6.74897C12.6872 6.97119 12.6173 7.07407 12.4856 7.07407C12.4115 7.07407 12.321 7.04527 12.2058 6.98765C11.6132 6.69959 10.9918 6.55967 10.3416 6.55967C10.2593 6.55967 10.1728 6.56379 10.0905 6.5679C9.89712 6.58025 9.70782 6.60494 9.52675 6.68313C8.88477 6.96296 8.78189 7.67078 9.32922 8.107C9.60494 8.32922 9.92181 8.4856 10.2469 8.6214C10.8148 8.85597 11.3827 9.0823 11.9218 9.3786C13.6173 10.3251 14.0782 12.4774 12.8724 13.9424Z"
      fill="currentColor"/>
</g>
<defs>
</defs>
</svg>
