<svg width="35" height="35" viewBox="0 0 35 35" fill="none" xmlns="http://www.w3.org/2000/svg">
<path d="M5 22.5V5H31.25V11.4167C30.2875 11.0958 29.3104 10.9208 28.3333 10.9208V10.8333C26.7292 10.8333 25.4167 9.53542 25.4167 7.91667H10.8333C10.8333 9.53542 9.53542 10.8333 7.91667 10.8333V16.6667C9.53542 16.6667 10.8333 17.9792 10.8333 19.5833H19.5833C19.5833 20.5458 19.7292 21.5229 20.05 22.5H5Z" fill="#C5C7D2"/>
<path d="M13.75 13.75C13.75 11.2708 15.6458 9.41875 18.125 9.375C20.4438 9.33125 22.2813 11.2417 22.4563 13.1812C20.8375 14.6687 20.1813 16.1854 19.7875 17.7896C19.2479 18.0083 18.6792 18.125 18.125 18.125C15.6458 18.0375 13.75 16.2292 13.75 13.75Z" fill="#C5C7D2"/>
<path d="M31.6146 15.5729L28.3334 12.2917V14.4792C23.6813 14.4792 20.9104 19.6562 23.4771 23.5354L25.0667 21.9458C23.8709 19.525 25.6354 16.6667 28.3334 16.6667V18.8542L31.6146 15.5729Z" fill="#4368E0"/>
<path d="M25.0521 25.0521L28.3334 28.3333V26.1458C32.9854 26.1458 35.7563 20.9687 33.1896 17.0896L31.6 18.6792C32.7959 21.1 31.0313 23.9583 28.3334 23.9583V21.7708L25.0521 25.0521Z" fill="#4368E0"/>
</svg>
