<svg width="34" height="34" viewBox="0 0 34 34" fill="none" xmlns="http://www.w3.org/2000/svg">
<path d="M17 12.75C19.2383 12.7075 21.0517 14.5633 21.2075 16.4617C19.635 17.8925 18.9975 19.3658 18.615 20.9242C18.0908 21.1367 17.5525 21.25 17 21.25C14.5917 21.165 12.75 19.4083 12.75 17C12.75 14.5917 14.5917 12.8067 17 12.75Z" fill="#C5C7D2"/>
<path d="M9.91667 22.6667H18.4167C18.4167 23.6017 18.5583 24.5508 18.87 25.5H4.25V8.5H29.75V14.7333C28.815 14.4217 27.8658 14.2517 26.9167 14.2375V14.1667C25.3583 14.1667 24.0833 12.8917 24.0833 11.3333H9.91667C9.91667 12.8917 8.64167 14.1667 7.08333 14.1667V19.8333C8.64167 19.8333 9.91667 21.1083 9.91667 22.6667Z" fill="#C5C7D2"/>
<path d="M21.9017 25.67L23.9133 27.6817L26.9167 24.6642L29.92 27.6817L31.9317 25.67L28.9142 22.6667L31.9317 19.6633L29.92 17.6517L26.9167 20.6692L23.9133 17.6517L21.9017 19.6633L24.9192 22.6667L21.9017 25.67Z" fill="#4368E0"/>
</svg>
