<svg width="18" height="18" viewBox="0 0 18 18" fill="none" xmlns="http://www.w3.org/2000/svg">
<path fill-rule="evenodd" clip-rule="evenodd" d="M3.63309 2.38369C3.76866 2.35184 3.91133 2.33509 4.05933 2.33541L15.7006 3.16693C16.7436 3.18535 17.7642 4.05034 17.2604 5.17417C17.1623 5.39301 16.7193 6.28419 16.0149 7.68646C15.7274 8.25892 15.4323 8.84489 15.1372 9.42985C14.97 9.76123 14.97 9.76123 14.8519 9.99498C14.7979 10.1019 14.7768 10.1436 14.7641 10.1687C14.5247 10.7846 14.0189 11.2604 13.387 11.4609L13.264 11.5H4.86496L4.85304 11.4993L3.20792 11.4989C2.73439 11.5224 2.35576 11.9011 2.33329 12.3333L2.3318 13.1167C2.36041 13.5936 2.74163 13.9745 3.16663 14H3.30888C3.65208 13.029 4.57811 12.3333 5.66663 12.3333C6.75514 12.3333 7.68118 13.029 8.02437 14H9.97555C10.3187 13.029 11.2448 12.3333 12.3333 12.3333C13.714 12.3333 14.8333 13.4526 14.8333 14.8333C14.8333 16.214 13.714 17.3333 12.3333 17.3333C11.2448 17.3333 10.3187 16.6376 9.97555 15.6666H8.02437C7.68118 16.6376 6.75514 17.3333 5.66663 17.3333C4.57772 17.3333 3.65141 16.6371 3.30851 15.6656L3.11933 15.6653C1.80225 15.5904 0.74731 14.5366 0.666626 13.1666L0.66765 12.292C0.733457 10.9656 1.79192 9.9046 3.15823 9.83372L2.34167 4.11781L2.33329 3.99996C2.33329 3.46084 2.05901 2.82086 1.74404 2.50588C1.66238 2.42422 1.29867 2.33329 0.666626 2.33329V0.666626C1.70125 0.666626 2.44865 0.853476 2.92255 1.32737C3.20176 1.60658 3.44724 1.97407 3.63309 2.38369ZM4.92735 9.83329H12.9745C13.0857 9.77275 13.1721 9.67309 13.2156 9.55181L13.2563 9.45732C13.2759 9.41856 13.2759 9.41856 13.3642 9.24358C13.4821 9.01016 13.4821 9.01016 13.6491 8.67919C13.9438 8.095 14.2385 7.50984 14.5135 6.9624L14.5256 6.93837C15.0074 5.97926 15.3753 5.24189 15.5778 4.82906L4.00851 4.00057L4.82509 9.71664C4.83307 9.77309 4.87384 9.81842 4.92735 9.83329ZM12.3333 15.6666C12.7935 15.6666 13.1666 15.2935 13.1666 14.8333C13.1666 14.3731 12.7935 14 12.3333 14C11.8731 14 11.5 14.3731 11.5 14.8333C11.5 15.2935 11.8731 15.6666 12.3333 15.6666ZM5.66663 15.6666C6.12686 15.6666 6.49996 15.2935 6.49996 14.8333C6.49996 14.3731 6.12686 14 5.66663 14C5.20639 14 4.83329 14.3731 4.83329 14.8333C4.83329 15.2935 5.20639 15.6666 5.66663 15.6666Z" fill="#4368E0"/>
</svg>
