<svg viewBox="0 0 41 40" fill="none" xmlns="http://www.w3.org/2000/svg">
<g>
<path d="M7.16666 6.66663V36.6666H33.8333V40H7.16666C5.33333 40 3.83333 38.5 3.83333 36.6666V6.66663H7.16666Z" fill="currentColor"/>
<path d="M10.5 3.33333C10.5 2.44928 10.8512 1.60143 11.4763 0.976311C12.1014 0.351189 12.9493 0 13.8333 0H27.1667C27.6087 9.43957e-05 28.0325 0.175751 28.345 0.488333L36.6783 8.82167C36.9909 9.13416 37.1666 9.55801 37.1667 10V30C37.1667 30.8841 36.8155 31.7319 36.1904 32.357C35.5652 32.9821 34.7174 33.3333 33.8333 33.3333H13.8333C12.9493 33.3333 12.1014 32.9821 11.4763 32.357C10.8512 31.7319 10.5 30.8841 10.5 30V3.33333ZM33.1433 10L27.1667 4.02333V10H33.1433ZM23.8333 3.33333H13.8333V30H33.8333V13.3333H25.5C25.058 13.3333 24.6341 13.1577 24.3215 12.8452C24.0089 12.5326 23.8333 12.1087 23.8333 11.6667V3.33333ZM17.1667 18.3333C17.1667 17.8913 17.3423 17.4674 17.6548 17.1548C17.9674 16.8423 18.3913 16.6667 18.8333 16.6667H28.8333C29.2754 16.6667 29.6993 16.8423 30.0118 17.1548C30.3244 17.4674 30.5 17.8913 30.5 18.3333C30.5 18.7754 30.3244 19.1993 30.0118 19.5118C29.6993 19.8244 29.2754 20 28.8333 20H18.8333C18.3913 20 17.9674 19.8244 17.6548 19.5118C17.3423 19.1993 17.1667 18.7754 17.1667 18.3333ZM17.1667 25C17.1667 24.558 17.3423 24.134 17.6548 23.8215C17.9674 23.5089 18.3913 23.3333 18.8333 23.3333H28.8333C29.2754 23.3333 29.6993 23.5089 30.0118 23.8215C30.3244 24.134 30.5 24.558 30.5 25C30.5 25.442 30.3244 25.866 30.0118 26.1785C29.6993 26.4911 29.2754 26.6667 28.8333 26.6667H18.8333C18.3913 26.6667 17.9674 26.4911 17.6548 26.1785C17.3423 25.866 17.1667 25.442 17.1667 25Z" fill="currentColor"/>
</g>
</svg>
