<svg width="20" height="20" viewBox="0 0 20 20" fill="none" xmlns="http://www.w3.org/2000/svg">
<path fill-rule="evenodd" clip-rule="evenodd" d="M9.99992 19.1667C4.93731 19.1667 0.833252 15.0626 0.833252 9.99999C0.833252 4.93738 4.93731 0.833328 9.99992 0.833328C15.0625 0.833328 19.1666 4.93738 19.1666 9.99999C19.1666 15.0626 15.0625 19.1667 9.99992 19.1667ZM9.99992 17.5C14.1421 17.5 17.4999 14.1421 17.4999 9.99999C17.4999 5.85786 14.1421 2.49999 9.99992 2.49999C5.85778 2.49999 2.49992 5.85786 2.49992 9.99999C2.49992 14.1421 5.85778 17.5 9.99992 17.5ZM8.33325 11.3215L12.744 6.91074L13.9225 8.08925L8.33325 13.6785L5.244 10.5892L6.42251 9.41074L8.33325 11.3215Z"
      fill="currentColor"/>
</svg>
