<svg width="20" height="20" viewBox="0 0 20 20" fill="none" xmlns="http://www.w3.org/2000/svg">
<path fill-rule="evenodd" clip-rule="evenodd" d="M9.99992 19.1667C4.93731 19.1667 0.833252 15.0626 0.833252 10C0.833252 4.9374 4.93731 0.833344 9.99992 0.833344C15.0625 0.833344 19.1666 4.9374 19.1666 10C19.1666 15.0626 15.0625 19.1667 9.99992 19.1667ZM9.99992 17.5C14.1421 17.5 17.4999 14.1421 17.4999 10C17.4999 5.85787 14.1421 2.50001 9.99992 2.50001C5.85778 2.50001 2.49992 5.85787 2.49992 10C2.49992 14.1421 5.85778 17.5 9.99992 17.5ZM11.3214 10.8333H5.83325V9.16668H11.3214L9.41066 7.25593L10.5892 6.07742L14.5118 10L10.5892 13.9226L9.41066 12.7441L11.3214 10.8333Z" fill="#4368E0"/>
</svg>
