<svg width="19" height="20" viewBox="0 0 19 20" fill="none" xmlns="http://www.w3.org/2000/svg">
<path fill-rule="evenodd" clip-rule="evenodd" d="M9.50016 19.1667C4.43755 19.1667 0.333496 15.0626 0.333496 10C0.333496 4.9374 4.43755 0.833344 9.50016 0.833344C14.5628 0.833344 18.6668 4.9374 18.6668 10C18.6668 15.0626 14.5628 19.1667 9.50016 19.1667ZM9.50016 17.5C13.6423 17.5 17.0002 14.1421 17.0002 10C17.0002 5.85787 13.6423 2.50001 9.50016 2.50001C5.35803 2.50001 2.00016 5.85787 2.00016 10C2.00016 14.1421 5.35803 17.5 9.50016 17.5ZM7.58942 12.7441L6.41091 13.9226L2.48832 10L6.41091 6.07742L7.58942 7.25593L4.84534 10L7.58942 12.7441ZM11.4109 7.25593L12.5894 6.07742L16.512 10L12.5894 13.9226L11.4109 12.7441L14.155 10L11.4109 7.25593ZM9.48882 15.137L7.84483 14.863L9.5115 4.86301L11.1555 5.13701L9.48882 15.137Z" fill="currentColor"/>
</svg>
