<svg viewBox="0 0 41 40" fill="none" xmlns="http://www.w3.org/2000/svg">
<g>
<path d="M7.70752 9.28687C5.42901 9.28687 3.57526 11.1406 3.57526 13.4191C3.57526 15.6976 5.42893 17.5514 7.70752 17.5514C9.98612 17.5514 11.8399 15.6976 11.8399 13.4191C11.8399 11.1407 9.98612 9.28687 7.70752 9.28687ZM7.70752 14.8264C6.93151 14.8264 6.30034 14.1951 6.30034 13.4191C6.30034 12.6432 6.93159 12.0119 7.70752 12.0119C8.48346 12.0119 9.11487 12.6433 9.11487 13.4191C9.11479 14.1951 8.48346 14.8264 7.70752 14.8264Z" fill="#C5C7D2"/>
<path d="M33.2924 9.28687C31.0139 9.28687 29.1602 11.1406 29.1602 13.4191C29.1602 15.6976 31.0139 17.5514 33.2924 17.5514C35.571 17.5514 37.4249 15.6976 37.4249 13.4191C37.4248 11.1407 35.571 9.28687 33.2924 9.28687ZM33.2924 14.8264C32.5165 14.8264 31.8853 14.1951 31.8853 13.4191C31.8853 12.6432 32.5166 12.0119 33.2924 12.0119C34.0685 12.0119 34.6998 12.6433 34.6998 13.4191C34.6997 14.1951 34.0685 14.8264 33.2924 14.8264Z" fill="#C5C7D2"/>
<path d="M39.2358 19.8761C38.2892 18.8133 36.93 18.2038 35.5068 18.2038H31.0782C30.4248 18.2038 29.7856 18.3337 29.1929 18.5755C29.0885 18.4383 28.9804 18.3035 28.8651 18.1739C27.5801 16.7311 25.7351 15.9036 23.8029 15.9036H17.197C15.2649 15.9036 13.4199 16.7311 12.1349 18.1739C12.0194 18.3036 11.9114 18.4384 11.8069 18.5755C11.2144 18.3337 10.5751 18.2038 9.92162 18.2038H5.49326C4.07006 18.2038 2.71084 18.8134 1.76435 19.8763C0.817712 20.939 0.369118 22.3595 0.533259 23.7732L1.52435 32.3059C1.60412 32.993 2.18607 33.5113 2.87779 33.5113H11.6309L11.9423 36.1919C12.0221 36.879 12.604 37.3973 13.2958 37.3973H27.7044C28.396 37.3973 28.9779 36.8791 29.0577 36.1919L29.3691 33.5113H38.1222C38.8139 33.5113 39.3958 32.9931 39.4756 32.3059L40.4667 23.7732C40.631 22.3595 40.1822 20.939 39.2358 19.8761ZM4.09115 30.7861L3.24013 23.4588C3.16443 22.8072 3.36302 22.1784 3.79935 21.6885C4.2356 21.1986 4.83724 20.9288 5.49326 20.9288H9.92177C10.1648 20.9288 10.4004 20.9661 10.6229 21.0376C10.4265 21.8225 10.3686 22.6439 10.4639 23.464L11.3144 30.7861H4.09115ZM27.8294 23.1497L26.491 34.6722H14.5091L13.1708 23.1497C13.0375 22.0019 13.4018 20.849 14.1701 19.9862C14.9385 19.1234 16.0418 18.6286 17.1972 18.6286H23.8031C24.9584 18.6286 26.0617 19.1233 26.8301 19.9862C27.5984 20.849 27.9626 22.0019 27.8294 23.1497ZM37.7598 23.4588L36.9087 30.7861H29.6856L30.5361 23.464C30.6315 22.6439 30.5736 21.8225 30.3771 21.0376C30.5995 20.9661 30.8351 20.9288 31.0782 20.9288H35.5068C36.1629 20.9288 36.7644 21.1986 37.2007 21.6885C37.6369 22.1785 37.8355 22.8072 37.7598 23.4588Z" fill="#C5C7D2"/>
<path d="M20.5 2.60278C17.4705 2.60278 15.0059 5.06739 15.0059 8.09692C15.0059 11.1264 17.4705 13.591 20.5 13.591C23.5295 13.591 25.9941 11.1264 25.9941 8.09692C25.9941 5.06747 23.5295 2.60278 20.5 2.60278ZM20.5 10.8658C18.9731 10.8658 17.7309 9.62364 17.7309 8.09677C17.7309 6.56989 18.9731 5.32771 20.5 5.32771C22.027 5.32771 23.2691 6.56989 23.2691 8.09677C23.2691 9.62364 22.0269 10.8658 20.5 10.8658Z" fill="#C5C7D2"/>
</g>
</svg>
