<svg width="20" height="20" viewBox="0 0 20 20" fill="none" xmlns="http://www.w3.org/2000/svg">
<g >
<path d="M3.60378 4.64346C2.46453 4.64346 1.53765 5.57034 1.53765 6.7096C1.53765 7.84885 2.46449 8.77573 3.60378 8.77573C4.74308 8.77573 5.67 7.84885 5.67 6.7096C5.66996 5.57038 4.74308 4.64346 3.60378 4.64346ZM3.60378 7.41323C3.21578 7.41323 2.90019 7.09756 2.90019 6.7096C2.90019 6.32163 3.21582 6.006 3.60378 6.006C3.99175 6.006 4.30746 6.32167 4.30746 6.7096C4.30742 7.09756 3.99175 7.41323 3.60378 7.41323Z" fill="currentColor"/>
<path d="M16.3962 4.64346C15.257 4.64346 14.3301 5.57034 14.3301 6.7096C14.3301 7.84885 15.257 8.77573 16.3962 8.77573C17.5355 8.77573 18.4625 7.84885 18.4625 6.7096C18.4624 5.57038 17.5355 4.64346 16.3962 4.64346ZM16.3962 7.41323C16.0083 7.41323 15.6927 7.09756 15.6927 6.7096C15.6927 6.32163 16.0083 6.006 16.3962 6.006C16.7843 6.006 17.0999 6.32167 17.0999 6.7096C17.0999 7.09756 16.7843 7.41323 16.3962 7.41323Z" fill="currentColor"/>
<path d="M19.3679 9.93805C18.8946 9.40664 18.215 9.10188 17.5034 9.10188H15.2891C14.9624 9.10188 14.6428 9.16684 14.3465 9.28774C14.2943 9.21914 14.2402 9.15172 14.1825 9.08692C13.5401 8.36551 12.6175 7.95176 11.6515 7.95176H8.34851C7.38246 7.95176 6.45996 8.36551 5.81746 9.08692C5.75972 9.15176 5.7057 9.21918 5.65347 9.28774C5.35718 9.16684 5.03753 9.10188 4.71082 9.10188H2.49664C1.78504 9.10188 1.10543 9.40668 0.632184 9.93813C0.158863 10.4695 -0.0654333 11.1797 0.016637 11.8866L0.512184 16.1529C0.552067 16.4965 0.843043 16.7556 1.1889 16.7556H5.56546L5.72117 18.0959C5.76105 18.4395 6.05203 18.6986 6.39789 18.6986H13.6022C13.948 18.6986 14.239 18.4395 14.2789 18.0959L14.4346 16.7556H18.8111C19.1569 16.7556 19.4479 16.4965 19.4878 16.1529L19.9834 11.8866C20.0655 11.1797 19.8411 10.4695 19.3679 9.93805ZM1.79558 15.393L1.37007 11.7294C1.33222 11.4036 1.43152 11.0892 1.64968 10.8442C1.86781 10.5993 2.16863 10.4644 2.49664 10.4644H4.71089C4.83242 10.4644 4.95019 10.483 5.06148 10.5188C4.96328 10.9112 4.93429 11.3219 4.98195 11.732L5.40718 15.393H1.79558ZM13.6647 11.5748L12.9955 17.3361H7.00457L6.33539 11.5748C6.26875 11.0009 6.45089 10.4245 6.83507 9.99309C7.21925 9.56168 7.77089 9.31426 8.34859 9.31426H11.6516C12.2292 9.31426 12.7809 9.56164 13.1651 9.99309C13.5492 10.4245 13.7313 11.0009 13.6647 11.5748ZM18.6299 11.7294L18.2044 15.393H14.5928L15.018 11.732C15.0657 11.3219 15.0368 10.9112 14.9385 10.5188C15.0498 10.483 15.1675 10.4644 15.2891 10.4644H17.5034C17.8314 10.4644 18.1322 10.5993 18.3503 10.8442C18.5685 11.0892 18.6678 11.4036 18.6299 11.7294Z" fill="currentColor"/>
<path d="M10 1.30142C8.48527 1.30142 7.25293 2.53372 7.25293 4.04849C7.25293 5.56322 8.48523 6.79552 10 6.79552C11.5148 6.79552 12.747 5.56322 12.747 4.04849C12.7471 2.53376 11.5147 1.30142 10 1.30142ZM10 5.43294C9.23656 5.43294 8.61547 4.81185 8.61547 4.04841C8.61547 3.28497 9.23656 2.66388 10 2.66388C10.7635 2.66388 11.3845 3.28497 11.3845 4.04841C11.3845 4.81185 10.7634 5.43294 10 5.43294Z" fill="currentColor"/>
</g>
<defs>
</defs>
</svg>
