<svg width="35" height="35" viewBox="0 0 35 35" fill="none" xmlns="http://www.w3.org/2000/svg">
<g clip-path="url(#clip0)">
<path d="M23.8253 3.79599C23.1688 3.58742 22.4891 4.07811 22.4891 4.77312V10.8287C22.4867 11.2115 22.7 11.5638 23.027 11.7392C25.691 13.2016 27.3456 15.9952 27.3456 19.0317C27.3456 23.6161 23.616 27.3456 19.0317 27.3456C15.9952 27.3456 13.2015 25.691 11.7391 23.027C11.5669 22.7079 11.2213 22.4892 10.8302 22.4892H4.77305C4.09083 22.4892 3.58298 23.1571 3.7962 23.8262C5.80678 30.2229 11.801 35.0001 19.0317 35.0001C27.8571 35.0001 35 27.8583 35 19.0317C35 11.8092 30.231 5.8091 23.8253 3.79599ZM18.0063 32.9117C12.7093 32.5297 8.26259 29.1881 6.24811 24.54H10.2517C11.9598 27.2604 14.8268 29.0299 18.0063 29.3452V32.9117ZM24.5399 10.2518V6.24817C29.1851 8.26136 32.5294 12.7062 32.9118 18.0063H29.3452C29.0298 14.8269 27.2604 11.9599 24.5399 10.2518ZM20.0571 32.9114V29.3458C24.9553 28.8625 28.8624 24.9553 29.3457 20.0571H32.9113C32.4095 26.9156 26.9155 32.4095 20.0571 32.9114Z" fill="#6689FC"/>
<path d="M19.0317 0C8.51348 0 0 8.51204 0 19.0317C0 19.5979 0.459102 20.0571 1.02539 20.0571H19.0317C19.5979 20.0571 20.0571 19.5979 20.0571 19.0317V1.02539C20.0571 0.459102 19.5979 0 19.0317 0ZM18.0063 18.0063H2.081C2.58754 9.44713 9.43694 2.58815 18.0063 2.081V18.0063Z" fill="#6689FC"/>
</g>
<defs>
<clipPath id="clip0">
<rect width="35" height="35" fill="white"/>
</clipPath>
</defs>
</svg>
