<svg width="13" height="13" viewBox="0 0 13 13" fill="none" xmlns="http://www.w3.org/2000/svg">
<path fill-rule="evenodd" clip-rule="evenodd" d="M9 9V11.5C9 12.2202 8.47018 12.75 7.75 12.75H1.5C0.779822 12.75 0.25 12.2202 0.25 11.5V5.25C0.25 4.52982 0.779822 4 1.5 4H4V1.5C4 0.779822 4.52982 0.25 5.25 0.25H11.5C12.2202 0.25 12.75 0.779822 12.75 1.5V7.75C12.75 8.47018 12.2202 9 11.5 9H9ZM7.75 9H5.25C4.52982 9 4 8.47018 4 7.75V5.25H1.5V11.5H7.75V9ZM5.25 1.5V7.75H11.5V1.5H5.25Z" fill="#C5C7D2"/>
</svg>
