<svg width="30" height="30" viewBox="0 0 30 30" fill="none" xmlns="http://www.w3.org/2000/svg">
<!-- <rect width="30" height="30" rx="8" fill="#97AACD"/> -->
<path fill-rule="evenodd" clip-rule="evenodd" d="M18.3333 18.3333V21.6667C18.3333 22.6269 17.6269 23.3333 16.6666 23.3333H8.33329C7.37306 23.3333 6.66663 22.6269 6.66663 21.6667V13.3333C6.66663 12.3731 7.37306 11.6667 8.33329 11.6667H11.6666V8.33332C11.6666 7.37309 12.3731 6.66666 13.3333 6.66666H21.6666C22.6269 6.66666 23.3333 7.37309 23.3333 8.33332V16.6667C23.3333 17.6269 22.6269 18.3333 21.6666 18.3333H18.3333ZM16.6666 18.3333H13.3333C12.3731 18.3333 11.6666 17.6269 11.6666 16.6667V13.3333H8.33329V21.6667H16.6666V18.3333ZM13.3333 8.33332V16.6667H21.6666V8.33332H13.3333Z" fill="white"/>
</svg>
