<svg width="45" height="45" viewBox="0 0 45 45" fill="none" xmlns="http://www.w3.org/2000/svg">
<g>
<path fill-rule="evenodd" clip-rule="evenodd" d="M25.8334 25.5833V28.9167C25.8334 29.8769 25.127 30.5833 24.1667 30.5833H15.8334C14.8732 30.5833 14.1667 29.8769 14.1667 28.9167V20.5833C14.1667 19.6231 14.8732 18.9167 15.8334 18.9167H19.1667V15.5833C19.1667 14.6231 19.8732 13.9167 20.8334 13.9167H29.1667C30.127 13.9167 30.8334 14.6231 30.8334 15.5833V23.9167C30.8334 24.8769 30.127 25.5833 29.1667 25.5833H25.8334ZM24.1667 25.5833H20.8334C19.8732 25.5833 19.1667 24.8769 19.1667 23.9167V20.5833H15.8334V28.9167H24.1667V25.5833ZM20.8334 15.5833V23.9167H29.1667V15.5833H20.8334Z" fill="#636A7B"/>
</g>
</svg>
