<svg width="20" height="20" viewBox="0 0 20 20" fill="none" xmlns="http://www.w3.org/2000/svg">
<path fill-rule="evenodd" clip-rule="evenodd" d="M4.38964 3.33333C4.67782 2.83517 5.21644 2.5 5.83334 2.5H14.1667C14.7836 2.5 15.3222 2.83517 15.6104 3.33333H16.6667C17.5871 3.33333 18.3333 4.07953 18.3333 5V7.5C18.3333 10.1857 17.0795 12.1449 14.8178 12.4565C13.9156 13.7751 12.4863 14.7045 10.8333 14.9409V15.8333H11.6667C12.5871 15.8333 13.3333 16.5795 13.3333 17.5H6.66667C6.66667 16.5795 7.41286 15.8333 8.33334 15.8333H9.16667V14.9409C7.51376 14.7045 6.08437 13.7751 5.18222 12.4565C2.92049 12.1449 1.66667 10.1857 1.66667 7.5V5C1.66667 4.07953 2.41286 3.33333 3.33334 3.33333H4.38964ZM4.16667 5H3.33334V7.5C3.33334 8.77605 3.65857 9.72887 4.27319 10.2821C4.20329 9.92104 4.16667 9.54813 4.16667 9.16667V5ZM15.8333 5V9.16667C15.8333 9.54813 15.7967 9.92104 15.7268 10.2821C16.3414 9.72887 16.6667 8.77605 16.6667 7.5V5H15.8333ZM5.83334 4.16667V9.16667C5.83334 11.4679 7.69882 13.3333 10 13.3333C12.3012 13.3333 14.1667 11.4679 14.1667 9.16667V4.16667H5.83334Z"
      fill="currentColor"/>
</svg>
