<svg viewBox="0 0 20 16" fill="none" xmlns="http://www.w3.org/2000/svg">
    <path d="M10.25 8.18333C10.6946 7.79844 11.0513 7.3224 11.2957 6.78752C11.5401 6.25263 11.6667 5.67142 11.6666 5.08333C11.6666 3.97826 11.2277 2.91845 10.4463 2.13705C9.66486 1.35565 8.60505 0.916664 7.49998 0.916664C6.39491 0.916664 5.3351 1.35565 4.5537 2.13705C3.7723 2.91845 3.33331 3.97826 3.33331 5.08333C3.33331 5.67142 3.45981 6.25263 3.70425 6.78752C3.94869 7.3224 4.30533 7.79844 4.74998 8.18333C3.58343 8.71157 2.5937 9.56461 1.89913 10.6405C1.20456 11.7163 0.83454 12.9694 0.833313 14.25C0.833313 14.471 0.92111 14.683 1.07739 14.8393C1.23367 14.9955 1.44563 15.0833 1.66665 15.0833C1.88766 15.0833 2.09962 14.9955 2.2559 14.8393C2.41218 14.683 2.49998 14.471 2.49998 14.25C2.49998 12.9239 3.02676 11.6521 3.96445 10.7145C4.90213 9.77678 6.1739 9.25 7.49998 9.25C8.82606 9.25 10.0978 9.77678 11.0355 10.7145C11.9732 11.6521 12.5 12.9239 12.5 14.25C12.5 14.471 12.5878 14.683 12.7441 14.8393C12.9003 14.9955 13.1123 15.0833 13.3333 15.0833C13.5543 15.0833 13.7663 14.9955 13.9226 14.8393C14.0788 14.683 14.1666 14.471 14.1666 14.25C14.1654 12.9694 13.7954 11.7163 13.1008 10.6405C12.4063 9.56461 11.4165 8.71157 10.25 8.18333ZM7.49998 7.58333C7.00553 7.58333 6.52218 7.43671 6.11105 7.16201C5.69993 6.8873 5.3795 6.49686 5.19028 6.04004C5.00106 5.58322 4.95155 5.08056 5.04802 4.59561C5.14448 4.11065 5.38258 3.6652 5.73221 3.31556C6.08184 2.96593 6.5273 2.72783 7.01225 2.63137C7.49721 2.53491 7.99987 2.58441 8.45669 2.77363C8.9135 2.96285 9.30395 3.28328 9.57865 3.69441C9.85336 4.10553 9.99998 4.58888 9.99998 5.08333C9.99998 5.74637 9.73659 6.38226 9.26775 6.8511C8.79891 7.31994 8.16302 7.58333 7.49998 7.58333ZM15.6166 7.85C16.15 7.24944 16.4983 6.50754 16.6198 5.71361C16.7413 4.91968 16.6308 4.10756 16.3015 3.375C15.9721 2.64244 15.4381 2.02066 14.7637 1.58452C14.0893 1.14837 13.3032 0.916449 12.5 0.916664C12.279 0.916664 12.067 1.00446 11.9107 1.16074C11.7544 1.31702 11.6666 1.52898 11.6666 1.75C11.6666 1.97101 11.7544 2.18297 11.9107 2.33925C12.067 2.49553 12.279 2.58333 12.5 2.58333C13.163 2.58333 13.7989 2.84672 14.2677 3.31556C14.7366 3.78441 15 4.42029 15 5.08333C14.9988 5.52103 14.8827 5.95075 14.6634 6.32952C14.444 6.70828 14.129 7.02282 13.75 7.24166C13.6264 7.31293 13.5232 7.41472 13.4503 7.53728C13.3773 7.65984 13.3371 7.79908 13.3333 7.94167C13.3298 8.08313 13.3624 8.22316 13.428 8.34855C13.4936 8.47393 13.5901 8.58054 13.7083 8.65833L14.0333 8.875L14.1416 8.93333C15.1461 9.40976 15.9936 10.1633 16.5841 11.1053C17.1747 12.0472 17.4838 13.1383 17.475 14.25C17.475 14.471 17.5628 14.683 17.7191 14.8393C17.8753 14.9955 18.0873 15.0833 18.3083 15.0833C18.5293 15.0833 18.7413 14.9955 18.8976 14.8393C19.0538 14.683 19.1416 14.471 19.1416 14.25C19.1485 12.9712 18.8282 11.7119 18.2112 10.5917C17.5942 9.47156 16.7011 8.52776 15.6166 7.85Z"
          fill="currentColor"></path>
</svg>
