<svg width="18" height="21" viewBox="0 0 18 21" fill="none" xmlns="http://www.w3.org/2000/svg">
<path d="M15.875 3.00001H12.125V1.75C12.125 1.05938 11.5656 0.5 10.875 0.5H7.12502C6.4344 0.5 5.87502 1.05938 5.87502 1.75V3.00001H2.12503C1.43441 3.00001 0.875031 3.55938 0.875031 4.25001V5.50001C0.875031 6.19 1.43441 6.74938 2.12379 6.75002H15.8757C16.5657 6.74938 17.1251 6.19 17.1251 5.50001V4.24998C17.125 3.55938 16.5656 3.00001 15.875 3.00001ZM10.875 3.00001H7.12502V2.37499C7.12502 2.03 7.40502 1.74998 7.75001 1.74998H10.25C10.595 1.74998 10.875 2.02997 10.875 2.37499V3.00001ZM2.12501 18C2.12501 19.3806 3.24437 20.5 4.62501 20.5H13.375C14.7557 20.5 15.875 19.3806 15.875 18V7.99999H2.12501V18ZM11.5 9.87501C11.5 9.53002 11.78 9.25 12.125 9.25C12.47 9.25 12.75 9.52999 12.75 9.87501V17.375C12.75 17.72 12.47 18 12.125 18C11.78 18 11.5 17.72 11.5 17.375V9.87501ZM8.37502 9.87501C8.37502 9.53002 8.65502 9.25 9.00004 9.25C9.34506 9.25 9.62503 9.52999 9.62503 9.87501V17.375C9.62503 17.72 9.34503 18 9.00004 18C8.65505 18 8.37502 17.72 8.37502 17.375V9.87501ZM5.25 9.87501C5.25 9.53002 5.53 9.25 5.87502 9.25C6.22004 9.25 6.50003 9.52999 6.50003 9.87501V17.375C6.50003 17.72 6.22004 18 5.87502 18C5.53 18 5.25 17.72 5.25 17.375V9.87501Z" fill="#FB595B"/>
</svg>
