<svg width="20" height="20" viewBox="0 0 20 20" fill="none" xmlns="http://www.w3.org/2000/svg">
<path d="M6.98874 13L12.9887 7" stroke="currentColor" stroke-width="1.7" stroke-linecap="round" stroke-linejoin="round"/>
<path d="M7.48874 8C7.76488 8 7.98874 7.77614 7.98874 7.5C7.98874 7.22386 7.76488 7 7.48874 7C7.2126 7 6.98874 7.22386 6.98874 7.5C6.98874 7.77614 7.2126 8 7.48874 8Z"
      fill="currentColor" stroke="currentColor" stroke-width="1.7" stroke-linecap="round" stroke-linejoin="round"/>
<path d="M12.4887 13C12.7649 13 12.9887 12.7761 12.9887 12.5C12.9887 12.2239 12.7649 12 12.4887 12C12.2126 12 11.9887 12.2239 11.9887 12.5C11.9887 12.7761 12.2126 13 12.4887 13Z"
      fill="currentColor" stroke="currentColor" stroke-width="1.7" stroke-linecap="round" stroke-linejoin="round"/>
<path d="M2.98874 5.2C2.98874 4.61653 3.22053 4.05695 3.63311 3.64437C4.04569 3.23179 4.60527 3 5.18874 3H6.18874C6.76964 2.99967 7.32683 2.76961 7.73874 2.36L8.43874 1.66C8.64319 1.4544 8.88626 1.29125 9.15398 1.17991C9.42171 1.06858 9.70879 1.01126 9.99874 1.01126C10.2887 1.01126 10.5758 1.06858 10.8435 1.17991C11.1112 1.29125 11.3543 1.4544 11.5587 1.66L12.2587 2.36C12.6707 2.76961 13.2278 2.99967 13.8087 3H14.8087C15.3922 3 15.9518 3.23179 16.3644 3.64437C16.777 4.05695 17.0087 4.61653 17.0087 5.2V6.2C17.0091 6.7809 17.2391 7.33809 17.6487 7.75L18.3487 8.45C18.5543 8.65445 18.7175 8.89752 18.8288 9.16525C18.9402 9.43297 18.9975 9.72006 18.9975 10.01C18.9975 10.3 18.9402 10.587 18.8288 10.8548C18.7175 11.1225 18.5543 11.3656 18.3487 11.57L17.6487 12.27C17.2391 12.6819 17.0091 13.2391 17.0087 13.82V14.82C17.0087 15.4035 16.777 15.9631 16.3644 16.3756C15.9518 16.7882 15.3922 17.02 14.8087 17.02H13.8087C13.2278 17.0203 12.6707 17.2504 12.2587 17.66L11.5587 18.36C11.3543 18.5656 11.1112 18.7288 10.8435 18.8401C10.5758 18.9514 10.2887 19.0087 9.99874 19.0087C9.70879 19.0087 9.42171 18.9514 9.15398 18.8401C8.88626 18.7288 8.64319 18.5656 8.43874 18.36L7.73874 17.66C7.32683 17.2504 6.76964 17.0203 6.18874 17.02H5.18874C4.60527 17.02 4.04569 16.7882 3.63311 16.3756C3.22053 15.9631 2.98874 15.4035 2.98874 14.82V13.82C2.98841 13.2391 2.75834 12.6819 2.34874 12.27L1.64874 11.57C1.44314 11.3656 1.27998 11.1225 1.16865 10.8548C1.05731 10.587 1 10.3 1 10.01C1 9.72006 1.05731 9.43297 1.16865 9.16525C1.27998 8.89752 1.44314 8.65445 1.64874 8.45L2.34874 7.75C2.75834 7.33809 2.98841 6.7809 2.98874 6.2V5.2"
      stroke="currentColor" stroke-width="1.7" stroke-linecap="round" stroke-linejoin="round"/>
</svg>
