<svg width="20" height="21" viewBox="0 0 20 21" fill="none" xmlns="http://www.w3.org/2000/svg">
<g >
<path fill-rule="evenodd" clip-rule="evenodd" d="M4.63315 3.88374C4.76872 3.85189 4.91139 3.83514 5.05939 3.83546L16.7006 4.66697C17.7437 4.68539 18.7642 5.55038 18.2604 6.67422C18.1623 6.89306 17.7194 7.78423 17.015 9.18651C16.7274 9.75897 16.4323 10.3449 16.1372 10.9299C15.97 11.2613 15.97 11.2613 15.852 11.495C15.798 11.602 15.7769 11.6437 15.7642 11.6688C15.5247 12.2847 15.0189 12.7605 14.3871 12.961L14.2641 13H5.86502L5.8531 12.9994L4.20798 12.999C3.73445 13.0225 3.35582 13.4011 3.33335 13.8333L3.33186 14.6168C3.36047 15.0937 3.74169 15.4745 4.16669 15.5H4.30894C4.65214 14.529 5.57817 13.8333 6.66669 13.8333C7.7552 13.8333 8.68123 14.529 9.02443 15.5H10.9756C11.3188 14.529 12.2448 13.8333 13.3334 13.8333C14.7141 13.8333 15.8334 14.9526 15.8334 16.3333C15.8334 17.7141 14.7141 18.8333 13.3334 18.8333C12.2448 18.8333 11.3188 18.1377 10.9756 17.1667H9.02443C8.68123 18.1377 7.7552 18.8333 6.66669 18.8333C5.57778 18.8333 4.65147 18.1372 4.30857 17.1656L4.11939 17.1653C2.80231 17.0905 1.74737 16.0366 1.66669 14.6667L1.66771 13.792C1.73352 12.4657 2.79198 11.4047 4.15829 11.3338L3.34173 5.61786L3.33335 5.50001C3.33335 4.96089 3.05907 4.3209 2.7441 4.00593C2.66244 3.92427 2.29873 3.83334 1.66669 3.83334V2.16667C2.70131 2.16667 3.44872 2.35352 3.92261 2.82742C4.20182 3.10662 4.4473 3.47412 4.63315 3.88374ZM5.92741 11.3333H13.9745C14.0857 11.2728 14.1721 11.1731 14.2157 11.0519L14.2563 10.9574C14.2759 10.9186 14.2759 10.9186 14.3643 10.7436C14.4822 10.5102 14.4822 10.5102 14.6492 10.1792C14.9439 9.59505 15.2386 9.00989 15.5136 8.46245L15.5257 8.43841C16.0074 7.47931 16.3754 6.74194 16.5778 6.32911L5.00857 5.50062L5.82515 11.2167C5.83313 11.2731 5.8739 11.3185 5.92741 11.3333ZM13.3334 17.1667C13.7936 17.1667 14.1667 16.7936 14.1667 16.3333C14.1667 15.8731 13.7936 15.5 13.3334 15.5C12.8731 15.5 12.5 15.8731 12.5 16.3333C12.5 16.7936 12.8731 17.1667 13.3334 17.1667ZM6.66669 17.1667C7.12692 17.1667 7.50002 16.7936 7.50002 16.3333C7.50002 15.8731 7.12692 15.5 6.66669 15.5C6.20645 15.5 5.83335 15.8731 5.83335 16.3333C5.83335 16.7936 6.20645 17.1667 6.66669 17.1667Z" fill="#C5C7D2"/>
<g >
<rect x="10" y="0.499992" width="10" height="10" rx="5" fill="white"/>
<path fill-rule="evenodd" clip-rule="evenodd" d="M15 10.0833C12.4687 10.0833 10.4166 8.03128 10.4166 5.49997C10.4166 2.96867 12.4687 0.916641 15 0.916641C17.5313 0.916641 19.5833 2.96867 19.5833 5.49997C19.5833 8.03128 17.5313 10.0833 15 10.0833ZM15 9.24998C17.071 9.24998 18.75 7.57104 18.75 5.49997C18.75 3.42891 17.071 1.74997 15 1.74997C12.9289 1.74997 11.25 3.42891 11.25 5.49997C11.25 7.57104 12.9289 9.24998 15 9.24998ZM14.5833 6.16072V3.41664H15.4166V6.16072L16.372 5.20535L16.9613 5.7946L15 7.7559L13.0387 5.7946L13.6279 5.20535L14.5833 6.16072Z" fill="#C5C7D2"/>
</g>
</g>
</svg>
