<svg width="40" height="40" viewBox="0 0 40 40" fill="none" xmlns="http://www.w3.org/2000/svg">
<g>
<path fill-rule="evenodd" clip-rule="evenodd" d="M9.2663 6.7675C9.53745 6.70381 9.82279 6.6703 10.1188 6.67094L33.4012 8.33397C35.4874 8.37081 37.5285 10.1008 36.5209 12.3485C36.3247 12.7861 35.4387 14.5685 34.03 17.373C33.4549 18.518 32.8647 19.6899 32.2745 20.8598C31.9401 21.5226 31.9401 21.5226 31.704 21.9901C31.5959 22.204 31.5538 22.2874 31.5284 22.3376C31.0494 23.5694 30.0378 24.521 28.7741 24.922L28.5281 25H11.73L11.7062 24.9988L8.41596 24.998C7.46889 25.045 6.71165 25.8022 6.66671 26.6667L6.66372 28.2336C6.72093 29.1874 7.48339 29.949 8.33337 30H8.61788C9.30428 28.0581 11.1563 26.6667 13.3334 26.6667C15.5104 26.6667 17.3625 28.0581 18.0489 30H21.9512C22.6376 28.0581 24.4897 26.6667 26.6667 26.6667C29.4281 26.6667 31.6667 28.9053 31.6667 31.6667C31.6667 34.4281 29.4281 36.6667 26.6667 36.6667C24.4897 36.6667 22.6376 35.2754 21.9512 33.3334H18.0489C17.3625 35.2754 15.5104 36.6667 13.3334 36.6667C11.1556 36.6667 9.30294 35.2744 8.61714 33.3313L8.23877 33.3307C5.60463 33.1809 3.49474 31.0733 3.33337 28.3334L3.33542 26.5841C3.46704 23.9314 5.58397 21.8093 8.31657 21.6676L6.68346 10.2357L6.66671 10C6.66671 8.92181 6.11815 7.64184 5.4882 7.01189C5.32487 6.84856 4.59745 6.66671 3.33337 6.66671V3.33337C5.40263 3.33337 6.89743 3.70707 7.84522 4.65486C8.40363 5.21328 8.89461 5.94826 9.2663 6.7675ZM11.8548 21.6667H27.9491C28.1714 21.5456 28.3443 21.3463 28.4313 21.1037L28.5126 20.9148C28.5518 20.8372 28.5518 20.8372 28.7286 20.4873C28.9644 20.0205 28.9644 20.0205 29.2984 19.3585C29.8878 18.1901 30.4772 17.0198 31.0272 15.9249L31.0513 15.8769C32.0148 13.9586 32.7508 12.4839 33.1557 11.6582L10.0171 10.0013L11.6503 21.4334C11.6663 21.5463 11.7478 21.637 11.8548 21.6667ZM26.6667 33.3334C27.5872 33.3334 28.3334 32.5872 28.3334 31.6667C28.3334 30.7462 27.5872 30 26.6667 30C25.7462 30 25 30.7462 25 31.6667C25 32.5872 25.7462 33.3334 26.6667 33.3334ZM13.3334 33.3334C14.2538 33.3334 15 32.5872 15 31.6667C15 30.7462 14.2538 30 13.3334 30C12.4129 30 11.6667 30.7462 11.6667 31.6667C11.6667 32.5872 12.4129 33.3334 13.3334 33.3334Z" fill="#4368E0"/>
<rect x="20" width="20" height="20" rx="10" fill="white"/>
<path fill-rule="evenodd" clip-rule="evenodd" d="M29.9999 19.1666C24.9373 19.1666 20.8333 15.0625 20.8333 9.99992C20.8333 4.93731 24.9373 0.833252 29.9999 0.833252C35.0625 0.833252 39.1666 4.93731 39.1666 9.99992C39.1666 15.0625 35.0625 19.1666 29.9999 19.1666ZM29.9999 17.4999C34.1421 17.4999 37.4999 14.1421 37.4999 9.99992C37.4999 5.85778 34.1421 2.49992 29.9999 2.49992C25.8578 2.49992 22.4999 5.85778 22.4999 9.99992C22.4999 14.1421 25.8578 17.4999 29.9999 17.4999ZM29.1666 11.3214V5.83325H30.8333V11.3214L32.744 9.41066L33.9225 10.5892L29.9999 14.5118L26.0773 10.5892L27.2558 9.41066L29.1666 11.3214Z" fill="#4368E0"/>
</g>
<defs>
<clipPath id="clip0">
<rect width="40" height="40" fill="white"/>
</clipPath>
</defs>
</svg>
