<svg width="18" height="18" viewBox="0 0 18 18" fill="none" xmlns="http://www.w3.org/2000/svg">
<path fill-rule="evenodd" clip-rule="evenodd" d="M11.3352 4.37089L6.24659 9.45783C5.90896 9.75644 5.70009 10.1742 5.6665 10.5564V12.3356L7.38649 12.3372C7.83168 12.3057 8.24608 12.0985 8.57883 11.7179L13.6304 6.66627L11.3352 4.37089ZM12.5139 3.19257L14.8089 5.48776L15.5538 4.74286C15.626 4.67069 15.6665 4.5728 15.6665 4.47074C15.6665 4.36867 15.626 4.27079 15.5538 4.19862L13.8008 2.44555C13.7294 2.37363 13.6323 2.33317 13.531 2.33317C13.4296 2.33317 13.3325 2.37363 13.2612 2.44555L12.5139 3.19257ZM17.3332 9.83317V15.6665C17.3332 16.587 16.587 17.3332 15.6665 17.3332H2.33317C1.4127 17.3332 0.666504 16.587 0.666504 15.6665V2.33317C0.666504 1.4127 1.4127 0.666504 2.33317 0.666504H8.1665V2.33317H2.33317V15.6665H15.6665V9.83317H17.3332ZM13.531 0.666504C14.0766 0.666504 14.5996 0.884354 14.9816 1.26936L16.7323 3.02011C17.1171 3.40484 17.3332 3.92664 17.3332 4.47074C17.3332 5.01483 17.1171 5.53664 16.7323 5.92137L9.79776 12.853C9.21569 13.5244 8.39059 13.9369 7.44534 14.0018H3.99984V13.1684L4.00254 10.4893C4.07354 9.61053 4.48206 8.79345 5.10525 8.24435L12.0793 1.27036C12.4635 0.883862 12.986 0.666504 13.531 0.666504Z" fill="#F6F9FE"/>
</svg>
