<svg width="16" height="20" viewBox="0 0 16 20" fill="none" xmlns="http://www.w3.org/2000/svg">
<path fill-rule="evenodd" clip-rule="evenodd" d="M10.5 2.84519V5.83334H13.4882L10.5 2.84519ZM13.8333 7.50001H10.5C9.57952 7.50001 8.83333 6.75382 8.83333 5.83334V2.50001H2.16667V17.5H13.8333V7.50001ZM2.16667 0.833344H10.8452L15.5 5.48816V17.5C15.5 18.4205 14.7538 19.1667 13.8333 19.1667H2.16667C1.24619 19.1667 0.5 18.4205 0.5 17.5V2.50001C0.5 1.57954 1.24619 0.833344 2.16667 0.833344ZM7.16667 12.1548V8.33334H8.83333V12.1548L9.91074 11.0774L11.0893 12.2559L8 15.3452L4.91074 12.2559L6.08926 11.0774L7.16667 12.1548Z" fill="#C5C7D2"/>
</svg>
