<svg viewBox="0 0 242 201" fill="none" xmlns="http://www.w3.org/2000/svg">
<path d="M163.035 144.98C163.128 145.54 163.175 146.1 163.175 146.66C163.268 147.127 163.315 147.687 163.315 148.34C163.315 149.46 162.988 150.487 162.335 151.42C162.055 151.887 161.681 152.353 161.215 152.82C160.748 153.193 160.188 153.52 159.535 153.8C157.201 155.107 154.728 155.573 152.115 155.2C150.808 154.827 149.641 154.22 148.615 153.38C148.428 153.193 148.288 153.1 148.195 153.1C148.101 153.007 148.008 152.867 147.915 152.68C147.821 152.587 147.728 152.493 147.635 152.4C147.541 152.213 147.401 152.073 147.215 151.98C146.748 151.513 146.375 151.093 146.095 150.72C145.815 150.253 145.535 149.787 145.255 149.32C145.068 148.853 144.835 148.433 144.555 148.06C144.368 147.593 144.135 147.127 143.855 146.66C143.668 146.287 143.481 145.96 143.295 145.68C143.108 145.307 142.968 144.933 142.875 144.56C142.501 143.72 142.268 142.973 142.175 142.32L139.235 135.46C132.795 135.46 126.355 135.507 119.915 135.6C113.568 135.6 107.175 135.553 100.735 135.46L97.7947 142.32C97.608 142.693 97.468 143.067 97.3747 143.44C97.3747 143.813 97.2814 144.187 97.0947 144.56C96.908 144.933 96.7214 145.307 96.5347 145.68C96.4414 145.96 96.3014 146.287 96.1147 146.66C95.8347 147.127 95.5547 147.593 95.2747 148.06C95.088 148.433 94.8547 148.853 94.5747 149.32C94.388 149.787 94.1547 150.253 93.8747 150.72C93.5947 151.093 93.2214 151.513 92.7547 151.98C92.568 152.073 92.428 152.213 92.3347 152.4C92.2414 152.493 92.148 152.587 92.0547 152.68C91.9614 152.867 91.868 153.007 91.7747 153.1C91.6814 153.1 91.5414 153.193 91.3547 153.38C90.328 154.22 89.1614 154.827 87.8547 155.2C85.2414 155.573 82.768 155.107 80.4347 153.8C79.7814 153.52 79.2214 153.193 78.7547 152.82C78.288 152.353 77.9147 151.887 77.6347 151.42C76.9814 150.487 76.6547 149.46 76.6547 148.34C76.6547 147.687 76.6547 147.127 76.6547 146.66C76.748 146.1 76.8414 145.54 76.9347 144.98C77.1214 144.14 77.3547 143.3 77.6347 142.46C77.9147 141.62 78.0547 141.2 78.0547 141.2L107.175 69.52L108.015 67.28C108.201 66.72 108.435 66.2067 108.715 65.74C108.995 65.2733 109.228 64.7133 109.415 64.06C109.881 62.8467 110.395 61.7733 110.955 60.84C111.235 60.28 111.561 59.7667 111.935 59.3C112.308 58.8333 112.681 58.3667 113.055 57.9C113.615 57.1533 114.408 56.5467 115.435 56.08C116.741 55.6133 118.235 55.38 119.915 55.38C121.688 55.38 123.228 55.6133 124.535 56.08C125.561 56.5467 126.355 57.1533 126.915 57.9C127.568 58.74 128.268 59.72 129.015 60.84C129.575 61.7733 130.088 62.8467 130.555 64.06C130.741 64.7133 130.975 65.2733 131.255 65.74C131.535 66.2067 131.768 66.72 131.955 67.28L132.795 69.52L161.915 141.2C161.915 141.2 162.055 141.62 162.335 142.46C162.615 143.3 162.848 144.14 163.035 144.98ZM129.855 110.68C128.641 107.973 127.381 105.173 126.075 102.28C124.861 99.3867 123.555 96.4467 122.155 93.46C121.781 92.62 121.408 91.78 121.035 90.94C120.661 90.0067 120.288 89.12 119.915 88.28C119.635 89.12 119.308 90.0067 118.935 90.94C118.561 91.78 118.188 92.62 117.815 93.46C116.415 96.4467 115.061 99.3867 113.755 102.28C112.541 105.173 111.328 107.973 110.115 110.68L107.595 116.84H132.375L129.855 110.68Z"
      fill="currentColor"/>
<path fill-rule="evenodd" clip-rule="evenodd" d="M225.001 185.266L226.751 182.14C227.068 181.615 227.329 181.091 227.601 180.544C227.67 180.405 227.74 180.266 227.811 180.124L228.827 178.108C229.004 177.779 229.17 177.439 229.335 177.099C229.501 176.76 229.667 176.42 229.843 176.091L230.771 174.031C231.817 171.813 232.715 169.507 233.611 167.209C233.813 166.692 234.014 166.175 234.217 165.659L235.675 161.364L236.028 160.312L236.337 159.216L236.956 157.068C238.59 151.283 239.872 145.409 240.623 139.448C240.843 137.958 240.976 136.467 241.109 134.977C241.142 134.605 241.178 134.232 241.214 133.859C241.321 132.742 241.429 131.624 241.462 130.506L241.727 126.036V121.565C241.595 115.604 241.197 109.642 240.225 103.769L239.872 101.577C239.739 100.832 239.607 100.131 239.43 99.3859C239.258 98.5842 239.101 97.7826 238.941 96.9735C238.813 96.3227 238.684 95.667 238.546 95.0027C238.37 94.3221 238.198 93.6415 238.026 92.962C237.469 90.7535 236.914 88.5569 236.205 86.4117L235.542 84.3078C235.476 84.1324 235.421 83.9571 235.366 83.7818C235.31 83.6065 235.255 83.4311 235.189 83.2558L234.791 82.2038L233.245 78.0398C232.892 77.1341 232.499 76.2283 232.106 75.3225C231.91 74.8695 231.714 74.4165 231.522 73.9635C231.368 73.6348 231.224 73.2951 231.08 72.9555C230.937 72.6157 230.793 72.276 230.639 71.9472L229.667 69.931L228.695 67.9147L228.209 66.9066C228.032 66.5559 227.855 66.2491 227.679 65.9423L225.558 62.0413C225.134 61.2786 224.662 60.516 224.191 59.7533C223.876 59.2449 223.562 58.7364 223.261 58.2279L222.112 56.3432L220.876 54.5022L219.639 52.6613C219.241 52.0477 218.799 51.434 218.357 50.8642L215.707 47.3138C215.445 46.9504 215.168 46.6178 214.894 46.2885C214.705 46.0618 214.518 45.8368 214.337 45.6044L212.924 43.895L211.51 42.1855L210.008 40.5638L208.506 38.942C208.35 38.7734 208.194 38.6003 208.037 38.4256C207.704 38.0552 207.364 37.6776 207.004 37.3202L203.867 34.2082C203.337 33.6822 202.807 33.2 202.233 32.7179L200.598 31.2276L198.964 29.7373L197.241 28.3347L195.518 26.9321C194.944 26.45 194.369 26.0117 193.795 25.5733L190.261 22.9434C189.9 22.6682 189.522 22.4103 189.138 22.1479C188.91 21.9924 188.68 21.8354 188.45 21.6723L186.638 20.445L184.827 19.2177L182.928 18.0781L181.028 16.9385C180.409 16.544 179.791 16.1495 179.128 15.8427L175.241 13.7388C174.622 13.3881 173.96 13.0813 173.297 12.7745L171.309 11.8102L169.321 10.8459C168.901 10.6512 168.48 10.4741 168.048 10.2922C167.799 10.1876 167.547 10.0814 167.289 9.96927C161.944 7.60236 156.377 5.76143 150.767 4.22732L146.526 3.13153L142.241 2.2549C140.922 1.96876 139.566 1.75887 138.242 1.55411C138.146 1.53931 138.051 1.52453 137.955 1.50976L135.791 1.1591L134.731 0.983777L133.626 0.852282L129.297 0.413966C128.829 0.355908 128.341 0.336301 127.86 0.316946C127.615 0.307077 127.371 0.297273 127.132 0.282471L124.967 0.150976L122.803 0.0194807C122.33 -0.00984049 121.837 6.72056e-05 121.351 0.00984049C121.111 0.0146771 120.872 0.0194807 120.638 0.0194807H116.309L111.979 0.238639C111.741 0.253442 111.497 0.263245 111.252 0.273115C110.77 0.292469 110.283 0.312076 109.815 0.370134L107.65 0.589292L105.485 0.808451C105.242 0.838596 104.994 0.863558 104.744 0.888684C104.267 0.936626 103.785 0.985164 103.321 1.07144L99.0356 1.72892L97.9754 1.90424L96.9151 2.1234L94.7946 2.56172C94.3234 2.66399 93.8522 2.76139 93.381 2.8588C92.4385 3.05361 91.4961 3.24841 90.5536 3.48218L86.3568 4.53414L82.2484 5.80526C76.7705 7.60236 71.425 9.66245 66.2563 12.2047C65.925 12.3581 65.6048 12.5115 65.2845 12.6649C64.9642 12.8183 64.6439 12.9717 64.3126 13.1251L62.413 14.1333L60.5134 15.1414C60.3072 15.2583 60.0961 15.3703 59.885 15.4823C59.4629 15.7064 59.0408 15.9304 58.6579 16.1934L54.9912 18.3849C54.6114 18.6003 54.2482 18.8487 53.8812 19.0998C53.6506 19.2575 53.4186 19.4162 53.18 19.5684L51.4129 20.7519L49.6458 21.9353L47.9229 23.2064L46.2 24.4775C46.0468 24.5945 45.8936 24.7083 45.7413 24.8215C45.3225 25.1326 44.91 25.439 44.5213 25.7925L41.208 28.5101C40.7749 28.8407 40.392 29.1962 40.0025 29.5578C39.8756 29.6757 39.748 29.7942 39.6177 29.9127L38.0273 31.3591L36.4369 32.8056L34.9349 34.2958L33.4329 35.7861L33.4327 35.7863C32.9468 36.2684 32.4168 36.7943 31.9309 37.3202L29.2361 40.5638C28.7501 41.0897 28.3084 41.6157 27.8666 42.1855L26.4971 43.8073L25.1276 45.4291L23.8465 47.1385L22.5654 48.848C22.4016 49.0827 22.2303 49.31 22.0577 49.539C21.8113 49.866 21.5622 50.1965 21.3284 50.5574L18.9429 54.0639C18.6973 54.4159 18.4686 54.7845 18.2359 55.1596C18.0919 55.3918 17.9463 55.6264 17.7943 55.861L16.6898 57.6581L15.5854 59.4552L14.5694 61.2961C14.3824 61.6423 14.192 61.9885 14.001 62.3357C13.515 63.2193 13.0254 64.1093 12.5814 65.0218L10.726 68.7914C10.6726 68.9148 10.6122 69.0382 10.5503 69.1645C10.4584 69.3521 10.3634 69.5461 10.2842 69.7557L9.88661 70.7199L9.04724 72.6485L8.20789 74.5771C8.07536 74.9059 7.95386 75.2346 7.83237 75.5634C7.71089 75.8921 7.5894 76.2208 7.45687 76.5496L5.99905 80.4944L4.76206 84.4831L4.45287 85.4912C4.4087 85.6665 4.36452 85.8309 4.32034 85.9952C4.27615 86.1596 4.23197 86.324 4.18779 86.4994L3.65765 88.5156C3.09878 90.5053 2.6867 92.5435 2.27575 94.5761C2.13447 95.2749 1.99333 95.973 1.8464 96.6683C1.73596 97.3477 1.62552 98.038 1.51507 98.7284C1.40463 99.4187 1.29419 100.109 1.18375 100.788C1.13957 101.139 1.08435 101.479 1.02913 101.819C0.973903 102.158 0.91868 102.498 0.874502 102.849L0.653643 104.909C-0.00901083 110.431 -0.0973707 115.998 0.0793369 121.521L0.300215 125.641L0.697826 129.761C0.757497 130.679 0.897759 131.617 1.03697 132.547C1.10389 132.995 1.17056 133.44 1.22793 133.881C1.40464 135.24 1.58135 136.599 1.89058 137.958C2.8183 143.393 4.27612 148.74 6.0432 153.956L6.70587 155.885L7.05928 156.849L7.45687 157.813L8.95889 161.627C9.04299 161.817 9.12708 162.008 9.21125 162.198C10.2325 164.512 11.2653 166.851 12.4489 169.078L13.3766 170.919C13.6026 171.368 13.8522 171.793 14.1081 172.229C14.2024 172.389 14.2975 172.551 14.3927 172.716L15.4087 174.513C15.4718 174.623 15.5334 174.731 15.5943 174.838C15.8752 175.33 16.1423 175.798 16.469 176.267L18.6336 179.729L20.975 183.104C24.1557 187.575 27.6015 191.783 31.3566 195.772C27.8224 191.608 24.5975 187.225 21.6818 182.666L19.5613 179.203L17.5734 175.653C17.22 175.083 16.9107 174.469 16.6457 173.856L15.718 172.059C15.4087 171.445 15.0995 170.831 14.8344 170.262L13.9951 168.421C13.0685 166.441 12.2857 164.404 11.5075 162.379C11.321 161.893 11.1347 161.409 10.9468 160.926L9.66573 157.112L9.35649 156.148L9.09144 155.184L8.51712 153.255C7.05928 148.083 5.91069 142.823 5.29222 137.519C2.50907 116.261 5.99903 94.389 15.232 75.3661L16.1156 73.569L16.5573 72.6924C16.6539 72.4689 16.7739 72.2686 16.9002 72.0578C16.9473 71.9791 16.9953 71.8991 17.0433 71.8157L18.9429 68.353C19.2742 67.7832 19.6166 67.2244 19.9589 66.6655C20.3013 66.1067 20.6437 65.5478 20.975 64.978L22.0353 63.3124L23.1397 61.6906L24.2441 60.0689C24.5975 59.5429 24.9951 58.9731 25.3927 58.4471L27.7783 55.2912C27.977 55.0282 28.1869 54.7762 28.3967 54.5242C28.6065 54.2721 28.8164 54.0201 29.0152 53.7571L30.2963 52.223L31.5775 50.6889L32.9028 49.2424L34.2281 47.796C34.6698 47.3138 35.1116 46.8317 35.5976 46.3495L38.3807 43.5882C38.6752 43.2667 39.009 42.9842 39.3428 42.7018C39.5097 42.5605 39.6766 42.4193 39.8385 42.2732L41.2964 40.9583L42.7542 39.6433L44.3004 38.416L45.8024 37.1887C46.0675 36.9915 46.3215 36.7833 46.5755 36.5751C46.8295 36.3669 47.0836 36.1587 47.3486 35.9614L50.5294 33.6384C51.0595 33.2439 51.5896 32.8932 52.1639 32.5426L53.7985 31.4468L55.433 30.351L57.1117 29.3429L58.7904 28.3347C58.9008 28.2673 59.0095 28.2 59.1173 28.1332C59.5701 27.8525 60.0052 27.5829 60.4692 27.3704L63.915 25.5295C64.2947 25.3266 64.6745 25.1429 65.067 24.953C65.2681 24.8557 65.4725 24.7568 65.682 24.6529L67.4491 23.8201L69.2162 22.9873C69.3602 22.926 69.5018 22.8648 69.6421 22.8041C70.1045 22.6042 70.553 22.4103 71.0275 22.2421C75.7986 20.1382 80.7464 18.5164 85.7825 17.1577L89.5376 16.1934L93.3368 15.4482C94.1909 15.2437 95.045 15.1171 95.8991 14.9904C96.3261 14.9271 96.7531 14.8638 97.1802 14.7908L99.0798 14.4839L100.052 14.3524L101.024 14.2648L104.867 13.8703C105.312 13.8114 105.738 13.7921 106.17 13.7724C106.381 13.7628 106.593 13.7532 106.811 13.7388L108.755 13.6511L110.698 13.5635C111.138 13.5344 111.559 13.5439 111.986 13.5536C112.202 13.5585 112.42 13.5635 112.642 13.5635H116.53L120.417 13.7826C120.635 13.797 120.847 13.8067 121.058 13.8163C121.49 13.8359 121.916 13.8552 122.361 13.9141L124.305 14.1333L126.204 14.3086C126.514 14.3524 126.834 14.3853 127.154 14.4182C127.474 14.4511 127.795 14.4839 128.104 14.5278L131.903 15.0976L132.875 15.2291L133.803 15.4044L135.702 15.7989C136.04 15.8707 136.381 15.9392 136.724 16.008C137.636 16.1913 138.558 16.3768 139.457 16.6317L143.168 17.596L146.835 18.7356C151.694 20.3135 156.466 22.1545 161.016 24.4775C161.59 24.7405 162.164 25.0035 162.739 25.3104L164.417 26.2308L166.096 27.1513C166.383 27.3047 166.659 27.4581 166.936 27.6115C167.212 27.7649 167.488 27.9183 167.775 28.0717L171.044 30.0442C171.397 30.2487 171.751 30.4922 172.104 30.7357C172.281 30.8575 172.458 30.9792 172.634 31.0961L174.225 32.1481L175.815 33.2L177.317 34.3397L178.819 35.4793C179.062 35.6765 179.316 35.8628 179.57 36.0491C179.824 36.2354 180.078 36.4217 180.321 36.6189L183.237 39.0297C183.723 39.4241 184.209 39.8625 184.65 40.3008L186.064 41.5719L187.478 42.843L188.803 44.2018L190.128 45.5168C190.57 45.9551 191.012 46.3934 191.454 46.8755L193.972 49.6808C194.31 50.0159 194.622 50.4023 194.927 50.7812C195.022 50.8978 195.115 51.0137 195.209 51.1272L196.402 52.5736L197.594 54.0201L198.699 55.5104L199.803 57.0006C199.98 57.2637 200.168 57.5157 200.355 57.7678C200.543 58.0198 200.731 58.2718 200.908 58.5348L203.028 61.6468C203.205 61.9097 203.37 62.1727 203.536 62.4356C203.702 62.6987 203.867 62.9617 204.044 63.2247L205.016 64.8465L205.988 66.4245L206.871 68.0462C207.159 68.5942 207.457 69.1422 207.755 69.6902C208.053 70.238 208.351 70.7858 208.639 71.3336L210.273 74.7086C210.339 74.8401 210.406 74.9826 210.472 75.125C210.538 75.2675 210.604 75.4099 210.671 75.5414L211.024 76.4181L211.731 78.1275L212.438 79.8369C212.548 80.122 212.659 80.418 212.769 80.7141C212.88 81.0098 212.99 81.3055 213.1 81.5902C213.299 82.1819 213.52 82.7627 213.741 83.3435C213.962 83.9242 214.183 84.505 214.382 85.0967L215.486 88.6471L215.751 89.5237C215.839 89.8306 215.928 90.1374 215.972 90.4004L216.414 92.1975C216.956 94.1346 217.35 96.1304 217.742 98.1129C217.829 98.5528 217.916 98.992 218.004 99.4297L218.578 103.068C218.608 103.272 218.642 103.477 218.677 103.681C218.745 104.091 218.814 104.5 218.843 104.909L219.02 106.75C220.08 116.524 219.639 126.474 217.872 136.073C217.032 140.894 215.707 145.584 214.161 150.187L213.542 151.896L213.233 152.773L212.88 153.606L211.51 156.981C211.278 157.481 211.048 157.985 210.818 158.488C210.041 160.189 209.26 161.898 208.373 163.555L207.534 165.177L207.534 165.178C207.225 165.704 206.916 166.229 206.651 166.755L205.767 168.333C205.664 168.508 205.566 168.684 205.468 168.859C205.271 169.21 205.075 169.56 204.839 169.911L202.896 172.979L202.356 173.754L191.036 168L201.96 200.872L234.955 190.326L225.001 185.266Z"
      fill="currentColor"/>
</svg>
