<svg viewBox="0 0 41 40" fill="none" xmlns="http://www.w3.org/2000/svg">
<g>
<path d="M40.5 20C40.5 8.95312 31.5469 0 20.5 0C9.45312 0 0.5 8.95312 0.5 20C0.5 31.0469 9.45312 40 20.5 40C20.6172 40 20.7344 40 20.8516 39.9922V24.4297H16.5547V19.4219H20.8516V15.7344C20.8516 11.4609 23.4609 9.13281 27.2734 9.13281C29.1016 9.13281 30.6719 9.26562 31.125 9.32812V13.7969H28.5C26.4297 13.7969 26.0234 14.7812 26.0234 16.2266V19.4141H30.9844L30.3359 24.4219H26.0234V39.2266C34.3828 36.8281 40.5 29.1328 40.5 20Z" fill="currentColor"/>
</g>
</svg>
