<svg width="20" height="20" viewBox="0 0 20 20" fill="none" xmlns="http://www.w3.org/2000/svg">
<g>
<path d="M5.06153 19.9832L5.42974 19.8803C5.78391 19.7813 5.99077 19.414 5.89181 19.0598L1.68205 3.99469C1.62265 3.78208 1.48121 3.60178 1.28887 3.49346C1.09653 3.38513 0.869032 3.35765 0.656429 3.41707L0.608877 3.43034C0.166127 3.55405 -0.0925122 4.01325 0.0311871 4.456L4.24105 19.5211C4.34002 19.8753 4.70736 20.0822 5.06153 19.9832Z" fill="currentColor"/>
<path d="M19.8864 9.45525C18.5514 8.78958 17.3163 7.93992 16.2174 6.93111C16.125 6.84655 16.0889 6.71675 16.1243 6.59662C16.6688 4.53669 17.0732 2.44224 17.3346 0.327661C17.376 -0.0240632 17.1864 -0.127511 16.9864 0.113868C13.0622 4.80697 6.27258 -0.744753 2.2312 3.52076C2.27972 3.61161 2.31789 3.70761 2.34499 3.80697L5.07603 13.5863C9.1243 9.37249 15.8898 14.8897 19.8071 10.207C20.0071 9.96559 20.045 9.52421 19.8864 9.45525Z" fill="currentColor"/>
</g>
</svg>
