<svg width="19" height="20" viewBox="0 0 19 20" fill="none" xmlns="http://www.w3.org/2000/svg">
<path fill-rule="evenodd" clip-rule="evenodd" d="M9.49998 19.1667C4.43737 19.1667 0.333313 15.0626 0.333313 10C0.333313 4.93743 4.43737 0.833374 9.49998 0.833374C14.5626 0.833374 18.6666 4.93743 18.6666 10C18.6666 15.0626 14.5626 19.1667 9.49998 19.1667ZM9.49998 17.5C13.6421 17.5 17 14.1422 17 10C17 5.8579 13.6421 2.50004 9.49998 2.50004C5.35784 2.50004 1.99998 5.8579 1.99998 10C1.99998 14.1422 5.35784 17.5 9.49998 17.5ZM10.8215 10.8334H5.33331V9.16671H10.8215L8.91072 7.25596L10.0892 6.07745L14.0118 10L10.0892 13.9226L8.91072 12.7441L10.8215 10.8334Z" fill="#4368E0"/>
</svg>
