<svg width="354" height="139" viewBox="0 0 354 139" fill="none" xmlns="http://www.w3.org/2000/svg">
<g clip-path="url(#clip0)">
<rect width="354" height="139" fill="#F6F9FE"/>
<path opacity="0.05" d="M308.74 180.052C341.718 180.052 370.975 154.648 370.975 120.298H325.87C325.87 127.04 319.594 134.948 308.74 134.948V180.052ZM370.975 120.298C370.975 85.9478 341.718 60.5438 308.74 60.5438V105.649C319.594 105.649 325.87 113.556 325.87 120.298H370.975ZM308.74 60.5438C275.762 60.5438 246.506 85.9478 246.506 120.298H291.611C291.611 113.556 297.887 105.649 308.74 105.649V60.5438ZM246.506 120.298C246.506 154.648 275.762 180.052 308.74 180.052V134.948C297.887 134.948 291.611 127.04 291.611 120.298H246.506ZM308.74 158.514C329.03 158.514 348.001 142.753 348.001 120.298H302.896C302.896 117.907 303.971 116.008 305.13 114.921C306.265 113.858 307.594 113.41 308.74 113.41V158.514ZM348.001 120.298C348.001 97.8429 329.03 82.0819 308.74 82.0819V127.187C307.594 127.187 306.265 126.738 305.13 125.675C303.971 124.588 302.896 122.689 302.896 120.298H348.001ZM308.74 82.0819C288.451 82.0819 269.48 97.8429 269.48 120.298H314.585C314.585 122.689 313.51 124.588 312.35 125.675C311.216 126.738 309.886 127.187 308.74 127.187V82.0819ZM269.48 120.298C269.48 142.753 288.451 158.514 308.74 158.514V113.41C309.886 113.41 311.216 113.858 312.35 114.921C313.51 116.008 314.585 117.907 314.585 120.298H269.48Z" fill="#449CF4"/>
<g opacity="0.1">
<path fill-rule="evenodd" clip-rule="evenodd" d="M301.055 1.24599C301.444 1.24599 301.762 0.949757 301.762 0.583231C301.762 0.216705 301.444 -0.0795288 301.055 -0.0795288C300.665 -0.0795288 300.347 0.216705 300.347 0.583231C300.347 0.949757 300.665 1.24599 301.055 1.24599Z" fill="#449CF4"/>
<path fill-rule="evenodd" clip-rule="evenodd" d="M308.134 1.24599C308.525 1.24599 308.842 0.949757 308.842 0.583231C308.842 0.216705 308.525 -0.0795288 308.134 -0.0795288C307.745 -0.0795288 307.428 0.216705 307.428 0.583231C307.428 0.949757 307.745 1.24599 308.134 1.24599Z" fill="#449CF4"/>
<path fill-rule="evenodd" clip-rule="evenodd" d="M315.216 1.24599C315.606 1.24599 315.923 0.949757 315.923 0.583231C315.923 0.216705 315.606 -0.0795288 315.216 -0.0795288C314.826 -0.0795288 314.509 0.216705 314.509 0.583231C314.509 0.949757 314.826 1.24599 315.216 1.24599Z" fill="#449CF4"/>
<path fill-rule="evenodd" clip-rule="evenodd" d="M322.296 1.24599C322.686 1.24599 323.003 0.949757 323.003 0.583231C323.003 0.216705 322.686 -0.0795288 322.296 -0.0795288C321.908 -0.0795288 321.589 0.216705 321.589 0.583231C321.589 0.949757 321.908 1.24599 322.296 1.24599Z" fill="#449CF4"/>
<path fill-rule="evenodd" clip-rule="evenodd" d="M329.378 1.24599C329.767 1.24599 330.084 0.949757 330.084 0.583231C330.084 0.216705 329.767 -0.0795288 329.378 -0.0795288C328.988 -0.0795288 328.67 0.216705 328.67 0.583231C328.67 0.949757 328.988 1.24599 329.378 1.24599Z" fill="#449CF4"/>
<path fill-rule="evenodd" clip-rule="evenodd" d="M336.458 1.24599C336.848 1.24599 337.165 0.949757 337.165 0.583231C337.165 0.216705 336.848 -0.0795288 336.458 -0.0795288C336.068 -0.0795288 335.751 0.216705 335.751 0.583231C335.751 0.949757 336.068 1.24599 336.458 1.24599Z" fill="#449CF4"/>
<path fill-rule="evenodd" clip-rule="evenodd" d="M301.055 7.88403C301.444 7.88403 301.762 7.58679 301.762 7.22127C301.762 6.85574 301.444 6.55951 301.055 6.55951C300.665 6.55951 300.347 6.85574 300.347 7.22127C300.347 7.58679 300.665 7.88403 301.055 7.88403Z" fill="#449CF4"/>
<path fill-rule="evenodd" clip-rule="evenodd" d="M308.134 7.88403C308.525 7.88403 308.842 7.58679 308.842 7.22127C308.842 6.85574 308.525 6.55951 308.134 6.55951C307.745 6.55951 307.428 6.85574 307.428 7.22127C307.428 7.58679 307.745 7.88403 308.134 7.88403Z" fill="#449CF4"/>
<path fill-rule="evenodd" clip-rule="evenodd" d="M315.216 7.88403C315.606 7.88403 315.923 7.58679 315.923 7.22127C315.923 6.85574 315.606 6.55951 315.216 6.55951C314.826 6.55951 314.509 6.85574 314.509 7.22127C314.509 7.58679 314.826 7.88403 315.216 7.88403Z" fill="#449CF4"/>
<path fill-rule="evenodd" clip-rule="evenodd" d="M322.296 7.88403C322.686 7.88403 323.003 7.58679 323.003 7.22127C323.003 6.85574 322.686 6.55951 322.296 6.55951C321.908 6.55951 321.589 6.85574 321.589 7.22127C321.589 7.58679 321.908 7.88403 322.296 7.88403Z" fill="#449CF4"/>
<path fill-rule="evenodd" clip-rule="evenodd" d="M329.378 7.88403C329.767 7.88403 330.084 7.58679 330.084 7.22127C330.084 6.85574 329.767 6.55951 329.378 6.55951C328.988 6.55951 328.67 6.85574 328.67 7.22127C328.67 7.58679 328.988 7.88403 329.378 7.88403Z" fill="#449CF4"/>
<path fill-rule="evenodd" clip-rule="evenodd" d="M336.458 7.88403C336.848 7.88403 337.165 7.58679 337.165 7.22127C337.165 6.85574 336.848 6.55951 336.458 6.55951C336.068 6.55951 335.751 6.85574 335.751 7.22127C335.751 7.58679 336.068 7.88403 336.458 7.88403Z" fill="#449CF4"/>
<path fill-rule="evenodd" clip-rule="evenodd" d="M301.055 14.522C301.444 14.522 301.762 14.2258 301.762 13.8592C301.762 13.4937 301.444 13.1965 301.055 13.1965C300.665 13.1965 300.347 13.4937 300.347 13.8592C300.347 14.2258 300.665 14.522 301.055 14.522Z" fill="#449CF4"/>
<path fill-rule="evenodd" clip-rule="evenodd" d="M308.134 14.522C308.525 14.522 308.842 14.2258 308.842 13.8592C308.842 13.4937 308.525 13.1965 308.134 13.1965C307.745 13.1965 307.428 13.4937 307.428 13.8592C307.428 14.2258 307.745 14.522 308.134 14.522Z" fill="#449CF4"/>
<path fill-rule="evenodd" clip-rule="evenodd" d="M315.216 14.522C315.606 14.522 315.923 14.2258 315.923 13.8592C315.923 13.4937 315.606 13.1965 315.216 13.1965C314.826 13.1965 314.509 13.4937 314.509 13.8592C314.509 14.2258 314.826 14.522 315.216 14.522Z" fill="#449CF4"/>
<path fill-rule="evenodd" clip-rule="evenodd" d="M322.296 14.522C322.686 14.522 323.003 14.2258 323.003 13.8592C323.003 13.4937 322.686 13.1965 322.296 13.1965C321.908 13.1965 321.589 13.4937 321.589 13.8592C321.589 14.2258 321.908 14.522 322.296 14.522Z" fill="#449CF4"/>
<path fill-rule="evenodd" clip-rule="evenodd" d="M329.378 14.522C329.767 14.522 330.084 14.2258 330.084 13.8592C330.084 13.4937 329.767 13.1965 329.378 13.1965C328.988 13.1965 328.67 13.4937 328.67 13.8592C328.67 14.2258 328.988 14.522 329.378 14.522Z" fill="#449CF4"/>
<path fill-rule="evenodd" clip-rule="evenodd" d="M336.458 14.522C336.848 14.522 337.165 14.2258 337.165 13.8592C337.165 13.4937 336.848 13.1965 336.458 13.1965C336.068 13.1965 335.751 13.4937 335.751 13.8592C335.751 14.2258 336.068 14.522 336.458 14.522Z" fill="#449CF4"/>
<path fill-rule="evenodd" clip-rule="evenodd" d="M301.055 21.161C301.444 21.161 301.762 20.8647 301.762 20.4982C301.762 20.1317 301.444 19.8354 301.055 19.8354C300.665 19.8354 300.347 20.1317 300.347 20.4982C300.347 20.8647 300.665 21.161 301.055 21.161Z" fill="#449CF4"/>
<path fill-rule="evenodd" clip-rule="evenodd" d="M308.134 21.161C308.525 21.161 308.842 20.8647 308.842 20.4982C308.842 20.1317 308.525 19.8354 308.134 19.8354C307.745 19.8354 307.428 20.1317 307.428 20.4982C307.428 20.8647 307.745 21.161 308.134 21.161Z" fill="#449CF4"/>
<path fill-rule="evenodd" clip-rule="evenodd" d="M315.216 21.161C315.606 21.161 315.923 20.8647 315.923 20.4982C315.923 20.1317 315.606 19.8354 315.216 19.8354C314.826 19.8354 314.509 20.1317 314.509 20.4982C314.509 20.8647 314.826 21.161 315.216 21.161Z" fill="#449CF4"/>
<path fill-rule="evenodd" clip-rule="evenodd" d="M322.296 21.161C322.686 21.161 323.003 20.8647 323.003 20.4982C323.003 20.1317 322.686 19.8354 322.296 19.8354C321.908 19.8354 321.589 20.1317 321.589 20.4982C321.589 20.8647 321.908 21.161 322.296 21.161Z" fill="#449CF4"/>
<path fill-rule="evenodd" clip-rule="evenodd" d="M329.378 21.161C329.767 21.161 330.084 20.8647 330.084 20.4982C330.084 20.1317 329.767 19.8354 329.378 19.8354C328.988 19.8354 328.67 20.1317 328.67 20.4982C328.67 20.8647 328.988 21.161 329.378 21.161Z" fill="#449CF4"/>
<path fill-rule="evenodd" clip-rule="evenodd" d="M336.458 21.161C336.848 21.161 337.165 20.8647 337.165 20.4982C337.165 20.1317 336.848 19.8354 336.458 19.8354C336.068 19.8354 335.751 20.1317 335.751 20.4982C335.751 20.8647 336.068 21.161 336.458 21.161Z" fill="#449CF4"/>
<path fill-rule="evenodd" clip-rule="evenodd" d="M301.055 27.799C301.444 27.799 301.762 27.5017 301.762 27.1362C301.762 26.7707 301.444 26.4734 301.055 26.4734C300.665 26.4734 300.347 26.7707 300.347 27.1362C300.347 27.5017 300.665 27.799 301.055 27.799Z" fill="#449CF4"/>
<path fill-rule="evenodd" clip-rule="evenodd" d="M308.134 27.799C308.525 27.799 308.842 27.5017 308.842 27.1362C308.842 26.7707 308.525 26.4734 308.134 26.4734C307.745 26.4734 307.428 26.7707 307.428 27.1362C307.428 27.5017 307.745 27.799 308.134 27.799Z" fill="#449CF4"/>
<path fill-rule="evenodd" clip-rule="evenodd" d="M315.216 27.799C315.606 27.799 315.923 27.5017 315.923 27.1362C315.923 26.7707 315.606 26.4734 315.216 26.4734C314.826 26.4734 314.509 26.7707 314.509 27.1362C314.509 27.5017 314.826 27.799 315.216 27.799Z" fill="#449CF4"/>
<path fill-rule="evenodd" clip-rule="evenodd" d="M322.296 27.799C322.686 27.799 323.003 27.5017 323.003 27.1362C323.003 26.7707 322.686 26.4734 322.296 26.4734C321.908 26.4734 321.589 26.7707 321.589 27.1362C321.589 27.5017 321.908 27.799 322.296 27.799Z" fill="#449CF4"/>
<path fill-rule="evenodd" clip-rule="evenodd" d="M329.378 27.799C329.767 27.799 330.084 27.5017 330.084 27.1362C330.084 26.7707 329.767 26.4734 329.378 26.4734C328.988 26.4734 328.67 26.7707 328.67 27.1362C328.67 27.5017 328.988 27.799 329.378 27.799Z" fill="#449CF4"/>
<path fill-rule="evenodd" clip-rule="evenodd" d="M336.458 27.799C336.848 27.799 337.165 27.5017 337.165 27.1362C337.165 26.7707 336.848 26.4734 336.458 26.4734C336.068 26.4734 335.751 26.7707 335.751 27.1362C335.751 27.5017 336.068 27.799 336.458 27.799Z" fill="#449CF4"/>
<path fill-rule="evenodd" clip-rule="evenodd" d="M301.055 34.437C301.444 34.437 301.762 34.1407 301.762 33.7742C301.762 33.4077 301.444 33.1115 301.055 33.1115C300.665 33.1115 300.347 33.4077 300.347 33.7742C300.347 34.1407 300.665 34.437 301.055 34.437Z" fill="#449CF4"/>
<path fill-rule="evenodd" clip-rule="evenodd" d="M308.134 34.437C308.525 34.437 308.842 34.1407 308.842 33.7742C308.842 33.4077 308.525 33.1115 308.134 33.1115C307.745 33.1115 307.428 33.4077 307.428 33.7742C307.428 34.1407 307.745 34.437 308.134 34.437Z" fill="#449CF4"/>
<path fill-rule="evenodd" clip-rule="evenodd" d="M315.216 34.437C315.606 34.437 315.923 34.1407 315.923 33.7742C315.923 33.4077 315.606 33.1115 315.216 33.1115C314.826 33.1115 314.509 33.4077 314.509 33.7742C314.509 34.1407 314.826 34.437 315.216 34.437Z" fill="#449CF4"/>
<path fill-rule="evenodd" clip-rule="evenodd" d="M322.296 34.437C322.686 34.437 323.003 34.1407 323.003 33.7742C323.003 33.4077 322.686 33.1115 322.296 33.1115C321.908 33.1115 321.589 33.4077 321.589 33.7742C321.589 34.1407 321.908 34.437 322.296 34.437Z" fill="#449CF4"/>
<path fill-rule="evenodd" clip-rule="evenodd" d="M329.378 34.437C329.767 34.437 330.084 34.1407 330.084 33.7742C330.084 33.4077 329.767 33.1115 329.378 33.1115C328.988 33.1115 328.67 33.4077 328.67 33.7742C328.67 34.1407 328.988 34.437 329.378 34.437Z" fill="#449CF4"/>
<path fill-rule="evenodd" clip-rule="evenodd" d="M336.458 34.437C336.848 34.437 337.165 34.1407 337.165 33.7742C337.165 33.4077 336.848 33.1115 336.458 33.1115C336.068 33.1115 335.751 33.4077 335.751 33.7742C335.751 34.1407 336.068 34.437 336.458 34.437Z" fill="#449CF4"/>
<path fill-rule="evenodd" clip-rule="evenodd" d="M301.055 41.076C301.444 41.076 301.762 40.7788 301.762 40.4132C301.762 40.0467 301.444 39.7505 301.055 39.7505C300.665 39.7505 300.347 40.0467 300.347 40.4132C300.347 40.7788 300.665 41.076 301.055 41.076Z" fill="#449CF4"/>
<path fill-rule="evenodd" clip-rule="evenodd" d="M308.134 41.076C308.525 41.076 308.842 40.7788 308.842 40.4132C308.842 40.0467 308.525 39.7505 308.134 39.7505C307.745 39.7505 307.428 40.0467 307.428 40.4132C307.428 40.7788 307.745 41.076 308.134 41.076Z" fill="#449CF4"/>
<path fill-rule="evenodd" clip-rule="evenodd" d="M315.216 41.076C315.606 41.076 315.923 40.7788 315.923 40.4132C315.923 40.0467 315.606 39.7505 315.216 39.7505C314.826 39.7505 314.509 40.0467 314.509 40.4132C314.509 40.7788 314.826 41.076 315.216 41.076Z" fill="#449CF4"/>
<path fill-rule="evenodd" clip-rule="evenodd" d="M322.296 41.076C322.686 41.076 323.003 40.7788 323.003 40.4132C323.003 40.0467 322.686 39.7505 322.296 39.7505C321.908 39.7505 321.589 40.0467 321.589 40.4132C321.589 40.7788 321.908 41.076 322.296 41.076Z" fill="#449CF4"/>
<path fill-rule="evenodd" clip-rule="evenodd" d="M329.378 41.076C329.767 41.076 330.084 40.7788 330.084 40.4132C330.084 40.0467 329.767 39.7505 329.378 39.7505C328.988 39.7505 328.67 40.0467 328.67 40.4132C328.67 40.7788 328.988 41.076 329.378 41.076Z" fill="#449CF4"/>
<path fill-rule="evenodd" clip-rule="evenodd" d="M336.458 41.076C336.848 41.076 337.165 40.7788 337.165 40.4132C337.165 40.0467 336.848 39.7505 336.458 39.7505C336.068 39.7505 335.751 40.0467 335.751 40.4132C335.751 40.7788 336.068 41.076 336.458 41.076Z" fill="#449CF4"/>
<path fill-rule="evenodd" clip-rule="evenodd" d="M301.055 47.713C301.444 47.713 301.762 47.4167 301.762 47.0502C301.762 46.6857 301.444 46.3875 301.055 46.3875C300.665 46.3875 300.347 46.6857 300.347 47.0502C300.347 47.4167 300.665 47.713 301.055 47.713Z" fill="#449CF4"/>
<path fill-rule="evenodd" clip-rule="evenodd" d="M308.134 47.713C308.525 47.713 308.842 47.4167 308.842 47.0502C308.842 46.6857 308.525 46.3875 308.134 46.3875C307.745 46.3875 307.428 46.6857 307.428 47.0502C307.428 47.4167 307.745 47.713 308.134 47.713Z" fill="#449CF4"/>
<path fill-rule="evenodd" clip-rule="evenodd" d="M315.216 47.713C315.606 47.713 315.923 47.4167 315.923 47.0502C315.923 46.6857 315.606 46.3875 315.216 46.3875C314.826 46.3875 314.509 46.6857 314.509 47.0502C314.509 47.4167 314.826 47.713 315.216 47.713Z" fill="#449CF4"/>
<path fill-rule="evenodd" clip-rule="evenodd" d="M322.296 47.713C322.686 47.713 323.003 47.4167 323.003 47.0502C323.003 46.6857 322.686 46.3875 322.296 46.3875C321.908 46.3875 321.589 46.6857 321.589 47.0502C321.589 47.4167 321.908 47.713 322.296 47.713Z" fill="#449CF4"/>
<path fill-rule="evenodd" clip-rule="evenodd" d="M329.378 47.713C329.767 47.713 330.084 47.4167 330.084 47.0502C330.084 46.6857 329.767 46.3875 329.378 46.3875C328.988 46.3875 328.67 46.6857 328.67 47.0502C328.67 47.4167 328.988 47.713 329.378 47.713Z" fill="#449CF4"/>
<path fill-rule="evenodd" clip-rule="evenodd" d="M336.458 47.713C336.848 47.713 337.165 47.4167 337.165 47.0502C337.165 46.6857 336.848 46.3875 336.458 46.3875C336.068 46.3875 335.751 46.6857 335.751 47.0502C335.751 47.4167 336.068 47.713 336.458 47.713Z" fill="#449CF4"/>
<path fill-rule="evenodd" clip-rule="evenodd" d="M301.055 54.352C301.444 54.352 301.762 54.0558 301.762 53.6893C301.762 53.3227 301.444 53.0265 301.055 53.0265C300.665 53.0265 300.347 53.3227 300.347 53.6893C300.347 54.0558 300.665 54.352 301.055 54.352Z" fill="#449CF4"/>
<path fill-rule="evenodd" clip-rule="evenodd" d="M308.134 54.352C308.525 54.352 308.842 54.0558 308.842 53.6893C308.842 53.3227 308.525 53.0265 308.134 53.0265C307.745 53.0265 307.428 53.3227 307.428 53.6893C307.428 54.0558 307.745 54.352 308.134 54.352Z" fill="#449CF4"/>
<path fill-rule="evenodd" clip-rule="evenodd" d="M315.216 54.352C315.606 54.352 315.923 54.0558 315.923 53.6893C315.923 53.3227 315.606 53.0265 315.216 53.0265C314.826 53.0265 314.509 53.3227 314.509 53.6893C314.509 54.0558 314.826 54.352 315.216 54.352Z" fill="#449CF4"/>
<path fill-rule="evenodd" clip-rule="evenodd" d="M322.296 54.352C322.686 54.352 323.003 54.0558 323.003 53.6893C323.003 53.3227 322.686 53.0265 322.296 53.0265C321.908 53.0265 321.589 53.3227 321.589 53.6893C321.589 54.0558 321.908 54.352 322.296 54.352Z" fill="#449CF4"/>
<path fill-rule="evenodd" clip-rule="evenodd" d="M329.378 54.352C329.767 54.352 330.084 54.0558 330.084 53.6893C330.084 53.3227 329.767 53.0265 329.378 53.0265C328.988 53.0265 328.67 53.3227 328.67 53.6893C328.67 54.0558 328.988 54.352 329.378 54.352Z" fill="#449CF4"/>
<path fill-rule="evenodd" clip-rule="evenodd" d="M336.458 54.352C336.848 54.352 337.165 54.0558 337.165 53.6893C337.165 53.3227 336.848 53.0265 336.458 53.0265C336.068 53.0265 335.751 53.3227 335.751 53.6893C335.751 54.0558 336.068 54.352 336.458 54.352Z" fill="#449CF4"/>
<path fill-rule="evenodd" clip-rule="evenodd" d="M301.055 60.9899C301.444 60.9899 301.762 60.6927 301.762 60.3282C301.762 59.9616 301.444 59.6654 301.055 59.6654C300.665 59.6654 300.347 59.9616 300.347 60.3282C300.347 60.6927 300.665 60.9899 301.055 60.9899Z" fill="#449CF4"/>
<path fill-rule="evenodd" clip-rule="evenodd" d="M308.134 60.9899C308.525 60.9899 308.842 60.6927 308.842 60.3282C308.842 59.9616 308.525 59.6654 308.134 59.6654C307.745 59.6654 307.428 59.9616 307.428 60.3282C307.428 60.6927 307.745 60.9899 308.134 60.9899Z" fill="#449CF4"/>
<path fill-rule="evenodd" clip-rule="evenodd" d="M315.216 60.9899C315.606 60.9899 315.923 60.6927 315.923 60.3282C315.923 59.9616 315.606 59.6654 315.216 59.6654C314.826 59.6654 314.509 59.9616 314.509 60.3282C314.509 60.6927 314.826 60.9899 315.216 60.9899Z" fill="#449CF4"/>
<path fill-rule="evenodd" clip-rule="evenodd" d="M322.296 60.9899C322.686 60.9899 323.003 60.6927 323.003 60.3282C323.003 59.9616 322.686 59.6654 322.296 59.6654C321.908 59.6654 321.589 59.9616 321.589 60.3282C321.589 60.6927 321.908 60.9899 322.296 60.9899Z" fill="#449CF4"/>
<path fill-rule="evenodd" clip-rule="evenodd" d="M329.378 60.9899C329.767 60.9899 330.084 60.6927 330.084 60.3282C330.084 59.9616 329.767 59.6654 329.378 59.6654C328.988 59.6654 328.67 59.9616 328.67 60.3282C328.67 60.6927 328.988 60.9899 329.378 60.9899Z" fill="#449CF4"/>
<path fill-rule="evenodd" clip-rule="evenodd" d="M336.458 60.9899C336.848 60.9899 337.165 60.6927 337.165 60.3282C337.165 59.9616 336.848 59.6654 336.458 59.6654C336.068 59.6654 335.751 59.9616 335.751 60.3282C335.751 60.6927 336.068 60.9899 336.458 60.9899Z" fill="#449CF4"/>
<path fill-rule="evenodd" clip-rule="evenodd" d="M301.055 67.628C301.444 67.628 301.762 67.3318 301.762 66.9653C301.762 66.5997 301.444 66.3025 301.055 66.3025C300.665 66.3025 300.347 66.5997 300.347 66.9653C300.347 67.3318 300.665 67.628 301.055 67.628Z" fill="#449CF4"/>
<path fill-rule="evenodd" clip-rule="evenodd" d="M308.134 67.628C308.525 67.628 308.842 67.3318 308.842 66.9653C308.842 66.5997 308.525 66.3025 308.134 66.3025C307.745 66.3025 307.428 66.5997 307.428 66.9653C307.428 67.3318 307.745 67.628 308.134 67.628Z" fill="#449CF4"/>
<path fill-rule="evenodd" clip-rule="evenodd" d="M315.216 67.628C315.606 67.628 315.923 67.3318 315.923 66.9653C315.923 66.5997 315.606 66.3025 315.216 66.3025C314.826 66.3025 314.509 66.5997 314.509 66.9653C314.509 67.3318 314.826 67.628 315.216 67.628Z" fill="#449CF4"/>
<path fill-rule="evenodd" clip-rule="evenodd" d="M322.296 67.628C322.686 67.628 323.003 67.3318 323.003 66.9653C323.003 66.5997 322.686 66.3025 322.296 66.3025C321.908 66.3025 321.589 66.5997 321.589 66.9653C321.589 67.3318 321.908 67.628 322.296 67.628Z" fill="#449CF4"/>
<path fill-rule="evenodd" clip-rule="evenodd" d="M329.378 67.628C329.767 67.628 330.084 67.3318 330.084 66.9653C330.084 66.5997 329.767 66.3025 329.378 66.3025C328.988 66.3025 328.67 66.5997 328.67 66.9653C328.67 67.3318 328.988 67.628 329.378 67.628Z" fill="#449CF4"/>
<path fill-rule="evenodd" clip-rule="evenodd" d="M336.458 67.628C336.848 67.628 337.165 67.3318 337.165 66.9653C337.165 66.5997 336.848 66.3025 336.458 66.3025C336.068 66.3025 335.751 66.5997 335.751 66.9653C335.751 67.3318 336.068 67.628 336.458 67.628Z" fill="#449CF4"/>
<path fill-rule="evenodd" clip-rule="evenodd" d="M301.055 74.2669C301.444 74.2669 301.762 73.9707 301.762 73.6042C301.762 73.2376 301.444 72.9414 301.055 72.9414C300.665 72.9414 300.347 73.2376 300.347 73.6042C300.347 73.9707 300.665 74.2669 301.055 74.2669Z" fill="#449CF4"/>
<path fill-rule="evenodd" clip-rule="evenodd" d="M308.134 74.2669C308.525 74.2669 308.842 73.9707 308.842 73.6042C308.842 73.2376 308.525 72.9414 308.134 72.9414C307.745 72.9414 307.428 73.2376 307.428 73.6042C307.428 73.9707 307.745 74.2669 308.134 74.2669Z" fill="#449CF4"/>
<path fill-rule="evenodd" clip-rule="evenodd" d="M315.216 74.2669C315.606 74.2669 315.923 73.9707 315.923 73.6042C315.923 73.2376 315.606 72.9414 315.216 72.9414C314.826 72.9414 314.509 73.2376 314.509 73.6042C314.509 73.9707 314.826 74.2669 315.216 74.2669Z" fill="#449CF4"/>
<path fill-rule="evenodd" clip-rule="evenodd" d="M322.296 74.2669C322.686 74.2669 323.003 73.9707 323.003 73.6042C323.003 73.2376 322.686 72.9414 322.296 72.9414C321.908 72.9414 321.589 73.2376 321.589 73.6042C321.589 73.9707 321.908 74.2669 322.296 74.2669Z" fill="#449CF4"/>
<path fill-rule="evenodd" clip-rule="evenodd" d="M329.378 74.2669C329.767 74.2669 330.084 73.9707 330.084 73.6042C330.084 73.2376 329.767 72.9414 329.378 72.9414C328.988 72.9414 328.67 73.2376 328.67 73.6042C328.67 73.9707 328.988 74.2669 329.378 74.2669Z" fill="#449CF4"/>
<path fill-rule="evenodd" clip-rule="evenodd" d="M336.458 74.2669C336.848 74.2669 337.165 73.9707 337.165 73.6042C337.165 73.2376 336.848 72.9414 336.458 72.9414C336.068 72.9414 335.751 73.2376 335.751 73.6042C335.751 73.9707 336.068 74.2669 336.458 74.2669Z" fill="#449CF4"/>
<path fill-rule="evenodd" clip-rule="evenodd" d="M301.055 80.905C301.444 80.905 301.762 80.6078 301.762 80.2422C301.762 79.8767 301.444 79.5795 301.055 79.5795C300.665 79.5795 300.347 79.8767 300.347 80.2422C300.347 80.6078 300.665 80.905 301.055 80.905Z" fill="#449CF4"/>
<path fill-rule="evenodd" clip-rule="evenodd" d="M308.134 80.905C308.525 80.905 308.842 80.6078 308.842 80.2422C308.842 79.8767 308.525 79.5795 308.134 79.5795C307.745 79.5795 307.428 79.8767 307.428 80.2422C307.428 80.6078 307.745 80.905 308.134 80.905Z" fill="#449CF4"/>
<path fill-rule="evenodd" clip-rule="evenodd" d="M315.216 80.905C315.606 80.905 315.923 80.6078 315.923 80.2422C315.923 79.8767 315.606 79.5795 315.216 79.5795C314.826 79.5795 314.509 79.8767 314.509 80.2422C314.509 80.6078 314.826 80.905 315.216 80.905Z" fill="#449CF4"/>
<path fill-rule="evenodd" clip-rule="evenodd" d="M322.296 80.905C322.686 80.905 323.003 80.6078 323.003 80.2422C323.003 79.8767 322.686 79.5795 322.296 79.5795C321.908 79.5795 321.589 79.8767 321.589 80.2422C321.589 80.6078 321.908 80.905 322.296 80.905Z" fill="#449CF4"/>
<path fill-rule="evenodd" clip-rule="evenodd" d="M329.378 80.905C329.767 80.905 330.084 80.6078 330.084 80.2422C330.084 79.8767 329.767 79.5795 329.378 79.5795C328.988 79.5795 328.67 79.8767 328.67 80.2422C328.67 80.6078 328.988 80.905 329.378 80.905Z" fill="#449CF4"/>
<path fill-rule="evenodd" clip-rule="evenodd" d="M336.458 80.905C336.848 80.905 337.165 80.6078 337.165 80.2422C337.165 79.8767 336.848 79.5795 336.458 79.5795C336.068 79.5795 335.751 79.8767 335.751 80.2422C335.751 80.6078 336.068 80.905 336.458 80.905Z" fill="#449CF4"/>
<path fill-rule="evenodd" clip-rule="evenodd" d="M301.055 87.5429C301.444 87.5429 301.762 87.2467 301.762 86.8802C301.762 86.5136 301.444 86.2174 301.055 86.2174C300.665 86.2174 300.347 86.5136 300.347 86.8802C300.347 87.2467 300.665 87.5429 301.055 87.5429Z" fill="#449CF4"/>
<path fill-rule="evenodd" clip-rule="evenodd" d="M308.134 87.5429C308.525 87.5429 308.842 87.2467 308.842 86.8802C308.842 86.5136 308.525 86.2174 308.134 86.2174C307.745 86.2174 307.428 86.5136 307.428 86.8802C307.428 87.2467 307.745 87.5429 308.134 87.5429Z" fill="#449CF4"/>
<path fill-rule="evenodd" clip-rule="evenodd" d="M315.216 87.5429C315.606 87.5429 315.923 87.2467 315.923 86.8802C315.923 86.5136 315.606 86.2174 315.216 86.2174C314.826 86.2174 314.509 86.5136 314.509 86.8802C314.509 87.2467 314.826 87.5429 315.216 87.5429Z" fill="#449CF4"/>
<path fill-rule="evenodd" clip-rule="evenodd" d="M322.296 87.5429C322.686 87.5429 323.003 87.2467 323.003 86.8802C323.003 86.5136 322.686 86.2174 322.296 86.2174C321.908 86.2174 321.589 86.5136 321.589 86.8802C321.589 87.2467 321.908 87.5429 322.296 87.5429Z" fill="#449CF4"/>
<path fill-rule="evenodd" clip-rule="evenodd" d="M329.378 87.5429C329.767 87.5429 330.084 87.2467 330.084 86.8802C330.084 86.5136 329.767 86.2174 329.378 86.2174C328.988 86.2174 328.67 86.5136 328.67 86.8802C328.67 87.2467 328.988 87.5429 329.378 87.5429Z" fill="#449CF4"/>
<path fill-rule="evenodd" clip-rule="evenodd" d="M336.458 87.5429C336.848 87.5429 337.165 87.2467 337.165 86.8802C337.165 86.5136 336.848 86.2174 336.458 86.2174C336.068 86.2174 335.751 86.5136 335.751 86.8802C335.751 87.2467 336.068 87.5429 336.458 87.5429Z" fill="#449CF4"/>
<path fill-rule="evenodd" clip-rule="evenodd" d="M301.055 94.182C301.444 94.182 301.762 93.8847 301.762 93.5192C301.762 93.1527 301.444 92.8564 301.055 92.8564C300.665 92.8564 300.347 93.1527 300.347 93.5192C300.347 93.8847 300.665 94.182 301.055 94.182Z" fill="#449CF4"/>
<path fill-rule="evenodd" clip-rule="evenodd" d="M308.134 94.182C308.525 94.182 308.842 93.8847 308.842 93.5192C308.842 93.1527 308.525 92.8564 308.134 92.8564C307.745 92.8564 307.428 93.1527 307.428 93.5192C307.428 93.8847 307.745 94.182 308.134 94.182Z" fill="#449CF4"/>
<path fill-rule="evenodd" clip-rule="evenodd" d="M315.216 94.182C315.606 94.182 315.923 93.8847 315.923 93.5192C315.923 93.1527 315.606 92.8564 315.216 92.8564C314.826 92.8564 314.509 93.1527 314.509 93.5192C314.509 93.8847 314.826 94.182 315.216 94.182Z" fill="#449CF4"/>
<path fill-rule="evenodd" clip-rule="evenodd" d="M322.296 94.182C322.686 94.182 323.003 93.8847 323.003 93.5192C323.003 93.1527 322.686 92.8564 322.296 92.8564C321.908 92.8564 321.589 93.1527 321.589 93.5192C321.589 93.8847 321.908 94.182 322.296 94.182Z" fill="#449CF4"/>
<path fill-rule="evenodd" clip-rule="evenodd" d="M329.378 94.182C329.767 94.182 330.084 93.8847 330.084 93.5192C330.084 93.1527 329.767 92.8564 329.378 92.8564C328.988 92.8564 328.67 93.1527 328.67 93.5192C328.67 93.8847 328.988 94.182 329.378 94.182Z" fill="#449CF4"/>
<path fill-rule="evenodd" clip-rule="evenodd" d="M336.458 94.182C336.848 94.182 337.165 93.8847 337.165 93.5192C337.165 93.1527 336.848 92.8564 336.458 92.8564C336.068 92.8564 335.751 93.1527 335.751 93.5192C335.751 93.8847 336.068 94.182 336.458 94.182Z" fill="#449CF4"/>
<path fill-rule="evenodd" clip-rule="evenodd" d="M301.055 100.819C301.444 100.819 301.762 100.523 301.762 100.156C301.762 99.7916 301.444 99.4934 301.055 99.4934C300.665 99.4934 300.347 99.7916 300.347 100.156C300.347 100.523 300.665 100.819 301.055 100.819Z" fill="#449CF4"/>
<path fill-rule="evenodd" clip-rule="evenodd" d="M308.134 100.819C308.525 100.819 308.842 100.523 308.842 100.156C308.842 99.7916 308.525 99.4934 308.134 99.4934C307.745 99.4934 307.428 99.7916 307.428 100.156C307.428 100.523 307.745 100.819 308.134 100.819Z" fill="#449CF4"/>
<path fill-rule="evenodd" clip-rule="evenodd" d="M315.216 100.819C315.606 100.819 315.923 100.523 315.923 100.156C315.923 99.7916 315.606 99.4934 315.216 99.4934C314.826 99.4934 314.509 99.7916 314.509 100.156C314.509 100.523 314.826 100.819 315.216 100.819Z" fill="#449CF4"/>
<path fill-rule="evenodd" clip-rule="evenodd" d="M322.296 100.819C322.686 100.819 323.003 100.523 323.003 100.156C323.003 99.7916 322.686 99.4934 322.296 99.4934C321.908 99.4934 321.589 99.7916 321.589 100.156C321.589 100.523 321.908 100.819 322.296 100.819Z" fill="#449CF4"/>
<path fill-rule="evenodd" clip-rule="evenodd" d="M329.378 100.819C329.767 100.819 330.084 100.523 330.084 100.156C330.084 99.7916 329.767 99.4934 329.378 99.4934C328.988 99.4934 328.67 99.7916 328.67 100.156C328.67 100.523 328.988 100.819 329.378 100.819Z" fill="#449CF4"/>
<path fill-rule="evenodd" clip-rule="evenodd" d="M336.458 100.819C336.848 100.819 337.165 100.523 337.165 100.156C337.165 99.7916 336.848 99.4934 336.458 99.4934C336.068 99.4934 335.751 99.7916 335.751 100.156C335.751 100.523 336.068 100.819 336.458 100.819Z" fill="#449CF4"/>
<path fill-rule="evenodd" clip-rule="evenodd" d="M301.055 107.458C301.444 107.458 301.762 107.162 301.762 106.795C301.762 106.429 301.444 106.132 301.055 106.132C300.665 106.132 300.347 106.429 300.347 106.795C300.347 107.162 300.665 107.458 301.055 107.458Z" fill="#449CF4"/>
<path fill-rule="evenodd" clip-rule="evenodd" d="M308.134 107.458C308.525 107.458 308.842 107.162 308.842 106.795C308.842 106.429 308.525 106.132 308.134 106.132C307.745 106.132 307.428 106.429 307.428 106.795C307.428 107.162 307.745 107.458 308.134 107.458Z" fill="#449CF4"/>
<path fill-rule="evenodd" clip-rule="evenodd" d="M315.216 107.458C315.606 107.458 315.923 107.162 315.923 106.795C315.923 106.429 315.606 106.132 315.216 106.132C314.826 106.132 314.509 106.429 314.509 106.795C314.509 107.162 314.826 107.458 315.216 107.458Z" fill="#449CF4"/>
<path fill-rule="evenodd" clip-rule="evenodd" d="M322.296 107.458C322.686 107.458 323.003 107.162 323.003 106.795C323.003 106.429 322.686 106.132 322.296 106.132C321.908 106.132 321.589 106.429 321.589 106.795C321.589 107.162 321.908 107.458 322.296 107.458Z" fill="#449CF4"/>
<path fill-rule="evenodd" clip-rule="evenodd" d="M329.378 107.458C329.767 107.458 330.084 107.162 330.084 106.795C330.084 106.429 329.767 106.132 329.378 106.132C328.988 106.132 328.67 106.429 328.67 106.795C328.67 107.162 328.988 107.458 329.378 107.458Z" fill="#449CF4"/>
<path fill-rule="evenodd" clip-rule="evenodd" d="M336.458 107.458C336.848 107.458 337.165 107.162 337.165 106.795C337.165 106.429 336.848 106.132 336.458 106.132C336.068 106.132 335.751 106.429 335.751 106.795C335.751 107.162 336.068 107.458 336.458 107.458Z" fill="#449CF4"/>
</g>
<g opacity="0.2">
<path fill-rule="evenodd" clip-rule="evenodd" d="M222.617 21.1313H220.461V19.1096C220.461 18.6948 220.102 18.3587 219.659 18.3587C219.217 18.3587 218.859 18.6948 218.859 19.1096V21.1313H216.702C216.259 21.1313 215.901 21.4673 215.901 21.8822C215.901 22.2971 216.259 22.6331 216.702 22.6331H218.859V24.6548C218.859 25.0697 219.217 25.4057 219.659 25.4057C220.102 25.4057 220.461 25.0697 220.461 24.6548V22.6331H222.617C223.059 22.6331 223.418 22.2971 223.418 21.8822C223.418 21.4673 223.059 21.1313 222.617 21.1313Z" fill="#449CF4"/>
<path fill-rule="evenodd" clip-rule="evenodd" d="M343.811 124.566H341.723V122.607C341.723 122.205 341.375 121.879 340.946 121.879C340.518 121.879 340.17 122.205 340.17 122.607V124.566H338.081C337.651 124.566 337.304 124.891 337.304 125.293C337.304 125.695 337.651 126.021 338.081 126.021H340.17V127.98C340.17 128.382 340.518 128.708 340.946 128.708C341.375 128.708 341.723 128.382 341.723 127.98V126.021H343.811C344.24 126.021 344.588 125.695 344.588 125.293C344.588 124.891 344.24 124.566 343.811 124.566Z" fill="#449CF4"/>
<path fill-rule="evenodd" clip-rule="evenodd" d="M352.188 59.924C352.188 60.4708 351.715 60.9141 351.132 60.9141C350.548 60.9141 350.075 60.4708 350.075 59.924C350.075 59.3773 350.548 58.934 351.132 58.934C351.715 58.934 352.188 59.3773 352.188 59.924Z" fill="#449CF4"/>
<path fill-rule="evenodd" clip-rule="evenodd" d="M181.226 4.91613C181.226 5.55669 180.673 6.07603 179.989 6.07603C179.306 6.07603 178.752 5.55669 178.752 4.91613C178.752 4.27557 179.306 3.75623 179.989 3.75623C180.673 3.75623 181.226 4.27557 181.226 4.91613Z" fill="#449CF4"/>
<path fill-rule="evenodd" clip-rule="evenodd" d="M315.903 103.586C315.903 104.226 315.349 104.746 314.666 104.746C313.983 104.746 313.428 104.226 313.428 103.586C313.428 102.945 313.983 102.426 314.666 102.426C315.349 102.426 315.903 102.945 315.903 103.586Z" fill="#449CF4"/>
</g>
<path d="M154.645 79.2354L175.576 84.4651L192.069 73.6207L211.325 74.4826L225.219 50.992L248.344 64.9727L266.635 60.6555L288.041 68.9913L302.059 47.66L317.191 29.4129L337.366 31.9887L353.766 21.295" stroke="#FDCC5E" stroke-width="0.501163" stroke-linecap="round" stroke-linejoin="round"/>
<circle cx="155.04" cy="79.2709" r="1.25291" transform="rotate(-13.2803 155.04 79.2709)" fill="#FDCC5E"/>
<circle cx="175.82" cy="84.4075" r="1.25291" transform="rotate(-13.2803 175.82 84.4075)" fill="#FDCC5E"/>
<circle cx="192.557" cy="73.5056" r="1.25291" transform="rotate(-13.2803 192.557 73.5056)" fill="#FDCC5E"/>
<circle cx="211.325" cy="74.4825" r="1.25291" transform="rotate(-13.2803 211.325 74.4825)" fill="#FDCC5E"/>
<circle cx="225.184" cy="51.3865" r="1.25291" transform="rotate(-13.2803 225.184 51.3865)" fill="#FDCC5E"/>
<circle cx="248.466" cy="64.9438" r="1.25291" transform="rotate(-13.2803 248.466 64.9438)" fill="#FDCC5E"/>
<circle cx="267.058" cy="60.8129" r="1.25291" transform="rotate(-13.2803 267.058 60.8129)" fill="#FDCC5E"/>
<circle cx="287.74" cy="68.8049" r="1.25291" transform="rotate(-13.2803 287.74 68.8049)" fill="#FDCC5E"/>
<circle cx="302.245" cy="47.3585" r="1.25291" transform="rotate(-13.2803 302.245 47.3585)" fill="#FDCC5E"/>
<circle cx="317.371" cy="29.6279" r="1.25291" transform="rotate(-13.2803 317.371 29.6279)" fill="#FDCC5E"/>
<circle cx="337.216" cy="31.8955" r="1.25291" transform="rotate(-13.2803 337.216 31.8955)" fill="#FDCC5E"/>
<circle cx="353.953" cy="20.9935" r="1.25291" transform="rotate(-13.2803 353.953 20.9935)" fill="#FDCC5E"/>
</g>
<defs>
<clipPath id="clip0">
<rect width="354" height="139" fill="white"/>
</clipPath>
</defs>
</svg>
