<svg width="106" height="24" viewBox="0 0 106 24" fill="none" xmlns="http://www.w3.org/2000/svg">
<path d="M4.26918 5.39V10.88H10.4492V14.24H4.26918V23H0.42918V2.09H11.3492V5.39H4.26918ZM23.8952 8.06V23H20.5052L20.4302 21.065C19.9902 21.755 19.4452 22.31 18.7952 22.73C18.1552 23.15 17.3352 23.36 16.3352 23.36C14.8552 23.36 13.7502 22.89 13.0202 21.95C12.2902 21.01 11.9252 19.67 11.9252 17.93V8.06H15.6752V17.6C15.6752 18.47 15.8302 19.155 16.1402 19.655C16.4602 20.145 16.9652 20.39 17.6552 20.39C18.1252 20.39 18.5452 20.275 18.9152 20.045C19.2952 19.805 19.5952 19.475 19.8152 19.055C20.0352 18.625 20.1452 18.14 20.1452 17.6V8.06H23.8952ZM34.2843 7.7C35.7743 7.7 36.8943 8.175 37.6443 9.125C38.4043 10.065 38.7843 11.4 38.7843 13.13V23H34.9443V13.46C34.9443 12.61 34.7643 11.935 34.4043 11.435C34.0443 10.925 33.5143 10.67 32.8143 10.67C32.3443 10.67 31.9043 10.79 31.4943 11.03C31.0943 11.27 30.7743 11.605 30.5343 12.035C30.2943 12.455 30.1743 12.93 30.1743 13.46V23H26.3343V8.06H29.8143L29.8893 10.025C30.9193 8.475 32.3843 7.7 34.2843 7.7ZM49.0421 7.7C50.5321 7.7 51.6521 8.175 52.4021 9.125C53.1621 10.065 53.5421 11.4 53.5421 13.13V23H49.7021V13.46C49.7021 12.61 49.5221 11.935 49.1621 11.435C48.8021 10.925 48.2721 10.67 47.5721 10.67C47.1021 10.67 46.6621 10.79 46.2521 11.03C45.8521 11.27 45.5321 11.605 45.2921 12.035C45.0521 12.455 44.9321 12.93 44.9321 13.46V23H41.0921V8.06H44.5721L44.6471 10.025C45.6771 8.475 47.1421 7.7 49.0421 7.7ZM61.9099 23.39C60.2999 23.39 58.9699 23.05 57.9199 22.37C56.8699 21.68 56.0999 20.76 55.6099 19.61C55.1299 18.46 54.8899 17.16 54.8899 15.71C54.8899 14.23 55.1599 12.885 55.6999 11.675C56.2499 10.455 57.0499 9.49 58.0999 8.78C59.1499 8.06 60.3999 7.7 61.8499 7.7C64.0099 7.7 65.5549 8.325 66.4849 9.575C67.4149 10.815 67.8799 12.67 67.8799 15.14C67.8799 15.62 67.8599 16.16 67.8199 16.76H58.8199C58.8799 17.97 59.2149 18.905 59.8249 19.565C60.4449 20.215 61.3499 20.54 62.5399 20.54C63.1599 20.54 63.8249 20.405 64.5349 20.135C65.2449 19.855 65.7699 19.52 66.1099 19.13L67.3099 21.98C65.8999 22.92 64.0999 23.39 61.9099 23.39ZM64.0699 14.42C64.0699 12.95 63.8849 11.94 63.5149 11.39C63.1549 10.83 62.6299 10.55 61.9399 10.55C60.9699 10.55 60.2149 10.91 59.6749 11.63C59.1449 12.35 58.8499 13.28 58.7899 14.42H64.0699ZM69.4665 0.199998H73.1265V23H69.4665V0.199998ZM75.5189 1.64H79.7189V5.63H75.5189V1.64ZM75.6689 8.06H79.5689V23H75.6689V8.06ZM86.1271 23.27C84.6971 23.27 83.5721 23.095 82.7521 22.745C81.9421 22.385 81.3671 22 81.0271 21.59L82.1371 18.74C83.4171 19.8 84.7771 20.33 86.2171 20.33C86.8671 20.33 87.3471 20.2 87.6571 19.94C87.9771 19.67 88.1371 19.34 88.1371 18.95C88.1371 18.53 87.8621 18.145 87.3121 17.795C86.7721 17.435 85.9671 17.02 84.8971 16.55C84.2071 16.25 83.6071 15.935 83.0971 15.605C82.5871 15.275 82.1421 14.83 81.7621 14.27C81.3921 13.7 81.2071 13.01 81.2071 12.2C81.2071 11.3 81.4271 10.515 81.8671 9.845C82.3171 9.175 82.9671 8.66 83.8171 8.3C84.6671 7.94 85.6871 7.76 86.8771 7.76C87.5871 7.76 88.2521 7.84 88.8721 8C89.5021 8.15 90.0371 8.34 90.4771 8.57C90.9171 8.79 91.2371 9 91.4371 9.2L90.4171 11.9C89.9571 11.55 89.4271 11.255 88.8271 11.015C88.2371 10.765 87.6271 10.64 86.9971 10.64C86.2471 10.64 85.7171 10.74 85.4071 10.94C85.1071 11.13 84.9571 11.45 84.9571 11.9C84.9571 12.35 85.1771 12.725 85.6171 13.025C86.0671 13.325 86.7571 13.66 87.6871 14.03C89.0271 14.56 90.0571 15.19 90.7771 15.92C91.4971 16.64 91.8571 17.52 91.8571 18.56C91.8571 19.43 91.6571 20.22 91.2571 20.93C90.8671 21.63 90.2421 22.195 89.3821 22.625C88.5321 23.055 87.4471 23.27 86.1271 23.27ZM101.273 7.7C102.743 7.7 103.853 8.175 104.603 9.125C105.363 10.065 105.743 11.4 105.743 13.13V23H101.903V13.52C101.903 12.68 101.703 12.005 101.303 11.495C100.903 10.985 100.353 10.73 99.6529 10.73C99.1829 10.73 98.7379 10.85 98.3179 11.09C97.9079 11.33 97.5779 11.665 97.3279 12.095C97.0779 12.515 96.9529 12.99 96.9529 13.52V23H93.2629V0.139999H96.8029V7.7L96.7279 9.95C97.7579 8.45 99.2729 7.7 101.273 7.7Z" fill="black"/>
</svg>
