<svg viewBox="0 0 63 10" fill="none" xmlns="http://www.w3.org/2000/svg">
<path d="M2 2.15V3.91H4.16C4.33333 3.91 4.47667 3.96667 4.59 4.08C4.71 4.18667 4.77 4.32667 4.77 4.5C4.77 4.64667 4.71 4.77667 4.59 4.89C4.47667 5.00333 4.33333 5.06 4.16 5.06H2V7.39C2 7.56333 1.93667 7.71 1.81 7.83C1.69 7.94333 1.54667 8 1.38 8C1.19333 8 1.04 7.94333 0.92 7.83C0.806667 7.71667 0.75 7.57 0.75 7.39V1.61C0.75 1.43667 0.806667 1.29333 0.92 1.18C1.04 1.06 1.18667 1 1.36 1H4.61C4.78333 1 4.92667 1.05667 5.04 1.17C5.16 1.27667 5.22 1.41667 5.22 1.59C5.22 1.73667 5.16 1.86667 5.04 1.98C4.92667 2.09333 4.78333 2.15 4.61 2.15H2ZM10.0888 2.65C10.2621 2.65 10.4054 2.71 10.5187 2.83C10.6321 2.94333 10.6888 3.08667 10.6888 3.26V5.8C10.6888 6.52 10.4888 7.08333 10.0888 7.49C9.69542 7.89667 9.13208 8.1 8.39875 8.1C7.66542 8.1 7.10208 7.89667 6.70875 7.49C6.31542 7.08333 6.11875 6.52 6.11875 5.8V3.26C6.11875 3.08667 6.17542 2.94333 6.28875 2.83C6.40208 2.71 6.54542 2.65 6.71875 2.65C6.89208 2.65 7.03542 2.71 7.14875 2.83C7.26208 2.94333 7.31875 3.08667 7.31875 3.26V5.8C7.31875 6.20667 7.40875 6.51 7.58875 6.71C7.76875 6.90333 8.03875 7 8.39875 7C8.76542 7 9.03875 6.90333 9.21875 6.71C9.39875 6.51 9.48875 6.20667 9.48875 5.8V3.26C9.48875 3.08667 9.54542 2.94333 9.65875 2.83C9.77208 2.71 9.91542 2.65 10.0888 2.65ZM14.8479 2.55C15.5279 2.55 15.9979 2.75333 16.2579 3.16C16.5179 3.56 16.6479 4.11667 16.6479 4.83V7.39C16.6479 7.56333 16.5912 7.71 16.4779 7.83C16.3646 7.94333 16.2212 8 16.0479 8C15.8746 8 15.7312 7.94333 15.6179 7.83C15.5046 7.71 15.4479 7.56333 15.4479 7.39V4.83C15.4479 4.46333 15.3712 4.17667 15.2179 3.97C15.0646 3.75667 14.8012 3.65 14.4279 3.65C14.0412 3.65 13.7379 3.76333 13.5179 3.99C13.2979 4.21 13.1879 4.49 13.1879 4.83V7.39C13.1879 7.56333 13.1312 7.71 13.0179 7.83C12.9046 7.94333 12.7612 8 12.5879 8C12.4146 8 12.2712 7.94333 12.1579 7.83C12.0446 7.71 11.9879 7.56333 11.9879 7.39V3.26C11.9879 3.08667 12.0446 2.94333 12.1579 2.83C12.2712 2.71 12.4146 2.65 12.5879 2.65C12.7612 2.65 12.9046 2.71 13.0179 2.83C13.1312 2.94333 13.1879 3.08667 13.1879 3.26V3.43C13.3679 3.19 13.6012 2.98333 13.8879 2.81C14.1812 2.63667 14.5012 2.55 14.8479 2.55ZM20.8049 2.55C21.4849 2.55 21.9549 2.75333 22.2149 3.16C22.4749 3.56 22.6049 4.11667 22.6049 4.83V7.39C22.6049 7.56333 22.5483 7.71 22.4349 7.83C22.3216 7.94333 22.1783 8 22.0049 8C21.8316 8 21.6883 7.94333 21.5749 7.83C21.4616 7.71 21.4049 7.56333 21.4049 7.39V4.83C21.4049 4.46333 21.3283 4.17667 21.1749 3.97C21.0216 3.75667 20.7583 3.65 20.3849 3.65C19.9983 3.65 19.6949 3.76333 19.4749 3.99C19.2549 4.21 19.1449 4.49 19.1449 4.83V7.39C19.1449 7.56333 19.0883 7.71 18.9749 7.83C18.8616 7.94333 18.7183 8 18.5449 8C18.3716 8 18.2283 7.94333 18.1149 7.83C18.0016 7.71 17.9449 7.56333 17.9449 7.39V3.26C17.9449 3.08667 18.0016 2.94333 18.1149 2.83C18.2283 2.71 18.3716 2.65 18.5449 2.65C18.7183 2.65 18.8616 2.71 18.9749 2.83C19.0883 2.94333 19.1449 3.08667 19.1449 3.26V3.43C19.3249 3.19 19.5583 2.98333 19.8449 2.81C20.1383 2.63667 20.4583 2.55 20.8049 2.55ZM28.702 5.2C28.6953 5.36 28.632 5.49 28.512 5.59C28.392 5.69 28.252 5.74 28.092 5.74H24.792C24.872 6.13333 25.0553 6.44333 25.342 6.67C25.6286 6.89 25.952 7 26.312 7C26.5853 7 26.7986 6.97667 26.952 6.93C27.1053 6.87667 27.2253 6.82333 27.312 6.77C27.4053 6.71 27.4686 6.67 27.502 6.65C27.622 6.59 27.7353 6.56 27.842 6.56C27.982 6.56 28.102 6.61 28.202 6.71C28.302 6.81 28.352 6.92667 28.352 7.06C28.352 7.24 28.2586 7.40333 28.072 7.55C27.8853 7.70333 27.6353 7.83333 27.322 7.94C27.0086 8.04667 26.692 8.1 26.372 8.1C25.812 8.1 25.322 7.98333 24.902 7.75C24.4886 7.51667 24.1686 7.19667 23.942 6.79C23.7153 6.37667 23.602 5.91333 23.602 5.4C23.602 4.82667 23.722 4.32333 23.962 3.89C24.202 3.45667 24.5186 3.12667 24.912 2.9C25.3053 2.66667 25.7253 2.55 26.172 2.55C26.612 2.55 27.0253 2.67 27.412 2.91C27.8053 3.15 28.1186 3.47333 28.352 3.88C28.5853 4.28667 28.702 4.72667 28.702 5.2ZM26.172 3.65C25.3986 3.65 24.942 4.01333 24.802 4.74H27.422V4.67C27.3953 4.39 27.2586 4.15 27.012 3.95C26.7653 3.75 26.4853 3.65 26.172 3.65ZM31.0027 7.39C31.0027 7.56333 30.9427 7.71 30.8227 7.83C30.7094 7.94333 30.5661 8 30.3927 8C30.2261 8 30.0861 7.94333 29.9727 7.83C29.8594 7.71 29.8027 7.56333 29.8027 7.39V1.21C29.8027 1.03667 29.8594 0.893333 29.9727 0.779999C30.0927 0.66 30.2394 0.6 30.4127 0.6C30.5794 0.6 30.7194 0.66 30.8327 0.779999C30.9461 0.893333 31.0027 1.03667 31.0027 1.21V7.39ZM33.528 7.39C33.528 7.56333 33.4714 7.71 33.358 7.83C33.2447 7.94333 33.1014 8 32.928 8C32.7547 8 32.6114 7.94333 32.498 7.83C32.3847 7.71 32.328 7.56333 32.328 7.39V3.26C32.328 3.08667 32.3847 2.94333 32.498 2.83C32.6114 2.71 32.7547 2.65 32.928 2.65C33.1014 2.65 33.2447 2.71 33.358 2.83C33.4714 2.94333 33.528 3.08667 33.528 3.26V7.39ZM32.918 2C32.6914 2 32.5314 1.96333 32.438 1.89C32.3447 1.81667 32.298 1.68667 32.298 1.5V1.31C32.298 1.12333 32.348 0.993333 32.448 0.92C32.548 0.846666 32.708 0.81 32.928 0.81C33.1614 0.81 33.3247 0.846666 33.418 0.92C33.5114 0.993333 33.558 1.12333 33.558 1.31V1.5C33.558 1.69333 33.508 1.82667 33.408 1.9C33.3147 1.96667 33.1514 2 32.918 2ZM34.4513 7.17C34.3913 7.09 34.3613 6.99 34.3613 6.87C34.3613 6.69667 34.448 6.55 34.6213 6.43C34.7147 6.37 34.8113 6.34 34.9113 6.34C35.0513 6.34 35.1847 6.40333 35.3113 6.53C35.5113 6.73667 35.718 6.89 35.9313 6.99C36.1513 7.09 36.4147 7.14 36.7213 7.14C37.2413 7.12 37.5013 6.92333 37.5013 6.55C37.5013 6.35667 37.4113 6.21 37.2313 6.11C37.058 6.01 36.7847 5.91 36.4113 5.81C36.0247 5.70333 35.708 5.59667 35.4613 5.49C35.2213 5.38333 35.0113 5.22333 34.8313 5.01C34.658 4.79 34.5713 4.49667 34.5713 4.13C34.5713 3.81 34.6613 3.53333 34.8413 3.3C35.028 3.06 35.268 2.87667 35.5613 2.75C35.8613 2.61667 36.178 2.55 36.5113 2.55C36.8513 2.55 37.1913 2.61333 37.5313 2.74C37.8713 2.86667 38.138 3.05333 38.3313 3.3C38.418 3.40667 38.4613 3.52667 38.4613 3.66C38.4613 3.81333 38.398 3.94 38.2713 4.04C38.178 4.11333 38.0713 4.15 37.9513 4.15C37.8047 4.15 37.6847 4.10333 37.5913 4.01C37.4713 3.86333 37.3147 3.74667 37.1213 3.66C36.9347 3.57333 36.7213 3.53 36.4813 3.53C35.9747 3.53 35.7213 3.71333 35.7213 4.08C35.7213 4.22667 35.768 4.34667 35.8613 4.44C35.9547 4.52667 36.0713 4.59667 36.2113 4.65C36.358 4.69667 36.5613 4.75667 36.8213 4.83C37.1813 4.93 37.4813 5.03333 37.7213 5.14C37.9613 5.24667 38.1647 5.41 38.3313 5.63C38.498 5.85 38.5813 6.14 38.5813 6.5C38.5813 6.82667 38.4847 7.11333 38.2913 7.36C38.098 7.6 37.848 7.78333 37.5413 7.91C37.2413 8.03667 36.9313 8.1 36.6113 8.1C36.1713 8.1 35.7613 8.02667 35.3813 7.88C35.0013 7.73333 34.6913 7.49667 34.4513 7.17ZM42.3955 2.55C43.0555 2.55 43.5122 2.75333 43.7655 3.16C44.0189 3.56 44.1455 4.11667 44.1455 4.83V7.39C44.1455 7.56333 44.0889 7.71 43.9755 7.83C43.8622 7.94333 43.7189 8 43.5455 8C43.3722 8 43.2289 7.94333 43.1155 7.83C43.0022 7.71 42.9455 7.56333 42.9455 7.39V4.83C42.9455 4.46333 42.8722 4.17667 42.7255 3.97C42.5855 3.75667 42.3355 3.65 41.9755 3.65C41.6022 3.65 41.3089 3.76333 41.0955 3.99C40.8889 4.21 40.7855 4.49 40.7855 4.83V7.39C40.7855 7.56333 40.7289 7.71 40.6155 7.83C40.5022 7.94333 40.3589 8 40.1855 8C40.0122 8 39.8689 7.94333 39.7555 7.83C39.6422 7.71 39.5855 7.56333 39.5855 7.39V1.21C39.5855 1.03667 39.6422 0.893333 39.7555 0.779999C39.8689 0.66 40.0122 0.6 40.1855 0.6C40.3589 0.6 40.5022 0.66 40.6155 0.779999C40.7289 0.893333 40.7855 1.03667 40.7855 1.21V3.42C40.9655 3.18 41.1922 2.97667 41.4655 2.81C41.7455 2.63667 42.0555 2.55 42.3955 2.55Z" fill="#4368E0"/>
<path d="M47.7186 3.5H48.3486L48.3396 4.04H48.3846C48.4686 3.944 48.5916 3.839 48.7536 3.725C49.0896 3.515 49.4376 3.41 49.7976 3.41C50.1816 3.41 50.4906 3.551 50.7246 3.833C50.9586 4.115 51.0756 4.526 51.0756 5.066C51.0756 5.288 51.0546 5.516 51.0126 5.75C50.8746 6.512 50.6046 7.094 50.2026 7.496C49.8066 7.892 49.3386 8.09 48.7986 8.09C48.5646 8.09 48.3396 8.045 48.1236 7.955C48.0276 7.919 47.9376 7.874 47.8536 7.82L47.5566 9.53L47.2326 9.8H46.6026L47.7186 3.5ZM48.7716 7.46C49.0836 7.46 49.3596 7.325 49.5996 7.055C49.8396 6.779 50.0106 6.344 50.1126 5.75C50.1546 5.534 50.1756 5.324 50.1756 5.12C50.1756 4.766 50.1066 4.505 49.9686 4.337C49.8366 4.169 49.6656 4.085 49.4556 4.085C49.2276 4.085 48.9876 4.175 48.7356 4.355C48.6156 4.445 48.5106 4.535 48.4206 4.625L47.9526 7.28C47.9946 7.304 48.0696 7.334 48.1776 7.37C48.3696 7.43 48.5676 7.46 48.7716 7.46ZM51.743 8L52.805 1.97L53.12 1.7H53.75L52.643 8H51.743ZM55.505 8.09C55.109 8.09 54.794 7.982 54.56 7.766C54.332 7.544 54.218 7.25 54.218 6.884C54.218 6.776 54.227 6.668 54.245 6.56L54.785 3.5H55.685L55.145 6.56C55.133 6.644 55.127 6.707 55.127 6.749C55.127 6.947 55.193 7.109 55.325 7.235C55.457 7.355 55.631 7.415 55.847 7.415C55.973 7.415 56.09 7.391 56.198 7.343C56.312 7.295 56.435 7.229 56.567 7.145C56.675 7.061 56.783 6.971 56.891 6.875L57.485 3.5H58.385L57.593 8H56.963V7.46H56.918C56.816 7.58 56.693 7.685 56.549 7.775C56.249 7.985 55.901 8.09 55.505 8.09ZM60.2282 8.09C59.7422 8.09 59.3432 8.009 59.0312 7.847C58.8632 7.769 58.7342 7.685 58.6442 7.595L59.0582 7.055H59.1482C59.2202 7.127 59.3132 7.196 59.4272 7.262C59.6672 7.394 59.9402 7.46 60.2462 7.46C60.9362 7.46 61.3172 7.25 61.3892 6.83C61.3952 6.806 61.3982 6.773 61.3982 6.731C61.3982 6.569 61.3232 6.443 61.1732 6.353C61.0232 6.257 60.7922 6.155 60.4802 6.047C60.2162 5.957 60.0002 5.87 59.8322 5.786C59.6642 5.702 59.5202 5.591 59.4002 5.453C59.2862 5.315 59.2292 5.141 59.2292 4.931C59.2292 4.883 59.2352 4.811 59.2472 4.715C59.3192 4.313 59.5172 3.995 59.8412 3.761C60.1652 3.527 60.6122 3.41 61.1822 3.41C61.6142 3.41 61.9862 3.494 62.2982 3.662C62.4542 3.734 62.5802 3.815 62.6762 3.905L62.2622 4.445H62.1722C62.1002 4.385 62.0102 4.319 61.9022 4.247C61.6622 4.109 61.4162 4.04 61.1642 4.04C60.8642 4.04 60.6302 4.094 60.4622 4.202C60.3002 4.31 60.2012 4.451 60.1652 4.625C60.1592 4.649 60.1562 4.682 60.1562 4.724C60.1562 4.886 60.2282 5.012 60.3722 5.102C60.5222 5.192 60.7532 5.294 61.0652 5.408C61.3412 5.51 61.5602 5.603 61.7222 5.687C61.8902 5.765 62.0312 5.876 62.1452 6.02C62.2652 6.158 62.3252 6.332 62.3252 6.542C62.3252 6.578 62.3192 6.644 62.3072 6.74C62.2292 7.166 62.0192 7.499 61.6772 7.739C61.3412 7.973 60.8582 8.09 60.2282 8.09Z" fill="#636A7B"/>
</svg>
