<svg width="167" height="32" viewBox="0 0 167 32" fill="none" xmlns="http://www.w3.org/2000/svg">
<g clip-path="url(#clip0)">
<path d="M36.7333 0H2.69745C2.11465 0 1.55572 0.231159 1.14362 0.642624C0.731517 1.05409 0.5 1.61215 0.5 2.19405V29.8104C0.5 30.3923 0.731517 30.9504 1.14362 31.3619C1.55572 31.7733 2.11465 32.0045 2.69745 32.0045H36.7333C37.3161 32.0045 37.875 31.7733 38.2871 31.3619C38.6992 30.9504 38.9307 30.3923 38.9307 29.8104V2.19405C38.9307 1.61215 38.6992 1.05409 38.2871 0.642624C37.875 0.231159 37.3161 0 36.7333 0ZM34.6527 2.1088C34.93 2.1088 35.201 2.19091 35.4316 2.34473C35.6622 2.49855 35.8419 2.71718 35.948 2.97298C36.0541 3.22877 36.0819 3.51025 36.0278 3.7818C35.9737 4.05335 35.8402 4.30278 35.6441 4.49856C35.448 4.69434 35.1982 4.82767 34.9262 4.88168C34.6542 4.9357 34.3723 4.90797 34.1161 4.80202C33.8599 4.69607 33.641 4.51664 33.4869 4.28643C33.3328 4.05622 33.2506 3.78556 33.2506 3.50869C33.2506 3.13742 33.3983 2.78135 33.6613 2.51882C33.9242 2.25629 34.2808 2.1088 34.6527 2.1088ZM29.6511 2.1088C29.9284 2.1088 30.1995 2.19091 30.43 2.34473C30.6606 2.49855 30.8403 2.71718 30.9464 2.97298C31.0526 3.22877 31.0803 3.51025 31.0262 3.7818C30.9721 4.05335 30.8386 4.30278 30.6425 4.49856C30.4464 4.69434 30.1966 4.82767 29.9246 4.88168C29.6527 4.9357 29.3707 4.90797 29.1146 4.80202C28.8584 4.69607 28.6394 4.51664 28.4853 4.28643C28.3313 4.05622 28.249 3.78556 28.249 3.50869C28.249 3.32486 28.2853 3.14282 28.3558 2.97298C28.4262 2.80314 28.5295 2.64881 28.6597 2.51882C28.7899 2.38883 28.9445 2.28572 29.1146 2.21536C29.2847 2.14501 29.467 2.1088 29.6511 2.1088ZM24.6495 2.1088C24.9268 2.1088 25.1979 2.19091 25.4285 2.34473C25.659 2.49855 25.8387 2.71718 25.9449 2.97298C26.051 3.22877 26.0787 3.51025 26.0246 3.7818C25.9705 4.05335 25.837 4.30278 25.6409 4.49856C25.4449 4.69434 25.195 4.82767 24.9231 4.88168C24.6511 4.9357 24.3692 4.90797 24.113 4.80202C23.8568 4.69607 23.6378 4.51664 23.4838 4.28643C23.3297 4.05622 23.2475 3.78556 23.2475 3.50869C23.2475 3.13742 23.3952 2.78135 23.6581 2.51882C23.9211 2.25629 24.2777 2.1088 24.6495 2.1088ZM36.1087 29.1643H3.30411V6.79753H36.1087V29.1509V29.1643Z" fill="#394C60"/>
<path d="M13.532 26.7863C13.7568 26.4121 14.0983 26.1218 14.504 25.9598C14.9098 25.7977 15.3576 25.7728 15.7789 25.8889C15.972 25.9559 16.1766 25.9833 16.3805 25.9696C16.5844 25.9559 16.7835 25.9014 16.9659 25.8093C17.1483 25.7172 17.3103 25.5894 17.4422 25.4335C17.5741 25.2776 17.6732 25.0968 17.7337 24.9018C17.8821 24.5087 17.8713 24.0732 17.7035 23.6879C17.5357 23.3025 17.2242 22.9976 16.8349 22.8379C16.453 22.6649 16.1398 22.3699 15.9445 21.9995C15.7492 21.629 15.683 21.2041 15.7564 20.7919C15.8228 20.3615 16.0389 19.9682 16.3668 19.6811C16.6947 19.3939 17.1134 19.2312 17.5494 19.2215C17.982 19.2144 18.3941 19.0359 18.695 18.7254C18.9958 18.415 19.1608 17.9978 19.1537 17.5659C19.1465 17.1339 18.9678 16.7225 18.6568 16.4221C18.3459 16.1217 17.9281 15.957 17.4955 15.9641C17.0576 15.9521 16.6368 15.792 16.302 15.5099C15.9673 15.2279 15.7384 14.8406 15.653 14.4116C15.6041 14.1522 15.6041 13.8859 15.653 13.6265C15.6988 13.3398 15.8124 13.0681 15.9843 12.8341C16.1562 12.6 16.3816 12.4102 16.6417 12.2804C17.0136 12.0816 17.2939 11.7467 17.4237 11.346C17.5536 10.9452 17.523 10.5099 17.3382 10.1312C17.27 9.93252 17.1631 9.7492 17.0238 9.59178C16.8845 9.43435 16.7155 9.30591 16.5264 9.2138C16.3373 9.12169 16.1319 9.06773 15.9218 9.05501C15.7118 9.04228 15.5014 9.07104 15.3025 9.13964C14.8963 9.30199 14.4455 9.31471 14.0308 9.17553C13.6743 9.01538 13.3649 8.76667 13.132 8.45315C12.9558 8.21848 12.831 7.94934 12.766 7.66328C12.701 7.37723 12.6971 7.08069 12.7546 6.79303H5.26793C8.74162 8.65506 12.049 12.3971 12.1299 17.364C12.2198 22.7482 9.36625 27.0959 5.16907 29.1598H13.6263C13.344 28.8332 13.1809 28.4206 13.1638 27.9895C13.1467 27.5584 13.2765 27.1342 13.532 26.7863Z" fill="#3C9BD6"/>
<path d="M24.1058 8.95119C24.4445 9.22916 24.6769 9.61526 24.7636 10.0444C24.8504 10.4735 24.7863 10.9194 24.5821 11.3068C24.4161 11.7111 24.1218 12.0499 23.7443 12.2712C23.3668 12.4925 22.9271 12.584 22.4925 12.5317C22.2902 12.4925 22.082 12.4947 21.8806 12.5382C21.6792 12.5817 21.4887 12.6655 21.3206 12.7847C21.1526 12.9038 21.0105 13.0557 20.903 13.2313C20.7954 13.4068 20.7247 13.6023 20.695 13.8059C20.6064 14.2147 20.6801 14.6419 20.9005 14.9975C21.121 15.3532 21.471 15.6096 21.8769 15.7128C22.2813 15.8247 22.6366 16.0682 22.8866 16.4048C23.1365 16.7413 23.2667 17.1515 23.2565 17.5704C23.2513 17.9949 23.1004 18.4048 22.8288 18.7315C22.5572 19.0582 22.1815 19.2819 21.7645 19.3651C21.3379 19.4383 20.9578 19.6777 20.7079 20.0307C20.458 20.3837 20.3588 20.8213 20.4321 21.2473C20.5054 21.6733 20.7452 22.0528 21.0988 22.3023C21.4523 22.5518 21.8906 22.6508 22.3173 22.5777C22.7516 22.5226 23.1918 22.6165 23.5658 22.844C23.9397 23.0714 24.2252 23.4189 24.3754 23.8295C24.4622 24.0788 24.5018 24.342 24.4923 24.6057C24.4929 24.8979 24.4235 25.186 24.2898 25.4459C24.1561 25.7059 23.962 25.9301 23.7238 26.0998C23.383 26.3533 23.1548 26.7296 23.0876 27.1486C23.0205 27.5676 23.1198 27.9962 23.3643 28.3432C23.5859 28.6881 23.8964 28.967 24.2631 29.1509H34.2662C31.0846 27.576 28.1277 24.6147 27.4042 20.4016C26.3797 14.4296 29.2017 9.22489 33.9427 6.79303H23.7463C23.5178 7.13022 23.4277 7.54215 23.4946 7.94376C23.5615 8.34538 23.7803 8.70601 24.1058 8.95119Z" fill="#E74F38"/>
<path d="M26.9863 29.4784H26.6942C26.7896 29.5064 26.891 29.5064 26.9863 29.4784Z" fill="#3C9BD6"/>
<path d="M46.4309 15.7622C46.4283 15.1537 46.5192 14.5485 46.7005 13.9675C46.8715 13.4174 47.1597 12.9108 47.5453 12.4824C47.9484 12.0376 48.4479 11.6908 49.0058 11.4683C49.6963 11.2101 50.4301 11.0867 51.1673 11.1049C51.8069 11.0906 52.4441 11.1877 53.0502 11.3921C53.5307 11.5552 53.9694 11.8217 54.3354 12.1728C54.5212 12.3576 54.629 12.6065 54.6365 12.8682C54.6556 13.1263 54.5927 13.3838 54.4567 13.6041C54.312 13.8243 54.0913 13.984 53.8366 14.0527C53.4887 14.128 53.1251 14.067 52.821 13.8822C52.5935 13.7625 52.3577 13.659 52.1155 13.5727C51.8113 13.4725 51.492 13.4254 51.1718 13.4336C50.861 13.4107 50.549 13.4585 50.2594 13.5736C49.9699 13.6886 49.7102 13.8678 49.5001 14.0976C49.1045 14.6096 48.9067 15.2467 48.9429 15.8923V17.4313C48.9067 18.077 49.1045 18.714 49.5001 19.2261C49.71 19.4562 49.9696 19.6355 50.2593 19.7506C50.5489 19.8656 50.861 19.9133 51.1718 19.8901C51.511 19.8944 51.8492 19.8552 52.1784 19.7734C52.4245 19.7152 52.6617 19.6247 52.8839 19.5042C53.1386 19.3551 53.4369 19.2981 53.7288 19.3427C53.9727 19.3809 54.1963 19.5012 54.3624 19.6837C54.52 19.8633 54.6175 20.0877 54.641 20.3253C54.6612 20.6013 54.5744 20.8744 54.3983 21.0881C54.0671 21.4988 53.614 21.7941 53.1041 21.9316C52.4777 22.1285 51.824 22.2254 51.1673 22.2188C50.4299 22.2354 49.6961 22.1105 49.0058 21.8508C48.4423 21.6335 47.9364 21.2896 47.5274 20.8458C47.1416 20.4175 46.8534 19.9108 46.6825 19.3607C46.5012 18.7797 46.4103 18.1744 46.4129 17.5659V15.7712L46.4309 15.7622Z" fill="#394C60"/>
<path d="M57.0316 8.4756C57.0345 8.34047 57.0679 8.20774 57.1294 8.08731C57.1909 7.96689 57.2788 7.86189 57.3866 7.78014C57.6468 7.56403 57.9788 7.45352 58.3168 7.47055C58.6456 7.45145 58.9686 7.56271 59.2156 7.78014C59.3174 7.86574 59.3998 7.97206 59.4571 8.092C59.5145 8.21194 59.5455 8.34272 59.5481 8.4756V21.2182C59.5455 21.351 59.5145 21.4818 59.4571 21.6018C59.3998 21.7217 59.3174 21.828 59.2156 21.9136C58.9686 22.1311 58.6456 22.2423 58.3168 22.2232C57.9788 22.2403 57.6468 22.1297 57.3866 21.9136C57.2788 21.8319 57.1909 21.7269 57.1294 21.6065C57.0679 21.486 57.0345 21.3533 57.0316 21.2182V8.4756Z" fill="#394C60"/>
<path d="M62.959 8.27369C62.9626 8.13932 62.9963 8.00747 63.0578 7.88788C63.1192 7.76828 63.2068 7.66399 63.314 7.58272C63.5742 7.3666 63.9062 7.25609 64.2442 7.27313C64.5729 7.25451 64.8957 7.36571 65.143 7.58272C65.2447 7.66744 65.327 7.77296 65.3844 7.89216C65.4417 8.01136 65.4728 8.14147 65.4755 8.27369V8.7807C65.4728 8.91292 65.4417 9.04303 65.3844 9.16223C65.327 9.28143 65.2447 9.38696 65.143 9.47167C64.895 9.68706 64.5723 9.79662 64.2442 9.77678C63.9068 9.79507 63.5748 9.68618 63.314 9.47167C63.2068 9.3904 63.1192 9.28611 63.0578 9.16652C62.9963 9.04692 62.9626 8.91507 62.959 8.7807V8.27369ZM62.959 12.1099C62.9619 11.9748 62.9953 11.8421 63.0568 11.7216C63.1183 11.6012 63.2062 11.4962 63.314 11.4145C63.5742 11.1983 63.9062 11.0878 64.2442 11.1049C64.5729 11.0858 64.896 11.197 65.143 11.4145C65.2448 11.5001 65.3271 11.6064 65.3845 11.7263C65.4418 11.8463 65.4729 11.977 65.4755 12.1099V21.2182C65.4729 21.351 65.4418 21.4818 65.3845 21.6018C65.3271 21.7217 65.2448 21.828 65.143 21.9136C64.896 22.1311 64.5729 22.2423 64.2442 22.2232C63.9062 22.2403 63.5742 22.1297 63.314 21.9136C63.2062 21.8319 63.1183 21.7269 63.0568 21.6065C62.9953 21.486 62.9619 21.3533 62.959 21.2182V12.1099Z" fill="#394C60"/>
<path d="M68.356 15.7622C68.3534 15.1537 68.4444 14.5485 68.6256 13.9675C68.7967 13.4174 69.0849 12.9108 69.4705 12.4824C69.8795 12.0385 70.3854 11.6946 70.9489 11.4773C71.6394 11.2191 72.3732 11.0957 73.1104 11.1139C73.75 11.0995 74.3872 11.1967 74.9933 11.401C75.4738 11.5641 75.9125 11.8307 76.2785 12.1817C76.4643 12.3665 76.5721 12.6154 76.5796 12.8772C76.5987 13.1353 76.5358 13.3928 76.3998 13.613C76.2551 13.8333 76.0344 13.9929 75.7797 14.0617C75.4318 14.137 75.0682 14.0759 74.7641 13.8912C74.5366 13.7715 74.3008 13.668 74.0586 13.5816C73.7544 13.4815 73.4351 13.4345 73.1149 13.4425C72.8041 13.4196 72.4921 13.4675 72.2025 13.5825C71.913 13.6976 71.6533 13.8768 71.4432 14.1066C71.0476 14.6186 70.8498 15.2557 70.886 15.9013V17.4403C70.8498 18.0859 71.0476 18.723 71.4432 19.235C71.6531 19.4651 71.9127 19.6445 72.2024 19.7596C72.492 19.8746 72.8041 19.9223 73.1149 19.8991C73.4541 19.9033 73.7924 19.8641 74.1215 19.7824C74.3675 19.7241 74.6048 19.6336 74.827 19.5132C75.0817 19.3641 75.38 19.307 75.6719 19.3517C75.9158 19.3899 76.1394 19.5102 76.3055 19.6927C76.4631 19.8723 76.5606 20.0966 76.5841 20.3343C76.6057 20.6075 76.5221 20.8787 76.3504 21.0926C76.022 21.4992 75.5741 21.7927 75.0697 21.9316C74.4433 22.1285 73.7896 22.2254 73.1329 22.2188C72.3957 22.2368 71.6619 22.1135 70.9714 21.8553C70.4078 21.6382 69.9019 21.2942 69.4929 20.8503C69.1072 20.4219 68.819 19.9153 68.6481 19.3651C68.4668 18.7842 68.3759 18.1789 68.3785 17.5704V15.7757L68.356 15.7622Z" fill="#394C60"/>
<path d="M79.114 8.4756C79.1169 8.34047 79.1503 8.20774 79.2118 8.08731C79.2733 7.96689 79.3612 7.86189 79.469 7.78014C79.7292 7.56403 80.0612 7.45352 80.3992 7.47055C80.728 7.45145 81.051 7.56271 81.298 7.78014C81.3998 7.86574 81.4822 7.97206 81.5395 8.092C81.5969 8.21194 81.6279 8.34272 81.6305 8.4756V15.1654H82.6147L85.7199 11.401C85.9455 11.2071 86.2357 11.1047 86.5332 11.1139C86.7003 11.1135 86.8657 11.1462 87.02 11.2101C87.1743 11.2741 87.3143 11.3679 87.432 11.4863C87.546 11.6035 87.6314 11.7456 87.6813 11.9012C87.7312 12.0569 87.7443 12.222 87.7196 12.3836C87.6911 12.6705 87.5584 12.937 87.3466 13.1329L84.5829 16.1705L87.9892 20.424C88.0748 20.5267 88.1348 20.648 88.1645 20.7782C88.1942 20.9084 88.1926 21.0438 88.16 21.1733C88.1205 21.3367 88.0489 21.4906 87.9494 21.6262C87.8499 21.7617 87.7244 21.8762 87.5803 21.963C87.3233 22.1562 87.0002 22.2401 86.6815 22.1963C86.5471 22.1847 86.4164 22.1466 86.2968 22.0842C86.1772 22.0219 86.0713 21.9364 85.985 21.8329L82.5742 17.364H81.6305V21.2137C81.6279 21.3466 81.5969 21.4773 81.5395 21.5973C81.4822 21.7172 81.3998 21.8235 81.298 21.9091C81.051 22.1266 80.728 22.2378 80.3992 22.2187C80.0612 22.2358 79.7292 22.1253 79.469 21.9091C79.3612 21.8274 79.2733 21.7224 79.2118 21.602C79.1503 21.4815 79.1169 21.3488 79.114 21.2137V8.4756Z" fill="#394C60"/>
<path d="M96.4466 11.3157V10.6741C96.4466 9.33405 96.7716 8.39332 97.4217 7.85191C98.0718 7.3105 99.0245 7.04129 100.28 7.04428C100.581 7.04321 100.882 7.07177 101.179 7.12953C101.444 7.18037 101.7 7.27114 101.938 7.39874C102.144 7.50871 102.323 7.66177 102.464 7.84742C102.591 8.01345 102.659 8.21717 102.657 8.42622C102.672 8.69809 102.583 8.96553 102.41 9.17552C102.315 9.27266 102.199 9.34788 102.072 9.39593C101.945 9.44398 101.809 9.4637 101.673 9.4537C101.453 9.45656 101.233 9.42785 101.021 9.36845C100.781 9.30586 100.533 9.27717 100.284 9.2832C99.9095 9.24481 99.5343 9.35252 99.2372 9.58382C99.0067 9.87409 98.8986 10.2427 98.9361 10.6113V11.3382H100.585C100.705 11.3381 100.824 11.3618 100.934 11.4081C101.044 11.4543 101.144 11.522 101.228 11.6074C101.321 11.6973 101.393 11.8057 101.441 11.9255C101.489 12.0453 101.512 12.1739 101.507 12.3028C101.514 12.4381 101.493 12.5733 101.445 12.7C101.397 12.8266 101.323 12.942 101.228 13.0387C101.144 13.124 101.044 13.1918 100.934 13.238C100.824 13.2842 100.705 13.308 100.585 13.3079H98.9316V21.2137C98.929 21.3465 98.898 21.4773 98.8406 21.5973C98.7833 21.7172 98.7009 21.8235 98.5991 21.9091C98.3617 22.1217 98.0503 22.2329 97.7318 22.2187C97.3892 22.2392 97.0517 22.1285 96.7881 21.9091C96.684 21.825 96.5994 21.7191 96.5405 21.599C96.4815 21.4789 96.4494 21.3474 96.4466 21.2137V13.2854H95.6961C95.5765 13.2855 95.458 13.2618 95.3476 13.2156C95.2373 13.1693 95.1373 13.1016 95.0535 13.0162C94.9586 12.9195 94.8848 12.8042 94.8369 12.6775C94.7889 12.5509 94.7678 12.4156 94.7749 12.2804C94.7699 12.1514 94.7921 12.0229 94.8401 11.9031C94.8881 11.7833 94.9608 11.6749 95.0535 11.5849C95.1373 11.4996 95.2373 11.4318 95.3476 11.3856C95.458 11.3394 95.5765 11.3156 95.6961 11.3157H96.4466Z" fill="#394C60"/>
<path d="M108.373 22.2187C107.668 22.2325 106.966 22.1122 106.306 21.8643C105.748 21.6547 105.244 21.323 104.831 20.8937C104.418 20.4644 104.107 19.9482 103.92 19.3831C103.715 18.7806 103.613 18.1482 103.619 17.5121V12.1279C103.622 11.9928 103.655 11.86 103.716 11.7396C103.778 11.6192 103.866 11.5142 103.974 11.4324C104.234 11.2163 104.566 11.1058 104.904 11.1228C105.233 11.1037 105.556 11.215 105.803 11.4324C105.904 11.518 105.987 11.6243 106.044 11.7443C106.101 11.8642 106.132 11.995 106.135 12.1279V17.6018C106.108 17.9199 106.152 18.24 106.263 18.5394C106.374 18.8387 106.55 19.1099 106.778 19.3337C107.225 19.7112 107.797 19.9095 108.382 19.8901C108.965 19.9111 109.534 19.7125 109.977 19.3337C110.202 19.1082 110.376 18.8365 110.485 18.5374C110.595 18.2384 110.637 17.9191 110.611 17.6018V12.1279C110.614 11.9942 110.646 11.8628 110.705 11.7427C110.764 11.6226 110.849 11.5168 110.952 11.4324C111.202 11.2187 111.523 11.108 111.851 11.1228C112.178 11.1136 112.498 11.2237 112.75 11.4324C112.859 11.5133 112.949 11.6178 113.012 11.7383C113.075 11.8588 113.11 11.992 113.114 12.1279V17.5121C113.119 18.1482 113.017 18.7806 112.813 19.3831C112.625 19.9444 112.315 20.457 111.905 20.8838C111.495 21.3106 110.994 21.6409 110.44 21.8508C109.781 22.1033 109.079 22.2281 108.373 22.2187Z" fill="#394C60"/>
<path d="M120.879 11.0824C121.581 11.0684 122.281 11.1762 122.946 11.401C123.501 11.589 124.009 11.8952 124.434 12.2984C124.838 12.6981 125.145 13.1845 125.333 13.7207C125.539 14.3119 125.641 14.9343 125.634 15.5603V21.2137C125.63 21.3496 125.595 21.4828 125.532 21.6032C125.469 21.7237 125.379 21.8283 125.27 21.9091C125.018 22.1179 124.698 22.2279 124.371 22.2187C124.043 22.2336 123.721 22.1228 123.472 21.9091C123.368 21.8248 123.284 21.7189 123.225 21.5989C123.166 21.4788 123.134 21.3474 123.131 21.2137V15.7218C123.157 15.4045 123.114 15.0853 123.005 14.7862C122.895 14.4871 122.722 14.2154 122.497 13.9899C122.054 13.6111 121.485 13.4125 120.902 13.4335C120.316 13.4142 119.745 13.6124 119.297 13.9899C119.069 14.2137 118.894 14.4849 118.782 14.7843C118.671 15.0836 118.628 15.4037 118.655 15.7218V21.2137C118.652 21.3466 118.621 21.4773 118.564 21.5973C118.506 21.7172 118.424 21.8235 118.322 21.9091C118.075 22.1266 117.752 22.2378 117.423 22.2187C117.085 22.2358 116.753 22.1253 116.493 21.9091C116.385 21.8274 116.298 21.7224 116.236 21.602C116.175 21.4816 116.141 21.3488 116.138 21.2137V15.8071C116.133 15.171 116.235 14.5385 116.439 13.9361C116.627 13.3711 116.938 12.8551 117.351 12.4258C117.764 11.9965 118.268 11.6647 118.826 11.4549C119.48 11.2026 120.177 11.0762 120.879 11.0824Z" fill="#394C60"/>
<path d="M133.381 11.0825C134.083 11.0684 134.783 11.1761 135.448 11.401C136.003 11.589 136.511 11.8952 136.935 12.2984C137.34 12.6979 137.647 13.1844 137.834 13.7207C138.041 14.3118 138.143 14.9343 138.135 15.5603V21.2137C138.131 21.3496 138.096 21.4828 138.033 21.6033C137.97 21.7237 137.881 21.8283 137.771 21.9092C137.518 22.1161 137.199 22.2259 136.872 22.2187C136.544 22.2336 136.223 22.1229 135.974 21.9092C135.87 21.825 135.785 21.7192 135.726 21.5991C135.667 21.479 135.635 21.3474 135.632 21.2137V15.7218C135.659 15.4045 135.616 15.0853 135.506 14.7862C135.397 14.4871 135.224 14.2154 134.999 13.9899C134.556 13.6111 133.986 13.4125 133.403 13.4336C132.818 13.4142 132.246 13.6124 131.799 13.9899C131.571 14.2137 131.395 14.4849 131.284 14.7843C131.173 15.0836 131.129 15.4037 131.156 15.7218V21.2137C131.154 21.3466 131.123 21.4774 131.065 21.5973C131.008 21.7172 130.926 21.8236 130.824 21.9092C130.577 22.1266 130.254 22.2379 129.925 22.2187C129.587 22.2358 129.255 22.1253 128.995 21.9092C128.887 21.8274 128.799 21.7224 128.738 21.602C128.676 21.4816 128.643 21.3488 128.64 21.2137V15.8071C128.635 15.171 128.736 14.5385 128.941 13.9361C129.128 13.3711 129.44 12.8551 129.853 12.4258C130.266 11.9965 130.769 11.6648 131.327 11.4549C131.982 11.2026 132.679 11.0762 133.381 11.0825Z" fill="#394C60"/>
<path d="M149.999 15.4436C150.05 15.9463 149.912 16.45 149.612 16.857C149.437 17.0076 149.232 17.121 149.011 17.1904C148.79 17.2598 148.558 17.2838 148.327 17.2608H143.254V17.8127C143.24 18.1159 143.29 18.4186 143.399 18.7019C143.508 18.9852 143.674 19.2431 143.887 19.4593C144.13 19.6774 144.414 19.8446 144.723 19.9509C145.032 20.0573 145.359 20.1007 145.685 20.0785C146.04 20.0804 146.394 20.0549 146.745 20.0022C147.006 19.9692 147.262 19.9013 147.505 19.8003L148.085 19.4997C148.241 19.409 148.416 19.3581 148.597 19.3516C148.72 19.3439 148.843 19.3628 148.957 19.4069C149.072 19.451 149.176 19.5194 149.262 19.6074C149.424 19.7912 149.515 20.0267 149.518 20.2714C149.505 20.528 149.398 20.7707 149.217 20.9534C148.985 21.2063 148.709 21.4159 148.404 21.5726C148.02 21.7699 147.614 21.9205 147.195 22.0213C146.709 22.1443 146.209 22.2046 145.707 22.2008C145.028 22.2094 144.354 22.0939 143.717 21.8598C143.15 21.6565 142.625 21.3524 142.166 20.9624C141.729 20.5883 141.375 20.1266 141.128 19.6074C140.886 19.0892 140.761 18.5237 140.764 17.9517V15.6769C140.765 15.077 140.884 14.4831 141.116 13.9295C141.347 13.3758 141.686 12.8733 142.112 12.4509C142.537 12.0311 143.039 11.6974 143.591 11.4683C144.187 11.2211 144.828 11.0974 145.474 11.1049C146.186 11.0855 146.894 11.2202 147.55 11.4997C148.067 11.7278 148.531 12.0617 148.911 12.4798C149.291 12.8979 149.579 13.3909 149.756 13.9271C149.918 14.4162 150 14.9283 149.999 15.4436ZM145.438 13.1778C145.154 13.1625 144.871 13.2078 144.607 13.3107C144.343 13.4137 144.103 13.5718 143.905 13.7745C143.51 14.2228 143.28 14.7928 143.254 15.3898H147.622V15.0802C147.633 14.8171 147.584 14.5548 147.478 14.3136C147.372 14.0725 147.212 13.8588 147.011 13.6893C146.565 13.3348 146.007 13.1532 145.438 13.1778Z" fill="#394C60"/>
<path d="M152.843 8.4756C152.846 8.34047 152.88 8.20774 152.941 8.08731C153.003 7.96689 153.091 7.86189 153.198 7.78014C153.459 7.56403 153.791 7.45352 154.129 7.47055C154.457 7.45145 154.78 7.56271 155.027 7.78014C155.129 7.86574 155.212 7.97206 155.269 8.092C155.326 8.21194 155.357 8.34272 155.36 8.4756V21.2182C155.357 21.351 155.326 21.4818 155.269 21.6018C155.212 21.7217 155.129 21.828 155.027 21.9136C154.78 22.1311 154.457 22.2423 154.129 22.2232C153.791 22.2403 153.459 22.1297 153.198 21.9136C153.091 21.8319 153.003 21.7269 152.941 21.6065C152.88 21.486 152.846 21.3533 152.843 21.2182V8.4756Z" fill="#394C60"/>
<path d="M158.24 20.6797C158.194 20.5793 158.165 20.4715 158.155 20.3612C158.14 20.2317 158.151 20.1007 158.187 19.9753C158.223 19.8454 158.28 19.7226 158.357 19.6119C158.44 19.4949 158.556 19.4057 158.69 19.3561C158.854 19.2777 159.033 19.2334 159.216 19.226C159.351 19.224 159.486 19.2499 159.611 19.3023C159.725 19.353 159.832 19.4178 159.93 19.4952L160.231 19.7196C160.817 20.0715 161.5 20.2286 162.181 20.1683C162.571 20.1866 162.956 20.0814 163.282 19.8676C163.409 19.7803 163.512 19.6643 163.585 19.5292C163.657 19.3941 163.697 19.2437 163.7 19.0905C163.703 18.9372 163.67 18.7854 163.603 18.6475C163.535 18.5096 163.436 18.3895 163.314 18.2972C163.016 18.0865 162.687 17.9231 162.339 17.8127C161.946 17.6781 161.525 17.542 161.076 17.4044C160.634 17.2721 160.209 17.0852 159.813 16.848C159.428 16.6215 159.096 16.3156 158.838 15.9506C158.559 15.5021 158.424 14.9792 158.452 14.452C158.436 13.9953 158.521 13.5407 158.702 13.121C158.883 12.7013 159.155 12.3268 159.499 12.0247C160.311 11.3605 161.344 11.0243 162.393 11.0824C162.868 11.0752 163.343 11.1219 163.808 11.2215C164.152 11.2952 164.487 11.4066 164.806 11.5536C165.034 11.6578 165.244 11.7988 165.426 11.9708C165.553 12.0903 165.658 12.2317 165.736 12.3881C165.839 12.6109 165.876 12.8583 165.844 13.1015C165.839 13.2219 165.807 13.3395 165.749 13.4453C165.691 13.5511 165.61 13.6423 165.511 13.7117C165.4 13.7963 165.272 13.8561 165.135 13.887C164.999 13.918 164.857 13.9194 164.72 13.8912C164.488 13.8311 164.264 13.7406 164.055 13.622C163.942 13.5651 163.76 13.4829 163.512 13.3752C163.151 13.2503 162.77 13.1955 162.388 13.2137C162.012 13.1869 161.64 13.3058 161.35 13.5457C161.236 13.6495 161.145 13.7765 161.084 13.9181C161.023 14.0596 160.992 14.2126 160.995 14.3668C160.993 14.4964 161.026 14.6242 161.092 14.7359C161.158 14.8476 161.253 14.9388 161.368 14.9994C161.666 15.1711 161.983 15.3081 162.312 15.4077L163.543 15.7936C163.979 15.9268 164.394 16.1217 164.774 16.3724C165.205 16.65 165.554 17.0368 165.785 17.4933C166.016 17.9498 166.122 18.4596 166.091 18.9703C166.11 19.4196 166.026 19.8673 165.844 20.2788C165.663 20.6903 165.389 21.0547 165.044 21.3438C164.226 21.9748 163.209 22.2931 162.177 22.2412C161.743 22.2419 161.31 22.2029 160.883 22.1245C160.488 22.0532 160.101 21.9419 159.728 21.7925C159.41 21.6639 159.108 21.4982 158.829 21.2989C158.592 21.1357 158.391 20.9248 158.24 20.6797Z" fill="#394C60"/>
</g>
<defs>
<clipPath id="clip0">
<rect width="165.6" height="32" fill="white" transform="translate(0.5)"/>
</clipPath>
</defs>
</svg>
