<svg width="125" height="32" viewBox="0 0 125 32" fill="none" xmlns="http://www.w3.org/2000/svg">
<g clip-path="url(#clip0)">
<g clip-path="url(#clip1)">
<rect x="0.5" width="32" height="32" rx="9" fill="#5E81F4"/>
<g filter="url(#filter0_d)">
<rect x="-8.5" y="-10" width="25" height="23" rx="6" fill="#6C8CF6"/>
</g>
<g filter="url(#filter1_d)">
<path d="M14.4002 10.79V15.366H20.0162C20.4669 15.366 20.8395 15.5133 21.1342 15.808C21.4462 16.0853 21.6022 16.4493 21.6022 16.9C21.6022 17.2813 21.4462 17.6193 21.1342 17.914C20.8395 18.2087 20.4669 18.356 20.0162 18.356H14.4002V24.414C14.4002 24.8647 14.2355 25.246 13.9062 25.558C13.5942 25.8527 13.2215 26 12.7882 26C12.3029 26 11.9042 25.8527 11.5922 25.558C11.2975 25.2633 11.1502 24.882 11.1502 24.414V9.386C11.1502 8.93533 11.2975 8.56267 11.5922 8.268C11.9042 7.956 12.2855 7.8 12.7362 7.8H21.1862C21.6369 7.8 22.0095 7.94733 22.3042 8.242C22.6162 8.51933 22.7722 8.88333 22.7722 9.334C22.7722 9.71533 22.6162 10.0533 22.3042 10.348C22.0095 10.6427 21.6369 10.79 21.1862 10.79H14.4002Z" fill="white"/>
</g>
<g filter="url(#filter2_d)">
<rect x="23.5" y="23" width="25" height="23" rx="6" fill="#6C8CF6"/>
</g>
</g>
<path d="M46.1 11.97V15.138H49.988C50.3 15.138 50.558 15.24 50.762 15.444C50.978 15.636 51.086 15.888 51.086 16.2C51.086 16.464 50.978 16.698 50.762 16.902C50.558 17.106 50.3 17.208 49.988 17.208H46.1V21.402C46.1 21.714 45.986 21.978 45.758 22.194C45.542 22.398 45.284 22.5 44.984 22.5C44.648 22.5 44.372 22.398 44.156 22.194C43.952 21.99 43.85 21.726 43.85 21.402V10.998C43.85 10.686 43.952 10.428 44.156 10.224C44.372 10.008 44.636 9.9 44.948 9.9H50.798C51.11 9.9 51.368 10.002 51.572 10.206C51.788 10.398 51.896 10.65 51.896 10.962C51.896 11.226 51.788 11.46 51.572 11.664C51.368 11.868 51.11 11.97 50.798 11.97H46.1ZM60.6598 12.87C60.9718 12.87 61.2298 12.978 61.4337 13.194C61.6378 13.398 61.7398 13.656 61.7398 13.968V18.54C61.7398 19.836 61.3798 20.85 60.6598 21.582C59.9518 22.314 58.9378 22.68 57.6178 22.68C56.2978 22.68 55.2838 22.314 54.5758 21.582C53.8678 20.85 53.5138 19.836 53.5138 18.54V13.968C53.5138 13.656 53.6158 13.398 53.8198 13.194C54.0238 12.978 54.2818 12.87 54.5938 12.87C54.9058 12.87 55.1638 12.978 55.3678 13.194C55.5718 13.398 55.6738 13.656 55.6738 13.968V18.54C55.6738 19.272 55.8358 19.818 56.1598 20.178C56.4838 20.526 56.9698 20.7 57.6178 20.7C58.2778 20.7 58.7698 20.526 59.0938 20.178C59.4178 19.818 59.5798 19.272 59.5798 18.54V13.968C59.5798 13.656 59.6818 13.398 59.8858 13.194C60.0898 12.978 60.3478 12.87 60.6598 12.87ZM69.2262 12.69C70.4502 12.69 71.2962 13.056 71.7642 13.788C72.2322 14.508 72.4662 15.51 72.4662 16.794V21.402C72.4662 21.714 72.3642 21.978 72.1602 22.194C71.9562 22.398 71.6982 22.5 71.3862 22.5C71.0742 22.5 70.8162 22.398 70.6122 22.194C70.4082 21.978 70.3062 21.714 70.3062 21.402V16.794C70.3062 16.134 70.1682 15.618 69.8922 15.246C69.6162 14.862 69.1422 14.67 68.4702 14.67C67.7742 14.67 67.2282 14.874 66.8322 15.282C66.4362 15.678 66.2382 16.182 66.2382 16.794V21.402C66.2382 21.714 66.1362 21.978 65.9322 22.194C65.7282 22.398 65.4702 22.5 65.1582 22.5C64.8462 22.5 64.5882 22.398 64.3842 22.194C64.1802 21.978 64.0782 21.714 64.0782 21.402V13.968C64.0782 13.656 64.1802 13.398 64.3842 13.194C64.5882 12.978 64.8462 12.87 65.1582 12.87C65.4702 12.87 65.7282 12.978 65.9322 13.194C66.1362 13.398 66.2382 13.656 66.2382 13.968V14.274C66.5622 13.842 66.9822 13.47 67.4982 13.158C68.0262 12.846 68.6022 12.69 69.2262 12.69ZM79.9489 12.69C81.1729 12.69 82.0189 13.056 82.4869 13.788C82.9549 14.508 83.1889 15.51 83.1889 16.794V21.402C83.1889 21.714 83.0869 21.978 82.8829 22.194C82.6789 22.398 82.4209 22.5 82.1089 22.5C81.7969 22.5 81.5389 22.398 81.3349 22.194C81.1309 21.978 81.0289 21.714 81.0289 21.402V16.794C81.0289 16.134 80.8909 15.618 80.6149 15.246C80.3389 14.862 79.8649 14.67 79.1929 14.67C78.4969 14.67 77.9509 14.874 77.5549 15.282C77.1589 15.678 76.9609 16.182 76.9609 16.794V21.402C76.9609 21.714 76.8589 21.978 76.6549 22.194C76.4509 22.398 76.1929 22.5 75.8809 22.5C75.5689 22.5 75.3109 22.398 75.1069 22.194C74.9029 21.978 74.8009 21.714 74.8009 21.402V13.968C74.8009 13.656 74.9029 13.398 75.1069 13.194C75.3109 12.978 75.5689 12.87 75.8809 12.87C76.1929 12.87 76.4509 12.978 76.6549 13.194C76.8589 13.398 76.9609 13.656 76.9609 13.968V14.274C77.2849 13.842 77.7049 13.47 78.2209 13.158C78.7489 12.846 79.3249 12.69 79.9489 12.69ZM94.1635 17.46C94.1515 17.748 94.0375 17.982 93.8215 18.162C93.6055 18.342 93.3535 18.432 93.0655 18.432H87.1255C87.2695 19.14 87.5995 19.698 88.1155 20.106C88.6315 20.502 89.2135 20.7 89.8615 20.7C90.3535 20.7 90.7375 20.658 91.0135 20.574C91.2895 20.478 91.5055 20.382 91.6615 20.286C91.8295 20.178 91.9435 20.106 92.0035 20.07C92.2195 19.962 92.4235 19.908 92.6155 19.908C92.8675 19.908 93.0835 19.998 93.2635 20.178C93.4435 20.358 93.5335 20.568 93.5335 20.808C93.5335 21.132 93.3655 21.426 93.0295 21.69C92.6935 21.966 92.2435 22.2 91.6795 22.392C91.1155 22.584 90.5455 22.68 89.9695 22.68C88.9615 22.68 88.0795 22.47 87.3235 22.05C86.5795 21.63 86.0035 21.054 85.5955 20.322C85.1875 19.578 84.9835 18.744 84.9835 17.82C84.9835 16.788 85.1995 15.882 85.6315 15.102C86.0635 14.322 86.6335 13.728 87.3415 13.32C88.0495 12.9 88.8055 12.69 89.6095 12.69C90.4015 12.69 91.1455 12.906 91.8415 13.338C92.5495 13.77 93.1135 14.352 93.5335 15.084C93.9535 15.816 94.1635 16.608 94.1635 17.46ZM89.6095 14.67C88.2175 14.67 87.3955 15.324 87.1435 16.632H91.8595V16.506C91.8115 16.002 91.5655 15.57 91.1215 15.21C90.6775 14.85 90.1735 14.67 89.6095 14.67ZM98.3049 21.402C98.3049 21.714 98.1969 21.978 97.9809 22.194C97.7769 22.398 97.5189 22.5 97.2069 22.5C96.9069 22.5 96.6549 22.398 96.4509 22.194C96.2469 21.978 96.1449 21.714 96.1449 21.402V10.278C96.1449 9.966 96.2469 9.708 96.4509 9.504C96.6669 9.288 96.9309 9.18 97.2429 9.18C97.5429 9.18 97.7949 9.288 97.9989 9.504C98.2029 9.708 98.3049 9.966 98.3049 10.278V21.402ZM102.85 21.402C102.85 21.714 102.748 21.978 102.544 22.194C102.34 22.398 102.082 22.5 101.77 22.5C101.458 22.5 101.2 22.398 100.996 22.194C100.792 21.978 100.69 21.714 100.69 21.402V13.968C100.69 13.656 100.792 13.398 100.996 13.194C101.2 12.978 101.458 12.87 101.77 12.87C102.082 12.87 102.34 12.978 102.544 13.194C102.748 13.398 102.85 13.656 102.85 13.968V21.402ZM101.752 11.7C101.344 11.7 101.056 11.634 100.888 11.502C100.72 11.37 100.636 11.136 100.636 10.8V10.458C100.636 10.122 100.726 9.888 100.906 9.756C101.086 9.624 101.374 9.558 101.77 9.558C102.19 9.558 102.484 9.624 102.652 9.756C102.82 9.888 102.904 10.122 102.904 10.458V10.8C102.904 11.148 102.814 11.388 102.634 11.52C102.466 11.64 102.172 11.7 101.752 11.7ZM104.512 21.006C104.404 20.862 104.35 20.682 104.35 20.466C104.35 20.154 104.506 19.89 104.818 19.674C104.986 19.566 105.16 19.512 105.34 19.512C105.592 19.512 105.832 19.626 106.06 19.854C106.42 20.226 106.792 20.502 107.176 20.682C107.572 20.862 108.046 20.952 108.598 20.952C109.534 20.916 110.002 20.562 110.002 19.89C110.002 19.542 109.84 19.278 109.516 19.098C109.204 18.918 108.712 18.738 108.04 18.558C107.344 18.366 106.774 18.174 106.33 17.982C105.898 17.79 105.52 17.502 105.196 17.118C104.884 16.722 104.728 16.194 104.728 15.534C104.728 14.958 104.89 14.46 105.214 14.04C105.55 13.608 105.982 13.278 106.51 13.05C107.05 12.81 107.62 12.69 108.22 12.69C108.832 12.69 109.444 12.804 110.056 13.032C110.668 13.26 111.148 13.596 111.496 14.04C111.652 14.232 111.73 14.448 111.73 14.688C111.73 14.964 111.616 15.192 111.388 15.372C111.22 15.504 111.028 15.57 110.812 15.57C110.548 15.57 110.332 15.486 110.164 15.318C109.948 15.054 109.666 14.844 109.318 14.688C108.982 14.532 108.598 14.454 108.166 14.454C107.254 14.454 106.798 14.784 106.798 15.444C106.798 15.708 106.882 15.924 107.05 16.092C107.218 16.248 107.428 16.374 107.68 16.47C107.944 16.554 108.31 16.662 108.778 16.794C109.426 16.974 109.966 17.16 110.398 17.352C110.83 17.544 111.196 17.838 111.496 18.234C111.796 18.63 111.946 19.152 111.946 19.8C111.946 20.388 111.772 20.904 111.424 21.348C111.076 21.78 110.626 22.11 110.074 22.338C109.534 22.566 108.976 22.68 108.4 22.68C107.608 22.68 106.87 22.548 106.186 22.284C105.502 22.02 104.944 21.594 104.512 21.006ZM118.812 12.69C120 12.69 120.822 13.056 121.278 13.788C121.734 14.508 121.962 15.51 121.962 16.794V21.402C121.962 21.714 121.86 21.978 121.656 22.194C121.452 22.398 121.194 22.5 120.882 22.5C120.57 22.5 120.312 22.398 120.108 22.194C119.904 21.978 119.802 21.714 119.802 21.402V16.794C119.802 16.134 119.67 15.618 119.406 15.246C119.154 14.862 118.704 14.67 118.056 14.67C117.384 14.67 116.856 14.874 116.472 15.282C116.1 15.678 115.914 16.182 115.914 16.794V21.402C115.914 21.714 115.812 21.978 115.608 22.194C115.404 22.398 115.146 22.5 114.834 22.5C114.522 22.5 114.264 22.398 114.06 22.194C113.856 21.978 113.754 21.714 113.754 21.402V10.278C113.754 9.966 113.856 9.708 114.06 9.504C114.264 9.288 114.522 9.18 114.834 9.18C115.146 9.18 115.404 9.288 115.608 9.504C115.812 9.708 115.914 9.966 115.914 10.278V14.256C116.238 13.824 116.646 13.458 117.138 13.158C117.642 12.846 118.2 12.69 118.812 12.69Z" fill="#4368E0"/>
</g>
<defs>
<filter id="filter0_d" x="-11.5" y="-14" width="31" height="29" filterUnits="userSpaceOnUse" color-interpolation-filters="sRGB">
<feFlood flood-opacity="0" result="BackgroundImageFix"/>
<feColorMatrix in="SourceAlpha" type="matrix" values="0 0 0 0 0 0 0 0 0 0 0 0 0 0 0 0 0 0 127 0"/>
<feOffset dy="-1"/>
<feGaussianBlur stdDeviation="1.5"/>
<feColorMatrix type="matrix" values="0 0 0 0 0.231373 0 0 0 0 0.396078 0 0 0 0 0.937255 0 0 0 0.3 0"/>
<feBlend mode="normal" in2="BackgroundImageFix" result="effect1_dropShadow"/>
<feBlend mode="normal" in="SourceGraphic" in2="effect1_dropShadow" result="shape"/>
</filter>
<filter id="filter1_d" x="8.15021" y="3.79999" width="17.622" height="24.2" filterUnits="userSpaceOnUse" color-interpolation-filters="sRGB">
<feFlood flood-opacity="0" result="BackgroundImageFix"/>
<feColorMatrix in="SourceAlpha" type="matrix" values="0 0 0 0 0 0 0 0 0 0 0 0 0 0 0 0 0 0 127 0"/>
<feOffset dy="-1"/>
<feGaussianBlur stdDeviation="1.5"/>
<feColorMatrix type="matrix" values="0 0 0 0 0.231373 0 0 0 0 0.396078 0 0 0 0 0.937255 0 0 0 0.3 0"/>
<feBlend mode="normal" in2="BackgroundImageFix" result="effect1_dropShadow"/>
<feBlend mode="normal" in="SourceGraphic" in2="effect1_dropShadow" result="shape"/>
</filter>
<filter id="filter2_d" x="20.5" y="19" width="31" height="29" filterUnits="userSpaceOnUse" color-interpolation-filters="sRGB">
<feFlood flood-opacity="0" result="BackgroundImageFix"/>
<feColorMatrix in="SourceAlpha" type="matrix" values="0 0 0 0 0 0 0 0 0 0 0 0 0 0 0 0 0 0 127 0"/>
<feOffset dy="-1"/>
<feGaussianBlur stdDeviation="1.5"/>
<feColorMatrix type="matrix" values="0 0 0 0 0.231373 0 0 0 0 0.396078 0 0 0 0 0.937255 0 0 0 0.3 0"/>
<feBlend mode="normal" in2="BackgroundImageFix" result="effect1_dropShadow"/>
<feBlend mode="normal" in="SourceGraphic" in2="effect1_dropShadow" result="shape"/>
</filter>
<clipPath id="clip0">
<rect width="124" height="32" fill="white" transform="translate(0.5)"/>
</clipPath>
<clipPath id="clip1">
<rect x="0.5" width="32" height="32" rx="9" fill="white"/>
</clipPath>
</defs>
</svg>
