<svg width="32" height="33" viewBox="0 0 32 33" fill="none" xmlns="http://www.w3.org/2000/svg">
<g clip-path="url(#clip0)">
<rect y="0.25" width="32" height="32" rx="9" fill="#5E81F4"/>
<g filter="url(#filter0_d)">
<rect x="-9" y="-9.75" width="25" height="23" rx="6" fill="#6C8CF6"/>
</g>
<g filter="url(#filter1_d)">
<path d="M13.9002 11.04V15.616H19.5162C19.9669 15.616 20.3395 15.7633 20.6342 16.058C20.9462 16.3353 21.1022 16.6993 21.1022 17.15C21.1022 17.5313 20.9462 17.8693 20.6342 18.164C20.3395 18.4587 19.9669 18.606 19.5162 18.606H13.9002V24.664C13.9002 25.1147 13.7355 25.496 13.4062 25.808C13.0942 26.1027 12.7215 26.25 12.2882 26.25C11.8029 26.25 11.4042 26.1027 11.0922 25.808C10.7975 25.5133 10.6502 25.132 10.6502 24.664V9.636C10.6502 9.18533 10.7975 8.81267 11.0922 8.518C11.4042 8.206 11.7855 8.05 12.2362 8.05H20.6862C21.1369 8.05 21.5095 8.19733 21.8042 8.492C22.1162 8.76933 22.2722 9.13333 22.2722 9.584C22.2722 9.96533 22.1162 10.3033 21.8042 10.598C21.5095 10.8927 21.1369 11.04 20.6862 11.04H13.9002Z" fill="white"/>
</g>
<g filter="url(#filter2_d)">
<rect x="23" y="23.25" width="25" height="23" rx="6" fill="#6C8CF6"/>
</g>
</g>
<defs>
<filter id="filter0_d" x="-12" y="-13.75" width="31" height="29" filterUnits="userSpaceOnUse" color-interpolation-filters="sRGB">
<feFlood flood-opacity="0" result="BackgroundImageFix"/>
<feColorMatrix in="SourceAlpha" type="matrix" values="0 0 0 0 0 0 0 0 0 0 0 0 0 0 0 0 0 0 127 0"/>
<feOffset dy="-1"/>
<feGaussianBlur stdDeviation="1.5"/>
<feColorMatrix type="matrix" values="0 0 0 0 0.231373 0 0 0 0 0.396078 0 0 0 0 0.937255 0 0 0 0.3 0"/>
<feBlend mode="normal" in2="BackgroundImageFix" result="effect1_dropShadow"/>
<feBlend mode="normal" in="SourceGraphic" in2="effect1_dropShadow" result="shape"/>
</filter>
<filter id="filter1_d" x="7.65015" y="4.05" width="17.622" height="24.2" filterUnits="userSpaceOnUse" color-interpolation-filters="sRGB">
<feFlood flood-opacity="0" result="BackgroundImageFix"/>
<feColorMatrix in="SourceAlpha" type="matrix" values="0 0 0 0 0 0 0 0 0 0 0 0 0 0 0 0 0 0 127 0"/>
<feOffset dy="-1"/>
<feGaussianBlur stdDeviation="1.5"/>
<feColorMatrix type="matrix" values="0 0 0 0 0.231373 0 0 0 0 0.396078 0 0 0 0 0.937255 0 0 0 0.3 0"/>
<feBlend mode="normal" in2="BackgroundImageFix" result="effect1_dropShadow"/>
<feBlend mode="normal" in="SourceGraphic" in2="effect1_dropShadow" result="shape"/>
</filter>
<filter id="filter2_d" x="20" y="19.25" width="31" height="29" filterUnits="userSpaceOnUse" color-interpolation-filters="sRGB">
<feFlood flood-opacity="0" result="BackgroundImageFix"/>
<feColorMatrix in="SourceAlpha" type="matrix" values="0 0 0 0 0 0 0 0 0 0 0 0 0 0 0 0 0 0 127 0"/>
<feOffset dy="-1"/>
<feGaussianBlur stdDeviation="1.5"/>
<feColorMatrix type="matrix" values="0 0 0 0 0.231373 0 0 0 0 0.396078 0 0 0 0 0.937255 0 0 0 0.3 0"/>
<feBlend mode="normal" in2="BackgroundImageFix" result="effect1_dropShadow"/>
<feBlend mode="normal" in="SourceGraphic" in2="effect1_dropShadow" result="shape"/>
</filter>
<clipPath id="clip0">
<rect y="0.25" width="32" height="32" rx="9" fill="white"/>
</clipPath>
</defs>
</svg>
