<svg width="32" height="28" viewBox="0 0 32 28" fill="none" xmlns="http://www.w3.org/2000/svg">
<g clip-path="url(#clip0)">
<rect width="32" height="26.9474" transform="translate(0 0.276314)" fill="white"/>
<path d="M30.07 0.276314H1.82367C1.34 0.276314 0.876145 0.46854 0.53414 0.810706C0.192136 1.15287 0 1.61695 0 2.10084V25.066C0 25.5499 0.192136 26.014 0.53414 26.3562C0.876145 26.6983 1.34 26.8906 1.82367 26.8906H30.07C30.5537 26.8906 31.0176 26.6983 31.3596 26.3562C31.7016 26.014 31.8937 25.5499 31.8937 25.066V2.10084C31.8937 1.61695 31.7016 1.15287 31.3596 0.810706C31.0176 0.46854 30.5537 0.276314 30.07 0.276314ZM28.3433 2.02995C28.5735 2.02995 28.7984 2.09823 28.9898 2.22614C29.1811 2.35406 29.3303 2.53587 29.4183 2.74858C29.5064 2.9613 29.5294 3.19536 29.4845 3.42118C29.4396 3.64699 29.3288 3.85442 29.1661 4.01722C29.0034 4.18003 28.796 4.2909 28.5703 4.33582C28.3446 4.38074 28.1107 4.35768 27.8981 4.26957C27.6854 4.18146 27.5037 4.03226 27.3759 3.84082C27.248 3.64938 27.1798 3.42431 27.1798 3.19407C27.1798 2.88533 27.3024 2.58923 27.5206 2.37091C27.7388 2.1526 28.0347 2.02995 28.3433 2.02995ZM24.1925 2.02995C24.4227 2.02995 24.6476 2.09823 24.839 2.22614C25.0303 2.35406 25.1795 2.53587 25.2675 2.74858C25.3556 2.9613 25.3786 3.19536 25.3337 3.42118C25.2888 3.64699 25.178 3.85442 25.0153 4.01722C24.8526 4.18003 24.6452 4.2909 24.4195 4.33582C24.1938 4.38074 23.9599 4.35768 23.7472 4.26957C23.5346 4.18146 23.3529 4.03226 23.225 3.84082C23.0972 3.64938 23.029 3.42431 23.029 3.19407C23.029 3.04119 23.059 2.88982 23.1175 2.74858C23.176 2.60734 23.2617 2.47901 23.3698 2.37091C23.4778 2.26282 23.6061 2.17707 23.7472 2.11856C23.8884 2.06006 24.0397 2.02995 24.1925 2.02995ZM20.0417 2.02995C20.2718 2.02995 20.4968 2.09823 20.6882 2.22614C20.8795 2.35406 21.0286 2.53587 21.1167 2.74858C21.2048 2.9613 21.2278 3.19536 21.1829 3.42118C21.138 3.64699 21.0272 3.85442 20.8645 4.01722C20.7018 4.18003 20.4944 4.2909 20.2687 4.33582C20.043 4.38074 19.8091 4.35768 19.5964 4.26957C19.3838 4.18146 19.2021 4.03226 19.0742 3.84082C18.9464 3.64938 18.8781 3.42431 18.8781 3.19407C18.8781 2.88533 19.0007 2.58923 19.2189 2.37091C19.4372 2.1526 19.7331 2.02995 20.0417 2.02995ZM29.5516 24.5288H2.32714V5.929H29.5516V24.5176V24.5288Z" fill="#394C60"/>
<path d="M10.8153 22.5512C11.0019 22.2401 11.2852 21.9987 11.622 21.8639C11.9587 21.7291 12.3303 21.7085 12.68 21.805C12.8402 21.8607 13.01 21.8835 13.1793 21.8721C13.3485 21.8607 13.5137 21.8154 13.6651 21.7388C13.8165 21.6622 13.9509 21.5559 14.0604 21.4263C14.1698 21.2966 14.2521 21.1463 14.3022 20.9842C14.4255 20.6572 14.4165 20.2951 14.2773 19.9747C14.138 19.6542 13.8794 19.4007 13.5564 19.2678C13.2395 19.124 12.9795 18.8787 12.8174 18.5706C12.6553 18.2625 12.6004 17.9092 12.6613 17.5664C12.7164 17.2085 12.8958 16.8815 13.1679 16.6427C13.44 16.4039 13.7875 16.2686 14.1493 16.2605C14.5084 16.2546 14.8504 16.1062 15.1 15.848C15.3497 15.5898 15.4867 15.243 15.4807 14.8837C15.4748 14.5245 15.3265 14.1824 15.0684 13.9326C14.8103 13.6828 14.4636 13.5458 14.1046 13.5517C13.7412 13.5418 13.392 13.4086 13.1141 13.1741C12.8363 12.9395 12.6464 12.6175 12.5755 12.2608C12.5349 12.045 12.5349 11.8236 12.5755 11.6078C12.6135 11.3694 12.7078 11.1435 12.8505 10.9489C12.9931 10.7542 13.1802 10.5964 13.396 10.4885C13.7046 10.3231 13.9373 10.0446 14.045 9.7114C14.1528 9.37817 14.1274 9.01611 13.9741 8.70124C13.9174 8.536 13.8287 8.38356 13.7131 8.25265C13.5975 8.12174 13.4572 8.01493 13.3003 7.93833C13.1434 7.86174 12.9729 7.81686 12.7986 7.80628C12.6243 7.7957 12.4497 7.81961 12.2846 7.87666C11.9475 8.01167 11.5734 8.02225 11.2292 7.90651C10.9334 7.77333 10.6766 7.56651 10.4833 7.30579C10.3371 7.11065 10.2336 6.88683 10.1796 6.64895C10.1256 6.41107 10.1224 6.16448 10.1701 5.92527H3.95692C6.83974 7.4737 9.58457 10.5855 9.6517 14.7158C9.72628 19.1932 7.35812 22.8087 3.87488 24.525H10.8936C10.6593 24.2534 10.5239 23.9103 10.5097 23.5518C10.4955 23.1933 10.6032 22.8406 10.8153 22.5512Z" fill="#3C9BD6"/>
<path d="M19.5904 7.71995C19.8715 7.9511 20.0644 8.27218 20.1364 8.62902C20.2084 8.98586 20.1552 9.35664 19.9857 9.6788C19.848 10.0151 19.6037 10.2968 19.2904 10.4808C18.9772 10.6648 18.6122 10.7409 18.2516 10.6974C18.0837 10.6648 17.9109 10.6667 17.7437 10.7028C17.5766 10.739 17.4185 10.8087 17.279 10.9078C17.1396 11.0069 17.0216 11.1332 16.9324 11.2792C16.8432 11.4251 16.7844 11.5877 16.7598 11.757C16.6863 12.097 16.7474 12.4522 16.9304 12.748C17.1133 13.0437 17.4038 13.2569 17.7407 13.3428C18.0762 13.4358 18.3712 13.6383 18.5786 13.9182C18.786 14.198 18.8941 14.5392 18.8856 14.8875C18.8813 15.2405 18.756 15.5814 18.5306 15.853C18.3053 16.1247 17.9935 16.3107 17.6474 16.3799C17.2933 16.4408 16.9779 16.6399 16.7705 16.9334C16.5632 17.227 16.4808 17.5909 16.5417 17.9452C16.6025 18.2994 16.8015 18.615 17.0949 18.8225C17.3883 19.0299 17.752 19.1123 18.1061 19.0514C18.4666 19.0057 18.8319 19.0838 19.1422 19.2729C19.4526 19.462 19.6895 19.751 19.8142 20.0924C19.8862 20.2997 19.9191 20.5186 19.9112 20.7379C19.9117 20.9809 19.8541 21.2205 19.7431 21.4366C19.6322 21.6528 19.4711 21.8392 19.2734 21.9804C18.9906 22.1912 18.8012 22.5041 18.7454 22.8525C18.6897 23.201 18.7721 23.5574 18.9751 23.846C19.159 24.1327 19.4166 24.3647 19.721 24.5176H28.0226C25.3822 23.2079 22.9282 20.7454 22.3278 17.2418C21.4775 12.2757 23.8196 7.94755 27.7541 5.92527H19.2921C19.1024 6.20567 19.0276 6.54822 19.0832 6.8822C19.1387 7.21617 19.3203 7.51606 19.5904 7.71995Z" fill="#E74F38"/>
<path d="M21.9809 24.7899H21.7385C21.8176 24.8133 21.9018 24.8133 21.9809 24.7899Z" fill="#3C9BD6"/>
</g>
<defs>
<clipPath id="clip0">
<rect width="32" height="26.9474" fill="white" transform="translate(0 0.276314)"/>
</clipPath>
</defs>
</svg>
