<svg  viewBox="0 0 85 11" fill="none" xmlns="http://www.w3.org/2000/svg">
<g clip-path="url(#clip0_1860_54092)">
<g clip-path="url(#clip1_1860_54092)">
<rect width="10" height="10" rx="2" fill="#5E81F4"/>
<g filter="url(#filter0_d_1860_54092)">
<rect x="-6" y="-6" width="10" height="8" rx="2" fill="#6C8CF6"/>
</g>
<g filter="url(#filter1_d_1860_54092)">
<path d="M4.35391 3.32V4.728H6.08191C6.22057 4.728 6.33524 4.77333 6.42591 4.864C6.52191 4.94933 6.56991 5.06133 6.56991 5.2C6.56991 5.31733 6.52191 5.42133 6.42591 5.512C6.33524 5.60267 6.22057 5.648 6.08191 5.648H4.35391V7.512C4.35391 7.65067 4.30324 7.768 4.20191 7.864C4.10591 7.95467 3.99124 8 3.85791 8C3.70857 8 3.58591 7.95467 3.48991 7.864C3.39924 7.77333 3.35391 7.656 3.35391 7.512V2.888C3.35391 2.74933 3.39924 2.63467 3.48991 2.544C3.58591 2.448 3.70324 2.4 3.84191 2.4H6.44191C6.58057 2.4 6.69524 2.44533 6.78591 2.536C6.88191 2.62133 6.92991 2.73333 6.92991 2.872C6.92991 2.98933 6.88191 3.09333 6.78591 3.184C6.69524 3.27467 6.58057 3.32 6.44191 3.32H4.35391Z" fill="white"/>
</g>
<g filter="url(#filter2_d_1860_54092)">
<rect x="5" y="8" width="12" height="11" rx="2" fill="#6C8CF6"/>
</g>
</g>
</g>
<path d="M15 3.15V4.91H17.16C17.3333 4.91 17.4767 4.96667 17.59 5.08C17.71 5.18667 17.77 5.32667 17.77 5.5C17.77 5.64667 17.71 5.77667 17.59 5.89C17.4767 6.00333 17.3333 6.06 17.16 6.06H15V8.39C15 8.56333 14.9367 8.71 14.81 8.83C14.69 8.94333 14.5467 9 14.38 9C14.1933 9 14.04 8.94333 13.92 8.83C13.8067 8.71667 13.75 8.57 13.75 8.39V2.61C13.75 2.43667 13.8067 2.29333 13.92 2.18C14.04 2.06 14.1867 2 14.36 2H17.61C17.7833 2 17.9267 2.05667 18.04 2.17C18.16 2.27667 18.22 2.41667 18.22 2.59C18.22 2.73667 18.16 2.86667 18.04 2.98C17.9267 3.09333 17.7833 3.15 17.61 3.15H15ZM23.0888 3.65C23.2621 3.65 23.4054 3.71 23.5187 3.83C23.6321 3.94333 23.6888 4.08667 23.6888 4.26V6.8C23.6888 7.52 23.4888 8.08333 23.0888 8.49C22.6954 8.89667 22.1321 9.1 21.3988 9.1C20.6654 9.1 20.1021 8.89667 19.7088 8.49C19.3154 8.08333 19.1188 7.52 19.1188 6.8V4.26C19.1188 4.08667 19.1754 3.94333 19.2888 3.83C19.4021 3.71 19.5454 3.65 19.7188 3.65C19.8921 3.65 20.0354 3.71 20.1488 3.83C20.2621 3.94333 20.3188 4.08667 20.3188 4.26V6.8C20.3188 7.20667 20.4088 7.51 20.5888 7.71C20.7688 7.90333 21.0388 8 21.3988 8C21.7654 8 22.0388 7.90333 22.2188 7.71C22.3988 7.51 22.4888 7.20667 22.4888 6.8V4.26C22.4888 4.08667 22.5454 3.94333 22.6588 3.83C22.7721 3.71 22.9154 3.65 23.0888 3.65ZM27.8479 3.55C28.5279 3.55 28.9979 3.75333 29.2579 4.16C29.5179 4.56 29.6479 5.11667 29.6479 5.83V8.39C29.6479 8.56333 29.5912 8.71 29.4779 8.83C29.3646 8.94333 29.2212 9 29.0479 9C28.8746 9 28.7312 8.94333 28.6179 8.83C28.5046 8.71 28.4479 8.56333 28.4479 8.39V5.83C28.4479 5.46333 28.3712 5.17667 28.2179 4.97C28.0646 4.75667 27.8012 4.65 27.4279 4.65C27.0412 4.65 26.7379 4.76333 26.5179 4.99C26.2979 5.21 26.1879 5.49 26.1879 5.83V8.39C26.1879 8.56333 26.1312 8.71 26.0179 8.83C25.9046 8.94333 25.7612 9 25.5879 9C25.4146 9 25.2712 8.94333 25.1579 8.83C25.0446 8.71 24.9879 8.56333 24.9879 8.39V4.26C24.9879 4.08667 25.0446 3.94333 25.1579 3.83C25.2712 3.71 25.4146 3.65 25.5879 3.65C25.7612 3.65 25.9046 3.71 26.0179 3.83C26.1312 3.94333 26.1879 4.08667 26.1879 4.26V4.43C26.3679 4.19 26.6012 3.98333 26.8879 3.81C27.1812 3.63667 27.5012 3.55 27.8479 3.55ZM33.8049 3.55C34.4849 3.55 34.9549 3.75333 35.2149 4.16C35.4749 4.56 35.6049 5.11667 35.6049 5.83V8.39C35.6049 8.56333 35.5483 8.71 35.4349 8.83C35.3216 8.94333 35.1783 9 35.0049 9C34.8316 9 34.6883 8.94333 34.5749 8.83C34.4616 8.71 34.4049 8.56333 34.4049 8.39V5.83C34.4049 5.46333 34.3283 5.17667 34.1749 4.97C34.0216 4.75667 33.7583 4.65 33.3849 4.65C32.9983 4.65 32.6949 4.76333 32.4749 4.99C32.2549 5.21 32.1449 5.49 32.1449 5.83V8.39C32.1449 8.56333 32.0883 8.71 31.9749 8.83C31.8616 8.94333 31.7183 9 31.5449 9C31.3716 9 31.2283 8.94333 31.1149 8.83C31.0016 8.71 30.9449 8.56333 30.9449 8.39V4.26C30.9449 4.08667 31.0016 3.94333 31.1149 3.83C31.2283 3.71 31.3716 3.65 31.5449 3.65C31.7183 3.65 31.8616 3.71 31.9749 3.83C32.0883 3.94333 32.1449 4.08667 32.1449 4.26V4.43C32.3249 4.19 32.5583 3.98333 32.8449 3.81C33.1383 3.63667 33.4583 3.55 33.8049 3.55ZM41.702 6.2C41.6953 6.36 41.632 6.49 41.512 6.59C41.392 6.69 41.252 6.74 41.092 6.74H37.792C37.872 7.13333 38.0553 7.44333 38.342 7.67C38.6286 7.89 38.952 8 39.312 8C39.5853 8 39.7986 7.97667 39.952 7.93C40.1053 7.87667 40.2253 7.82333 40.312 7.77C40.4053 7.71 40.4686 7.67 40.502 7.65C40.622 7.59 40.7353 7.56 40.842 7.56C40.982 7.56 41.102 7.61 41.202 7.71C41.302 7.81 41.352 7.92667 41.352 8.06C41.352 8.24 41.2586 8.40333 41.072 8.55C40.8853 8.70333 40.6353 8.83333 40.322 8.94C40.0086 9.04667 39.692 9.1 39.372 9.1C38.812 9.1 38.322 8.98333 37.902 8.75C37.4886 8.51667 37.1686 8.19667 36.942 7.79C36.7153 7.37667 36.602 6.91333 36.602 6.4C36.602 5.82667 36.722 5.32333 36.962 4.89C37.202 4.45667 37.5186 4.12667 37.912 3.9C38.3053 3.66667 38.7253 3.55 39.172 3.55C39.612 3.55 40.0253 3.67 40.412 3.91C40.8053 4.15 41.1186 4.47333 41.352 4.88C41.5853 5.28667 41.702 5.72667 41.702 6.2ZM39.172 4.65C38.3986 4.65 37.942 5.01333 37.802 5.74H40.422V5.67C40.3953 5.39 40.2586 5.15 40.012 4.95C39.7653 4.75 39.4853 4.65 39.172 4.65ZM44.0027 8.39C44.0027 8.56333 43.9427 8.71 43.8227 8.83C43.7094 8.94333 43.5661 9 43.3927 9C43.2261 9 43.0861 8.94333 42.9727 8.83C42.8594 8.71 42.8027 8.56333 42.8027 8.39V2.21C42.8027 2.03667 42.8594 1.89333 42.9727 1.78C43.0927 1.66 43.2394 1.6 43.4127 1.6C43.5794 1.6 43.7194 1.66 43.8327 1.78C43.9461 1.89333 44.0027 2.03667 44.0027 2.21V8.39ZM46.528 8.39C46.528 8.56333 46.4714 8.71 46.358 8.83C46.2447 8.94333 46.1014 9 45.928 9C45.7547 9 45.6114 8.94333 45.498 8.83C45.3847 8.71 45.328 8.56333 45.328 8.39V4.26C45.328 4.08667 45.3847 3.94333 45.498 3.83C45.6114 3.71 45.7547 3.65 45.928 3.65C46.1014 3.65 46.2447 3.71 46.358 3.83C46.4714 3.94333 46.528 4.08667 46.528 4.26V8.39ZM45.918 3C45.6914 3 45.5314 2.96333 45.438 2.89C45.3447 2.81667 45.298 2.68667 45.298 2.5V2.31C45.298 2.12333 45.348 1.99333 45.448 1.92C45.548 1.84667 45.708 1.81 45.928 1.81C46.1614 1.81 46.3247 1.84667 46.418 1.92C46.5114 1.99333 46.558 2.12333 46.558 2.31V2.5C46.558 2.69333 46.508 2.82667 46.408 2.9C46.3147 2.96667 46.1514 3 45.918 3ZM47.4513 8.17C47.3913 8.09 47.3613 7.99 47.3613 7.87C47.3613 7.69667 47.448 7.55 47.6213 7.43C47.7147 7.37 47.8113 7.34 47.9113 7.34C48.0513 7.34 48.1847 7.40333 48.3113 7.53C48.5113 7.73667 48.718 7.89 48.9313 7.99C49.1513 8.09 49.4147 8.14 49.7213 8.14C50.2413 8.12 50.5013 7.92333 50.5013 7.55C50.5013 7.35667 50.4113 7.21 50.2313 7.11C50.058 7.01 49.7847 6.91 49.4113 6.81C49.0247 6.70333 48.708 6.59667 48.4613 6.49C48.2213 6.38333 48.0113 6.22333 47.8313 6.01C47.658 5.79 47.5713 5.49667 47.5713 5.13C47.5713 4.81 47.6613 4.53333 47.8413 4.3C48.028 4.06 48.268 3.87667 48.5613 3.75C48.8613 3.61667 49.178 3.55 49.5113 3.55C49.8513 3.55 50.1913 3.61333 50.5313 3.74C50.8713 3.86667 51.138 4.05333 51.3313 4.3C51.418 4.40667 51.4613 4.52667 51.4613 4.66C51.4613 4.81333 51.398 4.94 51.2713 5.04C51.178 5.11333 51.0713 5.15 50.9513 5.15C50.8047 5.15 50.6847 5.10333 50.5913 5.01C50.4713 4.86333 50.3147 4.74667 50.1213 4.66C49.9347 4.57333 49.7213 4.53 49.4813 4.53C48.9747 4.53 48.7213 4.71333 48.7213 5.08C48.7213 5.22667 48.768 5.34667 48.8613 5.44C48.9547 5.52667 49.0713 5.59667 49.2113 5.65C49.358 5.69667 49.5613 5.75667 49.8213 5.83C50.1813 5.93 50.4813 6.03333 50.7213 6.14C50.9613 6.24667 51.1647 6.41 51.3313 6.63C51.498 6.85 51.5813 7.14 51.5813 7.5C51.5813 7.82667 51.4847 8.11333 51.2913 8.36C51.098 8.6 50.848 8.78333 50.5413 8.91C50.2413 9.03667 49.9313 9.1 49.6113 9.1C49.1713 9.1 48.7613 9.02667 48.3813 8.88C48.0013 8.73333 47.6913 8.49667 47.4513 8.17ZM55.3955 3.55C56.0555 3.55 56.5122 3.75333 56.7655 4.16C57.0189 4.56 57.1455 5.11667 57.1455 5.83V8.39C57.1455 8.56333 57.0889 8.71 56.9755 8.83C56.8622 8.94333 56.7189 9 56.5455 9C56.3722 9 56.2289 8.94333 56.1155 8.83C56.0022 8.71 55.9455 8.56333 55.9455 8.39V5.83C55.9455 5.46333 55.8722 5.17667 55.7255 4.97C55.5855 4.75667 55.3355 4.65 54.9755 4.65C54.6022 4.65 54.3089 4.76333 54.0955 4.99C53.8889 5.21 53.7855 5.49 53.7855 5.83V8.39C53.7855 8.56333 53.7289 8.71 53.6155 8.83C53.5022 8.94333 53.3589 9 53.1855 9C53.0122 9 52.8689 8.94333 52.7555 8.83C52.6422 8.71 52.5855 8.56333 52.5855 8.39V2.21C52.5855 2.03667 52.6422 1.89333 52.7555 1.78C52.8689 1.66 53.0122 1.6 53.1855 1.6C53.3589 1.6 53.5022 1.66 53.6155 1.78C53.7289 1.89333 53.7855 2.03667 53.7855 2.21V4.42C53.9655 4.18 54.1922 3.97667 54.4655 3.81C54.7455 3.63667 55.0555 3.55 55.3955 3.55Z" fill="#4368E0"/>
<path d="M60.7186 4.5H61.3486L61.3396 5.04H61.3846C61.4686 4.944 61.5916 4.839 61.7536 4.725C62.0896 4.515 62.4376 4.41 62.7976 4.41C63.1816 4.41 63.4906 4.551 63.7246 4.833C63.9586 5.115 64.0756 5.526 64.0756 6.066C64.0756 6.288 64.0546 6.516 64.0126 6.75C63.8746 7.512 63.6046 8.094 63.2026 8.496C62.8066 8.892 62.3386 9.09 61.7986 9.09C61.5646 9.09 61.3396 9.045 61.1236 8.955C61.0276 8.919 60.9376 8.874 60.8536 8.82L60.5566 10.53L60.2326 10.8H59.6026L60.7186 4.5ZM61.7716 8.46C62.0836 8.46 62.3596 8.325 62.5996 8.055C62.8396 7.779 63.0106 7.344 63.1126 6.75C63.1546 6.534 63.1756 6.324 63.1756 6.12C63.1756 5.766 63.1066 5.505 62.9686 5.337C62.8366 5.169 62.6656 5.085 62.4556 5.085C62.2276 5.085 61.9876 5.175 61.7356 5.355C61.6156 5.445 61.5106 5.535 61.4206 5.625L60.9526 8.28C60.9946 8.304 61.0696 8.334 61.1776 8.37C61.3696 8.43 61.5676 8.46 61.7716 8.46ZM64.743 9L65.805 2.97L66.12 2.7H66.75L65.643 9H64.743ZM68.505 9.09C68.109 9.09 67.794 8.982 67.56 8.766C67.332 8.544 67.218 8.25 67.218 7.884C67.218 7.776 67.227 7.668 67.245 7.56L67.785 4.5H68.685L68.145 7.56C68.133 7.644 68.127 7.707 68.127 7.749C68.127 7.947 68.193 8.109 68.325 8.235C68.457 8.355 68.631 8.415 68.847 8.415C68.973 8.415 69.09 8.391 69.198 8.343C69.312 8.295 69.435 8.229 69.567 8.145C69.675 8.061 69.783 7.971 69.891 7.875L70.485 4.5H71.385L70.593 9H69.963V8.46H69.918C69.816 8.58 69.693 8.685 69.549 8.775C69.249 8.985 68.901 9.09 68.505 9.09ZM73.2282 9.09C72.7422 9.09 72.3432 9.009 72.0312 8.847C71.8632 8.769 71.7342 8.685 71.6442 8.595L72.0582 8.055H72.1482C72.2202 8.127 72.3132 8.196 72.4272 8.262C72.6672 8.394 72.9402 8.46 73.2462 8.46C73.9362 8.46 74.3172 8.25 74.3892 7.83C74.3952 7.806 74.3982 7.773 74.3982 7.731C74.3982 7.569 74.3232 7.443 74.1732 7.353C74.0232 7.257 73.7922 7.155 73.4802 7.047C73.2162 6.957 73.0002 6.87 72.8322 6.786C72.6642 6.702 72.5202 6.591 72.4002 6.453C72.2862 6.315 72.2292 6.141 72.2292 5.931C72.2292 5.883 72.2352 5.811 72.2472 5.715C72.3192 5.313 72.5172 4.995 72.8412 4.761C73.1652 4.527 73.6122 4.41 74.1822 4.41C74.6142 4.41 74.9862 4.494 75.2982 4.662C75.4542 4.734 75.5802 4.815 75.6762 4.905L75.2622 5.445H75.1722C75.1002 5.385 75.0102 5.319 74.9022 5.247C74.6622 5.109 74.4162 5.04 74.1642 5.04C73.8642 5.04 73.6302 5.094 73.4622 5.202C73.3002 5.31 73.2012 5.451 73.1652 5.625C73.1592 5.649 73.1562 5.682 73.1562 5.724C73.1562 5.886 73.2282 6.012 73.3722 6.102C73.5222 6.192 73.7532 6.294 74.0652 6.408C74.3412 6.51 74.5602 6.603 74.7222 6.687C74.8902 6.765 75.0312 6.876 75.1452 7.02C75.2652 7.158 75.3252 7.332 75.3252 7.542C75.3252 7.578 75.3192 7.644 75.3072 7.74C75.2292 8.166 75.0192 8.499 74.6772 8.739C74.3412 8.973 73.8582 9.09 73.2282 9.09Z" fill="#636A7B"/>
<defs>
<filter id="filter0_d_1860_54092" x="-7.83347" y="-8.44462" width="13.6669" height="11.6669" filterUnits="userSpaceOnUse" color-interpolation-filters="sRGB">
<feFlood flood-opacity="0" result="BackgroundImageFix"/>
<feColorMatrix in="SourceAlpha" type="matrix" values="0 0 0 0 0 0 0 0 0 0 0 0 0 0 0 0 0 0 127 0" result="hardAlpha"/>
<feOffset dy="-0.611155"/>
<feGaussianBlur stdDeviation="0.916733"/>
<feColorMatrix type="matrix" values="0 0 0 0 0.231373 0 0 0 0 0.396078 0 0 0 0 0.937255 0 0 0 0.3 0"/>
<feBlend mode="normal" in2="BackgroundImageFix" result="effect1_dropShadow_1860_54092"/>
<feBlend mode="normal" in="SourceGraphic" in2="effect1_dropShadow_1860_54092" result="shape"/>
</filter>
<filter id="filter1_d_1860_54092" x="1.52042" y="-0.0445957" width="7.24298" height="9.26691" filterUnits="userSpaceOnUse" color-interpolation-filters="sRGB">
<feFlood flood-opacity="0" result="BackgroundImageFix"/>
<feColorMatrix in="SourceAlpha" type="matrix" values="0 0 0 0 0 0 0 0 0 0 0 0 0 0 0 0 0 0 127 0" result="hardAlpha"/>
<feOffset dy="-0.611155"/>
<feGaussianBlur stdDeviation="0.916733"/>
<feColorMatrix type="matrix" values="0 0 0 0 0.231373 0 0 0 0 0.396078 0 0 0 0 0.937255 0 0 0 0.3 0"/>
<feBlend mode="normal" in2="BackgroundImageFix" result="effect1_dropShadow_1860_54092"/>
<feBlend mode="normal" in="SourceGraphic" in2="effect1_dropShadow_1860_54092" result="shape"/>
</filter>
<filter id="filter2_d_1860_54092" x="3.16653" y="5.55538" width="15.6669" height="14.6669" filterUnits="userSpaceOnUse" color-interpolation-filters="sRGB">
<feFlood flood-opacity="0" result="BackgroundImageFix"/>
<feColorMatrix in="SourceAlpha" type="matrix" values="0 0 0 0 0 0 0 0 0 0 0 0 0 0 0 0 0 0 127 0" result="hardAlpha"/>
<feOffset dy="-0.611155"/>
<feGaussianBlur stdDeviation="0.916733"/>
<feColorMatrix type="matrix" values="0 0 0 0 0.231373 0 0 0 0 0.396078 0 0 0 0 0.937255 0 0 0 0.3 0"/>
<feBlend mode="normal" in2="BackgroundImageFix" result="effect1_dropShadow_1860_54092"/>
<feBlend mode="normal" in="SourceGraphic" in2="effect1_dropShadow_1860_54092" result="shape"/>
</filter>
<clipPath id="clip0_1860_54092">
<rect width="10" height="10" fill="white"/>
</clipPath>
<clipPath id="clip1_1860_54092">
<rect width="10" height="10" rx="2" fill="white"/>
</clipPath>
</defs>
</svg>
