<svg width="21" height="20" viewBox="0 0 21 20" fill="none" xmlns="http://www.w3.org/2000/svg">
<path d="M20.0573 10.2221C20.0573 9.39994 19.989 8.79994 19.8412 8.17773H10.2334V11.8888H15.873C15.7593 12.811 15.1453 14.1999 13.7809 15.1332L13.7618 15.2574L16.7996 17.5571L17.01 17.5776C18.943 15.8332 20.0573 13.2665 20.0573 10.2221Z" fill="#4285F4"/>
<path d="M10.2335 20.0006C12.9964 20.0006 15.3159 19.1117 17.0101 17.5785L13.781 15.134C12.9169 15.7229 11.7571 16.134 10.2335 16.134C7.52739 16.134 5.23062 14.3896 4.41189 11.9785L4.29188 11.9885L1.13311 14.3773L1.0918 14.4896C2.77457 17.7562 6.23113 20.0006 10.2335 20.0006Z" fill="#34A853"/>
<path d="M4.41161 11.9782C4.19558 11.356 4.07055 10.6893 4.07055 10.0004C4.07055 9.31149 4.19558 8.64486 4.40024 8.02265L4.39452 7.89013L1.19616 5.46289L1.09152 5.51153C0.397962 6.86709 0 8.38932 0 10.0004C0 11.6115 0.397962 13.1337 1.09152 14.4892L4.41161 11.9782Z" fill="#FBBC05"/>
<path d="M10.2335 3.8666C12.155 3.8666 13.4512 4.6777 14.1903 5.35551L17.0783 2.59997C15.3046 0.988882 12.9964 0 10.2335 0C6.23113 0 2.77457 2.2444 1.0918 5.51101L4.40052 8.02213C5.23062 5.61105 7.52739 3.8666 10.2335 3.8666Z" fill="#EB4335"/>
</svg>
