<?xml version="1.0"?>
<svg xmlns="http://www.w3.org/2000/svg" id="bold" enable-background="new 0 0 24 24" height="512px" viewBox="0 0 24 24" width="512px"><g><path d="m23.713 14.91-3.5-2.75c-.226-.177-.534-.21-.791-.084-.258.125-.422.387-.422.674v1.84c-2.833.478-5 2.942-5 5.91v2.5c0 .552.448 1 1 1s1-.448 1-1v-2.5c0-1.858 1.28-3.411 3-3.858v1.608c0 .287.164.549.422.674.104.051.216.076.328.076.165 0 .329-.054.463-.16l3.5-2.75c.182-.142.287-.36.287-.59s-.105-.448-.287-.59z" fill="#4368E0"/></g><g><path d="m18 0h-15c-1.65 0-3 1.35-3 3v13c0 1.65 1.35 3 3 3h9.15c.13-.7.35-1.37.66-2h-9.81c-.55 0-1-.45-1-1v-11h17v5.11c.66-.19 1.38-.12 2 .19v-7.3c0-1.65-1.35-3-3-3z" fill="#4368E0"/></g></svg>
