<svg viewBox="0 0 20 20" fill="none" xmlns="http://www.w3.org/2000/svg">
<path fill-rule="evenodd" clip-rule="evenodd" d="M9.99999 19.1667C4.93738 19.1667 0.833328 15.0626 0.833328 10C0.833328 4.93739 4.93738 0.833334 9.99999 0.833334C15.0626 0.833334 19.1667 4.93739 19.1667 10C19.1667 15.0626 15.0626 19.1667 9.99999 19.1667ZM9.99999 17.5C14.1421 17.5 17.5 14.1421 17.5 10C17.5 5.85786 14.1421 2.5 9.99999 2.5C5.85786 2.5 2.49999 5.85786 2.49999 10C2.49999 14.1421 5.85786 17.5 9.99999 17.5ZM10.0003 14.1653C9.53988 14.1653 9.16666 13.7922 9.16666 13.332C9.16666 12.8717 9.53988 12.4986 10.0003 12.4986C10.4607 12.4986 10.8339 12.8717 10.8339 13.332C10.8339 13.7922 10.4607 14.1653 10.0003 14.1653ZM10.8333 11.6667H9.16666C9.16666 10.2486 9.68714 9.6414 10.8773 9.04631C11.5621 8.7039 11.6667 8.58196 11.6667 7.91667C11.6667 7.13034 11.0643 6.66667 9.99999 6.66667C9.07952 6.66667 8.33333 7.41286 8.33333 8.33333H6.66666C6.66666 6.49238 8.15904 5 9.99999 5C11.9036 5 13.3333 6.10052 13.3333 7.91667C13.3333 9.33471 12.8128 9.94194 11.6227 10.537C10.9378 10.8794 10.8333 11.0014 10.8333 11.6667Z"
      fill="currentColor"/>
</svg>
