<svg width="234" height="169" viewBox="0 0 234 169" fill="none" xmlns="http://www.w3.org/2000/svg">
<g clip-path="url(#clip0)">
<path opacity="0.3" d="M54.7499 48.6381C37.9721 58.4739 28.033 76.5288 29.5949 95.3948C30.4198 105.022 34.1404 114.317 43.9742 119.427C70.1998 132.947 184.69 133.2 201.638 109.287C218.585 85.3731 212.279 51.3534 175.43 37.1799C143.483 24.8598 98.0633 23.2374 54.7499 48.6381Z" fill="#F6F9FE"/>
<path opacity="0.58" d="M168.952 39.5379L156.779 44.8032L164.313 60.9541L176.486 55.6888L168.952 39.5379Z" fill="#C9C9C9"/>
<path opacity="0.75" d="M213.252 129.547L199.869 127.002L196.226 144.765L209.61 147.31L213.252 129.547Z" fill="#E6E6E6"/>
<path opacity="0.75" d="M118.05 135.202L107.806 140.898L115.955 154.489L126.199 148.794L118.05 135.202Z" fill="#E6E6E6"/>
<path d="M70.9387 55.9791C70.9387 55.9791 48.945 58.5808 41.0962 64.6766C33.2475 70.7725 34.7712 80.1116 60.3415 75.2058C85.9117 70.3 70.9387 55.9791 70.9387 55.9791Z" fill="#68E1FD"/>
<path opacity="0.08" d="M70.9387 55.9791C70.9387 55.9791 48.945 58.5808 41.0962 64.6766C33.2475 70.7725 34.7712 80.1116 60.3415 75.2058C85.9117 70.3 70.9387 55.9791 70.9387 55.9791Z" fill="black"/>
<path d="M62.2332 40.6668C63.001 40.5717 63.7464 40.3407 64.4355 39.9843C65.5855 39.4009 68.058 38.8176 68.0062 41.2676C67.9717 42.8251 65.5855 40.9818 65.4245 43.0759C65.2635 45.1701 65.5567 47.8184 61.296 47.1593C57.409 46.5293 58.49 41.1509 62.2332 40.6668Z" fill="#F4A28C"/>
<path d="M130.716 53.745C146.988 53.745 160.179 42.3138 160.179 28.2126C160.179 14.1113 146.988 2.68005 130.716 2.68005C114.444 2.68005 101.253 14.1113 101.253 28.2126C101.253 42.3138 114.444 53.745 130.716 53.745Z" fill="#24285B"/>
<path d="M74.153 142.896C74.153 142.896 73.3307 145.358 71.1572 145.579C68.9837 145.801 68.4432 147.977 70.4155 148.496C72.3877 149.015 77.3902 146.378 77.3902 146.378L77.1775 142.878L74.153 142.896Z" fill="#68E1FD"/>
<path d="M97.015 140.148C97.015 140.148 97.6532 142.668 95.9512 144.062C94.2492 145.457 94.9795 147.562 96.9115 146.921C98.8435 146.279 101.609 141.274 101.609 141.274L99.7232 138.719L97.015 140.148Z" fill="#68E1FD"/>
<path d="M78.316 39.0916C78.316 39.0916 80.409 42.8191 80.9322 45.7066C80.9819 45.9863 80.9766 46.2732 80.9167 46.5508C80.8569 46.8284 80.7435 47.0912 80.5833 47.3243C80.423 47.5573 80.2189 47.756 79.9828 47.9088C79.7467 48.0617 79.4831 48.1657 79.2072 48.215C77.7755 48.46 75.7572 48.3725 74.4002 46.5116L71.715 43.6416C71.2367 43.0087 70.9633 42.241 70.9324 41.444C70.9015 40.647 71.1146 39.8599 71.5425 39.1908C72.9972 36.5833 77.1545 36.7525 78.316 39.0916Z" fill="#F4A28C"/>
<path d="M72.6982 44.2717L72.7557 58.3359L80.3917 57.7467L77.3615 48.0051L72.6982 44.2717Z" fill="#F4A28C"/>
<path d="M79.5178 41.5126L81.2427 42.5159C81.3447 42.5716 81.4308 42.653 81.4926 42.7523C81.5545 42.8516 81.59 42.9655 81.5958 43.0828C81.6016 43.2001 81.5774 43.317 81.5256 43.422C81.4739 43.5271 81.3962 43.6168 81.3002 43.6826L79.9605 44.6509L79.5178 41.5126Z" fill="#F4A28C"/>
<path opacity="0.31" d="M77.4478 48.2792C76.5123 48.185 75.6198 47.8341 74.866 47.2642C74.866 47.2642 74.6015 50.3325 78.316 51.0675L77.4478 48.2792Z" fill="#CE8172"/>
<path d="M131.791 12.2758C134.861 12.4566 137.271 13.4425 139.019 15.1925C139.843 16.0036 140.482 16.9892 140.888 18.0791C141.295 19.169 141.459 20.3365 141.37 21.4983C141.356 22.9984 140.96 24.4693 140.22 25.7683C139.496 26.8883 139.128 27.5766 138.012 28.3466C137.175 28.9684 136.277 29.502 135.333 29.9391C134.7 30.2716 134.275 30.4583 134.108 30.575C132.383 31.5141 131.411 32.4125 131.319 34.0341C131.262 35.0725 130.917 35.3466 129.934 35.2883L128.295 35.1891C127.312 35.1308 127.001 34.8216 127.059 33.7833C127.266 30.2483 128.784 28.6325 131.388 27.075C131.348 27.075 133.05 26.1358 133.113 26.095C133.644 25.7814 134.147 25.4202 134.614 25.0158C135.066 24.5699 135.453 24.0613 135.764 23.505C136.035 22.8351 136.202 22.1267 136.259 21.405C136.402 18.8733 134.654 17.0591 131.383 16.8666C128.226 16.68 126.478 17.8641 125.178 20.4133C124.667 21.4283 124.333 21.58 123.367 21.1833L121.441 20.3608C120.515 20.0166 120.291 19.375 120.682 18.5233C122.729 14.0433 126.432 11.9608 131.791 12.2758ZM129.186 37.505C131.153 37.6216 131.768 38.3275 131.653 40.3166V40.6958C131.538 42.7258 130.848 43.315 128.881 43.1983H128.554C126.587 43.0816 125.972 42.4225 126.087 40.3866V40.0133C126.202 38.0183 126.892 37.3941 128.858 37.5108L129.186 37.505Z" fill="#FFD200"/>
<path d="M77.3845 55.4425H85.0378C85.0378 55.4425 109.55 57.5833 109.941 69.88C110.332 82.1767 94.4793 106.741 94.4793 106.741H68.0638C68.0638 106.741 37.675 55.4425 77.3845 55.4425Z" fill="#68E1FD"/>
<path opacity="0.08" d="M92.8117 66.8584C92.8117 66.8584 87.2802 74.8617 89.5917 81.0917C91.9032 87.3217 92.9325 97.3026 75.119 87.6367L72.5315 79.2601L65.574 76.8334L62.7737 88.3892L67.5692 90.0401C68.6717 90.4022 69.5904 91.1884 70.1279 92.23C70.6654 93.2715 70.779 94.4854 70.4442 95.6109C69.806 97.5942 68.2305 99.5542 64.539 99.9334L68.0867 106.718H94.5022L98.004 100.937L107.629 79.4876L92.8117 66.8584Z" fill="black"/>
<path d="M72.7097 47.0832C72.7097 47.0832 70.9387 43.7932 68.8227 42.3407C66.7067 40.8882 68.4374 36.2157 72.1577 35.3816C74.9407 34.7516 76.5334 33.8241 76.5564 32.2316C76.5668 32.0626 76.622 31.8997 76.7162 31.7599C76.8104 31.6202 76.94 31.5089 77.0914 31.4378C77.2428 31.3666 77.4104 31.3383 77.5763 31.3559C77.7423 31.3734 77.9005 31.4361 78.0342 31.5374C79.3107 32.5116 80.616 34.1041 79.9835 36.3091C79.7355 37.1089 79.2872 37.8297 78.6826 38.4013C78.0779 38.9728 77.3374 39.3755 76.5335 39.5699L74.0265 40.2466C74.0265 40.2466 77.3844 44.8374 72.7097 47.0832Z" fill="#24285B"/>
<path d="M75.74 44.3299C75.74 44.3299 75.0328 42.8424 73.9748 43.4783C72.9168 44.1141 73.923 46.2666 75.5273 45.7649L75.74 44.3299Z" fill="#F4A28C"/>
<path d="M107.284 35.3291L92.7427 46.7858L111.091 42.8249L107.284 35.3291Z" fill="#24285B"/>
<path d="M92.9383 70.5742C90.9143 63.0726 99.7865 57.4901 105.588 62.6117C108.354 65.0617 110.712 68.2117 111.425 72.1259C113.477 83.3726 120.05 93.1609 109.987 99.8226C99.9245 106.484 76.108 91.7026 76.108 91.7026L79.3855 85.6651C79.3855 85.6651 91.3053 90.4542 98.6998 90.0342C103.8 89.7484 95.796 81.1676 92.9383 70.5742Z" fill="#68E1FD"/>
<path d="M77.7076 77.3293L70.5209 75.5884L67.7525 87.3502L74.9392 89.0912L77.7076 77.3293Z" fill="#FFD200"/>
<path opacity="0.3" d="M92.9383 70.5742C90.9143 63.0726 99.7865 57.4901 105.588 62.6117C108.354 65.0617 110.712 68.2117 111.425 72.1259C113.477 83.3726 120.05 93.1609 109.987 99.8226C99.9245 106.484 76.108 91.7026 76.108 91.7026L79.3855 85.6651C79.3855 85.6651 91.3053 90.4542 98.6998 90.0342C103.8 89.7484 95.796 81.1676 92.9383 70.5742Z" fill="white"/>
<path d="M78.9485 86.4234C78.6786 85.2755 78.1424 84.2095 77.3845 83.3142C76.0965 81.7509 75.6595 81.0567 73.8828 81.0917C72.106 81.1267 71.9278 87.7475 76.8325 90.32L78.9485 86.4234Z" fill="#F4A28C"/>
<path d="M94.4792 106.741C94.4792 106.741 89.1892 129.024 99.7807 138.393L96.0489 141.933C96.0489 141.933 82.3179 133.848 80.4032 111.635L94.4792 106.741Z" fill="#24285B"/>
<path d="M59.088 43.1866L61.296 47.1475L45.15 72.96C42.6545 76.9442 36.4387 75.2933 36.3812 70.5742C36.3812 68.3983 37.031 65.7792 38.9457 62.6875C45.8802 51.4525 59.088 43.1866 59.088 43.1866Z" fill="#68E1FD"/>
<path d="M57.4431 35.5923L57.2906 36.7487L63.2805 37.5616L63.433 36.4053L57.4431 35.5923Z" fill="#C9C9C9"/>
<path d="M62.0831 28.2184L61.1987 28.9641L65.0613 33.6791L65.9457 32.9334L62.0831 28.2184Z" fill="#C9C9C9"/>
<path d="M69.6523 26.3204L69.0941 32.425L70.2392 32.5328L70.7974 26.4282L69.6523 26.3204Z" fill="#C9C9C9"/>
<path d="M68.0637 106.741C68.0637 106.741 62.6357 127.543 73.3365 142.878L77.6605 142.668C77.6605 142.668 71.393 121.919 80.7022 114.33L94.5022 106.747L68.0637 106.741Z" fill="#24285B"/>
</g>
<defs>
<clipPath id="clip0">
<rect width="234" height="169" fill="white"/>
</clipPath>
</defs>
</svg>
