<svg width="20" height="19" viewBox="0 0 20 19" fill="none" xmlns="http://www.w3.org/2000/svg">
<path fill-rule="evenodd" clip-rule="evenodd" d="M10 18.6667C4.93739 18.6667 0.833336 14.5626 0.833336 9.49999C0.833336 4.43738 4.93739 0.333328 10 0.333328C15.0626 0.333328 19.1667 4.43738 19.1667 9.49999C19.1667 14.5626 15.0626 18.6667 10 18.6667ZM10 17C14.1421 17 17.5 13.6421 17.5 9.49999C17.5 5.35786 14.1421 1.99999 10 1.99999C5.85787 1.99999 2.5 5.35786 2.5 9.49999C2.5 13.6421 5.85787 17 10 17ZM10.8363 11.1653H11.6691V12.8319H8.3358V11.1653H9.16913V9.49862H8.3358V7.83195H10.8363V11.1653ZM10.0003 6.99862C9.53989 6.99862 9.16667 6.62552 9.16667 6.16528C9.16667 5.70505 9.53989 5.33195 10.0003 5.33195C10.4607 5.33195 10.8339 5.70505 10.8339 6.16528C10.8339 6.62552 10.4607 6.99862 10.0003 6.99862Z" fill="#C5C7D2"/>
</svg>
