<svg width="20" height="19" viewBox="0 0 20 19" fill="none" xmlns="http://www.w3.org/2000/svg">
<path fill-rule="evenodd" clip-rule="evenodd" d="M5.02944 15.1165C6.35276 16.2885 8.09329 17 10 17C11.9067 17 13.6473 16.2885 14.9706 15.1165C14.7267 14.2395 12.9745 13.6667 10 13.6667C7.02552 13.6667 5.27334 14.2395 5.02944 15.1165ZM3.83376 13.7705C4.77164 12.5317 6.97551 12 10 12C13.0245 12 15.2284 12.5317 16.1663 13.7705C17.0072 12.5586 17.5 11.0869 17.5 9.5C17.5 5.35786 14.1421 2 10 2C5.85787 2 2.50001 5.35786 2.50001 9.5C2.50001 11.0869 2.99283 12.5586 3.83376 13.7705ZM10 18.6667C4.9374 18.6667 0.833344 14.5626 0.833344 9.5C0.833344 4.43739 4.9374 0.333333 10 0.333333C15.0626 0.333333 19.1667 4.43739 19.1667 9.5C19.1667 14.5626 15.0626 18.6667 10 18.6667ZM6.66668 7.83333C6.66668 5.96313 7.98259 4.5 10 4.5C12.0118 4.5 13.3333 6.10131 13.3333 8C13.3333 10.733 11.8484 12 10 12C8.13406 12 6.66668 10.6895 6.66668 7.83333ZM8.33334 7.83333C8.33334 9.72438 9.01519 10.3333 10 10.3333C10.9814 10.3333 11.6667 9.74866 11.6667 8C11.6667 6.95868 11.0131 6.16667 10 6.16667C8.94479 6.16667 8.33334 6.84652 8.33334 7.83333Z" fill="#CDD3DB"/>
</svg>
