<svg width="18" height="18" viewBox="0 0 18 18" fill="none" xmlns="http://www.w3.org/2000/svg">
<path fill-rule="evenodd" clip-rule="evenodd" d="M5.66666 6.5C5.66666 3.27834 8.27833 0.666664 11.5 0.666664C14.7217 0.666664 17.3333 3.27834 17.3333 6.5C17.3333 9.72166 14.7217 12.3333 11.5 12.3333H9.83332V14H8.16666V15.6667H6.49999V17.3333H0.666656V12.8215L5.78999 7.69815C5.70828 7.30705 5.66666 6.90609 5.66666 6.5ZM8.16666 10.6667H11.5C13.8012 10.6667 15.6667 8.80118 15.6667 6.5C15.6667 4.19881 13.8012 2.33333 11.5 2.33333C9.1988 2.33333 7.33332 4.19881 7.33332 6.5C7.33332 6.91552 7.3939 7.32198 7.51172 7.71072L7.65656 8.1886L2.33332 13.5118V15.6667H4.83332V14H6.49999V12.3333H8.16666V10.6667ZM11.5 8.16666C10.5795 8.16666 9.83332 7.42047 9.83332 6.5C9.83332 5.57952 10.5795 4.83333 11.5 4.83333C12.4205 4.83333 13.1667 5.57952 13.1667 6.5C13.1667 7.42047 12.4205 8.16666 11.5 8.16666Z" fill="#C5C7D2"/>
</svg>
