<svg width="20" height="19" viewBox="0 0 20 19" fill="none" xmlns="http://www.w3.org/2000/svg">
<path fill-rule="evenodd" clip-rule="evenodd" d="M5.02959 15.1166C6.35291 16.2886 8.09344 17.0002 10.0002 17.0002C11.9069 17.0002 13.6474 16.2886 14.9707 15.1166C14.7268 14.2396 12.9746 13.6668 10.0002 13.6668C7.02568 13.6668 5.2735 14.2396 5.02959 15.1166ZM3.83392 13.7707C4.77179 12.5319 6.97566 12.0002 10.0002 12.0002C13.0247 12.0002 15.2285 12.5319 16.1664 13.7707C17.0073 12.5588 17.5002 11.087 17.5002 9.50016C17.5002 5.35803 14.1423 2.00016 10.0002 2.00016C5.85803 2.00016 2.50016 5.35803 2.50016 9.50016C2.50016 11.087 2.99298 12.5588 3.83392 13.7707ZM10.0002 18.6668C4.93755 18.6668 0.833496 14.5628 0.833496 9.50016C0.833496 4.43755 4.93755 0.333496 10.0002 0.333496C15.0628 0.333496 19.1668 4.43755 19.1668 9.50016C19.1668 14.5628 15.0628 18.6668 10.0002 18.6668ZM6.66683 7.8335C6.66683 5.96329 7.98275 4.50016 10.0002 4.50016C12.012 4.50016 13.3335 6.10148 13.3335 8.00016C13.3335 10.7332 11.8486 12.0002 10.0002 12.0002C8.13422 12.0002 6.66683 10.6896 6.66683 7.8335ZM8.3335 7.8335C8.3335 9.72454 9.01534 10.3335 10.0002 10.3335C10.9816 10.3335 11.6668 9.74882 11.6668 8.00016C11.6668 6.95884 11.0132 6.16683 10.0002 6.16683C8.94494 6.16683 8.3335 6.84668 8.3335 7.8335Z" fill="#CDD3DB"/>
</svg>
