<svg width="18" height="18" viewBox="0 0 18 18" fill="none" xmlns="http://www.w3.org/2000/svg">
<path d="M4.41675 17.3333C2.34568 17.3333 0.666748 15.6544 0.666748 13.5833C0.666748 11.5123 2.34568 9.83334 4.41675 9.83334C6.48782 9.83334 8.16675 11.5123 8.16675 13.5833C8.16675 15.6544 6.48782 17.3333 4.41675 17.3333ZM13.5834 17.3333C11.5123 17.3333 9.83342 15.6544 9.83342 13.5833C9.83342 11.5123 11.5123 9.83334 13.5834 9.83334C15.6545 9.83334 17.3334 11.5123 17.3334 13.5833C17.3334 15.6544 15.6545 17.3333 13.5834 17.3333ZM4.41675 8.16667C2.34568 8.16667 0.666748 6.48774 0.666748 4.41667C0.666748 2.3456 2.34568 0.666672 4.41675 0.666672C6.48782 0.666672 8.16675 2.3456 8.16675 4.41667C8.16675 6.48774 6.48782 8.16667 4.41675 8.16667ZM13.5834 8.16667C11.5123 8.16667 9.83342 6.48774 9.83342 4.41667C9.83342 2.3456 11.5123 0.666672 13.5834 0.666672C15.6545 0.666672 17.3334 2.3456 17.3334 4.41667C17.3334 6.48774 15.6545 8.16667 13.5834 8.16667ZM13.5834 6.50001C14.734 6.50001 15.6667 5.56727 15.6667 4.41667C15.6667 3.26608 14.734 2.33334 13.5834 2.33334C12.4328 2.33334 11.5001 3.26608 11.5001 4.41667C11.5001 5.56727 12.4328 6.50001 13.5834 6.50001ZM4.41675 6.50001C5.56734 6.50001 6.50008 5.56727 6.50008 4.41667C6.50008 3.26608 5.56734 2.33334 4.41675 2.33334C3.26616 2.33334 2.33341 3.26608 2.33341 4.41667C2.33341 5.56727 3.26616 6.50001 4.41675 6.50001ZM13.5834 15.6667C14.734 15.6667 15.6667 14.7339 15.6667 13.5833C15.6667 12.4327 14.734 11.5 13.5834 11.5C12.4328 11.5 11.5001 12.4327 11.5001 13.5833C11.5001 14.7339 12.4328 15.6667 13.5834 15.6667ZM4.41675 15.6667C5.56734 15.6667 6.50008 14.7339 6.50008 13.5833C6.50008 12.4327 5.56734 11.5 4.41675 11.5C3.26616 11.5 2.33341 12.4327 2.33341 13.5833C2.33341 14.7339 3.26616 15.6667 4.41675 15.6667Z" fill="currentColor"/>
</svg>
