<svg width="520" height="391" viewBox="0 0 520 391" fill="none" xmlns="http://www.w3.org/2000/svg">
<path opacity="0.3" d="M159.653 132.613C131.833 149.536 115.362 180.687 117.975 213.193C119.275 229.804 125.476 245.842 141.791 254.59C185.263 277.944 375.063 278.334 403.156 237.081C431.249 195.827 420.797 137.208 359.71 112.786C306.8 91.6195 231.465 88.8206 159.653 132.613Z" fill="#E6E6E6"/>
<path opacity="0.51" d="M105.183 339.518C105.183 339.518 102.7 319.262 117 316.333C131.3 313.404 130.533 336.589 143.754 327.932C156.975 319.275 148.525 309.499 164.775 301.363C181.025 293.227 183.495 310.332 194.675 313.73C205.855 317.127 207.675 280.795 253.825 294.828C299.975 308.861 301.925 317.114 316.862 303.211C331.799 289.308 359.229 291.599 368.771 317.31C378.313 343.02 398.151 293.214 418.938 305.594C439.725 317.974 430.95 336.836 430.95 336.836L379.6 348.552L270.725 341.393C270.725 341.393 142.35 339.922 140.075 339.518C137.8 339.115 105.183 339.518 105.183 339.518Z" fill="#E6E6E6"/>
<path d="M379.847 160.835C379.847 160.835 351.247 166.628 353.6 193.38C355.953 220.132 329.953 234.751 345.891 250.19C361.829 265.629 383.071 256.946 383.071 256.946L379.847 160.835Z" fill="#68C2E9"/>
<path opacity="0.39" d="M379.847 160.835C379.847 160.835 351.247 166.628 353.6 193.38C355.953 220.132 329.953 234.751 345.891 250.19C361.829 265.629 383.071 256.946 383.071 256.946L379.847 160.835Z" fill="white"/>
<path d="M403.52 134.357C402.302 137.474 401.506 140.74 401.154 144.068C401.14 144.466 401.205 144.863 401.345 145.235C401.484 145.608 401.696 145.949 401.968 146.239C402.24 146.53 402.566 146.763 402.928 146.927C403.291 147.091 403.682 147.181 404.079 147.193C405.355 147.317 406.639 147.068 407.776 146.477C408.914 145.885 409.856 144.976 410.488 143.86L413.699 139.343C414.246 138.368 414.477 137.247 414.36 136.135C414.244 135.022 413.786 133.974 413.049 133.133C410.501 129.84 404.69 130.881 403.52 134.357Z" fill="#F4A28C"/>
<path d="M412.243 140.475L411.996 160.171L401.167 159.26L405.704 145.292L412.243 140.475Z" fill="#F4A28C"/>
<path d="M413.114 144.029C413.081 144.151 413.008 144.257 412.906 144.331C412.804 144.404 412.68 144.44 412.555 144.433C411.684 144.42 410.841 144.124 410.154 143.588C409.466 143.053 408.972 142.307 408.746 141.465C408.477 140.539 408.48 139.554 408.757 138.63C409.034 137.706 409.572 136.882 410.306 136.258C408.455 136.08 406.632 135.687 404.872 135.086C404.278 134.887 403.72 134.593 403.221 134.214L403 129.384C403 129.384 401.908 124.359 404.729 124.177C407.55 123.995 407.901 127.249 410.566 125.739C413.231 124.229 413.946 123.591 415.766 125.362C417.586 127.132 414.661 128.109 418.158 129.111C421.655 130.113 421.33 131.571 420.901 133.172C420.677 133.707 420.296 134.161 419.809 134.474C416.604 136.85 414.255 140.203 413.114 144.029Z" fill="#24285B"/>
<path d="M408.2 141.113C408.2 141.113 408.902 138.9 410.514 139.564C412.126 140.228 411.138 143.47 408.785 143.053L408.2 141.113Z" fill="#F4A28C"/>
<path d="M402.311 137.989L400.062 139.733C399.935 139.832 399.834 139.962 399.77 140.109C399.706 140.257 399.679 140.419 399.693 140.58C399.708 140.74 399.762 140.895 399.851 141.029C399.941 141.163 400.062 141.273 400.205 141.348L402.285 142.415L402.311 137.989Z" fill="#F4A28C"/>
<path opacity="0.31" d="M405.132 147.167C406.679 147.085 408.181 146.615 409.5 145.8C409.5 145.8 408.824 149.705 403.767 151.306L405.132 147.167Z" fill="#CE8172"/>
<path d="M391.547 158.271C409.408 158.589 427.04 162.364 443.469 169.388C445.988 170.455 448.262 172.027 450.15 174.008C452.038 175.989 453.5 178.337 454.447 180.906C455.394 183.475 455.804 186.211 455.653 188.946C455.503 191.68 454.793 194.354 453.57 196.804L425.321 253.236L372.957 250.125C372.957 250.125 363.415 218.413 365.326 182.549C365.711 175.892 368.658 169.643 373.548 165.116C378.438 160.588 384.889 158.135 391.547 158.271Z" fill="#68C2E9"/>
<path d="M425.321 253.236L440.921 339.518H433.121L413.504 292.654C406.557 276.063 394.308 262.249 378.677 253.379L372.931 250.112L425.321 253.236Z" fill="#24285B"/>
<path opacity="0.08" d="M429.65 176.886C425.94 179.915 423.072 183.851 421.326 188.314C419.579 192.777 419.012 197.616 419.679 202.362C422.071 218.7 424.528 231.392 409.5 227.591C394.472 223.79 386.321 188.759 386.321 188.759L368.771 189.188L371.8 228.242L381.979 228.945C384.387 229.109 386.675 230.062 388.488 231.657C390.302 233.252 391.541 235.401 392.015 237.771L394.758 251.4L425.321 253.21L429.65 246.766L448.721 226.055L451.1 193.093L429.65 176.886Z" fill="black"/>
<path d="M405.745 176.258L371.815 178.568L374.975 225.104L408.905 222.793L405.745 176.258Z" fill="#FFD200"/>
<path d="M372.957 250.125L381.03 339.518H391.43C391.43 339.518 388.999 272.255 407.771 257.935L372.957 250.125Z" fill="#24285B"/>
<path d="M428.48 181.937C428.547 179.303 429.427 176.754 430.997 174.64C432.568 172.526 434.754 170.95 437.254 170.129C439.755 169.307 442.447 169.281 444.964 170.053C447.48 170.824 449.696 172.356 451.308 174.439C457.314 182.12 462.852 194.929 462.397 215.966C461.422 260.877 435.097 272.919 394.472 223.777L402.467 217.593C402.467 217.593 418.47 231.184 433.121 231.379C444.028 231.561 427.7 203.365 428.48 181.937Z" fill="#68C2E9"/>
<path opacity="0.39" d="M428.48 181.937C428.547 179.303 429.427 176.754 430.997 174.64C432.568 172.526 434.754 170.95 437.254 170.129C439.755 169.307 442.447 169.281 444.964 170.053C447.48 170.824 449.696 172.356 451.308 174.439C457.314 182.12 462.852 194.929 462.397 215.966C461.422 260.877 435.097 272.919 394.472 223.777L402.467 217.593C402.467 217.593 418.47 231.184 433.121 231.379C444.028 231.561 427.7 203.365 428.48 181.937Z" fill="white"/>
<path opacity="0.08" d="M373.256 199.837C373.256 199.837 384.956 221.355 408.356 215.276L408.863 222.813L374.933 225.117L373.256 199.837Z" fill="black"/>
<path d="M400.998 218.7C400.998 218.7 396.214 210.238 390.364 212.477C384.514 214.716 394.472 223.751 394.472 223.751L400.998 218.7Z" fill="#F4A28C"/>
<path d="M246.74 264.744L254.137 314.849C254.137 314.849 226.473 289.868 208.637 313.73C202.358 322.152 196.287 326.578 174.187 318.208C152.087 309.837 131.95 313.73 128.05 332.944C124.15 352.158 109.2 318.625 92.95 335.704C76.7 352.783 94.25 359.943 143 354.085C191.75 348.227 220.35 371.659 260.325 358.641C300.3 345.624 320.45 359.292 351.65 357.99C382.85 356.689 393.25 359.943 436.15 347.576C479.05 335.209 453.7 316.255 438.75 313.73C423.8 311.204 422.864 335.248 405.782 329.351C388.7 323.454 387.4 302.743 365.95 306.609C344.5 310.475 353.6 334.558 338 325.446C326.027 318.468 330.837 307.351 314.86 302.56C309.336 300.963 303.506 300.742 297.878 301.917C292.249 303.092 286.993 305.628 282.568 309.304L275.925 314.732L278.2 261.658L246.74 264.744Z" fill="#E6E6E6"/>
<path d="M227.5 147.102L174.2 206.658H232.258L227.5 147.102Z" fill="#FFD200"/>
<path d="M292.591 147.102L345.891 206.658H287.833L292.591 147.102Z" fill="#FFD200"/>
<path opacity="0.58" d="M114.855 240.374C114.855 240.374 104.039 243.277 96.928 235.766C96.928 235.766 109.681 224.388 118.807 239.086L114.855 240.374Z" fill="#68C2E9"/>
<path opacity="0.73" d="M115.453 238.773C115.453 238.773 102.921 232.264 103.025 219.246C103.025 219.246 118.105 219.806 120.796 235.675L115.453 238.773Z" fill="#68C2E9"/>
<path d="M117.143 237.797C117.143 237.797 114.231 224.883 123.435 216.734C123.435 216.734 129.519 222.67 124.28 233.657L117.143 237.797Z" fill="#68C2E9"/>
<path d="M110.227 241.507L119.678 253.366L131.625 246.441L125.827 232.472L110.227 241.507Z" fill="#24285B"/>
<path d="M258.895 51.7979V51.4465L258.713 51.6157L258.531 51.4465V51.811C253.903 56.4713 207.441 107.514 234.208 252.377H285.662C312.416 107.358 263.64 56.3542 258.895 51.7979Z" fill="#68C2E9"/>
<path opacity="0.11" d="M290.03 125.349L291.512 135.607C277.608 141.381 262.543 143.803 247.533 142.675C243.531 142.314 239.502 142.971 235.82 144.584C232.139 146.198 228.924 148.716 226.473 151.905C226.473 151.905 227.981 130.803 228.995 125.948L290.03 125.349Z" fill="#3B1E59"/>
<path d="M258.895 51.7979V51.4465L258.713 51.6157L258.531 51.4465V51.811C253.903 56.4713 207.441 107.514 234.208 252.377H285.662C312.416 107.358 263.64 56.3542 258.895 51.7979Z" fill="#FFF8DC"/>
<path opacity="0.08" d="M240.825 172.877L226.525 189.006C226.867 203.377 228.315 217.7 230.854 231.848L267.059 204.927L240.825 172.877Z" fill="black"/>
<path d="M232.258 241.22L234.208 252.377H286.117L288.171 241.22H232.258Z" fill="#FFD200"/>
<path d="M231.53 112.695L231.426 112.995C229.966 116.821 229.191 120.875 229.138 124.971L228.995 125.922C228.995 125.922 257.868 142.337 290.03 125.323C290.187 124.755 290.262 124.167 290.251 123.578C290.134 119.822 289.314 116.122 287.833 112.669H231.53V112.695Z" fill="#FFD200"/>
<path opacity="0.13" d="M232.258 241.22L234.208 252.377H286.117L288.171 241.22H232.258Z" fill="black"/>
<path opacity="0.13" d="M231.53 112.695L231.426 112.995C229.966 116.821 229.191 120.875 229.138 124.971L228.995 125.922C228.995 125.922 257.868 142.337 290.03 125.323C290.187 124.755 290.262 124.167 290.251 123.578C290.134 119.822 289.314 116.122 287.833 112.669H231.53V112.695Z" fill="black"/>
<path d="M231.53 112.695C231.53 112.695 258.83 125.401 287.833 112.695C287.833 112.695 283.114 66.5081 259.675 45.0027C259.675 44.9766 240.019 60.5069 231.53 112.695Z" fill="#FFD200"/>
<path d="M260.325 206.658C272.71 206.658 282.75 196.604 282.75 184.202C282.75 171.8 272.71 161.747 260.325 161.747C247.94 161.747 237.9 171.8 237.9 184.202C237.9 196.604 247.94 206.658 260.325 206.658Z" fill="#24285B"/>
<path d="M261.144 172.096C261.807 172.096 262.015 172.33 262.015 172.994V174.439C263.178 174.568 264.284 175.008 265.218 175.714C266.151 176.419 266.877 177.364 267.319 178.448C267.67 179.138 267.527 179.516 266.747 179.867L265.33 180.505C264.667 180.818 264.355 180.674 264.03 179.985C263.737 179.264 263.219 178.659 262.553 178.257C261.888 177.856 261.111 177.681 260.338 177.758C257.881 177.758 256.763 178.474 256.763 180.128C256.819 180.632 257.047 181.101 257.41 181.455C257.773 181.809 258.247 182.025 258.752 182.067C259.435 182.208 260.125 182.313 260.819 182.38C262.149 182.436 263.464 182.69 264.719 183.135C265.335 183.335 265.908 183.648 266.409 184.059C266.924 184.593 267.325 185.226 267.589 185.92C267.852 186.613 267.973 187.353 267.943 188.095C267.943 191.245 265.837 193.38 262.119 193.94V195.437C262.119 196.101 261.911 196.335 261.248 196.335H259.662C258.999 196.335 258.765 196.101 258.765 195.437V193.966C257.471 193.883 256.232 193.415 255.205 192.622C254.179 191.829 253.413 190.746 253.006 189.514C252.772 188.876 253.006 188.446 253.669 188.212L255.073 187.691C255.801 187.431 256.113 187.6 256.438 188.329C256.73 189.107 257.27 189.767 257.976 190.205C258.682 190.643 259.512 190.835 260.338 190.75C262.938 190.75 264.329 189.917 264.329 188.147C264.347 187.744 264.228 187.348 263.992 187.021C263.756 186.695 263.417 186.459 263.029 186.35C262.107 186.03 261.144 185.846 260.169 185.803C258.834 185.732 257.518 185.451 256.269 184.97C255.659 184.754 255.092 184.432 254.592 184.02C254.08 183.51 253.678 182.9 253.41 182.229C253.141 181.557 253.013 180.838 253.032 180.115C253.032 176.99 254.995 174.908 258.687 174.426V173.007C258.687 172.343 258.921 172.109 259.584 172.109L261.144 172.096Z" fill="white"/>
<path d="M234.208 252.377L203.229 289.868L268.125 267.529V252.377H234.208Z" fill="#FFD200"/>
<path d="M285.883 252.377L316.862 289.868L251.966 267.529V252.377H285.883Z" fill="#FFD200"/>
<path d="M114.283 298.981C119.309 298.981 123.383 294.901 123.383 289.868C123.383 284.835 119.309 280.756 114.283 280.756C109.257 280.756 105.183 284.835 105.183 289.868C105.183 294.901 109.257 298.981 114.283 298.981Z" fill="#E6E6E6"/>
<path d="M148.967 94.2621C153.993 94.2621 158.067 90.1823 158.067 85.1497C158.067 80.117 153.993 76.0372 148.967 76.0372C143.941 76.0372 139.867 80.117 139.867 85.1497C139.867 90.1823 143.941 94.2621 148.967 94.2621Z" fill="#E6E6E6"/>
<path d="M469.846 289.868C474.872 289.868 478.946 285.788 478.946 280.756C478.946 275.723 474.872 271.643 469.846 271.643C464.82 271.643 460.746 275.723 460.746 280.756C460.746 285.788 464.82 289.868 469.846 289.868Z" fill="#E6E6E6"/>
<path d="M345.891 161.825C348.763 161.825 351.091 159.493 351.091 156.618C351.091 153.742 348.763 151.41 345.891 151.41C343.019 151.41 340.691 153.742 340.691 156.618C340.691 159.493 343.019 161.825 345.891 161.825Z" fill="#E6E6E6"/>
<path d="M81.939 171.25C84.8109 171.25 87.139 168.918 87.139 166.042C87.139 163.167 84.8109 160.835 81.939 160.835C79.0671 160.835 76.739 163.167 76.739 166.042C76.739 168.918 79.0671 171.25 81.939 171.25Z" fill="#E6E6E6"/>
<path d="M322.062 50.1837C324.934 50.1837 327.262 47.8524 327.262 44.9766C327.262 42.1008 324.934 39.7695 322.062 39.7695C319.19 39.7695 316.862 42.1008 316.862 44.9766C316.862 47.8524 319.19 50.1837 322.062 50.1837Z" fill="#E6E6E6"/>
<path d="M389.584 71.4549V97.4905H406.38L410.059 107.853L414.401 97.4905H431.197V71.4549H389.584Z" fill="#E6E6E6"/>
<path opacity="0.12" d="M408.291 90.2787H408.2C408.013 90.2702 407.831 90.2216 407.665 90.1363C407.499 90.0509 407.353 89.9308 407.238 89.784L402.844 84.1213C402.739 83.9862 402.661 83.8318 402.616 83.6668C402.571 83.5017 402.558 83.3294 402.579 83.1596C402.6 82.9897 402.655 82.8257 402.739 82.6769C402.824 82.5281 402.936 82.3974 403.071 82.2922C403.206 82.1871 403.36 82.1096 403.525 82.0642C403.69 82.0187 403.862 82.0062 404.032 82.0274C404.201 82.0485 404.365 82.1029 404.514 82.1874C404.662 82.272 404.793 82.385 404.898 82.5201L408.343 86.9721L416.871 77.7555C417.111 77.5302 417.428 77.4046 417.758 77.4043C418.087 77.4039 418.404 77.5287 418.645 77.7535C418.886 77.9783 419.033 78.2863 419.056 78.6153C419.079 78.9443 418.976 79.2698 418.769 79.526L409.24 89.823C409.122 89.961 408.977 90.0729 408.813 90.1513C408.65 90.2298 408.472 90.2732 408.291 90.2787Z" fill="black"/>
</svg>
