<svg width="106" height="24" viewBox="0 0 106 24" fill="none" xmlns="http://www.w3.org/2000/svg">
<path d="M4.2692 5.39014V10.8801H10.4492V14.2401H4.2692V23.0001H0.429199V2.09014H11.3492V5.39014H4.2692ZM23.8952 8.06014V23.0001H20.5052L20.4302 21.0651C19.9902 21.7551 19.4452 22.3101 18.7952 22.7301C18.1552 23.1501 17.3352 23.3601 16.3352 23.3601C14.8552 23.3601 13.7502 22.8901 13.0202 21.9501C12.2902 21.0101 11.9252 19.6701 11.9252 17.9301V8.06014H15.6752V17.6001C15.6752 18.4701 15.8302 19.1551 16.1402 19.6551C16.4602 20.1451 16.9652 20.3901 17.6552 20.3901C18.1252 20.3901 18.5452 20.2751 18.9152 20.0451C19.2952 19.8051 19.5952 19.4751 19.8152 19.0551C20.0352 18.6251 20.1452 18.1401 20.1452 17.6001V8.06014H23.8952ZM34.2843 7.70014C35.7743 7.70014 36.8943 8.17514 37.6443 9.12514C38.4043 10.0651 38.7843 11.4001 38.7843 13.1301V23.0001H34.9443V13.4601C34.9443 12.6101 34.7643 11.9351 34.4043 11.4351C34.0443 10.9251 33.5143 10.6701 32.8143 10.6701C32.3443 10.6701 31.9043 10.7901 31.4943 11.0301C31.0943 11.2701 30.7743 11.6051 30.5343 12.0351C30.2943 12.4551 30.1743 12.9301 30.1743 13.4601V23.0001H26.3343V8.06014H29.8143L29.8893 10.0251C30.9193 8.47514 32.3843 7.70014 34.2843 7.70014ZM49.0421 7.70014C50.5321 7.70014 51.6521 8.17514 52.4021 9.12514C53.1621 10.0651 53.5421 11.4001 53.5421 13.1301V23.0001H49.7021V13.4601C49.7021 12.6101 49.5221 11.9351 49.1621 11.4351C48.8021 10.9251 48.2721 10.6701 47.5721 10.6701C47.1021 10.6701 46.6621 10.7901 46.2521 11.0301C45.8521 11.2701 45.5321 11.6051 45.2921 12.0351C45.0521 12.4551 44.9321 12.9301 44.9321 13.4601V23.0001H41.0921V8.06014H44.5721L44.6471 10.0251C45.6771 8.47514 47.1421 7.70014 49.0421 7.70014ZM61.9099 23.3901C60.2999 23.3901 58.9699 23.0501 57.9199 22.3701C56.8699 21.6801 56.0999 20.7601 55.6099 19.6101C55.1299 18.4601 54.8899 17.1601 54.8899 15.7101C54.8899 14.2301 55.1599 12.8851 55.6999 11.6751C56.2499 10.4551 57.0499 9.49014 58.0999 8.78014C59.1499 8.06014 60.3999 7.70014 61.8499 7.70014C64.0099 7.70014 65.5549 8.32514 66.4849 9.57514C67.4149 10.8151 67.8799 12.6701 67.8799 15.1401C67.8799 15.6201 67.8599 16.1601 67.8199 16.7601H58.8199C58.8799 17.9701 59.2149 18.9051 59.8249 19.5651C60.4449 20.2151 61.3499 20.5401 62.5399 20.5401C63.1599 20.5401 63.8249 20.4051 64.5349 20.1351C65.2449 19.8551 65.7699 19.5201 66.1099 19.1301L67.3099 21.9801C65.8999 22.9201 64.0999 23.3901 61.9099 23.3901ZM64.0699 14.4201C64.0699 12.9501 63.8849 11.9401 63.5149 11.3901C63.1549 10.8301 62.6299 10.5501 61.9399 10.5501C60.9699 10.5501 60.2149 10.9101 59.6749 11.6301C59.1449 12.3501 58.8499 13.2801 58.7899 14.4201H64.0699ZM69.4665 0.200136H73.1265V23.0001H69.4665V0.200136ZM75.5189 1.64014H79.7189V5.63014H75.5189V1.64014ZM75.6689 8.06014H79.5689V23.0001H75.6689V8.06014ZM86.1271 23.2701C84.6971 23.2701 83.5721 23.0951 82.7521 22.7451C81.9421 22.3851 81.3671 22.0001 81.0271 21.5901L82.1371 18.7401C83.4171 19.8001 84.7771 20.3301 86.2171 20.3301C86.8671 20.3301 87.3471 20.2001 87.6571 19.9401C87.9771 19.6701 88.1371 19.3401 88.1371 18.9501C88.1371 18.5301 87.8621 18.1451 87.3121 17.7951C86.7721 17.4351 85.9671 17.0201 84.8971 16.5501C84.2071 16.2501 83.6071 15.9351 83.0971 15.6051C82.5871 15.2751 82.1421 14.8301 81.7621 14.2701C81.3921 13.7001 81.2071 13.0101 81.2071 12.2001C81.2071 11.3001 81.4271 10.5151 81.8671 9.84514C82.3171 9.17514 82.9671 8.66014 83.8171 8.30014C84.6671 7.94014 85.6871 7.76014 86.8771 7.76014C87.5871 7.76014 88.2521 7.84014 88.8721 8.00014C89.5021 8.15014 90.0371 8.34014 90.4771 8.57014C90.9171 8.79014 91.2371 9.00014 91.4371 9.20014L90.4171 11.9001C89.9571 11.5501 89.4271 11.2551 88.8271 11.0151C88.2371 10.7651 87.6271 10.6401 86.9971 10.6401C86.2471 10.6401 85.7171 10.7401 85.4071 10.9401C85.1071 11.1301 84.9571 11.4501 84.9571 11.9001C84.9571 12.3501 85.1771 12.7251 85.6171 13.0251C86.0671 13.3251 86.7571 13.6601 87.6871 14.0301C89.0271 14.5601 90.0571 15.1901 90.7771 15.9201C91.4971 16.6401 91.8571 17.5201 91.8571 18.5601C91.8571 19.4301 91.6571 20.2201 91.2571 20.9301C90.8671 21.6301 90.2421 22.1951 89.3821 22.6251C88.5321 23.0551 87.4471 23.2701 86.1271 23.2701ZM101.273 7.70014C102.743 7.70014 103.853 8.17514 104.603 9.12514C105.363 10.0651 105.743 11.4001 105.743 13.1301V23.0001H101.903V13.5201C101.903 12.6801 101.703 12.0051 101.303 11.4951C100.903 10.9851 100.353 10.7301 99.6529 10.7301C99.1829 10.7301 98.7379 10.8501 98.3179 11.0901C97.9079 11.3301 97.5779 11.6651 97.3279 12.0951C97.0779 12.5151 96.9529 12.9901 96.9529 13.5201V23.0001H93.2629V0.140137H96.8029V7.70014L96.7279 9.95014C97.7579 8.45014 99.2729 7.70014 101.273 7.70014Z" fill="black"/>
</svg>
