<svg viewBox="0 0 40 40" fill="none" xmlns="http://www.w3.org/2000/svg">
<g >
<path d="M6.5 14C8.75 8.75 14 5 20 5C27.5 5 33.5 10.5 34.75 17.5H39.75C38.5 7.75 30.25 0 20 0C12.5 0 6 4 2.75 10.25L0 7.5V17.5H10L6.5 14V14Z" fill="#15D7AE"/>
<path d="M40 22.5H29.75L33.5 26C31.25 31.25 26 35 19.75 35C12.5 35 6.25 29.5 5 22.5H0C1.25 32.25 9.75 40 19.75 40C27.25 40 33.75 35.75 37.25 29.75L40 32.5V22.5Z" fill="#15D7AE"/>
</g>
<path d="M12 20L16.8582 25.2999C17.2179 25.6922 17.8219 25.7341 18.2322 25.3951L29 16.5" stroke="#15D7AE" stroke-width="3" stroke-linecap="round"/>
</svg>
