<svg width="20" height="21" viewBox="0 0 20 21" fill="none" xmlns="http://www.w3.org/2000/svg">
<path d="M10 10.2988C11.1916 10.2988 12.161 9.32935 12.161 8.13778C12.161 6.94622 11.1916 5.97681 10 5.97681C8.80841 5.97681 7.83899 6.94622 7.83899 8.13778C7.83899 9.32931 8.80841 10.2988 10 10.2988ZM10 7.32274C10.4494 7.32274 10.815 7.68837 10.815 8.13774C10.815 8.58712 10.4494 8.95271 10 8.95271C9.55059 8.95271 9.18497 8.58708 9.18497 8.13771C9.18497 7.68833 9.55059 7.32274 10 7.32274Z" fill="#C5C7D2"/>
<path d="M10 10.514C7.88472 10.514 6.16382 12.2349 6.16382 14.3502C6.16382 14.7219 6.46515 15.0232 6.83683 15.0232H13.1632C13.5349 15.0232 13.8362 14.7219 13.8362 14.3502C13.8362 12.2349 12.1153 10.514 10 10.514ZM7.60214 13.6772C7.89651 12.63 8.85999 11.86 9.99995 11.86C11.1399 11.86 12.1035 12.6301 12.3978 13.6772H7.60214Z" fill="#C5C7D2"/>
<path d="M19.327 9.82699H18.7233C18.3955 5.5382 14.9618 2.10449 10.673 1.77668V1.17301C10.673 0.801328 10.3717 0.5 10 0.5C9.62832 0.5 9.32699 0.801328 9.32699 1.17301V1.77672C5.0382 2.10449 1.60449 5.5382 1.27672 9.82699H0.673008C0.301328 9.82699 0 10.1283 0 10.5C0 10.8717 0.301328 11.173 0.673008 11.173H1.27672C1.60449 15.4618 5.0382 18.8955 9.32703 19.2233V19.827C9.32703 20.1987 9.62836 20.5 10 20.5C10.3717 20.5 10.673 20.1987 10.673 19.827V19.2233C14.9618 18.8955 18.3955 15.4618 18.7234 11.173H19.3271C19.6987 11.173 20.0001 10.8717 20.0001 10.5C20 10.1283 19.6987 9.82699 19.327 9.82699ZM10.673 17.872V17.3248C10.673 16.9531 10.3717 16.6518 10 16.6518C9.62832 16.6518 9.32699 16.9531 9.32699 17.3248V17.872C5.78098 17.5509 2.9491 14.719 2.62797 11.173H3.17516C3.54684 11.173 3.84816 10.8716 3.84816 10.5C3.84816 10.1283 3.54684 9.82695 3.17516 9.82695H2.62801C2.9491 6.28094 5.78102 3.44906 9.32703 3.12793V3.67512C9.32703 4.0468 9.62836 4.34812 10 4.34812C10.3717 4.34812 10.673 4.0468 10.673 3.67512V3.12801C14.2191 3.4491 17.0509 6.28102 17.3721 9.82703H16.8249C16.4532 9.82703 16.1519 10.1284 16.1519 10.5C16.1519 10.8717 16.4532 11.173 16.8249 11.173H17.3721C17.0509 14.719 14.219 17.5509 10.673 17.872Z" fill="#C5C7D2"/>
</svg>
