<svg width="30" height="30" viewBox="0 0 30 30" fill="none" xmlns="http://www.w3.org/2000/svg">
<path fill-rule="evenodd" clip-rule="evenodd" d="M21.9822 23.75H8.75C4.60786 23.75 1.25 20.3921 1.25 16.25C1.25 12.6651 3.77006 9.65364 7.15265 8.92042L1.61612 3.38389L3.38388 1.61612L28.3839 26.6161L26.6161 28.3839L21.9822 23.75ZM9.31915 11.0869L9.23833 11.2269L8.54957 11.2539C5.87418 11.3589 3.75 13.5631 3.75 16.25C3.75 19.0114 5.98858 21.25 8.75 21.25H19.4822L9.31915 11.0869ZM27.0513 21.7835L25.2822 20.0144C25.8837 19.3493 26.25 18.4674 26.25 17.5C26.25 15.4289 24.5711 13.75 22.5 13.75C22.4608 13.7501 22.4608 13.7501 22.4219 13.7508L21.3422 13.7727L21.1637 12.7077C20.6629 9.72033 18.0639 7.5 15 7.5C14.3324 7.5 13.6833 7.60546 13.0714 7.80364L11.1558 5.888C12.3279 5.31462 13.6367 5 15 5C18.9483 5 22.3438 7.63203 23.4068 11.3153C26.4288 11.7545 28.75 14.3562 28.75 17.5C28.75 19.1578 28.1046 20.6648 27.0513 21.7835Z" fill="#FB595B"/>
</svg>
