<svg width="20" height="20" viewBox="0 0 20 20" fill="none" xmlns="http://www.w3.org/2000/svg">
    <path fill-rule="evenodd" clip-rule="evenodd" d="M8.44611 1.89661C8.53353 1.67105 8.67146 1.46137 8.85878 1.28537C9.50025 0.682668 10.4998 0.682668 11.1413 1.28537C11.329 1.46176 11.4671 1.67198 11.5545 1.8981C13.968 2.60292 15.8334 4.9507 15.8334 8.33334C15.8334 10.5205 16.2764 11.752 17.0962 12.6475C17.2993 12.8694 18.0133 13.5121 18.0934 13.5933L18.3334 13.8366V16.6784H13.2286C13.0201 17.4991 12.5063 18.2178 11.7399 18.6855C10.6716 19.3374 9.32847 19.3374 8.26019 18.6855C7.39176 18.1556 6.91155 17.5634 6.74 16.6784H1.66669V13.8366L1.90666 13.5933C1.9934 13.5059 2.70322 12.869 2.90499 12.6495C3.72417 11.7582 4.16669 10.5283 4.16669 8.33334C4.16669 4.941 6.02948 2.59837 8.44611 1.89661ZM8.4822 16.6784C8.59994 16.8974 8.80061 17.0628 9.12837 17.2628C9.66358 17.5894 10.3365 17.5894 10.8717 17.2628C11.1195 17.1116 11.3132 16.9115 11.4473 16.6784H8.4822ZM16.6667 14.5433C16.418 14.3145 16.0422 13.9644 15.8668 13.7729C14.755 12.5583 14.1667 10.9232 14.1667 8.33334C14.1667 5.19275 12.2164 3.34366 10 3.34366C7.77733 3.34366 5.83335 5.18326 5.83335 8.33334C5.83335 10.9315 5.24521 12.5662 4.13209 13.7773C3.95705 13.9677 3.58008 14.3176 3.33335 14.5437V15.0117H16.6667V14.5433Z"
          fill="currentColor"/>
</svg>
