<svg width="30" height="30" viewBox="0 0 30 30" fill="none" xmlns="http://www.w3.org/2000/svg">
<path fill-rule="evenodd" clip-rule="evenodd" d="M19.2952 4.97202L28.0519 19.9415C28.9632 21.4819 28.9828 23.3915 28.1035 24.9504C27.223 26.5111 25.5774 27.4803 23.7653 27.4979L6.21797 27.4979C4.42454 27.4833 2.77575 26.5111 1.89519 24.949C1.01536 23.3882 1.03591 21.4743 1.94425 19.947L10.7042 4.97209C11.5942 3.43994 13.2333 2.49793 15.0055 2.5C16.7776 2.50208 18.4161 3.448 19.2952 4.97202ZM12.864 6.23113L4.09757 21.2171C3.6428 21.9818 3.63251 22.9399 4.07302 23.7214C4.514 24.5037 5.33988 24.9906 6.22813 24.9979L23.7531 24.998C24.6608 24.9891 25.4851 24.5037 25.926 23.7221C26.3663 22.9416 26.3565 21.9856 25.8971 21.2091L17.1335 6.22778C16.6969 5.47092 15.883 5.00103 15.0026 5C14.1222 4.99897 13.3079 5.46692 12.864 6.23113ZM15.0004 22.4979C14.3098 22.4979 13.75 21.9383 13.75 21.2479C13.75 20.5576 14.3098 19.9979 15.0004 19.9979C15.691 19.9979 16.2508 20.5576 16.2508 21.2479C16.2508 21.9383 15.691 22.4979 15.0004 22.4979ZM13.7537 9.99793H16.2545V18.7479H13.7537V9.99793Z" fill="#ED9135"/>
</svg>
