<svg width="40" height="41" viewBox="0 0 40 41" fill="none" xmlns="http://www.w3.org/2000/svg">
<rect y="0.5" width="40" height="40" rx="4" fill="#FDCC5E"/>
<path d="M19.5666 20.0703C19.5666 21.1901 19.3686 22.1719 18.9728 23.0156C18.577 23.8594 18.0093 24.5104 17.2697 24.9688C16.5353 25.4271 15.6916 25.6562 14.7384 25.6562C13.7957 25.6562 12.9546 25.4297 12.215 24.9766C11.4754 24.5234 10.9025 23.8776 10.4963 23.0391C10.09 22.1953 9.88427 21.2266 9.87906 20.1328V19.5703C9.87906 18.4505 10.0796 17.4661 10.4806 16.6172C10.8869 15.763 11.4572 15.1094 12.1916 14.6562C12.9311 14.1979 13.7749 13.9688 14.7228 13.9688C15.6707 13.9688 16.5119 14.1979 17.2463 14.6562C17.9858 15.1094 18.5561 15.763 18.9572 16.6172C19.3634 17.4661 19.5666 18.4479 19.5666 19.5625V20.0703ZM17.1916 19.5547C17.1916 18.362 16.978 17.4557 16.5509 16.8359C16.1239 16.2161 15.5145 15.9062 14.7228 15.9062C13.9364 15.9062 13.3296 16.2135 12.9025 16.8281C12.4754 17.4375 12.2593 18.3333 12.2541 19.5156V20.0703C12.2541 21.2318 12.4676 22.1328 12.8947 22.7734C13.3218 23.4141 13.9364 23.7344 14.7384 23.7344C15.5249 23.7344 16.1291 23.4271 16.5509 22.8125C16.9728 22.1927 17.1864 21.2917 17.1916 20.1094V19.5547ZM21.5897 25.5V14.125H25.5741C26.9543 14.125 28.0011 14.3906 28.7147 14.9219C29.4282 15.4479 29.785 16.2214 29.785 17.2422C29.785 17.7995 29.6418 18.2917 29.3553 18.7188C29.0689 19.1406 28.6704 19.4505 28.16 19.6484C28.7433 19.7943 29.2017 20.0885 29.535 20.5312C29.8735 20.974 30.0428 21.5156 30.0428 22.1562C30.0428 23.25 29.6939 24.0781 28.9959 24.6406C28.298 25.2031 27.3032 25.4896 26.0116 25.5H21.5897ZM23.9334 20.5469V23.6172H25.9412C26.4933 23.6172 26.923 23.487 27.2303 23.2266C27.5428 22.9609 27.6991 22.5964 27.6991 22.1328C27.6991 21.0911 27.16 20.5625 26.0819 20.5469H23.9334ZM23.9334 18.8906H25.6678C26.8501 18.8698 27.4412 18.3984 27.4412 17.4766C27.4412 16.9609 27.2902 16.5911 26.9881 16.3672C26.6912 16.138 26.2199 16.0234 25.5741 16.0234H23.9334V18.8906Z" fill="#252A32"/>
</svg>
