<svg width="36" height="35" viewBox="0 0 36 35" fill="none" xmlns="http://www.w3.org/2000/svg">
<path d="M18 17.1478C20.0853 17.1478 21.7817 15.4514 21.7817 13.3661C21.7817 11.2809 20.0853 9.58441 18 9.58441C15.9147 9.58441 14.2182 11.2809 14.2182 13.3661C14.2182 15.4513 15.9147 17.1478 18 17.1478ZM18 11.9398C18.7865 11.9398 19.4263 12.5796 19.4263 13.3661C19.4263 14.1525 18.7865 14.7922 18 14.7922C17.2135 14.7922 16.5737 14.1524 16.5737 13.366C16.5737 12.5796 17.2135 11.9398 18 11.9398Z" fill="#6689FC"/>
<path d="M18.0001 17.5245C14.2983 17.5245 11.2867 20.536 11.2867 24.2378C11.2867 24.8883 11.814 25.4156 12.4644 25.4156H23.5357C24.1861 25.4156 24.7134 24.8883 24.7134 24.2378C24.7134 20.5361 21.7018 17.5245 18.0001 17.5245ZM13.8037 23.0601C14.3189 21.2276 16.005 19.88 17.9999 19.88C19.9948 19.88 21.6811 21.2276 22.1961 23.0601H13.8037Z" fill="#6689FC"/>
<path d="M34.3222 16.3222H33.2657C32.6921 8.81686 26.6831 2.80786 19.1777 2.23419V1.17776C19.1778 0.527324 18.6504 0 18 0C17.3496 0 16.8222 0.527324 16.8222 1.17776V2.23426C9.31686 2.80786 3.30786 8.81686 2.73426 16.3222H1.67776C1.02732 16.3222 0.5 16.8496 0.5 17.5C0.5 18.1504 1.02732 18.6778 1.67776 18.6778H2.73426C3.30786 26.1831 9.31686 32.1921 16.8223 32.7658V33.8223C16.8223 34.4727 17.3496 35.0001 18.0001 35.0001C18.6505 35.0001 19.1778 34.4727 19.1778 33.8223V32.7658C26.6832 32.1922 32.6922 26.1832 33.2659 18.6778H34.3224C34.9728 18.6778 35.5001 18.1504 35.5001 17.5C35.5 16.8496 34.9727 16.3222 34.3222 16.3222ZM19.1778 30.401V29.4434C19.1778 28.793 18.6504 28.2656 18 28.2656C17.3496 28.2656 16.8222 28.793 16.8222 29.4434V30.401C10.6167 29.8391 5.66093 24.8832 5.09895 18.6777H6.05652C6.70696 18.6777 7.23429 18.1504 7.23429 17.4999C7.23429 16.8495 6.70696 16.3222 6.05652 16.3222H5.09901C5.66093 10.1166 10.6168 5.16086 16.8223 4.59888V5.55645C16.8223 6.20689 17.3496 6.73422 18.0001 6.73422C18.6505 6.73422 19.1778 6.20689 19.1778 5.55645V4.59901C25.3834 5.16093 30.3391 10.1168 30.9011 16.3223H29.9435C29.2931 16.3223 28.7658 16.8496 28.7658 17.5001C28.7658 18.1505 29.2931 18.6778 29.9435 18.6778H30.9011C30.3391 24.8832 25.3832 29.8391 19.1778 30.401Z" fill="#6689FC"/>
</svg>
