<svg width="40" height="40" viewBox="0 0 40 40" fill="none" xmlns="http://www.w3.org/2000/svg">
<g>
<path d="M20 19.5975C22.3832 19.5975 24.322 17.6587 24.322 15.2756C24.322 12.8924 22.3832 10.9536 20 10.9536C17.6168 10.9536 15.678 12.8924 15.678 15.2756C15.678 17.6586 17.6168 19.5975 20 19.5975ZM20 13.6455C20.8988 13.6455 21.63 14.3767 21.63 15.2755C21.63 16.1742 20.8988 16.9054 20 16.9054C19.1012 16.9054 18.3699 16.1742 18.3699 15.2754C18.3699 14.3767 19.1012 13.6455 20 13.6455Z" fill="#4368E0"/>
<path d="M20.0001 20.028C15.7694 20.028 12.3276 23.4698 12.3276 27.7004C12.3276 28.4437 12.9303 29.0464 13.6737 29.0464H26.3265C27.0698 29.0464 27.6725 28.4437 27.6725 27.7004C27.6725 23.4698 24.2306 20.028 20.0001 20.028ZM15.2043 26.3544C15.793 24.2601 17.72 22.72 19.9999 22.72C22.2798 22.72 24.2069 24.2601 24.7955 26.3544H15.2043Z" fill="#4368E0"/>
<path d="M38.654 18.654H37.4466C36.791 10.0764 29.9236 3.20898 21.3459 2.55336V1.34602C21.346 0.602656 20.7434 0 20 0C19.2566 0 18.654 0.602656 18.654 1.34602V2.55344C10.0764 3.20898 3.20898 10.0764 2.55344 18.654H1.34602C0.602656 18.654 0 19.2566 0 20C0 20.7434 0.602656 21.346 1.34602 21.346H2.55344C3.20898 29.9236 10.0764 36.791 18.6541 37.4466V38.6541C18.6541 39.3974 19.2567 40.0001 20.0001 40.0001C20.7434 40.0001 21.3461 39.3974 21.3461 38.6541V37.4466C29.9237 36.7911 36.7911 29.9237 37.4467 21.346H38.6541C39.3975 21.346 40.0002 20.7434 40.0002 20C40 19.2566 39.3973 18.654 38.654 18.654ZM21.346 34.744V33.6496C21.346 32.9062 20.7434 32.3036 20 32.3036C19.2566 32.3036 18.654 32.9062 18.654 33.6496V34.744C11.562 34.1018 5.8982 28.438 5.25594 21.3459H6.35031C7.09367 21.3459 7.69633 20.7433 7.69633 19.9999C7.69633 19.2566 7.09367 18.6539 6.35031 18.6539H5.25602C5.8982 11.5619 11.562 5.89813 18.6541 5.25586V6.35023C18.6541 7.09359 19.2567 7.69625 20.0001 7.69625C20.7434 7.69625 21.3461 7.09359 21.3461 6.35023V5.25602C28.4381 5.8982 34.1019 11.562 34.7441 18.6541H33.6498C32.9064 18.6541 32.3037 19.2567 32.3037 20.0001C32.3037 20.7434 32.9064 21.3461 33.6498 21.3461H34.7441C34.1018 28.438 28.438 34.1018 21.346 34.744Z" fill="#4368E0"/>
</g>
<defs>
<clipPath id="clip0">
<rect width="40" height="40" fill="white"/>
</clipPath>
</defs>
</svg>
