<svg width="20" height="20" viewBox="0 0 20 20" fill="none" xmlns="http://www.w3.org/2000/svg">
<path d="M10 9.79876C11.1916 9.79876 12.161 8.82935 12.161 7.63778C12.161 6.44622 11.1916 5.47681 10 5.47681C8.80841 5.47681 7.83899 6.44622 7.83899 7.63778C7.83899 8.82931 8.80841 9.79876 10 9.79876ZM10 6.82274C10.4494 6.82274 10.815 7.18837 10.815 7.63774C10.815 8.08712 10.4494 8.45271 10 8.45271C9.55059 8.45271 9.18497 8.08708 9.18497 7.63771C9.18497 7.18833 9.55059 6.82274 10 6.82274Z" fill="#C5C7D2"/>
<path d="M10 10.014C7.88472 10.014 6.16382 11.7349 6.16382 13.8502C6.16382 14.2219 6.46515 14.5232 6.83683 14.5232H13.1632C13.5349 14.5232 13.8362 14.2219 13.8362 13.8502C13.8362 11.7349 12.1153 10.014 10 10.014ZM7.60214 13.1772C7.89651 12.13 8.85999 11.36 9.99995 11.36C11.1399 11.36 12.1035 12.1301 12.3978 13.1772H7.60214Z" fill="#C5C7D2"/>
<path d="M19.327 9.32699H18.7233C18.3955 5.0382 14.9618 1.60449 10.673 1.27668V0.673008C10.673 0.301328 10.3717 0 10 0C9.62832 0 9.32699 0.301328 9.32699 0.673008V1.27672C5.0382 1.60449 1.60449 5.0382 1.27672 9.32699H0.673008C0.301328 9.32699 0 9.62832 0 10C0 10.3717 0.301328 10.673 0.673008 10.673H1.27672C1.60449 14.9618 5.0382 18.3955 9.32703 18.7233V19.327C9.32703 19.6987 9.62836 20 10 20C10.3717 20 10.673 19.6987 10.673 19.327V18.7233C14.9618 18.3955 18.3955 14.9618 18.7234 10.673H19.3271C19.6987 10.673 20.0001 10.3717 20.0001 10C20 9.62832 19.6987 9.32699 19.327 9.32699ZM10.673 17.372V16.8248C10.673 16.4531 10.3717 16.1518 10 16.1518C9.62832 16.1518 9.32699 16.4531 9.32699 16.8248V17.372C5.78098 17.0509 2.9491 14.219 2.62797 10.673H3.17516C3.54684 10.673 3.84816 10.3716 3.84816 9.99996C3.84816 9.62828 3.54684 9.32695 3.17516 9.32695H2.62801C2.9491 5.78094 5.78102 2.94906 9.32703 2.62793V3.17512C9.32703 3.5468 9.62836 3.84812 10 3.84812C10.3717 3.84812 10.673 3.5468 10.673 3.17512V2.62801C14.2191 2.9491 17.0509 5.78102 17.3721 9.32703H16.8249C16.4532 9.32703 16.1519 9.62836 16.1519 10C16.1519 10.3717 16.4532 10.673 16.8249 10.673H17.3721C17.0509 14.219 14.219 17.0509 10.673 17.372Z" fill="#C5C7D2"/>
</svg>
