<svg width="34" height="34" viewBox="0 0 34 34" fill="none" xmlns="http://www.w3.org/2000/svg">
<path fill-rule="evenodd" clip-rule="evenodd" d="M6.2663 3.7675C6.53745 3.70381 6.82279 3.6703 7.11879 3.67094L30.4012 5.33397C32.4874 5.37081 34.5285 7.10079 33.5209 9.34847C33.3247 9.78614 32.4387 11.5685 31.03 14.373C30.4549 15.518 29.8647 16.6899 29.2745 17.8598C28.9401 18.5226 28.9401 18.5226 28.704 18.9901C28.5959 19.204 28.5538 19.2874 28.5284 19.3376C28.0495 20.5694 27.0378 21.521 25.7741 21.922L25.5281 22H8.73004L8.70619 21.9988L5.41597 21.998C4.46889 22.045 3.71165 22.8022 3.66671 23.6667L3.66372 25.2336C3.72094 26.1874 4.48339 26.949 5.33337 27H5.61788C6.30428 25.0581 8.15634 23.6667 10.3334 23.6667C12.5104 23.6667 14.3625 25.0581 15.0489 27H18.9512C19.6376 25.0581 21.4897 23.6667 23.6667 23.6667C26.4281 23.6667 28.6667 25.9053 28.6667 28.6667C28.6667 31.4281 26.4281 33.6667 23.6667 33.6667C21.4897 33.6667 19.6376 32.2754 18.9512 30.3334H15.0489C14.3625 32.2754 12.5104 33.6667 10.3334 33.6667C8.15556 33.6667 6.30294 32.2744 5.61714 30.3313L5.23877 30.3307C2.60463 30.1809 0.494743 28.0733 0.333374 25.3334L0.335422 23.5841C0.467037 20.9314 2.58397 18.8093 5.31658 18.6676L3.68346 7.23574L3.66671 7.00004C3.66671 5.92181 3.11815 4.64184 2.4882 4.01189C2.32487 3.84856 1.59745 3.66671 0.333374 3.66671V0.333374C2.40263 0.333374 3.89743 0.707075 4.84522 1.65486C5.40364 2.21328 5.89461 2.94826 6.2663 3.7675ZM8.85483 18.6667H24.9491C25.1714 18.5456 25.3443 18.3463 25.4313 18.1037L25.5126 17.9148C25.5518 17.8372 25.5518 17.8372 25.7286 17.4873C25.9644 17.0205 25.9644 17.0205 26.2984 16.3585C26.8878 15.1901 27.4772 14.0198 28.0272 12.9249L28.0513 12.8769C29.0148 10.9586 29.7508 9.48391 30.1557 8.65825L7.01714 7.00127L8.6503 18.4334C8.66626 18.5463 8.74781 18.637 8.85483 18.6667ZM23.6667 30.3334C24.5872 30.3334 25.3334 29.5872 25.3334 28.6667C25.3334 27.7462 24.5872 27 23.6667 27C22.7462 27 22 27.7462 22 28.6667C22 29.5872 22.7462 30.3334 23.6667 30.3334ZM10.3334 30.3334C11.2538 30.3334 12 29.5872 12 28.6667C12 27.7462 11.2538 27 10.3334 27C9.4129 27 8.66671 27.7462 8.66671 28.6667C8.66671 29.5872 9.4129 30.3334 10.3334 30.3334Z" fill="#4368E0"/>
</svg>
