<svg width="20" height="19" viewBox="0 0 20 19" fill="none" xmlns="http://www.w3.org/2000/svg">
<path fill-rule="evenodd" clip-rule="evenodd" d="M9.99998 18.6667C4.93737 18.6667 0.833313 14.5626 0.833313 9.50001C0.833313 4.4374 4.93737 0.333344 9.99998 0.333344C15.0626 0.333344 19.1666 4.4374 19.1666 9.50001C19.1666 14.5626 15.0626 18.6667 9.99998 18.6667ZM9.99998 17C14.1421 17 17.5 13.6421 17.5 9.50001C17.5 5.35787 14.1421 2.00001 9.99998 2.00001C5.85784 2.00001 2.49998 5.35787 2.49998 9.50001C2.49998 13.6421 5.85784 17 9.99998 17ZM8.33331 10.8215L12.7441 6.41075L13.9226 7.58926L8.33331 13.1785L5.24406 10.0893L6.42257 8.91075L8.33331 10.8215Z" fill="#C5C7D2"/>
</svg>
