<svg width="18" height="18" viewBox="0 0 18 18" fill="none" xmlns="http://www.w3.org/2000/svg">
<path fill-rule="evenodd" clip-rule="evenodd" d="M11.3353 4.37106L6.24675 9.458C5.90912 9.75661 5.70025 10.1744 5.66666 10.5565V12.3358L7.38665 12.3374C7.83184 12.3058 8.24624 12.0987 8.57899 11.718L13.6306 6.66644L11.3353 4.37106ZM12.514 3.19274L14.8091 5.48793L15.554 4.74302C15.6262 4.67085 15.6667 4.57297 15.6667 4.47091C15.6667 4.36884 15.6262 4.27096 15.554 4.19879L13.8009 2.44572C13.7296 2.37379 13.6324 2.33334 13.5311 2.33334C13.4298 2.33334 13.3327 2.37379 13.2613 2.44572L12.514 3.19274ZM17.3333 9.83334V15.6667C17.3333 16.5871 16.5871 17.3333 15.6667 17.3333H2.33333C1.41286 17.3333 0.666664 16.5871 0.666664 15.6667V2.33334C0.666664 1.41286 1.41286 0.666672 2.33333 0.666672H8.16666V2.33334H2.33333V15.6667H15.6667V9.83334H17.3333ZM13.5311 0.666672C14.0767 0.666672 14.5998 0.884522 14.9818 1.26952L16.7325 3.02027C17.1172 3.405 17.3334 3.92681 17.3334 4.47091C17.3334 5.015 17.1172 5.53681 16.7325 5.92154L9.79792 12.8531C9.21585 13.5246 8.39075 13.9371 7.4455 14.0019H4V13.1686L4.0027 10.4894C4.0737 9.6107 4.48222 8.79362 5.10541 8.24452L12.0795 1.27053C12.4637 0.88403 12.9861 0.666672 13.5311 0.666672Z" fill="currentColor"/>
</svg>
