<svg width="20" height="20" viewBox="0 0 20 20" fill="none" xmlns="http://www.w3.org/2000/svg">
<path fill-rule="evenodd" clip-rule="evenodd" d="M4.73797 12.3362C5.08012 12.8046 5.46127 13.2811 5.88123 13.7658C4.32938 14.1154 3.33334 14.6114 3.33334 15C3.33334 15.6725 6.31596 16.6667 10 16.6667C13.6841 16.6667 16.6667 15.6725 16.6667 15C16.6667 14.6114 15.6706 14.1154 14.1188 13.7658C14.5387 13.2811 14.9199 12.8046 15.262 12.3362C17.1361 12.9049 18.3333 13.817 18.3333 15C18.3333 17.089 14.6002 18.3334 10 18.3334C5.39978 18.3334 1.66667 17.089 1.66667 15C1.66667 13.817 2.86395 12.9049 4.73797 12.3362ZM10.9135 15.2129L10 16.0105L9.08649 15.2129C5.82369 12.3639 4.16667 9.8427 4.16667 7.50002C4.16667 4.18453 6.75292 1.66669 10 1.66669C13.2471 1.66669 15.8333 4.18453 15.8333 7.50002C15.8333 9.8427 14.1763 12.3639 10.9135 15.2129ZM14.1667 7.50002C14.1667 5.11515 12.3365 3.33335 10 3.33335C7.66354 3.33335 5.83334 5.11515 5.83334 7.50002C5.83334 9.20582 7.18944 11.3049 10 13.7967C12.8106 11.3049 14.1667 9.20582 14.1667 7.50002ZM10 5.00002C11.3807 5.00002 12.5 6.11931 12.5 7.50002C12.5 8.88073 11.3807 10 10 10C8.61929 10 7.50001 8.88073 7.50001 7.50002C7.50001 6.11931 8.61929 5.00002 10 5.00002ZM10 6.66669C9.53977 6.66669 9.16667 7.03978 9.16667 7.50002C9.16667 7.96026 9.53977 8.33335 10 8.33335C10.4602 8.33335 10.8333 7.96026 10.8333 7.50002C10.8333 7.03978 10.4602 6.66669 10 6.66669Z" fill="#C5C7D2"/>
</svg>
