<svg width="21" height="21" viewBox="0 0 21 21" fill="none" xmlns="http://www.w3.org/2000/svg">
<path d="M20.2391 5.98913L14.7609 0.51087C14.413 0.163043 13.8696 0.163043 13.5217 0.51087C13.4565 0.576087 11.8696 2.20652 12.4783 4.33696L10 6.81522C8.63043 6.40217 5.13043 5.68478 2.54348 8.27174C2.19565 8.61957 2.19565 9.16304 2.54348 9.51087L6.28261 13.25L0.76087 18.7717C0.413043 19.1196 0.413043 19.663 0.76087 20.0109C0.934783 20.163 1.15217 20.25 1.36957 20.25C1.58696 20.25 1.80435 20.163 1.97826 19.9891L7.5 14.4674L11.2391 18.2065C11.413 18.3804 11.6304 18.4674 11.8478 18.4674C12.0652 18.4674 12.2826 18.3804 12.4565 18.2065C15.0435 15.6196 14.3261 12.0978 13.913 10.75L16.3913 8.27174C18.5217 8.88043 20.1304 7.29348 20.2174 7.22826C20.587 6.88043 20.587 6.33696 20.2391 5.98913ZM16.5652 6.46739C16.2391 6.31522 15.8478 6.38043 15.587 6.6413L12.3261 9.90217C12.087 10.1413 12 10.5326 12.1304 10.837C12.1304 10.837 12.5217 11.8152 12.587 13.0761C12.6522 14.337 12.3913 15.4022 11.8043 16.2935L8.1087 12.6413L4.41304 8.94565C6.73913 7.38043 9.73913 8.55435 9.86957 8.61957C10.1957 8.75 10.5652 8.68478 10.8261 8.42391L14.087 5.16304C14.3478 4.90217 14.413 4.51087 14.2609 4.18478C13.9565 3.53261 14.0652 2.94565 14.2609 2.48913L18.2609 6.48913C17.8261 6.66304 17.2174 6.77174 16.5652 6.46739ZM11.413 11.1848C11.4348 11.25 11.7174 11.8804 11.6957 12.5543C11.6957 12.9674 11.3478 13.2935 10.9348 13.2935H10.913C10.5 13.2717 10.1522 12.9239 10.1739 12.5109C10.1739 12.2283 10.0652 11.9022 10.0217 11.7935C9.84783 11.4022 10.0217 10.9674 10.413 10.7935C10.8043 10.6413 11.2609 10.7935 11.413 11.1848Z" fill="#636A7B"/>
</svg>
