<svg width="38" height="38" viewBox="0 0 38 38" fill="none" xmlns="http://www.w3.org/2000/svg">
<path fill-rule="evenodd" clip-rule="evenodd" d="M18.9998 37.3334C8.87462 37.3334 0.666504 29.1253 0.666504 19.0001C0.666504 8.87486 8.87462 0.666748 18.9998 0.666748C29.1251 0.666748 37.3332 8.87486 37.3332 19.0001C37.3332 29.1253 29.1251 37.3334 18.9998 37.3334ZM18.9998 34.0001C27.2841 34.0001 33.9998 27.2844 33.9998 19.0001C33.9998 10.7158 27.2841 4.00008 18.9998 4.00008C10.7156 4.00008 3.99984 10.7158 3.99984 19.0001C3.99984 27.2844 10.7156 34.0001 18.9998 34.0001ZM20.6665 17.3334H27.3332V20.6667H20.6665V27.3334H17.3332V20.6667H10.6665V17.3334H17.3332V10.6667H20.6665V17.3334Z" fill="#636A7B"/>
</svg>
