<svg width="358" height="239" viewBox="0 0 358 239" fill="none" xmlns="http://www.w3.org/2000/svg">
<path opacity="0.05" d="M258.841 312.09C311.629 312.09 361.22 272.842 361.22 216.481H289.051C289.051 225.87 279.279 239.921 258.841 239.921V312.09ZM361.22 216.481C361.22 160.121 311.629 120.873 258.841 120.873V193.042C279.279 193.042 289.051 207.093 289.051 216.481H361.22ZM258.841 120.873C206.053 120.873 156.463 160.121 156.463 216.481H228.632C228.632 207.093 238.403 193.042 258.841 193.042V120.873ZM156.463 216.481C156.463 272.842 206.053 312.09 258.841 312.09V239.921C238.403 239.921 228.632 225.87 228.632 216.481H156.463ZM258.841 277.629C290.432 277.629 322.839 253.809 322.839 216.481H250.67C250.67 212.095 252.728 208.919 254.471 207.354C256.152 205.845 257.798 205.46 258.841 205.46V277.629ZM322.839 216.481C322.839 179.153 290.432 155.334 258.841 155.334V227.503C257.798 227.503 256.152 227.118 254.471 225.609C252.728 224.044 250.67 220.868 250.67 216.481H322.839ZM258.841 155.334C227.25 155.334 194.844 179.153 194.844 216.481H267.013C267.013 220.868 264.954 224.044 263.212 225.609C261.531 227.118 259.885 227.503 258.841 227.503V155.334ZM194.844 216.481C194.844 253.809 227.25 277.629 258.841 277.629V205.46C259.885 205.46 261.531 205.845 263.212 207.354C264.954 208.919 267.013 212.095 267.013 216.481H194.844Z" fill="#449CF4"/>
<g opacity="0.1">
<path fill-rule="evenodd" clip-rule="evenodd" d="M251.729 77.752C252.379 77.752 252.91 77.2764 252.91 76.6915C252.91 76.1051 252.379 75.6311 251.729 75.6311C251.078 75.6311 250.546 76.1051 250.546 76.6915C250.546 77.2764 251.078 77.752 251.729 77.752Z" fill="#449CF4"/>
<path fill-rule="evenodd" clip-rule="evenodd" d="M263.556 77.752C264.209 77.752 264.739 77.2764 264.739 76.6915C264.739 76.1051 264.209 75.6311 263.556 75.6311C262.907 75.6311 262.377 76.1051 262.377 76.6915C262.377 77.2764 262.907 77.752 263.556 77.752Z" fill="#449CF4"/>
<path fill-rule="evenodd" clip-rule="evenodd" d="M275.387 77.752C276.038 77.752 276.568 77.2764 276.568 76.6915C276.568 76.1051 276.038 75.6311 275.387 75.6311C274.735 75.6311 274.206 76.1051 274.206 76.6915C274.206 77.2764 274.735 77.752 275.387 77.752Z" fill="#449CF4"/>
<path fill-rule="evenodd" clip-rule="evenodd" d="M287.216 77.752C287.867 77.752 288.397 77.2764 288.397 76.6915C288.397 76.1051 287.867 75.6311 287.216 75.6311C286.566 75.6311 286.035 76.1051 286.035 76.6915C286.035 77.2764 286.566 77.752 287.216 77.752Z" fill="#449CF4"/>
<path fill-rule="evenodd" clip-rule="evenodd" d="M299.046 77.752C299.696 77.752 300.226 77.2764 300.226 76.6915C300.226 76.1051 299.696 75.6311 299.046 75.6311C298.395 75.6311 297.864 76.1051 297.864 76.6915C297.864 77.2764 298.395 77.752 299.046 77.752Z" fill="#449CF4"/>
<path fill-rule="evenodd" clip-rule="evenodd" d="M310.875 77.752C311.526 77.752 312.056 77.2764 312.056 76.6915C312.056 76.1051 311.526 75.6311 310.875 75.6311C310.224 75.6311 309.694 76.1051 309.694 76.6915C309.694 77.2764 310.224 77.752 310.875 77.752Z" fill="#449CF4"/>
<path fill-rule="evenodd" clip-rule="evenodd" d="M251.729 88.3715C252.379 88.3715 252.91 87.8975 252.91 87.3111C252.91 86.7262 252.379 86.2506 251.729 86.2506C251.078 86.2506 250.546 86.7262 250.546 87.3111C250.546 87.8975 251.078 88.3715 251.729 88.3715Z" fill="#449CF4"/>
<path fill-rule="evenodd" clip-rule="evenodd" d="M263.556 88.3715C264.209 88.3715 264.739 87.8975 264.739 87.3111C264.739 86.7262 264.209 86.2506 263.556 86.2506C262.907 86.2506 262.377 86.7262 262.377 87.3111C262.377 87.8975 262.907 88.3715 263.556 88.3715Z" fill="#449CF4"/>
<path fill-rule="evenodd" clip-rule="evenodd" d="M275.387 88.3715C276.038 88.3715 276.568 87.8975 276.568 87.3111C276.568 86.7262 276.038 86.2506 275.387 86.2506C274.735 86.2506 274.206 86.7262 274.206 87.3111C274.206 87.8975 274.735 88.3715 275.387 88.3715Z" fill="#449CF4"/>
<path fill-rule="evenodd" clip-rule="evenodd" d="M287.216 88.3715C287.867 88.3715 288.397 87.8975 288.397 87.3111C288.397 86.7262 287.867 86.2506 287.216 86.2506C286.566 86.2506 286.035 86.7262 286.035 87.3111C286.035 87.8975 286.566 88.3715 287.216 88.3715Z" fill="#449CF4"/>
<path fill-rule="evenodd" clip-rule="evenodd" d="M299.046 88.3715C299.696 88.3715 300.226 87.8975 300.226 87.3111C300.226 86.7262 299.696 86.2506 299.046 86.2506C298.395 86.2506 297.864 86.7262 297.864 87.3111C297.864 87.8975 298.395 88.3715 299.046 88.3715Z" fill="#449CF4"/>
<path fill-rule="evenodd" clip-rule="evenodd" d="M310.875 88.3715C311.526 88.3715 312.056 87.8975 312.056 87.3111C312.056 86.7262 311.526 86.2506 310.875 86.2506C310.224 86.2506 309.694 86.7262 309.694 87.3111C309.694 87.8975 310.224 88.3715 310.875 88.3715Z" fill="#449CF4"/>
<path fill-rule="evenodd" clip-rule="evenodd" d="M251.729 98.994C252.379 98.994 252.91 98.5201 252.91 97.9336C252.91 97.3472 252.379 96.8732 251.729 96.8732C251.078 96.8732 250.546 97.3472 250.546 97.9336C250.546 98.5201 251.078 98.994 251.729 98.994Z" fill="#449CF4"/>
<path fill-rule="evenodd" clip-rule="evenodd" d="M263.556 98.994C264.209 98.994 264.739 98.5201 264.739 97.9336C264.739 97.3472 264.209 96.8732 263.556 96.8732C262.907 96.8732 262.377 97.3472 262.377 97.9336C262.377 98.5201 262.907 98.994 263.556 98.994Z" fill="#449CF4"/>
<path fill-rule="evenodd" clip-rule="evenodd" d="M275.387 98.994C276.038 98.994 276.568 98.5201 276.568 97.9336C276.568 97.3472 276.038 96.8732 275.387 96.8732C274.735 96.8732 274.206 97.3472 274.206 97.9336C274.206 98.5201 274.735 98.994 275.387 98.994Z" fill="#449CF4"/>
<path fill-rule="evenodd" clip-rule="evenodd" d="M287.216 98.994C287.867 98.994 288.397 98.5201 288.397 97.9336C288.397 97.3472 287.867 96.8732 287.216 96.8732C286.566 96.8732 286.035 97.3472 286.035 97.9336C286.035 98.5201 286.566 98.994 287.216 98.994Z" fill="#449CF4"/>
<path fill-rule="evenodd" clip-rule="evenodd" d="M299.046 98.994C299.696 98.994 300.226 98.5201 300.226 97.9336C300.226 97.3472 299.696 96.8732 299.046 96.8732C298.395 96.8732 297.864 97.3472 297.864 97.9336C297.864 98.5201 298.395 98.994 299.046 98.994Z" fill="#449CF4"/>
<path fill-rule="evenodd" clip-rule="evenodd" d="M310.875 98.994C311.526 98.994 312.056 98.5201 312.056 97.9336C312.056 97.3472 311.526 96.8732 310.875 96.8732C310.224 96.8732 309.694 97.3472 309.694 97.9336C309.694 98.5201 310.224 98.994 310.875 98.994Z" fill="#449CF4"/>
<path fill-rule="evenodd" clip-rule="evenodd" d="M251.729 109.615C252.379 109.615 252.91 109.14 252.91 108.555C252.91 107.97 252.379 107.496 251.729 107.496C251.078 107.496 250.546 107.97 250.546 108.555C250.546 109.14 251.078 109.615 251.729 109.615Z" fill="#449CF4"/>
<path fill-rule="evenodd" clip-rule="evenodd" d="M263.556 109.615C264.209 109.615 264.739 109.14 264.739 108.555C264.739 107.97 264.209 107.496 263.556 107.496C262.907 107.496 262.377 107.97 262.377 108.555C262.377 109.14 262.907 109.615 263.556 109.615Z" fill="#449CF4"/>
<path fill-rule="evenodd" clip-rule="evenodd" d="M275.387 109.615C276.038 109.615 276.568 109.14 276.568 108.555C276.568 107.97 276.038 107.496 275.387 107.496C274.735 107.496 274.206 107.97 274.206 108.555C274.206 109.14 274.735 109.615 275.387 109.615Z" fill="#449CF4"/>
<path fill-rule="evenodd" clip-rule="evenodd" d="M287.216 109.615C287.867 109.615 288.397 109.14 288.397 108.555C288.397 107.97 287.867 107.496 287.216 107.496C286.566 107.496 286.035 107.97 286.035 108.555C286.035 109.14 286.566 109.615 287.216 109.615Z" fill="#449CF4"/>
<path fill-rule="evenodd" clip-rule="evenodd" d="M299.046 109.615C299.696 109.615 300.226 109.14 300.226 108.555C300.226 107.97 299.696 107.496 299.046 107.496C298.395 107.496 297.864 107.97 297.864 108.555C297.864 109.14 298.395 109.615 299.046 109.615Z" fill="#449CF4"/>
<path fill-rule="evenodd" clip-rule="evenodd" d="M310.875 109.615C311.526 109.615 312.056 109.14 312.056 108.555C312.056 107.97 311.526 107.496 310.875 107.496C310.224 107.496 309.694 107.97 309.694 108.555C309.694 109.14 310.224 109.615 310.875 109.615Z" fill="#449CF4"/>
<path fill-rule="evenodd" clip-rule="evenodd" d="M251.729 120.236C252.379 120.236 252.91 119.762 252.91 119.176C252.91 118.591 252.379 118.115 251.729 118.115C251.078 118.115 250.546 118.591 250.546 119.176C250.546 119.762 251.078 120.236 251.729 120.236Z" fill="#449CF4"/>
<path fill-rule="evenodd" clip-rule="evenodd" d="M263.556 120.236C264.209 120.236 264.739 119.762 264.739 119.176C264.739 118.591 264.209 118.115 263.556 118.115C262.907 118.115 262.377 118.591 262.377 119.176C262.377 119.762 262.907 120.236 263.556 120.236Z" fill="#449CF4"/>
<path fill-rule="evenodd" clip-rule="evenodd" d="M275.387 120.236C276.038 120.236 276.568 119.762 276.568 119.176C276.568 118.591 276.038 118.115 275.387 118.115C274.735 118.115 274.206 118.591 274.206 119.176C274.206 119.762 274.735 120.236 275.387 120.236Z" fill="#449CF4"/>
<path fill-rule="evenodd" clip-rule="evenodd" d="M287.216 120.236C287.867 120.236 288.397 119.762 288.397 119.176C288.397 118.591 287.867 118.115 287.216 118.115C286.566 118.115 286.035 118.591 286.035 119.176C286.035 119.762 286.566 120.236 287.216 120.236Z" fill="#449CF4"/>
<path fill-rule="evenodd" clip-rule="evenodd" d="M299.046 120.236C299.696 120.236 300.226 119.762 300.226 119.176C300.226 118.591 299.696 118.115 299.046 118.115C298.395 118.115 297.864 118.591 297.864 119.176C297.864 119.762 298.395 120.236 299.046 120.236Z" fill="#449CF4"/>
<path fill-rule="evenodd" clip-rule="evenodd" d="M310.875 120.236C311.526 120.236 312.056 119.762 312.056 119.176C312.056 118.591 311.526 118.115 310.875 118.115C310.224 118.115 309.694 118.591 309.694 119.176C309.694 119.762 310.224 120.236 310.875 120.236Z" fill="#449CF4"/>
<path fill-rule="evenodd" clip-rule="evenodd" d="M251.729 130.859C252.379 130.859 252.91 130.385 252.91 129.798C252.91 129.212 252.379 128.738 251.729 128.738C251.078 128.738 250.546 129.212 250.546 129.798C250.546 130.385 251.078 130.859 251.729 130.859Z" fill="#449CF4"/>
<path fill-rule="evenodd" clip-rule="evenodd" d="M263.556 130.859C264.209 130.859 264.739 130.385 264.739 129.798C264.739 129.212 264.209 128.738 263.556 128.738C262.907 128.738 262.377 129.212 262.377 129.798C262.377 130.385 262.907 130.859 263.556 130.859Z" fill="#449CF4"/>
<path fill-rule="evenodd" clip-rule="evenodd" d="M275.387 130.859C276.038 130.859 276.568 130.385 276.568 129.798C276.568 129.212 276.038 128.738 275.387 128.738C274.735 128.738 274.206 129.212 274.206 129.798C274.206 130.385 274.735 130.859 275.387 130.859Z" fill="#449CF4"/>
<path fill-rule="evenodd" clip-rule="evenodd" d="M287.216 130.859C287.867 130.859 288.397 130.385 288.397 129.798C288.397 129.212 287.867 128.738 287.216 128.738C286.566 128.738 286.035 129.212 286.035 129.798C286.035 130.385 286.566 130.859 287.216 130.859Z" fill="#449CF4"/>
<path fill-rule="evenodd" clip-rule="evenodd" d="M299.046 130.859C299.696 130.859 300.226 130.385 300.226 129.798C300.226 129.212 299.696 128.738 299.046 128.738C298.395 128.738 297.864 129.212 297.864 129.798C297.864 130.385 298.395 130.859 299.046 130.859Z" fill="#449CF4"/>
<path fill-rule="evenodd" clip-rule="evenodd" d="M310.875 130.859C311.526 130.859 312.056 130.385 312.056 129.798C312.056 129.212 311.526 128.738 310.875 128.738C310.224 128.738 309.694 129.212 309.694 129.798C309.694 130.385 310.224 130.859 310.875 130.859Z" fill="#449CF4"/>
<path fill-rule="evenodd" clip-rule="evenodd" d="M251.729 141.48C252.379 141.48 252.91 141.004 252.91 140.419C252.91 139.834 252.379 139.359 251.729 139.359C251.078 139.359 250.546 139.834 250.546 140.419C250.546 141.004 251.078 141.48 251.729 141.48Z" fill="#449CF4"/>
<path fill-rule="evenodd" clip-rule="evenodd" d="M263.556 141.48C264.209 141.48 264.739 141.004 264.739 140.419C264.739 139.834 264.209 139.359 263.556 139.359C262.907 139.359 262.377 139.834 262.377 140.419C262.377 141.004 262.907 141.48 263.556 141.48Z" fill="#449CF4"/>
<path fill-rule="evenodd" clip-rule="evenodd" d="M275.387 141.48C276.038 141.48 276.568 141.004 276.568 140.419C276.568 139.834 276.038 139.359 275.387 139.359C274.735 139.359 274.206 139.834 274.206 140.419C274.206 141.004 274.735 141.48 275.387 141.48Z" fill="#449CF4"/>
<path fill-rule="evenodd" clip-rule="evenodd" d="M287.216 141.48C287.867 141.48 288.397 141.004 288.397 140.419C288.397 139.834 287.867 139.359 287.216 139.359C286.566 139.359 286.035 139.834 286.035 140.419C286.035 141.004 286.566 141.48 287.216 141.48Z" fill="#449CF4"/>
<path fill-rule="evenodd" clip-rule="evenodd" d="M299.046 141.48C299.696 141.48 300.226 141.004 300.226 140.419C300.226 139.834 299.696 139.359 299.046 139.359C298.395 139.359 297.864 139.834 297.864 140.419C297.864 141.004 298.395 141.48 299.046 141.48Z" fill="#449CF4"/>
<path fill-rule="evenodd" clip-rule="evenodd" d="M310.875 141.48C311.526 141.48 312.056 141.004 312.056 140.419C312.056 139.834 311.526 139.359 310.875 139.359C310.224 139.359 309.694 139.834 309.694 140.419C309.694 141.004 310.224 141.48 310.875 141.48Z" fill="#449CF4"/>
<path fill-rule="evenodd" clip-rule="evenodd" d="M251.729 152.101C252.379 152.101 252.91 151.627 252.91 151.04C252.91 150.454 252.379 149.98 251.729 149.98C251.078 149.98 250.546 150.454 250.546 151.04C250.546 151.627 251.078 152.101 251.729 152.101Z" fill="#449CF4"/>
<path fill-rule="evenodd" clip-rule="evenodd" d="M263.556 152.101C264.209 152.101 264.739 151.627 264.739 151.04C264.739 150.454 264.209 149.98 263.556 149.98C262.907 149.98 262.377 150.454 262.377 151.04C262.377 151.627 262.907 152.101 263.556 152.101Z" fill="#449CF4"/>
<path fill-rule="evenodd" clip-rule="evenodd" d="M275.387 152.101C276.038 152.101 276.568 151.627 276.568 151.04C276.568 150.454 276.038 149.98 275.387 149.98C274.735 149.98 274.206 150.454 274.206 151.04C274.206 151.627 274.735 152.101 275.387 152.101Z" fill="#449CF4"/>
<path fill-rule="evenodd" clip-rule="evenodd" d="M287.216 152.101C287.867 152.101 288.397 151.627 288.397 151.04C288.397 150.454 287.867 149.98 287.216 149.98C286.566 149.98 286.035 150.454 286.035 151.04C286.035 151.627 286.566 152.101 287.216 152.101Z" fill="#449CF4"/>
<path fill-rule="evenodd" clip-rule="evenodd" d="M299.046 152.101C299.696 152.101 300.226 151.627 300.226 151.04C300.226 150.454 299.696 149.98 299.046 149.98C298.395 149.98 297.864 150.454 297.864 151.04C297.864 151.627 298.395 152.101 299.046 152.101Z" fill="#449CF4"/>
<path fill-rule="evenodd" clip-rule="evenodd" d="M310.875 152.101C311.526 152.101 312.056 151.627 312.056 151.04C312.056 150.454 311.526 149.98 310.875 149.98C310.224 149.98 309.694 150.454 309.694 151.04C309.694 151.627 310.224 152.101 310.875 152.101Z" fill="#449CF4"/>
<path fill-rule="evenodd" clip-rule="evenodd" d="M251.729 162.723C252.379 162.723 252.91 162.248 252.91 161.663C252.91 161.076 252.379 160.602 251.729 160.602C251.078 160.602 250.546 161.076 250.546 161.663C250.546 162.248 251.078 162.723 251.729 162.723Z" fill="#449CF4"/>
<path fill-rule="evenodd" clip-rule="evenodd" d="M263.556 162.723C264.209 162.723 264.739 162.248 264.739 161.663C264.739 161.076 264.209 160.602 263.556 160.602C262.907 160.602 262.377 161.076 262.377 161.663C262.377 162.248 262.907 162.723 263.556 162.723Z" fill="#449CF4"/>
<path fill-rule="evenodd" clip-rule="evenodd" d="M275.387 162.723C276.038 162.723 276.568 162.248 276.568 161.663C276.568 161.076 276.038 160.602 275.387 160.602C274.735 160.602 274.206 161.076 274.206 161.663C274.206 162.248 274.735 162.723 275.387 162.723Z" fill="#449CF4"/>
<path fill-rule="evenodd" clip-rule="evenodd" d="M287.216 162.723C287.867 162.723 288.397 162.248 288.397 161.663C288.397 161.076 287.867 160.602 287.216 160.602C286.566 160.602 286.035 161.076 286.035 161.663C286.035 162.248 286.566 162.723 287.216 162.723Z" fill="#449CF4"/>
<path fill-rule="evenodd" clip-rule="evenodd" d="M299.046 162.723C299.696 162.723 300.226 162.248 300.226 161.663C300.226 161.076 299.696 160.602 299.046 160.602C298.395 160.602 297.864 161.076 297.864 161.663C297.864 162.248 298.395 162.723 299.046 162.723Z" fill="#449CF4"/>
<path fill-rule="evenodd" clip-rule="evenodd" d="M310.875 162.723C311.526 162.723 312.056 162.248 312.056 161.663C312.056 161.076 311.526 160.602 310.875 160.602C310.224 160.602 309.694 161.076 309.694 161.663C309.694 162.248 310.224 162.723 310.875 162.723Z" fill="#449CF4"/>
<path fill-rule="evenodd" clip-rule="evenodd" d="M251.729 173.343C252.379 173.343 252.91 172.869 252.91 172.282C252.91 171.699 252.379 171.222 251.729 171.222C251.078 171.222 250.546 171.699 250.546 172.282C250.546 172.869 251.078 173.343 251.729 173.343Z" fill="#449CF4"/>
<path fill-rule="evenodd" clip-rule="evenodd" d="M263.556 173.343C264.209 173.343 264.739 172.869 264.739 172.282C264.739 171.699 264.209 171.222 263.556 171.222C262.907 171.222 262.377 171.699 262.377 172.282C262.377 172.869 262.907 173.343 263.556 173.343Z" fill="#449CF4"/>
<path fill-rule="evenodd" clip-rule="evenodd" d="M275.387 173.343C276.038 173.343 276.568 172.869 276.568 172.282C276.568 171.699 276.038 171.222 275.387 171.222C274.735 171.222 274.206 171.699 274.206 172.282C274.206 172.869 274.735 173.343 275.387 173.343Z" fill="#449CF4"/>
<path fill-rule="evenodd" clip-rule="evenodd" d="M287.216 173.343C287.867 173.343 288.397 172.869 288.397 172.282C288.397 171.699 287.867 171.222 287.216 171.222C286.566 171.222 286.035 171.699 286.035 172.282C286.035 172.869 286.566 173.343 287.216 173.343Z" fill="#449CF4"/>
<path fill-rule="evenodd" clip-rule="evenodd" d="M299.046 173.343C299.696 173.343 300.226 172.869 300.226 172.282C300.226 171.699 299.696 171.222 299.046 171.222C298.395 171.222 297.864 171.699 297.864 172.282C297.864 172.869 298.395 173.343 299.046 173.343Z" fill="#449CF4"/>
<path fill-rule="evenodd" clip-rule="evenodd" d="M310.875 173.343C311.526 173.343 312.056 172.869 312.056 172.282C312.056 171.699 311.526 171.222 310.875 171.222C310.224 171.222 309.694 171.699 309.694 172.282C309.694 172.869 310.224 173.343 310.875 173.343Z" fill="#449CF4"/>
<path fill-rule="evenodd" clip-rule="evenodd" d="M251.729 183.965C252.379 183.965 252.91 183.491 252.91 182.905C252.91 182.318 252.379 181.844 251.729 181.844C251.078 181.844 250.546 182.318 250.546 182.905C250.546 183.491 251.078 183.965 251.729 183.965Z" fill="#449CF4"/>
<path fill-rule="evenodd" clip-rule="evenodd" d="M263.556 183.965C264.209 183.965 264.739 183.491 264.739 182.905C264.739 182.318 264.209 181.844 263.556 181.844C262.907 181.844 262.377 182.318 262.377 182.905C262.377 183.491 262.907 183.965 263.556 183.965Z" fill="#449CF4"/>
<path fill-rule="evenodd" clip-rule="evenodd" d="M275.387 183.965C276.038 183.965 276.568 183.491 276.568 182.905C276.568 182.318 276.038 181.844 275.387 181.844C274.735 181.844 274.206 182.318 274.206 182.905C274.206 183.491 274.735 183.965 275.387 183.965Z" fill="#449CF4"/>
<path fill-rule="evenodd" clip-rule="evenodd" d="M287.216 183.965C287.867 183.965 288.397 183.491 288.397 182.905C288.397 182.318 287.867 181.844 287.216 181.844C286.566 181.844 286.035 182.318 286.035 182.905C286.035 183.491 286.566 183.965 287.216 183.965Z" fill="#449CF4"/>
<path fill-rule="evenodd" clip-rule="evenodd" d="M299.046 183.965C299.696 183.965 300.226 183.491 300.226 182.905C300.226 182.318 299.696 181.844 299.046 181.844C298.395 181.844 297.864 182.318 297.864 182.905C297.864 183.491 298.395 183.965 299.046 183.965Z" fill="#449CF4"/>
<path fill-rule="evenodd" clip-rule="evenodd" d="M310.875 183.965C311.526 183.965 312.056 183.491 312.056 182.905C312.056 182.318 311.526 181.844 310.875 181.844C310.224 181.844 309.694 182.318 309.694 182.905C309.694 183.491 310.224 183.965 310.875 183.965Z" fill="#449CF4"/>
<path fill-rule="evenodd" clip-rule="evenodd" d="M251.729 194.586C252.379 194.586 252.91 194.111 252.91 193.527C252.91 192.941 252.379 192.467 251.729 192.467C251.078 192.467 250.546 192.941 250.546 193.527C250.546 194.111 251.078 194.586 251.729 194.586Z" fill="#449CF4"/>
<path fill-rule="evenodd" clip-rule="evenodd" d="M263.556 194.586C264.209 194.586 264.739 194.111 264.739 193.527C264.739 192.941 264.209 192.467 263.556 192.467C262.907 192.467 262.377 192.941 262.377 193.527C262.377 194.111 262.907 194.586 263.556 194.586Z" fill="#449CF4"/>
<path fill-rule="evenodd" clip-rule="evenodd" d="M275.387 194.586C276.038 194.586 276.568 194.111 276.568 193.527C276.568 192.941 276.038 192.467 275.387 192.467C274.735 192.467 274.206 192.941 274.206 193.527C274.206 194.111 274.735 194.586 275.387 194.586Z" fill="#449CF4"/>
<path fill-rule="evenodd" clip-rule="evenodd" d="M287.216 194.586C287.867 194.586 288.397 194.111 288.397 193.527C288.397 192.941 287.867 192.467 287.216 192.467C286.566 192.467 286.035 192.941 286.035 193.527C286.035 194.111 286.566 194.586 287.216 194.586Z" fill="#449CF4"/>
<path fill-rule="evenodd" clip-rule="evenodd" d="M299.046 194.586C299.696 194.586 300.226 194.111 300.226 193.527C300.226 192.941 299.696 192.467 299.046 192.467C298.395 192.467 297.864 192.941 297.864 193.527C297.864 194.111 298.395 194.586 299.046 194.586Z" fill="#449CF4"/>
<path fill-rule="evenodd" clip-rule="evenodd" d="M310.875 194.586C311.526 194.586 312.056 194.111 312.056 193.527C312.056 192.941 311.526 192.467 310.875 192.467C310.224 192.467 309.694 192.941 309.694 193.527C309.694 194.111 310.224 194.586 310.875 194.586Z" fill="#449CF4"/>
<path fill-rule="evenodd" clip-rule="evenodd" d="M251.729 205.207C252.379 205.207 252.91 204.733 252.91 204.147C252.91 203.562 252.379 203.086 251.729 203.086C251.078 203.086 250.546 203.562 250.546 204.147C250.546 204.733 251.078 205.207 251.729 205.207Z" fill="#449CF4"/>
<path fill-rule="evenodd" clip-rule="evenodd" d="M263.556 205.207C264.209 205.207 264.739 204.733 264.739 204.147C264.739 203.562 264.209 203.086 263.556 203.086C262.907 203.086 262.377 203.562 262.377 204.147C262.377 204.733 262.907 205.207 263.556 205.207Z" fill="#449CF4"/>
<path fill-rule="evenodd" clip-rule="evenodd" d="M275.387 205.207C276.038 205.207 276.568 204.733 276.568 204.147C276.568 203.562 276.038 203.086 275.387 203.086C274.735 203.086 274.206 203.562 274.206 204.147C274.206 204.733 274.735 205.207 275.387 205.207Z" fill="#449CF4"/>
<path fill-rule="evenodd" clip-rule="evenodd" d="M287.216 205.207C287.867 205.207 288.397 204.733 288.397 204.147C288.397 203.562 287.867 203.086 287.216 203.086C286.566 203.086 286.035 203.562 286.035 204.147C286.035 204.733 286.566 205.207 287.216 205.207Z" fill="#449CF4"/>
<path fill-rule="evenodd" clip-rule="evenodd" d="M299.046 205.207C299.696 205.207 300.226 204.733 300.226 204.147C300.226 203.562 299.696 203.086 299.046 203.086C298.395 203.086 297.864 203.562 297.864 204.147C297.864 204.733 298.395 205.207 299.046 205.207Z" fill="#449CF4"/>
<path fill-rule="evenodd" clip-rule="evenodd" d="M310.875 205.207C311.526 205.207 312.056 204.733 312.056 204.147C312.056 203.562 311.526 203.086 310.875 203.086C310.224 203.086 309.694 203.562 309.694 204.147C309.694 204.733 310.224 205.207 310.875 205.207Z" fill="#449CF4"/>
<path fill-rule="evenodd" clip-rule="evenodd" d="M251.729 215.83C252.379 215.83 252.91 215.356 252.91 214.769C252.91 214.183 252.379 213.709 251.729 213.709C251.078 213.709 250.546 214.183 250.546 214.769C250.546 215.356 251.078 215.83 251.729 215.83Z" fill="#449CF4"/>
<path fill-rule="evenodd" clip-rule="evenodd" d="M263.556 215.83C264.209 215.83 264.739 215.356 264.739 214.769C264.739 214.183 264.209 213.709 263.556 213.709C262.907 213.709 262.377 214.183 262.377 214.769C262.377 215.356 262.907 215.83 263.556 215.83Z" fill="#449CF4"/>
<path fill-rule="evenodd" clip-rule="evenodd" d="M275.387 215.83C276.038 215.83 276.568 215.356 276.568 214.769C276.568 214.183 276.038 213.709 275.387 213.709C274.735 213.709 274.206 214.183 274.206 214.769C274.206 215.356 274.735 215.83 275.387 215.83Z" fill="#449CF4"/>
<path fill-rule="evenodd" clip-rule="evenodd" d="M287.216 215.83C287.867 215.83 288.397 215.356 288.397 214.769C288.397 214.183 287.867 213.709 287.216 213.709C286.566 213.709 286.035 214.183 286.035 214.769C286.035 215.356 286.566 215.83 287.216 215.83Z" fill="#449CF4"/>
<path fill-rule="evenodd" clip-rule="evenodd" d="M299.046 215.83C299.696 215.83 300.226 215.356 300.226 214.769C300.226 214.183 299.696 213.709 299.046 213.709C298.395 213.709 297.864 214.183 297.864 214.769C297.864 215.356 298.395 215.83 299.046 215.83Z" fill="#449CF4"/>
<path fill-rule="evenodd" clip-rule="evenodd" d="M310.875 215.83C311.526 215.83 312.056 215.356 312.056 214.769C312.056 214.183 311.526 213.709 310.875 213.709C310.224 213.709 309.694 214.183 309.694 214.769C309.694 215.356 310.224 215.83 310.875 215.83Z" fill="#449CF4"/>
<path fill-rule="evenodd" clip-rule="evenodd" d="M251.729 226.451C252.379 226.451 252.91 225.975 252.91 225.391C252.91 224.806 252.379 224.33 251.729 224.33C251.078 224.33 250.546 224.806 250.546 225.391C250.546 225.975 251.078 226.451 251.729 226.451Z" fill="#449CF4"/>
<path fill-rule="evenodd" clip-rule="evenodd" d="M263.556 226.451C264.209 226.451 264.739 225.975 264.739 225.391C264.739 224.806 264.209 224.33 263.556 224.33C262.907 224.33 262.377 224.806 262.377 225.391C262.377 225.975 262.907 226.451 263.556 226.451Z" fill="#449CF4"/>
<path fill-rule="evenodd" clip-rule="evenodd" d="M275.387 226.451C276.038 226.451 276.568 225.975 276.568 225.391C276.568 224.806 276.038 224.33 275.387 224.33C274.735 224.33 274.206 224.806 274.206 225.391C274.206 225.975 274.735 226.451 275.387 226.451Z" fill="#449CF4"/>
<path fill-rule="evenodd" clip-rule="evenodd" d="M287.216 226.451C287.867 226.451 288.397 225.975 288.397 225.391C288.397 224.806 287.867 224.33 287.216 224.33C286.566 224.33 286.035 224.806 286.035 225.391C286.035 225.975 286.566 226.451 287.216 226.451Z" fill="#449CF4"/>
<path fill-rule="evenodd" clip-rule="evenodd" d="M299.046 226.451C299.696 226.451 300.226 225.975 300.226 225.391C300.226 224.806 299.696 224.33 299.046 224.33C298.395 224.33 297.864 224.806 297.864 225.391C297.864 225.975 298.395 226.451 299.046 226.451Z" fill="#449CF4"/>
<path fill-rule="evenodd" clip-rule="evenodd" d="M310.875 226.451C311.526 226.451 312.056 225.975 312.056 225.391C312.056 224.806 311.526 224.33 310.875 224.33C310.224 224.33 309.694 224.806 309.694 225.391C309.694 225.975 310.224 226.451 310.875 226.451Z" fill="#449CF4"/>
<path fill-rule="evenodd" clip-rule="evenodd" d="M251.729 237.072C252.379 237.072 252.91 236.598 252.91 236.011C252.91 235.425 252.379 234.951 251.729 234.951C251.078 234.951 250.546 235.425 250.546 236.011C250.546 236.598 251.078 237.072 251.729 237.072Z" fill="#449CF4"/>
<path fill-rule="evenodd" clip-rule="evenodd" d="M263.556 237.072C264.209 237.072 264.739 236.598 264.739 236.011C264.739 235.425 264.209 234.951 263.556 234.951C262.907 234.951 262.377 235.425 262.377 236.011C262.377 236.598 262.907 237.072 263.556 237.072Z" fill="#449CF4"/>
<path fill-rule="evenodd" clip-rule="evenodd" d="M275.387 237.072C276.038 237.072 276.568 236.598 276.568 236.011C276.568 235.425 276.038 234.951 275.387 234.951C274.735 234.951 274.206 235.425 274.206 236.011C274.206 236.598 274.735 237.072 275.387 237.072Z" fill="#449CF4"/>
<path fill-rule="evenodd" clip-rule="evenodd" d="M287.216 237.072C287.867 237.072 288.397 236.598 288.397 236.011C288.397 235.425 287.867 234.951 287.216 234.951C286.566 234.951 286.035 235.425 286.035 236.011C286.035 236.598 286.566 237.072 287.216 237.072Z" fill="#449CF4"/>
<path fill-rule="evenodd" clip-rule="evenodd" d="M299.046 237.072C299.696 237.072 300.226 236.598 300.226 236.011C300.226 235.425 299.696 234.951 299.046 234.951C298.395 234.951 297.864 235.425 297.864 236.011C297.864 236.598 298.395 237.072 299.046 237.072Z" fill="#449CF4"/>
<path fill-rule="evenodd" clip-rule="evenodd" d="M310.875 237.072C311.526 237.072 312.056 236.598 312.056 236.011C312.056 235.425 311.526 234.951 310.875 234.951C310.224 234.951 309.694 235.425 309.694 236.011C309.694 236.598 310.224 237.072 310.875 237.072Z" fill="#449CF4"/>
</g>
<g opacity="0.2">
<path fill-rule="evenodd" clip-rule="evenodd" d="M98.5972 69.8006H94.9957V66.5659C94.9957 65.9021 94.3958 65.3644 93.6565 65.3644C92.9183 65.3644 92.3194 65.9021 92.3194 66.5659V69.8006H88.7168C87.9765 69.8006 87.3776 70.3383 87.3776 71.0021C87.3776 71.6659 87.9765 72.2036 88.7168 72.2036H92.3194V75.4383C92.3194 76.1021 92.9183 76.6398 93.6565 76.6398C94.3958 76.6398 94.9957 76.1021 94.9957 75.4383V72.2036H98.5972C99.3365 72.2036 99.9364 71.6659 99.9364 71.0021C99.9364 70.3383 99.3365 69.8006 98.5972 69.8006Z" fill="#449CF4"/>
<path fill-rule="evenodd" clip-rule="evenodd" d="M301.068 235.299H297.578V232.165C297.578 231.522 296.997 231.001 296.281 231.001C295.565 231.001 294.985 231.522 294.985 232.165V235.299H291.494C290.777 235.299 290.197 235.82 290.197 236.464C290.197 237.107 290.777 237.628 291.494 237.628H294.985V240.762C294.985 241.405 295.565 241.926 296.281 241.926C296.997 241.926 297.578 241.405 297.578 240.762V237.628H301.068C301.785 237.628 302.366 237.107 302.366 236.464C302.366 235.82 301.785 235.299 301.068 235.299Z" fill="#449CF4"/>
<path fill-rule="evenodd" clip-rule="evenodd" d="M315.062 131.87C315.062 132.745 314.272 133.454 313.298 133.454C312.323 133.454 311.533 132.745 311.533 131.87C311.533 130.995 312.323 130.286 313.298 130.286C314.272 130.286 315.062 130.995 315.062 131.87Z" fill="#449CF4"/>
<path fill-rule="evenodd" clip-rule="evenodd" d="M29.4502 43.8559C29.4502 44.8808 28.5247 45.7118 27.3833 45.7118C26.2418 45.7118 25.3157 44.8808 25.3157 43.8559C25.3157 42.831 26.2418 42 27.3833 42C28.5247 42 29.4502 42.831 29.4502 43.8559Z" fill="#449CF4"/>
<path fill-rule="evenodd" clip-rule="evenodd" d="M254.444 201.731C254.444 202.756 253.519 203.587 252.377 203.587C251.236 203.587 250.31 202.756 250.31 201.731C250.31 200.706 251.236 199.875 252.377 199.875C253.519 199.875 254.444 200.706 254.444 201.731Z" fill="#449CF4"/>
</g>
<path opacity="0.3" d="M226.023 70.0738C217.829 75.0601 212.978 84.2388 213.748 93.8164C214.131 98.7107 215.957 103.436 220.762 106.014C233.567 112.895 289.469 113.01 297.744 100.855C306.018 88.6997 302.94 71.4278 284.947 64.2321C269.364 57.9953 247.175 57.1706 226.023 70.0738Z" fill="#E6E6E6"/>
<path opacity="0.51" d="M209.98 131.038C209.98 131.038 209.249 125.069 213.461 124.206C217.673 123.343 217.447 130.175 221.341 127.624C225.235 125.073 222.746 122.193 227.532 119.795C232.318 117.398 233.046 122.438 236.339 123.439C239.632 124.44 240.168 113.735 253.761 117.87C267.353 122.005 267.928 124.436 272.327 120.34C276.727 116.243 284.806 116.919 287.616 124.494C290.427 132.069 296.27 117.394 302.392 121.042C308.515 124.69 305.93 130.247 305.93 130.247L290.806 133.7L258.738 131.59C258.738 131.59 220.927 131.156 220.257 131.038C219.587 130.919 209.98 131.038 209.98 131.038Z" fill="#E6E6E6"/>
<path d="M290.879 78.3895C290.879 78.3895 282.455 80.0964 283.148 87.9786C283.841 95.8609 276.183 100.168 280.877 104.717C285.572 109.267 291.828 106.708 291.828 106.708L290.879 78.3895Z" fill="#68C2E9"/>
<path opacity="0.39" d="M290.879 78.3895C290.879 78.3895 282.455 80.0964 283.148 87.9786C283.841 95.8609 276.183 100.168 280.877 104.717C285.572 109.267 291.828 106.708 291.828 106.708L290.879 78.3895Z" fill="white"/>
<path d="M297.851 70.5878C297.492 71.5061 297.258 72.4685 297.154 73.4492C297.15 73.5663 297.169 73.6832 297.21 73.793C297.251 73.9027 297.314 74.0033 297.394 74.0888C297.474 74.1744 297.57 74.2432 297.677 74.2914C297.783 74.3396 297.899 74.3662 298.016 74.3697C298.391 74.4063 298.77 74.3331 299.105 74.1588C299.44 73.9845 299.717 73.7167 299.903 73.3878L300.849 72.0568C301.01 71.7695 301.078 71.4392 301.044 71.1115C301.01 70.7838 300.875 70.4748 300.658 70.2272C299.907 69.2568 298.196 69.5636 297.851 70.5878Z" fill="#F4A28C"/>
<path d="M300.42 72.3905L300.347 78.1938L297.158 77.9253L298.494 73.8097L300.42 72.3905Z" fill="#F4A28C"/>
<path d="M300.677 73.4376C300.667 73.4734 300.646 73.5047 300.616 73.5264C300.586 73.548 300.549 73.5587 300.512 73.5565C300.256 73.5528 300.007 73.4654 299.805 73.3076C299.603 73.1498 299.457 72.9302 299.39 72.682C299.311 72.4091 299.312 72.1191 299.394 71.8468C299.475 71.5746 299.634 71.3318 299.85 71.1477C299.305 71.0953 298.768 70.9794 298.249 70.8025C298.074 70.744 297.91 70.6572 297.763 70.5455L297.698 69.1225C297.698 69.1225 297.376 67.6419 298.207 67.5882C299.038 67.5345 299.142 68.4935 299.926 68.0485C300.711 67.6036 300.922 67.4156 301.458 67.9373C301.994 68.4589 301.133 68.7466 302.163 69.042C303.193 69.3373 303.097 69.7669 302.97 70.2387C302.904 70.3962 302.792 70.5299 302.649 70.6222C301.705 71.3223 301.013 72.3102 300.677 73.4376Z" fill="#24285B"/>
<path d="M299.23 72.5784C299.23 72.5784 299.436 71.9263 299.911 72.1219C300.386 72.3176 300.095 73.2726 299.402 73.1499L299.23 72.5784Z" fill="#F4A28C"/>
<path d="M297.495 71.658L296.833 72.1719C296.795 72.2011 296.765 72.2392 296.747 72.2827C296.728 72.3263 296.72 72.3739 296.724 72.4213C296.728 72.4686 296.744 72.5141 296.77 72.5537C296.797 72.5932 296.833 72.6255 296.875 72.6476L297.487 72.9621L297.495 71.658Z" fill="#F4A28C"/>
<path opacity="0.31" d="M298.326 74.3621C298.782 74.3382 299.224 74.1997 299.612 73.9594C299.612 73.9594 299.413 75.11 297.924 75.5818L298.326 74.3621Z" fill="#CE8172"/>
<path d="M294.324 77.6338C299.585 77.7275 304.778 78.8398 309.617 80.9094C310.359 81.2237 311.029 81.687 311.585 82.2707C312.141 82.8544 312.572 83.5461 312.851 84.3031C313.13 85.0601 313.251 85.8664 313.206 86.672C313.162 87.4777 312.953 88.2657 312.593 88.9873L304.272 105.615L288.849 104.698C288.849 104.698 286.039 95.3545 286.601 84.7873C286.715 82.8257 287.583 80.9845 289.023 79.6506C290.463 78.3167 292.363 77.5938 294.324 77.6338Z" fill="#68C2E9"/>
<path d="M304.272 105.615L308.867 131.038H306.57L300.792 117.229C298.746 112.341 295.138 108.271 290.534 105.657L288.842 104.694L304.272 105.615Z" fill="#24285B"/>
<path opacity="0.08" d="M305.547 83.1188C304.454 84.0111 303.61 85.1709 303.095 86.4859C302.581 87.8008 302.414 89.2266 302.61 90.6251C303.315 95.4389 304.039 99.1786 299.612 98.0586C295.186 96.9386 292.785 86.6169 292.785 86.6169L287.616 86.7435L288.508 98.2504L291.506 98.4575C292.216 98.506 292.889 98.7868 293.424 99.2568C293.958 99.7268 294.323 100.36 294.462 101.058L295.27 105.074L304.272 105.607L305.547 103.709L311.164 97.606L311.865 87.8942L305.547 83.1188Z" fill="black"/>
<path d="M298.506 82.9337L288.513 83.6144L289.444 97.3259L299.437 96.6451L298.506 82.9337Z" fill="#FFD200"/>
<path d="M288.849 104.698L291.227 131.038H294.29C294.29 131.038 293.574 111.219 299.103 107L288.849 104.698Z" fill="#24285B"/>
<path d="M305.203 84.6071C305.222 83.8309 305.481 83.0799 305.944 82.4569C306.407 81.834 307.05 81.3697 307.787 81.1277C308.523 80.8857 309.317 80.8779 310.058 81.1053C310.799 81.3326 311.451 81.7841 311.926 82.3977C313.695 84.6608 315.326 88.435 315.192 94.6334C314.905 107.866 307.152 111.414 295.186 96.9348L297.541 95.1129C297.541 95.1129 302.254 99.1173 306.57 99.1749C309.782 99.2286 304.973 90.9205 305.203 84.6071Z" fill="#68C2E9"/>
<path opacity="0.39" d="M305.203 84.6071C305.222 83.8309 305.481 83.0799 305.944 82.4569C306.407 81.834 307.05 81.3697 307.787 81.1277C308.523 80.8857 309.317 80.8779 310.058 81.1053C310.799 81.3326 311.451 81.7841 311.926 82.3977C313.695 84.6608 315.326 88.435 315.192 94.6334C314.905 107.866 307.152 111.414 295.186 96.9348L297.541 95.1129C297.541 95.1129 302.254 99.1173 306.57 99.1749C309.782 99.2286 304.973 90.9205 305.203 84.6071Z" fill="white"/>
<path opacity="0.08" d="M288.937 89.8811C288.937 89.8811 292.383 96.2214 299.275 94.4302L299.425 96.651L289.431 97.3299L288.937 89.8811Z" fill="black"/>
<path d="M297.108 95.4388C297.108 95.4388 295.699 92.9457 293.976 93.6054C292.253 94.2651 295.186 96.9271 295.186 96.9271L297.108 95.4388Z" fill="#F4A28C"/>
<path d="M251.674 109.006L253.852 123.769C253.852 123.769 245.704 116.408 240.451 123.439C238.602 125.921 236.813 127.225 230.304 124.759C223.795 122.292 217.864 123.439 216.715 129.101C215.567 134.762 211.163 124.881 206.377 129.914C201.591 134.946 206.76 137.056 221.119 135.33C235.477 133.604 243.901 140.508 255.675 136.672C267.449 132.836 273.384 136.864 282.573 136.48C291.763 136.097 294.826 137.056 307.462 133.412C320.097 129.768 312.631 124.183 308.228 123.439C303.824 122.695 303.549 129.779 298.517 128.042C293.486 126.304 293.103 120.202 286.785 121.341C280.468 122.48 283.148 129.576 278.553 126.891C275.027 124.835 276.443 121.56 271.737 120.148C270.111 119.677 268.393 119.612 266.736 119.959C265.078 120.305 263.53 121.052 262.226 122.135L260.27 123.735L260.94 108.097L251.674 109.006Z" fill="#E6E6E6"/>
<path d="M246.007 74.3428L230.308 91.8909H247.408L246.007 74.3428Z" fill="#FFD200"/>
<path d="M265.179 74.3428L280.877 91.8909H263.777L265.179 74.3428Z" fill="#FFD200"/>
<path opacity="0.58" d="M212.829 101.825C212.829 101.825 209.643 102.681 207.549 100.467C207.549 100.467 211.305 97.115 213.993 101.445L212.829 101.825Z" fill="#68C2E9"/>
<path opacity="0.73" d="M213.005 101.353C213.005 101.353 209.314 99.4356 209.344 95.6C209.344 95.6 213.786 95.7649 214.579 100.441L213.005 101.353Z" fill="#68C2E9"/>
<path d="M213.503 101.066C213.503 101.066 212.645 97.2609 215.356 94.8597C215.356 94.8597 217.148 96.6088 215.605 99.8461L213.503 101.066Z" fill="#68C2E9"/>
<path d="M211.466 102.159L214.249 105.653L217.768 103.613L216.061 99.4971L211.466 102.159Z" fill="#24285B"/>
<path d="M255.254 46.262V46.1584L255.2 46.2083L255.147 46.1584V46.2658C253.783 47.639 240.099 62.6786 247.983 105.362H263.138C271.018 62.6326 256.651 47.6045 255.254 46.262Z" fill="#68C2E9"/>
<path opacity="0.11" d="M264.424 67.9335L264.861 70.956C260.765 72.6574 256.328 73.3709 251.907 73.0387C250.728 72.9322 249.542 73.1257 248.457 73.6011C247.373 74.0765 246.426 74.8184 245.704 75.7582C245.704 75.7582 246.149 69.5406 246.447 68.1099L264.424 67.9335Z" fill="#3B1E59"/>
<path d="M255.254 46.262V46.1584L255.2 46.2083L255.147 46.1584V46.2658C253.783 47.639 240.099 62.6786 247.983 105.362H263.138C271.018 62.6326 256.651 47.6045 255.254 46.262Z" fill="#FFF8DC"/>
<path opacity="0.08" d="M249.932 81.9375L245.72 86.6899C245.821 90.9241 246.247 95.1443 246.995 99.313L257.658 91.3809L249.932 81.9375Z" fill="black"/>
<path d="M247.408 102.075L247.983 105.362H263.272L263.877 102.075H247.408Z" fill="#FFD200"/>
<path d="M247.194 64.2052L247.163 64.2934C246.733 65.4208 246.505 66.6154 246.489 67.8222L246.447 68.1022C246.447 68.1022 254.951 72.939 264.424 67.9258C264.47 67.7585 264.492 67.5854 264.489 67.4118C264.455 66.3051 264.213 65.2148 263.777 64.1975H247.194V64.2052Z" fill="#FFD200"/>
<path opacity="0.13" d="M247.408 102.075L247.983 105.362H263.272L263.877 102.075H247.408Z" fill="black"/>
<path opacity="0.13" d="M247.194 64.2052L247.163 64.2934C246.733 65.4208 246.505 66.6154 246.489 67.8222L246.447 68.1022C246.447 68.1022 254.951 72.939 264.424 67.9258C264.47 67.7585 264.492 67.5854 264.489 67.4118C264.455 66.3051 264.213 65.2148 263.777 64.1975H247.194V64.2052Z" fill="black"/>
<path d="M247.194 64.2053C247.194 64.2053 255.235 67.9489 263.777 64.2053C263.777 64.2053 262.387 50.5964 255.484 44.2599C255.484 44.2522 249.694 48.8282 247.194 64.2053Z" fill="#FFD200"/>
<path d="M255.675 91.8908C259.323 91.8908 262.28 88.9285 262.28 85.2743C262.28 81.6201 259.323 78.6578 255.675 78.6578C252.027 78.6578 249.07 81.6201 249.07 85.2743C249.07 88.9285 252.027 91.8908 255.675 91.8908Z" fill="#24285B"/>
<path d="M255.916 81.7073C256.112 81.7073 256.173 81.7763 256.173 81.9719V82.3977C256.515 82.4356 256.841 82.5653 257.116 82.7733C257.391 82.9812 257.605 83.2596 257.735 83.5791C257.838 83.7824 257.796 83.8936 257.567 83.9972L257.149 84.1851C256.954 84.2772 256.862 84.235 256.766 84.0317C256.68 83.8195 256.527 83.641 256.331 83.5228C256.135 83.4046 255.907 83.353 255.679 83.3758C254.955 83.3758 254.626 83.5867 254.626 84.0739C254.642 84.2224 254.71 84.3606 254.817 84.4649C254.923 84.5691 255.063 84.6329 255.212 84.6454C255.413 84.687 255.616 84.7177 255.821 84.7374C256.212 84.754 256.6 84.829 256.969 84.9599C257.151 85.0189 257.319 85.1112 257.467 85.2322C257.619 85.3896 257.737 85.5761 257.814 85.7804C257.892 85.9848 257.928 86.2028 257.919 86.4213C257.919 87.3495 257.299 87.9786 256.203 88.1435V88.5846C256.203 88.7802 256.142 88.8493 255.947 88.8493H255.48C255.285 88.8493 255.216 88.7802 255.216 88.5846V88.1512C254.835 88.1269 254.469 87.989 254.167 87.7553C253.865 87.5215 253.639 87.2026 253.519 86.8394C253.45 86.6514 253.519 86.5249 253.715 86.4558L254.128 86.3024C254.343 86.2257 254.434 86.2755 254.53 86.4903C254.616 86.7197 254.775 86.9141 254.983 87.0431C255.191 87.1722 255.436 87.2287 255.679 87.2038C256.445 87.2038 256.854 86.9583 256.854 86.4366C256.86 86.3181 256.825 86.2012 256.755 86.1051C256.686 86.009 256.586 85.9393 256.471 85.9073C256.2 85.8129 255.916 85.7587 255.629 85.7462C255.236 85.7252 254.848 85.6423 254.48 85.5007C254.301 85.4369 254.134 85.3421 253.986 85.2207C253.836 85.0704 253.717 84.8908 253.638 84.6929C253.559 84.495 253.521 84.2831 253.527 84.07C253.527 83.1495 254.105 82.5358 255.193 82.3939V81.9758C255.193 81.7802 255.262 81.7111 255.457 81.7111L255.916 81.7073Z" fill="white"/>
<path d="M247.983 105.362L238.858 116.408L257.972 109.826V105.362H247.983Z" fill="#FFD200"/>
<path d="M263.203 105.362L272.327 116.408L253.213 109.826V105.362H263.203Z" fill="#FFD200"/>
<path d="M212.66 119.093C214.141 119.093 215.341 117.891 215.341 116.408C215.341 114.925 214.141 113.723 212.66 113.723C211.18 113.723 209.98 114.925 209.98 116.408C209.98 117.891 211.18 119.093 212.66 119.093Z" fill="#E6E6E6"/>
<path d="M222.876 58.774C224.356 58.774 225.556 57.5719 225.556 56.089C225.556 54.6061 224.356 53.4041 222.876 53.4041C221.396 53.4041 220.196 54.6061 220.196 56.089C220.196 57.5719 221.396 58.774 222.876 58.774Z" fill="#E6E6E6"/>
<path d="M317.386 116.408C318.867 116.408 320.067 115.206 320.067 113.723C320.067 112.241 318.867 111.038 317.386 111.038C315.906 111.038 314.706 112.241 314.706 113.723C314.706 115.206 315.906 116.408 317.386 116.408Z" fill="#E6E6E6"/>
<path d="M280.877 78.681C281.723 78.681 282.409 77.994 282.409 77.1467C282.409 76.2993 281.723 75.6124 280.877 75.6124C280.031 75.6124 279.346 76.2993 279.346 77.1467C279.346 77.994 280.031 78.681 280.877 78.681Z" fill="#E6E6E6"/>
<path d="M203.134 81.458C203.98 81.458 204.665 80.7711 204.665 79.9238C204.665 79.0764 203.98 78.3895 203.134 78.3895C202.288 78.3895 201.602 79.0764 201.602 79.9238C201.602 80.7711 202.288 81.458 203.134 81.458Z" fill="#E6E6E6"/>
<path d="M273.859 45.7864C274.705 45.7864 275.39 45.0995 275.39 44.2522C275.39 43.4048 274.705 42.7179 273.859 42.7179C273.013 42.7179 272.327 43.4048 272.327 44.2522C272.327 45.0995 273.013 45.7864 273.859 45.7864Z" fill="#E6E6E6"/>
<path d="M293.746 52.054V59.7253H298.693L299.777 62.7784L301.056 59.7253H306.003V52.054H293.746Z" fill="#E6E6E6"/>
<path opacity="0.12" d="M299.256 57.6003H299.23C299.175 57.5978 299.121 57.5835 299.072 57.5583C299.023 57.5332 298.98 57.4978 298.946 57.4545L297.652 55.786C297.621 55.7462 297.598 55.7007 297.585 55.6521C297.572 55.6035 297.568 55.5527 297.574 55.5027C297.58 55.4526 297.596 55.4043 297.621 55.3604C297.646 55.3166 297.679 55.2781 297.719 55.2471C297.759 55.2161 297.804 55.1933 297.853 55.1799C297.901 55.1665 297.952 55.1628 298.002 55.1691C298.052 55.1753 298.1 55.1913 298.144 55.2162C298.188 55.2411 298.226 55.2744 298.257 55.3142L299.272 56.626L301.783 53.9104C301.854 53.844 301.948 53.807 302.045 53.8069C302.142 53.8068 302.235 53.8436 302.306 53.9098C302.377 53.976 302.42 54.0668 302.427 54.1637C302.434 54.2607 302.404 54.3566 302.343 54.432L299.536 57.466C299.501 57.5067 299.458 57.5396 299.41 57.5628C299.362 57.5859 299.31 57.5987 299.256 57.6003Z" fill="black"/>
<path d="M6.83274 223.779L40.3224 232.147L66.7117 214.796L97.5219 216.175L119.753 178.589L156.754 200.959L186.02 194.051L220.271 207.388L242.699 173.258L266.911 144.062L299.192 148.183L325.433 131.073" stroke="#FDCC5E" stroke-width="0.801878" stroke-linecap="round" stroke-linejoin="round"/>
<circle cx="7.46408" cy="223.836" r="2.00469" transform="rotate(-13.2803 7.46408 223.836)" fill="#FDCC5E"/>
<circle cx="40.7126" cy="232.055" r="2.00469" transform="rotate(-13.2803 40.7126 232.055)" fill="#FDCC5E"/>
<circle cx="67.4921" cy="214.612" r="2.00469" transform="rotate(-13.2803 67.4921 214.612)" fill="#FDCC5E"/>
<circle cx="97.5218" cy="216.175" r="2.00469" transform="rotate(-13.2803 97.5218 216.175)" fill="#FDCC5E"/>
<circle cx="119.696" cy="179.22" r="2.00469" transform="rotate(-13.2803 119.696 179.22)" fill="#FDCC5E"/>
<circle cx="156.949" cy="200.913" r="2.00469" transform="rotate(-13.2803 156.949 200.913)" fill="#FDCC5E"/>
<circle cx="186.697" cy="194.303" r="2.00469" transform="rotate(-13.2803 186.697 194.303)" fill="#FDCC5E"/>
<circle cx="219.788" cy="207.091" r="2.00469" transform="rotate(-13.2803 219.788 207.091)" fill="#FDCC5E"/>
<circle cx="242.998" cy="172.776" r="2.00469" transform="rotate(-13.2803 242.998 172.776)" fill="#FDCC5E"/>
<circle cx="267.198" cy="144.406" r="2.00469" transform="rotate(-13.2803 267.198 144.406)" fill="#FDCC5E"/>
<circle cx="298.951" cy="148.034" r="2.00469" transform="rotate(-13.2803 298.951 148.034)" fill="#FDCC5E"/>
<circle cx="325.731" cy="130.591" r="2.00469" transform="rotate(-13.2803 325.731 130.591)" fill="#FDCC5E"/>
</svg>
