<svg width="18" height="17" viewBox="0 0 18 17" fill="none" xmlns="http://www.w3.org/2000/svg">
<path fill-rule="evenodd" clip-rule="evenodd" d="M3.63315 1.88372C3.76872 1.85187 3.91139 1.83512 4.05939 1.83544L15.7006 2.66696C16.7437 2.68538 17.7642 3.55037 17.2604 4.6742C17.1623 4.89304 16.7194 5.78422 16.015 7.18649C15.7274 7.75895 15.4323 8.34492 15.1372 8.92988C14.97 9.26126 14.97 9.26126 14.852 9.49501C14.798 9.60196 14.7769 9.64365 14.7642 9.66876C14.5247 10.2847 14.0189 10.7605 13.3871 10.961L13.2641 11H4.86502L4.8531 10.9994L3.20798 10.999C2.73445 11.0225 2.35582 11.4011 2.33335 11.8333L2.33186 12.6168C2.36047 13.0937 2.74169 13.4745 3.16669 13.5H3.30894C3.65214 12.529 4.57817 11.8333 5.66669 11.8333C6.7552 11.8333 7.68124 12.529 8.02443 13.5H9.97561C10.3188 12.529 11.2448 11.8333 12.3334 11.8333C13.7141 11.8333 14.8334 12.9526 14.8334 14.3333C14.8334 15.714 13.7141 16.8333 12.3334 16.8333C11.2448 16.8333 10.3188 16.1377 9.97561 15.1667H8.02443C7.68124 16.1377 6.7552 16.8333 5.66669 16.8333C4.57778 16.8333 3.65147 16.1371 3.30857 15.1656L3.11939 15.1653C1.80232 15.0904 0.747371 14.0366 0.666687 12.6667L0.667711 11.792C0.733518 10.4657 1.79198 9.40464 3.15829 9.33375L2.34173 3.61784L2.33335 3.49999C2.33335 2.96088 2.05907 2.32089 1.7441 2.00591C1.66244 1.92425 1.29873 1.83332 0.666687 1.83332V0.166656C1.70131 0.166656 2.44872 0.353507 2.92261 0.827401C3.20182 1.10661 3.4473 1.4741 3.63315 1.88372ZM4.92741 9.33332H12.9745C13.0857 9.27278 13.1721 9.17312 13.2157 9.05184L13.2563 8.95736C13.2759 8.91859 13.2759 8.91859 13.3643 8.74361C13.4822 8.51019 13.4822 8.51019 13.6492 8.17922C13.9439 7.59503 14.2386 7.00987 14.5136 6.46243L14.5257 6.4384C15.0074 5.47929 15.3754 4.74192 15.5778 4.32909L4.00857 3.5006L4.82515 9.21667C4.83313 9.27312 4.87391 9.31845 4.92741 9.33332ZM12.3334 15.1667C12.7936 15.1667 13.1667 14.7936 13.1667 14.3333C13.1667 13.8731 12.7936 13.5 12.3334 13.5C11.8731 13.5 11.5 13.8731 11.5 14.3333C11.5 14.7936 11.8731 15.1667 12.3334 15.1667ZM5.66669 15.1667C6.12692 15.1667 6.50002 14.7936 6.50002 14.3333C6.50002 13.8731 6.12692 13.5 5.66669 13.5C5.20645 13.5 4.83335 13.8731 4.83335 14.3333C4.83335 14.7936 5.20645 15.1667 5.66669 15.1667Z" fill="#C5C7D2"/>
</svg>
