<svg width="17" height="18" viewBox="0 0 17 18" fill="none" xmlns="http://www.w3.org/2000/svg">
<path fill-rule="evenodd" clip-rule="evenodd" d="M2.96646 2.38374C3.10204 2.35189 3.24471 2.33514 3.39271 2.33546L15.0339 3.16697C16.077 3.18539 17.0975 4.05038 16.5938 5.17422C16.4957 5.39306 16.0527 6.28423 15.3483 7.68651C15.0607 8.25897 14.7656 8.84494 14.4706 9.4299C14.3033 9.76128 14.3033 9.76128 14.1853 9.99502C14.1313 10.102 14.1102 10.1437 14.0975 10.1688C13.858 10.7847 13.3522 11.2605 12.7204 11.461L12.5974 11.5H4.19833L4.18641 11.4994L2.5413 11.499C2.06776 11.5225 1.68914 11.9011 1.66667 12.3333L1.66517 13.1168C1.69378 13.5937 2.07501 13.9745 2.5 14H2.64226C2.98545 13.029 3.91148 12.3333 5 12.3333C6.08852 12.3333 7.01455 13.029 7.35775 14H9.30892C9.65212 13.029 10.5782 12.3333 11.6667 12.3333C13.0474 12.3333 14.1667 13.4526 14.1667 14.8333C14.1667 16.2141 13.0474 17.3333 11.6667 17.3333C10.5782 17.3333 9.65212 16.6377 9.30892 15.6667H7.35775C7.01455 16.6377 6.08852 17.3333 5 17.3333C3.91109 17.3333 2.98478 16.6372 2.64188 15.6656L2.4527 15.6653C1.13563 15.5905 0.0806844 14.5366 0 13.1667L0.00102381 12.292C0.0668314 10.9657 1.1253 9.90465 2.4916 9.83376L1.67504 4.11786L1.66667 4.00001C1.66667 3.46089 1.39239 2.8209 1.07741 2.50593C0.995749 2.42427 0.63204 2.33334 0 2.33334V0.666672C1.03463 0.666672 1.78203 0.853522 2.25592 1.32742C2.53513 1.60662 2.78062 1.97412 2.96646 2.38374ZM4.26073 9.83334H12.3079C12.419 9.7728 12.5055 9.67314 12.549 9.55186L12.5896 9.45737C12.6092 9.41861 12.6092 9.41861 12.6976 9.24363C12.8155 9.01021 12.8155 9.01021 12.9825 8.67923C13.2772 8.09505 13.5719 7.50989 13.8469 6.96245L13.859 6.93841C14.3407 5.97931 14.7087 5.24194 14.9111 4.82911L3.34188 4.00062L4.15846 9.71669C4.16644 9.77314 4.20722 9.81846 4.26073 9.83334ZM11.6667 15.6667C12.1269 15.6667 12.5 15.2936 12.5 14.8333C12.5 14.3731 12.1269 14 11.6667 14C11.2064 14 10.8333 14.3731 10.8333 14.8333C10.8333 15.2936 11.2064 15.6667 11.6667 15.6667ZM5 15.6667C5.46024 15.6667 5.83333 15.2936 5.83333 14.8333C5.83333 14.3731 5.46024 14 5 14C4.53976 14 4.16667 14.3731 4.16667 14.8333C4.16667 15.2936 4.53976 15.6667 5 15.6667Z"
      fill="currentColor"/>
</svg>
