<svg width="520" height="390" viewBox="0 0 520 390" fill="none" xmlns="http://www.w3.org/2000/svg">
<path opacity="0.3" d="M121.667 112.025C84.383 134.679 62.296 176.263 65.767 219.716C67.6 241.89 75.868 263.299 97.721 275.067C156 306.206 410.423 306.79 448.084 251.712C485.745 196.634 471.731 118.279 389.844 85.634C318.851 57.258 217.919 53.5213 121.667 112.025Z" fill="#E6E6E6"/>
<path opacity="0.58" d="M375.448 91.0644L348.399 103.192L365.141 140.391L392.191 128.264L375.448 91.0644Z" fill="#C9C9C9"/>
<path d="M211.315 135.808L181.168 149.12C170.19 153.954 157.988 155.302 146.217 152.981C134.445 150.66 123.674 144.782 115.362 136.145L85.6831 105.291L74.373 113.076L99.3331 150.703C109.875 166.578 124.738 179.12 142.175 186.856C159.611 194.592 178.898 197.201 197.769 194.376L241.592 187.824L211.315 135.808Z" fill="#68C2E9"/>
<path opacity="0.46" d="M211.315 135.808L181.168 149.12C170.19 153.954 157.988 155.302 146.217 152.981C134.445 150.66 123.674 144.782 115.362 136.145L85.6831 105.291L74.373 113.076L99.3331 150.703C109.875 166.578 124.738 179.12 142.175 186.856C159.611 194.592 178.898 197.201 197.769 194.376L241.592 187.824L211.315 135.808Z" fill="white"/>
<path d="M375.011 161.472C375.011 161.472 407.511 149.911 430.911 175.744C454.311 201.577 464.711 248.404 464.711 248.404C464.711 248.404 391.911 214.669 354.211 248.404C316.511 282.138 253.032 245.225 253.032 245.225L231.868 173.098L216.45 142.477L253.032 126.635L301.561 127.504L321.1 147.913L340.6 165.494L375.011 161.472Z" fill="#FFD200"/>
<path opacity="0.08" d="M375.011 161.472C375.011 161.472 407.511 149.911 430.911 175.744C454.311 201.577 464.711 248.404 464.711 248.404C464.711 248.404 391.911 214.669 354.211 248.404C316.511 282.138 253.032 245.225 253.032 245.225L231.868 173.098L216.45 142.477L253.032 126.635L301.561 127.504L321.1 147.913L340.6 165.494L375.011 161.472Z" fill="black"/>
<path d="M298.155 304.507C298.155 304.507 303.524 309.217 301.769 315.042C300.014 320.868 304.967 324.54 308.412 320.025C311.857 315.51 310.505 299.862 310.505 299.862L299.962 296.242L298.155 304.507Z" fill="#68C2E9"/>
<path d="M389.376 310.774C389.376 310.774 396.331 312.447 397.501 318.429C398.671 324.41 404.755 325.332 405.704 319.726C406.653 314.121 398.125 300.913 398.125 300.913L387.114 302.626L389.376 310.774Z" fill="#68C2E9"/>
<path d="M236.782 248.235L284.596 282.281C309.321 299.887 338.624 309.972 368.966 311.319L388.882 312.201V301.38L356.798 290.637C344.556 286.511 333.458 279.569 324.402 270.37L292.682 238.14L236.782 248.235Z" fill="#24285B"/>
<path opacity="0.08" d="M236.782 248.235L284.596 282.281C309.321 299.887 338.624 309.972 368.966 311.319L388.882 312.201V301.38L356.798 290.637C344.556 286.511 333.458 279.569 324.402 270.37L292.682 238.14L236.782 248.235Z" fill="black"/>
<path opacity="0.75" d="M473.894 298.376L444.152 292.515L436.058 333.426L465.8 339.288L473.894 298.376Z" fill="#E6E6E6"/>
<path opacity="0.75" d="M262.334 311.401L239.57 324.519L257.679 355.824L280.443 342.706L262.334 311.401Z" fill="#E6E6E6"/>
<path d="M203.944 98.1548C203.944 98.1548 200.616 105.226 200.044 110.533C199.987 111.048 200.033 111.57 200.181 112.068C200.328 112.565 200.574 113.028 200.903 113.43C201.233 113.831 201.639 114.163 202.099 114.405C202.559 114.647 203.062 114.795 203.58 114.84C205.228 115.103 206.917 114.886 208.446 114.217C209.974 113.547 211.277 112.453 212.199 111.065L216.749 105.46C217.557 104.24 217.963 102.799 217.909 101.338C217.856 99.8764 217.346 98.4686 216.45 97.3114C213.408 92.874 205.751 93.7433 203.944 98.1548Z" fill="#F4A28C"/>
<path d="M213.473 106.381L219.102 131.344L205.101 133.472L206.622 114.451L213.473 106.381Z" fill="#F4A28C"/>
<path d="M205.66 99.1279C207.895 100.046 210.229 100.703 212.615 101.087C211.59 101.841 210.81 102.879 210.371 104.071C209.932 105.264 209.853 106.558 210.145 107.795C210.401 109 211.069 110.078 212.035 110.845C213 111.612 214.202 112.02 215.436 111.999L218.79 102.501C219.317 101.165 219.475 99.7125 219.246 98.2949C219.017 96.8773 218.411 95.5472 217.49 94.444C216.681 93.4949 215.813 92.5978 214.89 91.7582C212.576 89.6692 207.935 90.0196 206.167 87.2948C205.989 87.0216 205.743 86.7993 205.452 86.6497C205.162 86.5 204.838 86.4282 204.512 86.4413C204.185 86.4544 203.868 86.5519 203.591 86.7243C203.313 86.8966 203.086 87.138 202.93 87.4246C201.448 90.1363 200.33 94.8332 203.606 97.8045C204.215 98.3535 204.908 98.8004 205.66 99.1279Z" fill="#24285B"/>
<path d="M209.443 107.289C209.443 107.289 210.535 104.487 212.576 105.486C214.617 106.485 213.07 110.546 209.976 109.871L209.443 107.289Z" fill="#F4A28C"/>
<path d="M202.085 102.722L198.991 104.785C198.826 104.91 198.693 105.073 198.603 105.26C198.513 105.447 198.47 105.652 198.476 105.859C198.483 106.066 198.539 106.269 198.64 106.45C198.74 106.631 198.883 106.785 199.056 106.9L201.656 108.457L202.085 102.722Z" fill="#F4A28C"/>
<path opacity="0.31" d="M206.882 115.035C208.686 114.847 210.395 114.134 211.796 112.985C211.796 112.985 212.108 117.695 206.362 121.548L206.882 115.035Z" fill="#CE8172"/>
<path d="M205.101 133.472L219.102 131.357C219.102 131.357 290.511 111.259 300.911 154.011C311.311 196.764 310.089 224.997 310.089 224.997L261.911 248.352C261.911 248.352 129.311 194.623 205.101 133.472Z" fill="#68C2E9"/>
<path d="M226.032 170.404L189.52 180.284L203.233 230.763L239.745 220.883L226.032 170.404Z" fill="#24285B"/>
<path d="M211.451 170.681L198.854 174.09L200.708 180.915L213.305 177.506L211.451 170.681Z" fill="#FFD200"/>
<path opacity="0.08" d="M236.21 160.201C236.21 160.201 228.41 179.494 257.686 185.722C286.962 191.95 286.936 211.672 267.761 212.827C248.586 213.981 220.272 203.627 220.779 226.022C220.779 226.022 243.061 241.267 261.911 248.404L310.089 225.049V222.065L312.611 180.35L287.586 156.347L236.21 160.201Z" fill="black"/>
<path d="M233.376 147.732C235.209 134.407 247.767 125.285 261.157 126.803C279.526 128.879 307.372 137.079 320.268 166.48C340.418 212.437 328.068 241.112 231.868 212.827L234.468 202.057C234.468 202.057 299.468 209.842 295.568 189.381C292.279 172.163 229.151 178.573 233.376 147.732Z" fill="#68C2E9"/>
<path opacity="0.46" d="M233.376 147.732C235.209 134.407 247.767 125.285 261.157 126.803C279.526 128.879 307.372 137.079 320.268 166.48C340.418 212.437 328.068 241.112 231.868 212.827L234.468 202.057C234.468 202.057 299.468 209.842 295.568 189.381C292.279 172.163 229.151 178.573 233.376 147.732Z" fill="white"/>
<path d="M214.227 124.74C206.377 126.404 199.12 130.146 193.219 135.574C190.047 138.402 187.539 141.893 185.874 145.798C181.311 157.58 206.674 160.603 237.237 148.705C267.8 136.807 281.437 127.218 306.137 143.048C330.837 158.877 341.237 177.042 375.037 161.472C375.037 161.472 334.737 161.472 321.737 131.007C310.908 105.654 238.433 119.369 214.227 124.74Z" fill="#FFD200"/>
<path d="M234.468 202.057C234.468 202.057 225.511 193.325 219.336 194.623C213.161 195.92 216.736 208.726 231.868 212.891L234.468 202.057Z" fill="#F4A28C"/>
<path d="M310.089 224.997C310.089 224.997 216.684 236.674 220.779 260.029C224.874 283.384 298.961 306.739 298.961 306.739L304.811 295.061L256.711 260.678C256.711 260.678 338.117 280.088 310.089 224.997Z" fill="#24285B"/>
<path d="M74.3731 113.024C74.3731 113.024 53.5731 110.26 59.2151 104.435C64.8571 98.6089 85.6831 105.291 85.6831 105.291L74.3731 113.024Z" fill="#F4A28C"/>
<path d="M51.6878 36.7578H92.2998C92.2998 36.7578 96.5378 68.7667 71.9678 68.7667C71.9678 68.7667 48.5028 69.5322 51.6878 36.7578Z" fill="#FFD200"/>
<path d="M71.994 42.9338C83.2087 42.9338 92.3 40.343 92.3 37.147C92.3 33.9511 83.2087 31.3602 71.994 31.3602C60.7793 31.3602 51.688 33.9511 51.688 37.147C51.688 40.343 60.7793 42.9338 71.994 42.9338Z" fill="#FFD200"/>
<path opacity="0.08" d="M71.994 42.9338C83.2087 42.9338 92.3 40.343 92.3 37.147C92.3 33.9511 83.2087 31.3602 71.994 31.3602C60.7793 31.3602 51.688 33.9511 51.688 37.147C51.688 40.343 60.7793 42.9338 71.994 42.9338Z" fill="black"/>
<path d="M81.4711 82.3903H61.1001V102.722H81.4711V82.3903Z" fill="#24285B"/>
<path d="M74.386 62.448H70.0439V82.4033H74.386V62.448Z" fill="#FFD200"/>
<path d="M54.6 48.4351H47.346C45.2462 48.4351 43.2325 49.2676 41.7478 50.7495C40.2631 52.2313 39.429 54.2411 39.429 56.3368V56.3368C39.4324 58.4302 40.268 60.4367 41.7524 61.9158C43.2367 63.3948 45.2485 64.2255 47.346 64.2255H68.029" stroke="#FFD200" stroke-width="3" stroke-miterlimit="10"/>
<path d="M89.388 48.4351H96.642C98.7417 48.4351 100.755 49.2676 102.24 50.7495C103.725 52.2313 104.559 54.2411 104.559 56.3368V56.3368C104.556 58.4302 103.72 60.4367 102.236 61.9158C100.751 63.3948 98.7394 64.2255 96.642 64.2255H75.959" stroke="#FFD200" stroke-width="3" stroke-miterlimit="10"/>
<path opacity="0.46" d="M65.221 61.1375C69.0765 61.1375 72.202 58.018 72.202 54.17C72.202 50.322 69.0765 47.2025 65.221 47.2025C61.3655 47.2025 58.24 50.322 58.24 54.17C58.24 58.018 61.3655 61.1375 65.221 61.1375Z" fill="white"/>
</svg>
