<svg width="40" height="40" viewBox="0 0 40 40" fill="none" xmlns="http://www.w3.org/2000/svg">
<path fill-rule="evenodd" clip-rule="evenodd" d="M35 13.3333V8.33333H4.99999V13.3333H35ZM35 16.6667H4.99999V28.3333H35V16.6667ZM4.69696 5H35.303C36.9766 5 38.3333 6.49238 38.3333 8.33333V28.3333C38.3333 30.1743 36.9766 31.6667 35.303 31.6667H4.69696C3.02337 31.6667 1.66666 30.1743 1.66666 28.3333V8.33333C1.66666 6.49238 3.02337 5 4.69696 5Z" fill="#4368E0"/>
<rect width="18" height="16" transform="translate(22 20)" fill="#F6F9FE"/>
<rect width="16.6667" height="16.6667" transform="translate(23.3333 20)" fill="#F6F9FE"/>
<path fill-rule="evenodd" clip-rule="evenodd" d="M34.0529 22.7623L38.9177 31.0786C39.424 31.9344 39.4349 32.9953 38.9464 33.8614C38.4573 34.7284 37.543 35.2669 36.5363 35.2767L26.7878 35.2766C25.7914 35.2685 24.8754 34.7284 24.3862 33.8606C23.8974 32.9935 23.9089 31.9302 24.4135 31.0817L29.2801 22.7623C29.7746 21.9111 30.6852 21.3878 31.6698 21.3889C32.6542 21.3901 33.5645 21.9156 34.0529 22.7623ZM30.48 23.4618L25.6098 31.7873C25.3571 32.2121 25.3514 32.7444 25.5961 33.1786C25.8411 33.6132 26.3 33.8837 26.7934 33.8877L36.5295 33.8878C37.0338 33.8829 37.4917 33.6132 37.7367 33.179C37.9813 32.7454 37.9758 32.2143 37.7206 31.7828L32.852 23.4599C32.6094 23.0394 32.1572 22.7784 31.6681 22.7778C31.179 22.7772 30.7267 23.0372 30.48 23.4618ZM31.6669 32.4989C31.2832 32.4989 30.9722 32.188 30.9722 31.8044C30.9722 31.4209 31.2832 31.11 31.6669 31.11C32.0506 31.11 32.3616 31.4209 32.3616 31.8044C32.3616 32.188 32.0506 32.4989 31.6669 32.4989ZM30.9743 25.5544H32.3636V30.4155H30.9743V25.5544Z" fill="#4368E0"/>
</svg>
