<svg width="36" height="35" viewBox="0 0 36 35" fill="none" xmlns="http://www.w3.org/2000/svg">
<g clip-path="url(#clip0)">
<path d="M15.3591 6.73894C9.42697 6.73894 4.6008 11.5663 4.6008 17.5001C4.6008 23.4338 9.42697 28.2612 15.3591 28.2612C21.2914 28.2612 26.1175 23.4338 26.1175 17.5001C26.1175 11.5663 21.2913 6.73894 15.3591 6.73894ZM15.3591 26.2104C10.5578 26.2104 6.65158 22.303 6.65158 17.5001C6.65158 12.6971 10.5578 8.78972 15.3591 8.78972C20.1605 8.78972 24.0667 12.6971 24.0667 17.5001C24.0667 22.303 20.1605 26.2104 15.3591 26.2104Z" fill="#6689FC"/>
<path d="M14.1382 15.5464H18.0697C18.636 15.5464 19.0951 15.0873 19.0951 14.521C19.0951 13.9547 18.636 13.4956 18.0697 13.4956H16.4686V12.6C16.4686 12.0337 16.0095 11.5746 15.4432 11.5746C14.8769 11.5746 14.4178 12.0337 14.4178 12.6V13.4956H14.1382C12.7559 13.4956 11.6304 14.6166 11.6232 15.9973C11.6232 16.0017 11.6232 16.0061 11.6232 16.0105C11.6232 16.015 11.6232 16.0194 11.6232 16.0238C11.6304 17.4045 12.7558 18.5255 14.1382 18.5255H16.58C16.8361 18.5255 17.0443 18.7337 17.0443 18.9896C17.0443 19.2456 16.8361 19.4538 16.58 19.4538H12.6486C12.0823 19.4538 11.6232 19.9129 11.6232 20.4792C11.6232 21.0455 12.0823 21.5046 12.6486 21.5046H14.4178V22.4058C14.4178 22.972 14.8769 23.4312 15.4432 23.4312C16.0095 23.4312 16.4686 22.972 16.4686 22.4058V21.5046H16.58C17.9624 21.5046 19.0879 20.3836 19.0951 19.0029C19.0951 18.9985 19.0951 18.9941 19.0951 18.9896C19.0951 18.9852 19.0951 18.9808 19.0951 18.9764C19.0878 17.5957 17.9624 16.4747 16.58 16.4747H14.1382C13.8822 16.4747 13.674 16.2665 13.674 16.0105C13.674 15.7546 13.8822 15.5464 14.1382 15.5464Z" fill="#6689FC"/>
<path d="M33.0991 12.1284H30.2182V6.7406C30.2182 4.47784 28.3774 2.63705 26.1147 2.63705H4.60354C2.34085 2.63705 0.5 4.4779 0.5 6.7406V28.2595C0.5 30.5223 2.34085 32.3631 4.60354 32.3631H26.1147C28.3774 32.3631 30.2182 30.5222 30.2182 28.2595V22.8718H33.0991C34.4229 22.8718 35.5 21.7947 35.5 20.4709V14.5293C35.5 13.2055 34.4229 12.1284 33.0991 12.1284ZM28.1674 28.2596C28.1674 29.3915 27.2466 30.3123 26.1147 30.3123H4.60354C3.47165 30.3123 2.55078 29.3915 2.55078 28.2596V6.7406C2.55078 5.60864 3.47165 4.68784 4.60354 4.68784H26.1147C27.2466 4.68784 28.1674 5.6087 28.1674 6.7406V28.2596ZM33.4492 20.4709C33.4492 20.6639 33.2921 20.821 33.0991 20.821H30.2182V14.1792H33.0991C33.2921 14.1792 33.4492 14.3363 33.4492 14.5293V20.4709Z" fill="#6689FC"/>
</g>
<defs>
<clipPath id="clip0">
<rect width="35" height="35" fill="white" transform="translate(0.5)"/>
</clipPath>
</defs>
</svg>
