<svg width="21" height="18" viewBox="0 0 21 18" fill="none" xmlns="http://www.w3.org/2000/svg">
<path d="M8.99094 2.85081C5.60113 2.85081 2.84332 5.60933 2.84332 9.00003C2.84332 12.3907 5.60113 15.1493 8.99094 15.1493C12.3808 15.1493 15.1386 12.3907 15.1386 9.00003C15.1386 5.60933 12.3807 2.85081 8.99094 2.85081ZM8.99094 13.9774C6.24731 13.9774 4.0152 11.7446 4.0152 9.00003C4.0152 6.2555 6.24731 4.02269 8.99094 4.02269C11.7346 4.02269 13.9667 6.2555 13.9667 9.00003C13.9667 11.7446 11.7346 13.9774 8.99094 13.9774Z" fill="#FDCC5E"/>
<path d="M8.29327 7.88364H10.5398C10.8634 7.88364 11.1258 7.6213 11.1258 7.29771C11.1258 6.97411 10.8634 6.71177 10.5398 6.71177H9.62487V6.20001C9.62487 5.87642 9.36253 5.61407 9.03893 5.61407C8.71534 5.61407 8.45299 5.87642 8.45299 6.20001V6.71177H8.29327C7.50334 6.71177 6.86022 7.35236 6.85612 8.1413C6.85608 8.1438 6.85608 8.14634 6.85608 8.14888C6.85608 8.15142 6.85608 8.15392 6.85612 8.15646C6.86022 8.9454 7.50331 9.58599 8.29327 9.58599H9.68858C9.83487 9.58599 9.95389 9.70497 9.95389 9.85122C9.95389 9.99747 9.83487 10.1165 9.68858 10.1165H7.44202C7.11842 10.1165 6.85608 10.3788 6.85608 10.7024C6.85608 11.026 7.11842 11.2883 7.44202 11.2883H8.45299V11.8033C8.45299 12.1269 8.71534 12.3892 9.03893 12.3892C9.36253 12.3892 9.62487 12.1269 9.62487 11.8033V11.2883H9.68858C10.4785 11.2883 11.1216 10.6477 11.1257 9.8588C11.1258 9.8563 11.1258 9.85376 11.1258 9.85122C11.1258 9.84868 11.1258 9.84618 11.1257 9.84364C11.1216 9.0547 10.4785 8.41411 9.68858 8.41411H8.29327C8.14698 8.41411 8.02795 8.29513 8.02795 8.14888C8.02795 8.00263 8.14698 7.88364 8.29327 7.88364Z" fill="#FDCC5E"/>
<path d="M19.128 5.93052H17.4818V2.85176C17.4818 1.55876 16.4299 0.506882 15.137 0.506882H2.84488C1.55191 0.506882 0.5 1.5588 0.5 2.85176V15.1483C0.5 16.4413 1.55191 17.4932 2.84488 17.4932H15.137C16.4299 17.4932 17.4818 16.4413 17.4818 15.1483V12.0696H19.128C19.8845 12.0696 20.5 11.4541 20.5 10.6976V7.30247C20.5 6.54598 19.8845 5.93052 19.128 5.93052ZM16.31 15.1483C16.31 15.7952 15.7837 16.3213 15.137 16.3213H2.84488C2.19809 16.3213 1.67188 15.7951 1.67188 15.1483V2.85176C1.67188 2.20493 2.19809 1.67876 2.84488 1.67876H15.137C15.7837 1.67876 16.31 2.20497 16.31 2.85176V15.1483ZM19.3281 10.6976C19.3281 10.8079 19.2384 10.8977 19.128 10.8977H17.4818V7.10239H19.128C19.2384 7.10239 19.3281 7.19216 19.3281 7.30247V10.6976Z" fill="#FDCC5E"/>
</svg>
