<svg width="35" height="35" viewBox="0 0 35 35" fill="none" xmlns="http://www.w3.org/2000/svg">
<path d="M23.3979 13.3554H32.4883C32.8838 13.3554 33.2643 13.1882 33.5321 12.8967C33.8001 12.605 33.9347 12.2114 33.9013 11.8168C33.7749 10.3251 33.0997 8.9423 31.9998 7.92312C31.6682 7.61585 31.3067 7.34993 30.9224 7.12811C31.6643 6.3713 32.1227 5.33395 32.1227 4.19125C32.1227 1.88022 30.2477 0 27.9431 0C25.6384 0 23.7635 1.88022 23.7635 4.19132C23.7635 5.33401 24.2218 6.37137 24.9639 7.12817C24.5796 7.35 24.2181 7.61592 23.8865 7.92319C22.7865 8.9423 22.1113 10.3251 21.985 11.8169C21.9516 12.2114 22.0861 12.6051 22.3542 12.8968C22.622 13.1882 23.0024 13.3554 23.3979 13.3554ZM25.8143 4.19132C25.8143 3.01103 26.7692 2.05078 27.9431 2.05078C29.1169 2.05078 30.0719 3.01103 30.0719 4.19132C30.0719 5.37168 29.1169 6.33186 27.9431 6.33186C26.7692 6.33186 25.8143 5.37161 25.8143 4.19132ZM25.2803 9.42744C26.0074 8.75369 26.9531 8.38264 27.9431 8.38264C28.9331 8.38264 29.8787 8.75369 30.6058 9.42744C31.158 9.93897 31.5476 10.5895 31.7384 11.3046H24.1479C24.3387 10.5895 24.7282 9.93904 25.2803 9.42744Z" fill="#6689FC"/>
<path d="M6.4703 13.3554H15.5607C15.9561 13.3554 16.3366 13.1882 16.6044 12.8967C16.8725 12.605 17.0071 12.2114 16.9736 11.8168C16.8473 10.3251 16.172 8.9423 15.0722 7.92312C14.7406 7.61585 14.379 7.34993 13.9948 7.12811C14.7368 6.37123 15.1952 5.33395 15.1952 4.19125C15.1952 1.88022 13.3202 0 11.0155 0C8.71085 0 6.83589 1.88022 6.83589 4.19132C6.83589 5.33401 7.29424 6.37137 8.03628 7.12817C7.65203 7.35 7.29048 7.61592 6.95887 7.92319C5.85897 8.94236 5.18371 10.3251 5.05745 11.8169C5.02403 12.2114 5.15856 12.6051 5.42659 12.8968C5.69443 13.1882 6.07485 13.3554 6.4703 13.3554ZM8.88667 4.19132C8.88667 3.01103 9.84165 2.05078 11.0155 2.05078C12.1894 2.05078 13.1444 3.01103 13.1444 4.19132C13.1444 5.37168 12.1894 6.33186 11.0155 6.33186C9.84165 6.33186 8.88667 5.37161 8.88667 4.19132ZM8.35279 9.42744C9.07992 8.75369 10.0255 8.38264 11.0155 8.38264C12.0055 8.38264 12.9511 8.75369 13.6783 9.42744C14.2304 9.93897 14.62 10.5895 14.8108 11.3046H7.22021C7.411 10.5895 7.80058 9.93904 8.35279 9.42744Z" fill="#6689FC"/>
<path d="M31.9997 24.9894C31.6681 24.6821 31.3066 24.4162 30.9223 24.1944C31.6642 23.4376 32.1226 22.4002 32.1226 21.2576C32.1226 18.9465 30.2476 17.0663 27.943 17.0663C25.6384 17.0663 23.7634 18.9465 23.7634 21.2576C23.7634 22.4002 24.2218 23.4376 24.9638 24.1944C24.5796 24.4162 24.218 24.6821 23.8864 24.9894C22.7865 26.0085 22.1112 27.3914 21.985 28.8831C21.9515 29.2777 22.0861 29.6714 22.3541 29.9631C22.6219 30.2546 23.0023 30.4217 23.3978 30.4217H32.4882C32.8837 30.4217 33.2641 30.2546 33.532 29.9631C33.8001 29.6714 33.9347 29.2778 33.9012 28.8831C33.7749 27.3913 33.0996 26.0086 31.9997 24.9894ZM25.8143 21.2576C25.8143 20.0773 26.7692 19.1171 27.9431 19.1171C29.1169 19.1171 30.0719 20.0773 30.0719 21.2576C30.0719 22.4379 29.1169 23.3982 27.9431 23.3982C26.7692 23.3981 25.8143 22.4378 25.8143 21.2576ZM24.1479 28.3709C24.3387 27.6558 24.7282 27.0052 25.2803 26.4937C26.0074 25.8199 26.9531 25.4489 27.9431 25.4489C28.9331 25.4489 29.8787 25.8199 30.6058 26.4937C31.158 27.0052 31.5476 27.6558 31.7383 28.3709H24.1479Z" fill="#6689FC"/>
<path d="M11.0155 15.4135C6.04783 15.4135 2.00636 19.4554 2.00636 24.4236C2.00636 26.7054 2.85894 28.7919 4.26228 30.3811L1.39406 33.2496C0.993682 33.6501 0.99375 34.2994 1.39413 34.6998C1.59436 34.8999 1.85672 35 2.11915 35C2.38158 35 2.64408 34.8998 2.84424 34.6996L5.7867 31.7568C7.26203 32.8119 9.06754 33.4335 11.0155 33.4335C15.9832 33.4335 20.0247 29.3916 20.0247 24.4234C20.0247 19.4553 15.9832 15.4135 11.0155 15.4135ZM11.0155 31.3827C7.17863 31.3827 4.05714 28.2608 4.05714 24.4235C4.05714 20.5861 7.17863 17.4642 11.0155 17.4642C14.8524 17.4642 17.9739 20.5861 17.9739 24.4235C17.9739 28.2608 14.8524 31.3827 11.0155 31.3827Z" fill="#6689FC"/>
<path d="M13.8759 21.6484L9.79277 25.7319L8.15522 24.0941C7.75477 23.6938 7.10556 23.6938 6.70504 24.0941C6.30466 24.4945 6.30459 25.1437 6.70498 25.5442L9.06768 27.9072C9.26797 28.1074 9.5304 28.2075 9.79277 28.2075C10.0551 28.2075 10.3176 28.1074 10.5178 27.9072L10.5179 27.9072L15.326 23.0984C15.7264 22.698 15.7264 22.0487 15.326 21.6482C14.9255 21.2479 14.2763 21.2479 13.8759 21.6484Z" fill="#6689FC"/>
</svg>
