<svg viewBox="0 0 20 20" fill="none" xmlns="http://www.w3.org/2000/svg">
<g>
<path d="M10 0C7.2376 0 4.75296 1.12784 2.94271 2.94271L1.38021 1.38021L0.833333 6.66667L5.83333 5.83333L4.11458 4.11458C5.62091 2.60393 7.69267 1.66667 10 1.66667C14.6121 1.66667 18.3333 5.38789 18.3333 10C18.3333 14.6121 14.6121 18.3333 10 18.3333H9.16667V20H10H10.8333V19.9479C15.9548 19.5197 20 15.23 20 10C20 4.48711 15.5129 0 10 0ZM9.16667 5V5.98958C8.20156 6.33983 7.5 7.26261 7.5 8.33333C7.5 9.02806 7.88358 9.61774 8.30729 9.97396C8.731 10.3302 9.21783 10.5449 9.63542 10.7552C10.053 10.9655 10.4231 11.1609 10.625 11.3281C10.8269 11.4953 10.8333 11.5393 10.8333 11.6667C10.8333 12.1038 10.4573 12.5 10 12.5C9.52914 12.5 9.16667 12.1375 9.16667 11.6667H7.5C7.5 12.7433 8.20355 13.6619 9.16667 14.0104V15H10.8333V14.0104C11.7994 13.6593 12.5 12.7345 12.5 11.6667C12.5 10.9744 12.0898 10.4026 11.6667 10.0521C11.2435 9.70156 10.7803 9.48022 10.3646 9.27083C9.94883 9.06145 9.60233 8.86714 9.40104 8.69792C9.19975 8.52869 9.16667 8.47361 9.16667 8.33333C9.16667 7.88493 9.53819 7.5 10 7.5C10.4709 7.5 10.8333 7.86247 10.8333 8.33333H12.5C12.5 7.25668 11.7964 6.33811 10.8333 5.98958V5H9.16667ZM0.833333 9.16667C0.373096 9.16667 0 9.53976 0 10C0 10.4602 0.373096 10.8333 0.833333 10.8333C1.29357 10.8333 1.66667 10.4602 1.66667 10C1.66667 9.53976 1.29357 9.16667 0.833333 9.16667ZM1.53646 12.6823C1.42821 12.6815 1.33026 12.6903 1.22396 12.7344C0.798754 12.9105 0.579083 13.4029 0.755208 13.8281C0.931334 14.2533 1.42375 14.447 1.84896 14.2708C2.27416 14.0947 2.46779 13.6023 2.29167 13.1771C2.15957 12.8582 1.8612 12.6847 1.53646 12.6823ZM3.51562 15.651C3.30236 15.651 3.07939 15.7227 2.91667 15.8854C2.59123 16.2109 2.59123 16.7579 2.91667 17.0833C3.2421 17.4088 3.78915 17.4088 4.11458 17.0833C4.44002 16.7579 4.44002 16.2109 4.11458 15.8854C3.95186 15.7227 3.72889 15.651 3.51562 15.651ZM6.48437 17.6302C6.15963 17.6326 5.86126 17.8321 5.72917 18.151C5.55304 18.5762 5.74667 19.0687 6.17187 19.2448C6.59708 19.4209 7.0895 19.2012 7.26562 18.776C7.44175 18.3508 7.24812 17.8845 6.82292 17.7083C6.71662 17.6643 6.59262 17.6294 6.48437 17.6302Z" fill="currentColor"/>
</g>
</svg>
