<svg width="21" height="20" viewBox="0 0 21 20" fill="none" xmlns="http://www.w3.org/2000/svg">
<g clip-path="url(#clip0)">
<path d="M17.4558 12.3177L15.7336 14.1664C15.5111 13.4508 14.8426 12.9297 14.0547 12.9297H11.3088C10.9298 12.9297 10.5644 12.7918 10.2799 12.5415C8.74973 11.1949 6.44969 11.1831 4.90508 12.5042C4.58656 12.0532 4.06168 11.7578 3.46875 11.7578H1.08594C0.762344 11.7578 0.5 12.0202 0.5 12.3438V19.4141C0.5 19.7377 0.762344 20 1.08594 20H3.46875C3.99496 20 4.46758 19.7673 4.79 19.3997C6.02855 19.7478 7.18719 20 8.78371 20H14.0547C15.3388 20 16.5654 19.3867 17.3377 18.3571L20.1488 14.5699C20.1489 14.5698 20.149 14.5698 20.149 14.5697C20.1493 14.5693 20.1495 14.5689 20.1498 14.5686L20.1507 14.5673C20.1509 14.5671 20.151 14.5669 20.1511 14.5668C20.3793 14.2612 20.5 13.8979 20.5 13.5157C20.5 11.9197 18.5366 11.1574 17.4558 12.3177ZM4.05469 18.2422C4.05469 18.5653 3.79184 18.8282 3.46875 18.8282H1.67188V12.9297H3.46875C3.79184 12.9297 4.05469 13.1926 4.05469 13.5157V18.2422ZM19.2115 13.8665C19.2113 13.8669 19.211 13.8673 19.2107 13.8677C19.2104 13.8681 19.21 13.8685 19.2098 13.8689L16.3984 17.6563C15.8481 18.3901 14.9719 18.8282 14.0547 18.8282H8.78371C7.40973 18.8282 6.33004 18.6175 5.21715 18.3047C5.21949 18.2375 5.21875 18.5982 5.21875 13.7805L5.63488 13.4212C6.73824 12.4503 8.40234 12.4503 9.50578 13.4212C10.0044 13.8599 10.6446 14.1016 11.3088 14.1016H14.0547C14.3778 14.1016 14.6406 14.3644 14.6406 14.6875C14.6406 15.0106 14.3778 15.2735 14.0547 15.2735H9.85133C9.52773 15.2735 9.26539 15.5358 9.26539 15.8594C9.26539 16.183 9.52773 16.4453 9.85133 16.4453H14.4474C14.9335 16.4453 15.4023 16.2414 15.7337 15.8857L18.3133 13.1164C18.4255 12.996 18.5778 12.9297 18.7422 12.9297C19.2249 12.9297 19.499 13.4833 19.2115 13.8665Z" fill="#FB595B"/>
<path d="M14.0547 5.85938C13.7316 5.85938 13.4687 5.59652 13.4687 5.27344C13.4687 5.03742 13.6092 4.82547 13.8265 4.7334C14.0889 4.6223 14.4029 4.71711 14.6882 4.99352C14.9207 5.21867 15.2915 5.21281 15.5168 4.98043C15.7419 4.74801 15.7361 4.37707 15.5036 4.15191C15.2391 3.89563 14.945 3.71449 14.6406 3.61227V2.92969C14.6406 2.60609 14.3783 2.34375 14.0547 2.34375C13.7311 2.34375 13.4687 2.60609 13.4687 2.92969V3.61605C12.7511 3.87141 12.2969 4.53992 12.2969 5.27344C12.2969 6.2427 13.0854 7.03125 14.0547 7.03125C14.3778 7.03125 14.6406 7.2941 14.6406 7.61719C14.6406 7.86273 14.4857 8.0841 14.2552 8.16809C13.9545 8.2777 13.6039 8.12906 13.2941 7.76012C13.086 7.51234 12.7164 7.48016 12.4685 7.68828C12.2207 7.89641 12.1886 8.26602 12.3967 8.51383C12.7134 8.89094 13.0822 9.14957 13.4687 9.27977V9.96094C13.4687 10.2845 13.7311 10.5469 14.0547 10.5469C14.3783 10.5469 14.6406 10.2845 14.6406 9.96094V9.27449C14.6459 9.27266 14.6511 9.27105 14.6563 9.26918C15.3479 9.0173 15.8125 8.3534 15.8125 7.61719C15.8125 6.64793 15.0239 5.85938 14.0547 5.85938Z" fill="#FB595B"/>
<path d="M14.0547 0C10.5007 0 7.60938 2.89137 7.60938 6.44531C7.60938 9.99926 10.5007 12.8906 14.0547 12.8906C17.6086 12.8906 20.5 9.99926 20.5 6.44531C20.5 2.89137 17.6086 0 14.0547 0ZM14.0547 11.7188C11.1469 11.7188 8.78125 9.35309 8.78125 6.44531C8.78125 3.53754 11.1469 1.17188 14.0547 1.17188C16.9625 1.17188 19.3281 3.53754 19.3281 6.44531C19.3281 9.35309 16.9625 11.7188 14.0547 11.7188Z" fill="#FB595B"/>
</g>
<defs>
<clipPath id="clip0">
<rect width="20" height="20" fill="white" transform="translate(0.5)"/>
</clipPath>
</defs>
</svg>
