<svg width="18" height="17" viewBox="0 0 18 17" fill="none" xmlns="http://www.w3.org/2000/svg">
    <path fill-rule="evenodd" clip-rule="evenodd" d="M4.16088 4.33334H7.33332V6.00001H1.49999V0.166672H3.16666V2.89196C4.60425 1.1521 6.66313 0.166672 8.99999 0.166672C13.6024 0.166672 17.3333 3.89763 17.3333 8.50001C15.6667 8.50001 17.3333 8.50001 15.6667 8.50001C15.6667 4.81811 12.6819 1.83334 8.99999 1.83334C7.0053 1.83334 5.29461 2.73225 4.16088 4.33334ZM13.8391 12.6667H10.6667V11H16.5V16.8333H14.8333V14.108C13.3957 15.8479 11.3369 16.8333 8.99999 16.8333C4.39762 16.8333 0.666656 13.1024 0.666656 8.50001H2.33332C2.33332 12.1819 5.31809 15.1667 8.99999 15.1667C10.9947 15.1667 12.7054 14.2678 13.8391 12.6667Z" fill="currentColor"/>
</svg>
