<svg width="20" height="20" viewBox="0 0 20 20" fill="none" xmlns="http://www.w3.org/2000/svg">
<path fill-rule="evenodd" clip-rule="evenodd" d="M9.99998 19.1667C4.93737 19.1667 0.833313 15.0626 0.833313 10C0.833313 4.9374 4.93737 0.833344 9.99998 0.833344C15.0626 0.833344 19.1666 4.9374 19.1666 10C19.1666 15.0626 15.0626 19.1667 9.99998 19.1667ZM9.99998 17.5C14.1421 17.5 17.5 14.1421 17.5 10C17.5 5.85787 14.1421 2.50001 9.99998 2.50001C5.85784 2.50001 2.49998 5.85787 2.49998 10C2.49998 14.1421 5.85784 17.5 9.99998 17.5Z" fill="currentColor"/>
<path fill-rule="evenodd" clip-rule="evenodd" d="M6.1583 7.83333H12.3333C14.2663 7.83333 15.8333 9.40033 15.8333 11.3333C15.8333 13.2663 14.2663 14.8333 12.3333 14.8333H10.875V13.6667H12.3333C13.622 13.6667 14.6667 12.622 14.6667 11.3333C14.6667 10.0447 13.622 8.99999 12.3333 8.99999H6.1583L8.66249 11.5042L7.83753 12.3291L3.92505 8.41666L7.83753 4.50418L8.66249 5.32914L6.1583 7.83333Z" fill="currentColor"/>
</svg>
