<svg width="20" height="18" viewBox="0 0 20 18" fill="none" xmlns="http://www.w3.org/2000/svg">
<path d="M18.2637 9L19.8828 6.84113C20.016 6.66359 20.0374 6.42605 19.9382 6.22754C19.8389 6.02902 19.636 5.90363 19.4141 5.90363H16.2761C16.0916 5.90363 15.918 5.99047 15.8073 6.13801L15.7453 6.22074C14.5948 3.06613 11.5592 0.882812 8.11719 0.882812C3.64137 0.882812 0 4.52418 0 9C0 13.4758 3.64137 17.1172 8.11719 17.1172C11.5592 17.1172 14.5948 14.9339 15.7453 11.7793L15.8073 11.862C15.918 12.0095 16.0916 12.0964 16.2761 12.0964H19.4141C19.636 12.0964 19.8389 11.971 19.9382 11.7725C20.0374 11.5739 20.016 11.3364 19.8828 11.1589L18.2637 9ZM14.8732 10.6165C14.1331 13.7195 11.3323 15.9453 8.11719 15.9453C4.28754 15.9453 1.17188 12.8296 1.17188 9C1.17188 5.17035 4.28754 2.05469 8.11719 2.05469C11.3323 2.05469 14.1331 4.28051 14.8732 7.38348L14.241 8.22645L14.1003 8.41406H13.6934C13.3995 5.59684 11.0109 3.39324 8.11719 3.39324C5.02559 3.39324 2.51043 5.90844 2.51043 9C2.51043 12.0916 5.02559 14.6068 8.11719 14.6068C11.0109 14.6068 13.3995 12.4032 13.6934 9.58594H14.1003L14.241 9.77355L14.8732 10.6165ZM11.1572 8.41406C10.8825 6.98605 9.62418 5.90363 8.11719 5.90363C6.40984 5.90363 5.02082 7.29266 5.02082 9C5.02082 10.7073 6.40984 12.0964 8.11719 12.0964C9.62418 12.0964 10.8825 11.014 11.1572 9.58594H12.5133C12.2257 11.7554 10.364 13.4349 8.11719 13.4349C5.67176 13.4349 3.6823 11.4454 3.6823 9C3.6823 6.55461 5.67176 4.56512 8.11719 4.56512C10.364 4.56512 12.2257 6.24461 12.5133 8.41406H11.1572ZM8.11719 9.58594H9.95016C9.70168 10.3614 8.97406 10.9245 8.11719 10.9245C7.05602 10.9245 6.1927 10.0612 6.1927 9C6.1927 7.93883 7.05602 7.07551 8.11719 7.07551C8.9741 7.07551 9.70168 7.63859 9.95016 8.41406H8.11719C7.79359 8.41406 7.53125 8.67641 7.53125 9C7.53125 9.32359 7.79359 9.58594 8.11719 9.58594ZM17.0625 9.35156L18.2422 10.9245H16.569L15.1257 9L16.569 7.07551H18.2422L17.0625 8.64844C16.9062 8.8568 16.9062 9.14324 17.0625 9.35156Z" fill="#C5C7D2"/>
</svg>
