<svg width="18" height="18" viewBox="0 0 18 18" fill="none" xmlns="http://www.w3.org/2000/svg">
<path fill-rule="evenodd" clip-rule="evenodd" d="M12.5999 11.4214L17.0892 15.9107L15.9107 17.0892L11.4214 12.5999C10.2925 13.4774 8.87392 14 7.33332 14C3.65142 14 0.666656 11.0152 0.666656 7.33332C0.666656 3.65142 3.65142 0.666656 7.33332 0.666656C11.0152 0.666656 14 3.65142 14 7.33332C14 8.87392 13.4774 10.2925 12.5999 11.4214ZM7.33332 12.3333C10.0947 12.3333 12.3333 10.0947 12.3333 7.33332C12.3333 4.5719 10.0947 2.33332 7.33332 2.33332C4.5719 2.33332 2.33332 4.5719 2.33332 7.33332C2.33332 10.0947 4.5719 12.3333 7.33332 12.3333Z" fill="#4368E0"/>
</svg>
