<svg width="26" height="29" viewBox="0 0 26 29" fill="none" xmlns="http://www.w3.org/2000/svg">
<path fill-rule="evenodd" clip-rule="evenodd" d="M10.6691 2.3449C10.8003 2.00657 11.0072 1.69204 11.2881 1.42804C12.2503 0.523987 13.7497 0.523987 14.7119 1.42804C14.9935 1.69262 15.2006 2.00795 15.3317 2.34714C18.952 3.40437 21.75 6.92603 21.75 12C21.75 15.2808 22.4146 17.128 23.6442 18.4712C23.949 18.8041 25.0199 19.7681 25.14 19.8899L25.5 20.255V24.5176H17.8429C17.5302 25.7486 16.7594 26.8267 15.6098 27.5283C14.0073 28.5061 11.9927 28.5061 10.3902 27.5283C9.08762 26.7333 8.3673 25.8452 8.10997 24.5176H0.5V20.255L0.859956 19.8899C0.990064 19.7589 2.0548 18.8035 2.35745 18.4742C3.58623 17.1372 4.25 15.2924 4.25 12C4.25 6.91149 7.04419 3.39753 10.6691 2.3449ZM10.7233 24.5176C10.8999 24.8461 11.2009 25.0942 11.6925 25.3942C12.4953 25.8841 13.5047 25.8841 14.3075 25.3942C14.6792 25.1674 14.9697 24.8672 15.1709 24.5176H10.7233ZM23 21.3149C22.627 20.9718 22.0633 20.4466 21.8002 20.1593C20.1325 18.3375 19.25 15.8847 19.25 12C19.25 7.28911 16.3246 4.51548 13 4.51548C9.66596 4.51548 6.75 7.27487 6.75 12C6.75 15.8973 5.86778 18.3493 4.19811 20.1659C3.93554 20.4516 3.37009 20.9764 3 21.3155V22.0176H23V21.3149Z" fill="#4368E0"/>
</svg>
