<svg width="19" height="20" viewBox="0 0 19 20" fill="none" xmlns="http://www.w3.org/2000/svg">
<path d="M9.75703 7.15084C9.22045 7.09785 8.68061 7.212 8.21142 7.47767C7.74223 7.74334 7.36662 8.14754 7.13603 8.63493C6.90543 9.12232 6.83112 9.66906 6.92326 10.2003C7.01541 10.7316 7.2695 11.2214 7.65076 11.6026C8.03203 11.9839 8.52181 12.238 9.05307 12.3301C9.58432 12.4223 10.1311 12.348 10.6185 12.1174C11.1058 11.8868 11.51 11.5112 11.7757 11.042C12.0414 10.5728 12.1555 10.0329 12.1025 9.49636C12.0421 8.89485 11.7756 8.33273 11.3481 7.90526C10.9207 7.47779 10.3585 7.21126 9.75703 7.15084V7.15084ZM16.054 9.75338C16.0523 10.0376 16.0314 10.3215 15.9914 10.6029L17.8388 12.0519C17.9193 12.1186 17.9735 12.2116 17.9918 12.3145C18.0101 12.4174 17.9914 12.5234 17.9389 12.6138L16.1912 15.6376C16.1382 15.7271 16.0552 15.795 15.957 15.8293C15.8588 15.8636 15.7516 15.8621 15.6543 15.8252L13.8196 15.0864C13.7184 15.0461 13.6088 15.0315 13.5006 15.044C13.3924 15.0565 13.289 15.0956 13.1997 15.1579C12.9197 15.3507 12.6254 15.522 12.3195 15.6703C12.2233 15.717 12.1401 15.7867 12.0773 15.8733C12.0144 15.9598 11.9738 16.0604 11.9591 16.1664L11.6841 18.1233C11.666 18.2266 11.6126 18.3205 11.533 18.3888C11.4534 18.4572 11.3526 18.4958 11.2477 18.498H7.75231C7.64915 18.4962 7.54967 18.4593 7.47027 18.3934C7.39086 18.3276 7.33627 18.2366 7.31549 18.1355L7.04089 16.1815C7.02547 16.0744 6.98383 15.9728 6.91967 15.8857C6.85551 15.7985 6.77082 15.7286 6.67313 15.6821C6.36756 15.5346 6.07432 15.3629 5.79621 15.1685C5.70717 15.1065 5.60412 15.0677 5.49633 15.0555C5.38854 15.0433 5.27942 15.0581 5.17878 15.0986L3.34446 15.837C3.24725 15.874 3.1401 15.8755 3.04187 15.8413C2.94365 15.8071 2.86066 15.7393 2.80752 15.6499L1.05983 12.626C1.00729 12.5357 0.988511 12.4296 1.00684 12.3267C1.02518 12.2238 1.07943 12.1308 1.15995 12.0642L2.7213 10.8383C2.80684 10.7704 2.87407 10.6822 2.91689 10.5817C2.9597 10.4812 2.97675 10.3717 2.96648 10.2629C2.95177 10.0925 2.94278 9.92255 2.94278 9.75216C2.94278 9.58176 2.95136 9.41422 2.96648 9.2475C2.97563 9.13943 2.95775 9.03079 2.91445 8.93135C2.87115 8.83191 2.80379 8.7448 2.71844 8.67788L1.1579 7.452C1.07869 7.38503 1.02558 7.29231 1.00788 7.1901C0.99017 7.0879 1.009 6.98272 1.06106 6.893L2.80875 3.86917C2.86183 3.77968 2.94479 3.71179 3.04302 3.67748C3.14124 3.64317 3.24843 3.64463 3.34568 3.68161L5.18042 4.42041C5.28159 4.46069 5.39118 4.47525 5.49937 4.46277C5.60755 4.45029 5.71095 4.41116 5.8003 4.3489C6.08031 4.15608 6.37455 3.98478 6.68048 3.83648C6.77666 3.78973 6.85985 3.72002 6.92271 3.63351C6.98557 3.54699 7.02615 3.44633 7.04089 3.34041L7.31589 1.3835C7.33396 1.28015 7.38735 1.18628 7.46695 1.11794C7.54655 1.04959 7.64741 1.01101 7.75231 1.00879H11.2477C11.3509 1.01057 11.4503 1.04745 11.5297 1.11333C11.6091 1.17921 11.6637 1.27018 11.6845 1.37124L11.9591 3.32529C11.9745 3.43238 12.0162 3.53399 12.0803 3.62111C12.1445 3.70822 12.2292 3.77814 12.3269 3.82463C12.6324 3.97213 12.9257 4.14389 13.2038 4.33827C13.2928 4.40023 13.3959 4.43905 13.5037 4.45125C13.6115 4.46345 13.7206 4.44864 13.8212 4.40815L15.6555 3.66976C15.7527 3.63274 15.8599 3.63122 15.9581 3.66545C16.0563 3.69969 16.1393 3.76749 16.1925 3.85691L17.9402 6.88074C17.9927 6.97109 18.0115 7.07714 17.9932 7.18003C17.9748 7.28292 17.9206 7.37597 17.8401 7.4426L16.2787 8.66848C16.1928 8.73616 16.1252 8.82426 16.082 8.92474C16.0388 9.02523 16.0214 9.13492 16.0315 9.24383C16.045 9.413 16.054 9.58299 16.054 9.75338Z"
      stroke="currentColor" stroke-width="1.38452" stroke-linecap="round" stroke-linejoin="round"/>
</svg>
