<svg width="20" height="20" viewBox="0 0 20 20" fill="none" xmlns="http://www.w3.org/2000/svg">
<path fill-rule="evenodd" clip-rule="evenodd" d="M17.3944 15.5665L15.5468 17.4142L13.1819 16.7554L12.5056 17.0343L11.2915 19.1658H8.67938L7.47203 17.027L6.79639 16.7437L4.43173 17.3944L2.58497 15.5476L3.24376 13.1828L2.96478 12.5063L0.833328 11.2913V8.67927L2.97297 7.47193L3.25623 6.79638L2.60558 4.43172L4.45165 2.58565L6.81653 3.24537L7.49226 2.96668L8.70453 0.833313H11.3173L12.5247 2.97296L13.2002 3.25621L15.5645 2.60567L17.4134 4.45194L16.7545 6.81721L17.0333 7.49309L19.1667 8.70535V11.3182L17.0272 12.5254L16.7437 13.2025L17.3944 15.5665ZM14.984 13.0898L15.7105 11.3547L17.5 10.3449V9.67524L15.7112 8.65878L14.9951 6.92244L15.5465 4.94303L15.0725 4.46967L13.087 5.01598L11.3537 4.28923L10.3441 2.49998H9.67441L8.65795 4.28877L6.92146 5.00494L4.94167 4.45265L4.46979 4.92453L5.01599 6.90961L4.28924 8.6429L2.49999 9.65251V10.3229L4.28734 11.3418L5.00321 13.0775L4.45168 15.0573L4.92455 15.5302L6.90962 14.984L8.64283 15.7107L9.65242 17.4991H10.3228L11.3408 15.7118L13.0767 14.9959L15.0565 15.5474L15.5302 15.0738L14.984 13.0898ZM9.99999 13.3333C8.15904 13.3333 6.66666 11.8409 6.66666 9.99998C6.66666 8.15903 8.15904 6.66665 9.99999 6.66665C11.8409 6.66665 13.3333 8.15903 13.3333 9.99998C13.3333 11.8409 11.8409 13.3333 9.99999 13.3333ZM9.99999 11.6666C10.9205 11.6666 11.6667 10.9205 11.6667 9.99998C11.6667 9.0795 10.9205 8.33331 9.99999 8.33331C9.07952 8.33331 8.33333 9.0795 8.33333 9.99998C8.33333 10.9205 9.07952 11.6666 9.99999 11.6666Z"
      fill="currentColor"/>
</svg>
