<svg width="20" height="20" viewBox="0 0 20 20" fill="none" xmlns="http://www.w3.org/2000/svg">
<path fill-rule="evenodd" clip-rule="evenodd" d="M17.3944 15.5665L15.5468 17.4142L13.1819 16.7554L12.5056 17.0343L11.2915 19.1658H8.67937L7.47201 17.027L6.79637 16.7437L4.43172 17.3944L2.58495 15.5476L3.24375 13.1828L2.96476 12.5063L0.833313 11.2913V8.67927L2.97296 7.47193L3.25621 6.79638L2.60557 4.43172L4.45163 2.58565L6.81652 3.24537L7.49224 2.96668L8.70451 0.833313H11.3173L12.5247 2.97296L13.2002 3.25621L15.5645 2.60567L17.4134 4.45194L16.7545 6.81721L17.0333 7.49309L19.1666 8.70535V11.3182L17.0272 12.5254L16.7437 13.2025L17.3944 15.5665ZM14.984 13.0898L15.7105 11.3547L17.5 10.3449V9.67524L15.7112 8.65878L14.9951 6.92244L15.5465 4.94303L15.0724 4.46967L13.087 5.01598L11.3537 4.28923L10.3441 2.49998H9.6744L8.65793 4.28877L6.92145 5.00494L4.94165 4.45265L4.46977 4.92453L5.01597 6.90961L4.28923 8.6429L2.49998 9.65251V10.3229L4.28733 11.3418L5.00319 13.0775L4.45167 15.0573L4.92453 15.5302L6.90961 14.984L8.64282 15.7107L9.65241 17.4991H10.3228L11.3408 15.7118L13.0767 14.9959L15.0565 15.5474L15.5301 15.0738L14.984 13.0898ZM9.99998 13.3333C8.15903 13.3333 6.66665 11.8409 6.66665 9.99998C6.66665 8.15903 8.15903 6.66665 9.99998 6.66665C11.8409 6.66665 13.3333 8.15903 13.3333 9.99998C13.3333 11.8409 11.8409 13.3333 9.99998 13.3333ZM9.99998 11.6666C10.9205 11.6666 11.6666 10.9205 11.6666 9.99998C11.6666 9.0795 10.9205 8.33331 9.99998 8.33331C9.0795 8.33331 8.33331 9.0795 8.33331 9.99998C8.33331 10.9205 9.0795 11.6666 9.99998 11.6666Z"
      fill="currentColor"/>
</svg>
