<svg width="20" height="20" viewBox="0 0 20 20" fill="none" xmlns="http://www.w3.org/2000/svg">
<path fill-rule="evenodd" clip-rule="evenodd" d="M17.3945 15.5665L15.5468 17.4142L13.182 16.7554L12.5057 17.0343L11.2916 19.1658H8.67943L7.47207 17.027L6.79644 16.7438L4.43178 17.3944L2.58501 15.5476L3.24381 13.1828L2.96482 12.5063L0.833374 11.2913V8.67928L2.97302 7.47195L3.25627 6.79639L2.60563 4.43173L4.45169 2.58567L6.81658 3.24538L7.49231 2.9667L8.70457 0.833328H11.3174L12.5247 2.97297L13.2003 3.25623L15.5645 2.60569L17.4135 4.45196L16.7546 6.81722L17.0333 7.4931L19.1667 8.70537V11.3182L17.0273 12.5254L16.7438 13.2025L17.3945 15.5665ZM14.9841 13.0898L15.7106 11.3547L17.5 10.3449V9.67526L15.7112 8.65879L14.9951 6.92246L15.5466 4.94304L15.0725 4.46968L13.087 5.01599L11.3538 4.28924L10.3441 2.49999H9.67446L8.65799 4.28879L6.92151 5.00495L4.94172 4.45267L4.46983 4.92455L5.01604 6.90962L4.28929 8.64291L2.50004 9.65253V10.323L4.28739 11.3418L5.00325 13.0775L4.45173 15.0573L4.92459 15.5302L6.90967 14.984L8.64288 15.7107L9.65247 17.4992H10.3228L11.3408 15.7119L13.0767 14.9959L15.0565 15.5475L15.5302 15.0738L14.9841 13.0898ZM10 13.3333C8.15909 13.3333 6.66671 11.8409 6.66671 9.99999C6.66671 8.15905 8.15909 6.66666 10 6.66666C11.841 6.66666 13.3334 8.15905 13.3334 9.99999C13.3334 11.8409 11.841 13.3333 10 13.3333ZM10 11.6667C10.9205 11.6667 11.6667 10.9205 11.6667 9.99999C11.6667 9.07952 10.9205 8.33333 10 8.33333C9.07957 8.33333 8.33337 9.07952 8.33337 9.99999C8.33337 10.9205 9.07957 11.6667 10 11.6667Z" fill="#C5C7D2"/>
</svg>
