<svg width="40" height="40" viewBox="0 0 40 40" fill="none" xmlns="http://www.w3.org/2000/svg">
<g clip-path="url(#clip0)">
<path d="M0 12C0 5.37258 5.37258 0 12 0H28C34.6274 0 40 5.37258 40 12V28C40 34.6274 34.6274 40 28 40H12C5.37258 40 0 34.6274 0 28V12Z" fill="white"/>
<path fill-rule="evenodd" clip-rule="evenodd" d="M27.3944 25.5665L25.5468 27.4142L23.1819 26.7554L22.5056 27.0343L21.2915 29.1658H18.6794L17.472 27.0271L16.7964 26.7438L14.4317 27.3944L12.585 25.5477L13.2437 23.1828L12.9648 22.5063L10.8333 21.2914V18.6793L12.973 17.472L13.2562 16.7964L12.6056 14.4317L14.4516 12.5857L16.8165 13.2454L17.4922 12.9667L18.7045 10.8333H21.3173L22.5247 12.973L23.2002 13.2562L25.5645 12.6057L27.4134 14.452L26.7545 16.8172L27.0333 17.4931L29.1666 18.7054V21.3182L27.0272 22.5254L26.7437 23.2025L27.3944 25.5665ZM24.984 23.0898L25.7105 21.3547L27.5 20.345V19.6753L25.7112 18.6588L24.9951 16.9225L25.5465 14.9431L25.0724 14.4697L23.087 15.016L21.3537 14.2893L20.3441 12.5H19.6744L18.6579 14.2888L16.9214 15.005L14.9417 14.4527L14.4698 14.9246L15.016 16.9096L14.2892 18.6429L12.5 19.6525V20.323L14.2873 21.3418L15.0032 23.0775L14.4517 25.0574L14.9245 25.5302L16.9096 24.984L18.6428 25.7107L19.6524 27.4992H20.3228L21.3408 25.7119L23.0767 24.996L25.0565 25.5475L25.5301 25.0738L24.984 23.0898ZM20 23.3333C18.159 23.3333 16.6666 21.841 16.6666 20C16.6666 18.1591 18.159 16.6667 20 16.6667C21.8409 16.6667 23.3333 18.1591 23.3333 20C23.3333 21.841 21.8409 23.3333 20 23.3333ZM20 21.6667C20.9205 21.6667 21.6666 20.9205 21.6666 20C21.6666 19.0795 20.9205 18.3333 20 18.3333C19.0795 18.3333 18.3333 19.0795 18.3333 20C18.3333 20.9205 19.0795 21.6667 20 21.6667Z" fill="#C5C7D2"/>
</g>
<path d="M12 1H28V-1H12V1ZM39 12V28H41V12H39ZM28 39H12V41H28V39ZM1 28V12H-1V28H1ZM12 39C5.92487 39 1 34.0751 1 28H-1C-1 35.1797 4.8203 41 12 41V39ZM39 28C39 34.0751 34.0751 39 28 39V41C35.1797 41 41 35.1797 41 28H39ZM28 1C34.0751 1 39 5.92487 39 12H41C41 4.8203 35.1797 -1 28 -1V1ZM12 -1C4.8203 -1 -1 4.8203 -1 12H1C1 5.92487 5.92487 1 12 1V-1Z" fill="#C5C7D2"/>
<defs>
<clipPath id="clip0">
<path d="M0 12C0 5.37258 5.37258 0 12 0H28C34.6274 0 40 5.37258 40 12V28C40 34.6274 34.6274 40 28 40H12C5.37258 40 0 34.6274 0 28V12Z" fill="white"/>
</clipPath>
</defs>
</svg>
