<svg width="27" height="29" viewBox="0 0 27 29" fill="none" xmlns="http://www.w3.org/2000/svg">
<path d="M17.708 20.6527L17.7459 20.6764L17.7736 20.6414C18.2506 20.041 18.8563 19.5553 19.5461 19.2201C20.2358 18.885 20.992 18.709 21.7589 18.7052C22.7719 18.7052 23.7622 19.0056 24.6045 19.5685C25.4469 20.1313 26.1034 20.9313 26.4911 21.8673C26.8788 22.8033 26.9803 23.8333 26.7826 24.8269C26.585 25.8206 26.0971 26.7333 25.3807 27.4497C24.6643 28.1661 23.7516 28.6539 22.758 28.8516C21.7643 29.0492 20.7344 28.9478 19.7984 28.5601C18.8624 28.1724 18.0624 27.5158 17.4995 26.6735C16.9367 25.8312 16.6363 24.8409 16.6362 23.8279C16.6411 23.3701 16.71 22.9151 16.841 22.4764L16.8519 22.4399L16.8196 22.4197L9.25755 17.6921L9.21968 17.6684L9.1919 17.7034C8.53074 18.5357 7.62704 19.1417 6.60605 19.4374C5.58507 19.7332 4.49737 19.7039 3.49374 19.3538C2.4901 19.0037 1.62024 18.35 1.00473 17.4834C0.389218 16.6168 0.0585449 15.5802 0.0585449 14.5172C0.0585449 13.4543 0.389218 12.4177 1.00473 11.5511C1.62024 10.6845 2.4901 10.0308 3.49374 9.68068C4.49737 9.33057 5.58507 9.30134 6.60605 9.59706C7.62704 9.89278 8.53074 10.4988 9.1919 11.3311L9.21968 11.3661L9.25755 11.3424L16.8196 6.61482L16.8519 6.59462L16.841 6.55812C16.71 6.11935 16.6411 5.6644 16.6362 5.20651C16.6286 3.99675 17.0495 2.82335 17.8242 1.89415C18.5989 0.964933 19.6775 0.339911 20.8689 0.129804C22.0603 -0.0803032 23.2877 0.138066 24.3335 0.746229C25.3794 1.35439 26.1762 2.31309 26.5829 3.45251C26.9895 4.59192 26.9798 5.83849 26.5554 6.97141C26.131 8.10433 25.3192 9.05047 24.264 9.64222C23.2088 10.234 21.9782 10.4331 20.7902 10.2044C19.6022 9.97574 18.5335 9.33394 17.7734 8.39273L17.7456 8.35826L17.708 8.38175L10.1459 13.1093L10.1133 13.1297L10.1247 13.1665C10.3973 14.0464 10.3973 14.9881 10.1247 15.868L10.1133 15.9047L10.1459 15.9252L17.708 20.6527ZM23.5106 2.58491C22.992 2.2384 22.3823 2.05346 21.7586 2.05346C20.9223 2.05346 20.1202 2.38569 19.5288 2.97708C18.9374 3.56847 18.6052 4.37056 18.6052 5.2069C18.6052 5.8306 18.7901 6.44028 19.1366 6.95887C19.4831 7.47745 19.9756 7.88163 20.5519 8.12031C21.1281 8.35899 21.7621 8.42144 22.3738 8.29976C22.9855 8.17808 23.5474 7.87775 23.9885 7.43673C24.4295 6.99571 24.7298 6.43382 24.8515 5.82211C24.9732 5.2104 24.9107 4.57635 24.672 4.00013C24.4334 3.42392 24.0292 2.93141 23.5106 2.58491ZM3.45495 17.1392C3.97353 17.4858 4.58322 17.6707 5.20691 17.6707C6.04326 17.6707 6.84535 17.3385 7.43674 16.7471C8.02812 16.1557 8.36036 15.3536 8.36036 14.5172C8.36036 13.8936 8.17541 13.2839 7.82891 12.7653C7.4824 12.2467 6.9899 11.8425 6.41368 11.6038C5.83746 11.3652 5.20341 11.3027 4.5917 11.4244C3.97999 11.5461 3.4181 11.8464 2.97709 12.2874C2.53607 12.7284 2.23573 13.2903 2.11405 13.902C1.99238 14.5138 2.05483 15.1478 2.2935 15.724C2.53218 16.3002 2.93637 16.7927 3.45495 17.1392ZM20.0067 26.4496C20.5253 26.7961 21.1349 26.981 21.7586 26.981C22.595 26.981 23.3971 26.6488 23.9885 26.0574C24.5798 25.466 24.9121 24.6639 24.9121 23.8276C24.9121 23.2039 24.7271 22.5942 24.3806 22.0756C24.0341 21.557 23.5416 21.1529 22.9654 20.9142C22.3892 20.6755 21.7551 20.6131 21.1434 20.7347C20.5317 20.8564 19.9698 21.1567 19.5288 21.5978C19.0878 22.0388 18.7875 22.6007 18.6658 23.2124C18.5441 23.8241 18.6065 24.4581 18.8452 25.0344C19.0839 25.6106 19.4881 26.1031 20.0067 26.4496Z" fill="#202020" stroke="white" stroke-width="0.1"/>
</svg>
