<svg width="521" height="391" viewBox="0 0 521 391" fill="none" xmlns="http://www.w3.org/2000/svg">
<path d="M142.441 37.927H376.188V202.747H142.441V37.927Z" fill="#E6E6E6"/>
<path d="M313.134 150.379C320.153 150.376 327.014 148.291 332.849 144.387C338.685 140.483 343.232 134.935 345.916 128.445C348.601 121.955 349.302 114.815 347.931 107.926C346.56 101.037 343.178 94.7103 338.214 89.7447C333.25 84.779 326.925 81.3977 320.041 80.0284C313.156 78.6591 306.02 79.3632 299.535 82.0517C293.051 84.7401 287.508 89.2923 283.609 95.1326C279.709 100.973 277.628 107.839 277.628 114.863C277.638 124.281 281.383 133.311 288.04 139.969C294.696 146.628 303.722 150.372 313.134 150.379ZM313.134 88.9134C318.263 88.916 323.275 90.4401 327.538 93.293C331.801 96.1459 335.123 100.2 337.084 104.941C339.044 109.683 339.556 114.9 338.554 119.933C337.552 124.966 335.081 129.589 331.454 133.216C327.826 136.844 323.206 139.314 318.175 140.314C313.145 141.315 307.932 140.8 303.194 138.836C298.456 136.871 294.407 133.545 291.558 129.278C288.709 125.011 287.188 119.995 287.188 114.863C287.195 107.98 289.931 101.382 294.796 96.5168C299.661 91.6515 306.256 88.9168 313.134 88.9134Z" fill="white"/>
<path d="M277.628 114.863H287.188C287.199 107.981 289.936 101.385 294.8 96.5206C299.664 91.656 306.257 88.9203 313.134 88.9134V79.3469C303.722 79.3538 294.696 83.0975 288.04 89.7561C281.383 96.4147 277.638 105.444 277.628 114.863Z" fill="#24285B"/>
<path d="M313.134 150.379V140.76C306.257 140.753 299.664 138.017 294.8 133.153C289.936 128.288 287.199 121.692 287.188 114.811H277.628C277.624 124.238 281.363 133.281 288.021 139.951C294.68 146.621 303.713 150.372 313.134 150.379Z" fill="#FFD200"/>
<path d="M224.304 186.729L226.309 202.342L175.186 202.577L179.211 186.729H224.304Z" fill="#24285B"/>
<path opacity="0.08" d="M214.391 63.746C214.391 63.746 221.764 64.7235 221.764 75.5933C221.764 86.4631 215.772 93.6445 219.575 100.487C223.379 107.33 265.072 98.8578 257.895 158.16L291.851 132.093C291.851 132.093 300.317 142.35 290.015 154.484C279.712 166.618 253.024 202.017 253.024 202.017H217.088L214.73 171.141L207.097 91.0378L206.342 69.8587L214.391 63.746Z" fill="black"/>
<path d="M219.575 97.2287C219.575 97.2287 254.912 99.5877 247.449 163.699L283.632 135.025L289.819 140.76C289.819 140.76 253.779 203.711 227.299 179.117L219.575 97.2287Z" fill="#68C2E9"/>
<path opacity="0.08" d="M219.575 97.2287C219.575 97.2287 254.912 99.5877 247.449 163.699L283.632 135.025L289.819 140.76C289.819 140.76 253.779 203.711 227.299 179.117L219.575 97.2287Z" fill="black"/>
<path d="M211.279 95.769L200.129 96.1339C200.129 96.1339 165.756 98.532 160.546 118.734C155.336 138.935 179.211 186.729 179.211 186.729H224.291C224.291 186.729 263.313 99.2098 211.279 95.769Z" fill="#68C2E9"/>
<path d="M473.394 162.539H487.903V188.97H473.394V162.539Z" fill="#FFD200"/>
<path opacity="0.08" d="M182.988 111.266C182.988 111.266 203.19 117.3 196.039 138.714C188.889 160.128 195.258 185.634 211.279 186.729H179.211L164.011 145.126L182.988 111.266Z" fill="black"/>
<path d="M187.768 121.718C188.198 109.298 172.36 103.472 164.727 113.299C160.429 118.812 157.368 126.332 157.798 136.655C159.1 167.609 167.15 202.343 167.15 202.343L181.256 202.642C181.256 202.642 177.453 172.066 183.861 148.984C186.229 140.081 187.541 130.929 187.768 121.718Z" fill="#68C2E9"/>
<path opacity="0.46" d="M187.768 121.718C188.198 109.298 172.36 103.472 164.727 113.299C160.429 118.812 157.368 126.332 157.798 136.655C159.1 167.609 167.15 202.343 167.15 202.343L181.256 202.642C181.256 202.642 177.453 172.066 183.861 148.984C186.229 140.081 187.541 130.929 187.768 121.718Z" fill="white"/>
<path d="M131.956 215.506L169.325 170.15L178.078 176.106C178.078 176.106 152.184 233.688 140.058 233.883C127.932 234.079 131.956 215.506 131.956 215.506Z" fill="#68C2E9"/>
<path opacity="0.08" d="M131.956 215.506L169.325 170.15L178.078 176.106C178.078 176.106 152.184 233.688 140.058 233.883C127.932 234.079 131.956 215.506 131.956 215.506Z" fill="black"/>
<path d="M423.599 202.694L448.06 234.444L465.761 183.301C465.761 183.301 472.274 177.762 476.611 182.323C480.948 186.885 470.098 190.352 470.098 190.352C470.098 190.352 472.703 249.419 450.561 254.645C433.342 258.699 392.053 235.903 395.713 209.693C397.575 196.126 415.237 191.851 423.599 202.694Z" fill="#F4A28C"/>
<path opacity="0.45" d="M257.114 363.487C134.464 363.487 35.0374 355.679 35.0374 346.048C35.0374 336.417 134.464 328.609 257.114 328.609C379.763 328.609 479.19 336.417 479.19 346.048C479.19 355.679 379.763 363.487 257.114 363.487Z" fill="#E6E6E6"/>
<path d="M211.63 71.7615C212.328 75.1154 212.569 78.5482 212.347 81.9666C212.227 82.7747 211.793 83.5025 211.139 83.991C210.485 84.4795 209.664 84.6889 208.856 84.5733C207.545 84.4757 206.29 84.0021 205.241 83.2092C204.193 82.4164 203.395 81.3379 202.943 80.1029L200.481 74.9677C200.099 73.8889 200.061 72.7182 200.371 71.6167C200.681 70.5151 201.325 69.5367 202.213 68.816C205.365 65.9747 211.005 68.047 211.63 71.7615Z" fill="#F4A28C"/>
<path d="M200.924 75.9452L200.129 96.1339L211.279 95.7689L207.384 81.2368L200.924 75.9452Z" fill="#F4A28C"/>
<path d="M210.145 72.1916C208.268 72.4878 206.362 72.5665 204.466 72.4262C205.112 73.1934 205.519 74.133 205.637 75.1289C205.755 76.1248 205.579 77.1336 205.131 78.0306C204.712 78.9054 204.002 79.6073 203.123 80.0162C202.244 80.4251 201.25 80.5157 200.311 80.2723L199.478 72.4523C199.313 71.3232 199.457 70.1706 199.896 69.1171C200.334 68.0636 201.049 67.1488 201.966 66.47C202.759 65.892 203.585 65.3611 204.44 64.8799C206.603 63.7069 210.093 64.8148 211.93 63.0553C212.116 62.8767 212.346 62.7498 212.596 62.6871C212.847 62.6244 213.109 62.6281 213.358 62.6978C213.606 62.7676 213.832 62.9009 214.013 63.0847C214.195 63.2685 214.325 63.4965 214.391 63.746C215.03 66.092 215.043 69.8978 211.969 71.566C211.402 71.8792 210.785 72.0909 210.145 72.1916Z" fill="#24285B"/>
<path d="M205.795 77.7699C205.795 77.7699 205.469 75.4109 203.724 75.8019C201.979 76.1928 202.422 79.5945 204.87 79.6336L205.795 77.7699Z" fill="#F4A28C"/>
<path d="M212.229 75.5933L214.209 77.7569C214.322 77.8782 214.403 78.0264 214.443 78.1876C214.484 78.3487 214.482 78.5174 214.439 78.6779C214.396 78.8383 214.313 78.9851 214.197 79.1045C214.082 79.2238 213.938 79.3117 213.779 79.36L211.5 80.0768L212.229 75.5933Z" fill="#F4A28C"/>
<path opacity="0.31" d="M208.4 84.3778C206.957 84.21 205.596 83.6156 204.493 82.6704C204.493 82.6704 205.092 86.3198 209.546 89.4608L208.4 84.3778Z" fill="#CE8172"/>
<path d="M147.742 326.772C147.742 326.772 147.808 331.907 151.819 333.679C155.831 335.452 155.518 339.857 151.442 339.636C147.365 339.414 139.446 331.333 139.446 331.333L142.389 323.891L147.742 326.772Z" fill="#68C2E9"/>
<path d="M131.956 272.84C131.956 272.84 155.857 273.896 153.252 290.122C150.647 306.348 140.11 323.891 140.11 323.891L149.292 327.801C149.292 327.801 167.527 306.844 169.325 280.999C171.122 255.154 134.535 260.836 131.956 272.84Z" fill="#24285B"/>
<path opacity="0.08" d="M131.956 272.84C131.956 272.84 155.857 273.896 153.252 290.122C150.647 306.348 140.11 323.891 140.11 323.891L149.292 327.801C149.292 327.801 167.527 306.844 169.325 280.999C171.122 255.154 134.535 260.836 131.956 272.84Z" fill="black"/>
<path d="M166.941 327.88C166.941 327.88 167.02 333.093 171.018 334.787C175.017 336.482 174.717 340.978 170.64 340.743C166.564 340.509 158.644 332.454 158.644 332.454L161.588 325.012L166.941 327.88Z" fill="#68C2E9"/>
<path d="M113.448 280.06H118.84V326.602H113.448V280.06Z" fill="#FFD200"/>
<path opacity="0.46" d="M113.448 280.06H118.84V326.602H113.448V280.06Z" fill="white"/>
<path d="M98.2736 167.244C98.2736 167.244 93.3241 140.63 69.4493 152.672C51.8395 161.548 69.0325 232.345 79.2962 268.943C81.0502 275.199 84.7986 280.712 89.9711 284.64C95.1437 288.569 101.457 290.7 107.951 290.709H141.686C151.976 290.709 153.812 276.02 143.848 273.465L143.249 273.322C137.453 272.019 130.641 270.924 124.428 270.103C119.189 269.418 114.345 266.948 110.711 263.11C107.077 259.272 104.875 254.3 104.473 249.028L98.2736 167.244Z" fill="#FFD200"/>
<path d="M118.84 326.602L138.156 341.838H95.1737L113.448 326.602H118.84Z" fill="#FFD200"/>
<path opacity="0.08" d="M118.84 326.602L138.156 341.838H95.1737L113.448 326.602H118.84Z" fill="black"/>
<path d="M118.176 137.567C118.198 140.99 117.76 144.401 116.873 147.707C116.604 148.476 116.043 149.108 115.312 149.466C114.581 149.825 113.738 149.881 112.966 149.623C111.701 149.264 110.567 148.548 109.698 147.561C108.83 146.574 108.264 145.358 108.068 144.057L106.675 138.544C106.514 137.41 106.708 136.253 107.231 135.234C107.753 134.214 108.578 133.381 109.592 132.849C113.187 130.646 118.358 133.813 118.176 137.567Z" fill="#F4A28C"/>
<path d="M106.857 139.535L102.051 159.15L113.031 161.027L112.119 145.999L106.857 139.535Z" fill="#F4A28C"/>
<path opacity="0.31" d="M112.458 149.284C111.106 148.824 109.919 147.976 109.045 146.847C109.045 146.847 108.902 150.535 112.64 154.51L112.458 149.284Z" fill="#CE8172"/>
<path d="M104.2 156.791C111.765 156.504 119.254 158.388 125.783 162.222C132.312 166.055 137.609 171.678 141.048 178.426C143.269 182.945 144.859 187.747 145.776 192.698C151.767 223.704 134.678 251.543 134.678 251.543L99.4328 251.843C99.4328 251.843 52.8294 162.03 104.2 156.791Z" fill="#68C2E9"/>
<path d="M99.4328 251.843C99.4328 251.843 99.9147 272.019 113.565 273.765C127.215 275.512 158.462 264.981 162.37 282.015C166.277 299.05 158.462 326.133 158.462 326.133L168.022 328.805C168.022 328.805 189.396 287.854 176.814 268.435C164.232 249.015 134.678 251.491 134.678 251.491L99.4328 251.843Z" fill="#24285B"/>
<path opacity="0.08" d="M95.5905 179.169C95.5905 179.169 86.6553 204.154 102.103 217.722C117.551 231.29 126.343 232.971 118.528 251.843L134.679 251.543C134.679 251.543 143.119 236.164 144.825 225.255C146.531 214.346 95.5905 179.169 95.5905 179.169Z" fill="black"/>
<path d="M345.136 254.619H353.889V342.281H345.136V254.619Z" fill="#A5A5A5"/>
<path d="M164.011 254.619H172.764V342.281H164.011V254.619Z" fill="#A5A5A5"/>
<path d="M155.922 240.895H362.707V263.977H155.922V240.895Z" fill="#E6E6E6"/>
<path d="M236.313 241.469L247.449 199.931L242.031 198.771L231.532 235.134L201.145 237.741V241.469H236.313Z" fill="#FFD200"/>
<path d="M359.047 192.75C359.047 192.75 342.349 205.288 335.198 222.896C334.29 225.072 333.932 227.438 334.156 229.786C334.38 232.133 335.18 234.389 336.483 236.353C337.787 238.317 339.554 239.93 341.63 241.047C343.705 242.164 346.023 242.752 348.38 242.759L367.917 242.889L359.047 192.75Z" fill="#F4A28C"/>
<path d="M378.493 175.82L380.004 184.578L387.898 185.152L383.091 171.141L378.493 175.82Z" fill="#F4A28C"/>
<path d="M381.255 162.917C380.571 162.362 379.759 161.989 378.892 161.833C378.026 161.677 377.134 161.744 376.301 162.026C375.467 162.309 374.718 162.798 374.125 163.448C373.531 164.098 373.112 164.889 372.906 165.745C371.851 169.759 371.108 175.624 375.758 176.172C382.883 176.901 384.133 167.713 384.133 167.713C383.671 165.864 382.669 164.194 381.255 162.917Z" fill="#F4A28C"/>
<path d="M379.887 169.433C379.887 169.433 380.617 167.596 382.075 168.86C383.534 170.124 381.593 172.157 380.447 171.74C379.301 171.323 379.887 169.433 379.887 169.433Z" fill="#F4A28C"/>
<path d="M408.868 189.4C408.868 189.4 389.877 178.856 372.984 185.165C342.219 196.634 343.912 217.279 365.508 276.398L393.837 276.554L408.868 189.4Z" fill="#68C2E9"/>
<path opacity="0.08" d="M379.809 183.47C379.809 183.47 381.645 187.967 378.506 201.065C375.367 214.164 359.047 258.06 359.047 258.06L365.56 276.424H375.862L407.5 188.71C407.5 188.71 393.173 181.268 379.809 183.47Z" fill="black"/>
<path d="M389.682 180.042C388.536 178.552 387.771 176.804 387.456 174.95C387.14 173.096 387.283 171.193 387.872 169.407C388.412 167.697 388.483 165.873 388.077 164.126C387.672 162.379 386.804 160.773 385.566 159.476C378.689 151.317 368.855 157.078 372.111 161.718C375.368 166.357 377.152 168.469 377.152 168.469C377.152 168.469 365.273 180.955 371.473 188.579C376.983 195.357 399.49 192.502 389.682 180.042Z" fill="#24285B"/>
<path d="M434.84 302.699L419.991 332.637L415.159 331.685L424.393 297.525L434.84 302.699Z" fill="#F4A28C"/>
<path d="M420.382 331.62C420.382 331.62 421.385 335.96 424.628 337.303C427.871 338.645 426.217 343.363 421.32 340.483C419.799 339.588 418.353 338.573 416.995 337.446C415.729 336.438 414.22 335.782 412.619 335.543C412.312 335.475 412.035 335.313 411.825 335.079C411.615 334.845 411.483 334.552 411.447 334.24C410.796 331.842 416.214 329.613 416.214 329.613L420.382 331.62Z" fill="#68C2E9"/>
<path d="M413.778 302.699L398.93 332.637L394.097 331.685L403.332 297.525L413.778 302.699Z" fill="#F4A28C"/>
<path d="M399.32 331.62C399.32 331.62 400.31 335.96 403.567 337.303C406.823 338.645 405.156 343.363 400.258 340.483C398.747 339.587 397.309 338.572 395.96 337.446C394.694 336.438 393.184 335.782 391.584 335.543C391.276 335.474 390.998 335.311 390.786 335.078C390.574 334.845 390.439 334.552 390.398 334.24C389.76 331.842 395.179 329.613 395.179 329.613L399.32 331.62Z" fill="#68C2E9"/>
<path d="M426.308 266.662C426.308 266.662 448.451 274.599 445.546 289.001C442.642 303.403 432.196 326.042 432.196 326.042L387.181 323.305C387.181 323.305 397.966 283.762 374.846 282.667L371.786 274.704L426.308 266.662Z" fill="#24285B"/>
<path opacity="0.58" d="M309.096 228.761C309.096 228.761 318.631 226.154 320.702 217.279C320.702 217.279 305.931 214.294 305.514 229.543L309.096 228.761Z" fill="#68C2E9"/>
<path opacity="0.73" d="M307.937 227.823C307.937 227.823 314.593 217.279 308.732 207.439C308.732 207.439 297.504 214.568 302.493 227.836L307.937 227.823Z" fill="#68C2E9"/>
<path d="M306.218 227.823C306.218 227.823 302.701 216.692 292.06 214.594C292.06 214.594 290.067 221.814 298.95 227.849L306.218 227.823Z" fill="#68C2E9"/>
<path d="M313.134 227.575L311.193 240.804L299.028 240.856L297.231 227.64L313.134 227.575Z" fill="#24285B"/>
<path d="M385.201 282.667H390.594V329.209H385.201V282.667Z" fill="#FFD200"/>
<path opacity="0.46" d="M385.201 282.667H390.594V329.209H385.201V282.667Z" fill="white"/>
<path d="M390.073 329.209L409.389 344.445H366.406L384.68 329.209H390.073Z" fill="#FFD200"/>
<path opacity="0.08" d="M390.073 329.209L409.389 344.445H366.406L384.68 329.209H390.073Z" fill="black"/>
<path d="M375.224 274.704C375.224 274.704 369.402 193.793 403.879 187.55C438.356 181.307 449.857 211.01 429.682 274.704H375.224Z" fill="#FFD200"/>
<path d="M429.721 274.704C429.721 274.704 428.119 285.13 422.909 288.845C417.699 292.559 357.159 300.014 352.925 290.226C349.76 282.915 359.764 275.473 375.224 274.704H429.721Z" fill="#FFD200"/>
<path d="M115.857 138.649C115.857 138.649 116.209 150.626 108.654 148.789C101.1 146.951 105.216 137.593 105.216 137.593C105.216 137.593 105.489 129.669 111.207 128.834C116.925 128 125.04 128.326 124.819 131.637C124.597 134.947 122.292 140.851 115.857 138.649Z" fill="#24285B"/>
<path d="M116.795 163.399C113.617 162.26 110.146 162.237 106.953 163.334C103.759 164.431 101.034 166.582 99.2244 169.433C96.0984 174.451 94.2228 181.685 99.4328 190.417C109.749 207.686 116.587 249.992 202.877 240.895V229.856C202.877 229.856 146.375 225.946 138.156 204.141C131.227 185.725 131.826 168.69 116.795 163.399Z" fill="#68C2E9"/>
<path opacity="0.46" d="M116.795 163.399C113.617 162.26 110.146 162.237 106.953 163.334C103.759 164.431 101.034 166.582 99.2244 169.433C96.0984 174.451 94.2228 181.685 99.4328 190.417C109.749 207.686 116.587 249.992 202.877 240.895V229.856C202.877 229.856 146.375 225.946 138.156 204.141C131.227 185.725 131.826 168.69 116.795 163.399Z" fill="white"/>
<path d="M202.877 234.079C202.877 234.079 219.159 232.072 216.879 240.895H202.877V234.079Z" fill="#F4A28C"/>
<path d="M172.034 171.962C172.034 171.962 179.198 161.327 184.981 167.218C190.764 173.109 176.723 175.455 176.723 175.455L172.034 171.962Z" fill="#F4A28C"/>
<path d="M312.353 103.367C311.714 103.367 311.519 103.589 311.519 104.228V105.531C310.412 105.647 309.358 106.063 308.47 106.733C307.582 107.404 306.894 108.304 306.478 109.337C306.153 110.001 306.296 110.353 307.025 110.64L308.328 111.253C308.966 111.552 309.266 111.409 309.63 110.757C309.912 110.074 310.406 109.5 311.04 109.12C311.673 108.739 312.412 108.573 313.147 108.646C315.479 108.646 316.547 109.324 316.547 110.888C316.493 111.368 316.274 111.814 315.927 112.15C315.58 112.485 315.126 112.689 314.645 112.725C313.998 112.874 313.34 112.975 312.678 113.025C311.434 113.087 310.206 113.329 309.031 113.742C308.428 113.95 307.87 114.273 307.39 114.693C306.895 115.212 306.511 115.827 306.26 116.499C306.009 117.171 305.898 117.887 305.931 118.603C305.931 121.588 307.937 123.621 311.467 124.142V125.576C311.467 126.202 311.662 126.423 312.3 126.423H313.902C314.541 126.423 314.762 126.202 314.762 125.576V124.103C315.99 124.022 317.166 123.577 318.14 122.825C319.114 122.073 319.842 121.048 320.233 119.881C320.298 119.756 320.334 119.618 320.337 119.478C320.339 119.337 320.309 119.198 320.248 119.071C320.187 118.945 320.098 118.834 319.987 118.748C319.875 118.662 319.745 118.604 319.607 118.577L318.305 118.082C317.615 117.847 317.315 118.004 317.002 118.695C316.727 119.434 316.215 120.061 315.546 120.479C314.877 120.896 314.088 121.08 313.303 121.001C310.776 121.001 309.526 120.206 309.526 118.577C309.504 118.204 309.607 117.835 309.82 117.527C310.032 117.22 310.342 116.993 310.698 116.883C311.57 116.575 312.484 116.399 313.408 116.362C314.665 116.286 315.904 116.018 317.081 115.567C317.663 115.366 318.203 115.056 318.67 114.654C319.163 114.17 319.549 113.589 319.805 112.947C320.061 112.305 320.18 111.617 320.155 110.927C320.155 107.968 318.292 105.987 314.788 105.531V104.267C314.788 103.628 314.567 103.406 313.929 103.406L312.353 103.367Z" fill="#A5A5A5"/>
<path opacity="0.35" d="M287.201 162.539H337.36V185.073H287.201V162.539Z" fill="#A5A5A5"/>
<path d="M283.632 135.025C283.632 135.025 291.174 123.295 295.355 126.554C299.536 129.812 289.819 140.76 289.819 140.76L283.632 135.025Z" fill="#F4A28C"/>
<path d="M106.154 27.5004H171.149V75.5933H106.154V27.5004Z" fill="#FFD200"/>
<path d="M148.159 41.4069V62.6382L124.819 50.5302L148.159 41.4069Z" fill="white"/>
<path d="M358.357 59.6145C355.479 59.6145 353.147 57.2804 353.147 54.4012C353.147 51.5219 355.479 49.1878 358.357 49.1878C361.234 49.1878 363.567 51.5219 363.567 54.4012C363.567 57.2804 361.234 59.6145 358.357 59.6145Z" fill="#24285B"/>
<path d="M342.857 59.6145C339.98 59.6145 337.647 57.2804 337.647 54.4012C337.647 51.5219 339.98 49.1878 342.857 49.1878C345.735 49.1878 348.067 51.5219 348.067 54.4012C348.067 57.2804 345.735 59.6145 342.857 59.6145Z" fill="#68C2E9"/>
<path d="M328.256 59.6145C325.379 59.6145 323.046 57.2804 323.046 54.4012C323.046 51.5219 325.379 49.1878 328.256 49.1878C331.133 49.1878 333.466 51.5219 333.466 54.4012C333.466 57.2804 331.133 59.6145 328.256 59.6145Z" fill="#FFD200"/>
</svg>
