<svg width="60" height="60" viewBox="0 0 60 60" fill="none" xmlns="http://www.w3.org/2000/svg">
<rect width="60" height="60" fill="white"/>
<g clip-path="url(#clip0)">
<rect width="48" height="48" transform="translate(6 6)" fill="white"/>
<path d="M13.8 22.8C16.5 16.5 22.8 12 30 12C39 12 46.2 18.6 47.7 27H53.7C52.2 15.3 42.3 6 30 6C21 6 13.2 10.8 9.3 18.3L6 15V27H18L13.8 22.8Z" fill="#C5C7D2"/>
<path d="M54 33H41.7L46.2 37.2C43.5 43.5 37.2 48 29.7 48C21 48 13.5 41.4 12 33H6C7.5 44.7 17.7 54 29.7 54C38.7 54 46.5 48.9 50.7 41.7L54 45V33Z" fill="#C5C7D2"/>
</g>
<circle cx="30" cy="30" r="12" fill="#4368E0"/>
<defs>
<clipPath id="clip0">
<rect width="48" height="48" fill="white" transform="translate(6 6)"/>
</clipPath>
</defs>
</svg>
