<svg width="253" height="190" viewBox="0 0 253 190" fill="none" xmlns="http://www.w3.org/2000/svg">
<path opacity="0.3" d="M77.6773 64.5177C64.1418 72.751 56.128 87.9067 57.3994 103.721C58.0319 111.802 61.0489 119.605 68.9868 123.861C90.1376 135.223 182.483 135.413 196.151 115.343C209.819 95.2723 204.734 66.7533 175.013 54.872C149.27 44.574 112.617 43.2123 77.6773 64.5177Z" fill="#E6E6E6"/>
<path opacity="0.51" d="M51.1755 165.18C51.1755 165.18 49.9674 155.325 56.9249 153.9C63.8824 152.475 63.5092 163.755 69.9418 159.543C76.3743 155.331 72.263 150.575 80.1693 146.617C88.0755 142.658 89.2773 150.98 94.7168 152.633C100.156 154.286 101.042 136.61 123.496 143.437C145.949 150.265 146.898 154.28 154.165 147.516C161.433 140.752 174.779 141.867 179.421 154.375C184.064 166.883 193.716 142.652 203.829 148.675C213.943 154.698 209.674 163.875 209.674 163.875L184.69 169.575L131.718 166.092C131.718 166.092 69.2586 165.376 68.1518 165.18C67.0449 164.983 51.1755 165.18 51.1755 165.18Z" fill="#E6E6E6"/>
<path d="M184.81 78.2484C184.81 78.2484 170.895 81.0667 172.04 94.0817C173.185 107.097 160.535 114.209 168.289 121.72C176.044 129.232 186.379 125.007 186.379 125.007L184.81 78.2484Z" fill="#68C2E9"/>
<path opacity="0.39" d="M184.81 78.2484C184.81 78.2484 170.895 81.0667 172.04 94.0817C173.185 107.097 160.535 114.209 168.289 121.72C176.044 129.232 186.379 125.007 186.379 125.007L184.81 78.2484Z" fill="white"/>
<path d="M196.328 65.3663C195.735 66.8827 195.348 68.4717 195.177 70.091C195.17 70.2845 195.202 70.4774 195.27 70.6587C195.337 70.84 195.441 71.006 195.573 71.1472C195.705 71.2885 195.864 71.4022 196.04 71.4818C196.216 71.5614 196.407 71.6053 196.6 71.611C197.221 71.6715 197.845 71.5505 198.399 71.2627C198.952 70.975 199.411 70.5328 199.718 69.9897L201.28 67.792C201.546 67.3176 201.659 66.7722 201.602 66.2311C201.546 65.69 201.323 65.1798 200.964 64.771C199.724 63.1687 196.897 63.6753 196.328 65.3663Z" fill="#F4A28C"/>
<path d="M200.572 68.343L200.452 77.9253L195.183 77.482L197.391 70.6863L200.572 68.343Z" fill="#F4A28C"/>
<path d="M200.996 70.072C200.98 70.1311 200.944 70.1828 200.895 70.2186C200.845 70.2543 200.785 70.2719 200.724 70.2684C200.3 70.2622 199.89 70.118 199.556 69.8574C199.221 69.5968 198.981 69.2341 198.871 68.8244C198.74 68.3738 198.742 67.8949 198.876 67.4453C199.011 66.9958 199.273 66.5949 199.63 66.291C198.729 66.2044 197.842 66.0131 196.986 65.721C196.697 65.6244 196.425 65.481 196.183 65.2967L196.075 62.947C196.075 62.947 195.544 60.5024 196.916 60.4137C198.289 60.325 198.46 61.9083 199.756 61.1737C201.053 60.439 201.401 60.1287 202.286 60.99C203.172 61.8514 201.749 62.3264 203.45 62.814C205.151 63.3017 204.993 64.011 204.785 64.79C204.676 65.0501 204.49 65.271 204.253 65.4234C202.694 66.5793 201.551 68.2105 200.996 70.072V70.072Z" fill="#24285B"/>
<path d="M198.605 68.6533C198.605 68.6533 198.947 67.5767 199.731 67.8997C200.515 68.2227 200.034 69.7996 198.89 69.597L198.605 68.6533Z" fill="#F4A28C"/>
<path d="M195.74 67.1333L194.646 67.982C194.584 68.0301 194.535 68.093 194.504 68.1649C194.472 68.2369 194.459 68.3155 194.466 68.3937C194.473 68.4718 194.5 68.547 194.543 68.6123C194.587 68.6776 194.646 68.7309 194.715 68.7673L195.727 69.2867L195.74 67.1333Z" fill="#F4A28C"/>
<path opacity="0.31" d="M197.112 71.5983C197.865 71.5588 198.596 71.3301 199.237 70.9333C199.237 70.9333 198.909 72.8333 196.448 73.6123L197.112 71.5983Z" fill="#CE8172"/>
<path d="M190.503 77.0007C199.193 77.1554 207.771 78.992 215.765 82.4093C216.99 82.9282 218.097 83.6932 219.015 84.657C219.934 85.6208 220.645 86.7629 221.106 88.0129C221.567 89.2629 221.766 90.5941 221.693 91.9244C221.62 93.2547 221.275 94.5558 220.679 95.7473L206.935 123.202L181.458 121.689C181.458 121.689 176.815 106.261 177.745 88.8123C177.933 85.5735 179.367 82.5334 181.745 80.3308C184.124 78.1283 187.263 76.9346 190.503 77.0007Z" fill="#68C2E9"/>
<path d="M206.935 123.202L214.525 165.18H210.73L201.186 142.38C197.806 134.308 191.846 127.587 184.241 123.272L181.445 121.682L206.935 123.202Z" fill="#24285B"/>
<path opacity="0.08" d="M209.041 86.0573C207.236 87.5308 205.841 89.4458 204.991 91.617C204.141 93.7883 203.865 96.1424 204.19 98.4517C205.354 106.4 206.549 112.575 199.238 110.726C191.926 108.876 187.96 91.8333 187.96 91.8333L179.421 92.0423L180.895 111.042L185.848 111.384C187.019 111.464 188.132 111.928 189.015 112.704C189.897 113.48 190.5 114.525 190.73 115.678L192.065 122.309L206.935 123.19L209.041 120.055L218.32 109.978L219.478 93.9423L209.041 86.0573Z" fill="black"/>
<path d="M197.41 85.7517L180.902 86.8757L182.44 109.516L198.948 108.392L197.41 85.7517Z" fill="#FFD200"/>
<path d="M181.458 121.689L185.386 165.18H190.446C190.446 165.18 189.263 132.455 198.396 125.489L181.458 121.689Z" fill="#24285B"/>
<path d="M208.472 88.5147C208.505 87.2331 208.932 85.993 209.697 84.9644C210.461 83.9359 211.524 83.1693 212.741 82.7697C213.957 82.3701 215.268 82.3572 216.492 82.7326C217.716 83.108 218.794 83.8535 219.579 84.8667C222.501 88.6033 225.195 94.8353 224.974 105.07C224.5 126.92 211.691 132.778 191.926 108.87L195.816 105.862C195.816 105.862 203.602 112.474 210.73 112.569C216.037 112.657 208.092 98.9393 208.472 88.5147Z" fill="#68C2E9"/>
<path opacity="0.39" d="M208.472 88.5147C208.505 87.2331 208.932 85.993 209.697 84.9644C210.461 83.9359 211.524 83.1693 212.741 82.7697C213.957 82.3701 215.268 82.3572 216.492 82.7326C217.716 83.108 218.794 83.8535 219.579 84.8667C222.501 88.6033 225.195 94.8353 224.974 105.07C224.5 126.92 211.691 132.778 191.926 108.87L195.816 105.862C195.816 105.862 203.602 112.474 210.73 112.569C216.037 112.657 208.092 98.9393 208.472 88.5147Z" fill="white"/>
<path opacity="0.08" d="M181.603 97.223C181.603 97.223 187.296 107.692 198.681 104.734L198.927 108.401L182.419 109.522L181.603 97.223Z" fill="black"/>
<path d="M195.101 106.4C195.101 106.4 192.773 102.283 189.927 103.373C187.081 104.462 191.926 108.857 191.926 108.857L195.101 106.4Z" fill="#F4A28C"/>
<path d="M120.048 128.801L123.647 153.178C123.647 153.178 110.188 141.024 101.51 152.633C98.4549 156.731 95.5012 158.884 84.7487 154.812C73.9962 150.74 64.1987 152.633 62.3012 161.981C60.4037 171.329 53.13 155.015 45.2237 163.324C37.3175 171.633 45.8562 175.117 69.575 172.267C93.2937 169.417 107.209 180.817 126.658 174.483C146.107 168.15 155.911 174.8 171.091 174.167C186.271 173.533 191.331 175.117 212.204 169.1C233.076 163.083 220.742 153.862 213.469 152.633C206.195 151.405 205.74 163.102 197.429 160.233C189.117 157.364 188.485 147.288 178.049 149.169C167.612 151.05 172.04 162.767 164.45 158.333C158.625 154.939 160.965 149.53 153.191 147.199C150.504 146.422 147.667 146.314 144.929 146.886C142.191 147.458 139.633 148.692 137.48 150.48L134.248 153.121L135.355 127.3L120.048 128.801Z" fill="#E6E6E6"/>
<path d="M110.687 71.5667L84.755 100.542H113.002L110.687 71.5667Z" fill="#FFD200"/>
<path d="M142.357 71.5667L168.289 100.542H140.042L142.357 71.5667Z" fill="#FFD200"/>
<path opacity="0.58" d="M55.8814 116.945C55.8814 116.945 50.619 118.357 47.1592 114.703C47.1592 114.703 53.364 109.168 57.8042 116.318L55.8814 116.945Z" fill="#68C2E9"/>
<path opacity="0.73" d="M56.1724 116.166C56.1724 116.166 50.0751 112.999 50.1257 106.666C50.1257 106.666 57.4627 106.938 58.772 114.659L56.1724 116.166Z" fill="#68C2E9"/>
<path d="M56.9945 115.691C56.9945 115.691 55.5777 109.408 60.0558 105.444C60.0558 105.444 63.0159 108.332 60.467 113.677L56.9945 115.691Z" fill="#68C2E9"/>
<path d="M53.6296 117.496L58.2279 123.266L64.0406 119.896L61.2196 113.101L53.6296 117.496Z" fill="#24285B"/>
<path d="M125.962 25.2003V25.0293L125.874 25.1117L125.785 25.0293V25.2067C123.534 27.474 100.928 52.307 113.951 122.784H138.986C152.002 52.231 128.271 27.417 125.962 25.2003Z" fill="#68C2E9"/>
<path opacity="0.11" d="M141.111 60.9837L141.832 65.9743C135.067 68.7838 127.737 69.9618 120.434 69.4133C118.487 69.2375 116.527 69.5569 114.736 70.3419C112.944 71.1269 111.38 72.352 110.188 73.9037C110.188 73.9037 110.922 63.6373 111.415 61.275L141.111 60.9837Z" fill="#3B1E59"/>
<path d="M125.962 25.2003V25.0293L125.874 25.1117L125.785 25.0293V25.2067C123.534 27.474 100.928 52.307 113.951 122.784H138.986C152.002 52.231 128.271 27.417 125.962 25.2003Z" fill="#FFF8DC"/>
<path opacity="0.08" d="M117.171 84.1067L110.213 91.9537C110.38 98.9452 111.084 105.913 112.319 112.797L129.934 99.6993L117.171 84.1067Z" fill="black"/>
<path d="M113.002 117.357L113.951 122.784H139.207L140.206 117.357H113.002Z" fill="#FFD200"/>
<path d="M112.648 54.8277L112.598 54.9733C111.887 56.8349 111.51 58.8073 111.484 60.8L111.415 61.2623C111.415 61.2623 125.463 69.2487 141.111 60.971C141.187 60.6948 141.224 60.4089 141.218 60.1223C141.162 58.2951 140.762 56.4947 140.042 54.815H112.648V54.8277Z" fill="#FFD200"/>
<path opacity="0.13" d="M113.002 117.357L113.951 122.784H139.207L140.206 117.357H113.002Z" fill="black"/>
<path opacity="0.13" d="M112.648 54.8277L112.598 54.9733C111.887 56.8349 111.51 58.8073 111.484 60.8L111.415 61.2623C111.415 61.2623 125.463 69.2487 141.111 60.971C141.187 60.6948 141.224 60.4089 141.218 60.1223C141.162 58.2951 140.762 56.4947 140.042 54.815H112.648V54.8277Z" fill="black"/>
<path d="M112.648 54.8277C112.648 54.8277 125.931 61.009 140.042 54.8277C140.042 54.8277 137.746 32.357 126.342 21.8943C126.342 21.8817 116.778 29.4373 112.648 54.8277Z" fill="#FFD200"/>
<path d="M126.658 100.542C132.684 100.542 137.569 95.6504 137.569 89.6167C137.569 83.583 132.684 78.6917 126.658 78.6917C120.632 78.6917 115.748 83.583 115.748 89.6167C115.748 95.6504 120.632 100.542 126.658 100.542Z" fill="#24285B"/>
<path d="M127.057 83.7267C127.379 83.7267 127.48 83.8407 127.48 84.1637V84.8667C128.046 84.9292 128.584 85.1435 129.039 85.4868C129.493 85.8301 129.846 86.2898 130.061 86.8173C130.232 87.153 130.162 87.3367 129.783 87.5077L129.093 87.818C128.771 87.97 128.619 87.9003 128.461 87.5647C128.318 87.2143 128.066 86.9196 127.742 86.7244C127.419 86.5292 127.041 86.4441 126.664 86.4817C125.469 86.4817 124.925 86.83 124.925 87.6343C124.952 87.8796 125.063 88.1078 125.24 88.2799C125.416 88.4521 125.647 88.5574 125.893 88.578C126.225 88.6466 126.561 88.6974 126.899 88.73C127.546 88.7573 128.185 88.8811 128.796 89.0973C129.096 89.1946 129.375 89.3472 129.618 89.547C129.869 89.8068 130.064 90.1147 130.192 90.4522C130.32 90.7896 130.379 91.1496 130.365 91.5103C130.365 93.043 129.34 94.0817 127.531 94.354V95.0823C127.531 95.4053 127.43 95.5193 127.107 95.5193H126.336C126.013 95.5193 125.899 95.4053 125.899 95.0823V94.3667C125.27 94.3266 124.666 94.099 124.167 93.713C123.668 93.327 123.295 92.8003 123.097 92.2007C122.983 91.8903 123.097 91.6813 123.42 91.5673L124.103 91.314C124.457 91.1873 124.609 91.2697 124.767 91.6243C124.909 92.003 125.172 92.324 125.515 92.5371C125.859 92.7502 126.263 92.8435 126.664 92.8023C127.929 92.8023 128.606 92.397 128.606 91.5357C128.615 91.3399 128.557 91.1469 128.442 90.9882C128.327 90.8295 128.162 90.7144 127.974 90.6617C127.525 90.5058 127.057 90.4162 126.582 90.3957C125.932 90.3609 125.292 90.2241 124.685 89.9903C124.388 89.8849 124.112 89.7284 123.869 89.528C123.62 89.2797 123.424 88.9831 123.294 88.6564C123.163 88.3297 123.1 87.9798 123.11 87.628C123.11 86.108 124.065 85.0947 125.861 84.8603V84.17C125.861 83.847 125.975 83.733 126.298 83.733L127.057 83.7267Z" fill="white"/>
<path d="M113.951 122.784L98.8787 141.024L130.453 130.156V122.784H113.951Z" fill="#FFD200"/>
<path d="M139.093 122.784L154.165 141.024L122.591 130.156V122.784H139.093Z" fill="#FFD200"/>
<path d="M55.6032 145.458C58.0484 145.458 60.0307 143.473 60.0307 141.024C60.0307 138.576 58.0484 136.591 55.6032 136.591C53.1579 136.591 51.1757 138.576 51.1757 141.024C51.1757 143.473 53.1579 145.458 55.6032 145.458Z" fill="#E6E6E6"/>
<path d="M72.4782 45.8597C74.9234 45.8597 76.9057 43.8748 76.9057 41.4263C76.9057 38.9779 74.9234 36.993 72.4782 36.993C70.0329 36.993 68.0507 38.9779 68.0507 41.4263C68.0507 43.8748 70.0329 45.8597 72.4782 45.8597Z" fill="#E6E6E6"/>
<path d="M228.598 141.024C231.043 141.024 233.026 139.039 233.026 136.591C233.026 134.143 231.043 132.158 228.598 132.158C226.153 132.158 224.171 134.143 224.171 136.591C224.171 139.039 226.153 141.024 228.598 141.024Z" fill="#E6E6E6"/>
<path d="M168.289 78.7297C169.687 78.7297 170.819 77.5954 170.819 76.1963C170.819 74.7972 169.687 73.663 168.289 73.663C166.892 73.663 165.759 74.7972 165.759 76.1963C165.759 77.5954 166.892 78.7297 168.289 78.7297Z" fill="#E6E6E6"/>
<path d="M39.8664 83.315C41.2637 83.315 42.3964 82.1808 42.3964 80.7817C42.3964 79.3826 41.2637 78.2484 39.8664 78.2484C38.4691 78.2484 37.3364 79.3826 37.3364 80.7817C37.3364 82.1808 38.4691 83.315 39.8664 83.315Z" fill="#E6E6E6"/>
<path d="M156.696 24.415C158.093 24.415 159.226 23.2808 159.226 21.8817C159.226 20.4826 158.093 19.3483 156.696 19.3483C155.298 19.3483 154.166 20.4826 154.166 21.8817C154.166 23.2808 155.298 24.415 156.696 24.415Z" fill="#E6E6E6"/>
<path d="M189.548 34.7637V47.4303H197.72L199.509 52.4717L201.622 47.4303H209.794V34.7637H189.548Z" fill="#E6E6E6"/>
<path opacity="0.12" d="M198.649 43.9217H198.605C198.514 43.9175 198.426 43.8939 198.345 43.8524C198.264 43.8109 198.193 43.7524 198.137 43.681L195.999 40.926C195.948 40.8603 195.91 40.7852 195.888 40.7049C195.866 40.6246 195.86 40.5408 195.87 40.4581C195.881 40.3755 195.907 40.2957 195.948 40.2233C195.989 40.1509 196.044 40.0873 196.11 40.0362C196.175 39.985 196.25 39.9473 196.331 39.9252C196.411 39.9031 196.494 39.897 196.577 39.9073C196.659 39.9176 196.739 39.9441 196.812 39.9852C196.884 40.0263 196.947 40.0813 196.998 40.147L198.675 42.313L202.824 37.829C202.941 37.7194 203.095 37.6583 203.255 37.6581C203.415 37.6579 203.57 37.7187 203.687 37.828C203.804 37.9374 203.876 38.0872 203.887 38.2473C203.898 38.4074 203.848 38.5657 203.747 38.6903L199.111 43.7C199.054 43.7671 198.983 43.8215 198.903 43.8597C198.824 43.8979 198.737 43.919 198.649 43.9217V43.9217Z" fill="black"/>
</svg>
