<svg width="25" height="25" viewBox="0 0 25 25" fill="none" xmlns="http://www.w3.org/2000/svg">
<path d="M12.5 0C5.59671 0 0 5.59671 0 12.5C0 19.4033 5.59671 25 12.5 25C19.4033 25 25 19.4033 25 12.5C25 5.59671 19.4033 0 12.5 0ZM16.0905 17.428C15.5453 18.0916 14.8354 18.5391 14.0072 18.7654C13.6471 18.8632 13.4825 19.0535 13.5031 19.429C13.5185 19.7994 13.5031 20.1646 13.4979 20.535C13.4979 20.8642 13.3282 21.0391 13.0041 21.0494C12.7932 21.0545 12.5823 21.0597 12.3714 21.0597C12.1862 21.0597 12.001 21.0597 11.8158 21.0545C11.466 21.0494 11.3014 20.8488 11.3014 20.5093C11.2963 20.2418 11.2963 19.9691 11.2963 19.7016C11.2912 19.1049 11.2706 19.0844 10.6996 18.9918C9.96914 18.8735 9.24897 18.7088 8.58025 18.3848C8.05556 18.1276 7.99897 17.999 8.14815 17.4434C8.26132 17.0319 8.37449 16.6204 8.50309 16.214C8.59568 15.9156 8.68313 15.7819 8.84259 15.7819C8.93518 15.7819 9.0535 15.8282 9.21296 15.9105C9.9537 16.2963 10.7407 16.5123 11.5689 16.6152C11.7078 16.6307 11.8467 16.6409 11.9856 16.6409C12.3714 16.6409 12.7469 16.5689 13.1121 16.4095C14.0329 16.0082 14.177 14.9434 13.4002 14.3056C13.1379 14.0895 12.8344 13.93 12.5206 13.7912C11.713 13.4362 10.8745 13.1687 10.1132 12.7109C8.8786 11.9702 8.09671 10.9568 8.1893 9.45473C8.29218 7.7572 9.25412 6.69753 10.8128 6.13169C11.4558 5.90021 11.4609 5.90535 11.4609 5.23663C11.4609 5.01029 11.4558 4.78395 11.466 4.55247C11.4815 4.04835 11.5638 3.96091 12.0679 3.94547C12.1245 3.94547 12.1862 3.94547 12.2428 3.94547C12.3405 3.94547 12.4383 3.94547 12.536 3.94547C12.5772 3.94547 12.6183 3.94547 12.6543 3.94547C13.6111 3.94547 13.6111 3.98663 13.6163 5.02058C13.6214 5.78189 13.6214 5.78189 14.3776 5.90021C14.9588 5.9928 15.5093 6.16255 16.0442 6.39918C16.3374 6.52778 16.4506 6.73354 16.358 7.04733C16.2243 7.51029 16.0957 7.97839 15.9516 8.43621C15.8591 8.71399 15.7716 8.84259 15.607 8.84259C15.5144 8.84259 15.4012 8.80658 15.2572 8.73457C14.5165 8.37449 13.7397 8.19959 12.927 8.19959C12.8241 8.19959 12.716 8.20473 12.6132 8.20988C12.3714 8.22531 12.1348 8.25617 11.9084 8.35391C11.106 8.7037 10.9774 9.58848 11.6615 10.1337C12.0062 10.4115 12.4023 10.607 12.8086 10.7767C13.5185 11.07 14.2284 11.3529 14.9023 11.7233C17.0216 12.9064 17.5977 15.5967 16.0905 17.428Z" fill="#449CF4"/>
</svg>
