<svg width="39" height="22" viewBox="0 0 39 22" fill="none" xmlns="http://www.w3.org/2000/svg">
<rect width="39" height="22" rx="4" fill="#449CF4"/>
<path d="M11.0951 11.3848H7.66148V15H6.17906V6.46875H11.599V7.66406H7.66148V10.2012H11.0951V11.3848ZM16.1515 11.7129H14.4991V15H13.0167V6.46875H16.0167C17.0011 6.46875 17.7609 6.68945 18.296 7.13086C18.8312 7.57227 19.0988 8.21094 19.0988 9.04688C19.0988 9.61719 18.9601 10.0957 18.6827 10.4824C18.4093 10.8652 18.0265 11.1602 17.5343 11.3672L19.4503 14.9238V15H17.8624L16.1515 11.7129ZM14.4991 10.5234H16.0226C16.5226 10.5234 16.9132 10.3984 17.1945 10.1484C17.4757 9.89453 17.6163 9.54883 17.6163 9.11133C17.6163 8.6543 17.4855 8.30078 17.2238 8.05078C16.9659 7.80078 16.5792 7.67188 16.0636 7.66406H14.4991V10.5234ZM25.7313 11.1914H22.2274V13.8164H26.3231V15H20.745V6.46875H26.2821V7.66406H22.2274V10.0195H25.7313V11.1914ZM32.7565 11.1914H29.2526V13.8164H33.3483V15H27.7702V6.46875H33.3073V7.66406H29.2526V10.0195H32.7565V11.1914Z" fill="white"/>
</svg>
