<svg width="44" height="25" viewBox="0 0 44 25" fill="none" xmlns="http://www.w3.org/2000/svg">
<rect width="44" height="25" rx="4" fill="#449CF4"/>
<path d="M12.2763 12.9326H8.33879V17H6.28801V7.04688H12.7685V8.70801H8.33879V11.2783H12.2763V12.9326ZM17.9225 13.3564H16.2887V17H14.2379V7.04688H17.9362C19.112 7.04688 20.0189 7.30892 20.6569 7.83301C21.2949 8.3571 21.6139 9.09766 21.6139 10.0547C21.6139 10.7337 21.4658 11.3011 21.1696 11.7568C20.8779 12.208 20.4336 12.568 19.8366 12.8369L21.9899 16.9043V17H19.7887L17.9225 13.3564ZM16.2887 11.6953H17.943C18.458 11.6953 18.8567 11.5654 19.1393 11.3057C19.4218 11.0413 19.5631 10.679 19.5631 10.2188C19.5631 9.74935 19.4287 9.38021 19.1598 9.11133C18.8955 8.84245 18.4876 8.70801 17.9362 8.70801H16.2887V11.6953ZM29.4476 12.6865H25.5101V15.3525H30.1312V17H23.4593V7.04688H30.1175V8.70801H25.5101V11.0801H29.4476V12.6865ZM37.6026 12.6865H33.6651V15.3525H38.2862V17H31.6143V7.04688H38.2725V8.70801H33.6651V11.0801H37.6026V12.6865Z" fill="white"/>
</svg>
