<svg width="60" height="60" viewBox="0 0 60 60" fill="none" xmlns="http://www.w3.org/2000/svg">
<g clip-path="url(#clip0)">
<rect width="60" height="60" fill="none"/>
<g clip-path="url(#clip1)">
<rect width="48" height="48" transform="translate(6 6)" fill="none"/>
<path d="M13.8 22.8C16.5 16.5 22.8 12 30 12C39 12 46.2 18.6 47.7 27H53.7C52.2 15.3 42.3 6 30 6C21 6 13.2 10.8 9.3 18.3L6 15V27H18L13.8 22.8Z" fill="#C5C7D2"/>
<path d="M54 33H41.7L46.2 37.2C43.5 43.5 37.2 48 29.7 48C21 48 13.5 41.4 12 33H6C7.5 44.7 17.7 54 29.7 54C38.7 54 46.5 48.9 50.7 41.7L54 45V33Z" fill="#C5C7D2"/>
</g>
<g clip-path="url(#clip2)">
<path d="M38.4853 21.5147C36.2188 19.2482 33.2053 18 30 18C26.7947 18 23.7812 19.2482 21.5147 21.5147C19.2482 23.7812 18 26.7947 18 30C18 33.2054 19.2482 36.2188 21.5147 38.4853C23.7812 40.7518 26.7947 42 30 42C33.2053 42 36.2188 40.7518 38.4853 38.4853C40.7518 36.2188 42 33.2054 42 30C42 26.7947 40.7518 23.7812 38.4853 21.5147ZM35.1903 33.5328C35.6479 33.9906 35.6479 34.7325 35.1903 35.1901C34.9614 35.419 34.6615 35.5334 34.3616 35.5334C34.0616 35.5334 33.7617 35.419 33.5328 35.1901L30 31.6573L26.4672 35.1903C26.2383 35.419 25.9384 35.5334 25.6384 35.5334C25.3385 35.5334 25.0386 35.419 24.8097 35.1903C24.3521 34.7325 24.3521 33.9906 24.8097 33.533L28.3427 30L24.8097 26.4672C24.3521 26.0094 24.3521 25.2675 24.8097 24.8099C25.2675 24.3521 26.0094 24.3521 26.467 24.8099L30 28.3427L33.5328 24.8099C33.9906 24.3523 34.7325 24.3521 35.1901 24.8099C35.6479 25.2675 35.6479 26.0094 35.1901 26.4672L31.6573 30L35.1903 33.5328Z" fill="#4368E0"/>
</g>
</g>
<defs>
<clipPath id="clip0">
<rect width="60" height="60" fill="none"/>
</clipPath>
<clipPath id="clip1">
<rect width="48" height="48" fill="none" transform="translate(6 6)"/>
</clipPath>
<clipPath id="clip2">
<rect width="24" height="24" fill="none" transform="translate(18 18)"/>
</clipPath>
</defs>
</svg>
