<svg width="10" height="14" viewBox="0 0 10 14" fill="none" xmlns="http://www.w3.org/2000/svg">
<path fill-rule="evenodd" clip-rule="evenodd" d="M7.26857 6.59253C8.57213 7.08101 9.5 8.3384 9.5 9.8125C9.5 11.711 7.96098 13.25 6.0625 13.25H0.75V0.75H4.8125C6.71098 0.75 8.25 2.28902 8.25 4.1875C8.25 5.12376 7.8757 5.9726 7.26857 6.59253ZM4.8125 6.375C6.02062 6.375 7 5.39562 7 4.1875C7 2.97938 6.02062 2 4.8125 2H2V6.375H4.8125ZM2 7.625V12H6.0625C7.27062 12 8.25 11.0206 8.25 9.8125C8.25 8.60438 7.27062 7.625 6.0625 7.625H2Z" fill="#C5C7D2"/>
</svg>
