<svg width="21" height="20" viewBox="0 0 21 20" fill="none" xmlns="http://www.w3.org/2000/svg">
<path d="M10.5 9.79876C11.6916 9.79876 12.661 8.82934 12.661 7.63778C12.661 6.44622 11.6916 5.4768 10.5 5.4768C9.30841 5.4768 8.33899 6.44622 8.33899 7.63778C8.33899 8.8293 9.30841 9.79876 10.5 9.79876ZM10.5 6.82274C10.9494 6.82274 11.315 7.18837 11.315 7.63774C11.315 8.08712 10.9494 8.4527 10.5 8.4527C10.0506 8.4527 9.68497 8.08708 9.68497 7.6377C9.68497 7.18833 10.0506 6.82274 10.5 6.82274Z" fill="#15D7AE"/>
<path d="M10.5 10.014C8.38472 10.014 6.66382 11.7349 6.66382 13.8502C6.66382 14.2219 6.96515 14.5232 7.33683 14.5232H13.6632C14.0349 14.5232 14.3362 14.2219 14.3362 13.8502C14.3362 11.7349 12.6153 10.014 10.5 10.014ZM8.10214 13.1772C8.39651 12.13 9.35999 11.36 10.5 11.36C11.6399 11.36 12.6035 12.1301 12.8978 13.1772H8.10214Z" fill="#15D7AE"/>
<path d="M19.827 9.32699H19.2233C18.8955 5.0382 15.4618 1.60449 11.173 1.27668V0.673008C11.173 0.301328 10.8717 0 10.5 0C10.1283 0 9.82699 0.301328 9.82699 0.673008V1.27672C5.5382 1.60449 2.10449 5.0382 1.77672 9.32699H1.17301C0.801328 9.32699 0.5 9.62832 0.5 10C0.5 10.3717 0.801328 10.673 1.17301 10.673H1.77672C2.10449 14.9618 5.5382 18.3955 9.82703 18.7233V19.327C9.82703 19.6987 10.1284 20 10.5 20C10.8717 20 11.173 19.6987 11.173 19.327V18.7233C15.4618 18.3955 18.8955 14.9618 19.2234 10.673H19.8271C20.1987 10.673 20.5001 10.3717 20.5001 10C20.5 9.62832 20.1987 9.32699 19.827 9.32699ZM11.173 17.372V16.8248C11.173 16.4531 10.8717 16.1518 10.5 16.1518C10.1283 16.1518 9.82699 16.4531 9.82699 16.8248V17.372C6.28098 17.0509 3.4491 14.219 3.12797 10.673H3.67516C4.04684 10.673 4.34816 10.3716 4.34816 9.99996C4.34816 9.62828 4.04684 9.32695 3.67516 9.32695H3.12801C3.4491 5.78094 6.28102 2.94906 9.82703 2.62793V3.17512C9.82703 3.5468 10.1284 3.84812 10.5 3.84812C10.8717 3.84812 11.173 3.5468 11.173 3.17512V2.62801C14.7191 2.9491 17.5509 5.78102 17.8721 9.32703H17.3249C16.9532 9.32703 16.6519 9.62836 16.6519 10C16.6519 10.3717 16.9532 10.673 17.3249 10.673H17.8721C17.5509 14.219 14.719 17.0509 11.173 17.372Z" fill="#15D7AE"/>
</svg>
