<svg width="60" height="60" viewBox="0 0 60 60" fill="none" xmlns="http://www.w3.org/2000/svg">
<g clip-path="url(#clip0)">
<rect x="2.40002" y="4.80005" width="55.2" height="50.4" fill="white"/>
<rect width="37.037" height="37.037" transform="translate(11.8518 16.2963)" fill="white"/>
<g clip-path="url(#clip1)">
<rect width="29.6296" height="29.6296" transform="translate(15.5555 20)" fill="white"/>
<path d="M20.3704 30.3704C22.037 26.4815 25.9259 23.7037 30.3704 23.7037C35.9259 23.7037 40.3704 27.7778 41.2963 32.963H45C44.0741 25.7407 37.9629 20 30.3704 20C24.8148 20 20 22.963 17.5926 27.5926L15.5555 25.5556V32.963H22.9629L20.3704 30.3704Z" fill="#C5C7D2"/>
<path d="M45.1852 36.6666H37.5926L40.3704 39.2592C38.7037 43.1481 34.8148 45.9259 30.1852 45.9259C24.8148 45.9259 20.1852 41.8518 19.2592 36.6666H15.5555C16.4815 43.8888 22.7778 49.6296 30.1852 49.6296C35.7407 49.6296 40.5555 46.4814 43.1481 42.037L45.1852 44.074V36.6666Z" fill="#C5C7D2"/>
</g>
<ellipse cx="30.3703" cy="34.8148" rx="7.40741" ry="7.40741" fill="#4368E0"/>
<path d="M58.75 12.4926C59.45 12.4926 60 13.0676 60 13.7426C60 14.4426 59.45 14.9926 58.75 14.9926H57.5V12.4926H58.75Z" fill="#C5C7D2"/>
<path d="M2.5 12.4926H57.5V14.9926H2.5V12.4926Z" fill="#C5C7D2"/>
<path d="M2.5 12.4926V14.9926H1.25C0.55 14.9926 0 14.4426 0 13.7426C0 13.0676 0.55 12.4926 1.25 12.4926H2.5Z" fill="#C5C7D2"/>
<path d="M53.75 4.99255H6.25C4.175 4.99255 2.5 6.69255 2.5 8.74255V12.4926H1.25C0.55 12.4926 0 13.0676 0 13.7426V8.74255C0 5.31755 2.8 2.49255 6.25 2.49255H53.75C57.2 2.49255 60 5.31755 60 8.74255V13.7426C60 13.0676 59.45 12.4926 58.75 12.4926H57.5V8.74255C57.5 6.69255 55.825 4.99255 53.75 4.99255Z" fill="#C5C7D2"/>
<path d="M53.75 57.4926H6.25C2.8 57.4926 0 54.6926 0 51.2426V13.7426C0 14.4426 0.55 14.9926 1.25 14.9926H2.5V51.2426C2.5 53.3176 4.175 54.9926 6.25 54.9926H53.75C55.825 54.9926 57.5 53.3176 57.5 51.2426V14.9926H58.75C59.45 14.9926 60 14.4426 60 13.7426V51.2426C60 54.6926 57.2 57.4926 53.75 57.4926Z" fill="#C5C7D2"/>
</g>
<defs>
<clipPath id="clip0">
<rect width="60" height="60" fill="white"/>
</clipPath>
<clipPath id="clip1">
<rect width="29.6296" height="29.6296" fill="white" transform="translate(15.5555 20)"/>
</clipPath>
</defs>
</svg>
