<svg width="60" height="60" viewBox="0 0 60 60" fill="none" xmlns="http://www.w3.org/2000/svg">
<g clip-path="url(#clip0)">
<rect x="2.40002" y="4.80005" width="55.2" height="50.4" fill="white"/>
<path d="M58.75 12.4924C59.45 12.4924 60 13.0674 60 13.7424C60 14.4424 59.45 14.9924 58.75 14.9924H57.5V12.4924H58.75Z" fill="#C5C7D2"/>
<path d="M2.5 12.4924V14.9924H1.25C0.55 14.9924 0 14.4424 0 13.7424C0 13.0674 0.55 12.4924 1.25 12.4924H2.5Z" fill="#C5C7D2"/>
<path d="M53.75 4.99255H6.25C4.175 4.99255 2.5 6.69255 2.5 8.74255V12.4926H1.25C0.55 12.4926 0 13.0676 0 13.7426V8.74255C0 5.31755 2.8 2.49255 6.25 2.49255H53.75C57.2 2.49255 60 5.31755 60 8.74255V13.7426C60 13.0676 59.45 12.4926 58.75 12.4926H57.5V8.74255C57.5 6.69255 55.825 4.99255 53.75 4.99255Z" fill="#C5C7D2"/>
<path d="M53.75 57.4927H6.25C2.8 57.4927 0 54.6927 0 51.2427V13.7427C0 14.4427 0.55 14.9927 1.25 14.9927H2.5V51.2427C2.5 53.3177 4.175 54.9927 6.25 54.9927H53.75C55.825 54.9927 57.5 53.3177 57.5 51.2427V14.9927H58.75C59.45 14.9927 60 14.4427 60 13.7427V51.2427C60 54.6927 57.2 57.4927 53.75 57.4927Z" fill="#C5C7D2"/>
<g clip-path="url(#clip1)">
<path d="M47.5223 45.645C47.1768 45.645 46.8964 45.9254 46.8964 46.2708V46.8967H46.2706C45.9252 46.8967 45.6448 47.1771 45.6448 47.5225C45.6448 47.868 45.9252 48.1483 46.2706 48.1483H47.5222C47.8676 48.1483 48.148 47.868 48.148 47.5225V46.2709C48.1481 45.9253 47.8677 45.645 47.5223 45.645Z" fill="#C5C7D2"/>
<path d="M36.9733 46.8965H34.649C34.3036 46.8965 34.0232 47.1769 34.0232 47.5223C34.0232 47.8678 34.3036 48.1481 34.649 48.1481H36.9733C37.3187 48.1481 37.5991 47.8677 37.5991 47.5222C37.5991 47.1768 37.3187 46.8965 36.9733 46.8965Z" fill="#C5C7D2"/>
<path d="M42.7844 46.8965H40.4602C40.1147 46.8965 39.8344 47.1769 39.8344 47.5223C39.8344 47.8678 40.1147 48.1481 40.4602 48.1481H42.7844C43.1299 48.1481 43.4102 47.8677 43.4102 47.5222C43.4102 47.1768 43.1299 46.8965 42.7844 46.8965Z" fill="#C5C7D2"/>
<path d="M19.5404 46.8965H17.2162C16.8707 46.8965 16.5903 47.1769 16.5903 47.5223C16.5903 47.8678 16.8707 48.1481 17.2162 48.1481H19.5404C19.8859 48.1481 20.1662 47.8677 20.1662 47.5222C20.1662 47.1768 19.8859 46.8965 19.5404 46.8965Z" fill="#C5C7D2"/>
<path d="M25.3516 46.8965H23.0273C22.6819 46.8965 22.4015 47.1769 22.4015 47.5223C22.4015 47.8678 22.6819 48.1481 23.0273 48.1481H25.3516C25.697 48.1481 25.9774 47.8677 25.9774 47.5222C25.9774 47.1768 25.697 46.8965 25.3516 46.8965Z" fill="#C5C7D2"/>
<path d="M31.1621 46.8965H28.8379C28.4924 46.8965 28.212 47.1769 28.212 47.5223C28.212 47.8678 28.4924 48.1481 28.8379 48.1481H31.1621C31.5082 48.1481 31.7879 47.8678 31.7879 47.5223C31.7879 47.1769 31.5075 46.8965 31.1621 46.8965Z" fill="#C5C7D2"/>
<path d="M13.7292 46.8964H13.1033V46.2706C13.1033 45.9252 12.823 45.6448 12.4775 45.6448C12.1321 45.6448 11.8517 45.9252 11.8517 46.2706V47.5222C11.8518 47.8676 12.1321 48.148 12.4776 48.148H13.7292C14.0746 48.148 14.355 47.8676 14.355 47.5222C14.355 47.1767 14.0746 46.8964 13.7292 46.8964Z" fill="#C5C7D2"/>
<path d="M12.4776 39.8345C12.1322 39.8345 11.8518 40.1148 11.8518 40.4603V42.7845C11.8518 43.13 12.1322 43.4104 12.4776 43.4104C12.8231 43.4104 13.1035 43.13 13.1035 42.7845V40.4603C13.1034 40.1148 12.823 39.8345 12.4776 39.8345Z" fill="#C5C7D2"/>
<path d="M12.4776 34.0232C12.1322 34.0232 11.8518 34.3036 11.8518 34.649V36.9733C11.8518 37.3187 12.1322 37.5991 12.4776 37.5991C12.8231 37.5991 13.1035 37.3187 13.1035 36.9733V34.6489C13.1034 34.3035 12.823 34.0232 12.4776 34.0232Z" fill="#C5C7D2"/>
<path d="M12.4776 28.2122C12.1322 28.2122 11.8518 28.4925 11.8518 28.838V31.1622C11.8518 31.5077 12.1322 31.7881 12.4776 31.7881C12.8231 31.7881 13.1035 31.5077 13.1035 31.1622V28.838C13.1034 28.4925 12.823 28.2122 12.4776 28.2122Z" fill="#C5C7D2"/>
<path d="M12.4776 16.5898C12.1322 16.5898 11.8518 16.8701 11.8518 17.2156V19.5404C11.8518 19.8859 12.1322 20.1662 12.4776 20.1662C12.8231 20.1662 13.1035 19.8859 13.1035 19.5398V17.2156C13.1034 16.8701 12.823 16.5898 12.4776 16.5898Z" fill="#C5C7D2"/>
<path d="M12.4776 22.4011C12.1322 22.4011 11.8518 22.6815 11.8518 23.0269V25.3512C11.8518 25.6966 12.1322 25.977 12.4776 25.977C12.8231 25.977 13.1035 25.6973 13.1035 25.3512V23.0269C13.1034 22.6814 12.823 22.4011 12.4776 22.4011Z" fill="#C5C7D2"/>
<path d="M13.7292 11.8518H12.4776C12.1322 11.8518 11.8518 12.1322 11.8518 12.4776V13.7292C11.8518 14.0747 12.1322 14.355 12.4776 14.355C12.8231 14.355 13.1035 14.0747 13.1035 13.7292V13.1034H13.7293C14.0747 13.1034 14.3551 12.823 14.3551 12.4776C14.355 12.1322 14.0747 11.8518 13.7292 11.8518Z" fill="#C5C7D2"/>
<path d="M19.5398 11.8518H17.2155C16.8701 11.8518 16.5897 12.1322 16.5897 12.4776C16.5897 12.8231 16.8701 13.1035 17.2155 13.1035H19.5404C19.8858 13.1035 20.1655 12.8231 20.1655 12.4776C20.1655 12.1322 19.8852 11.8518 19.5398 11.8518Z" fill="#C5C7D2"/>
<path d="M25.3509 11.8518H23.0267C22.6813 11.8518 22.4009 12.1322 22.4009 12.4776C22.4009 12.8231 22.6813 13.1035 23.0267 13.1035H25.3509C25.697 13.1035 25.9768 12.8231 25.9768 12.4776C25.9767 12.1322 25.6964 11.8518 25.3509 11.8518Z" fill="#C5C7D2"/>
<path d="M31.1621 11.8518H28.8379C28.4924 11.8518 28.212 12.1322 28.212 12.4776C28.212 12.8231 28.4924 13.1035 28.8379 13.1035H31.1621C31.5075 13.1035 31.7879 12.8231 31.7879 12.4776C31.7878 12.1322 31.5075 11.8518 31.1621 11.8518Z" fill="#C5C7D2"/>
<path d="M42.7838 11.8518H40.4596C40.1141 11.8518 39.8337 12.1322 39.8337 12.4776C39.8337 12.8231 40.1141 13.1035 40.4596 13.1035H42.7838C43.1293 13.1035 43.4096 12.8231 43.4096 12.4776C43.4096 12.1322 43.1293 11.8518 42.7838 11.8518Z" fill="#C5C7D2"/>
<path d="M36.9733 11.8518H34.649C34.3036 11.8518 34.0232 12.1322 34.0232 12.4776C34.0232 12.8231 34.3036 13.1035 34.649 13.1035H36.9733C37.3187 13.1035 37.5991 12.8231 37.5991 12.4776C37.599 12.1322 37.3187 11.8518 36.9733 11.8518Z" fill="#C5C7D2"/>
<path d="M47.5223 11.8518H46.2707C45.9253 11.8518 45.6449 12.1322 45.6449 12.4776C45.6449 12.8231 45.9253 13.1035 46.2707 13.1035H46.8965V13.7293C46.8965 14.0747 47.1769 14.3551 47.5224 14.3551C47.8678 14.3551 48.1481 14.0747 48.1481 13.7292V12.4776C48.1481 12.1322 47.8678 11.8518 47.5223 11.8518Z" fill="#C5C7D2"/>
<path d="M47.5223 22.4011C47.1769 22.4011 46.8965 22.6815 46.8965 23.0269V25.3512C46.8965 25.6966 47.1769 25.977 47.5223 25.977C47.8678 25.977 48.1481 25.6972 48.1481 25.3511V23.0269C48.1481 22.6814 47.8678 22.4011 47.5223 22.4011Z" fill="#C5C7D2"/>
<path d="M47.5223 16.5898C47.1769 16.5898 46.8965 16.8702 46.8965 17.2157V19.5405C46.8965 19.8859 47.1769 20.1663 47.5223 20.1663C47.8678 20.1663 48.1481 19.8859 48.1481 19.5399V17.2156C48.1481 16.8701 47.8678 16.5898 47.5223 16.5898Z" fill="#C5C7D2"/>
<path d="M47.5223 39.8345C47.1769 39.8345 46.8965 40.1148 46.8965 40.4603V42.7845C46.8965 43.13 47.1769 43.4104 47.5223 43.4104C47.8678 43.4104 48.1481 43.13 48.1481 42.7845V40.4603C48.1481 40.1148 47.8678 39.8345 47.5223 39.8345Z" fill="#C5C7D2"/>
<path d="M47.5223 28.2122C47.1769 28.2122 46.8965 28.4925 46.8965 28.838V31.1622C46.8965 31.5077 47.1769 31.788 47.5223 31.788C47.8678 31.788 48.1481 31.5083 48.1481 31.1622V28.838C48.1481 28.4925 47.8678 28.2122 47.5223 28.2122Z" fill="#C5C7D2"/>
<path d="M47.5223 34.0234C47.1769 34.0234 46.8965 34.3038 46.8965 34.6493V36.9735C46.8965 37.319 47.1769 37.5993 47.5223 37.5993C47.8678 37.5993 48.1481 37.319 48.1481 36.9735V34.6492C48.1481 34.3037 47.8678 34.0234 47.5223 34.0234Z" fill="#C5C7D2"/>
<path d="M21.2387 14.9807C20.8933 14.9807 20.6129 15.2611 20.6129 15.6065V44.3933C20.6129 44.7387 20.8933 45.0191 21.2387 45.0191C21.5842 45.0191 21.8646 44.7387 21.8646 44.3933V15.6065C21.8645 15.2611 21.5842 14.9807 21.2387 14.9807Z" fill="#C5C7D2"/>
<path d="M30 14.9807C29.6545 14.9807 29.3741 15.2611 29.3741 15.6065V44.3933C29.3741 44.7387 29.6545 45.0191 30 45.0191C30.3454 45.0191 30.6258 44.7387 30.6258 44.3933V15.6065C30.6258 15.2611 30.3454 14.9807 30 14.9807Z" fill="#C5C7D2"/>
<path d="M38.7611 14.9807C38.4156 14.9807 38.1353 15.2611 38.1353 15.6065V44.3933C38.1353 44.7387 38.4156 45.0191 38.7611 45.0191C39.1065 45.0191 39.3869 44.7387 39.3869 44.3933V15.6065C39.3869 15.2611 39.1065 14.9807 38.7611 14.9807Z" fill="#C5C7D2"/>
<path d="M44.3933 20.613H15.6067C15.2612 20.613 14.9808 20.8934 14.9808 21.2389C14.9808 21.5843 15.2612 21.8647 15.6067 21.8647H44.3934C44.7388 21.8647 45.0192 21.5843 45.0192 21.2389C45.0191 20.8934 44.7388 20.613 44.3933 20.613Z" fill="#C5C7D2"/>
<path d="M44.3933 29.374H15.6067C15.2612 29.374 14.9808 29.6544 14.9808 29.9999C14.9808 30.3453 15.2612 30.6257 15.6067 30.6257H44.3934C44.7388 30.6257 45.0192 30.3453 45.0192 29.9999C45.0192 29.6544 44.7388 29.374 44.3933 29.374Z" fill="#C5C7D2"/>
<path d="M44.3933 38.1353H15.6067C15.2612 38.1353 14.9808 38.4156 14.9808 38.7611C14.9808 39.1065 15.2612 39.3869 15.6067 39.3869H44.3934C44.7388 39.3869 45.0192 39.1065 45.0192 38.7611C45.0191 38.4156 44.7388 38.1353 44.3933 38.1353Z" fill="#C5C7D2"/>
</g>
</g>
<defs>
<clipPath id="clip0">
<rect width="60" height="60" fill="white"/>
</clipPath>
<clipPath id="clip1">
<rect width="36.2963" height="36.2963" fill="white" transform="translate(11.8518 11.8518)"/>
</clipPath>
</defs>
</svg>
