<svg width="40" height="40" viewBox="0 0 50 50" fill="none" xmlns="http://www.w3.org/2000/svg">
<g clip-path="url(#clip0)">
<path d="M46.3542 12.5H3.64583C1.63542 12.5 0 10.8646 0 8.85417V3.64583C0 1.63542 1.63542 0 3.64583 0H46.3542C48.3646 0 50 1.63542 50 3.64583V8.85417C50 10.8646 48.3646 12.5 46.3542 12.5ZM3.64583 3.125C3.35833 3.125 3.125 3.35833 3.125 3.64583V8.85417C3.125 9.14167 3.35833 9.375 3.64583 9.375H46.3542C46.6417 9.375 46.875 9.14167 46.875 8.85417V3.64583C46.875 3.35833 46.6417 3.125 46.3542 3.125H3.64583Z" fill="#C5C7D2"/>
<path d="M28.6455 40.1039C28.2455 40.1039 27.8455 39.9518 27.5413 39.6456C26.9309 39.0351 26.9309 38.0456 27.5413 37.4351L31.7913 33.1852C33.2163 31.7602 35.5351 31.7622 36.958 33.1852L38.0434 34.2706C38.1725 34.3997 38.3309 34.4081 38.4184 34.4122C38.5059 34.4081 38.6746 34.3768 38.808 34.2185L40.9434 31.6456C42.3371 29.9768 45.1642 29.9789 46.5538 31.6435L49.6371 35.3539C50.1892 36.0164 50.0975 37.0018 49.435 37.556C48.7705 38.106 47.7871 38.0185 47.235 37.3518L44.1517 33.6435C43.883 33.3227 43.6163 33.3206 43.3455 33.6456L41.2017 36.2268C40.533 37.0185 39.5684 37.4893 38.5496 37.5331C37.533 37.6081 36.5476 37.1935 35.833 36.481L34.7476 35.3956C34.5455 35.1914 34.2017 35.1914 33.9996 35.3956L29.7496 39.6456C29.4455 39.9518 29.0455 40.1039 28.6455 40.1039Z" fill="#C5C7D2"/>
<path d="M46.3538 46.875H30.7288C28.7184 46.875 27.083 45.2396 27.083 43.2292V22.3958C27.083 20.3854 28.7184 18.75 30.7288 18.75H46.3538C48.3642 18.75 49.9997 20.3854 49.9997 22.3958V43.2292C49.9997 45.2396 48.3642 46.875 46.3538 46.875ZM30.7288 21.875C30.4413 21.875 30.208 22.1083 30.208 22.3958V43.2292C30.208 43.5167 30.4413 43.75 30.7288 43.75H46.3538C46.6413 43.75 46.8747 43.5167 46.8747 43.2292V22.3958C46.8747 22.1083 46.6413 21.875 46.3538 21.875H30.7288Z" fill="#C5C7D2"/>
<path d="M21.3542 21.875H1.5625C0.7 21.875 0 21.175 0 20.3125C0 19.45 0.7 18.75 1.5625 18.75H21.3542C22.2167 18.75 22.9167 19.45 22.9167 20.3125C22.9167 21.175 22.2167 21.875 21.3542 21.875Z" fill="#C5C7D2"/>
<path d="M21.3542 28.125H1.5625C0.7 28.125 0 27.425 0 26.5625C0 25.7 0.7 25 1.5625 25H21.3542C22.2167 25 22.9167 25.7 22.9167 26.5625C22.9167 27.425 22.2167 28.125 21.3542 28.125Z" fill="#C5C7D2"/>
<path d="M21.3542 34.375H1.5625C0.7 34.375 0 33.675 0 32.8125C0 31.95 0.7 31.25 1.5625 31.25H21.3542C22.2167 31.25 22.9167 31.95 22.9167 32.8125C22.9167 33.675 22.2167 34.375 21.3542 34.375Z" fill="#C5C7D2"/>
<path d="M21.3542 40.625H1.5625C0.7 40.625 0 39.925 0 39.0625C0 38.2 0.7 37.5 1.5625 37.5H21.3542C22.2167 37.5 22.9167 38.2 22.9167 39.0625C22.9167 39.925 22.2167 40.625 21.3542 40.625Z" fill="#C5C7D2"/>
<path d="M21.3542 46.875H1.5625C0.7 46.875 0 46.175 0 45.3125C0 44.45 0.7 43.75 1.5625 43.75H21.3542C22.2167 43.75 22.9167 44.45 22.9167 45.3125C22.9167 46.175 22.2167 46.875 21.3542 46.875Z" fill="#C5C7D2"/>
</g>
<defs>
<clipPath id="clip0">
<rect width="50" height="50" fill="white"/>
</clipPath>
</defs>
</svg>
