<svg width="60" height="60" viewBox="0 0 60 60" fill="none" xmlns="http://www.w3.org/2000/svg">
<g clip-path="url(#clip0)">
<rect width="60" height="60" fill="white"/>
<g clip-path="url(#clip1)">
<rect width="39.6" height="39.6" transform="translate(10.8 7.2)" fill="white"/>
<path d="M30.6 7.2C19.71 7.2 10.8 16.11 10.8 27C10.8 37.89 19.71 46.8 30.6 46.8C41.49 46.8 50.4 37.89 50.4 27C50.4 16.11 41.49 7.2 30.6 7.2ZM30.6 25.02C33.966 25.02 36.54 27.594 36.54 30.96C36.54 33.534 34.758 35.712 32.58 36.504V38.88H28.62V36.504C26.244 35.712 24.66 33.534 24.66 30.96H28.62C28.62 32.148 29.412 32.94 30.6 32.94C31.788 32.94 32.58 32.148 32.58 30.96C32.58 29.772 31.788 28.98 30.6 28.98C27.234 28.98 24.66 26.406 24.66 23.04C24.66 20.466 26.442 18.288 28.62 17.496V15.12H32.58V17.496C34.956 18.288 36.54 20.466 36.54 23.04H32.58C32.58 21.852 31.788 21.06 30.6 21.06C29.412 21.06 28.62 22.05 28.62 23.04C28.62 24.228 29.412 25.02 30.6 25.02Z" fill="#C5C7D2"/>
</g>
<g clip-path="url(#clip2)">
<rect x="32.3999" y="30" width="24" height="24" rx="10" fill="white"/>
<path d="M44.3999 30C37.7834 30 32.3999 35.3835 32.3999 42C32.3999 48.6165 37.7834 54 44.3999 54C51.0164 54 56.3999 48.6165 56.3999 42C56.3999 35.3835 51.0164 30 44.3999 30ZM51.1067 38.8421L43.4375 46.4511C42.9864 46.9023 42.2646 46.9323 41.7834 46.4812L37.7232 42.782C37.242 42.3308 37.2119 41.5789 37.633 41.0977C38.0841 40.6165 38.836 40.5865 39.3172 41.0376L42.5352 43.985L49.3924 37.1278C49.8736 36.6466 50.6255 36.6466 51.1067 37.1278C51.5879 37.609 51.5879 38.3609 51.1067 38.8421Z" fill="#4368E0"/>
</g>
</g>
<defs>
<clipPath id="clip0">
<rect width="60" height="60" fill="white"/>
</clipPath>
<clipPath id="clip1">
<rect width="39.6" height="39.6" fill="white" transform="translate(10.8 7.2)"/>
</clipPath>
<clipPath id="clip2">
<rect x="32.3999" y="30" width="24" height="24" rx="10" fill="white"/>
</clipPath>
</defs>
</svg>
