<svg width="60" height="60" viewBox="0 0 60 60" fill="none" xmlns="http://www.w3.org/2000/svg">
<g clip-path="url(#clip0)">
<rect width="60" height="60" fill="white"/>
<g clip-path="url(#clip1)">
<rect width="42" height="42" transform="translate(9.6001 6)" fill="white"/>
<path d="M51.6001 19.1254V15.4939C51.6001 14.1986 50.5496 13.1453 49.2529 13.1453H11.948C10.6499 13.1446 9.6001 14.1979 9.6001 15.4939V19.1254H51.6001Z" fill="#C5C7D2"/>
<path d="M9.6001 23.3544V38.5061C9.6001 39.8014 10.6499 40.8553 11.948 40.8553H49.2536C50.5503 40.8553 51.6008 39.8021 51.6008 38.5068V23.3544H9.6001Z" fill="#C5C7D2"/>
</g>
<g clip-path="url(#clip2)">
<path d="M51.1997 40.2306C49.9106 36.0831 45.8191 33.2527 40.915 33.1686V28.3205C40.915 28.0963 40.7188 27.9001 40.4946 27.9001C40.4105 27.9001 40.3264 27.9281 40.2424 27.9842L27.7717 37.0079C27.5756 37.148 27.5476 37.4002 27.6877 37.5964C27.7157 37.6244 27.7437 37.6524 27.7717 37.6805L40.2424 46.6481C40.4385 46.7882 40.6908 46.7322 40.8309 46.564C40.8869 46.48 40.915 46.3959 40.915 46.3118V41.4917C43.9415 41.4917 46.4917 42.9209 47.3885 45.0788C48.1451 46.9283 47.5286 48.918 45.7351 50.5714C45.5669 50.7396 45.5389 50.9918 45.707 51.1599C45.7911 51.244 45.9032 51.3001 46.0153 51.3001H46.3516C46.4357 51.3001 46.5197 51.272 46.5758 51.216C50.6953 48.4977 52.4608 44.2661 51.1997 40.2306Z" fill="#4368E0"/>
</g>
</g>
<defs>
<clipPath id="clip0">
<rect width="60" height="60" fill="white"/>
</clipPath>
<clipPath id="clip1">
<rect width="42" height="42" fill="white" transform="translate(9.6001 6)"/>
</clipPath>
<clipPath id="clip2">
<rect width="24" height="24" fill="white" transform="translate(27.6001 27.6)"/>
</clipPath>
</defs>
</svg>
