<svg width="45" height="48" viewBox="0 0 45 48" fill="none" xmlns="http://www.w3.org/2000/svg">
<g clip-path="url(#clip0)">
<rect width="42" height="42" transform="translate(0.600098)" fill="white"/>
<path d="M42.6001 13.1253V9.49385C42.6001 8.19853 41.5496 7.14526 40.2529 7.14526H2.94799C1.64991 7.14457 0.600098 8.19784 0.600098 9.49385V13.1253H42.6001Z" fill="#C5C7D2"/>
<path d="M0.600098 17.3542V32.5059C0.600098 33.8013 1.64991 34.8552 2.94799 34.8552H40.2536C41.5503 34.8552 42.6008 33.802 42.6008 32.5066V17.3542H0.600098Z" fill="#C5C7D2"/>
</g>
<rect x="30.6001" y="30" width="4.8" height="9.6" fill="white"/>
<path d="M44.5129 42.0281L36.0254 26.4029C35.3848 25.3245 34.2535 24.6804 32.9991 24.6804C31.7447 24.6804 30.6133 25.3245 29.9727 26.4029C29.9679 26.4111 29.9638 26.4194 29.959 26.4276L21.4998 42.0034C20.8454 43.1045 20.8331 44.4269 21.4661 45.5405C22.1005 46.6546 23.2435 47.3193 24.5254 47.3193H41.4259C42.7078 47.3193 43.8978 46.6546 44.5322 45.5405C45.1652 44.427 45.1528 43.1045 44.5129 42.0281ZM31.5914 31.8349C31.5914 31.0574 32.2217 30.4272 32.9991 30.4272C33.7766 30.4272 34.4067 31.0575 34.4067 31.8349V37.4656C34.4067 38.243 33.7765 38.8732 32.9991 38.8732C32.2217 38.8732 31.5914 38.2429 31.5914 37.4656V31.8349ZM32.9991 44.504C31.8348 44.504 30.8876 43.5568 30.8876 42.3924C30.8876 41.2281 31.8347 40.2809 32.9991 40.2809C34.1634 40.2809 35.1106 41.2281 35.1106 42.3924C35.1106 43.5567 34.1635 44.504 32.9991 44.504Z" fill="#4368E0"/>
<defs>
<clipPath id="clip0">
<rect width="42" height="42" fill="white" transform="translate(0.600098)"/>
</clipPath>
</defs>
</svg>
