<svg width="60" height="60" viewBox="0 0 60 60" fill="none" xmlns="http://www.w3.org/2000/svg">
<g clip-path="url(#clip0)">
<rect width="60" height="60" fill="white"/>
<g clip-path="url(#clip1)">
<rect width="48" height="48" transform="translate(6 6)" fill="white"/>
<path d="M13.8 22.8C16.5 16.5 22.8 12 30 12C39 12 46.2 18.6 47.7 27H53.7C52.2 15.3 42.3 6 30 6C21 6 13.2 10.8 9.3 18.3L6 15V27H18L13.8 22.8Z" fill="#C5C7D2"/>
<path d="M54 33H41.7L46.2 37.2C43.5 43.5 37.2 48 29.7 48C21 48 13.5 41.4 12 33H6C7.5 44.7 17.7 54 29.7 54C38.7 54 46.5 48.9 50.7 41.7L54 45V33Z" fill="#C5C7D2"/>
</g>
<rect width="24" height="24" transform="translate(18 18)" fill="white"/>
<path d="M30 18C23.4 18 18 23.4 18 30C18 36.6 23.4 42 30 42C36.6 42 42 36.6 42 30C42 23.4 36.6 18 30 18ZM30 28.8C32.04 28.8 33.6 30.36 33.6 32.4C33.6 33.96 32.52 35.28 31.2 35.76V37.2H28.8V35.76C27.36 35.28 26.4 33.96 26.4 32.4H28.8C28.8 33.12 29.28 33.6 30 33.6C30.72 33.6 31.2 33.12 31.2 32.4C31.2 31.68 30.72 31.2 30 31.2C27.96 31.2 26.4 29.64 26.4 27.6C26.4 26.04 27.48 24.72 28.8 24.24V22.8H31.2V24.24C32.64 24.72 33.6 26.04 33.6 27.6H31.2C31.2 26.88 30.72 26.4 30 26.4C29.28 26.4 28.8 27 28.8 27.6C28.8 28.32 29.28 28.8 30 28.8Z" fill="#4368E0"/>
</g>
<defs>
<clipPath id="clip0">
<rect width="60" height="60" fill="white"/>
</clipPath>
<clipPath id="clip1">
<rect width="48" height="48" fill="white" transform="translate(6 6)"/>
</clipPath>
</defs>
</svg>
