<svg width="48" height="46" viewBox="0 0 48 46" fill="none" xmlns="http://www.w3.org/2000/svg">
<path d="M28.8103 13.645C31.4759 13.645 33.6369 11.484 33.6369 8.81834C33.6369 6.15266 31.4759 3.9917 28.8103 3.9917C26.1446 3.9917 23.9836 6.15266 23.9836 8.81834C23.9836 11.484 26.1446 13.645 28.8103 13.645Z" fill="#C5C7D2"/>
<path d="M11.8922 17.3616C5.3243 17.3616 0 22.6859 0 29.2537H23.7844C23.7844 22.6859 18.46 17.3616 11.8922 17.3616Z" fill="#C5C7D2"/>
<path d="M35.5558 20.1029C33.9512 18.1622 31.5254 16.9255 28.8106 16.9255C26.633 16.9255 24.643 17.7229 23.1118 19.0392C24.6659 20.7425 25.7919 22.7419 26.4356 24.9059C28.7092 22.2852 31.9276 20.5055 35.5558 20.1029Z" fill="#C5C7D2"/>
<path d="M11.892 14.0809C15.5157 14.0809 18.4532 11.1433 18.4532 7.5197C18.4532 3.89605 15.5157 0.958496 11.892 0.958496C8.26836 0.958496 5.33081 3.89605 5.33081 7.5197C5.33081 11.1433 8.26836 14.0809 11.892 14.0809Z" fill="#C5C7D2"/>
<path d="M37.1273 23.2957C31.1319 23.2957 26.2544 28.1733 26.2544 34.1686C26.2544 40.164 31.132 45.0416 37.1273 45.0416C43.1226 45.0416 48.0003 40.164 48.0003 34.1686C48.0002 28.1733 43.1226 23.2957 37.1273 23.2957ZM43.8525 35.809H38.7676V40.8939H35.487V35.809H30.4021V32.5284H35.487V27.4434H38.7676V32.5284H43.8525V35.809Z" fill="#4368E0"/>
</svg>
