<svg width="40" height="40" viewBox="0 0 40 40" fill="none" xmlns="http://www.w3.org/2000/svg">
<g>
<path fill-rule="evenodd" clip-rule="evenodd" d="M20 38.3333C9.8748 38.3333 1.66669 30.1252 1.66669 20C1.66669 9.87474 9.8748 1.66663 20 1.66663C30.1252 1.66663 38.3334 9.87474 38.3334 20C38.3334 30.1252 30.1252 38.3333 20 38.3333ZM20 35C28.2843 35 35 28.2842 35 20C35 11.7157 28.2843 4.99996 20 4.99996C11.7157 4.99996 5.00002 11.7157 5.00002 20C5.00002 28.2842 11.7157 35 20 35ZM16.6667 22.6429L25.4882 13.8214L27.8452 16.1785L16.6667 27.357L10.4882 21.1785L12.8452 18.8214L16.6667 22.6429Z" fill="#4368E0"/>
</g>
<defs>
<clipPath id="clip0">
<rect width="40" height="40" fill="white"/>
</clipPath>
</defs>
</svg>
