<svg width="20" height="19" viewBox="0 0 20 19" fill="none" xmlns="http://www.w3.org/2000/svg">
<path fill-rule="evenodd" clip-rule="evenodd" d="M4.26172 4.50004H6.66665V6.16671H1.66665V1.15938H3.33331V3.04708C5.19754 1.09217 7.32217 0.333374 9.99998 0.333374C15.0626 0.333374 19.1666 4.43743 19.1666 9.50004C19.1666 14.5626 15.0626 18.6667 9.99998 18.6667C4.93737 18.6667 0.833313 14.5626 0.833313 9.50004H2.49998C2.49998 13.6422 5.85784 17 9.99998 17C14.1421 17 17.5 13.6422 17.5 9.50004C17.5 5.3579 14.1421 2.00004 9.99998 2.00004C7.63266 2.00004 5.87053 2.65952 4.26172 4.50004ZM10.8333 8.66671H14.1666V10.3334H9.16665V4.50004H10.8333V8.66671Z" fill="#C5C7D2"/>
</svg>
