<svg width="20" height="20" viewBox="0 0 20 20" fill="none" xmlns="http://www.w3.org/2000/svg">
<path fill-rule="evenodd" clip-rule="evenodd" d="M5.83335 3.33331V2.49998C5.83335 1.5795 6.57955 0.833313 7.50002 0.833313H12.5C13.4205 0.833313 14.1667 1.5795 14.1667 2.49998V3.33331H16.6667C17.5872 3.33331 18.3334 4.0795 18.3334 4.99998V6.66665C18.3334 7.58712 17.5872 8.33331 16.6667 8.33331H16.5999L15.8334 17.5C15.8334 18.4205 15.0872 19.1666 14.1667 19.1666H5.83335C4.91288 19.1666 4.16669 18.4205 4.16957 17.5692L3.39991 8.33331H3.33335C2.41288 8.33331 1.66669 7.58712 1.66669 6.66665V4.99998C1.66669 4.0795 2.41288 3.33331 3.33335 3.33331H5.83335ZM5.83335 4.99998H3.33335V6.66665H16.6667V4.99998H14.1667H5.83335ZM5.07209 8.33331L5.83335 17.5H14.1667L14.1696 17.4308L14.9277 8.33331H5.07209ZM12.5 3.33331V2.49998H7.50002V3.33331H12.5Z" fill="currentColor"/>
</svg>
