<svg width="15" height="14" viewBox="0 0 15 14" fill="none" xmlns="http://www.w3.org/2000/svg">
<path fill-rule="evenodd" clip-rule="evenodd" d="M3.5009 3.88483L0.808058 1.19199L1.69194 0.308105L14.1919 12.8081L13.3081 13.692L7.24112 7.62505H4.375V6.37505H5.99112L4.74112 5.12505H3.75C2.71447 5.12505 1.875 5.96451 1.875 7.00005C1.875 8.03558 2.71447 8.87505 3.75 8.87505H6.25V10.125H3.75C2.02411 10.125 0.625 8.72594 0.625 7.00005C0.625 5.358 1.89147 4.01176 3.5009 3.88483ZM12.8304 9.69655L11.895 8.76116C12.6128 8.4982 13.125 7.80894 13.125 7.00005C13.125 5.96451 12.2855 5.12505 11.25 5.12505H8.75V3.87505H11.25C12.9759 3.87505 14.375 5.27416 14.375 7.00005C14.375 8.14934 13.7546 9.15372 12.8304 9.69655Z" fill="#97AACD"/>
</svg>
