<svg width="40" height="40" viewBox="0 0 40 40" fill="none" xmlns="http://www.w3.org/2000/svg">
<g>
<path fill-rule="evenodd" clip-rule="evenodd" d="M9.26624 6.7675C9.53739 6.70381 9.82272 6.6703 10.1187 6.67094L33.4012 8.33397C35.4873 8.37081 37.5284 10.1008 36.5208 12.3485C36.3246 12.7861 35.4387 14.5685 34.0299 17.373C33.4548 18.518 32.8646 19.6899 32.2744 20.8598C31.94 21.5226 31.94 21.5226 31.7039 21.9901C31.5959 22.204 31.5537 22.2874 31.5284 22.3376C31.0494 23.5694 30.0378 24.521 28.7741 24.922L28.5281 25H11.73L11.7061 24.9988L8.4159 24.998C7.46883 25.045 6.71159 25.8022 6.66665 26.6667L6.66366 28.2336C6.72087 29.1874 7.48333 29.949 8.33331 30H8.61782C9.30422 28.0581 11.1563 26.6667 13.3333 26.6667C15.5103 26.6667 17.3624 28.0581 18.0488 30H21.9512C22.6376 28.0581 24.4896 26.6667 26.6666 26.6667C29.4281 26.6667 31.6666 28.9053 31.6666 31.6667C31.6666 34.4281 29.4281 36.6667 26.6666 36.6667C24.4896 36.6667 22.6376 35.2754 21.9512 33.3334H18.0488C17.3624 35.2754 15.5103 36.6667 13.3333 36.6667C11.1555 36.6667 9.30288 35.2744 8.61708 33.3313L8.23871 33.3307C5.60457 33.1809 3.49468 31.0733 3.33331 28.3334L3.33536 26.5841C3.46698 23.9314 5.58391 21.8093 8.31651 21.6676L6.6834 10.2357L6.66665 10C6.66665 8.92181 6.11809 7.64184 5.48813 7.01189C5.32481 6.84856 4.59739 6.66671 3.33331 6.66671V3.33337C5.40257 3.33337 6.89737 3.70707 7.84516 4.65486C8.40357 5.21328 8.89455 5.94826 9.26624 6.7675ZM11.8548 21.6667H27.949C28.1714 21.5456 28.3442 21.3463 28.4313 21.1037L28.5126 20.9148C28.5518 20.8372 28.5518 20.8372 28.7286 20.4873C28.9643 20.0205 28.9643 20.0205 29.2983 19.3585C29.8877 18.1901 30.4771 17.0198 31.0271 15.9249L31.0513 15.8769C32.0148 13.9586 32.7507 12.4839 33.1556 11.6582L10.0171 10.0013L11.6502 21.4334C11.6662 21.5463 11.7477 21.637 11.8548 21.6667ZM26.6666 33.3334C27.5871 33.3334 28.3333 32.5872 28.3333 31.6667C28.3333 30.7462 27.5871 30 26.6666 30C25.7462 30 25 30.7462 25 31.6667C25 32.5872 25.7462 33.3334 26.6666 33.3334ZM13.3333 33.3334C14.2538 33.3334 15 32.5872 15 31.6667C15 30.7462 14.2538 30 13.3333 30C12.4128 30 11.6666 30.7462 11.6666 31.6667C11.6666 32.5872 12.4128 33.3334 13.3333 33.3334Z" fill="#4368E0"/>
<rect width="20" height="20" rx="10" transform="matrix(1 0 0 -1 20 20)" fill="white"/>
<path fill-rule="evenodd" clip-rule="evenodd" d="M30 0.833414C24.9374 0.833414 20.8333 4.93747 20.8333 10.0001C20.8333 15.0627 24.9374 19.1667 30 19.1667C35.0626 19.1667 39.1666 15.0627 39.1666 10.0001C39.1666 4.93747 35.0626 0.833414 30 0.833414ZM30 2.50008C34.1421 2.50008 37.5 5.85795 37.5 10.0001C37.5 14.1422 34.1421 17.5001 30 17.5001C25.8578 17.5001 22.5 14.1422 22.5 10.0001C22.5 5.85795 25.8578 2.50008 30 2.50008ZM29.1666 8.67859V14.1667H30.8333V8.67859L32.7441 10.5893L33.9226 9.41083L30 5.48824L26.0774 9.41083L27.2559 10.5893L29.1666 8.67859Z" fill="#4368E0"/>
</g>
<defs>
<clipPath id="clip0">
<rect width="40" height="40" fill="white"/>
</clipPath>
</defs>
</svg>
