<svg width="20" height="20" viewBox="0 0 20 20" fill="none" xmlns="http://www.w3.org/2000/svg">
<g>
<path fill-rule="evenodd" clip-rule="evenodd" d="M4.63312 3.38375C4.76869 3.3519 4.91136 3.33515 5.05936 3.33547L16.7006 4.16699C17.7437 4.18541 18.7642 5.0504 18.2604 6.17423C18.1623 6.39307 17.7193 7.28425 17.015 8.68652C16.7274 9.25898 16.4323 9.84495 16.1372 10.4299C15.97 10.7613 15.97 10.7613 15.852 10.995C15.7979 11.102 15.7769 11.1437 15.7642 11.1688C15.5247 11.7847 15.0189 12.2605 14.387 12.461L14.264 12.5H5.86499L5.85307 12.4994L4.20795 12.499C3.73442 12.5225 3.35579 12.9011 3.33332 13.3334L3.33183 14.1168C3.36044 14.5937 3.74166 14.9745 4.16666 15H4.30891C4.65211 14.029 5.57814 13.3334 6.66666 13.3334C7.75517 13.3334 8.6812 14.029 9.0244 15H10.9756C11.3188 14.029 12.2448 13.3334 13.3333 13.3334C14.714 13.3334 15.8333 14.4526 15.8333 15.8334C15.8333 17.2141 14.714 18.3334 13.3333 18.3334C12.2448 18.3334 11.3188 17.6377 10.9756 16.6667H9.0244C8.6812 17.6377 7.75517 18.3334 6.66666 18.3334C5.57775 18.3334 4.65144 17.6372 4.30854 16.6656L4.11936 16.6653C2.80228 16.5905 1.74734 15.5366 1.66666 14.1667L1.66768 13.2921C1.73349 11.9657 2.79195 10.9047 4.15826 10.8338L3.3417 5.11787L3.33332 5.00002C3.33332 4.46091 3.05904 3.82092 2.74407 3.50594C2.66241 3.42428 2.2987 3.33335 1.66666 3.33335V1.66669C2.70128 1.66669 3.44868 1.85354 3.92258 2.32743C4.20179 2.60664 4.44727 2.97413 4.63312 3.38375ZM5.92738 10.8334H13.9745C14.0857 10.7728 14.1721 10.6732 14.2156 10.5519L14.2563 10.4574C14.2759 10.4186 14.2759 10.4186 14.3643 10.2436C14.4822 10.0102 14.4822 10.0102 14.6492 9.67925C14.9439 9.09506 15.2386 8.5099 15.5136 7.96246L15.5256 7.93843C16.0074 6.97932 16.3754 6.24196 16.5778 5.82912L5.00854 5.00063L5.82512 10.7167C5.8331 10.7732 5.87387 10.8185 5.92738 10.8334ZM13.3333 16.6667C13.7936 16.6667 14.1667 16.2936 14.1667 15.8334C14.1667 15.3731 13.7936 15 13.3333 15C12.8731 15 12.5 15.3731 12.5 15.8334C12.5 16.2936 12.8731 16.6667 13.3333 16.6667ZM6.66666 16.6667C7.12689 16.6667 7.49999 16.2936 7.49999 15.8334C7.49999 15.3731 7.12689 15 6.66666 15C6.20642 15 5.83332 15.3731 5.83332 15.8334C5.83332 16.2936 6.20642 16.6667 6.66666 16.6667Z" fill="#C5C7D2"/>
<rect width="10" height="10" rx="5" transform="matrix(1 0 0 -1 10 10)" fill="white"/>
<path fill-rule="evenodd" clip-rule="evenodd" d="M15 0.416707C12.4687 0.416707 10.4167 2.46874 10.4167 5.00004C10.4167 7.53135 12.4687 9.58337 15 9.58337C17.5313 9.58337 19.5833 7.53135 19.5833 5.00004C19.5833 2.46874 17.5313 0.416707 15 0.416707ZM15 1.25004C17.0711 1.25004 18.75 2.92897 18.75 5.00004C18.75 7.07111 17.0711 8.75004 15 8.75004C12.9289 8.75004 11.25 7.07111 11.25 5.00004C11.25 2.92897 12.9289 1.25004 15 1.25004ZM14.5833 4.3393V7.08337H15.4167V4.3393L16.372 5.29467L16.9613 4.70541L15 2.74412L13.0387 4.70541L13.628 5.29467L14.5833 4.3393Z" fill="#C5C7D2"/>
</g>
<defs>
<clipPath id="clip0">
<rect width="20" height="20" fill="white"/>
</clipPath>
</defs>
</svg>
