<svg width="36" height="35" viewBox="0 0 36 35" fill="none" xmlns="http://www.w3.org/2000/svg">
<g clip-path="url(#clip0)">
<path d="M6.80663 8.12607C4.81293 8.12607 3.1909 9.7481 3.1909 11.7418C3.1909 13.7355 4.81286 15.3575 6.80663 15.3575C8.8004 15.3575 10.4225 13.7355 10.4225 11.7418C10.4224 9.74817 8.8004 8.12607 6.80663 8.12607ZM6.80663 12.9732C6.12761 12.9732 5.57534 12.4207 5.57534 11.7418C5.57534 11.0629 6.12768 10.5105 6.80663 10.5105C7.48557 10.5105 8.03805 11.0629 8.03805 11.7418C8.03799 12.4207 7.48557 12.9732 6.80663 12.9732Z" fill="#6689FC"/>
<path d="M29.1934 8.12607C27.1997 8.12607 25.5777 9.7481 25.5777 11.7418C25.5777 13.7355 27.1997 15.3575 29.1934 15.3575C31.1872 15.3575 32.8093 13.7355 32.8093 11.7418C32.8092 9.74817 31.1872 8.12607 29.1934 8.12607ZM29.1934 12.9732C28.5145 12.9732 27.9621 12.4207 27.9621 11.7418C27.9621 11.0629 28.5146 10.5105 29.1934 10.5105C29.8724 10.5105 30.4249 11.0629 30.4249 11.7418C30.4248 12.4207 29.8724 12.9732 29.1934 12.9732Z" fill="#6689FC"/>
<path d="M34.3938 17.3916C33.5656 16.4616 32.3762 15.9283 31.1309 15.9283H27.2559C26.6842 15.9283 26.1249 16.042 25.6063 16.2535C25.5149 16.1335 25.4204 16.0155 25.3194 15.9021C24.1951 14.6396 22.5807 13.9156 20.8901 13.9156H15.1099C13.4193 13.9156 11.8049 14.6396 10.6805 15.9021C10.5795 16.0156 10.485 16.1336 10.3936 16.2535C9.87506 16.042 9.31568 15.9283 8.74392 15.9283H4.86911C3.62381 15.9283 2.43449 16.4617 1.60632 17.3917C0.778005 18.3216 0.385486 19.5645 0.529109 20.8015L1.39632 28.2676C1.46611 28.8688 1.97532 29.3223 2.58057 29.3223H10.2396L10.512 31.6679C10.5818 32.2691 11.091 32.7226 11.6963 32.7226H24.3038C24.909 32.7226 25.4182 32.2692 25.488 31.6679L25.7605 29.3223H33.4195C34.0247 29.3223 34.5339 28.8689 34.6037 28.2676L35.4709 20.8015C35.6146 19.5645 35.222 18.3216 34.3938 17.3916ZM3.64226 26.9378L2.89762 20.5264C2.83138 19.9562 3.00515 19.4061 3.38694 18.9774C3.76866 18.5488 4.29509 18.3127 4.86911 18.3127H8.74406C8.95673 18.3127 9.16283 18.3453 9.35758 18.4079C9.18573 19.0946 9.13501 19.8133 9.2184 20.5309L9.96256 26.9378H3.64226ZM24.4132 20.2559L23.2421 30.3382H12.758L11.5869 20.2559C11.4703 19.2516 11.7891 18.2428 12.4614 17.4879C13.1337 16.7329 14.0991 16.2999 15.11 16.2999H20.8902C21.9011 16.2999 22.8665 16.7329 23.5389 17.4879C24.2111 18.2428 24.5297 19.2516 24.4132 20.2559ZM33.1023 20.5264L32.3576 26.9378H26.0374L26.7816 20.5309C26.865 19.8133 26.8144 19.0946 26.6425 18.4079C26.8371 18.3453 27.0432 18.3127 27.2559 18.3127H31.1309C31.705 18.3127 32.2314 18.5488 32.6131 18.9774C32.9948 19.4061 33.1686 19.9562 33.1023 20.5264Z" fill="#6689FC"/>
<path d="M18 2.27748C15.3492 2.27748 13.1926 4.43401 13.1926 7.08485C13.1926 9.73563 15.3492 11.8922 18 11.8922C20.6508 11.8922 22.8073 9.73563 22.8073 7.08485C22.8074 4.43408 20.6508 2.27748 18 2.27748ZM18 9.50765C16.664 9.50765 15.5771 8.42073 15.5771 7.08472C15.5771 5.7487 16.664 4.66179 18 4.66179C19.3361 4.66179 20.4229 5.7487 20.4229 7.08472C20.4229 8.42073 19.336 9.50765 18 9.50765Z" fill="#6689FC"/>
</g>
<defs>
<clipPath id="clip0">
<rect width="35" height="35" fill="white" transform="translate(0.5)"/>
</clipPath>
</defs>
</svg>
