<?xml version="1.0"?>
<svg xmlns="http://www.w3.org/2000/svg" id="Capa_1" enable-background="new 0 0 512 512" height="512px" viewBox="0 0 512 512" width="512px"><g><path d="m411.37 96.949v-7.032h27.892v-89.917h-366.524v89.917h27.892v7.032c0 65.677 39.028 124.779 99.429 150.571l19.859 8.48-19.859 8.48c-60.401 25.792-99.429 84.894-99.429 150.571v7.032h-27.892v89.917h366.524v-89.917h-27.892v-7.032c0-65.677-39.028-124.779-99.429-150.571l-19.859-8.48 19.859-8.48c60.401-25.792 99.429-84.894 99.429-150.571zm-308.661-66.978h306.582v29.975h-306.582zm27.892 59.946h250.798v7.032c0 25.208-7.041 49.23-19.621 69.802h-211.556c-12.58-20.572-19.621-44.594-19.621-69.802zm278.69 392.112h-306.582v-29.975h306.582zm-263.462-59.946c15.602-17.265 34.743-30.978 56.479-40.26l53.692-22.926 53.692 22.927c21.736 9.282 40.878 22.995 56.479 40.26h-220.342zm233.688-29.332c-16.704-16.162-36.288-29.195-58.056-38.49l-65.461-27.953-65.461 27.953c-21.768 9.295-41.352 22.329-58.056 38.491 7.475-44.418 36.957-82.607 79.346-100.708l29.186-12.463v24.747h29.971v-24.747l29.186 12.463c42.389 18.1 71.87 56.289 79.345 100.707zm-123.517-153.933-44.171-18.862c-13.629-5.82-25.917-13.724-36.578-23.235h161.5c-10.661 9.511-22.949 17.416-36.578 23.235z" fill="#4368E0"/></g></svg>
