<svg width="21" height="20" viewBox="0 0 21 20" fill="none" xmlns="http://www.w3.org/2000/svg">
<g clip-path="url(#clip0)">
<path d="M8.99094 3.85083C5.60113 3.85083 2.84332 6.60935 2.84332 10C2.84332 13.3908 5.60113 16.1493 8.99094 16.1493C12.3808 16.1493 15.1386 13.3908 15.1386 10C15.1386 6.60935 12.3807 3.85083 8.99094 3.85083ZM8.99094 14.9774C6.24731 14.9774 4.0152 12.7446 4.0152 10C4.0152 7.25552 6.24731 5.02271 8.99094 5.02271C11.7346 5.02271 13.9667 7.25552 13.9667 10C13.9667 12.7446 11.7346 14.9774 8.99094 14.9774Z" fill="#15D7AE"/>
<path d="M8.29327 8.88364H10.5398C10.8634 8.88364 11.1258 8.6213 11.1258 8.29771C11.1258 7.97411 10.8634 7.71177 10.5398 7.71177H9.62487V7.20001C9.62487 6.87642 9.36253 6.61407 9.03893 6.61407C8.71534 6.61407 8.45299 6.87642 8.45299 7.20001V7.71177H8.29327C7.50334 7.71177 6.86022 8.35236 6.85612 9.1413C6.85608 9.1438 6.85608 9.14634 6.85608 9.14888C6.85608 9.15142 6.85608 9.15392 6.85612 9.15646C6.86022 9.9454 7.50331 10.586 8.29327 10.586H9.68858C9.83487 10.586 9.95389 10.705 9.95389 10.8512C9.95389 10.9975 9.83487 11.1165 9.68858 11.1165H7.44202C7.11842 11.1165 6.85608 11.3788 6.85608 11.7024C6.85608 12.026 7.11842 12.2883 7.44202 12.2883H8.45299V12.8033C8.45299 13.1269 8.71534 13.3892 9.03893 13.3892C9.36253 13.3892 9.62487 13.1269 9.62487 12.8033V12.2883H9.68858C10.4785 12.2883 11.1216 11.6477 11.1257 10.8588C11.1258 10.8563 11.1258 10.8538 11.1258 10.8512C11.1258 10.8487 11.1258 10.8462 11.1257 10.8436C11.1216 10.0547 10.4785 9.41411 9.68858 9.41411H8.29327C8.14698 9.41411 8.02795 9.29513 8.02795 9.14888C8.02795 9.00263 8.14698 8.88364 8.29327 8.88364Z" fill="#15D7AE"/>
<path d="M19.128 6.93053H17.4818V3.85178C17.4818 2.55877 16.4299 1.5069 15.137 1.5069H2.84488C1.55191 1.5069 0.5 2.55881 0.5 3.85178V16.1483C0.5 17.4413 1.55191 18.4932 2.84488 18.4932H15.137C16.4299 18.4932 17.4818 17.4413 17.4818 16.1483V13.0696H19.128C19.8845 13.0696 20.5 12.4541 20.5 11.6976V8.30248C20.5 7.546 19.8845 6.93053 19.128 6.93053ZM16.31 16.1483C16.31 16.7952 15.7837 17.3214 15.137 17.3214H2.84488C2.19809 17.3214 1.67188 16.7951 1.67188 16.1483V3.85178C1.67188 3.20494 2.19809 2.67877 2.84488 2.67877H15.137C15.7837 2.67877 16.31 3.20498 16.31 3.85178V16.1483ZM19.3281 11.6976C19.3281 11.808 19.2384 11.8977 19.128 11.8977H17.4818V8.10241H19.128C19.2384 8.10241 19.3281 8.19217 19.3281 8.30248V11.6976Z" fill="#15D7AE"/>
</g>
<defs>
<clipPath id="clip0">
<rect width="20" height="20" fill="white" transform="translate(0.5)"/>
</clipPath>
</defs>
</svg>
