<svg width="38" height="34" viewBox="0 0 38 34" fill="none" xmlns="http://www.w3.org/2000/svg">
<path fill-rule="evenodd" clip-rule="evenodd" d="M24.7271 3.62953L36.4026 23.5888C37.6177 25.6428 37.6439 28.1889 36.4713 30.2674C35.2974 32.3484 33.1032 33.6406 30.6872 33.6641L7.2907 33.664C4.89947 33.6445 2.70108 32.3483 1.527 30.2655C0.353893 28.1844 0.381293 25.6326 1.59242 23.5962L13.2723 3.62961C14.459 1.58676 16.6445 0.330735 19.0075 0.333501C21.3702 0.336266 23.5549 1.59749 24.7271 3.62953ZM16.1521 5.30834L4.46351 25.2896C3.85715 26.3092 3.84343 27.5867 4.43077 28.6287C5.01875 29.6717 6.11992 30.321 7.30426 30.3307L30.6709 30.3308C31.8812 30.319 32.9802 29.6718 33.5681 28.6296C34.1551 27.589 34.142 26.3143 33.5295 25.2789L21.8448 5.30387C21.2626 4.29472 20.1774 3.66821 19.0036 3.66683C17.8296 3.66546 16.744 4.28939 16.1521 5.30834ZM19.0006 26.9974C18.0798 26.9974 17.3334 26.2512 17.3334 25.3307C17.3334 24.4103 18.0798 23.6641 19.0006 23.6641C19.9214 23.6641 20.6678 24.4103 20.6678 25.3307C20.6678 26.2512 19.9214 26.9974 19.0006 26.9974ZM17.3383 10.3307H20.6727V21.9974H17.3383V10.3307Z" fill="#FDCC5E"/>
</svg>
