<?xml version="1.0" encoding="iso-8859-1"?>
<!-- Generator: Adobe Illustrator 19.0.0, SVG Export Plug-In . SVG Version: 6.00 Build 0)  -->
<svg xmlns="http://www.w3.org/2000/svg" xmlns:xlink="http://www.w3.org/1999/xlink" version="1.1" id="Capa_1" x="0px" y="0px" viewBox="0 0 490.667 490.667" style="enable-background:new 0 0 490.667 490.667;" xml:space="preserve" width="512px" height="512px">
<g>
	<g>
		<path d="M394.667,42.667h-32v-32C362.667,4.779,357.888,0,352,0c-5.888,0-10.667,4.779-10.667,10.667v32V96    c0,5.888-4.779,10.667-10.667,10.667S320,101.888,320,96V42.667H149.333v-32C149.333,4.779,144.555,0,138.667,0    S128,4.779,128,10.667v32V96c0,5.888-4.779,10.667-10.667,10.667S106.667,101.888,106.667,96V42.667H96c-52.928,0-96,43.072-96,96    V160v234.667c0,52.928,43.072,96,96,96h298.667c52.928,0,96-43.072,96-96V160v-21.333    C490.667,85.739,447.595,42.667,394.667,42.667z M469.333,394.667c0,41.173-33.493,74.667-74.667,74.667H96    c-41.173,0-74.667-33.493-74.667-74.667V149.333h448V394.667z" fill="#4368E0"/>
	</g>
</g>
<g>
	<g>
		<path d="M277.845,202.197C271.808,195.712,263.275,192,254.421,192h-18.176c-8.853,0-17.387,3.712-23.424,10.197    c-6.037,6.485-9.131,15.253-8.491,24.085l7.531,105.28c1.237,17.429,15.915,31.104,33.387,31.104h0.171    c17.472,0,32.149-13.675,33.387-31.104l7.531-105.28C286.976,217.451,283.883,208.683,277.845,202.197z" fill="#4368E0"/>
	</g>
</g>
<g>
	<g>
		<circle cx="245.333" cy="416" r="32" fill="#4368E0"/>
	</g>
</g>
<g>
</g>
<g>
</g>
<g>
</g>
<g>
</g>
<g>
</g>
<g>
</g>
<g>
</g>
<g>
</g>
<g>
</g>
<g>
</g>
<g>
</g>
<g>
</g>
<g>
</g>
<g>
</g>
<g>
</g>
</svg>
