<svg width="60" height="60" viewBox="0 0 60 60" fill="none" xmlns="http://www.w3.org/2000/svg">
<rect width="60" height="60" fill="white"/>
<path d="M34.6875 38.0625C35.4641 38.0625 36.0938 37.4329 36.0938 36.6563V35.7188H47.9062C48.6829 35.7188 49.3125 35.0891 49.3125 34.3125V30.0938H52.5938C53.3704 30.0938 54 29.4641 54 28.6875V24C54 23.2234 53.3704 22.5938 52.5938 22.5938H49.3125V18.375C49.3125 17.5984 48.6829 16.9688 47.9062 16.9688H31.4063V14.1562H34.8281C37.0768 14.1562 38.9062 12.3268 38.9062 10.0781C38.9062 7.82944 37.0768 6 34.8281 6H25.1719C22.9232 6 21.0938 7.82944 21.0938 10.0781C21.0938 12.3268 22.9232 14.1562 25.1719 14.1562H28.5938V16.9688H12.0938C11.3171 16.9688 10.6875 17.5984 10.6875 18.375V22.5938H7.40625C6.62962 22.5938 6 23.2234 6 24V28.6875C6 29.4641 6.62962 30.0938 7.40625 30.0938H10.6875V34.3125C10.6875 35.0891 11.3171 35.7188 12.0938 35.7188H23.9062V36.6563C23.9062 37.4329 24.5359 38.0625 25.3125 38.0625H28.5938V40.875H12.0938C11.3171 40.875 10.6875 41.5046 10.6875 42.2812V46.5H7.40625C6.62962 46.5 6 47.1296 6 47.9062V52.5938C6 53.3704 6.62962 54 7.40625 54H16.7812C17.5579 54 18.1875 53.3704 18.1875 52.5938V47.9062C18.1875 47.1296 17.5579 46.5 16.7812 46.5H13.5V43.6875H28.5938V46.5H25.3125C24.5359 46.5 23.9062 47.1296 23.9062 47.9062V52.5938C23.9062 53.3704 24.5359 54 25.3125 54H34.6875C35.4641 54 36.0938 53.3704 36.0938 52.5938V47.9062C36.0938 47.1296 35.4641 46.5 34.6875 46.5H31.4063V43.6875H46.5V46.5H43.2188C42.4421 46.5 41.8125 47.1296 41.8125 47.9062V52.5938C41.8125 53.3704 42.4421 54 43.2188 54H52.5938C53.3704 54 54 53.3704 54 52.5938V47.9062C54 47.1296 53.3704 46.5 52.5938 46.5H49.3125V42.2812C49.3125 41.5046 48.6829 40.875 47.9062 40.875H31.4063V38.0625H34.6875ZM25.3125 30.5625C24.5359 30.5625 23.9062 31.1921 23.9062 31.9688V32.9063H13.5V30.0938H16.7812C17.5579 30.0938 18.1875 29.4641 18.1875 28.6875V24C18.1875 23.2234 17.5579 22.5938 16.7812 22.5938H13.5V19.7813H46.5V22.5938H43.2188C42.4421 22.5938 41.8125 23.2234 41.8125 24V28.6875C41.8125 29.4641 42.4421 30.0938 43.2188 30.0938H46.5V32.9063H36.0938V31.9688C36.0938 31.1921 35.4641 30.5625 34.6875 30.5625H25.3125Z" fill="#C5C7D2"/>
<rect x="6" y="22.608" width="12.18" height="7.5" rx="1" fill="#4368E0"/>
<rect x="41.8199" y="22.608" width="12.18" height="7.5" rx="1" fill="#4368E0"/>
<rect x="23.88" y="30.6" width="12.18" height="7.5" rx="1" fill="#4368E0"/>
<rect x="23.88" y="46.5" width="12.18" height="7.5" rx="1" fill="#4368E0"/>
<rect x="6" y="46.5" width="12.18" height="7.5" rx="1" fill="#4368E0"/>
<rect x="41.8199" y="46.5" width="12.18" height="7.5" rx="1" fill="#4368E0"/>
</svg>
