<svg width="13" height="15" viewBox="0 0 13 15" fill="none" xmlns="http://www.w3.org/2000/svg">
    <path d="M11.6562 1.87501H8.84375V0.937503C8.84375 0.419533 8.4242 0 7.90623 0H5.09374C4.57577 0 4.15624 0.419533 4.15624 0.937503V1.87501H1.34375C0.825783 1.87501 0.40625 2.29454 0.40625 2.81251V3.75001C0.40625 4.2675 0.825783 4.68703 1.34282 4.68751H11.6567C12.1742 4.68703 12.5938 4.2675 12.5938 3.75001V2.81249C12.5937 2.29454 12.1742 1.87501 11.6562 1.87501ZM7.90623 1.87501H5.09374V1.40624C5.09374 1.1475 5.30374 0.937483 5.56248 0.937483H7.43749C7.69623 0.937483 7.90623 1.14748 7.90623 1.40624V1.87501ZM1.34373 13.125C1.34373 14.1605 2.18326 15 3.21874 15H9.78126C10.8167 15 11.6562 14.1605 11.6562 13.125V5.62499H1.34373V13.125ZM8.37501 7.03126C8.37501 6.77251 8.58501 6.5625 8.84375 6.5625C9.1025 6.5625 9.3125 6.77249 9.3125 7.03126V12.6563C9.3125 12.915 9.1025 13.125 8.84375 13.125C8.58501 13.125 8.37501 12.915 8.37501 12.6563V7.03126ZM6.03125 7.03126C6.03125 6.77251 6.24124 6.5625 6.50001 6.5625C6.75877 6.5625 6.96875 6.77249 6.96875 7.03126V12.6563C6.96875 12.915 6.75875 13.125 6.50001 13.125C6.24126 13.125 6.03125 12.915 6.03125 12.6563V7.03126ZM3.68748 7.03126C3.68748 6.77251 3.89748 6.5625 4.15624 6.5625C4.41501 6.5625 4.625 6.77249 4.625 7.03126V12.6563C4.625 12.915 4.41501 13.125 4.15624 13.125C3.89748 13.125 3.68748 12.915 3.68748 12.6563V7.03126Z" fill="white"/>
</svg>