<svg width="11" height="15" viewBox="0 0 11 15" fill="none" xmlns="http://www.w3.org/2000/svg">
    <path fill-rule="evenodd" clip-rule="evenodd" d="M6.75 1.875V3.75H5.5V1.875H4.25V4.375H3V1.875H1.75V5.625H9.25V1.875H6.75ZM0.5 5.625V0.625H10.5V5.625L10.5 6.25001C10.5 7.1875 10.5 7.1875 10.5 8.12141C10.5055 9.0728 9.97464 9.37395 8.4946 9.81745C7.62712 10.0774 7.375 10.2202 7.375 10.3125C7.375 10.7923 7.41893 11.1144 7.51259 11.489C7.49448 11.4166 7.60123 11.8294 7.6248 11.9394C7.66625 12.1328 7.6875 12.3089 7.6875 12.5C7.6875 13.538 6.71105 14.375 5.5 14.375C4.28895 14.375 3.3125 13.538 3.3125 12.5C3.3125 12.3089 3.33375 12.1328 3.3752 11.9394C3.39877 11.8294 3.50552 11.4166 3.48741 11.489C3.58107 11.1144 3.625 10.7923 3.625 10.3125C3.625 10.2196 3.37357 10.0771 2.50791 9.81739C1.02982 9.37396 0.5 9.07373 0.5 8.125V5.625ZM1.75 6.875V8.125C1.75 8.21793 2.00143 8.36041 2.86709 8.62011C4.34518 9.06353 4.875 9.36377 4.875 10.3125C4.875 10.9005 4.81737 11.3231 4.70009 11.7922C4.71127 11.7475 4.61457 12.1214 4.59745 12.2013C4.57337 12.3136 4.5625 12.4037 4.5625 12.5C4.5625 12.8012 4.94021 13.125 5.5 13.125C6.05979 13.125 6.4375 12.8012 6.4375 12.5C6.4375 12.4037 6.42663 12.3136 6.40255 12.2013C6.38543 12.1214 6.28873 11.7475 6.29991 11.7922C6.18263 11.3231 6.125 10.9005 6.125 10.3125C6.125 9.36419 6.65581 9.06354 8.1331 8.62086L8.13579 8.62005C9.00029 8.361 9.25053 8.21903 9.25 8.125C9.25 7.45948 9.25 7.2664 9.25 6.875H1.75Z" fill="white"/>
</svg>