<svg width="22" height="19" viewBox="0 0 22 19" fill="none" xmlns="http://www.w3.org/2000/svg">
<path fill-rule="evenodd" clip-rule="evenodd" d="M2.47728 8.45833H19.5227C20.5687 8.45833 21.4167 9.39107 21.4167 10.5417V12.625C21.4167 13.7756 20.5687 14.7083 19.5227 14.7083H2.47728C1.43129 14.7083 0.583344 13.7756 0.583344 12.625V10.5417C0.583344 9.39107 1.43129 8.45833 2.47728 8.45833ZM2.66668 10.5417V12.625H19.3333V10.5417H2.66668ZM2.47728 0.125H19.5227C20.5687 0.125 21.4167 1.05774 21.4167 2.20833V4.29167C21.4167 5.44226 20.5687 6.375 19.5227 6.375H2.47728C1.43129 6.375 0.583344 5.44226 0.583344 4.29167V2.20833C0.583344 1.05774 1.43129 0.125 2.47728 0.125ZM2.66668 2.20833V4.29167H19.3333V2.20833H2.66668ZM0.583344 16.7917H13.0833V18.875H0.583344V16.7917Z" fill="#97AACD"/>
</svg>
