<svg width="26" height="25" viewBox="0 0 26 25" fill="none" xmlns="http://www.w3.org/2000/svg">
<path d="M6.74177 13.7532C6.33037 13.7532 5.99889 13.4778 5.99889 13.1414C5.99889 12.8026 6.33037 12.5296 6.74177 12.5296H13.2412C13.6526 12.5296 13.9841 12.805 13.9841 13.1414C13.9841 13.4802 13.6526 13.7532 13.2412 13.7532H6.74177ZM6.92823 4.0518H19.0688C19.4121 4.0518 19.7259 4.1688 19.9508 4.35405L19.9538 4.35649C20.1817 4.54418 20.3208 4.80012 20.3208 5.08288V9.99452C20.3208 10.2773 20.1787 10.5356 19.9538 10.7209L19.9508 10.7233C19.7229 10.911 19.4121 11.0256 19.0688 11.0256H6.92823C6.58491 11.0256 6.27118 10.9086 6.04625 10.7233L6.04329 10.7209C5.81539 10.5332 5.67629 10.2773 5.67629 9.99452V5.08531C5.67629 4.80256 5.81835 4.54418 6.04329 4.35893L6.04625 4.35649C6.27118 4.1688 6.58491 4.0518 6.92823 4.0518ZM18.9978 5.14382H6.99926V9.93602H18.9948V5.14382H18.9978ZM2.30522 1H23.6948C24.0529 1 24.3785 1.12188 24.6152 1.31688L24.6182 1.31932C24.855 1.51432 25 1.78245 25 2.07739V15.925C25 16.22 24.852 16.4881 24.6152 16.6831L24.6123 16.6856C24.3755 16.8806 24.0499 17 23.6918 17H2.30522C1.95006 17 1.62153 16.8781 1.38476 16.6831L1.3818 16.6807C1.14502 16.4857 1 16.2176 1 15.9226V2.07739C1 1.78245 1.14798 1.51432 1.38476 1.31932L1.38772 1.31688C1.62153 1.11944 1.9471 1 2.30522 1ZM23.6741 2.08958H2.32297V15.908H23.677V2.08958H23.6741Z" fill="#97AACD" stroke="#97AACD" stroke-width="0.5"/>
<path d="M3 22.5V20.5H5V22.5H3Z" stroke="#97AACD" stroke-width="3"/>
<path d="M9 22.5V20.5H11V22.5H9Z" stroke="#97AACD" stroke-width="3"/>
<path d="M15 22.5V20.5H17V22.5H15Z" stroke="#97AACD" stroke-width="3"/>
<path d="M21 22.5V20.5H23V22.5H21Z" stroke="#97AACD" stroke-width="3"/>
</svg>
