<svg width="22" height="21" viewBox="0 0 22 21" fill="none" xmlns="http://www.w3.org/2000/svg">
<path fill-rule="evenodd" clip-rule="evenodd" d="M5.33366 1.83325H18.667C19.5875 1.83325 20.3337 2.57944 20.3337 3.49992V18.4999C20.3337 19.4204 19.5875 20.1666 18.667 20.1666H5.33366C4.41318 20.1666 3.66699 19.4204 3.66699 18.4999V3.49992C3.66699 2.57944 4.41318 1.83325 5.33366 1.83325ZM5.33366 3.49992V18.4999H18.667V3.49992H5.33366ZM12.0003 17.6666C11.5401 17.6666 11.167 17.2935 11.167 16.8333C11.167 16.373 11.5401 15.9999 12.0003 15.9999C12.4606 15.9999 12.8337 16.373 12.8337 16.8333C12.8337 17.2935 12.4606 17.6666 12.0003 17.6666Z" fill="currentColor"/>
</svg>
