<svg width="24" height="17" viewBox="0 0 24 17" fill="none" xmlns="http://www.w3.org/2000/svg">
<path fill-rule="evenodd" clip-rule="evenodd" d="M2.43563 0.125H21.5644C22.6104 0.125 23.4584 1.05774 23.4584 2.20833V14.7083C23.4584 15.8589 22.6104 16.7917 21.5644 16.7917H2.43563C1.38963 16.7917 0.541687 15.8589 0.541687 14.7083V2.20833C0.541687 1.05774 1.38963 0.125 2.43563 0.125ZM2.62502 2.20833V14.7083H21.375V2.20833H2.62502ZM4.70835 12.625V10.5417H6.79169V12.625H4.70835ZM7.83335 12.625V10.5417H10.9584V12.625H7.83335ZM17.2084 12.625V10.5417H19.2917V12.625H17.2084ZM14.0834 12.625V10.5417H16.1667V12.625H14.0834ZM4.70835 5.33333H7.83335V8.45833H4.70835V5.33333Z" fill="#97AACD"/>
</svg>
