<svg width="10" height="10" viewBox="0 0 10 10" fill="none" xmlns="http://www.w3.org/2000/svg">
    <path d="M8.43749 1.25H6.5625V0.625002C6.5625 0.279689 6.2828 0 5.93749 0H4.0625C3.71718 0 3.43749 0.279689 3.43749 0.625002V1.25H1.5625C1.21719 1.25 0.9375 1.52969 0.9375 1.87501V2.50001C0.9375 2.845 1.21719 3.12469 1.56188 3.12501H8.43783C8.78282 3.12469 9.06252 2.845 9.06252 2.50001V1.87499C9.0625 1.52969 8.78281 1.25 8.43749 1.25ZM5.93749 1.25H4.0625V0.937496C4.0625 0.764999 4.20249 0.624988 4.37499 0.624988H5.62499C5.79749 0.624988 5.93749 0.764985 5.93749 0.937496V1.25ZM1.56249 8.75001C1.56249 9.44032 2.12217 10 2.81249 10H7.1875C7.87781 10 8.43749 9.44032 8.43749 8.75001V3.75H1.56249V8.75001ZM6.25001 4.68751C6.25001 4.51501 6.39001 4.375 6.5625 4.375C6.735 4.375 6.875 4.515 6.875 4.68751V8.4375C6.875 8.61 6.735 8.75001 6.5625 8.75001C6.39001 8.75001 6.25001 8.61 6.25001 8.4375V4.68751ZM4.6875 4.68751C4.6875 4.51501 4.82749 4.375 5 4.375C5.17252 4.375 5.3125 4.515 5.3125 4.68751V8.4375C5.3125 8.61 5.1725 8.75001 5 8.75001C4.82751 8.75001 4.6875 8.61 4.6875 8.4375V4.68751ZM3.12499 4.68751C3.12499 4.51501 3.26498 4.375 3.43749 4.375C3.61 4.375 3.75 4.515 3.75 4.68751V8.4375C3.75 8.61 3.61 8.75001 3.43749 8.75001C3.26498 8.75001 3.12499 8.61 3.12499 8.4375V4.68751Z" fill="#FB595B"/>
    </svg>