<svg width="22" height="21" viewBox="0 0 22 21" fill="none" xmlns="http://www.w3.org/2000/svg">
<path fill-rule="evenodd" clip-rule="evenodd" d="M8.82524 9.62708C8.88525 9.90858 8.91683 10.2006 8.91683 10.5C8.91683 10.7994 8.88525 11.0914 8.82524 11.3729L14.1075 14.0141C14.8714 13.1374 15.9961 12.5833 17.2502 12.5833C19.5514 12.5833 21.4168 14.4488 21.4168 16.75C21.4168 19.0512 19.5514 20.9167 17.2502 20.9167C14.949 20.9167 13.0835 19.0512 13.0835 16.75C13.0835 16.4506 13.1151 16.1586 13.1751 15.8771L7.89281 13.2359C7.12895 14.1126 6.00426 14.6667 4.75016 14.6667C2.44898 14.6667 0.583496 12.8012 0.583496 10.5C0.583496 8.19881 2.44898 6.33333 4.75016 6.33333C6.00426 6.33333 7.12895 6.88738 7.89281 7.76406L13.1751 5.12292C13.1151 4.84142 13.0835 4.5494 13.0835 4.25C13.0835 1.94881 14.949 0.0833321 17.2502 0.0833321C19.5514 0.0833321 21.4168 1.94881 21.4168 4.25C21.4168 6.55119 19.5514 8.41667 17.2502 8.41667C15.9961 8.41667 14.8714 7.86262 14.1075 6.98594L8.82524 9.62708ZM4.75016 12.5833C5.90076 12.5833 6.8335 11.6506 6.8335 10.5C6.8335 9.34941 5.90076 8.41667 4.75016 8.41667C3.59957 8.41667 2.66683 9.34941 2.66683 10.5C2.66683 11.6506 3.59957 12.5833 4.75016 12.5833ZM17.2502 6.33333C18.4008 6.33333 19.3335 5.40059 19.3335 4.25C19.3335 3.09941 18.4008 2.16667 17.2502 2.16667C16.0996 2.16667 15.1668 3.09941 15.1668 4.25C15.1668 5.40059 16.0996 6.33333 17.2502 6.33333ZM17.2502 18.8333C18.4008 18.8333 19.3335 17.9006 19.3335 16.75C19.3335 15.5994 18.4008 14.6667 17.2502 14.6667C16.0996 14.6667 15.1668 15.5994 15.1668 16.75C15.1668 17.9006 16.0996 18.8333 17.2502 18.8333Z" fill="#97AACD"/>
</svg>