<svg fill="none" viewBox="0 0 13 14" height="14" width="13" xmlns="http://www.w3.org/2000/svg">
    <path xmlns="http://www.w3.org/2000/svg" fill-rule="evenodd" clip-rule="evenodd" d="M1.5 9.24112L4 6.74112L6.1875 8.92862L10.25 4.86612L11.5 6.11612V2H1.5V9.24112ZM1.5 11.0089V12H7.49112L4 8.50888L1.5 11.0089ZM9.25888 12H11.5V7.88388L10.25 6.63388L7.07138 9.8125L9.25888 12ZM1.5 0.75H11.5C12.1904 0.75 12.75 1.30964 12.75 2V12C12.75 12.6904 12.1904 13.25 11.5 13.25H1.5C0.809644 13.25 0.25 12.6904 0.25 12V2C0.25 1.30964 0.809644 0.75 1.5 0.75ZM5.875 2.625C6.91053 2.625 7.75 3.46447 7.75 4.5C7.75 5.53553 6.91053 6.375 5.875 6.375C4.83947 6.375 4 5.53553 4 4.5C4 3.46447 4.83947 2.625 5.875 2.625ZM5.875 3.875C5.52982 3.875 5.25 4.15482 5.25 4.5C5.25 4.84518 5.52982 5.125 5.875 5.125C6.22018 5.125 6.5 4.84518 6.5 4.5C6.5 4.15482 6.22018 3.875 5.875 3.875Z" fill="#4368E0"></path>
</svg>