<svg fill="none" viewBox="0 0 15 8" height="8" width="15" xmlns="http://www.w3.org/2000/svg">
    <path xmlns="http://www.w3.org/2000/svg" fill-rule="evenodd" clip-rule="evenodd" d="M8.75 2.125V0.875H11.25C12.9759 0.875 14.375 2.27411 14.375 4C14.375 5.72589 12.9759 7.125 11.25 7.125H8.75V5.875H11.25C12.2855 5.875 13.125 5.03553 13.125 4C13.125 2.96447 12.2855 2.125 11.25 2.125H8.75ZM6.25 5.875V7.125H3.75C2.02411 7.125 0.625 5.72589 0.625 4C0.625 2.27411 2.02411 0.875 3.75 0.875H6.25V2.125H3.75C2.71447 2.125 1.875 2.96447 1.875 4C1.875 5.03553 2.71447 5.875 3.75 5.875H6.25ZM4.375 4.625V3.375H10.625V4.625H4.375Z" fill="#4368E0"></path>
</svg>