<svg fill="none" viewBox="0 0 18 20" height="20" width="18" xmlns="http://www.w3.org/2000/svg">
    <path xmlns="http://www.w3.org/2000/svg" fill-rule="evenodd" clip-rule="evenodd" d="M2.33317 0.833344H15.6665C16.587 0.833344 17.3332 1.57954 17.3332 2.50001V17.5C17.3332 18.4205 16.587 19.1667 15.6665 19.1667H2.33317C1.4127 19.1667 0.666504 18.4205 0.666504 17.5V2.50001C0.666504 1.57954 1.4127 0.833344 2.33317 0.833344ZM2.33317 2.50001V17.5H15.6665V2.50001H2.33317ZM8.99984 16.6667C8.5396 16.6667 8.1665 16.2936 8.1665 15.8333C8.1665 15.3731 8.5396 15 8.99984 15C9.46008 15 9.83317 15.3731 9.83317 15.8333C9.83317 16.2936 9.46008 16.6667 8.99984 16.6667Z" fill="#4368E0"></path>
</svg>