<svg width="24" height="17" viewBox="0 0 24 17" fill="none" xmlns="http://www.w3.org/2000/svg">
<path fill-rule="evenodd" clip-rule="evenodd" d="M23.4582 8.49709C23.4582 11.6967 23.1541 13.6637 22.4423 14.8835C21.7236 16.1852 20.8821 16.5946 19.1647 16.7149C17.9528 16.7857 14.9109 16.8333 12.0026 16.8333C9.08777 16.8333 6.04437 16.7857 4.8213 16.7141C3.11956 16.5946 2.27798 16.1858 1.56016 14.8983C0.846498 13.6542 0.541504 11.6792 0.541504 8.50875C0.541504 5.32019 0.845029 3.35511 1.55393 2.10688C2.2812 0.802573 3.13642 0.388816 4.8238 0.290101C5.99093 0.210949 8.8713 0.166672 12.0026 0.166672C15.1272 0.166672 18.0063 0.210966 19.1647 0.289485C20.8616 0.38858 21.7166 0.801425 22.4376 2.10212C23.1569 3.35468 23.4582 5.31019 23.4582 8.49709ZM20.6283 3.13504C20.2918 2.5261 20.095 2.43069 19.0336 2.36866C17.9297 2.29388 15.0777 2.25001 12.0026 2.25001C8.92092 2.25001 6.06763 2.29387 4.95514 2.36927C3.90446 2.43076 3.70478 2.52737 3.36952 3.12857C2.88269 3.98582 2.62484 5.6552 2.62484 8.49709C2.62484 11.3407 2.88407 13.0193 3.37352 13.8727C3.70364 14.4648 3.90193 14.5611 4.95508 14.6351C6.11311 14.7028 9.12705 14.75 12.0026 14.75C14.8717 14.75 17.8841 14.7028 19.0312 14.6359C20.0975 14.5612 20.293 14.466 20.6306 13.8552C21.1167 13.0216 21.3748 11.3524 21.3748 8.50875C21.3748 5.64346 21.1181 3.98333 20.6283 3.13504ZM9.9165 5.375L15.1248 8.5L9.9165 11.625V5.375Z" fill="#97AACD"/>
</svg>