<svg width="17" height="11" viewBox="0 0 17 11" fill="none" xmlns="http://www.w3.org/2000/svg">
<g clip-path="url(#clip0)">
<rect x="-1" y="6" width="19" height="3" fill="white"/>
<g clip-path="url(#clip1)">
<path d="M231.5 -11V105C231.5 105.828 230.828 106.5 230 106.5H-226C-226.828 106.5 -227.5 105.828 -227.5 105V-11C-227.5 -11.8284 -226.828 -12.5 -226 -12.5H-3.77321C-3.15131 -12.5 -2.55171 -12.7318 -2.09154 -13.1501L1.491 -16.407C2.06313 -16.9271 2.93687 -16.9271 3.509 -16.407L7.09154 -13.1502C7.55171 -12.7318 8.15129 -12.5 8.77321 -12.5H230C230.828 -12.5 231.5 -11.8284 231.5 -11Z" stroke="#F6F9FE"/>
<path d="M237.5 8.00001V124C237.5 124.828 236.828 125.5 236 125.5H-220C-220.828 125.5 -221.5 124.828 -221.5 124V8.00001C-221.5 7.17158 -220.828 6.50001 -220 6.50001H2.22679C2.84869 6.50001 3.44829 6.26821 3.90846 5.84986L7.491 2.59302C8.06313 2.0729 8.93687 2.0729 9.509 2.59302L13.0915 5.84986C13.5517 6.26821 14.1513 6.50001 14.7732 6.50001H236C236.828 6.50001 237.5 7.17159 237.5 8.00001Z" stroke="#D5E5FF"/>
</g>
</g>
<defs>
<clipPath id="clip0">
<rect width="17" height="11" fill="white"/>
</clipPath>
<clipPath id="clip1">
<rect width="17" height="11" fill="white"/>
</clipPath>
</defs>
</svg>
