<svg width="17" height="11" viewBox="0 0 17 11" fill="none" xmlns="http://www.w3.org/2000/svg">
<rect width="17" height="11" fill="#E5E5E5"/>
<path d="M231.5 -11V105C231.5 105.828 230.828 106.5 230 106.5H-226C-226.828 106.5 -227.5 105.828 -227.5 105V-11C-227.5 -11.8284 -226.828 -12.5 -226 -12.5H-3.77321C-3.15131 -12.5 -2.55171 -12.7318 -2.09154 -13.1501L1.491 -16.407C2.06313 -16.9271 2.93687 -16.9271 3.509 -16.407L7.09154 -13.1502C7.55171 -12.7318 8.15129 -12.5 8.77321 -12.5H230C230.828 -12.5 231.5 -11.8284 231.5 -11Z" fill="white" stroke="#F6F9FE"/>
<path d="M237.5 8V124C237.5 124.828 236.828 125.5 236 125.5H-220C-220.828 125.5 -221.5 124.828 -221.5 124V8C-221.5 7.17157 -220.828 6.5 -220 6.5H2.22679C2.84869 6.5 3.44829 6.2682 3.90846 5.84985L7.491 2.59301C8.06313 2.07289 8.93687 2.07289 9.509 2.59301L13.0915 5.84985C13.5517 6.2682 14.1513 6.5 14.7732 6.5H236C236.828 6.5 237.5 7.17158 237.5 8Z" fill="white" stroke="#F6F9FE"/>
</svg>
