<svg width="18" height="17" viewBox="0 0 18 17" fill="none" xmlns="http://www.w3.org/2000/svg">
<path fill-rule="evenodd" clip-rule="evenodd" d="M15.667 5.16666V2.66666H14.0003V3.49999H12.3337V2.66666H5.66699V3.49999H4.00033V2.66666H2.33366V5.16666H15.667ZM15.667 6.83332H2.33366V15.1667H15.667V6.83332ZM14.0003 0.99999H15.667C16.5875 0.99999 17.3337 1.74618 17.3337 2.66666V15.1667C17.3337 16.0871 16.5875 16.8333 15.667 16.8333H2.33366C1.41318 16.8333 0.666992 16.0871 0.666992 15.1667V2.66666C0.666992 1.74618 1.41318 0.99999 2.33366 0.99999H4.00033V0.166656H5.66699V0.99999H12.3337V0.166656H14.0003V0.99999ZM6.50033 10.1667H4.83366V8.49999H6.50033V10.1667ZM9.83366 10.1667H8.16699V8.49999H9.83366V10.1667ZM13.167 10.1667H11.5003V8.49999H13.167V10.1667ZM6.50033 13.5H4.83366V11.8333H6.50033V13.5ZM9.83366 13.5H8.16699V11.8333H9.83366V13.5Z" fill="#CDD3DB"/>
</svg>
