<svg width="18" height="18" viewBox="0 0 18 18" fill="none" xmlns="http://www.w3.org/2000/svg">
<path fill-rule="evenodd" clip-rule="evenodd" d="M5.66699 6.49999C5.66699 3.27833 8.27867 0.666656 11.5003 0.666656C14.722 0.666656 17.3337 3.27833 17.3337 6.49999C17.3337 9.72165 14.722 12.3333 11.5003 12.3333H9.83366V14H8.16699V15.6667H6.50033V17.3333H0.666992V12.8215L5.79033 7.69814C5.70862 7.30705 5.66699 6.90608 5.66699 6.49999ZM8.16699 10.6667H11.5003C13.8015 10.6667 15.667 8.80118 15.667 6.49999C15.667 4.1988 13.8015 2.33332 11.5003 2.33332C9.19914 2.33332 7.33366 4.1988 7.33366 6.49999C7.33366 6.91552 7.39423 7.32197 7.51206 7.71071L7.6569 8.18859L2.33366 13.5118V15.6667H4.83366V14H6.50033V12.3333H8.16699V10.6667ZM11.5003 8.16666C10.5799 8.16666 9.83366 7.42046 9.83366 6.49999C9.83366 5.57952 10.5799 4.83332 11.5003 4.83332C12.4208 4.83332 13.167 5.57952 13.167 6.49999C13.167 7.42046 12.4208 8.16666 11.5003 8.16666Z" fill="#C5C7D2"/>
</svg>
