<svg width="20" height="14" viewBox="0 0 20 14" fill="none" xmlns="http://www.w3.org/2000/svg">
<path fill-rule="evenodd" clip-rule="evenodd" d="M2.34816 0.5H17.6512C18.488 0.5 19.1663 1.24619 19.1663 2.16667V12.1667C19.1663 13.0871 18.488 13.8333 17.6512 13.8333H2.34816C1.51136 13.8333 0.833008 13.0871 0.833008 12.1667V2.16667C0.833008 1.24619 1.51136 0.5 2.34816 0.5ZM2.49967 2.16667V12.1667H17.4997V2.16667H2.49967ZM4.16634 10.5V8.83333H5.83301V10.5H4.16634ZM6.66634 10.5V8.83333H9.16634V10.5H6.66634ZM14.1663 10.5V8.83333H15.833V10.5H14.1663ZM11.6663 10.5V8.83333H13.333V10.5H11.6663ZM4.16634 4.66667H6.66634V7.16667H4.16634V4.66667Z" fill="#C5C7D2"/>
</svg>
