<svg width="24" height="23" viewBox="0 0 24 23" fill="none" xmlns="http://www.w3.org/2000/svg">
<path fill-rule="evenodd" clip-rule="evenodd" d="M11.9998 22.9583C5.67157 22.9583 0.541504 17.8283 0.541504 11.5C0.541504 5.17174 5.67157 0.0416718 11.9998 0.0416718C18.3281 0.0416718 23.4582 5.17174 23.4582 11.5C23.4582 17.8283 18.3281 22.9583 11.9998 22.9583ZM11.9998 20.875C17.1775 20.875 21.3748 16.6777 21.3748 11.5C21.3748 6.32234 17.1775 2.12501 11.9998 2.12501C6.82217 2.12501 2.62484 6.32234 2.62484 11.5C2.62484 16.6777 6.82217 20.875 11.9998 20.875ZM9.61141 14.9301L8.13827 16.4032L3.23503 11.5L8.13827 6.59677L9.61141 8.06991L6.18131 11.5L9.61141 14.9301ZM14.3883 8.06991L15.8614 6.59677L20.7646 11.5L15.8614 16.4032L14.3883 14.9301L17.8184 11.5L14.3883 8.06991ZM11.9857 17.9213L9.93068 17.5788L12.014 5.07876L14.069 5.42125L11.9857 17.9213Z" fill="#97AACD"/>
</svg>
