<svg width="10" height="10" viewBox="0 0 10 10" fill="none" xmlns="http://www.w3.org/2000/svg">
<path fill-rule="evenodd" clip-rule="evenodd" d="M8.16081 5.41664H5.41664V8.16081L6.37206 7.20539L6.96122 7.79456L4.99997 9.75581L3.03872 7.79456L3.62789 7.20539L4.58331 8.16081V5.41664L1.83914 5.41664L2.79456 6.37206L2.20539 6.96123L0.244141 4.99997L2.20539 3.03872L2.79456 3.62789L1.83914 4.58331L4.58331 4.58331L4.58331 1.83914L3.62789 2.79456L3.03872 2.20539L4.99997 0.244141L6.96122 2.20539L6.37206 2.79456L5.41664 1.83914L5.41664 4.58331H8.16081L7.20539 3.62789L7.79456 3.03872L9.75581 4.99997L7.79456 6.96123L7.20539 6.37206L8.16081 5.41664Z" fill="#449CF4"/>
</svg>
