<svg width="15" height="15" viewBox="0 0 15 15" fill="none" xmlns="http://www.w3.org/2000/svg">
<path fill-rule="evenodd" clip-rule="evenodd" d="M2.75879 6.87504H6.87504V2.75879L5.44191 4.19191L4.55816 3.30816L7.50004 0.366288L10.4419 3.30816L9.55816 4.19191L8.12504 2.75879V6.87504H12.2413L10.8082 5.44191L11.6919 4.55816L14.6338 7.50004L11.6919 10.4419L10.8082 9.55816L12.2413 8.12504H8.12504V12.2413L9.55816 10.8082L10.4419 11.6919L7.50004 14.6338L4.55816 11.6919L5.44191 10.8082L6.87504 12.2413V8.12504H2.75879L4.19191 9.55816L3.30816 10.4419L0.366289 7.50004L3.30816 4.55816L4.19191 5.44191L2.75879 6.87504Z" fill="white"/>
</svg>
