<svg width="124" height="32" viewBox="0 0 124 32" fill="none" xmlns="http://www.w3.org/2000/svg">
<g clip-path="url(#clip0)">
<rect width="32" height="32" rx="9" fill="#5E81F4"/>
<g filter="url(#filter0_d)">
<rect x="-9" y="-10" width="25" height="23" rx="6" fill="#6C8CF6"/>
</g>
<g filter="url(#filter1_d)">
<path d="M13.9002 10.79V15.366H19.5162C19.9669 15.366 20.3395 15.5133 20.6342 15.808C20.9462 16.0853 21.1022 16.4493 21.1022 16.9C21.1022 17.2813 20.9462 17.6193 20.6342 17.914C20.3395 18.2087 19.9669 18.356 19.5162 18.356H13.9002V24.414C13.9002 24.8647 13.7355 25.246 13.4062 25.558C13.0942 25.8527 12.7215 26 12.2882 26C11.8029 26 11.4042 25.8527 11.0922 25.558C10.7975 25.2633 10.6502 24.882 10.6502 24.414V9.386C10.6502 8.93533 10.7975 8.56267 11.0922 8.268C11.4042 7.956 11.7855 7.8 12.2362 7.8H20.6862C21.1369 7.8 21.5095 7.94733 21.8042 8.242C22.1162 8.51933 22.2722 8.88333 22.2722 9.334C22.2722 9.71533 22.1162 10.0533 21.8042 10.348C21.5095 10.6427 21.1369 10.79 20.6862 10.79H13.9002Z" fill="white"/>
</g>
<g filter="url(#filter2_d)">
<rect x="23" y="23" width="25" height="23" rx="6" fill="#6C8CF6"/>
</g>
</g>
<path d="M45.6 11.97V15.138H49.488C49.8 15.138 50.058 15.24 50.262 15.444C50.478 15.636 50.586 15.888 50.586 16.2C50.586 16.464 50.478 16.698 50.262 16.902C50.058 17.106 49.8 17.208 49.488 17.208H45.6V21.402C45.6 21.714 45.486 21.978 45.258 22.194C45.042 22.398 44.784 22.5 44.484 22.5C44.148 22.5 43.872 22.398 43.656 22.194C43.452 21.99 43.35 21.726 43.35 21.402V10.998C43.35 10.686 43.452 10.428 43.656 10.224C43.872 10.008 44.136 9.9 44.448 9.9H50.298C50.61 9.9 50.868 10.002 51.072 10.206C51.288 10.398 51.396 10.65 51.396 10.962C51.396 11.226 51.288 11.46 51.072 11.664C50.868 11.868 50.61 11.97 50.298 11.97H45.6ZM60.1598 12.87C60.4718 12.87 60.7298 12.978 60.9337 13.194C61.1378 13.398 61.2398 13.656 61.2398 13.968V18.54C61.2398 19.836 60.8798 20.85 60.1598 21.582C59.4518 22.314 58.4378 22.68 57.1178 22.68C55.7978 22.68 54.7838 22.314 54.0758 21.582C53.3678 20.85 53.0138 19.836 53.0138 18.54V13.968C53.0138 13.656 53.1158 13.398 53.3198 13.194C53.5238 12.978 53.7818 12.87 54.0938 12.87C54.4058 12.87 54.6638 12.978 54.8678 13.194C55.0718 13.398 55.1738 13.656 55.1738 13.968V18.54C55.1738 19.272 55.3358 19.818 55.6598 20.178C55.9838 20.526 56.4698 20.7 57.1178 20.7C57.7778 20.7 58.2698 20.526 58.5938 20.178C58.9178 19.818 59.0798 19.272 59.0798 18.54V13.968C59.0798 13.656 59.1818 13.398 59.3858 13.194C59.5898 12.978 59.8478 12.87 60.1598 12.87ZM68.7262 12.69C69.9502 12.69 70.7962 13.056 71.2642 13.788C71.7322 14.508 71.9662 15.51 71.9662 16.794V21.402C71.9662 21.714 71.8642 21.978 71.6602 22.194C71.4562 22.398 71.1982 22.5 70.8862 22.5C70.5742 22.5 70.3162 22.398 70.1122 22.194C69.9082 21.978 69.8062 21.714 69.8062 21.402V16.794C69.8062 16.134 69.6682 15.618 69.3922 15.246C69.1162 14.862 68.6422 14.67 67.9702 14.67C67.2742 14.67 66.7282 14.874 66.3322 15.282C65.9362 15.678 65.7382 16.182 65.7382 16.794V21.402C65.7382 21.714 65.6362 21.978 65.4322 22.194C65.2282 22.398 64.9702 22.5 64.6582 22.5C64.3462 22.5 64.0882 22.398 63.8842 22.194C63.6802 21.978 63.5782 21.714 63.5782 21.402V13.968C63.5782 13.656 63.6802 13.398 63.8842 13.194C64.0882 12.978 64.3462 12.87 64.6582 12.87C64.9702 12.87 65.2282 12.978 65.4322 13.194C65.6362 13.398 65.7382 13.656 65.7382 13.968V14.274C66.0622 13.842 66.4822 13.47 66.9982 13.158C67.5262 12.846 68.1022 12.69 68.7262 12.69ZM79.4489 12.69C80.6729 12.69 81.5189 13.056 81.9869 13.788C82.4549 14.508 82.6889 15.51 82.6889 16.794V21.402C82.6889 21.714 82.5869 21.978 82.3829 22.194C82.1789 22.398 81.9209 22.5 81.6089 22.5C81.2969 22.5 81.0389 22.398 80.8349 22.194C80.6309 21.978 80.5289 21.714 80.5289 21.402V16.794C80.5289 16.134 80.3909 15.618 80.1149 15.246C79.8389 14.862 79.3649 14.67 78.6929 14.67C77.9969 14.67 77.4509 14.874 77.0549 15.282C76.6589 15.678 76.4609 16.182 76.4609 16.794V21.402C76.4609 21.714 76.3589 21.978 76.1549 22.194C75.9509 22.398 75.6929 22.5 75.3809 22.5C75.0689 22.5 74.8109 22.398 74.6069 22.194C74.4029 21.978 74.3009 21.714 74.3009 21.402V13.968C74.3009 13.656 74.4029 13.398 74.6069 13.194C74.8109 12.978 75.0689 12.87 75.3809 12.87C75.6929 12.87 75.9509 12.978 76.1549 13.194C76.3589 13.398 76.4609 13.656 76.4609 13.968V14.274C76.7849 13.842 77.2049 13.47 77.7209 13.158C78.2489 12.846 78.8249 12.69 79.4489 12.69ZM93.6635 17.46C93.6515 17.748 93.5375 17.982 93.3215 18.162C93.1055 18.342 92.8535 18.432 92.5655 18.432H86.6255C86.7695 19.14 87.0995 19.698 87.6155 20.106C88.1315 20.502 88.7135 20.7 89.3615 20.7C89.8535 20.7 90.2375 20.658 90.5135 20.574C90.7895 20.478 91.0055 20.382 91.1615 20.286C91.3295 20.178 91.4435 20.106 91.5035 20.07C91.7195 19.962 91.9235 19.908 92.1155 19.908C92.3675 19.908 92.5835 19.998 92.7635 20.178C92.9435 20.358 93.0335 20.568 93.0335 20.808C93.0335 21.132 92.8655 21.426 92.5295 21.69C92.1935 21.966 91.7435 22.2 91.1795 22.392C90.6155 22.584 90.0455 22.68 89.4695 22.68C88.4615 22.68 87.5795 22.47 86.8235 22.05C86.0795 21.63 85.5035 21.054 85.0955 20.322C84.6875 19.578 84.4835 18.744 84.4835 17.82C84.4835 16.788 84.6995 15.882 85.1315 15.102C85.5635 14.322 86.1335 13.728 86.8415 13.32C87.5495 12.9 88.3055 12.69 89.1095 12.69C89.9015 12.69 90.6455 12.906 91.3415 13.338C92.0495 13.77 92.6135 14.352 93.0335 15.084C93.4535 15.816 93.6635 16.608 93.6635 17.46ZM89.1095 14.67C87.7175 14.67 86.8955 15.324 86.6435 16.632H91.3595V16.506C91.3115 16.002 91.0655 15.57 90.6215 15.21C90.1775 14.85 89.6735 14.67 89.1095 14.67ZM97.8049 21.402C97.8049 21.714 97.6969 21.978 97.4809 22.194C97.2769 22.398 97.0189 22.5 96.7069 22.5C96.4069 22.5 96.1549 22.398 95.9509 22.194C95.7469 21.978 95.6449 21.714 95.6449 21.402V10.278C95.6449 9.966 95.7469 9.708 95.9509 9.504C96.1669 9.288 96.4309 9.18 96.7429 9.18C97.0429 9.18 97.2949 9.288 97.4989 9.504C97.7029 9.708 97.8049 9.966 97.8049 10.278V21.402ZM102.35 21.402C102.35 21.714 102.248 21.978 102.044 22.194C101.84 22.398 101.582 22.5 101.27 22.5C100.958 22.5 100.7 22.398 100.496 22.194C100.292 21.978 100.19 21.714 100.19 21.402V13.968C100.19 13.656 100.292 13.398 100.496 13.194C100.7 12.978 100.958 12.87 101.27 12.87C101.582 12.87 101.84 12.978 102.044 13.194C102.248 13.398 102.35 13.656 102.35 13.968V21.402ZM101.252 11.7C100.844 11.7 100.556 11.634 100.388 11.502C100.22 11.37 100.136 11.136 100.136 10.8V10.458C100.136 10.122 100.226 9.888 100.406 9.756C100.586 9.624 100.874 9.558 101.27 9.558C101.69 9.558 101.984 9.624 102.152 9.756C102.32 9.888 102.404 10.122 102.404 10.458V10.8C102.404 11.148 102.314 11.388 102.134 11.52C101.966 11.64 101.672 11.7 101.252 11.7ZM104.012 21.006C103.904 20.862 103.85 20.682 103.85 20.466C103.85 20.154 104.006 19.89 104.318 19.674C104.486 19.566 104.66 19.512 104.84 19.512C105.092 19.512 105.332 19.626 105.56 19.854C105.92 20.226 106.292 20.502 106.676 20.682C107.072 20.862 107.546 20.952 108.098 20.952C109.034 20.916 109.502 20.562 109.502 19.89C109.502 19.542 109.34 19.278 109.016 19.098C108.704 18.918 108.212 18.738 107.54 18.558C106.844 18.366 106.274 18.174 105.83 17.982C105.398 17.79 105.02 17.502 104.696 17.118C104.384 16.722 104.228 16.194 104.228 15.534C104.228 14.958 104.39 14.46 104.714 14.04C105.05 13.608 105.482 13.278 106.01 13.05C106.55 12.81 107.12 12.69 107.72 12.69C108.332 12.69 108.944 12.804 109.556 13.032C110.168 13.26 110.648 13.596 110.996 14.04C111.152 14.232 111.23 14.448 111.23 14.688C111.23 14.964 111.116 15.192 110.888 15.372C110.72 15.504 110.528 15.57 110.312 15.57C110.048 15.57 109.832 15.486 109.664 15.318C109.448 15.054 109.166 14.844 108.818 14.688C108.482 14.532 108.098 14.454 107.666 14.454C106.754 14.454 106.298 14.784 106.298 15.444C106.298 15.708 106.382 15.924 106.55 16.092C106.718 16.248 106.928 16.374 107.18 16.47C107.444 16.554 107.81 16.662 108.278 16.794C108.926 16.974 109.466 17.16 109.898 17.352C110.33 17.544 110.696 17.838 110.996 18.234C111.296 18.63 111.446 19.152 111.446 19.8C111.446 20.388 111.272 20.904 110.924 21.348C110.576 21.78 110.126 22.11 109.574 22.338C109.034 22.566 108.476 22.68 107.9 22.68C107.108 22.68 106.37 22.548 105.686 22.284C105.002 22.02 104.444 21.594 104.012 21.006ZM118.312 12.69C119.5 12.69 120.322 13.056 120.778 13.788C121.234 14.508 121.462 15.51 121.462 16.794V21.402C121.462 21.714 121.36 21.978 121.156 22.194C120.952 22.398 120.694 22.5 120.382 22.5C120.07 22.5 119.812 22.398 119.608 22.194C119.404 21.978 119.302 21.714 119.302 21.402V16.794C119.302 16.134 119.17 15.618 118.906 15.246C118.654 14.862 118.204 14.67 117.556 14.67C116.884 14.67 116.356 14.874 115.972 15.282C115.6 15.678 115.414 16.182 115.414 16.794V21.402C115.414 21.714 115.312 21.978 115.108 22.194C114.904 22.398 114.646 22.5 114.334 22.5C114.022 22.5 113.764 22.398 113.56 22.194C113.356 21.978 113.254 21.714 113.254 21.402V10.278C113.254 9.966 113.356 9.708 113.56 9.504C113.764 9.288 114.022 9.18 114.334 9.18C114.646 9.18 114.904 9.288 115.108 9.504C115.312 9.708 115.414 9.966 115.414 10.278V14.256C115.738 13.824 116.146 13.458 116.638 13.158C117.142 12.846 117.7 12.69 118.312 12.69Z" fill="#4368E0"/>
<defs>
<filter id="filter0_d" x="-12" y="-14" width="31" height="29" filterUnits="userSpaceOnUse" color-interpolation-filters="sRGB">
<feFlood flood-opacity="0" result="BackgroundImageFix"/>
<feColorMatrix in="SourceAlpha" type="matrix" values="0 0 0 0 0 0 0 0 0 0 0 0 0 0 0 0 0 0 127 0"/>
<feOffset dy="-1"/>
<feGaussianBlur stdDeviation="1.5"/>
<feColorMatrix type="matrix" values="0 0 0 0 0.231373 0 0 0 0 0.396078 0 0 0 0 0.937255 0 0 0 0.3 0"/>
<feBlend mode="normal" in2="BackgroundImageFix" result="effect1_dropShadow"/>
<feBlend mode="normal" in="SourceGraphic" in2="effect1_dropShadow" result="shape"/>
</filter>
<filter id="filter1_d" x="7.65039" y="3.80005" width="17.622" height="24.2" filterUnits="userSpaceOnUse" color-interpolation-filters="sRGB">
<feFlood flood-opacity="0" result="BackgroundImageFix"/>
<feColorMatrix in="SourceAlpha" type="matrix" values="0 0 0 0 0 0 0 0 0 0 0 0 0 0 0 0 0 0 127 0"/>
<feOffset dy="-1"/>
<feGaussianBlur stdDeviation="1.5"/>
<feColorMatrix type="matrix" values="0 0 0 0 0.231373 0 0 0 0 0.396078 0 0 0 0 0.937255 0 0 0 0.3 0"/>
<feBlend mode="normal" in2="BackgroundImageFix" result="effect1_dropShadow"/>
<feBlend mode="normal" in="SourceGraphic" in2="effect1_dropShadow" result="shape"/>
</filter>
<filter id="filter2_d" x="20" y="19" width="31" height="29" filterUnits="userSpaceOnUse" color-interpolation-filters="sRGB">
<feFlood flood-opacity="0" result="BackgroundImageFix"/>
<feColorMatrix in="SourceAlpha" type="matrix" values="0 0 0 0 0 0 0 0 0 0 0 0 0 0 0 0 0 0 127 0"/>
<feOffset dy="-1"/>
<feGaussianBlur stdDeviation="1.5"/>
<feColorMatrix type="matrix" values="0 0 0 0 0.231373 0 0 0 0 0.396078 0 0 0 0 0.937255 0 0 0 0.3 0"/>
<feBlend mode="normal" in2="BackgroundImageFix" result="effect1_dropShadow"/>
<feBlend mode="normal" in="SourceGraphic" in2="effect1_dropShadow" result="shape"/>
</filter>
<clipPath id="clip0">
<rect width="32" height="32" rx="9" fill="white"/>
</clipPath>
</defs>
</svg>
