<svg width="50" height="26" viewBox="0 0 50 26" fill="none" xmlns="http://www.w3.org/2000/svg">
<path d="M13.4296 10.3101H16.4618V11H12.5814V4.60156H13.4296V10.3101ZM17.2614 8.57861C17.2614 8.11279 17.3522 7.69385 17.5339 7.32178C17.7184 6.94971 17.9733 6.6626 18.2985 6.46045C18.6266 6.2583 19.0002 6.15723 19.4191 6.15723C20.0666 6.15723 20.5895 6.38135 20.988 6.82959C21.3893 7.27783 21.59 7.87402 21.59 8.61816V8.67529C21.59 9.13818 21.5007 9.5542 21.322 9.92334C21.1462 10.2896 20.8928 10.5752 20.5617 10.7803C20.2336 10.9854 19.8556 11.0879 19.4279 11.0879C18.7834 11.0879 18.2604 10.8638 17.8591 10.4155C17.4606 9.96729 17.2614 9.37402 17.2614 8.63574V8.57861ZM18.0788 8.67529C18.0788 9.20264 18.2004 9.62598 18.4435 9.94531C18.6896 10.2646 19.0178 10.4243 19.4279 10.4243C19.841 10.4243 20.1691 10.2632 20.4123 9.94092C20.6554 9.61572 20.777 9.16162 20.777 8.57861C20.777 8.05713 20.6525 7.63525 20.4035 7.31299C20.1574 6.98779 19.8293 6.8252 19.4191 6.8252C19.0178 6.8252 18.694 6.98486 18.4479 7.3042C18.2018 7.62354 18.0788 8.08057 18.0788 8.67529ZM25.0879 6.97461C24.9648 6.9541 24.8315 6.94385 24.688 6.94385C24.1548 6.94385 23.793 7.1709 23.6025 7.625V11H22.7896V6.24512H23.5806L23.5938 6.79443C23.8604 6.36963 24.2383 6.15723 24.7275 6.15723C24.8857 6.15723 25.0059 6.17773 25.0879 6.21875V6.97461ZM27.9046 11.0879C27.2601 11.0879 26.7357 10.877 26.3314 10.4551C25.9271 10.0303 25.7249 9.46338 25.7249 8.75439V8.60498C25.7249 8.1333 25.8143 7.71289 25.993 7.34375C26.1746 6.97168 26.4266 6.68164 26.7488 6.47363C27.074 6.2627 27.4256 6.15723 27.8035 6.15723C28.4217 6.15723 28.9022 6.36084 29.2449 6.76807C29.5877 7.17529 29.7591 7.7583 29.7591 8.51709V8.85547H26.5379C26.5496 9.32422 26.6859 9.70361 26.9466 9.99365C27.2103 10.2808 27.5443 10.4243 27.9486 10.4243C28.2357 10.4243 28.4788 10.3657 28.678 10.2485C28.8773 10.1313 29.0516 9.97607 29.201 9.78271L29.6976 10.1694C29.2991 10.7817 28.7015 11.0879 27.9046 11.0879ZM27.8035 6.8252C27.4754 6.8252 27.2 6.94531 26.9774 7.18555C26.7547 7.42285 26.617 7.75684 26.5643 8.1875H28.9461V8.12598C28.9227 7.71289 28.8113 7.39355 28.6121 7.16797C28.4129 6.93945 28.1434 6.8252 27.8035 6.8252ZM31.6486 6.24512L31.6705 6.77246C32.0192 6.3623 32.4894 6.15723 33.0812 6.15723C33.7462 6.15723 34.1989 6.41211 34.4391 6.92188C34.5973 6.69336 34.8024 6.50879 35.0543 6.36816C35.3092 6.22754 35.6095 6.15723 35.9552 6.15723C36.9982 6.15723 37.5285 6.70947 37.546 7.81396V11H36.733V7.8623C36.733 7.52246 36.6554 7.26904 36.5001 7.10205C36.3449 6.93213 36.0841 6.84717 35.7179 6.84717C35.4162 6.84717 35.1657 6.93799 34.9664 7.11963C34.7672 7.29834 34.6515 7.54004 34.6193 7.84473V11H33.8019V7.88428C33.8019 7.19287 33.4635 6.84717 32.7868 6.84717C32.2536 6.84717 31.8888 7.07422 31.6925 7.52832V11H30.8795V6.24512H31.6486ZM13.7855 21H12.9418V14.6016H13.7855V21ZM19.4015 18.6753C19.4015 19.3989 19.236 19.9819 18.905 20.4243C18.5739 20.8667 18.1257 21.0879 17.5602 21.0879C16.9831 21.0879 16.529 20.9048 16.1979 20.5386V22.8281H15.3849V16.2451H16.1276L16.1672 16.7725C16.4982 16.3623 16.9582 16.1572 17.5471 16.1572C18.1183 16.1572 18.5695 16.3726 18.9006 16.8032C19.2346 17.2339 19.4015 17.833 19.4015 18.6006V18.6753ZM18.5886 18.583C18.5886 18.0469 18.4743 17.6235 18.2458 17.313C18.0173 17.0024 17.7038 16.8472 17.3054 16.8472C16.8132 16.8472 16.444 17.0654 16.1979 17.502V19.7739C16.4411 20.2075 16.8132 20.4243 17.3141 20.4243C17.7038 20.4243 18.0129 20.2705 18.2414 19.9629C18.4728 19.6523 18.5886 19.1924 18.5886 18.583ZM23.3872 19.7388C23.3872 19.519 23.3037 19.3491 23.1367 19.229C22.9727 19.106 22.6841 19.0005 22.271 18.9126C21.8608 18.8247 21.5342 18.7192 21.291 18.5962C21.0508 18.4731 20.8721 18.3267 20.7549 18.1567C20.6406 17.9868 20.5835 17.7847 20.5835 17.5503C20.5835 17.1606 20.7476 16.8311 21.0757 16.5615C21.4067 16.292 21.8286 16.1572 22.3413 16.1572C22.8804 16.1572 23.3169 16.2964 23.6509 16.5747C23.9878 16.853 24.1562 17.209 24.1562 17.6426H23.3389C23.3389 17.4199 23.2437 17.228 23.0532 17.0669C22.8657 16.9058 22.6284 16.8252 22.3413 16.8252C22.0454 16.8252 21.814 16.8896 21.647 17.0186C21.48 17.1475 21.3965 17.3159 21.3965 17.5239C21.3965 17.7202 21.4741 17.8682 21.6294 17.9678C21.7847 18.0674 22.0645 18.1626 22.4688 18.2534C22.876 18.3442 23.2056 18.4526 23.4575 18.5786C23.7095 18.7046 23.8955 18.8569 24.0156 19.0356C24.1387 19.2114 24.2002 19.4268 24.2002 19.6816C24.2002 20.1064 24.0303 20.4478 23.6904 20.7056C23.3506 20.9604 22.9097 21.0879 22.3677 21.0879C21.9868 21.0879 21.6499 21.0205 21.3569 20.8857C21.064 20.751 20.834 20.5635 20.667 20.3232C20.5029 20.0801 20.4209 19.8179 20.4209 19.5366H21.2339C21.2485 19.8091 21.3569 20.0259 21.5591 20.187C21.7642 20.3452 22.0337 20.4243 22.3677 20.4243C22.6753 20.4243 22.9214 20.3628 23.106 20.2397C23.2935 20.1138 23.3872 19.9468 23.3872 19.7388ZM28.3748 20.5298C28.0584 20.9019 27.5941 21.0879 26.9818 21.0879C26.4749 21.0879 26.0882 20.9414 25.8216 20.6484C25.5579 20.3525 25.4246 19.916 25.4217 19.3389V16.2451H26.2347V19.3169C26.2347 20.0376 26.5277 20.3979 27.1136 20.3979C27.7347 20.3979 28.1478 20.1665 28.3529 19.7036V16.2451H29.1658V21H28.3924L28.3748 20.5298ZM31.3497 16.2451L31.3717 16.7725C31.7204 16.3623 32.1906 16.1572 32.7824 16.1572C33.4474 16.1572 33.9 16.4121 34.1403 16.9219C34.2985 16.6934 34.5036 16.5088 34.7555 16.3682C35.0104 16.2275 35.3107 16.1572 35.6564 16.1572C36.6994 16.1572 37.2296 16.7095 37.2472 17.814V21H36.4342V17.8623C36.4342 17.5225 36.3566 17.269 36.2013 17.1021C36.046 16.9321 35.7853 16.8472 35.4191 16.8472C35.1173 16.8472 34.8668 16.938 34.6676 17.1196C34.4684 17.2983 34.3527 17.54 34.3204 17.8447V21H33.5031V17.8843C33.5031 17.1929 33.1647 16.8472 32.4879 16.8472C31.9547 16.8472 31.59 17.0742 31.3937 17.5283V21H30.5807V16.2451H31.3497Z" fill="#C5C7D2"/>
<rect x="0.5" y="0.5" width="49" height="25" rx="1.5" stroke="#C5C7D2"/>
</svg>
