<svg width="50" height="20" viewBox="0 0 50 20" fill="none" xmlns="http://www.w3.org/2000/svg">
<path d="M20.443 13H19.6257V7.58154L17.9865 8.18359V7.44531L20.3156 6.5708H20.443V13ZM27.1973 13H23.0049V12.4155L25.2197 9.95459C25.5479 9.58252 25.7734 9.28076 25.8965 9.04932C26.0225 8.81494 26.0854 8.57324 26.0854 8.32422C26.0854 7.99023 25.9844 7.71631 25.7822 7.50244C25.5801 7.28857 25.3105 7.18164 24.9736 7.18164C24.5693 7.18164 24.2544 7.29736 24.0288 7.52881C23.8062 7.75732 23.6948 8.07666 23.6948 8.48682H22.8818C22.8818 7.89795 23.0708 7.42188 23.4487 7.05859C23.8296 6.69531 24.3379 6.51367 24.9736 6.51367C25.5684 6.51367 26.0386 6.67041 26.3843 6.98389C26.73 7.29443 26.9028 7.70898 26.9028 8.22754C26.9028 8.85742 26.5015 9.60742 25.6987 10.4775L23.9849 12.3364H27.1973V13ZM29.4207 9.40527H30.0316C30.4154 9.39941 30.7171 9.29834 30.9368 9.10205C31.1566 8.90576 31.2664 8.64062 31.2664 8.30664C31.2664 7.55664 30.8929 7.18164 30.1458 7.18164C29.7943 7.18164 29.513 7.28271 29.3021 7.48486C29.0941 7.68408 28.9901 7.94922 28.9901 8.28027H28.1771C28.1771 7.77344 28.3616 7.35303 28.7308 7.01904C29.1029 6.68213 29.5745 6.51367 30.1458 6.51367C30.7493 6.51367 31.2225 6.67334 31.5653 6.99268C31.908 7.31201 32.0794 7.75586 32.0794 8.32422C32.0794 8.60254 31.9886 8.87207 31.807 9.13281C31.6282 9.39355 31.3836 9.58838 31.0731 9.71729C31.4246 9.82861 31.6956 10.0132 31.8861 10.271C32.0794 10.5288 32.1761 10.8438 32.1761 11.2158C32.1761 11.79 31.9886 12.2456 31.6136 12.5825C31.2386 12.9194 30.7508 13.0879 30.1502 13.0879C29.5496 13.0879 29.0604 12.9253 28.6824 12.6001C28.3074 12.2749 28.1199 11.8457 28.1199 11.3125H28.9373C28.9373 11.6494 29.0472 11.9189 29.2669 12.1211C29.4866 12.3232 29.7811 12.4243 30.1502 12.4243C30.5428 12.4243 30.8431 12.3218 31.0511 12.1167C31.2591 11.9116 31.3631 11.6172 31.3631 11.2334C31.3631 10.8613 31.2488 10.5757 31.0203 10.3765C30.7918 10.1772 30.4622 10.0747 30.0316 10.0688H29.4207V9.40527Z" fill="#C5C7D2"/>
<rect x="0.5" y="0.5" width="49" height="19" rx="1.5" stroke="#C5C7D2"/>
</svg>
