<svg width="90" height="20" viewBox="0 0 90 20" fill="none" xmlns="http://www.w3.org/2000/svg">
<path d="M8.25639 13H7.4434V8.24512H8.25639V13ZM7.37748 6.98389C7.37748 6.85205 7.41703 6.74072 7.49613 6.6499C7.57816 6.55908 7.69828 6.51367 7.85648 6.51367C8.01469 6.51367 8.1348 6.55908 8.21684 6.6499C8.29887 6.74072 8.33988 6.85205 8.33988 6.98389C8.33988 7.11572 8.29887 7.22559 8.21684 7.31348C8.1348 7.40137 8.01469 7.44531 7.85648 7.44531C7.69828 7.44531 7.57816 7.40137 7.49613 7.31348C7.41703 7.22559 7.37748 7.11572 7.37748 6.98389ZM10.5106 8.24512L10.537 8.84277C10.9003 8.38574 11.3749 8.15723 11.9608 8.15723C12.9657 8.15723 13.4725 8.72412 13.4813 9.85791V13H12.6683V9.85352C12.6654 9.51074 12.5863 9.25732 12.431 9.09326C12.2787 8.9292 12.0399 8.84717 11.7147 8.84717C11.451 8.84717 11.2196 8.91748 11.0204 9.05811C10.8212 9.19873 10.6659 9.3833 10.5546 9.61182V13H9.74156V8.24512H10.5106ZM18.904 10.6753C18.904 11.3989 18.7385 11.9819 18.4074 12.4243C18.0763 12.8667 17.6281 13.0879 17.0627 13.0879C16.4855 13.0879 16.0314 12.9048 15.7004 12.5386V14.8281H14.8874V8.24512H15.6301L15.6696 8.77246C16.0007 8.3623 16.4606 8.15723 17.0495 8.15723C17.6208 8.15723 18.072 8.37256 18.403 8.80322C18.737 9.23389 18.904 9.83301 18.904 10.6006V10.6753ZM18.091 10.583C18.091 10.0469 17.9767 9.62354 17.7482 9.31299C17.5197 9.00244 17.2062 8.84717 16.8078 8.84717C16.3156 8.84717 15.9465 9.06543 15.7004 9.50195V11.7739C15.9435 12.2075 16.3156 12.4243 16.8166 12.4243C17.2062 12.4243 17.5153 12.2705 17.7438 11.9629C17.9753 11.6523 18.091 11.1924 18.091 10.583ZM23.0566 12.5298C22.7402 12.9019 22.2759 13.0879 21.6636 13.0879C21.1567 13.0879 20.77 12.9414 20.5034 12.6484C20.2397 12.3525 20.1064 11.916 20.1035 11.3389V8.24512H20.9165V11.3169C20.9165 12.0376 21.2095 12.3979 21.7954 12.3979C22.4165 12.3979 22.8296 12.1665 23.0347 11.7036V8.24512H23.8477V13H23.0742L23.0566 12.5298ZM26.3699 7.09375V8.24512H27.2576V8.87354H26.3699V11.8223C26.3699 12.0127 26.4095 12.1562 26.4886 12.2529C26.5677 12.3467 26.7025 12.3936 26.8929 12.3936C26.9866 12.3936 27.1155 12.376 27.2796 12.3408V13C27.0657 13.0586 26.8577 13.0879 26.6556 13.0879C26.2923 13.0879 26.0184 12.978 25.8338 12.7583C25.6492 12.5386 25.557 12.2266 25.557 11.8223V8.87354H24.6912V8.24512H25.557V7.09375H26.3699ZM33.3921 13H32.5747V7.58154L30.9355 8.18359V7.44531L33.2646 6.5708H33.3921V13Z" fill="#C5C7D2"/>
<rect x="0.5" y="0.5" width="41.5" height="19" rx="1.5" stroke="#C5C7D2"/>
<path d="M55.7564 13H54.9434V8.24512H55.7564V13ZM54.8775 6.98389C54.8775 6.85205 54.917 6.74072 54.9961 6.6499C55.0782 6.55908 55.1983 6.51367 55.3565 6.51367C55.5147 6.51367 55.6348 6.55908 55.7168 6.6499C55.7989 6.74072 55.8399 6.85205 55.8399 6.98389C55.8399 7.11572 55.7989 7.22559 55.7168 7.31348C55.6348 7.40137 55.5147 7.44531 55.3565 7.44531C55.1983 7.44531 55.0782 7.40137 54.9961 7.31348C54.917 7.22559 54.8775 7.11572 54.8775 6.98389ZM58.0106 8.24512L58.037 8.84277C58.4003 8.38574 58.8749 8.15723 59.4608 8.15723C60.4657 8.15723 60.9725 8.72412 60.9813 9.85791V13H60.1683V9.85352C60.1654 9.51074 60.0863 9.25732 59.931 9.09326C59.7787 8.9292 59.5399 8.84717 59.2147 8.84717C58.951 8.84717 58.7196 8.91748 58.5204 9.05811C58.3212 9.19873 58.1659 9.3833 58.0546 9.61182V13H57.2416V8.24512H58.0106ZM66.404 10.6753C66.404 11.3989 66.2385 11.9819 65.9074 12.4243C65.5763 12.8667 65.1281 13.0879 64.5627 13.0879C63.9855 13.0879 63.5314 12.9048 63.2004 12.5386V14.8281H62.3874V8.24512H63.1301L63.1696 8.77246C63.5007 8.3623 63.9606 8.15723 64.5495 8.15723C65.1208 8.15723 65.572 8.37256 65.903 8.80322C66.237 9.23389 66.404 9.83301 66.404 10.6006V10.6753ZM65.591 10.583C65.591 10.0469 65.4767 9.62354 65.2482 9.31299C65.0197 9.00244 64.7062 8.84717 64.3078 8.84717C63.8156 8.84717 63.4465 9.06543 63.2004 9.50195V11.7739C63.4435 12.2075 63.8156 12.4243 64.3166 12.4243C64.7062 12.4243 65.0153 12.2705 65.2438 11.9629C65.4753 11.6523 65.591 11.1924 65.591 10.583ZM70.5566 12.5298C70.2402 12.9019 69.7759 13.0879 69.1636 13.0879C68.6567 13.0879 68.27 12.9414 68.0034 12.6484C67.7397 12.3525 67.6064 11.916 67.6035 11.3389V8.24512H68.4165V11.3169C68.4165 12.0376 68.7095 12.3979 69.2954 12.3979C69.9165 12.3979 70.3296 12.1665 70.5347 11.7036V8.24512H71.3477V13H70.5742L70.5566 12.5298ZM73.8699 7.09375V8.24512H74.7576V8.87354H73.8699V11.8223C73.8699 12.0127 73.9095 12.1562 73.9886 12.2529C74.0677 12.3467 74.2025 12.3936 74.3929 12.3936C74.4866 12.3936 74.6155 12.376 74.7796 12.3408V13C74.5657 13.0586 74.3577 13.0879 74.1556 13.0879C73.7923 13.0879 73.5184 12.978 73.3338 12.7583C73.1492 12.5386 73.057 12.2266 73.057 11.8223V8.87354H72.1912V8.24512H73.057V7.09375H73.8699ZM82.4126 13H78.2202V12.4155L80.435 9.95459C80.7631 9.58252 80.9887 9.28076 81.1118 9.04932C81.2378 8.81494 81.3007 8.57324 81.3007 8.32422C81.3007 7.99023 81.1997 7.71631 80.9975 7.50244C80.7954 7.28857 80.5258 7.18164 80.1889 7.18164C79.7846 7.18164 79.4697 7.29736 79.2441 7.52881C79.0214 7.75732 78.9101 8.07666 78.9101 8.48682H78.0971C78.0971 7.89795 78.2861 7.42188 78.664 7.05859C79.0449 6.69531 79.5532 6.51367 80.1889 6.51367C80.7837 6.51367 81.2539 6.67041 81.5996 6.98389C81.9453 7.29443 82.1181 7.70898 82.1181 8.22754C82.1181 8.85742 81.7168 9.60742 80.914 10.4775L79.2002 12.3364H82.4126V13Z" fill="#C5C7D2"/>
<rect x="48" y="0.5" width="41.5" height="19" rx="1.5" stroke="#C5C7D2"/>
</svg>
