<svg width="50" height="20" viewBox="0 0 50 20" fill="none" xmlns="http://www.w3.org/2000/svg">
<path d="M12.9191 11.7388C12.9191 11.519 12.8356 11.3491 12.6687 11.229C12.5046 11.106 12.216 11.0005 11.8029 10.9126C11.3928 10.8247 11.0661 10.7192 10.8229 10.5962C10.5827 10.4731 10.404 10.3267 10.2868 10.1567C10.1726 9.98682 10.1154 9.78467 10.1154 9.55029C10.1154 9.16064 10.2795 8.83105 10.6076 8.56152C10.9387 8.29199 11.3605 8.15723 11.8732 8.15723C12.4123 8.15723 12.8488 8.29639 13.1828 8.57471C13.5197 8.85303 13.6882 9.20898 13.6882 9.64258H12.8708C12.8708 9.41992 12.7756 9.22803 12.5852 9.06689C12.3977 8.90576 12.1604 8.8252 11.8732 8.8252C11.5773 8.8252 11.3459 8.88965 11.1789 9.01855C11.0119 9.14746 10.9284 9.31592 10.9284 9.52393C10.9284 9.72021 11.0061 9.86816 11.1613 9.96777C11.3166 10.0674 11.5964 10.1626 12.0007 10.2534C12.4079 10.3442 12.7375 10.4526 12.9895 10.5786C13.2414 10.7046 13.4274 10.8569 13.5476 11.0356C13.6706 11.2114 13.7321 11.4268 13.7321 11.6816C13.7321 12.1064 13.5622 12.4478 13.2224 12.7056C12.8825 12.9604 12.4416 13.0879 11.8996 13.0879C11.5188 13.0879 11.1818 13.0205 10.8889 12.8857C10.5959 12.751 10.3659 12.5635 10.1989 12.3232C10.0349 12.0801 9.95283 11.8179 9.95283 11.5366H10.7658C10.7805 11.8091 10.8889 12.0259 11.091 12.187C11.2961 12.3452 11.5656 12.4243 11.8996 12.4243C12.2072 12.4243 12.4533 12.3628 12.6379 12.2397C12.8254 12.1138 12.9191 11.9468 12.9191 11.7388ZM16.9444 13.0879C16.2998 13.0879 15.7754 12.877 15.3711 12.4551C14.9668 12.0303 14.7647 11.4634 14.7647 10.7544V10.605C14.7647 10.1333 14.854 9.71289 15.0327 9.34375C15.2144 8.97168 15.4663 8.68164 15.7886 8.47363C16.1138 8.2627 16.4654 8.15723 16.8433 8.15723C17.4614 8.15723 17.9419 8.36084 18.2847 8.76807C18.6275 9.17529 18.7988 9.7583 18.7988 10.5171V10.8555H15.5777C15.5894 11.3242 15.7256 11.7036 15.9863 11.9937C16.25 12.2808 16.584 12.4243 16.9883 12.4243C17.2754 12.4243 17.5186 12.3657 17.7178 12.2485C17.917 12.1313 18.0913 11.9761 18.2407 11.7827L18.7373 12.1694C18.3389 12.7817 17.7412 13.0879 16.9444 13.0879ZM16.8433 8.8252C16.5152 8.8252 16.2398 8.94531 16.0171 9.18555C15.7945 9.42285 15.6568 9.75684 15.604 10.1875H17.9859V10.126C17.9624 9.71289 17.8511 9.39355 17.6519 9.16797C17.4527 8.93945 17.1831 8.8252 16.8433 8.8252ZM20.807 13H19.994V6.25H20.807V13ZM24.2653 13.0879C23.6208 13.0879 23.0963 12.877 22.6921 12.4551C22.2878 12.0303 22.0856 11.4634 22.0856 10.7544V10.605C22.0856 10.1333 22.175 9.71289 22.3537 9.34375C22.5353 8.97168 22.7873 8.68164 23.1095 8.47363C23.4347 8.2627 23.7863 8.15723 24.1642 8.15723C24.7824 8.15723 25.2629 8.36084 25.6056 8.76807C25.9484 9.17529 26.1198 9.7583 26.1198 10.5171V10.8555H22.8986C22.9103 11.3242 23.0465 11.7036 23.3073 11.9937C23.571 12.2808 23.9049 12.4243 24.3092 12.4243C24.5963 12.4243 24.8395 12.3657 25.0387 12.2485C25.2379 12.1313 25.4123 11.9761 25.5617 11.7827L26.0583 12.1694C25.6598 12.7817 25.0622 13.0879 24.2653 13.0879ZM24.1642 8.8252C23.8361 8.8252 23.5607 8.94531 23.338 9.18555C23.1154 9.42285 22.9777 9.75684 22.925 10.1875H25.3068V10.126C25.2834 9.71289 25.172 9.39355 24.9728 9.16797C24.7736 8.93945 24.5041 8.8252 24.1642 8.8252ZM29.1518 12.4243C29.4419 12.4243 29.6953 12.3364 29.9121 12.1606C30.1289 11.9849 30.249 11.7651 30.2724 11.5015H31.0415C31.0268 11.7739 30.9331 12.0332 30.7602 12.2793C30.5874 12.5254 30.3559 12.7217 30.0659 12.8682C29.7788 13.0146 29.4741 13.0879 29.1518 13.0879C28.5044 13.0879 27.9888 12.8726 27.605 12.4419C27.2241 12.0083 27.0337 11.4165 27.0337 10.6665V10.5303C27.0337 10.0674 27.1186 9.65576 27.2886 9.29541C27.4585 8.93506 27.7016 8.65527 28.018 8.45605C28.3374 8.25684 28.7138 8.15723 29.1474 8.15723C29.6806 8.15723 30.123 8.31689 30.4746 8.63623C30.8291 8.95557 31.018 9.37012 31.0415 9.87988H30.2724C30.249 9.57227 30.1318 9.32031 29.9209 9.12402C29.7129 8.9248 29.4551 8.8252 29.1474 8.8252C28.7344 8.8252 28.4136 8.97461 28.185 9.27344C27.9595 9.56934 27.8467 9.99854 27.8467 10.561V10.7148C27.8467 11.2627 27.9595 11.6846 28.185 11.9805C28.4106 12.2764 28.7329 12.4243 29.1518 12.4243ZM33.2386 7.09375V8.24512H34.1263V8.87354H33.2386V11.8223C33.2386 12.0127 33.2781 12.1562 33.3572 12.2529C33.4363 12.3467 33.5711 12.3936 33.7615 12.3936C33.8553 12.3936 33.9842 12.376 34.1482 12.3408V13C33.9344 13.0586 33.7264 13.0879 33.5242 13.0879C33.1609 13.0879 32.887 12.978 32.7024 12.7583C32.5179 12.5386 32.4256 12.2266 32.4256 11.8223V8.87354H31.5599V8.24512H32.4256V7.09375H33.2386Z" fill="#C5C7D2"/>
<path d="M42.3287 12.0767C42.3674 12.133 42.4316 12.1665 42.4999 12.1665C42.5682 12.1665 42.6324 12.133 42.6712 12.0767L44.5462 9.36838C44.5903 9.30463 44.5953 9.22171 44.5593 9.15317C44.5234 9.08463 44.4524 9.0415 44.3749 9.0415H40.6249C40.5474 9.0415 40.4764 9.08463 40.4403 9.15317C40.4043 9.22171 40.4095 9.30463 40.4537 9.36838L42.3287 12.0767Z" fill="#C5C7D2"/>
<rect x="0.5" y="0.5" width="49" height="19" rx="1.5" stroke="#C5C7D2"/>
</svg>
