<svg width="50" height="20" viewBox="0 0 50 20" fill="none" xmlns="http://www.w3.org/2000/svg">
<rect x="0.5" y="0.5" width="49" height="19" rx="1.5" fill="white"/>
<path d="M16.097 13H15.2533V6.60156H16.097V13ZM18.4655 8.24512L18.4919 8.84277C18.8552 8.38574 19.3298 8.15723 19.9157 8.15723C20.9206 8.15723 21.4274 8.72412 21.4362 9.85791V13H20.6232V9.85352C20.6203 9.51074 20.5412 9.25732 20.3859 9.09326C20.2336 8.9292 19.9948 8.84717 19.6696 8.84717C19.4059 8.84717 19.1745 8.91748 18.9753 9.05811C18.7761 9.19873 18.6208 9.3833 18.5095 9.61182V13H17.6965V8.24512H18.4655ZM26.8589 10.6753C26.8589 11.3989 26.6934 11.9819 26.3623 12.4243C26.0312 12.8667 25.583 13.0879 25.0176 13.0879C24.4404 13.0879 23.9863 12.9048 23.6553 12.5386V14.8281H22.8423V8.24512H23.585L23.6245 8.77246C23.9556 8.3623 24.4155 8.15723 25.0044 8.15723C25.5757 8.15723 26.0269 8.37256 26.3579 8.80322C26.6919 9.23389 26.8589 9.83301 26.8589 10.6006V10.6753ZM26.0459 10.583C26.0459 10.0469 25.9316 9.62354 25.7031 9.31299C25.4746 9.00244 25.1611 8.84717 24.7627 8.84717C24.2705 8.84717 23.9014 9.06543 23.6553 9.50195V11.7739C23.8984 12.2075 24.2705 12.4243 24.7715 12.4243C25.1611 12.4243 25.4702 12.2705 25.6987 11.9629C25.9302 11.6523 26.0459 11.1924 26.0459 10.583ZM31.0115 12.5298C30.6951 12.9019 30.2308 13.0879 29.6185 13.0879C29.1116 13.0879 28.7249 12.9414 28.4583 12.6484C28.1946 12.3525 28.0613 11.916 28.0584 11.3389V8.24512H28.8714V11.3169C28.8714 12.0376 29.1644 12.3979 29.7503 12.3979C30.3714 12.3979 30.7845 12.1665 30.9896 11.7036V8.24512H31.8026V13H31.0291L31.0115 12.5298ZM34.3248 7.09375V8.24512H35.2125V8.87354H34.3248V11.8223C34.3248 12.0127 34.3644 12.1562 34.4435 12.2529C34.5226 12.3467 34.6574 12.3936 34.8478 12.3936C34.9415 12.3936 35.0704 12.376 35.2345 12.3408V13C35.0206 13.0586 34.8126 13.0879 34.6105 13.0879C34.2472 13.0879 33.9733 12.978 33.7887 12.7583C33.6041 12.5386 33.5119 12.2266 33.5119 11.8223V8.87354H32.6461V8.24512H33.5119V7.09375H34.3248Z" fill="#C5C7D2"/>
<rect x="0.5" y="0.5" width="49" height="19" rx="1.5" stroke="#C5C7D2"/>
</svg>
