<svg width="50" height="50" viewBox="0 0 50 50" fill="none" xmlns="http://www.w3.org/2000/svg">
<rect width="50" height="50" fill="#F4A28C" fill-opacity="0.3"/>
<rect width="38" height="38" transform="translate(6 6)" fill="white"/>
<g>
<path d="M37.8125 17.5H12.1875C10.9813 17.5 10 16.5188 10 15.3125V12.1875C10 10.9813 10.9813 10 12.1875 10H37.8125C39.0187 10 40 10.9813 40 12.1875V15.3125C40 16.5188 39.0187 17.5 37.8125 17.5ZM12.1875 11.875C12.015 11.875 11.875 12.015 11.875 12.1875V15.3125C11.875 15.485 12.015 15.625 12.1875 15.625H37.8125C37.985 15.625 38.125 15.485 38.125 15.3125V12.1875C38.125 12.015 37.985 11.875 37.8125 11.875H12.1875Z" fill="#C5C7D2"/>
<path d="M27.1872 34.0624C26.9472 34.0624 26.7072 33.9712 26.5247 33.7874C26.1584 33.4212 26.1584 32.8274 26.5247 32.4612L29.0747 29.9112C29.9297 29.0562 31.3209 29.0574 32.1747 29.9112L32.8259 30.5624C32.9034 30.6399 32.9984 30.6449 33.0509 30.6474C33.1034 30.6449 33.2047 30.6262 33.2847 30.5312L34.5659 28.9874C35.4022 27.9862 37.0984 27.9874 37.9322 28.9862L39.7822 31.2124C40.1134 31.6099 40.0584 32.2012 39.6609 32.5337C39.2622 32.8637 38.6722 32.8112 38.3409 32.4112L36.4909 30.1862C36.3297 29.9937 36.1697 29.9924 36.0072 30.1874L34.7209 31.7362C34.3197 32.2112 33.7409 32.4937 33.1297 32.5199C32.5197 32.5649 31.9284 32.3162 31.4997 31.8887L30.8484 31.2374C30.7272 31.1149 30.5209 31.1149 30.3997 31.2374L27.8497 33.7874C27.6672 33.9712 27.4272 34.0624 27.1872 34.0624Z" fill="#C5C7D2"/>
<path d="M37.8125 38.125H28.4375C27.2312 38.125 26.25 37.1438 26.25 35.9375V23.4375C26.25 22.2313 27.2312 21.25 28.4375 21.25H37.8125C39.0187 21.25 40 22.2313 40 23.4375V35.9375C40 37.1438 39.0187 38.125 37.8125 38.125ZM28.4375 23.125C28.265 23.125 28.125 23.265 28.125 23.4375V35.9375C28.125 36.11 28.265 36.25 28.4375 36.25H37.8125C37.985 36.25 38.125 36.11 38.125 35.9375V23.4375C38.125 23.265 37.985 23.125 37.8125 23.125H28.4375Z" fill="#C5C7D2"/>
<path d="M22.8125 23.125H10.9375C10.42 23.125 10 22.705 10 22.1875C10 21.67 10.42 21.25 10.9375 21.25H22.8125C23.33 21.25 23.75 21.67 23.75 22.1875C23.75 22.705 23.33 23.125 22.8125 23.125Z" fill="#C5C7D2"/>
<path d="M22.8125 26.875H10.9375C10.42 26.875 10 26.455 10 25.9375C10 25.42 10.42 25 10.9375 25H22.8125C23.33 25 23.75 25.42 23.75 25.9375C23.75 26.455 23.33 26.875 22.8125 26.875Z" fill="#C5C7D2"/>
<path d="M22.8125 30.625H10.9375C10.42 30.625 10 30.205 10 29.6875C10 29.17 10.42 28.75 10.9375 28.75H22.8125C23.33 28.75 23.75 29.17 23.75 29.6875C23.75 30.205 23.33 30.625 22.8125 30.625Z" fill="#C5C7D2"/>
<path d="M22.8125 34.375H10.9375C10.42 34.375 10 33.955 10 33.4375C10 32.92 10.42 32.5 10.9375 32.5H22.8125C23.33 32.5 23.75 32.92 23.75 33.4375C23.75 33.955 23.33 34.375 22.8125 34.375Z" fill="#C5C7D2"/>
<path d="M22.8125 38.125H10.9375C10.42 38.125 10 37.705 10 37.1875C10 36.67 10.42 36.25 10.9375 36.25H22.8125C23.33 36.25 23.75 36.67 23.75 37.1875C23.75 37.705 23.33 38.125 22.8125 38.125Z" fill="#C5C7D2"/>
</g>
<rect x="6.5" y="6.5" width="37" height="37" stroke="#97AACD" stroke-dasharray="3 3"/>
<defs>
<clipPath id="clip0">
<rect width="30" height="30" fill="white" transform="translate(10 10)"/>
</clipPath>
</defs>
</svg>
