<svg width="30" height="30" viewBox="0 0 30 30" fill="none" xmlns="http://www.w3.org/2000/svg">
<path d="M30 23.5712C30 24.5507 29.2061 25.3447 28.2267 25.3447H1.77334C0.793945 25.3447 0 24.5506 0 23.5712V6.42873C0 5.44928 0.793945 4.65533 1.77334 4.65533H28.2266C29.2061 4.65533 29.9999 5.44934 29.9999 6.42873L30 23.5712Z" fill="#E7E8E3"/>
<path opacity="0.15" d="M1.26076 23.5712V6.42873C1.26076 5.44928 2.05482 4.65533 3.03422 4.65533H1.77328C0.793945 4.65533 0 5.4494 0 6.42873V23.5712C0 24.5507 0.793945 25.3447 1.77334 25.3447H3.03428C2.05488 25.3447 1.26076 24.5506 1.26076 23.5712Z" fill="#202121"/>
<path d="M8.56445 10.5111H10.7935C11.6143 10.4978 12.5152 10.7113 12.5152 11.7057C12.5152 12.1328 12.2615 12.4798 11.8879 12.6667C12.395 12.8135 12.7088 13.254 12.7088 13.7945C12.7088 14.9291 11.8745 15.276 10.8535 15.276H8.56445V10.5111ZM9.80565 12.3864H10.7668C10.9803 12.3864 11.2739 12.2729 11.2739 11.9326C11.2739 11.5856 11.0269 11.4722 10.7668 11.4722H9.80565V12.3864ZM9.80565 14.2817H10.8001C11.1938 14.2817 11.4674 14.1416 11.4674 13.7478C11.4674 13.3274 11.1738 13.1872 10.8001 13.1872H9.80565V14.2817Z" fill="#006E90"/>
<path d="M14.6775 10.5111H15.9386L17.7205 15.276H16.4258L16.1322 14.4219H14.4705L14.1702 15.276H12.8955L14.6775 10.5111ZM14.7574 13.501H15.8385L15.3113 11.8326H15.298L14.7574 13.501Z" fill="#006E90"/>
<path d="M18.0664 10.5111H19.3412L20.9963 13.4475H21.0095V10.5111H22.1776V15.276H20.9028L19.2477 12.3064H19.2345V15.276H18.0664V10.5111Z" fill="#006E90"/>
<path d="M23.0244 10.5111H24.2657V12.3397L25.834 10.5111H27.3756L25.6137 12.3864L27.5959 15.2761H26.0544L24.773 13.2741L24.2658 13.808V15.2762H23.0245V10.5111L23.0244 10.5111Z" fill="#006E90"/>
<path d="M5.4425 17.0049H4.46346V19.5509H3.60881V17.0049H2.62988V16.2696H5.4425V17.0049Z" fill="#66CDE7"/>
<path d="M5.81934 16.2696H7.49218C8.07127 16.2696 8.64109 16.5317 8.64109 17.1933C8.64109 17.5472 8.47123 17.8827 8.12646 18.0161V18.0251C8.47568 18.108 8.57669 18.4985 8.60435 18.8111C8.61355 18.9489 8.62744 19.4314 8.74228 19.551H7.89648C7.823 19.4408 7.80924 19.119 7.80004 19.0272C7.77695 18.6962 7.72199 18.3562 7.32215 18.3562H6.67416V19.551H5.81934V16.2696ZM6.67433 17.6942H7.39105C7.64845 17.6942 7.78632 17.5564 7.78632 17.3083C7.78632 17.0648 7.59332 16.9543 7.35437 16.9543H6.67428C6.67433 16.9543 6.67433 17.6942 6.67433 17.6942Z" fill="#66CDE7"/>
<path d="M10.0289 16.2696H10.8975L12.1245 19.551H11.2328L11.0308 18.9626H9.88639L9.67967 19.551H8.80176L10.0289 16.2696ZM10.0841 18.3285H10.8286L10.4655 17.1794H10.4563L10.0841 18.3285Z" fill="#66CDE7"/>
<path d="M12.3633 16.2696H13.241L14.3808 18.2917H14.3902V16.2696H15.1944V19.551H14.3167L13.1767 17.506H13.1675V19.551H12.3633V16.2696Z" fill="#66CDE7"/>
<path d="M16.4447 18.448C16.4631 18.834 16.7021 18.958 17.0652 18.958C17.3225 18.958 17.5891 18.8661 17.5891 18.6226C17.5891 18.3331 17.1203 18.2779 16.647 18.1445C16.1782 18.0113 15.6864 17.8 15.6864 17.1978C15.6864 16.4809 16.408 16.2005 17.0239 16.2005C17.6764 16.2005 18.3336 16.5175 18.3382 17.2575H17.4834C17.4972 16.9588 17.2168 16.8623 16.9548 16.8623C16.771 16.8623 16.5412 16.9266 16.5412 17.1427C16.5412 17.3954 17.0146 17.4413 17.4925 17.5747C17.966 17.7079 18.4439 17.9285 18.4439 18.5213C18.4439 19.3532 17.7361 19.6198 17.0146 19.6198C16.2609 19.6198 15.5946 19.2888 15.5898 18.4479H16.4447V18.448Z" fill="#66CDE7"/>
<path d="M18.8438 16.2696H21.2612V16.9543H19.6987V17.6254H21.0498V18.287H19.6987V19.551H18.8438V16.2696Z" fill="#66CDE7"/>
<path d="M21.6523 16.2696H24.2673V16.9543H22.5071V17.5289H24.1156V18.1906H22.5071V18.8157H24.3133V19.5509H21.6524L21.6523 16.2696Z" fill="#66CDE7"/>
<path d="M24.7998 16.2696H26.4727C27.0517 16.2696 27.6214 16.5317 27.6214 17.1933C27.6214 17.5472 27.4515 17.8827 27.1068 18.0161V18.0251C27.456 18.108 27.5572 18.4985 27.5847 18.8111C27.594 18.9489 27.6077 19.4314 27.7226 19.551H26.877C26.8033 19.4408 26.7897 19.119 26.7805 19.0272C26.7575 18.6962 26.7024 18.3562 26.3026 18.3562H25.6546V19.551H24.7998V16.2696ZM25.6546 17.6942H26.3716C26.6289 17.6942 26.7667 17.5564 26.7667 17.3083C26.7667 17.0648 26.5739 16.9543 26.3347 16.9543H25.6546V17.6942Z" fill="#66CDE7"/>
<path d="M7.80372 10.5106H2.62988V11.5466H7.80372V10.5106Z" fill="#D92B2B"/>
<path d="M7.80372 14.2401H2.62988V15.276H7.80372V14.2401Z" fill="#D92B2B"/>
<path d="M7.80372 12.375H2.62988V13.4111H7.80372V12.375Z" fill="#D92B2B"/>
</svg>
