<svg width="30" height="22" viewBox="0 0 30 22" fill="none" xmlns="http://www.w3.org/2000/svg">
<path d="M27.6562 0.21875H2.34375C1.05146 0.21875 0 1.27021 0 2.5625V19.4375C0 20.7298 1.05146 21.7812 2.34375 21.7812H27.6562C28.9485 21.7812 30 20.7298 30 19.4375V2.5625C30 1.27021 28.9485 0.21875 27.6562 0.21875Z" fill="#5D647F"/>
<path d="M10.3125 9.59375H4.6875C4.16971 9.59375 3.75 9.17404 3.75 8.65625V4.90625C3.75 4.38846 4.16971 3.96875 4.6875 3.96875H10.3125C10.8303 3.96875 11.25 4.38846 11.25 4.90625V8.65625C11.25 9.17404 10.8303 9.59375 10.3125 9.59375Z" fill="#FFD100"/>
<path d="M7.03125 15.6875H4.6875C4.16971 15.6875 3.75 15.2678 3.75 14.75V14.2812C3.75 13.7635 4.16971 13.3438 4.6875 13.3438H7.03125C7.54904 13.3438 7.96875 13.7635 7.96875 14.2812V14.75C7.96875 15.2678 7.54904 15.6875 7.03125 15.6875Z" fill="#B8BAC0"/>
<path d="M13.125 15.6875H10.7812C10.2635 15.6875 9.84375 15.2678 9.84375 14.75V14.2812C9.84375 13.7635 10.2635 13.3438 10.7812 13.3438H13.125C13.6428 13.3438 14.0625 13.7635 14.0625 14.2812V14.75C14.0625 15.2678 13.6428 15.6875 13.125 15.6875Z" fill="#B8BAC0"/>
<path d="M19.2188 15.6875H16.875C16.3572 15.6875 15.9375 15.2678 15.9375 14.75V14.2812C15.9375 13.7635 16.3572 13.3438 16.875 13.3438H19.2188C19.7365 13.3438 20.1562 13.7635 20.1562 14.2812V14.75C20.1562 15.2678 19.7365 15.6875 19.2188 15.6875Z" fill="#B8BAC0"/>
<path d="M25.3125 15.6875H22.9688C22.451 15.6875 22.0312 15.2678 22.0312 14.75V14.2812C22.0312 13.7635 22.451 13.3438 22.9688 13.3438H25.3125C25.8303 13.3438 26.25 13.7635 26.25 14.2812V14.75C26.25 15.2678 25.8303 15.6875 25.3125 15.6875Z" fill="#B8BAC0"/>
<path d="M13.5938 18.5H4.21875C3.95965 18.5 3.75 18.2901 3.75 18.0312C3.75 17.7724 3.95965 17.5625 4.21875 17.5625H13.5938C13.8529 17.5625 14.0625 17.7724 14.0625 18.0312C14.0625 18.2901 13.8529 18.5 13.5938 18.5Z" fill="#8A8895"/>
<path d="M19.6875 18.5H15.4688C15.2096 18.5 15 18.2901 15 18.0312C15 17.7724 15.2096 17.5625 15.4688 17.5625H19.6875C19.9466 17.5625 20.1562 17.7724 20.1562 18.0312C20.1562 18.2901 19.9466 18.5 19.6875 18.5Z" fill="#8A8895"/>
<path d="M21.5621 8.65637C21.0471 9.2317 20.2987 9.59375 19.4658 9.59375C17.9125 9.59375 16.6533 8.33457 16.6533 6.78125C16.6533 5.22793 17.9125 3.96875 19.4658 3.96875C20.2986 3.96875 21.0469 4.33068 21.5618 4.90584" fill="#FF4F19"/>
<path d="M11.25 7.25H6.5625V6.3125H11.25V5.375H6.5625V3.96875H5.625V9.59375H6.5625V8.1875H11.25V7.25Z" fill="#FF9500"/>
<path d="M23.4375 9.59375C24.9908 9.59375 26.25 8.33455 26.25 6.78125C26.25 5.22795 24.9908 3.96875 23.4375 3.96875C21.8842 3.96875 20.625 5.22795 20.625 6.78125C20.625 8.33455 21.8842 9.59375 23.4375 9.59375Z" fill="#FFD100"/>
</svg>
