<svg width="13" height="14" viewBox="0 0 13 14" fill="none" xmlns="http://www.w3.org/2000/svg">
<path fill-rule="evenodd" clip-rule="evenodd" d="M9.19991 8.81603L12.5669 12.1831L11.6831 13.0669L8.31603 9.69991C7.46935 10.3581 6.40544 10.75 5.25 10.75C2.48858 10.75 0.25 8.51142 0.25 5.75C0.25 2.98858 2.48858 0.75 5.25 0.75C8.01142 0.75 10.25 2.98858 10.25 5.75C10.25 6.90544 9.85807 7.96935 9.19991 8.81603ZM5.25 9.5C7.32107 9.5 9 7.82107 9 5.75C9 3.67893 7.32107 2 5.25 2C3.17893 2 1.5 3.67893 1.5 5.75C1.5 7.82107 3.17893 9.5 5.25 9.5Z" fill="#4368E0"/>
</svg>
