<svg width="12" height="12" viewBox="0 0 12 12" fill="none" xmlns="http://www.w3.org/2000/svg">
<path fill-rule="evenodd" clip-rule="evenodd" d="M2.80072 3.50786L0.646447 1.35359L1.35355 0.646484L11.3536 10.6465L10.6464 11.3536L5.79289 6.50004H3.5V5.50004H4.79289L3.79289 4.50004H3C2.17157 4.50004 1.5 5.17161 1.5 6.00004C1.5 6.82846 2.17157 7.50004 3 7.50004H5V8.50004H3C1.61929 8.50004 0.5 7.38075 0.5 6.00004C0.5 4.6864 1.51318 3.60941 2.80072 3.50786ZM10.2643 8.15724L9.516 7.40893C10.0902 7.19856 10.5 6.64715 10.5 6.00004C10.5 5.17161 9.82843 4.50004 9 4.50004H7V3.50004H9C10.3807 3.50004 11.5 4.61933 11.5 6.00004C11.5 6.91947 11.0037 7.72298 10.2643 8.15724Z" fill="white"/>
</svg>
