<svg width="64" height="64" viewBox="0 0 64 64" fill="none" xmlns="http://www.w3.org/2000/svg">
<circle cx="32" cy="32" r="32" fill="#5E81F4"/>
<path d="M21.2539 27.1333C28.6881 27.1333 36.0189 27.1333 43.4531 27.1333C43.3498 27.2366 43.3498 27.3398 43.2466 27.3398C40.7685 30.6439 38.2905 33.9479 35.8124 37.252C35.7092 37.4585 35.6059 37.5618 35.6059 37.7683C35.6059 39.2138 35.6059 40.7626 35.6059 42.2081C35.6059 42.3113 35.6059 42.5178 35.6059 42.6211C35.5027 42.9309 35.3994 43.2406 34.9864 43.3439C33.4376 43.9634 31.7856 44.5829 30.2368 45.2024C29.7206 45.4089 29.1011 44.9959 28.9978 44.4796C28.9978 44.3764 28.9978 44.1699 28.9978 44.0666C28.9978 42.0016 28.9978 39.9365 28.9978 37.7683C28.9978 37.5618 28.8946 37.3552 28.7913 37.252C26.3133 34.0512 23.9385 30.7471 21.5637 27.5463C21.4604 27.3398 21.3572 27.2366 21.2539 27.1333Z" fill="white"/>
<path d="M32.4048 19.6992C36.2251 19.6992 40.0455 19.6992 43.8658 19.6992C44.0723 19.6992 44.382 19.8025 44.5886 19.9057C44.8983 20.1122 45.0016 20.422 45.0016 20.7317C45.0016 21.7642 45.0016 22.9 45.0016 23.9325C45.0016 24.552 44.5886 24.9651 43.8658 24.9651C42.6268 24.9651 41.3877 24.9651 40.1487 24.9651C33.7471 24.9651 27.3455 24.9651 20.9438 24.9651C20.8406 24.9651 20.7373 24.9651 20.6341 24.9651C19.9113 24.9651 19.6016 24.552 19.6016 23.8293C19.6016 22.7968 19.6016 21.7642 19.6016 20.7317C19.6016 20.009 20.0146 19.5959 20.7373 19.5959C24.6609 19.6992 28.5845 19.6992 32.4048 19.6992Z" fill="white"/>
</svg>
