<svg width="16" height="16" viewBox="0 0 16 16" fill="none" xmlns="http://www.w3.org/2000/svg">
<g clip-path="url(#clip0)">
<path d="M11.666 1.27808C10.9153 1.28975 10.181 1.49931 9.53716 1.88559C8.89336 2.27187 8.36289 2.82119 7.99932 3.47808C7.63575 2.82119 7.10528 2.27187 6.46148 1.88559C5.81768 1.49931 5.08335 1.28975 4.33265 1.27808C3.13595 1.33007 2.00846 1.85358 1.19651 2.73423C0.384561 3.61488 -0.0458459 4.78109 -0.000678848 5.97808C-0.000678848 9.00941 3.18999 12.3201 5.86599 14.5647C6.46347 15.0668 7.21889 15.3421 7.99932 15.3421C8.77975 15.3421 9.53517 15.0668 10.1327 14.5647C12.8087 12.3201 15.9993 9.00941 15.9993 5.97808C16.0445 4.78109 15.6141 3.61488 14.8021 2.73423C13.9902 1.85358 12.8627 1.33007 11.666 1.27808ZM9.27599 13.5447C8.91864 13.8457 8.46649 14.0107 7.99932 14.0107C7.53215 14.0107 7.08 13.8457 6.72265 13.5447C3.29732 10.6707 1.33265 7.91341 1.33265 5.97808C1.28708 5.13455 1.5769 4.30723 2.1389 3.67654C2.70089 3.04586 3.48948 2.66298 4.33265 2.61141C5.17583 2.66298 5.96441 3.04586 6.52641 3.67654C7.08841 4.30723 7.37823 5.13455 7.33265 5.97808C7.33265 6.15489 7.40289 6.32446 7.52792 6.44948C7.65294 6.57451 7.82251 6.64474 7.99932 6.64474C8.17613 6.64474 8.3457 6.57451 8.47072 6.44948C8.59575 6.32446 8.66599 6.15489 8.66599 5.97808C8.62041 5.13455 8.91023 4.30723 9.47223 3.67654C10.0342 3.04586 10.8228 2.66298 11.666 2.61141C12.5092 2.66298 13.2977 3.04586 13.8597 3.67654C14.4217 4.30723 14.7116 5.13455 14.666 5.97808C14.666 7.91341 12.7013 10.6707 9.27599 13.5421V13.5447Z" fill="#5E81F4"/>
</g>
<defs>
<clipPath id="clip0">
<rect width="16" height="16" fill="white"/>
</clipPath>
</defs>
</svg>
