<svg width="64" height="64" viewBox="0 0 64 64" fill="none" xmlns="http://www.w3.org/2000/svg">
<circle cx="32" cy="32" r="32" fill="#5E81F4"/>
<path d="M46.8566 16H43.5261C42.8947 16 42.3828 16.5118 42.3828 17.1433C42.3828 17.7748 42.8947 18.2866 43.5261 18.2866H45.7133V20.4738C45.7133 21.1053 46.2252 21.6171 46.8566 21.6171C47.4881 21.6171 48 21.1053 48 20.4738V17.1433C48 16.5118 47.4881 16 46.8566 16V16Z" fill="white"/>
<path d="M46.8566 36.1313C46.2252 36.1313 45.7133 36.6432 45.7133 37.2747V39.4619H43.5261C42.8947 39.4619 42.3828 39.9737 42.3828 40.6052C42.3828 41.2367 42.8947 41.7485 43.5261 41.7485H46.8566C47.4881 41.7485 48 41.2367 48 40.6052V37.2747C48 36.6432 47.4881 36.1313 46.8566 36.1313Z" fill="white"/>
<path d="M23.3933 21.6171C24.0248 21.6171 24.5366 21.1053 24.5366 20.4738V18.2866H26.7238C27.3553 18.2866 27.8671 17.7748 27.8671 17.1433C27.8671 16.5118 27.3553 16 26.7238 16H23.3933C22.7618 16 22.25 16.5118 22.25 17.1433V20.4738C22.25 21.1053 22.7618 21.6171 23.3933 21.6171Z" fill="white"/>
<path d="M28.5353 32.7671L16.6673 43.973C15.9233 44.717 15.9233 45.9226 16.6673 46.6666C17.4113 47.4106 18.617 47.4106 19.361 46.6666L31.2289 35.4607L30.498 33.498L28.5353 32.7671Z" fill="white"/>
<path d="M44.4699 31.2807L41.9398 27.3617C41.7655 27.0903 41.7128 26.7573 41.7965 26.4454L42.9954 21.9778C43.1549 21.3831 42.6105 20.8388 42.0158 20.9986L37.5488 22.198C37.2372 22.2818 36.904 22.2291 36.6328 22.0547L32.7135 19.5246C32.1949 19.1899 31.5084 19.5443 31.4814 20.1612L31.2774 24.7703C31.2629 25.099 31.1082 25.4046 30.8522 25.6111L27.2086 28.5432C26.7255 28.932 26.8497 29.6988 27.4308 29.9152L30.3118 30.989C32.5851 31.8356 32.1598 31.4117 33.0055 33.6827L34.0793 36.5637C34.2958 37.1448 35.0625 37.269 35.4513 36.7859L38.3834 33.1424C38.5899 32.8863 38.8955 32.7316 39.2242 32.7171L43.8333 32.5132C44.4503 32.4858 44.8046 31.7997 44.4699 31.2807Z" fill="white"/>
</svg>
