<svg width="21" height="20" viewBox="0 0 21 20" fill="none" xmlns="http://www.w3.org/2000/svg">
    <path d="M19.9777 1.91838C19.9366 1.16366 19.3363 0.563489 18.5816 0.522298C17.0587 0.439099 14.0787 0.520034 11.2291 1.9939C9.77649 2.74529 8.24016 4.01921 7.0141 5.48904C6.999 5.50714 6.9843 5.52537 6.96931 5.54351L4.18685 5.75845C3.72885 5.79385 3.3209 6.03391 3.06759 6.41703L1.1693 9.28824C0.977187 9.57881 0.946646 9.94244 1.08755 10.2609C1.22849 10.5795 1.51809 10.8015 1.86228 10.8548L4.20652 11.2179C4.19824 11.2635 4.18993 11.309 4.18232 11.3546C4.10428 11.8214 4.25895 12.3014 4.59613 12.6385L7.86146 15.9039C8.141 16.1834 8.51874 16.3375 8.90579 16.3375C8.9855 16.3375 9.06566 16.3309 9.14544 16.3176C9.19101 16.31 9.23654 16.3017 9.28211 16.2934L9.64519 18.6377C9.69852 18.9819 9.92051 19.2715 10.239 19.4124C10.3715 19.4711 10.5117 19.5 10.6513 19.5C10.8474 19.5 11.0421 19.4429 11.2117 19.3307L14.083 17.4324C14.4661 17.179 14.7061 16.7711 14.7415 16.3131L14.9564 13.5307C14.9745 13.5157 14.9928 13.501 15.0109 13.4859C16.4808 12.2599 17.7547 10.7236 18.5061 9.27087C19.98 6.42122 20.0608 3.44116 19.9777 1.91838V1.91838ZM13.469 16.5037L10.7225 18.3196L10.3686 16.0349C11.5294 15.6936 12.6777 15.147 13.7716 14.4147L13.6316 16.2273C13.6229 16.3404 13.5636 16.4412 13.469 16.5037V16.5037ZM8.64866 15.1167L5.38329 11.8513C5.29998 11.768 5.26146 11.6509 5.28035 11.5381C5.37743 10.9576 5.52828 10.405 5.71501 9.88444L10.6145 14.7839C9.98927 15.0079 9.42925 15.1414 8.96186 15.2196C8.8489 15.2384 8.73197 15.2 8.64866 15.1167V15.1167ZM4.27261 6.86842L6.08518 6.72841C5.35286 7.82235 4.80624 8.97062 4.46495 10.1314L2.18035 9.77756L3.99626 7.03104C4.05882 6.93641 4.15958 6.87714 4.27261 6.86842V6.86842ZM14.2979 12.631C13.3986 13.3811 12.5257 13.9236 11.7211 14.3162L6.18359 8.77869C6.69786 7.72835 7.32549 6.85373 7.86899 6.20216C9.00361 4.84192 10.4148 3.66849 11.7406 2.98271C14.3559 1.62997 17.1113 1.55713 18.521 1.63387C18.7076 1.64404 18.856 1.79244 18.8662 1.97906C18.943 3.38876 18.87 6.14413 17.5173 8.7594C16.8315 10.0852 15.6581 11.4964 14.2979 12.631Z" fill="#C5C7D2" stroke="#C5C7D2" stroke-width="0.4"/>
    <path d="M14.0625 8.8125C14.6706 8.81244 15.2789 8.58084 15.7419 8.11767C16.1905 7.66888 16.4375 7.07217 16.4375 6.43751C16.4375 5.80284 16.1905 5.20613 15.7419 4.75735C14.8159 3.83085 13.3091 3.83092 12.3831 4.75735C11.9345 5.20613 11.6875 5.80284 11.6875 6.43751C11.6875 7.07217 11.9346 7.66888 12.3831 8.11767C12.8462 8.58093 13.4542 8.81256 14.0625 8.8125ZM13.0548 5.4294C13.3326 5.15145 13.6975 5.01249 14.0625 5.01249C14.4274 5.01249 14.7923 5.15145 15.0701 5.4294C15.3392 5.69867 15.4874 6.05668 15.4874 6.43748C15.4874 6.81827 15.3392 7.17631 15.0701 7.44559C14.5145 8.00146 13.6104 8.00143 13.0548 7.44559C12.7857 7.17631 12.6374 6.8183 12.6374 6.43751C12.6374 6.05671 12.7857 5.69867 13.0548 5.4294Z" fill="#C5C7D2" stroke="#C5C7D2" stroke-width="0.3"/>
    <path d="M1.99305 15.6485C2.16623 15.6485 2.33941 15.6044 2.47149 15.5163L4.36541 14.3326C4.62967 14.1564 4.62967 13.8708 4.36541 13.6946C4.1012 13.5185 3.67273 13.5185 3.40847 13.6946L1.5146 14.8784C1.25034 15.0545 1.25034 15.3402 1.5146 15.5163C1.64669 15.6044 1.81987 15.6485 1.99305 15.6485Z" fill="#C5C7D2" stroke="#C5C7D2" stroke-width="0.4"/>
    <path d="M5.58223 14.9181C5.35815 14.694 4.99476 14.694 4.77064 14.9181L2.19543 17.4933C1.97131 17.7174 1.97131 18.0808 2.19543 18.3049C2.3075 18.417 2.45433 18.473 2.60121 18.473C2.74809 18.473 2.89496 18.417 3.00698 18.3049L5.58219 15.7297C5.80635 15.5056 5.80635 15.1422 5.58223 14.9181Z" fill="#C5C7D2" stroke="#C5C7D2" stroke-width="0.4"/>
    <path d="M6.16812 16.1357L5.1087 17.9595C4.93253 18.2237 4.93253 18.6521 5.1087 18.9164C5.19679 19.0485 5.31224 19.1146 5.42767 19.1146C5.54309 19.1146 5.65857 19.0486 5.74663 18.9164L6.80605 17.0926C6.98222 16.8284 6.98222 16.3999 6.80605 16.1357C6.62991 15.8714 6.34427 15.8714 6.16812 16.1357Z" fill="#C5C7D2" stroke="#C5C7D2" stroke-width="0.4"/>
</svg>
