<svg width="16" height="16" viewBox="0 0 16 16" fill="none" xmlns="http://www.w3.org/2000/svg">
<g >
<path d="M12.6667 0.666748H3.33333C2.4496 0.667807 1.60237 1.01934 0.97748 1.64423C0.352588 2.26912 0.00105857 3.11635 0 4.00008L0 9.33341C0.00105857 10.2171 0.352588 11.0644 0.97748 11.6893C1.60237 12.3142 2.4496 12.6657 3.33333 12.6667H7.33333V14.0001H4.66667C4.48986 14.0001 4.32029 14.0703 4.19526 14.1953C4.07024 14.3204 4 14.4899 4 14.6667C4 14.8436 4.07024 15.0131 4.19526 15.1381C4.32029 15.2632 4.48986 15.3334 4.66667 15.3334H11.3333C11.5101 15.3334 11.6797 15.2632 11.8047 15.1381C11.9298 15.0131 12 14.8436 12 14.6667C12 14.4899 11.9298 14.3204 11.8047 14.1953C11.6797 14.0703 11.5101 14.0001 11.3333 14.0001H8.66667V12.6667H12.6667C13.5504 12.6657 14.3976 12.3142 15.0225 11.6893C15.6474 11.0644 15.9989 10.2171 16 9.33341V4.00008C15.9989 3.11635 15.6474 2.26912 15.0225 1.64423C14.3976 1.01934 13.5504 0.667807 12.6667 0.666748ZM3.33333 2.00008H12.6667C13.1971 2.00008 13.7058 2.21079 14.0809 2.58587C14.456 2.96094 14.6667 3.46965 14.6667 4.00008V8.66674H1.33333V4.00008C1.33333 3.46965 1.54405 2.96094 1.91912 2.58587C2.29419 2.21079 2.8029 2.00008 3.33333 2.00008ZM12.6667 11.3334H3.33333C2.92116 11.3317 2.51958 11.2027 2.18353 10.964C1.84749 10.7253 1.59339 10.3887 1.456 10.0001H14.544C14.4066 10.3887 14.1525 10.7253 13.8165 10.964C13.4804 11.2027 13.0788 11.3317 12.6667 11.3334Z" fill="#5E81F4"/>
</g>
</svg>
