<svg width="64" height="64" viewBox="0 0 64 64" fill="none" xmlns="http://www.w3.org/2000/svg">
<circle cx="32" cy="32" r="32" fill="#5E81F4"/>
<path d="M35.8086 38.0938H38.8555V41.1406H35.8086V38.0938Z" fill="white"/>
<path d="M25.1445 38.0938H31.2383V41.1406H25.1445V38.0938Z" fill="white"/>
<path d="M19 42.6641C19 43.9241 20.0251 45 21.2852 45H42.7148C43.9749 45 45 43.9241 45 42.6641V26.6172H19V42.6641ZM40.3789 41.9023C40.3789 42.3234 40.0382 42.6641 39.6172 42.6641H35.0469C34.6258 42.6641 34.2852 42.3234 34.2852 41.9023V37.332C34.2852 36.911 34.6258 36.5703 35.0469 36.5703H39.6172C40.0382 36.5703 40.3789 36.911 40.3789 37.332V41.9023ZM23.6211 29.7148C23.6211 29.2938 23.9618 28.9531 24.3828 28.9531H39.6172C40.0382 28.9531 40.3789 29.2938 40.3789 29.7148V34.2852C40.3789 34.7062 40.0382 35.0469 39.6172 35.0469H24.3828C23.9618 35.0469 23.6211 34.7062 23.6211 34.2852V29.7148ZM23.6211 37.332C23.6211 36.911 23.9618 36.5703 24.3828 36.5703H32C32.421 36.5703 32.7617 36.911 32.7617 37.332V41.9023C32.7617 42.3234 32.421 42.6641 32 42.6641H24.3828C23.9618 42.6641 23.6211 42.3234 23.6211 41.9023V37.332Z" fill="white"/>
<path d="M25.1445 30.4766H38.8555V33.5234H25.1445V30.4766Z" fill="white"/>
<path d="M42.7148 19H21.2852C20.0251 19 19 20.0251 19 21.2852V25.0938H45V21.2852C45 20.0251 43.9749 19 42.7148 19ZM24.3828 22.8086C23.9621 22.8086 23.6211 22.4675 23.6211 22.0469C23.6211 21.6261 23.9621 21.2852 24.3828 21.2852C24.8035 21.2852 25.1445 21.6261 25.1445 22.0469C25.1445 22.4675 24.8035 22.8086 24.3828 22.8086ZM27.4297 22.8086C27.009 22.8086 26.668 22.4675 26.668 22.0469C26.668 21.6261 27.009 21.2852 27.4297 21.2852C27.8504 21.2852 28.1914 21.6261 28.1914 22.0469C28.1914 22.4675 27.8504 22.8086 27.4297 22.8086ZM30.4766 22.8086C30.0559 22.8086 29.7148 22.4675 29.7148 22.0469C29.7148 21.6261 30.0559 21.2852 30.4766 21.2852C30.8972 21.2852 31.2383 21.6261 31.2383 22.0469C31.2383 22.4675 30.8972 22.8086 30.4766 22.8086Z" fill="white"/>
</svg>
