<svg width="26" height="25" viewBox="0 0 26 25" fill="none" xmlns="http://www.w3.org/2000/svg">
<path fill-rule="evenodd" clip-rule="evenodd" d="M4.66683 2.08333H21.3335C22.4841 2.08333 23.4168 3.01607 23.4168 4.16666V8.33333C23.4168 9.48392 22.4841 10.4167 21.3335 10.4167H4.66683C3.51624 10.4167 2.5835 9.48392 2.5835 8.33333V4.16666C2.5835 3.01607 3.51624 2.08333 4.66683 2.08333ZM4.66683 4.16666V8.33333H21.3335V4.16666H4.66683ZM23.4168 16.6667V18.75H2.5835V16.6667H23.4168ZM23.4168 20.8333V22.9167H2.5835V20.8333H23.4168Z" fill="#97AACD"/>
<path d="M23.4168 18.75V16.6667H2.5835V18.75H23.4168Z" fill="#97AACD"/>
<path fill-rule="evenodd" clip-rule="evenodd" d="M23.4168 12.5V14.5833H2.5835V12.5H23.4168Z" fill="#97AACD"/>
</svg>