<svg width="24" height="23" viewBox="0 0 24 23" fill="none" xmlns="http://www.w3.org/2000/svg">
<path fill-rule="evenodd" clip-rule="evenodd" d="M11.4602 9.48723C11.6323 9.44121 11.8132 9.41667 11.9998 9.41667C13.1504 9.41667 14.0832 10.3494 14.0832 11.5C14.0832 12.6506 13.1504 13.5833 11.9998 13.5833C10.8492 13.5833 9.9165 12.6506 9.9165 11.5C9.9165 11.3134 9.94104 11.1325 9.98707 10.9604L6.05493 7.02824L7.52807 5.5551L11.4602 9.48723ZM13.0415 2.18222V6.29167H10.9582V0.0416679H11.9998C18.3281 0.0416679 23.4582 5.17174 23.4582 11.5C23.4582 17.8283 18.3281 22.9583 11.9998 22.9583C5.67157 22.9583 0.541504 17.8283 0.541504 11.5C0.541504 8.4131 1.76925 5.51811 3.91277 3.38256L5.38316 4.85844C3.62813 6.60695 2.62484 8.97268 2.62484 11.5C2.62484 16.6777 6.82217 20.875 11.9998 20.875C17.1775 20.875 21.3748 16.6777 21.3748 11.5C21.3748 6.67442 17.729 2.70039 13.0415 2.18222Z" fill="#97AACD"/>
</svg>