<svg width="26" height="25" viewBox="0 0 26 25" fill="none" xmlns="http://www.w3.org/2000/svg">
<rect x="3" y="7.5" width="18.75" height="8.75" fill="#97AACD"/>
<path fill-rule="evenodd" clip-rule="evenodd" d="M3.83333 6.25H21.75C22.9006 6.25 23.8333 7.18274 23.8333 8.33333V15.4167C23.8333 16.5673 22.9006 17.5 21.75 17.5H3.83333C2.68274 17.5 1.75 16.5673 1.75 15.4167V8.33333C1.75 7.18274 2.68274 6.25 3.83333 6.25ZM3.83333 8.33333V15.4167H21.75V8.33333H3.83333Z" fill="#97AACD"/>
<path fill-rule="evenodd" clip-rule="evenodd" d="M14.1364 10.1989V9.0625H16.4091C17.9781 9.0625 19.25 10.3344 19.25 11.9034C19.25 13.4724 17.9781 14.7443 16.4091 14.7443H14.1364V13.608H16.4091C17.3505 13.608 18.1136 12.8448 18.1136 11.9034C18.1136 10.962 17.3505 10.1989 16.4091 10.1989H14.1364ZM11.8636 13.608V14.7443H9.59091C8.02192 14.7443 6.75 13.4724 6.75 11.9034C6.75 10.3344 8.02192 9.0625 9.59091 9.0625H11.8636V10.1989H9.59091C8.64951 10.1989 7.88636 10.962 7.88636 11.9034C7.88636 12.8448 8.64951 13.608 9.59091 13.608H11.8636ZM10.1591 12.4716V11.3352H15.8409V12.4716H10.1591Z" fill="white"/>
</svg>