<svg width="24" height="11" viewBox="0 0 24 11" fill="none" xmlns="http://www.w3.org/2000/svg">
<path fill-rule="evenodd" clip-rule="evenodd" d="M14.0832 2.375V0.291664H18.2498C21.1263 0.291664 23.4582 2.62351 23.4582 5.5C23.4582 8.37648 21.1263 10.7083 18.2498 10.7083H14.0832V8.625H18.2498C19.9757 8.625 21.3748 7.22589 21.3748 5.5C21.3748 3.77411 19.9757 2.375 18.2498 2.375H14.0832ZM9.9165 8.625V10.7083H5.74984C2.87335 10.7083 0.541504 8.37648 0.541504 5.5C0.541504 2.62351 2.87335 0.291664 5.74984 0.291664H9.9165V2.375H5.74984C4.02395 2.375 2.62484 3.77411 2.62484 5.5C2.62484 7.22589 4.02395 8.625 5.74984 8.625H9.9165ZM6.7915 6.54166V4.45833H17.2082V6.54166H6.7915Z" fill="#97AACD"/>
</svg>