<svg width="22" height="21" viewBox="0 0 22 21" fill="none" xmlns="http://www.w3.org/2000/svg">
<path fill-rule="evenodd" clip-rule="evenodd" d="M15.1666 14.6666V11.5416H17.25V14.6666H20.375V16.75H17.25V19.875H15.1666V16.75H12.0416V14.6666H15.1666ZM2.66665 11.5416H7.87498C9.02557 11.5416 9.95831 12.4744 9.95831 13.625V18.8333C9.95831 19.9839 9.02557 20.9166 7.87498 20.9166H2.66665C1.51605 20.9166 0.583313 19.9839 0.583313 18.8333V13.625C0.583313 12.4744 1.51605 11.5416 2.66665 11.5416ZM2.66665 13.625V18.8333H7.87498V13.625H2.66665ZM2.66665 0.083313H7.87498C9.02557 0.083313 9.95831 1.01605 9.95831 2.16665V7.37498C9.95831 8.52557 9.02557 9.45831 7.87498 9.45831H2.66665C1.51605 9.45831 0.583313 8.52557 0.583313 7.37498V2.16665C0.583313 1.01605 1.51605 0.083313 2.66665 0.083313ZM2.66665 2.16665V7.37498H7.87498V2.16665H2.66665ZM14.125 0.083313H19.3333C20.4839 0.083313 21.4166 1.01605 21.4166 2.16665V7.37498C21.4166 8.52557 20.4839 9.45831 19.3333 9.45831H14.125C12.9744 9.45831 12.0416 8.52557 12.0416 7.37498V2.16665C12.0416 1.01605 12.9744 0.083313 14.125 0.083313ZM14.125 2.16665V7.37498H19.3333V2.16665H14.125Z" fill="#97AACD"/>
</svg>
