<svg width="22" height="21" viewBox="0 0 22 21" fill="none" xmlns="http://www.w3.org/2000/svg">
<path fill-rule="evenodd" clip-rule="evenodd" d="M20.3752 0.0833435V5.29168C20.3752 6.44227 19.4424 7.37501 18.2918 7.37501H3.7085C2.5579 7.37501 1.62516 6.44227 1.62516 5.29168V0.0833435H3.7085V5.29168H18.2918V0.0833435H20.3752ZM20.3752 20.9167H18.2918V15.7083H3.7085V20.9167H1.62516V15.7083C1.62516 14.5578 2.5579 13.625 3.7085 13.625H18.2918C19.4424 13.625 20.3752 14.5578 20.3752 15.7083V20.9167ZM2.66683 9.45834V11.5417H0.583496V9.45834H2.66683ZM5.79183 9.45834V11.5417H3.7085V9.45834H5.79183ZM8.91683 9.45834V11.5417H6.8335V9.45834H8.91683ZM12.0418 9.45834V11.5417H9.9585V9.45834H12.0418ZM15.1668 9.45834V11.5417H13.0835V9.45834H15.1668ZM18.2918 9.45834V11.5417H16.2085V9.45834H18.2918ZM21.4168 9.45834V11.5417H19.3335V9.45834H21.4168Z" fill="#97AACD"/>
</svg>