<svg width="23" height="22" viewBox="0 0 23 22" fill="none" xmlns="http://www.w3.org/2000/svg">
<path fill-rule="evenodd" clip-rule="evenodd" d="M2.47719 8.58333H14.5226C15.5686 8.58333 16.4166 9.51607 16.4166 10.6667V12.75C16.4166 13.9006 15.5686 14.8333 14.5226 14.8333H2.47719C1.4312 14.8333 0.583252 13.9006 0.583252 12.75V10.6667C0.583252 9.51607 1.4312 8.58333 2.47719 8.58333ZM2.66659 10.6667V12.75H14.3333V10.6667H2.66659ZM2.47719 0.25H19.5226C20.5686 0.25 21.4166 1.18274 21.4166 2.33333V4.41667C21.4166 5.56726 20.5686 6.5 19.5226 6.5H2.47719C1.4312 6.5 0.583252 5.56726 0.583252 4.41667V2.33333C0.583252 1.18274 1.4312 0.25 2.47719 0.25ZM2.66659 2.33333V4.41667H19.3333V2.33333H2.66659Z" fill="#97AACD"/>
<path d="M13.5 19.0116H18.1388L16.831 20.3194L18.2616 21.75L22.0116 18L18.2616 14.25L16.831 15.6806L18.1388 16.9884H13.5V19.0116Z" fill="#97AACD"/>
</svg>
