<svg width="26" height="25" viewBox="0 0 26 25" fill="none" xmlns="http://www.w3.org/2000/svg">
<path fill-rule="evenodd" clip-rule="evenodd" d="M4.66683 16.2352L8.8335 12.0685L12.4793 15.7144L19.2502 8.94352L21.3335 11.0269V4.16666H4.66683V16.2352ZM4.66683 19.1815V20.8333H14.652L8.8335 15.0148L4.66683 19.1815ZM17.5983 20.8333H21.3335V13.9731L19.2502 11.8898L13.9525 17.1875L17.5983 20.8333ZM4.66683 2.08333H21.3335C22.4841 2.08333 23.4168 3.01607 23.4168 4.16666V20.8333C23.4168 21.9839 22.4841 22.9167 21.3335 22.9167H4.66683C3.51624 22.9167 2.5835 21.9839 2.5835 20.8333V4.16666C2.5835 3.01607 3.51624 2.08333 4.66683 2.08333ZM11.9585 5.20833C13.6844 5.20833 15.0835 6.60744 15.0835 8.33333C15.0835 10.0592 13.6844 11.4583 11.9585 11.4583C10.2326 11.4583 8.8335 10.0592 8.8335 8.33333C8.8335 6.60744 10.2326 5.20833 11.9585 5.20833ZM11.9585 7.29166C11.3832 7.29166 10.9168 7.75803 10.9168 8.33333C10.9168 8.90863 11.3832 9.375 11.9585 9.375C12.5338 9.375 13.0002 8.90863 13.0002 8.33333C13.0002 7.75803 12.5338 7.29166 11.9585 7.29166Z" fill="#97AACD"/>
</svg>
