<svg width="26" height="26" viewBox="0 0 26 26" fill="none" xmlns="http://www.w3.org/2000/svg">
<path d="M2.82582 5.95201C2.99182 5.74634 3.26915 5.73949 3.44492 5.93373C3.62069 6.12797 3.62655 6.45247 3.46054 6.65585L2.04266 8.3926L3.46054 10.1339C3.62655 10.3396 3.62069 10.6618 3.44492 10.856C3.26915 11.0503 2.99378 11.0434 2.82582 10.8378L1.12084 8.74223C0.960697 8.5457 0.958744 8.23492 1.12084 8.03611L2.82582 5.95201ZM8.87037 12.9561C8.5989 12.9561 8.38017 12.6979 8.38017 12.3825C8.38017 12.0649 8.5989 11.809 8.87037 11.809H13.1592C13.4306 11.809 13.6494 12.0672 13.6494 12.3825C13.6494 12.7002 13.4306 12.9561 13.1592 12.9561H8.87037ZM8.99341 3.86106H17.0046C17.2312 3.86106 17.4382 3.97075 17.5866 4.14442L17.5886 4.14671C17.739 4.32267 17.8308 4.56261 17.8308 4.8277V9.43236C17.8308 9.69744 17.737 9.93967 17.5886 10.1133L17.5866 10.1156C17.4363 10.2916 17.2312 10.399 17.0046 10.399H8.99341C8.76686 10.399 8.55984 10.2893 8.41141 10.1156L8.40946 10.1133C8.25908 9.93739 8.16729 9.69744 8.16729 9.43236V4.82998C8.16729 4.5649 8.26103 4.32267 8.40946 4.14899L8.41141 4.14671C8.55984 3.97075 8.76686 3.86106 8.99341 3.86106ZM16.9578 4.88483H9.04028V9.37751H16.9558V4.88483H16.9578ZM22.5395 6.65814C22.3735 6.45247 22.3793 6.13026 22.5551 5.93601C22.7309 5.74177 23.0062 5.74863 23.1742 5.9543L24.8792 8.04296C25.0413 8.24177 25.0393 8.55256 24.8792 8.74909L23.1742 10.8446C23.0082 11.0503 22.7309 11.0571 22.5551 10.8629C22.3793 10.6686 22.3735 10.3441 22.5395 10.1408L23.9573 8.39945L22.5395 6.65814ZM5.94281 1H20.0572C20.2935 1 20.5083 1.11426 20.6646 1.29707L20.6665 1.29936C20.8228 1.48218 20.9185 1.73355 20.9185 2.01005V14.9922C20.9185 15.2687 20.8208 15.5201 20.6646 15.7029L20.6626 15.7052C20.5064 15.888 20.2915 16 20.0552 16H5.94281C5.70845 16 5.49167 15.8857 5.33543 15.7029L5.33348 15.7006C5.17724 15.5178 5.08154 15.2665 5.08154 14.9899V2.01005C5.08154 1.73355 5.17919 1.48218 5.33543 1.29936L5.33738 1.29707C5.49167 1.11197 5.7065 1 5.94281 1ZM20.0435 2.02148H5.95453V14.9762H20.0455V2.02148H20.0435Z" fill="#97AACD" stroke="#97AACD" stroke-width="0.5"/>
<path d="M3 22.5V20.5H5V22.5H3Z" stroke="#97AACD" stroke-width="3"/>
<path d="M9 22.5V20.5H11V22.5H9Z" stroke="#97AACD" stroke-width="3"/>
<path d="M15 22.5V20.5H17V22.5H15Z" stroke="#97AACD" stroke-width="3"/>
<path d="M21 22.5V20.5H23V22.5H21Z" stroke="#97AACD" stroke-width="3"/>
</svg>
