<svg width="13" height="10" viewBox="0 0 13 10" fill="none" xmlns="http://www.w3.org/2000/svg">
<path fill-rule="evenodd" clip-rule="evenodd" d="M12.75 8.125V9.375H4V8.125H12.75ZM12.75 4.375V5.625H4V4.375H12.75ZM12.75 0.625V1.875H4V0.625H12.75ZM1.5 10C0.809644 10 0.25 9.44035 0.25 8.75C0.25 8.05964 0.809644 7.5 1.5 7.5C2.19036 7.5 2.75 8.05964 2.75 8.75C2.75 9.44035 2.19036 10 1.5 10ZM1.5 6.25C0.809644 6.25 0.25 5.69035 0.25 5C0.25 4.30964 0.809644 3.75 1.5 3.75C2.19036 3.75 2.75 4.30964 2.75 5C2.75 5.69035 2.19036 6.25 1.5 6.25ZM1.5 2.5C0.809644 2.5 0.25 1.94036 0.25 1.25C0.25 0.559644 0.809644 0 1.5 0C2.19036 0 2.75 0.559644 2.75 1.25C2.75 1.94036 2.19036 2.5 1.5 2.5Z" fill="#C5C7D2"/>
</svg>
