<svg width="19" height="20" viewBox="0 0 19 20" fill="none" xmlns="http://www.w3.org/2000/svg">
    <path fill-rule="evenodd" clip-rule="evenodd"
        d="M16.8946 15.5665L15.047 17.4142L12.6821 16.7554L12.0058 17.0343L10.7917 19.1658H8.17955L6.97219 17.027L6.29656 16.7438L3.9319 17.3944L2.08514 15.5476L2.74393 13.1828L2.46494 12.5063L0.333496 11.2913V8.67928L2.47314 7.47195L2.75639 6.79639L2.10575 4.43173L3.95181 2.58567L6.3167 3.24538L6.99243 2.9667L8.20469 0.833328H10.8175L12.0248 2.97297L12.7004 3.25623L15.0647 2.60569L16.9136 4.45196L16.2547 6.81722L16.5335 7.4931L18.6668 8.70537V11.3182L16.5274 12.5254L16.2439 13.2025L16.8946 15.5665ZM14.4842 13.0898L15.2107 11.3547L17.0002 10.3449V9.67526L15.2114 8.65879L14.4953 6.92246L15.0467 4.94304L14.5726 4.46968L12.5872 5.01599L10.8539 4.28924L9.84426 2.49999H9.17458L8.15812 4.28879L6.42163 5.00495L4.44184 4.45267L3.96996 4.92455L4.51616 6.90962L3.78941 8.64291L2.00016 9.65253V10.323L3.78751 11.3418L4.50337 13.0775L3.95185 15.0573L4.42472 15.5302L6.40979 14.984L8.143 15.7107L9.15259 17.4992H9.82294L10.841 15.7119L12.5769 14.9959L14.5567 15.5475L15.0303 15.0738L14.4842 13.0898ZM9.50016 13.3333C7.65921 13.3333 6.16683 11.8409 6.16683 9.99999C6.16683 8.15905 7.65921 6.66666 9.50016 6.66666C11.3411 6.66666 12.8335 8.15905 12.8335 9.99999C12.8335 11.8409 11.3411 13.3333 9.50016 13.3333ZM9.50016 11.6667C10.4206 11.6667 11.1668 10.9205 11.1668 9.99999C11.1668 9.07952 10.4206 8.33333 9.50016 8.33333C8.57969 8.33333 7.8335 9.07952 7.8335 9.99999C7.8335 10.9205 8.57969 11.6667 9.50016 11.6667Z"
        fill="#4368E0" />
</svg>