<svg width="15" height="20" viewBox="0 0 15 20" fill="none" xmlns="http://www.w3.org/2000/svg">
    <path fill-rule="evenodd" clip-rule="evenodd" d="M9.16683 2.49999V4.99999H7.50016V2.49999H5.8335V5.83333H4.16683V2.49999H2.50016V7.49999H12.5002V2.49999H9.16683ZM0.833496 7.49999V0.833328H14.1668V7.49999L14.1668 8.33334C14.1668 9.58333 14.1668 9.58333 14.1668 10.8285C14.1741 12.0971 13.4663 12.4986 11.493 13.0899C10.3363 13.4365 10.0002 13.6269 10.0002 13.75C10.0002 14.3897 10.0587 14.8192 10.1836 15.3187C10.1595 15.2221 10.3018 15.7725 10.3332 15.9191C10.3885 16.1771 10.4168 16.4118 10.4168 16.6667C10.4168 18.0507 9.11489 19.1667 7.50016 19.1667C5.88543 19.1667 4.5835 18.0507 4.5835 16.6667C4.5835 16.4118 4.61183 16.1771 4.6671 15.9191C4.69852 15.7725 4.84086 15.2221 4.81671 15.3187C4.94159 14.8192 5.00016 14.3897 5.00016 13.75C5.00016 13.6261 4.66492 13.4361 3.51071 13.0898C1.53992 12.4986 0.833496 12.0983 0.833496 10.8333V7.49999ZM2.50016 9.16666V10.8333C2.50016 10.9572 2.8354 11.1472 3.98962 11.4935C5.9604 12.0847 6.66683 12.485 6.66683 13.75C6.66683 14.5339 6.58998 15.0975 6.43361 15.7229C6.44853 15.6633 6.3196 16.1618 6.29677 16.2684C6.26466 16.4182 6.25016 16.5383 6.25016 16.6667C6.25016 17.0683 6.75378 17.5 7.50016 17.5C8.24654 17.5 8.75016 17.0683 8.75016 16.6667C8.75016 16.5383 8.73566 16.4182 8.70356 16.2684C8.68073 16.1618 8.5518 15.6633 8.56671 15.7229C8.41034 15.0975 8.3335 14.5339 8.3335 13.75C8.3335 12.4856 9.04124 12.0847 11.011 11.4945L11.0146 11.4934C12.1672 11.148 12.5009 10.9587 12.5002 10.8333C12.5002 9.94596 12.5002 9.68853 12.5002 9.16666H2.50016Z" fill="#4368E0"/>
</svg>