<svg width="18" height="18" viewBox="0 0 18 18" fill="none" xmlns="http://www.w3.org/2000/svg">
    <path fill-rule="evenodd" clip-rule="evenodd" d="M11.5 9.83332H15.6667C16.5872 9.83332 17.3334 10.5795 17.3334 11.5V15.6667C17.3334 16.5871 16.5872 17.3333 15.6667 17.3333H11.5C10.5795 17.3333 9.83335 16.5871 9.83335 15.6667V11.5C9.83335 10.5795 10.5795 9.83332 11.5 9.83332ZM11.5 11.5V15.6667H15.6667V11.5H11.5ZM8.16669 2.33332V15.6667C8.16669 16.5871 7.4205 17.3333 6.50002 17.3333H2.33335C1.41288 17.3333 0.666687 16.5871 0.666687 15.6667V2.33332C0.666687 1.41285 1.41288 0.666656 2.33335 0.666656H6.50002C7.4205 0.666656 8.16669 1.41285 8.16669 2.33332ZM6.50002 2.33332H2.33335V15.6667H6.50002V2.33332ZM11.5 0.666656H15.6667C16.5872 0.666656 17.3334 1.41285 17.3334 2.33332V6.49999C17.3334 7.42046 16.5872 8.16666 15.6667 8.16666H11.5C10.5795 8.16666 9.83335 7.42046 9.83335 6.49999V2.33332C9.83335 1.41285 10.5795 0.666656 11.5 0.666656ZM11.5 2.33332V6.49999H15.6667V2.33332H11.5Z" fill="#4368E0"/>
</svg>