<svg width="19" height="20" viewBox="0 0 19 20" fill="none" xmlns="http://www.w3.org/2000/svg">
    <path fill-rule="evenodd" clip-rule="evenodd" d="M9.50016 19.1667C4.43755 19.1667 0.333496 15.0626 0.333496 10C0.333496 4.9374 4.43755 0.833344 9.50016 0.833344C14.5628 0.833344 18.6668 4.9374 18.6668 10C18.6668 15.0626 14.5628 19.1667 9.50016 19.1667ZM9.50016 17.5C13.6423 17.5 17.0002 14.1421 17.0002 10C17.0002 5.85787 13.6423 2.50001 9.50016 2.50001C5.35803 2.50001 2.00016 5.85787 2.00016 10C2.00016 14.1421 5.35803 17.5 9.50016 17.5ZM10.3335 9.16668H13.6668V10.8333H10.3335V14.1667H8.66683V10.8333H5.3335V9.16668H8.66683V5.83334H10.3335V9.16668Z" fill="#4368E0"/>
</svg>