<svg width="13" height="10" viewBox="0 0 13 10" fill="none" xmlns="http://www.w3.org/2000/svg">
<path fill-rule="evenodd" clip-rule="evenodd" d="M12.75 8.125V9.375H4V8.125H12.75ZM12.75 4.375V5.625H4V4.375H12.75ZM12.75 0.625V1.875H4V0.625H12.75Z" fill="#C5C7D2"/>
<path d="M1.28101 0.636804H1.28734V2.29995H1.76221V0.199951H1.35894L0.799805 0.459085L0.880586 0.827195L1.28101 0.636804Z" fill="#C5C7D2"/>
<path d="M2.26418 5.65225H1.48276V5.64558L1.67335 5.48675C1.9748 5.22056 2.22289 4.94452 2.22289 4.59764C2.22289 4.22218 1.96877 3.94995 1.49896 3.94995C1.22196 3.94995 0.978008 4.04493 0.825217 4.16214L0.962125 4.50584C1.06981 4.42643 1.22609 4.33717 1.40334 4.33717C1.6419 4.33717 1.74037 4.47122 1.74037 4.63862C1.7372 4.88067 1.51802 5.11192 1.06409 5.51852L0.799805 5.75644V6.04995H2.26418V5.65225Z" fill="#C5C7D2"/>
<path d="M1.79399 8.68402V8.67789C2.04423 8.59294 2.16597 8.42091 2.16597 8.20533C2.16597 7.92688 1.92524 7.69995 1.49377 7.69995C1.2279 7.69995 0.98748 7.77416 0.86543 7.85205L0.96264 8.19643C1.04391 8.14614 1.2187 8.075 1.3843 8.075C1.58792 8.075 1.68513 8.16485 1.68513 8.2869C1.68513 8.45924 1.48457 8.52118 1.32511 8.52118H1.14112V8.86188H1.33462C1.541 8.86188 1.74155 8.95296 1.74155 9.15597C1.74155 9.30623 1.61613 9.42491 1.36927 9.42491C1.17546 9.42491 0.981347 9.34702 0.897015 9.29979L0.799805 9.65981C0.919095 9.73095 1.14112 9.79995 1.40362 9.79995C1.91942 9.79995 2.23558 9.53776 2.23558 9.18173C2.23558 8.91217 2.03871 8.72695 1.79399 8.68402Z" fill="#C5C7D2"/>
</svg>
