<svg width="28" height="28" viewBox="0 0 28 28" fill="none" xmlns="http://www.w3.org/2000/svg">
<path fill-rule="evenodd" clip-rule="evenodd" d="M14 27.75C6.40608 27.75 0.25 21.5939 0.25 14C0.25 6.40609 6.40608 0.250005 14 0.250005C21.5939 0.250005 27.75 6.40609 27.75 14C27.75 21.5939 21.5939 27.75 14 27.75ZM14 25.25C20.2132 25.25 25.25 20.2132 25.25 14C25.25 7.7868 20.2132 2.75 14 2.75C7.7868 2.75 2.75 7.7868 2.75 14C2.75 20.2132 7.7868 25.25 14 25.25ZM15.25 12.75H20.25V15.25H15.25V20.25H12.75V15.25H7.75V12.75H12.75V7.75H15.25V12.75Z" fill="#97AACD"/>
</svg>
