<svg width="18" height="18" viewBox="0 0 18 18" fill="none" xmlns="http://www.w3.org/2000/svg">
<path fill-rule="evenodd" clip-rule="evenodd" d="M2.33317 5.66666H10.6665C11.587 5.66666 12.3332 6.41285 12.3332 7.33332V15.6667C12.3332 16.5871 11.587 17.3333 10.6665 17.3333H2.33317C1.4127 17.3333 0.666504 16.5871 0.666504 15.6667V7.33332C0.666504 6.41285 1.4127 5.66666 2.33317 5.66666ZM2.33317 7.33332V15.6667H10.6665V7.33332H2.33317ZM13.1665 14.8333V5.66666C13.1665 5.20642 12.7934 4.83332 12.3332 4.83332H3.1665C3.1665 3.91285 3.9127 3.16666 4.83317 3.16666H13.1665C14.087 3.16666 14.8332 3.91285 14.8332 4.83332V13.1667C14.8332 14.0871 14.087 14.8333 13.1665 14.8333ZM15.6665 12.3333V3.16666C15.6665 2.70642 15.2934 2.33332 14.8332 2.33332H5.6665C5.6665 1.41285 6.4127 0.666656 7.33317 0.666656H15.6665C16.587 0.666656 17.3332 1.41285 17.3332 2.33332V10.6667C17.3332 11.5871 16.587 12.3333 15.6665 12.3333Z" fill="#C5C7D2"/>
</svg>
