<svg width="10" height="10" viewBox="0 0 10 10" fill="none" xmlns="http://www.w3.org/2000/svg">
<path fill-rule="evenodd" clip-rule="evenodd" d="M6.16783 2.68569L3.62354 5.22916C3.45473 5.37846 3.35029 5.58734 3.3335 5.77843V6.66806L4.19349 6.66884C4.41608 6.65308 4.62328 6.54949 4.78966 6.35917L7.31545 3.83338L6.16783 2.68569ZM6.75719 2.09653L7.90471 3.24413L8.27716 2.87167C8.31325 2.83559 8.33352 2.78664 8.33352 2.73561C8.33352 2.68458 8.31325 2.63564 8.27716 2.59955L7.40063 1.72302C7.36495 1.68706 7.31639 1.66683 7.26573 1.66683C7.21506 1.66683 7.1665 1.68706 7.13082 1.72302L6.75719 2.09653ZM9.16683 5.41683V8.3335C9.16683 8.79373 8.79373 9.16683 8.3335 9.16683H1.66683C1.20659 9.16683 0.833496 8.79373 0.833496 8.3335V1.66683C0.833496 1.20659 1.20659 0.833496 1.66683 0.833496H4.5835V1.66683H1.66683V8.3335H8.3335V5.41683H9.16683ZM7.26573 0.833496C7.53853 0.833496 7.80005 0.942421 7.99104 1.13492L8.86642 2.0103C9.05878 2.20266 9.16685 2.46357 9.16685 2.73561C9.16685 3.00766 9.05878 3.26856 8.86642 3.46093L5.39912 6.92673C5.10809 7.26245 4.69554 7.46872 4.22291 7.50113H2.50016V7.08447L2.50152 5.74487C2.53701 5.30551 2.74127 4.89697 3.05287 4.62242L6.53991 1.13542C6.73199 0.942175 6.99323 0.833496 7.26573 0.833496Z" fill="#636A7B"/>
</svg>
