<svg width="38" height="38" viewBox="0 0 38 38" fill="none" xmlns="http://www.w3.org/2000/svg">
<path fill-rule="evenodd" clip-rule="evenodd" d="M18.9998 37.3332C8.87462 37.3332 0.666504 29.1251 0.666504 18.9998C0.666504 8.87462 8.87462 0.666504 18.9998 0.666504C29.1251 0.666504 37.3332 8.87462 37.3332 18.9998C37.3332 29.1251 29.1251 37.3332 18.9998 37.3332ZM18.9998 33.9998C27.2841 33.9998 33.9998 27.2841 33.9998 18.9998C33.9998 10.7156 27.2841 3.99984 18.9998 3.99984C10.7156 3.99984 3.99984 10.7156 3.99984 18.9998C3.99984 27.2841 10.7156 33.9998 18.9998 33.9998ZM15.6665 21.6428L24.488 12.8213L26.845 15.1783L15.6665 26.3569L9.48799 20.1783L11.845 17.8213L15.6665 21.6428Z" fill="#15D7AE"/>
</svg>
