<svg width="15" height="10" viewBox="0 0 15 10" fill="none" xmlns="http://www.w3.org/2000/svg">
<path fill-rule="evenodd" clip-rule="evenodd" d="M14.375 4.99825C14.375 6.91804 14.1925 8.09821 13.7655 8.83011C13.3342 9.6111 12.8294 9.85677 11.7989 9.92894C11.0718 9.9714 9.24665 10 7.50167 10C5.75276 10 3.92672 9.97141 3.19288 9.92846C2.17183 9.85675 1.66688 9.61149 1.23619 8.83898C0.807997 8.0925 0.625 6.90753 0.625 5.00525C0.625 3.09211 0.807115 1.91306 1.23246 1.16412C1.66882 0.381541 2.18195 0.133286 3.19438 0.0740573C3.89465 0.0265665 5.62288 0 7.50167 0C9.37641 0 11.1039 0.0265764 11.7989 0.073688C12.8171 0.133145 13.3301 0.380852 13.7626 1.16127C14.1942 1.9128 14.375 3.08611 14.375 4.99825ZM12.6771 1.78102C12.4752 1.41566 12.3571 1.35841 11.7203 1.3212C11.0579 1.27633 9.34671 1.25 7.50167 1.25C5.65265 1.25 3.94067 1.27632 3.27318 1.32156C2.64278 1.35845 2.52297 1.41642 2.32181 1.77714C2.02971 2.29149 1.875 3.29312 1.875 4.99825C1.875 6.7044 2.03054 7.71157 2.32421 8.22362C2.52228 8.57885 2.64126 8.63664 3.27314 8.68106C3.96796 8.72168 5.77633 8.75 7.50167 8.75C9.22312 8.75 11.0306 8.72168 11.7188 8.68153C12.3586 8.63669 12.4759 8.57962 12.6784 8.21312C12.9701 7.71298 13.125 6.71142 13.125 5.00525C13.125 3.28607 12.971 2.29 12.6771 1.78102ZM6.25 3.125L9.375 5L6.25 6.875V3.125Z" fill="#C5C7D2"/>
</svg>
