<svg width="34" height="37" viewBox="0 0 34 37" fill="none" xmlns="http://www.w3.org/2000/svg">
<g clip-path="url(#clip0)">
<path d="M32.1997 10.344V7.62045C32.1997 6.64896 31.4118 5.85901 30.4393 5.85901H2.46063C1.48706 5.85849 0.699707 6.64844 0.699707 7.62045V10.344H32.1997Z" fill="#C5C7D2"/>
<path d="M0.699707 13.5157V24.8795C0.699707 25.851 1.48706 26.6415 2.46063 26.6415H30.4398C31.4124 26.6415 32.2002 25.8515 32.2002 24.88V13.5157H0.699707Z" fill="#C5C7D2"/>
</g>
<g clip-path="url(#clip1)">
<rect x="23.2002" y="23" width="3.6" height="7.2" fill="white"/>
<path d="M33.6347 32.0211L27.2691 20.3022C26.7886 19.4934 25.9401 19.0104 24.9993 19.0104C24.0585 19.0104 23.21 19.4934 22.7296 20.3022C22.7259 20.3084 22.7229 20.3146 22.7193 20.3208L16.3748 32.0026C15.8841 32.8285 15.8748 33.8203 16.3495 34.6554C16.8254 35.491 17.6826 35.9895 18.644 35.9895H31.3194C32.2808 35.9895 33.1733 35.491 33.6491 34.6554C34.1239 33.8203 34.1146 32.8284 33.6347 32.0211ZM23.9436 24.3762C23.9436 23.7931 24.4162 23.3205 24.9993 23.3205C25.5824 23.3205 26.0551 23.7932 26.0551 24.3762V28.5992C26.0551 29.1823 25.5824 29.655 24.9993 29.655C24.4162 29.655 23.9436 29.1822 23.9436 28.5992V24.3762V24.3762ZM24.9993 33.878C24.1261 33.878 23.4157 33.1677 23.4157 32.2944C23.4157 31.4211 24.126 30.7108 24.9993 30.7108C25.8726 30.7108 26.5829 31.4211 26.5829 32.2944C26.583 33.1676 25.8726 33.878 24.9993 33.878Z" fill="#4368E0"/>
</g>
<defs>
<clipPath id="clip0">
<rect width="31.5" height="31.5" fill="white" transform="translate(0.700195 0.5)"/>
</clipPath>
<clipPath id="clip1">
<rect width="18" height="18" fill="white" transform="translate(16 18.5)"/>
</clipPath>
</defs>
</svg>
