<svg width="355" height="230" viewBox="0 0 355 230" fill="none" xmlns="http://www.w3.org/2000/svg">
<path opacity="0.05" d="M258.842 302.09C311.63 302.09 361.22 262.842 361.22 206.481H289.051C289.051 215.87 279.28 229.921 258.842 229.921V302.09ZM361.22 206.481C361.22 150.121 311.63 110.873 258.842 110.873V183.042C279.28 183.042 289.051 197.093 289.051 206.481H361.22ZM258.842 110.873C206.053 110.873 156.463 150.121 156.463 206.481H228.632C228.632 197.093 238.404 183.042 258.842 183.042V110.873ZM156.463 206.481C156.463 262.842 206.053 302.09 258.842 302.09V229.921C238.404 229.921 228.632 215.87 228.632 206.481H156.463ZM258.842 267.629C290.433 267.629 322.839 243.809 322.839 206.481H250.67C250.67 202.095 252.729 198.919 254.471 197.354C256.152 195.845 257.798 195.46 258.842 195.46V267.629ZM322.839 206.481C322.839 169.153 290.433 145.334 258.842 145.334V217.503C257.798 217.503 256.152 217.118 254.471 215.609C252.729 214.044 250.67 210.868 250.67 206.481H322.839ZM258.842 145.334C227.251 145.334 194.844 169.153 194.844 206.481H267.013C267.013 210.868 264.955 214.044 263.212 215.609C261.532 217.118 259.885 217.503 258.842 217.503V145.334ZM194.844 206.481C194.844 243.809 227.251 267.629 258.842 267.629V195.46C259.885 195.46 261.532 195.845 263.212 197.354C264.955 198.919 267.013 202.095 267.013 206.481H194.844Z" fill="#449CF4"/>
<g opacity="0.1">
<path fill-rule="evenodd" clip-rule="evenodd" d="M251.729 67.7521C252.378 67.7521 252.91 67.2765 252.91 66.6917C252.91 66.1052 252.378 65.6312 251.729 65.6312C251.077 65.6312 250.546 66.1052 250.546 66.6917C250.546 67.2765 251.077 67.7521 251.729 67.7521Z" fill="#449CF4"/>
<path fill-rule="evenodd" clip-rule="evenodd" d="M263.556 67.7521C264.209 67.7521 264.739 67.2765 264.739 66.6917C264.739 66.1052 264.209 65.6312 263.556 65.6312C262.907 65.6312 262.377 66.1052 262.377 66.6917C262.377 67.2765 262.907 67.7521 263.556 67.7521Z" fill="#449CF4"/>
<path fill-rule="evenodd" clip-rule="evenodd" d="M275.386 67.7521C276.037 67.7521 276.567 67.2765 276.567 66.6917C276.567 66.1052 276.037 65.6312 275.386 65.6312C274.735 65.6312 274.205 66.1052 274.205 66.6917C274.205 67.2765 274.735 67.7521 275.386 67.7521Z" fill="#449CF4"/>
<path fill-rule="evenodd" clip-rule="evenodd" d="M287.215 67.7521C287.867 67.7521 288.396 67.2765 288.396 66.6917C288.396 66.1052 287.867 65.6312 287.215 65.6312C286.566 65.6312 286.034 66.1052 286.034 66.6917C286.034 67.2765 286.566 67.7521 287.215 67.7521Z" fill="#449CF4"/>
<path fill-rule="evenodd" clip-rule="evenodd" d="M299.046 67.7521C299.696 67.7521 300.225 67.2765 300.225 66.6917C300.225 66.1052 299.696 65.6312 299.046 65.6312C298.395 65.6312 297.863 66.1052 297.863 66.6917C297.863 67.2765 298.395 67.7521 299.046 67.7521Z" fill="#449CF4"/>
<path fill-rule="evenodd" clip-rule="evenodd" d="M310.874 67.7521C311.526 67.7521 312.055 67.2765 312.055 66.6917C312.055 66.1052 311.526 65.6312 310.874 65.6312C310.223 65.6312 309.693 66.1052 309.693 66.6917C309.693 67.2765 310.223 67.7521 310.874 67.7521Z" fill="#449CF4"/>
<path fill-rule="evenodd" clip-rule="evenodd" d="M251.729 78.3716C252.378 78.3716 252.91 77.8976 252.91 77.3112C252.91 76.7263 252.378 76.2507 251.729 76.2507C251.077 76.2507 250.546 76.7263 250.546 77.3112C250.546 77.8976 251.077 78.3716 251.729 78.3716Z" fill="#449CF4"/>
<path fill-rule="evenodd" clip-rule="evenodd" d="M263.556 78.3716C264.209 78.3716 264.739 77.8976 264.739 77.3112C264.739 76.7263 264.209 76.2507 263.556 76.2507C262.907 76.2507 262.377 76.7263 262.377 77.3112C262.377 77.8976 262.907 78.3716 263.556 78.3716Z" fill="#449CF4"/>
<path fill-rule="evenodd" clip-rule="evenodd" d="M275.386 78.3716C276.037 78.3716 276.567 77.8976 276.567 77.3112C276.567 76.7263 276.037 76.2507 275.386 76.2507C274.735 76.2507 274.205 76.7263 274.205 77.3112C274.205 77.8976 274.735 78.3716 275.386 78.3716Z" fill="#449CF4"/>
<path fill-rule="evenodd" clip-rule="evenodd" d="M287.215 78.3716C287.867 78.3716 288.396 77.8976 288.396 77.3112C288.396 76.7263 287.867 76.2507 287.215 76.2507C286.566 76.2507 286.034 76.7263 286.034 77.3112C286.034 77.8976 286.566 78.3716 287.215 78.3716Z" fill="#449CF4"/>
<path fill-rule="evenodd" clip-rule="evenodd" d="M299.046 78.3716C299.696 78.3716 300.225 77.8976 300.225 77.3112C300.225 76.7263 299.696 76.2507 299.046 76.2507C298.395 76.2507 297.863 76.7263 297.863 77.3112C297.863 77.8976 298.395 78.3716 299.046 78.3716Z" fill="#449CF4"/>
<path fill-rule="evenodd" clip-rule="evenodd" d="M310.874 78.3716C311.526 78.3716 312.055 77.8976 312.055 77.3112C312.055 76.7263 311.526 76.2507 310.874 76.2507C310.223 76.2507 309.693 76.7263 309.693 77.3112C309.693 77.8976 310.223 78.3716 310.874 78.3716Z" fill="#449CF4"/>
<path fill-rule="evenodd" clip-rule="evenodd" d="M251.729 88.9942C252.378 88.9942 252.91 88.5202 252.91 87.9337C252.91 87.3473 252.378 86.8733 251.729 86.8733C251.077 86.8733 250.546 87.3473 250.546 87.9337C250.546 88.5202 251.077 88.9942 251.729 88.9942Z" fill="#449CF4"/>
<path fill-rule="evenodd" clip-rule="evenodd" d="M263.556 88.9942C264.209 88.9942 264.739 88.5202 264.739 87.9337C264.739 87.3473 264.209 86.8733 263.556 86.8733C262.907 86.8733 262.377 87.3473 262.377 87.9337C262.377 88.5202 262.907 88.9942 263.556 88.9942Z" fill="#449CF4"/>
<path fill-rule="evenodd" clip-rule="evenodd" d="M275.386 88.9942C276.037 88.9942 276.567 88.5202 276.567 87.9337C276.567 87.3473 276.037 86.8733 275.386 86.8733C274.735 86.8733 274.205 87.3473 274.205 87.9337C274.205 88.5202 274.735 88.9942 275.386 88.9942Z" fill="#449CF4"/>
<path fill-rule="evenodd" clip-rule="evenodd" d="M287.215 88.9942C287.867 88.9942 288.396 88.5202 288.396 87.9337C288.396 87.3473 287.867 86.8733 287.215 86.8733C286.566 86.8733 286.034 87.3473 286.034 87.9337C286.034 88.5202 286.566 88.9942 287.215 88.9942Z" fill="#449CF4"/>
<path fill-rule="evenodd" clip-rule="evenodd" d="M299.046 88.9942C299.696 88.9942 300.225 88.5202 300.225 87.9337C300.225 87.3473 299.696 86.8733 299.046 86.8733C298.395 86.8733 297.863 87.3473 297.863 87.9337C297.863 88.5202 298.395 88.9942 299.046 88.9942Z" fill="#449CF4"/>
<path fill-rule="evenodd" clip-rule="evenodd" d="M310.874 88.9942C311.526 88.9942 312.055 88.5202 312.055 87.9337C312.055 87.3473 311.526 86.8733 310.874 86.8733C310.223 86.8733 309.693 87.3473 309.693 87.9337C309.693 88.5202 310.223 88.9942 310.874 88.9942Z" fill="#449CF4"/>
<path fill-rule="evenodd" clip-rule="evenodd" d="M251.729 99.6152C252.378 99.6152 252.91 99.1397 252.91 98.5548C252.91 97.97 252.378 97.496 251.729 97.496C251.077 97.496 250.546 97.97 250.546 98.5548C250.546 99.1397 251.077 99.6152 251.729 99.6152Z" fill="#449CF4"/>
<path fill-rule="evenodd" clip-rule="evenodd" d="M263.556 99.6152C264.209 99.6152 264.739 99.1397 264.739 98.5548C264.739 97.97 264.209 97.496 263.556 97.496C262.907 97.496 262.377 97.97 262.377 98.5548C262.377 99.1397 262.907 99.6152 263.556 99.6152Z" fill="#449CF4"/>
<path fill-rule="evenodd" clip-rule="evenodd" d="M275.386 99.6152C276.037 99.6152 276.567 99.1397 276.567 98.5548C276.567 97.97 276.037 97.496 275.386 97.496C274.735 97.496 274.205 97.97 274.205 98.5548C274.205 99.1397 274.735 99.6152 275.386 99.6152Z" fill="#449CF4"/>
<path fill-rule="evenodd" clip-rule="evenodd" d="M287.215 99.6152C287.867 99.6152 288.396 99.1397 288.396 98.5548C288.396 97.97 287.867 97.496 287.215 97.496C286.566 97.496 286.034 97.97 286.034 98.5548C286.034 99.1397 286.566 99.6152 287.215 99.6152Z" fill="#449CF4"/>
<path fill-rule="evenodd" clip-rule="evenodd" d="M299.046 99.6152C299.696 99.6152 300.225 99.1397 300.225 98.5548C300.225 97.97 299.696 97.496 299.046 97.496C298.395 97.496 297.863 97.97 297.863 98.5548C297.863 99.1397 298.395 99.6152 299.046 99.6152Z" fill="#449CF4"/>
<path fill-rule="evenodd" clip-rule="evenodd" d="M310.874 99.6152C311.526 99.6152 312.055 99.1397 312.055 98.5548C312.055 97.97 311.526 97.496 310.874 97.496C310.223 97.496 309.693 97.97 309.693 98.5548C309.693 99.1397 310.223 99.6152 310.874 99.6152Z" fill="#449CF4"/>
<path fill-rule="evenodd" clip-rule="evenodd" d="M251.729 110.236C252.378 110.236 252.91 109.762 252.91 109.176C252.91 108.591 252.378 108.115 251.729 108.115C251.077 108.115 250.546 108.591 250.546 109.176C250.546 109.762 251.077 110.236 251.729 110.236Z" fill="#449CF4"/>
<path fill-rule="evenodd" clip-rule="evenodd" d="M263.556 110.236C264.209 110.236 264.739 109.762 264.739 109.176C264.739 108.591 264.209 108.115 263.556 108.115C262.907 108.115 262.377 108.591 262.377 109.176C262.377 109.762 262.907 110.236 263.556 110.236Z" fill="#449CF4"/>
<path fill-rule="evenodd" clip-rule="evenodd" d="M275.386 110.236C276.037 110.236 276.567 109.762 276.567 109.176C276.567 108.591 276.037 108.115 275.386 108.115C274.735 108.115 274.205 108.591 274.205 109.176C274.205 109.762 274.735 110.236 275.386 110.236Z" fill="#449CF4"/>
<path fill-rule="evenodd" clip-rule="evenodd" d="M287.215 110.236C287.867 110.236 288.396 109.762 288.396 109.176C288.396 108.591 287.867 108.115 287.215 108.115C286.566 108.115 286.034 108.591 286.034 109.176C286.034 109.762 286.566 110.236 287.215 110.236Z" fill="#449CF4"/>
<path fill-rule="evenodd" clip-rule="evenodd" d="M299.046 110.236C299.696 110.236 300.225 109.762 300.225 109.176C300.225 108.591 299.696 108.115 299.046 108.115C298.395 108.115 297.863 108.591 297.863 109.176C297.863 109.762 298.395 110.236 299.046 110.236Z" fill="#449CF4"/>
<path fill-rule="evenodd" clip-rule="evenodd" d="M310.874 110.236C311.526 110.236 312.055 109.762 312.055 109.176C312.055 108.591 311.526 108.115 310.874 108.115C310.223 108.115 309.693 108.591 309.693 109.176C309.693 109.762 310.223 110.236 310.874 110.236Z" fill="#449CF4"/>
<path fill-rule="evenodd" clip-rule="evenodd" d="M251.729 120.859C252.378 120.859 252.91 120.385 252.91 119.798C252.91 119.212 252.378 118.738 251.729 118.738C251.077 118.738 250.546 119.212 250.546 119.798C250.546 120.385 251.077 120.859 251.729 120.859Z" fill="#449CF4"/>
<path fill-rule="evenodd" clip-rule="evenodd" d="M263.556 120.859C264.209 120.859 264.739 120.385 264.739 119.798C264.739 119.212 264.209 118.738 263.556 118.738C262.907 118.738 262.377 119.212 262.377 119.798C262.377 120.385 262.907 120.859 263.556 120.859Z" fill="#449CF4"/>
<path fill-rule="evenodd" clip-rule="evenodd" d="M275.386 120.859C276.037 120.859 276.567 120.385 276.567 119.798C276.567 119.212 276.037 118.738 275.386 118.738C274.735 118.738 274.205 119.212 274.205 119.798C274.205 120.385 274.735 120.859 275.386 120.859Z" fill="#449CF4"/>
<path fill-rule="evenodd" clip-rule="evenodd" d="M287.215 120.859C287.867 120.859 288.396 120.385 288.396 119.798C288.396 119.212 287.867 118.738 287.215 118.738C286.566 118.738 286.034 119.212 286.034 119.798C286.034 120.385 286.566 120.859 287.215 120.859Z" fill="#449CF4"/>
<path fill-rule="evenodd" clip-rule="evenodd" d="M299.046 120.859C299.696 120.859 300.225 120.385 300.225 119.798C300.225 119.212 299.696 118.738 299.046 118.738C298.395 118.738 297.863 119.212 297.863 119.798C297.863 120.385 298.395 120.859 299.046 120.859Z" fill="#449CF4"/>
<path fill-rule="evenodd" clip-rule="evenodd" d="M310.874 120.859C311.526 120.859 312.055 120.385 312.055 119.798C312.055 119.212 311.526 118.738 310.874 118.738C310.223 118.738 309.693 119.212 309.693 119.798C309.693 120.385 310.223 120.859 310.874 120.859Z" fill="#449CF4"/>
<path fill-rule="evenodd" clip-rule="evenodd" d="M251.729 131.48C252.378 131.48 252.91 131.004 252.91 130.419C252.91 129.834 252.378 129.359 251.729 129.359C251.077 129.359 250.546 129.834 250.546 130.419C250.546 131.004 251.077 131.48 251.729 131.48Z" fill="#449CF4"/>
<path fill-rule="evenodd" clip-rule="evenodd" d="M263.556 131.48C264.209 131.48 264.739 131.004 264.739 130.419C264.739 129.834 264.209 129.359 263.556 129.359C262.907 129.359 262.377 129.834 262.377 130.419C262.377 131.004 262.907 131.48 263.556 131.48Z" fill="#449CF4"/>
<path fill-rule="evenodd" clip-rule="evenodd" d="M275.386 131.48C276.037 131.48 276.567 131.004 276.567 130.419C276.567 129.834 276.037 129.359 275.386 129.359C274.735 129.359 274.205 129.834 274.205 130.419C274.205 131.004 274.735 131.48 275.386 131.48Z" fill="#449CF4"/>
<path fill-rule="evenodd" clip-rule="evenodd" d="M287.215 131.48C287.867 131.48 288.396 131.004 288.396 130.419C288.396 129.834 287.867 129.359 287.215 129.359C286.566 129.359 286.034 129.834 286.034 130.419C286.034 131.004 286.566 131.48 287.215 131.48Z" fill="#449CF4"/>
<path fill-rule="evenodd" clip-rule="evenodd" d="M299.046 131.48C299.696 131.48 300.225 131.004 300.225 130.419C300.225 129.834 299.696 129.359 299.046 129.359C298.395 129.359 297.863 129.834 297.863 130.419C297.863 131.004 298.395 131.48 299.046 131.48Z" fill="#449CF4"/>
<path fill-rule="evenodd" clip-rule="evenodd" d="M310.874 131.48C311.526 131.48 312.055 131.004 312.055 130.419C312.055 129.834 311.526 129.359 310.874 129.359C310.223 129.359 309.693 129.834 309.693 130.419C309.693 131.004 310.223 131.48 310.874 131.48Z" fill="#449CF4"/>
<path fill-rule="evenodd" clip-rule="evenodd" d="M251.729 142.101C252.378 142.101 252.91 141.627 252.91 141.04C252.91 140.454 252.378 139.98 251.729 139.98C251.077 139.98 250.546 140.454 250.546 141.04C250.546 141.627 251.077 142.101 251.729 142.101Z" fill="#449CF4"/>
<path fill-rule="evenodd" clip-rule="evenodd" d="M263.556 142.101C264.209 142.101 264.739 141.627 264.739 141.04C264.739 140.454 264.209 139.98 263.556 139.98C262.907 139.98 262.377 140.454 262.377 141.04C262.377 141.627 262.907 142.101 263.556 142.101Z" fill="#449CF4"/>
<path fill-rule="evenodd" clip-rule="evenodd" d="M275.386 142.101C276.037 142.101 276.567 141.627 276.567 141.04C276.567 140.454 276.037 139.98 275.386 139.98C274.735 139.98 274.205 140.454 274.205 141.04C274.205 141.627 274.735 142.101 275.386 142.101Z" fill="#449CF4"/>
<path fill-rule="evenodd" clip-rule="evenodd" d="M287.215 142.101C287.867 142.101 288.396 141.627 288.396 141.04C288.396 140.454 287.867 139.98 287.215 139.98C286.566 139.98 286.034 140.454 286.034 141.04C286.034 141.627 286.566 142.101 287.215 142.101Z" fill="#449CF4"/>
<path fill-rule="evenodd" clip-rule="evenodd" d="M299.046 142.101C299.696 142.101 300.225 141.627 300.225 141.04C300.225 140.454 299.696 139.98 299.046 139.98C298.395 139.98 297.863 140.454 297.863 141.04C297.863 141.627 298.395 142.101 299.046 142.101Z" fill="#449CF4"/>
<path fill-rule="evenodd" clip-rule="evenodd" d="M310.874 142.101C311.526 142.101 312.055 141.627 312.055 141.04C312.055 140.454 311.526 139.98 310.874 139.98C310.223 139.98 309.693 140.454 309.693 141.04C309.693 141.627 310.223 142.101 310.874 142.101Z" fill="#449CF4"/>
<path fill-rule="evenodd" clip-rule="evenodd" d="M251.729 152.723C252.378 152.723 252.91 152.248 252.91 151.663C252.91 151.076 252.378 150.602 251.729 150.602C251.077 150.602 250.546 151.076 250.546 151.663C250.546 152.248 251.077 152.723 251.729 152.723Z" fill="#449CF4"/>
<path fill-rule="evenodd" clip-rule="evenodd" d="M263.556 152.723C264.209 152.723 264.739 152.248 264.739 151.663C264.739 151.076 264.209 150.602 263.556 150.602C262.907 150.602 262.377 151.076 262.377 151.663C262.377 152.248 262.907 152.723 263.556 152.723Z" fill="#449CF4"/>
<path fill-rule="evenodd" clip-rule="evenodd" d="M275.386 152.723C276.037 152.723 276.567 152.248 276.567 151.663C276.567 151.076 276.037 150.602 275.386 150.602C274.735 150.602 274.205 151.076 274.205 151.663C274.205 152.248 274.735 152.723 275.386 152.723Z" fill="#449CF4"/>
<path fill-rule="evenodd" clip-rule="evenodd" d="M287.215 152.723C287.867 152.723 288.396 152.248 288.396 151.663C288.396 151.076 287.867 150.602 287.215 150.602C286.566 150.602 286.034 151.076 286.034 151.663C286.034 152.248 286.566 152.723 287.215 152.723Z" fill="#449CF4"/>
<path fill-rule="evenodd" clip-rule="evenodd" d="M299.046 152.723C299.696 152.723 300.225 152.248 300.225 151.663C300.225 151.076 299.696 150.602 299.046 150.602C298.395 150.602 297.863 151.076 297.863 151.663C297.863 152.248 298.395 152.723 299.046 152.723Z" fill="#449CF4"/>
<path fill-rule="evenodd" clip-rule="evenodd" d="M310.874 152.723C311.526 152.723 312.055 152.248 312.055 151.663C312.055 151.076 311.526 150.602 310.874 150.602C310.223 150.602 309.693 151.076 309.693 151.663C309.693 152.248 310.223 152.723 310.874 152.723Z" fill="#449CF4"/>
<path fill-rule="evenodd" clip-rule="evenodd" d="M251.729 163.343C252.378 163.343 252.91 162.869 252.91 162.282C252.91 161.699 252.378 161.222 251.729 161.222C251.077 161.222 250.546 161.699 250.546 162.282C250.546 162.869 251.077 163.343 251.729 163.343Z" fill="#449CF4"/>
<path fill-rule="evenodd" clip-rule="evenodd" d="M263.556 163.343C264.209 163.343 264.739 162.869 264.739 162.282C264.739 161.699 264.209 161.222 263.556 161.222C262.907 161.222 262.377 161.699 262.377 162.282C262.377 162.869 262.907 163.343 263.556 163.343Z" fill="#449CF4"/>
<path fill-rule="evenodd" clip-rule="evenodd" d="M275.386 163.343C276.037 163.343 276.567 162.869 276.567 162.282C276.567 161.699 276.037 161.222 275.386 161.222C274.735 161.222 274.205 161.699 274.205 162.282C274.205 162.869 274.735 163.343 275.386 163.343Z" fill="#449CF4"/>
<path fill-rule="evenodd" clip-rule="evenodd" d="M287.215 163.343C287.867 163.343 288.396 162.869 288.396 162.282C288.396 161.699 287.867 161.222 287.215 161.222C286.566 161.222 286.034 161.699 286.034 162.282C286.034 162.869 286.566 163.343 287.215 163.343Z" fill="#449CF4"/>
<path fill-rule="evenodd" clip-rule="evenodd" d="M299.046 163.343C299.696 163.343 300.225 162.869 300.225 162.282C300.225 161.699 299.696 161.222 299.046 161.222C298.395 161.222 297.863 161.699 297.863 162.282C297.863 162.869 298.395 163.343 299.046 163.343Z" fill="#449CF4"/>
<path fill-rule="evenodd" clip-rule="evenodd" d="M310.874 163.343C311.526 163.343 312.055 162.869 312.055 162.282C312.055 161.699 311.526 161.222 310.874 161.222C310.223 161.222 309.693 161.699 309.693 162.282C309.693 162.869 310.223 163.343 310.874 163.343Z" fill="#449CF4"/>
<path fill-rule="evenodd" clip-rule="evenodd" d="M251.729 173.965C252.378 173.965 252.91 173.491 252.91 172.905C252.91 172.319 252.378 171.845 251.729 171.845C251.077 171.845 250.546 172.319 250.546 172.905C250.546 173.491 251.077 173.965 251.729 173.965Z" fill="#449CF4"/>
<path fill-rule="evenodd" clip-rule="evenodd" d="M263.556 173.965C264.209 173.965 264.739 173.491 264.739 172.905C264.739 172.319 264.209 171.845 263.556 171.845C262.907 171.845 262.377 172.319 262.377 172.905C262.377 173.491 262.907 173.965 263.556 173.965Z" fill="#449CF4"/>
<path fill-rule="evenodd" clip-rule="evenodd" d="M275.386 173.965C276.037 173.965 276.567 173.491 276.567 172.905C276.567 172.319 276.037 171.845 275.386 171.845C274.735 171.845 274.205 172.319 274.205 172.905C274.205 173.491 274.735 173.965 275.386 173.965Z" fill="#449CF4"/>
<path fill-rule="evenodd" clip-rule="evenodd" d="M287.215 173.965C287.867 173.965 288.396 173.491 288.396 172.905C288.396 172.319 287.867 171.845 287.215 171.845C286.566 171.845 286.034 172.319 286.034 172.905C286.034 173.491 286.566 173.965 287.215 173.965Z" fill="#449CF4"/>
<path fill-rule="evenodd" clip-rule="evenodd" d="M299.046 173.965C299.696 173.965 300.225 173.491 300.225 172.905C300.225 172.319 299.696 171.845 299.046 171.845C298.395 171.845 297.863 172.319 297.863 172.905C297.863 173.491 298.395 173.965 299.046 173.965Z" fill="#449CF4"/>
<path fill-rule="evenodd" clip-rule="evenodd" d="M310.874 173.965C311.526 173.965 312.055 173.491 312.055 172.905C312.055 172.319 311.526 171.845 310.874 171.845C310.223 171.845 309.693 172.319 309.693 172.905C309.693 173.491 310.223 173.965 310.874 173.965Z" fill="#449CF4"/>
<path fill-rule="evenodd" clip-rule="evenodd" d="M251.729 184.586C252.378 184.586 252.91 184.111 252.91 183.527C252.91 182.941 252.378 182.467 251.729 182.467C251.077 182.467 250.546 182.941 250.546 183.527C250.546 184.111 251.077 184.586 251.729 184.586Z" fill="#449CF4"/>
<path fill-rule="evenodd" clip-rule="evenodd" d="M263.556 184.586C264.209 184.586 264.739 184.111 264.739 183.527C264.739 182.941 264.209 182.467 263.556 182.467C262.907 182.467 262.377 182.941 262.377 183.527C262.377 184.111 262.907 184.586 263.556 184.586Z" fill="#449CF4"/>
<path fill-rule="evenodd" clip-rule="evenodd" d="M275.386 184.586C276.037 184.586 276.567 184.111 276.567 183.527C276.567 182.941 276.037 182.467 275.386 182.467C274.735 182.467 274.205 182.941 274.205 183.527C274.205 184.111 274.735 184.586 275.386 184.586Z" fill="#449CF4"/>
<path fill-rule="evenodd" clip-rule="evenodd" d="M287.215 184.586C287.867 184.586 288.396 184.111 288.396 183.527C288.396 182.941 287.867 182.467 287.215 182.467C286.566 182.467 286.034 182.941 286.034 183.527C286.034 184.111 286.566 184.586 287.215 184.586Z" fill="#449CF4"/>
<path fill-rule="evenodd" clip-rule="evenodd" d="M299.046 184.586C299.696 184.586 300.225 184.111 300.225 183.527C300.225 182.941 299.696 182.467 299.046 182.467C298.395 182.467 297.863 182.941 297.863 183.527C297.863 184.111 298.395 184.586 299.046 184.586Z" fill="#449CF4"/>
<path fill-rule="evenodd" clip-rule="evenodd" d="M310.874 184.586C311.526 184.586 312.055 184.111 312.055 183.527C312.055 182.941 311.526 182.467 310.874 182.467C310.223 182.467 309.693 182.941 309.693 183.527C309.693 184.111 310.223 184.586 310.874 184.586Z" fill="#449CF4"/>
<path fill-rule="evenodd" clip-rule="evenodd" d="M251.729 195.207C252.378 195.207 252.91 194.733 252.91 194.147C252.91 193.562 252.378 193.087 251.729 193.087C251.077 193.087 250.546 193.562 250.546 194.147C250.546 194.733 251.077 195.207 251.729 195.207Z" fill="#449CF4"/>
<path fill-rule="evenodd" clip-rule="evenodd" d="M263.556 195.207C264.209 195.207 264.739 194.733 264.739 194.147C264.739 193.562 264.209 193.087 263.556 193.087C262.907 193.087 262.377 193.562 262.377 194.147C262.377 194.733 262.907 195.207 263.556 195.207Z" fill="#449CF4"/>
<path fill-rule="evenodd" clip-rule="evenodd" d="M275.386 195.207C276.037 195.207 276.567 194.733 276.567 194.147C276.567 193.562 276.037 193.087 275.386 193.087C274.735 193.087 274.205 193.562 274.205 194.147C274.205 194.733 274.735 195.207 275.386 195.207Z" fill="#449CF4"/>
<path fill-rule="evenodd" clip-rule="evenodd" d="M287.215 195.207C287.867 195.207 288.396 194.733 288.396 194.147C288.396 193.562 287.867 193.087 287.215 193.087C286.566 193.087 286.034 193.562 286.034 194.147C286.034 194.733 286.566 195.207 287.215 195.207Z" fill="#449CF4"/>
<path fill-rule="evenodd" clip-rule="evenodd" d="M299.046 195.207C299.696 195.207 300.225 194.733 300.225 194.147C300.225 193.562 299.696 193.087 299.046 193.087C298.395 193.087 297.863 193.562 297.863 194.147C297.863 194.733 298.395 195.207 299.046 195.207Z" fill="#449CF4"/>
<path fill-rule="evenodd" clip-rule="evenodd" d="M310.874 195.207C311.526 195.207 312.055 194.733 312.055 194.147C312.055 193.562 311.526 193.087 310.874 193.087C310.223 193.087 309.693 193.562 309.693 194.147C309.693 194.733 310.223 195.207 310.874 195.207Z" fill="#449CF4"/>
<path fill-rule="evenodd" clip-rule="evenodd" d="M251.729 205.83C252.378 205.83 252.91 205.356 252.91 204.77C252.91 204.183 252.378 203.709 251.729 203.709C251.077 203.709 250.546 204.183 250.546 204.77C250.546 205.356 251.077 205.83 251.729 205.83Z" fill="#449CF4"/>
<path fill-rule="evenodd" clip-rule="evenodd" d="M263.556 205.83C264.209 205.83 264.739 205.356 264.739 204.77C264.739 204.183 264.209 203.709 263.556 203.709C262.907 203.709 262.377 204.183 262.377 204.77C262.377 205.356 262.907 205.83 263.556 205.83Z" fill="#449CF4"/>
<path fill-rule="evenodd" clip-rule="evenodd" d="M275.386 205.83C276.037 205.83 276.567 205.356 276.567 204.77C276.567 204.183 276.037 203.709 275.386 203.709C274.735 203.709 274.205 204.183 274.205 204.77C274.205 205.356 274.735 205.83 275.386 205.83Z" fill="#449CF4"/>
<path fill-rule="evenodd" clip-rule="evenodd" d="M287.215 205.83C287.867 205.83 288.396 205.356 288.396 204.77C288.396 204.183 287.867 203.709 287.215 203.709C286.566 203.709 286.034 204.183 286.034 204.77C286.034 205.356 286.566 205.83 287.215 205.83Z" fill="#449CF4"/>
<path fill-rule="evenodd" clip-rule="evenodd" d="M299.046 205.83C299.696 205.83 300.225 205.356 300.225 204.77C300.225 204.183 299.696 203.709 299.046 203.709C298.395 203.709 297.863 204.183 297.863 204.77C297.863 205.356 298.395 205.83 299.046 205.83Z" fill="#449CF4"/>
<path fill-rule="evenodd" clip-rule="evenodd" d="M310.874 205.83C311.526 205.83 312.055 205.356 312.055 204.77C312.055 204.183 311.526 203.709 310.874 203.709C310.223 203.709 309.693 204.183 309.693 204.77C309.693 205.356 310.223 205.83 310.874 205.83Z" fill="#449CF4"/>
<path fill-rule="evenodd" clip-rule="evenodd" d="M251.729 216.451C252.378 216.451 252.91 215.976 252.91 215.391C252.91 214.806 252.378 214.33 251.729 214.33C251.077 214.33 250.546 214.806 250.546 215.391C250.546 215.976 251.077 216.451 251.729 216.451Z" fill="#449CF4"/>
<path fill-rule="evenodd" clip-rule="evenodd" d="M263.556 216.451C264.209 216.451 264.739 215.976 264.739 215.391C264.739 214.806 264.209 214.33 263.556 214.33C262.907 214.33 262.377 214.806 262.377 215.391C262.377 215.976 262.907 216.451 263.556 216.451Z" fill="#449CF4"/>
<path fill-rule="evenodd" clip-rule="evenodd" d="M275.386 216.451C276.037 216.451 276.567 215.976 276.567 215.391C276.567 214.806 276.037 214.33 275.386 214.33C274.735 214.33 274.205 214.806 274.205 215.391C274.205 215.976 274.735 216.451 275.386 216.451Z" fill="#449CF4"/>
<path fill-rule="evenodd" clip-rule="evenodd" d="M287.215 216.451C287.867 216.451 288.396 215.976 288.396 215.391C288.396 214.806 287.867 214.33 287.215 214.33C286.566 214.33 286.034 214.806 286.034 215.391C286.034 215.976 286.566 216.451 287.215 216.451Z" fill="#449CF4"/>
<path fill-rule="evenodd" clip-rule="evenodd" d="M299.046 216.451C299.696 216.451 300.225 215.976 300.225 215.391C300.225 214.806 299.696 214.33 299.046 214.33C298.395 214.33 297.863 214.806 297.863 215.391C297.863 215.976 298.395 216.451 299.046 216.451Z" fill="#449CF4"/>
<path fill-rule="evenodd" clip-rule="evenodd" d="M310.874 216.451C311.526 216.451 312.055 215.976 312.055 215.391C312.055 214.806 311.526 214.33 310.874 214.33C310.223 214.33 309.693 214.806 309.693 215.391C309.693 215.976 310.223 216.451 310.874 216.451Z" fill="#449CF4"/>
<path fill-rule="evenodd" clip-rule="evenodd" d="M251.729 227.072C252.378 227.072 252.91 226.598 252.91 226.012C252.91 225.425 252.378 224.951 251.729 224.951C251.077 224.951 250.546 225.425 250.546 226.012C250.546 226.598 251.077 227.072 251.729 227.072Z" fill="#449CF4"/>
<path fill-rule="evenodd" clip-rule="evenodd" d="M263.556 227.072C264.209 227.072 264.739 226.598 264.739 226.012C264.739 225.425 264.209 224.951 263.556 224.951C262.907 224.951 262.377 225.425 262.377 226.012C262.377 226.598 262.907 227.072 263.556 227.072Z" fill="#449CF4"/>
<path fill-rule="evenodd" clip-rule="evenodd" d="M275.386 227.072C276.037 227.072 276.567 226.598 276.567 226.012C276.567 225.425 276.037 224.951 275.386 224.951C274.735 224.951 274.205 225.425 274.205 226.012C274.205 226.598 274.735 227.072 275.386 227.072Z" fill="#449CF4"/>
<path fill-rule="evenodd" clip-rule="evenodd" d="M287.215 227.072C287.867 227.072 288.396 226.598 288.396 226.012C288.396 225.425 287.867 224.951 287.215 224.951C286.566 224.951 286.034 225.425 286.034 226.012C286.034 226.598 286.566 227.072 287.215 227.072Z" fill="#449CF4"/>
<path fill-rule="evenodd" clip-rule="evenodd" d="M299.046 227.072C299.696 227.072 300.225 226.598 300.225 226.012C300.225 225.425 299.696 224.951 299.046 224.951C298.395 224.951 297.863 225.425 297.863 226.012C297.863 226.598 298.395 227.072 299.046 227.072Z" fill="#449CF4"/>
<path fill-rule="evenodd" clip-rule="evenodd" d="M310.874 227.072C311.526 227.072 312.055 226.598 312.055 226.012C312.055 225.425 311.526 224.951 310.874 224.951C310.223 224.951 309.693 225.425 309.693 226.012C309.693 226.598 310.223 227.072 310.874 227.072Z" fill="#449CF4"/>
</g>
<g opacity="0.2">
<path fill-rule="evenodd" clip-rule="evenodd" d="M98.5975 59.8006H94.996V56.5659C94.996 55.9021 94.3961 55.3644 93.6568 55.3644C92.9186 55.3644 92.3197 55.9021 92.3197 56.5659V59.8006H88.7171C87.9768 59.8006 87.3779 60.3383 87.3779 61.0021C87.3779 61.6659 87.9768 62.2036 88.7171 62.2036H92.3197V65.4383C92.3197 66.1021 92.9186 66.6398 93.6568 66.6398C94.3961 66.6398 94.996 66.1021 94.996 65.4383V62.2036H98.5975C99.3368 62.2036 99.9367 61.6659 99.9367 61.0021C99.9367 60.3383 99.3368 59.8006 98.5975 59.8006Z" fill="#449CF4"/>
<path fill-rule="evenodd" clip-rule="evenodd" d="M301.068 225.299H297.578V222.165C297.578 221.522 296.997 221.001 296.28 221.001C295.565 221.001 294.985 221.522 294.985 222.165V225.299H291.494C290.777 225.299 290.196 225.82 290.196 226.464C290.196 227.107 290.777 227.628 291.494 227.628H294.985V230.762C294.985 231.405 295.565 231.926 296.28 231.926C296.997 231.926 297.578 231.405 297.578 230.762V227.628H301.068C301.784 227.628 302.366 227.107 302.366 226.464C302.366 225.82 301.784 225.299 301.068 225.299Z" fill="#449CF4"/>
<path fill-rule="evenodd" clip-rule="evenodd" d="M315.062 121.87C315.062 122.745 314.272 123.454 313.298 123.454C312.324 123.454 311.533 122.745 311.533 121.87C311.533 120.995 312.324 120.286 313.298 120.286C314.272 120.286 315.062 120.995 315.062 121.87Z" fill="#449CF4"/>
<path fill-rule="evenodd" clip-rule="evenodd" d="M29.4499 33.8559C29.4499 34.8808 28.5244 35.7118 27.383 35.7118C26.2415 35.7118 25.3154 34.8808 25.3154 33.8559C25.3154 32.831 26.2415 32 27.383 32C28.5244 32 29.4499 32.831 29.4499 33.8559Z" fill="#449CF4"/>
<path fill-rule="evenodd" clip-rule="evenodd" d="M254.444 191.731C254.444 192.755 253.519 193.586 252.377 193.586C251.236 193.586 250.31 192.755 250.31 191.731C250.31 190.706 251.236 189.875 252.377 189.875C253.519 189.875 254.444 190.706 254.444 191.731Z" fill="#449CF4"/>
</g>
<path opacity="0.3" d="M226.023 60.0737C217.829 65.0601 212.978 74.2388 213.748 83.8164C214.131 88.7107 215.957 93.4362 220.762 96.0137C233.566 102.895 289.469 103.01 297.744 90.8548C306.018 78.6996 302.94 61.4277 284.947 54.232C269.363 47.9953 247.175 47.1706 226.023 60.0737Z" fill="#E6E6E6"/>
<path opacity="0.51" d="M209.98 121.038C209.98 121.038 209.249 115.069 213.461 114.206C217.673 113.343 217.447 120.175 221.341 117.624C225.235 115.073 222.746 112.193 227.532 109.795C232.318 107.398 233.046 112.438 236.339 113.439C239.632 114.44 240.168 103.735 253.761 107.87C267.353 112.005 267.928 114.436 272.327 110.34C276.727 106.243 284.806 106.919 287.616 114.494C290.427 122.069 296.27 107.394 302.392 111.042C308.515 114.69 305.93 120.247 305.93 120.247L290.806 123.7L258.738 121.59C258.738 121.59 220.927 121.156 220.257 121.038C219.587 120.919 209.98 121.038 209.98 121.038Z" fill="#E6E6E6"/>
<path d="M290.879 68.3895C290.879 68.3895 282.455 70.0963 283.148 77.9786C283.841 85.8608 276.183 90.1683 280.878 94.7174C285.572 99.2664 291.828 96.7081 291.828 96.7081L290.879 68.3895Z" fill="#68C2E9"/>
<path opacity="0.39" d="M290.879 68.3895C290.879 68.3895 282.455 70.0963 283.148 77.9786C283.841 85.8608 276.183 90.1683 280.878 94.7174C285.572 99.2664 291.828 96.7081 291.828 96.7081L290.879 68.3895Z" fill="white"/>
<path d="M297.851 60.5878C297.492 61.5061 297.258 62.4685 297.154 63.4492C297.15 63.5663 297.169 63.6832 297.21 63.793C297.251 63.9027 297.314 64.0033 297.394 64.0888C297.474 64.1744 297.57 64.2432 297.676 64.2914C297.783 64.3396 297.898 64.3662 298.015 64.3697C298.391 64.4063 298.769 64.3331 299.104 64.1588C299.439 63.9845 299.717 63.7167 299.903 63.3878L300.849 62.0568C301.01 61.7695 301.078 61.4392 301.044 61.1115C301.009 60.7838 300.874 60.4748 300.657 60.2272C299.907 59.2568 298.195 59.5636 297.851 60.5878Z" fill="#F4A28C"/>
<path d="M300.42 62.3905L300.348 68.1938L297.158 67.9253L298.495 63.8097L300.42 62.3905Z" fill="#F4A28C"/>
<path d="M300.677 63.4376C300.667 63.4734 300.646 63.5047 300.616 63.5264C300.586 63.548 300.549 63.5587 300.512 63.5565C300.256 63.5528 300.007 63.4654 299.805 63.3076C299.603 63.1498 299.457 62.9302 299.39 62.682C299.311 62.4091 299.312 62.1191 299.394 61.8468C299.475 61.5746 299.634 61.3318 299.85 61.1477C299.305 61.0953 298.768 60.9794 298.249 60.8025C298.074 60.744 297.91 60.6572 297.763 60.5455L297.698 59.1225C297.698 59.1225 297.376 57.6419 298.207 57.5882C299.038 57.5345 299.141 58.4935 299.926 58.0485C300.711 57.6036 300.922 57.4156 301.458 57.9373C301.994 58.4589 301.133 58.7466 302.163 59.042C303.193 59.3373 303.097 59.7669 302.97 60.2387C302.904 60.3962 302.792 60.5299 302.649 60.6222C301.705 61.3223 301.013 62.3102 300.677 63.4376Z" fill="#24285B"/>
<path d="M299.229 62.5784C299.229 62.5784 299.436 61.9264 299.911 62.122C300.386 62.3176 300.095 63.2727 299.402 63.1499L299.229 62.5784Z" fill="#F4A28C"/>
<path d="M297.495 61.6579L296.832 62.1719C296.795 62.201 296.765 62.2391 296.746 62.2827C296.727 62.3262 296.72 62.3739 296.724 62.4212C296.728 62.4685 296.744 62.5141 296.77 62.5536C296.797 62.5931 296.832 62.6254 296.874 62.6475L297.487 62.962L297.495 61.6579Z" fill="#F4A28C"/>
<path opacity="0.31" d="M298.326 64.362C298.782 64.3381 299.224 64.1996 299.612 63.9593C299.612 63.9593 299.413 65.11 297.924 65.5818L298.326 64.362Z" fill="#CE8172"/>
<path d="M294.325 67.6338C299.586 67.7275 304.779 68.8398 309.618 70.9095C310.36 71.2237 311.029 71.687 311.586 72.2707C312.142 72.8544 312.572 73.5461 312.851 74.3032C313.13 75.0602 313.251 75.8664 313.207 76.6721C313.162 77.4777 312.953 78.2657 312.593 78.9874L304.273 95.6149L288.849 94.6982C288.849 94.6982 286.039 85.3545 286.602 74.7873C286.715 72.8258 287.583 70.9846 289.024 69.6507C290.464 68.3167 292.364 67.5938 294.325 67.6338Z" fill="#68C2E9"/>
<path d="M304.273 95.6149L308.867 121.038H306.57L300.792 107.229C298.746 102.341 295.138 98.2706 290.534 95.6571L288.842 94.6943L304.273 95.6149Z" fill="#24285B"/>
<path opacity="0.08" d="M305.547 73.1188C304.454 74.0112 303.61 75.171 303.095 76.4859C302.581 77.8009 302.414 79.2266 302.61 80.6252C303.315 85.4389 304.039 89.1787 299.612 88.0587C295.186 86.9387 292.785 76.6169 292.785 76.6169L287.616 76.7435L288.508 88.2505L291.506 88.4576C292.216 88.506 292.889 88.7869 293.424 89.2569C293.958 89.7268 294.323 90.3598 294.462 91.0582L295.27 95.0741L304.272 95.6072L305.547 93.7086L311.164 87.6061L311.865 77.8942L305.547 73.1188Z" fill="black"/>
<path d="M298.506 72.9337L288.513 73.6144L289.443 87.3259L299.437 86.6452L298.506 72.9337Z" fill="#FFD200"/>
<path d="M288.85 94.6982L291.227 121.038H294.291C294.291 121.038 293.575 101.219 299.104 96.9996L288.85 94.6982Z" fill="#24285B"/>
<path d="M305.203 74.6071C305.223 73.8309 305.482 73.0799 305.945 72.4569C306.407 71.834 307.051 71.3697 307.787 71.1277C308.524 70.8857 309.317 70.8779 310.058 71.1053C310.799 71.3326 311.452 71.7841 311.927 72.3977C313.696 74.6608 315.327 78.435 315.193 84.6334C314.906 97.8664 307.152 101.414 295.187 86.9348L297.541 85.1129C297.541 85.1129 302.255 89.1173 306.57 89.1749C309.783 89.2286 304.973 80.9205 305.203 74.6071Z" fill="#68C2E9"/>
<path opacity="0.39" d="M305.203 74.6071C305.223 73.8309 305.482 73.0799 305.945 72.4569C306.407 71.834 307.051 71.3697 307.787 71.1277C308.524 70.8857 309.317 70.8779 310.058 71.1053C310.799 71.3326 311.452 71.7841 311.927 72.3977C313.696 74.6608 315.327 78.435 315.193 84.6334C314.906 97.8664 307.152 101.414 295.187 86.9348L297.541 85.1129C297.541 85.1129 302.255 89.1173 306.57 89.1749C309.783 89.2286 304.973 80.9205 305.203 74.6071Z" fill="white"/>
<path opacity="0.08" d="M288.938 79.881C288.938 79.881 292.384 86.2214 299.276 84.4301L299.425 86.651L289.431 87.3299L288.938 79.881Z" fill="black"/>
<path d="M297.108 85.4389C297.108 85.4389 295.699 82.9457 293.976 83.6055C292.253 84.2652 295.186 86.9271 295.186 86.9271L297.108 85.4389Z" fill="#F4A28C"/>
<path d="M251.674 99.0056L253.853 113.769C253.853 113.769 245.705 106.408 240.451 113.439C238.602 115.921 236.814 117.225 230.304 114.759C223.795 112.292 217.864 113.439 216.715 119.101C215.567 124.762 211.163 114.881 206.377 119.914C201.591 124.946 206.76 127.056 221.119 125.33C235.477 123.604 243.901 130.508 255.675 126.672C267.449 122.836 273.384 126.864 282.574 126.48C291.763 126.097 294.826 127.056 307.462 123.412C320.098 119.768 312.631 114.183 308.228 113.439C303.824 112.695 303.549 119.779 298.517 118.042C293.486 116.304 293.103 110.202 286.786 111.341C280.468 112.48 283.148 119.576 278.553 116.891C275.027 114.835 276.443 111.56 271.738 110.148C270.111 109.677 268.394 109.612 266.736 109.959C265.078 110.305 263.53 111.052 262.227 112.135L260.27 113.735L260.94 98.0966L251.674 99.0056Z" fill="#E6E6E6"/>
<path d="M246.007 64.3428L230.309 81.8909H247.409L246.007 64.3428Z" fill="#FFD200"/>
<path d="M265.179 64.3428L280.878 81.8909H263.777L265.179 64.3428Z" fill="#FFD200"/>
<path opacity="0.58" d="M212.829 91.8253C212.829 91.8253 209.643 92.6806 207.549 90.4674C207.549 90.4674 211.305 87.1151 213.993 91.4455L212.829 91.8253Z" fill="#68C2E9"/>
<path opacity="0.73" d="M213.005 91.3535C213.005 91.3535 209.314 89.4357 209.345 85.6C209.345 85.6 213.787 85.765 214.579 90.4406L213.005 91.3535Z" fill="#68C2E9"/>
<path d="M213.503 91.0658C213.503 91.0658 212.645 87.2608 215.356 84.8597C215.356 84.8597 217.148 86.6087 215.605 89.846L213.503 91.0658Z" fill="#68C2E9"/>
<path d="M211.466 92.159L214.249 95.6532L217.768 93.6127L216.061 89.497L211.466 92.159Z" fill="#24285B"/>
<path d="M255.254 36.262V36.1584L255.2 36.2083L255.146 36.1584V36.2658C253.783 37.639 240.098 52.6786 247.982 95.3617H263.137C271.017 52.6326 256.651 37.6045 255.254 36.262Z" fill="#68C2E9"/>
<path opacity="0.11" d="M264.424 57.9335L264.86 60.956C260.765 62.6574 256.328 63.3709 251.907 63.0387C250.728 62.9322 249.542 63.1257 248.457 63.6011C247.373 64.0765 246.426 64.8184 245.704 65.7582C245.704 65.7582 246.148 59.5406 246.447 58.1099L264.424 57.9335Z" fill="#3B1E59"/>
<path d="M255.254 36.262V36.1584L255.2 36.2083L255.146 36.1584V36.2658C253.783 37.639 240.098 52.6786 247.982 95.3617H263.137C271.017 52.6326 256.651 37.6045 255.254 36.262Z" fill="#FFF8DC"/>
<path opacity="0.08" d="M249.932 71.9374L245.72 76.6898C245.821 80.9241 246.247 85.1442 246.995 89.3129L257.658 81.3808L249.932 71.9374Z" fill="black"/>
<path d="M247.408 92.0745L247.983 95.3617H263.272L263.877 92.0745H247.408Z" fill="#FFD200"/>
<path d="M247.194 54.2052L247.163 54.2935C246.733 55.4209 246.505 56.6154 246.489 57.8223L246.447 58.1023C246.447 58.1023 254.951 62.939 264.424 57.9258C264.471 57.7585 264.493 57.5854 264.489 57.4118C264.455 56.3052 264.213 55.2149 263.777 54.1976H247.194V54.2052Z" fill="#FFD200"/>
<path opacity="0.13" d="M247.408 92.0745L247.983 95.3617H263.272L263.877 92.0745H247.408Z" fill="black"/>
<path opacity="0.13" d="M247.194 54.2052L247.163 54.2935C246.733 55.4209 246.505 56.6154 246.489 57.8223L246.447 58.1023C246.447 58.1023 254.951 62.939 264.424 57.9258C264.471 57.7585 264.493 57.5854 264.489 57.4118C264.455 56.3052 264.213 55.2149 263.777 54.1976H247.194V54.2052Z" fill="black"/>
<path d="M247.193 54.2053C247.193 54.2053 255.234 57.9489 263.777 54.2053C263.777 54.2053 262.387 40.5964 255.483 34.2599C255.483 34.2522 249.694 38.8282 247.193 54.2053Z" fill="#FFD200"/>
<path d="M255.675 81.8909C259.323 81.8909 262.28 78.9286 262.28 75.2744C262.28 71.6202 259.323 68.6579 255.675 68.6579C252.027 68.6579 249.07 71.6202 249.07 75.2744C249.07 78.9286 252.027 81.8909 255.675 81.8909Z" fill="#24285B"/>
<path d="M255.916 71.7072C256.111 71.7072 256.173 71.7763 256.173 71.9719V72.3976C256.515 72.4355 256.841 72.5653 257.116 72.7732C257.391 72.9811 257.605 73.2595 257.735 73.579C257.838 73.7823 257.796 73.8935 257.566 73.9971L257.149 74.1851C256.954 74.2771 256.862 74.2349 256.766 74.0316C256.68 73.8194 256.527 73.6409 256.331 73.5227C256.135 73.4045 255.906 73.353 255.679 73.3757C254.955 73.3757 254.626 73.5867 254.626 74.0738C254.642 74.2223 254.709 74.3606 254.816 74.4648C254.923 74.5691 255.063 74.6329 255.212 74.6453C255.413 74.6869 255.616 74.7176 255.82 74.7374C256.212 74.7539 256.599 74.8289 256.969 74.9598C257.15 75.0188 257.319 75.1112 257.467 75.2322C257.618 75.3895 257.737 75.576 257.814 75.7804C257.892 75.9847 257.927 76.2027 257.919 76.4212C257.919 77.3495 257.298 77.9785 256.203 78.1434V78.5845C256.203 78.7802 256.142 78.8492 255.947 78.8492H255.48C255.284 78.8492 255.215 78.7802 255.215 78.5845V78.1511C254.834 78.1269 254.469 77.989 254.167 77.7552C253.865 77.5215 253.639 77.2025 253.519 76.8393C253.45 76.6514 253.519 76.5248 253.714 76.4558L254.128 76.3023C254.342 76.2256 254.434 76.2755 254.53 76.4903C254.616 76.7196 254.775 76.914 254.983 77.0431C255.191 77.1722 255.435 77.2286 255.679 77.2037C256.445 77.2037 256.854 76.9582 256.854 76.4366C256.859 76.318 256.824 76.2011 256.755 76.105C256.685 76.0089 256.585 75.9392 256.471 75.9073C256.2 75.8129 255.916 75.7586 255.629 75.7462C255.236 75.7251 254.848 75.6423 254.48 75.5007C254.301 75.4368 254.133 75.3421 253.986 75.2207C253.836 75.0703 253.717 74.8907 253.638 74.6928C253.559 74.495 253.521 74.283 253.527 74.07C253.527 73.1494 254.105 72.5357 255.192 72.3938V71.9757C255.192 71.7801 255.261 71.7111 255.457 71.7111L255.916 71.7072Z" fill="white"/>
<path d="M247.983 95.3618L238.858 106.408L257.973 99.8265V95.3618H247.983Z" fill="#FFD200"/>
<path d="M263.203 95.3618L272.327 106.408L253.213 99.8265V95.3618H263.203Z" fill="#FFD200"/>
<path d="M212.661 109.093C214.141 109.093 215.341 107.891 215.341 106.408C215.341 104.925 214.141 103.723 212.661 103.723C211.18 103.723 209.98 104.925 209.98 106.408C209.98 107.891 211.18 109.093 212.661 109.093Z" fill="#E6E6E6"/>
<path d="M222.877 48.774C224.357 48.774 225.557 47.5719 225.557 46.089C225.557 44.6061 224.357 43.4041 222.877 43.4041C221.396 43.4041 220.196 44.6061 220.196 46.089C220.196 47.5719 221.396 48.774 222.877 48.774Z" fill="#E6E6E6"/>
<path d="M317.386 106.408C318.867 106.408 320.067 105.206 320.067 103.723C320.067 102.241 318.867 101.039 317.386 101.039C315.906 101.039 314.706 102.241 314.706 103.723C314.706 105.206 315.906 106.408 317.386 106.408Z" fill="#E6E6E6"/>
<path d="M280.877 68.6809C281.723 68.6809 282.409 67.994 282.409 67.1466C282.409 66.2993 281.723 65.6124 280.877 65.6124C280.031 65.6124 279.346 66.2993 279.346 67.1466C279.346 67.994 280.031 68.6809 280.877 68.6809Z" fill="#E6E6E6"/>
<path d="M203.134 71.458C203.98 71.458 204.666 70.7711 204.666 69.9237C204.666 69.0764 203.98 68.3895 203.134 68.3895C202.288 68.3895 201.603 69.0764 201.603 69.9237C201.603 70.7711 202.288 71.458 203.134 71.458Z" fill="#E6E6E6"/>
<path d="M273.859 35.7864C274.705 35.7864 275.39 35.0995 275.39 34.2522C275.39 33.4048 274.705 32.7179 273.859 32.7179C273.013 32.7179 272.327 33.4048 272.327 34.2522C272.327 35.0995 273.013 35.7864 273.859 35.7864Z" fill="#E6E6E6"/>
<path d="M293.746 42.0539V49.7252H298.693L299.777 52.7784L301.056 49.7252H306.003V42.0539H293.746Z" fill="#E6E6E6"/>
<path opacity="0.12" d="M299.256 47.6002H299.23C299.175 47.5977 299.121 47.5834 299.072 47.5583C299.023 47.5331 298.98 47.4977 298.946 47.4545L297.652 45.786C297.621 45.7462 297.598 45.7007 297.585 45.652C297.572 45.6034 297.568 45.5526 297.574 45.5026C297.58 45.4526 297.596 45.4042 297.621 45.3604C297.646 45.3165 297.679 45.278 297.719 45.247C297.759 45.2161 297.804 45.1932 297.853 45.1798C297.901 45.1664 297.952 45.1628 298.002 45.169C298.052 45.1752 298.1 45.1913 298.144 45.2162C298.188 45.2411 298.226 45.2744 298.257 45.3142L299.272 46.626L301.784 43.9103C301.854 43.8439 301.948 43.8069 302.045 43.8068C302.142 43.8067 302.235 43.8435 302.306 43.9097C302.377 43.976 302.42 44.0667 302.427 44.1637C302.434 44.2606 302.404 44.3565 302.343 44.432L299.536 47.466C299.501 47.5066 299.459 47.5396 299.41 47.5627C299.362 47.5858 299.31 47.5986 299.256 47.6002Z" fill="black"/>
<path d="M6.83306 213.779L40.3227 222.147L66.712 204.796L97.5222 206.175L119.754 168.589L156.754 190.959L186.02 184.051L220.271 197.389L242.7 163.258L266.911 134.062L299.193 138.183L325.433 121.073" stroke="#FDCC5E" stroke-width="0.801878" stroke-linecap="round" stroke-linejoin="round"/>
<circle cx="7.46433" cy="213.836" r="2.00469" transform="rotate(-13.2803 7.46433 213.836)" fill="#FDCC5E"/>
<circle cx="40.7124" cy="222.055" r="2.00469" transform="rotate(-13.2803 40.7124 222.055)" fill="#FDCC5E"/>
<circle cx="67.4917" cy="204.612" r="2.00469" transform="rotate(-13.2803 67.4917 204.612)" fill="#FDCC5E"/>
<circle cx="97.5219" cy="206.175" r="2.00469" transform="rotate(-13.2803 97.5219 206.175)" fill="#FDCC5E"/>
<circle cx="119.696" cy="169.22" r="2.00469" transform="rotate(-13.2803 119.696 169.22)" fill="#FDCC5E"/>
<circle cx="156.949" cy="190.913" r="2.00469" transform="rotate(-13.2803 156.949 190.913)" fill="#FDCC5E"/>
<circle cx="186.698" cy="184.303" r="2.00469" transform="rotate(-13.2803 186.698 184.303)" fill="#FDCC5E"/>
<circle cx="219.789" cy="197.091" r="2.00469" transform="rotate(-13.2803 219.789 197.091)" fill="#FDCC5E"/>
<circle cx="242.998" cy="162.776" r="2.00469" transform="rotate(-13.2803 242.998 162.776)" fill="#FDCC5E"/>
<circle cx="267.199" cy="134.406" r="2.00469" transform="rotate(-13.2803 267.199 134.406)" fill="#FDCC5E"/>
<circle cx="298.952" cy="138.034" r="2.00469" transform="rotate(-13.2803 298.952 138.034)" fill="#FDCC5E"/>
<circle cx="325.731" cy="120.591" r="2.00469" transform="rotate(-13.2803 325.731 120.591)" fill="#FDCC5E"/>
</svg>
