<svg width="211" height="159" viewBox="0 0 211 159" fill="none" xmlns="http://www.w3.org/2000/svg">
<path opacity="0.45" d="M109.088 144.359C153.279 144.359 189.103 139.473 189.103 133.446C189.103 127.418 153.279 122.532 109.088 122.532C64.897 122.532 29.073 127.418 29.073 133.446C29.073 139.473 64.897 144.359 109.088 144.359Z" fill="#E6E6E6"/>
<path d="M79.6301 104.319H52.7351V133.446H79.6301V104.319Z" fill="#E6E6E6"/>
<path d="M122.536 88.3124H95.6406V133.446H122.536V88.3124Z" fill="#C9C9C9"/>
<path d="M130.815 96.9609C130.815 96.9609 131.933 98.8466 133.794 98.6517C135.656 98.4568 136.484 100.153 134.923 100.932C133.362 101.712 128.711 100.406 128.711 100.406L128.321 97.7405L130.815 96.9609Z" fill="#68E1FD"/>
<path d="M121.075 44.6644C121.075 44.6644 132.149 51.0586 133.204 64.1525C134.259 77.2463 129.639 80.4803 118.438 77.1884C107.237 73.8965 121.075 44.6644 121.075 44.6644Z" fill="#68E1FD"/>
<path opacity="0.3" d="M121.075 44.6644C121.075 44.6644 132.149 51.0586 133.204 64.1525C134.259 77.2463 129.639 80.4803 118.438 77.1884C107.237 73.8965 121.075 44.6644 121.075 44.6644Z" fill="white"/>
<path d="M114.151 105.52C114.151 105.52 113.623 107.627 115.063 108.817C116.503 110.007 115.907 111.772 114.251 111.229C112.595 110.687 110.217 106.489 110.217 106.489L111.825 104.329L114.151 105.52Z" fill="#68E1FD"/>
<path d="M105.175 28.3472C105.175 28.3472 106.726 31.618 106.984 34.0777C107.009 34.3155 106.988 34.5559 106.92 34.7852C106.852 35.0145 106.739 35.2281 106.588 35.4137C106.437 35.5992 106.251 35.7531 106.04 35.8664C105.829 35.9798 105.598 36.0503 105.36 36.0739C104.115 36.1898 102.401 35.9844 101.362 34.3305L99.253 31.7392C98.8848 31.1764 98.7007 30.5133 98.7262 29.8415C98.7517 29.1697 98.9855 28.5224 99.3953 27.989C100.793 25.9086 104.337 26.3036 105.175 28.3472Z" fill="#F4A28C"/>
<path d="M100.044 32.3344L99.1951 44.1588L105.755 44.1641L103.788 35.7737L100.044 32.3344Z" fill="#F4A28C"/>
<path d="M104.416 28.7949C103.382 29.226 102.3 29.5336 101.194 29.7114C101.668 30.0609 102.029 30.5414 102.234 31.0935C102.438 31.6457 102.476 32.2454 102.343 32.8189C102.225 33.3767 101.916 33.876 101.47 34.2314C101.023 34.5869 100.467 34.7765 99.8964 34.7677L98.3143 30.3855C98.0707 29.7662 97.9994 29.0926 98.108 28.436C98.2166 27.7795 98.5011 27.1646 98.9313 26.6565C99.3009 26.2149 99.6991 25.7979 100.123 25.4082C101.178 24.4391 103.345 24.5971 104.157 23.333C104.24 23.2072 104.354 23.1049 104.488 23.036C104.622 22.9672 104.772 22.934 104.923 22.9399C105.073 22.9457 105.22 22.9903 105.348 23.0693C105.476 23.1483 105.582 23.2591 105.655 23.3909C106.341 24.6445 106.879 26.8198 105.349 28.205C105.073 28.4524 104.758 28.6518 104.416 28.7949Z" fill="#24285B"/>
<path d="M102.644 32.5819C102.644 32.5819 102.117 31.2862 101.188 31.7497C100.26 32.2132 100.967 34.0935 102.37 33.7722L102.644 32.5819Z" fill="#F4A28C"/>
<path d="M106.045 30.454L107.474 31.4126C107.557 31.4648 107.625 31.5371 107.673 31.6228C107.72 31.7084 107.745 31.8046 107.745 31.9024C107.745 32.0002 107.72 32.0964 107.673 32.1821C107.625 32.2677 107.557 32.34 107.474 32.3922L106.261 33.1138L106.045 30.454Z" fill="#F4A28C"/>
<path opacity="0.31" d="M103.846 36.0107C103.064 35.865 102.336 35.5121 101.737 34.9889C101.737 34.9889 101.31 37.5487 104.432 38.4125L103.846 36.0107Z" fill="#CE8172"/>
<path d="M99.2371 42.8473C105.36 42.0309 112.3 41.9098 118.127 43.2792C119.787 43.659 121.276 44.5748 122.363 45.885C123.45 47.1951 124.074 48.8265 124.139 50.5266C124.402 58.285 124.097 73.3224 118.754 84.3252L98.5146 86.9587C98.5146 86.9587 90.0401 74.4337 86.4857 61.0976C84.1918 52.4017 85.6789 44.6644 99.2371 42.8473Z" fill="#68E1FD"/>
<path opacity="0.08" d="M101.252 52.9021C101.252 52.9021 98.7099 68.245 109.631 75.8822L98.557 86.943C98.557 86.943 89.8082 72.6166 87.8517 65.3797C85.9585 58.5694 96.7481 51.6749 101.252 52.9021Z" fill="black"/>
<path d="M98.5146 86.9588C98.5146 86.9588 112.426 69.1773 120.073 75.4345C127.719 81.6917 132.202 96.9661 132.202 96.9661L126 99.073C126 99.073 122.182 88.5389 114.272 85.7737C114.272 85.7737 102.538 99.3363 98.5146 86.9588Z" fill="#24285B"/>
<path d="M120.384 89.9662L115.358 106.821L109.61 104.814L112.426 85.7684C112.426 85.7684 117.795 83.2192 120.384 89.9662Z" fill="#24285B"/>
<path d="M107.232 73.886L106.193 58.6169L127.266 55.1301L127.835 73.5911L101.146 81.0281L100.35 76.8514L107.232 73.886Z" fill="#FFD200"/>
<path d="M101.51 49.7366C100.798 44.9278 95.145 42.605 91.0949 45.2965C83.6645 50.2317 70.6917 60.5129 70.4227 72.348C70.0377 88.9497 89.1595 85.1311 102.238 78.068L100.656 73.3013C100.656 73.3013 83.5749 77.8783 82.2407 71.5842C81.1807 66.4647 103.008 59.8124 101.51 49.7366Z" fill="#68E1FD"/>
<path opacity="0.3" d="M101.51 49.7366C100.798 44.9278 95.145 42.605 91.0949 45.2965C83.6645 50.2317 70.6917 60.5129 70.4227 72.348C70.0377 88.9497 89.1595 85.1311 102.238 78.068L100.656 73.3013C100.656 73.3013 83.5749 77.8783 82.2407 71.5842C81.1807 66.4647 103.008 59.8124 101.51 49.7366Z" fill="white"/>
<path d="M72.2578 29.2216H25.3235V53.1286H72.2578V29.2216Z" fill="#24285B"/>
<path d="M54.5809 34.9943H34.937V39.3712H54.5809V34.9943Z" fill="white"/>
<path opacity="0.24" d="M54.5809 42.1995H34.937V46.5764H54.5809V42.1995Z" fill="white"/>
<path d="M58.9316 43.8482L62.8868 35.916L66.9738 43.8482H58.9316Z" fill="#68E1FD"/>
<path d="M186.604 32.092H139.669V55.9991H186.604V32.092Z" fill="#24285B"/>
<path d="M168.921 37.8647H149.278V42.2416H168.921V37.8647Z" fill="white"/>
<path opacity="0.24" d="M168.921 45.0753H149.278V49.4522H168.921V45.0753Z" fill="white"/>
<path d="M181.314 40.0822L177.359 48.0143L173.272 40.0822H181.314Z" fill="#FFD200"/>
<path d="M118.132 67.5866C119.224 67.5866 120.11 66.7023 120.11 65.6115C120.11 64.5207 119.224 63.6364 118.132 63.6364C117.04 63.6364 116.155 64.5207 116.155 65.6115C116.155 66.7023 117.04 67.5866 118.132 67.5866Z" fill="white"/>
<path d="M100.946 74.0967C100.946 74.0967 104.864 70.8048 106.747 74.0967L101.948 77.1622L100.946 74.0967Z" fill="#F4A28C"/>
<g clip-path="url(#clip0)">
<path opacity="0.3" d="M147.903 101.836C143.773 104.344 141.328 108.962 141.716 113.78C141.909 116.242 142.829 118.619 145.251 119.916C151.706 123.377 179.885 123.435 184.056 117.32C188.227 111.206 186.675 102.517 177.605 98.897C169.75 95.7595 158.565 95.3446 147.903 101.836Z" fill="#E6E6E6"/>
<path opacity="0.51" d="M139.816 132.504C139.816 132.504 139.448 129.502 141.571 129.068C143.694 128.633 143.58 132.07 145.543 130.787C147.506 129.504 146.251 128.055 148.664 126.849C151.076 125.643 151.443 128.178 153.103 128.682C154.763 129.185 155.033 123.8 161.885 125.88C168.737 127.96 169.026 129.183 171.244 127.123C173.461 125.062 177.534 125.401 178.951 129.212C180.367 133.023 183.312 125.641 186.399 127.476C189.485 129.311 188.182 132.107 188.182 132.107L180.558 133.843L164.394 132.782C164.394 132.782 145.334 132.564 144.997 132.504C144.659 132.444 139.816 132.504 139.816 132.504Z" fill="#E6E6E6"/>
<path d="M160.833 121.421L161.931 128.848C161.931 128.848 157.824 125.145 155.176 128.682C154.244 129.93 153.342 130.586 150.061 129.345C146.78 128.105 143.79 128.682 143.211 131.53C142.632 134.378 140.413 129.407 138 131.939C135.588 134.47 138.193 135.532 145.431 134.663C152.669 133.795 156.915 137.268 162.85 135.339C168.785 133.409 171.776 135.435 176.409 135.242C181.041 135.049 182.585 135.532 188.954 133.699C195.323 131.865 191.56 129.056 189.34 128.682C187.121 128.307 186.982 131.871 184.446 130.997C181.909 130.123 181.716 127.053 178.532 127.626C175.347 128.199 176.698 131.769 174.382 130.418C172.604 129.384 173.319 127.736 170.947 127.026C170.126 126.789 169.261 126.757 168.425 126.931C167.59 127.105 166.809 127.481 166.152 128.026L165.166 128.83L165.504 120.964L160.833 121.421Z" fill="#E6E6E6"/>
<path d="M157.977 103.983L150.063 112.811H158.683L157.977 103.983Z" fill="#FFD200"/>
<path d="M167.64 103.983L175.554 112.811H166.934L167.64 103.983Z" fill="#FFD200"/>
<path d="M162.637 89.857V89.8049L162.61 89.83L162.583 89.8049V89.859C161.896 90.5497 154.998 98.1155 158.972 119.588H166.612C170.584 98.0924 163.342 90.5324 162.637 89.857Z" fill="#68C2E9"/>
<path opacity="0.11" d="M167.26 100.759L167.48 102.28C165.416 103.135 163.179 103.494 160.951 103.327C160.356 103.274 159.758 103.371 159.212 103.61C158.665 103.849 158.188 104.223 157.824 104.695C157.824 104.695 158.048 101.568 158.198 100.848L167.26 100.759Z" fill="#3B1E59"/>
<path d="M162.637 89.857V89.8049L162.61 89.83L162.583 89.8049V89.859C161.896 90.5497 154.998 98.1155 158.972 119.588H166.612C170.584 98.0924 163.342 90.5324 162.637 89.857Z" fill="#FFF8DC"/>
<path opacity="0.08" d="M159.955 107.804L157.832 110.195C157.883 112.325 158.098 114.448 158.475 116.545L163.85 112.554L159.955 107.804Z" fill="black"/>
<path d="M158.683 117.934L158.972 119.588H166.679L166.984 117.934H158.683Z" fill="#FFD200"/>
<path d="M158.575 98.8835L158.559 98.9279C158.343 99.495 158.228 100.096 158.22 100.703L158.198 100.844C158.198 100.844 162.485 103.277 167.26 100.755C167.284 100.671 167.295 100.584 167.293 100.497C167.276 99.9399 167.154 99.3914 166.934 98.8796H158.575V98.8835Z" fill="#FFD200"/>
<path opacity="0.13" d="M158.683 117.934L158.972 119.588H166.679L166.984 117.934H158.683Z" fill="black"/>
<path opacity="0.13" d="M158.575 98.8835L158.559 98.9279C158.343 99.495 158.228 100.096 158.22 100.703L158.198 100.844C158.198 100.844 162.485 103.277 167.26 100.755C167.284 100.671 167.295 100.584 167.293 100.497C167.276 99.9399 167.154 99.3914 166.934 98.8796H158.575V98.8835Z" fill="black"/>
<path d="M158.575 98.8836C158.575 98.8836 162.628 100.767 166.934 98.8836C166.934 98.8836 166.233 92.0375 162.753 88.8499C162.753 88.846 159.835 91.148 158.575 98.8836Z" fill="#FFD200"/>
<path d="M162.85 112.811C164.689 112.811 166.179 111.321 166.179 109.483C166.179 107.644 164.689 106.154 162.85 106.154C161.011 106.154 159.521 107.644 159.521 109.483C159.521 111.321 161.011 112.811 162.85 112.811Z" fill="#24285B"/>
<path d="M162.972 107.688C163.07 107.688 163.101 107.723 163.101 107.821V108.035C163.274 108.054 163.438 108.12 163.576 108.224C163.715 108.329 163.823 108.469 163.888 108.63C163.94 108.732 163.919 108.788 163.803 108.84L163.593 108.935C163.495 108.981 163.448 108.96 163.4 108.857C163.357 108.751 163.28 108.661 163.181 108.601C163.082 108.542 162.967 108.516 162.852 108.527C162.487 108.527 162.321 108.634 162.321 108.879C162.329 108.953 162.363 109.023 162.417 109.075C162.471 109.128 162.542 109.16 162.616 109.166C162.718 109.187 162.82 109.203 162.923 109.212C163.121 109.221 163.316 109.259 163.502 109.324C163.594 109.354 163.679 109.4 163.753 109.461C163.83 109.541 163.889 109.634 163.928 109.737C163.968 109.84 163.985 109.95 163.981 110.06C163.981 110.526 163.668 110.843 163.116 110.926V111.148C163.116 111.246 163.085 111.281 162.987 111.281H162.752C162.653 111.281 162.618 111.246 162.618 111.148V110.93C162.426 110.918 162.242 110.848 162.09 110.731C161.938 110.613 161.824 110.453 161.763 110.27C161.729 110.175 161.763 110.112 161.862 110.077L162.07 110C162.178 109.961 162.225 109.986 162.273 110.094C162.316 110.21 162.396 110.307 162.501 110.372C162.606 110.437 162.729 110.466 162.852 110.453C163.238 110.453 163.444 110.33 163.444 110.067C163.447 110.008 163.429 109.949 163.394 109.9C163.359 109.852 163.309 109.817 163.251 109.801C163.115 109.754 162.972 109.726 162.827 109.72C162.629 109.709 162.433 109.668 162.248 109.596C162.157 109.564 162.073 109.517 161.999 109.456C161.923 109.38 161.863 109.29 161.823 109.19C161.783 109.091 161.764 108.984 161.767 108.877C161.767 108.414 162.059 108.105 162.607 108.034V107.823C162.607 107.725 162.642 107.69 162.74 107.69L162.972 107.688Z" fill="white"/>
<path d="M158.972 119.588L154.373 125.145L164.008 121.834V119.588H158.972Z" fill="#FFD200"/>
<path d="M166.644 119.588L171.244 125.145L161.609 121.834V119.588H166.644Z" fill="#FFD200"/>
<path d="M141.167 126.496C141.914 126.496 142.519 125.891 142.519 125.145C142.519 124.399 141.914 123.794 141.167 123.794C140.421 123.794 139.816 124.399 139.816 125.145C139.816 125.891 140.421 126.496 141.167 126.496Z" fill="#E6E6E6"/>
<path d="M146.317 96.1513C147.063 96.1513 147.668 95.5466 147.668 94.8006C147.668 94.0547 147.063 93.45 146.317 93.45C145.571 93.45 144.966 94.0547 144.966 94.8006C144.966 95.5466 145.571 96.1513 146.317 96.1513Z" fill="#E6E6E6"/>
<path d="M193.957 125.145C194.703 125.145 195.308 124.54 195.308 123.794C195.308 123.048 194.703 122.443 193.957 122.443C193.211 122.443 192.606 123.048 192.606 123.794C192.606 124.54 193.211 125.145 193.957 125.145Z" fill="#E6E6E6"/>
<path d="M175.554 106.166C175.98 106.166 176.326 105.82 176.326 105.394C176.326 104.968 175.98 104.622 175.554 104.622C175.127 104.622 174.781 104.968 174.781 105.394C174.781 105.82 175.127 106.166 175.554 106.166Z" fill="#E6E6E6"/>
<path d="M136.365 107.563C136.792 107.563 137.137 107.217 137.137 106.791C137.137 106.365 136.792 106.019 136.365 106.019C135.939 106.019 135.593 106.365 135.593 106.791C135.593 107.217 135.939 107.563 136.365 107.563Z" fill="#E6E6E6"/>
<path d="M172.016 89.6177C172.442 89.6177 172.788 89.2722 172.788 88.8459C172.788 88.4197 172.442 88.0741 172.016 88.0741C171.59 88.0741 171.244 88.4197 171.244 88.8459C171.244 89.2722 171.59 89.6177 172.016 89.6177Z" fill="#E6E6E6"/>
</g>
<defs>
<clipPath id="clip0">
<rect width="59.9352" height="48.2595" fill="white" transform="translate(135.438 87.9569)"/>
</clipPath>
</defs>
</svg>
