<svg width="1205" height="775" viewBox="0 0 1205 775" fill="none" xmlns="http://www.w3.org/2000/svg">
<path d="M682.807 381.723C704.317 394.812 717.06 418.838 715.057 443.943C714 456.754 709.23 469.123 696.622 475.922C663 493.914 516.217 494.251 494.49 462.429C472.762 430.607 480.847 385.337 528.09 366.476C569.047 350.081 627.277 347.922 682.807 381.723Z" fill="#A9C0F6"/>
<path opacity="0.68" d="M536.395 369.613L552 376.62L542.341 398.112L526.736 391.105L536.395 369.613Z" fill="white"/>
<path d="M631.087 395.464L648.48 403.156C654.813 405.948 661.853 406.727 668.644 405.386C675.435 404.045 681.65 400.65 686.445 395.659L703.567 377.833L710.092 382.331L695.692 404.07C689.61 413.242 681.036 420.488 670.976 424.958C660.916 429.427 649.789 430.935 638.902 429.303L613.62 425.517L631.087 395.464Z" fill="#68C2E9"/>
<path opacity="0.46" d="M631.087 395.464L648.48 403.156C654.813 405.948 661.853 406.727 668.644 405.386C675.435 404.045 681.65 400.65 686.445 395.659L703.567 377.833L710.092 382.331L695.692 404.07C689.61 413.242 681.036 420.488 670.976 424.958C660.916 429.427 649.789 430.935 638.902 429.303L613.62 425.517L631.087 395.464Z" fill="white"/>
<path d="M536.648 410.292C536.648 410.292 517.898 403.613 504.398 418.538C490.898 433.463 484.898 460.517 484.898 460.517C484.898 460.517 526.898 441.027 548.648 460.517C570.398 480.008 607.02 458.681 607.02 458.681L619.23 417.009L628.125 399.317L607.02 390.164L579.023 390.667L567.75 402.458L556.5 412.616L536.648 410.292Z" fill="#FFD200"/>
<path opacity="0.08" d="M536.648 410.292C536.648 410.292 517.898 403.613 504.398 418.538C490.898 433.463 484.898 460.517 484.898 460.517C484.898 460.517 526.898 441.027 548.648 460.517C570.398 480.008 607.02 458.681 607.02 458.681L619.23 417.009L628.125 399.317L607.02 390.164L579.023 390.667L567.75 402.458L556.5 412.616L536.648 410.292Z" fill="black"/>
<path d="M580.988 492.932C580.988 492.932 577.89 495.653 578.903 499.019C579.915 502.384 577.058 504.506 575.07 501.897C573.083 499.289 573.863 490.248 573.863 490.248L579.945 488.156L580.988 492.932Z" fill="#68C2E9"/>
<path d="M528.36 496.552C528.36 496.552 524.348 497.519 523.673 500.975C522.998 504.431 519.488 504.963 518.94 501.725C518.393 498.486 523.313 490.855 523.313 490.855L529.665 491.845L528.36 496.552Z" fill="#68C2E9"/>
<path d="M616.395 460.42L588.81 480.09C574.546 490.262 557.64 496.089 540.135 496.867L528.645 497.377V491.125L547.155 484.918C554.218 482.535 560.62 478.523 565.845 473.209L584.145 454.588L616.395 460.42Z" fill="#24285B"/>
<path opacity="0.08" d="M616.395 460.42L588.81 480.09C574.546 490.262 557.64 496.089 540.135 496.867L528.645 497.377V491.125L547.155 484.918C554.218 482.535 560.62 478.523 565.845 473.209L584.145 454.588L616.395 460.42Z" fill="black"/>
<path opacity="0.75" d="M479.6 489.39L496.758 486.003L501.428 509.64L484.269 513.027L479.6 489.39Z" fill="white"/>
<path opacity="0.75" d="M601.653 496.915L614.787 504.494L604.339 522.581L591.206 515.002L601.653 496.915Z" fill="white"/>
<path d="M635.34 373.71C635.34 373.71 637.26 377.795 637.59 380.861C637.623 381.159 637.597 381.461 637.511 381.748C637.426 382.036 637.285 382.303 637.094 382.535C636.904 382.767 636.67 382.959 636.405 383.099C636.14 383.238 635.849 383.324 635.55 383.35C634.599 383.502 633.625 383.377 632.743 382.99C631.862 382.603 631.11 381.971 630.578 381.169L627.953 377.93C627.486 377.226 627.252 376.393 627.283 375.549C627.314 374.705 627.609 373.891 628.125 373.223C629.88 370.659 634.298 371.161 635.34 373.71Z" fill="#F4A28C"/>
<path d="M629.842 378.462L626.595 392.885L634.672 394.115L633.795 383.125L629.842 378.462Z" fill="#F4A28C"/>
<path d="M634.35 374.272C633.061 374.802 631.714 375.182 630.338 375.404C630.929 375.839 631.379 376.439 631.632 377.128C631.886 377.817 631.931 378.565 631.763 379.279C631.615 379.975 631.229 380.598 630.673 381.041C630.116 381.485 629.422 381.72 628.71 381.708L626.775 376.221C626.471 375.449 626.38 374.61 626.512 373.791C626.644 372.972 626.994 372.203 627.525 371.566C627.992 371.017 628.493 370.499 629.025 370.014C630.36 368.807 633.038 369.009 634.058 367.435C634.16 367.277 634.303 367.149 634.47 367.062C634.637 366.976 634.824 366.935 635.013 366.942C635.201 366.95 635.384 367.006 635.544 367.106C635.704 367.205 635.835 367.345 635.925 367.51C636.78 369.077 637.425 371.791 635.535 373.507C635.184 373.824 634.784 374.083 634.35 374.272Z" fill="#24285B"/>
<path d="M632.167 378.987C632.167 378.987 631.537 377.368 630.36 377.945C629.182 378.523 630.075 380.869 631.86 380.479L632.167 378.987Z" fill="#F4A28C"/>
<path d="M636.412 376.349L638.197 377.54C638.293 377.613 638.37 377.707 638.421 377.815C638.473 377.923 638.498 378.041 638.494 378.161C638.491 378.281 638.458 378.398 638.4 378.502C638.342 378.607 638.26 378.696 638.16 378.762L636.66 379.662L636.412 376.349Z" fill="#F4A28C"/>
<path opacity="0.31" d="M633.645 383.463C632.604 383.354 631.618 382.942 630.81 382.278C630.81 382.278 630.63 384.999 633.945 387.226L633.645 383.463Z" fill="#CE8172"/>
<path d="M634.672 394.115L626.595 392.893C626.595 392.893 585.397 381.281 579.397 405.982C573.397 430.682 574.102 446.994 574.102 446.994L601.897 460.488C601.897 460.488 678.397 429.445 634.672 394.115Z" fill="#68C2E9"/>
<path d="M622.597 415.452L643.662 421.161L635.75 450.325L614.686 444.617L622.597 415.452Z" fill="#24285B"/>
<path d="M631.009 415.613L638.276 417.582L637.207 421.525L629.939 419.556L631.009 415.613Z" fill="#FFD200"/>
<path opacity="0.08" d="M616.725 409.557C616.725 409.557 621.225 420.704 604.335 424.303C587.445 427.901 587.46 439.295 598.522 439.962C609.585 440.63 625.92 434.648 625.627 447.586C625.627 447.586 612.772 456.394 601.897 460.517L574.102 447.024V445.3L572.647 421.199L587.085 407.331L616.725 409.557Z" fill="black"/>
<path d="M618.36 402.353C617.302 394.655 610.057 389.385 602.332 390.262C591.735 391.461 575.67 396.199 568.23 413.185C556.605 439.738 563.73 456.304 619.23 439.962L617.73 433.74C617.73 433.74 580.23 438.238 582.48 426.417C584.377 416.469 620.797 420.172 618.36 402.353Z" fill="#68C2E9"/>
<path opacity="0.46" d="M618.36 402.353C617.302 394.655 610.057 389.385 602.332 390.262C591.735 391.461 575.67 396.199 568.23 413.185C556.605 439.738 563.73 456.304 619.23 439.962L617.73 433.74C617.73 433.74 580.23 438.238 582.48 426.417C584.377 416.469 620.797 420.172 618.36 402.353Z" fill="white"/>
<path d="M629.408 389.07C633.936 390.031 638.123 392.193 641.528 395.329C643.358 396.963 644.804 398.98 645.765 401.236C648.398 408.043 633.765 409.79 616.133 402.916C598.5 396.041 590.633 390.502 576.383 399.647C562.133 408.793 556.133 419.288 536.633 410.292C536.633 410.292 559.883 410.292 567.383 392.691C573.63 378.043 615.443 385.966 629.408 389.07Z" fill="#FFD200"/>
<path d="M617.73 433.74C617.73 433.74 622.898 428.695 626.46 429.445C630.023 430.195 627.96 437.594 619.23 440L617.73 433.74Z" fill="#F4A28C"/>
<path d="M574.103 446.994C574.103 446.994 627.99 453.741 625.628 467.234C623.265 480.728 580.523 494.221 580.523 494.221L577.148 487.474L604.898 467.609C604.898 467.609 557.933 478.823 574.103 446.994Z" fill="#24285B"/>
<path d="M710.093 382.301C710.093 382.301 722.093 380.704 718.838 377.338C715.583 373.972 703.568 377.833 703.568 377.833L710.093 382.301Z" fill="#F4A28C"/>
<path d="M723.18 338.237H699.75C699.75 338.237 697.305 356.731 711.48 356.731C711.48 356.731 725.018 357.173 723.18 338.237Z" fill="#FFD200"/>
<path d="M711.465 341.805C704.995 341.805 699.75 340.308 699.75 338.462C699.75 336.615 704.995 335.119 711.465 335.119C717.935 335.119 723.18 336.615 723.18 338.462C723.18 340.308 717.935 341.805 711.465 341.805Z" fill="#FFD200"/>
<path opacity="0.08" d="M711.465 341.805C704.995 341.805 699.75 340.308 699.75 338.462C699.75 336.615 704.995 335.119 711.465 335.119C717.935 335.119 723.18 336.615 723.18 338.462C723.18 340.308 717.935 341.805 711.465 341.805Z" fill="black"/>
<path d="M705.998 364.602H717.75V376.349H705.998V364.602Z" fill="#24285B"/>
<path d="M710.085 353.08H712.59V364.609H710.085V353.08Z" fill="#FFD200"/>
<path d="M721.5 344.984H725.685C726.896 344.984 728.058 345.465 728.915 346.321C729.771 347.177 730.252 348.338 730.252 349.549V349.549C730.25 350.759 729.768 351.918 728.912 352.772C728.056 353.627 726.895 354.107 725.685 354.107H713.752" stroke="#FFD200" stroke-width="3" stroke-miterlimit="10"/>
<path d="M701.43 344.984H697.245C696.033 344.984 694.872 345.465 694.015 346.321C693.158 347.177 692.677 348.338 692.677 349.549V349.549C692.679 350.759 693.161 351.918 694.018 352.772C694.874 353.627 696.035 354.107 697.245 354.107H709.177" stroke="#FFD200" stroke-width="3" stroke-miterlimit="10"/>
<path opacity="0.46" d="M715.372 352.323C713.148 352.323 711.345 350.52 711.345 348.297C711.345 346.074 713.148 344.272 715.372 344.272C717.597 344.272 719.4 346.074 719.4 348.297C719.4 350.52 717.597 352.323 715.372 352.323Z" fill="white"/>
<path opacity="0.03" d="M1135.48 99.6308C1011.87 99.6308 902.928 4.51108 902.928 -123.268H1059.26C1059.26 -91.1813 1088.56 -56.7038 1135.48 -56.7038V99.6308ZM902.928 -123.268C902.928 -251.048 1011.87 -346.167 1135.48 -346.167V-189.833C1088.56 -189.833 1059.26 -155.355 1059.26 -123.268H902.928ZM1135.48 -346.167C1259.08 -346.167 1368.02 -251.048 1368.02 -123.268H1211.69C1211.69 -155.355 1182.4 -189.833 1135.48 -189.833V-346.167ZM1368.02 -123.268C1368.02 4.51108 1259.08 99.6308 1135.48 99.6308V-56.7038C1182.4 -56.7038 1211.69 -91.1813 1211.69 -123.268H1368.02ZM1135.48 15.8383C1061.23 15.8383 992.307 -41.7663 992.307 -123.268H1148.64C1148.64 -129.72 1145.71 -134.639 1142.97 -137.204C1140.33 -139.687 1137.49 -140.496 1135.48 -140.496V15.8383ZM992.307 -123.268C992.307 -204.77 1061.23 -262.375 1135.48 -262.375V-106.04C1137.49 -106.04 1140.33 -106.85 1142.97 -109.333C1145.71 -111.897 1148.64 -116.816 1148.64 -123.268H992.307ZM1135.48 -262.375C1209.72 -262.375 1278.64 -204.77 1278.64 -123.268H1122.31C1122.31 -116.816 1125.24 -111.897 1127.98 -109.333C1130.63 -106.85 1133.46 -106.04 1135.48 -106.04V-262.375ZM1278.64 -123.268C1278.64 -41.7663 1209.72 15.8383 1135.48 15.8383V-140.496C1133.46 -140.496 1130.63 -139.687 1127.98 -137.204C1125.24 -134.639 1122.31 -129.72 1122.31 -123.268H1278.64Z" fill="#449CF4"/>
<path opacity="0.07" d="M595.309 749.081C423.855 749.081 271.749 617.005 271.749 438.415H506.251C506.251 473.466 538.88 514.579 595.309 514.579V749.081ZM271.749 438.415C271.749 259.826 423.855 127.749 595.309 127.749V362.251C538.88 362.251 506.251 403.364 506.251 438.415H271.749ZM595.309 127.749C766.764 127.749 918.87 259.826 918.87 438.415H684.368C684.368 403.364 651.738 362.251 595.309 362.251V127.749ZM918.87 438.415C918.87 617.005 766.764 749.081 595.309 749.081V514.579C651.738 514.579 684.368 473.466 684.368 438.415H918.87ZM595.309 637.103C489.822 637.103 391.192 555.161 391.192 438.415H625.694C625.694 425.983 620.106 416.112 614.078 410.461C608.181 404.932 601.268 402.601 595.309 402.601V637.103ZM391.192 438.415C391.192 321.669 489.822 239.727 595.309 239.727V474.229C601.268 474.229 608.181 471.898 614.078 466.369C620.106 460.718 625.694 450.847 625.694 438.415H391.192ZM595.309 239.727C700.797 239.727 799.427 321.669 799.427 438.415H564.925C564.925 450.847 570.513 460.718 576.54 466.369C582.438 471.898 589.351 474.229 595.309 474.229V239.727ZM799.427 438.415C799.427 555.161 700.797 637.103 595.309 637.103V402.601C589.351 402.601 582.438 404.932 576.54 410.461C570.513 416.112 564.925 425.983 564.925 438.415H799.427Z" fill="#449CF4"/>
<g opacity="0.1">
<path fill-rule="evenodd" clip-rule="evenodd" d="M628.267 23.542C626.246 23.542 624.592 21.9966 624.592 20.0962C624.592 18.1906 626.246 16.6505 628.267 16.6505C630.294 16.6505 631.948 18.1906 631.948 20.0962C631.948 21.9966 630.294 23.542 628.267 23.542Z" fill="#449CF4"/>
<path fill-rule="evenodd" clip-rule="evenodd" d="M591.461 23.542C589.428 23.542 587.78 21.9966 587.78 20.0962C587.78 18.1906 589.428 16.6505 591.461 16.6505C593.482 16.6505 595.13 18.1906 595.13 20.0962C595.13 21.9966 593.482 23.542 591.461 23.542Z" fill="#449CF4"/>
<path fill-rule="evenodd" clip-rule="evenodd" d="M554.643 23.542C552.616 23.542 550.968 21.9966 550.968 20.0962C550.968 18.1906 552.616 16.6505 554.643 16.6505C556.67 16.6505 558.319 18.1906 558.319 20.0962C558.319 21.9966 556.67 23.542 554.643 23.542Z" fill="#449CF4"/>
<path fill-rule="evenodd" clip-rule="evenodd" d="M517.831 23.542C515.804 23.542 514.155 21.9966 514.155 20.0962C514.155 18.1906 515.804 16.6505 517.831 16.6505C519.852 16.6505 521.506 18.1906 521.506 20.0962C521.506 21.9966 519.852 23.542 517.831 23.542Z" fill="#449CF4"/>
<path fill-rule="evenodd" clip-rule="evenodd" d="M481.013 23.542C478.992 23.542 477.343 21.9966 477.343 20.0962C477.343 18.1906 478.992 16.6505 481.013 16.6505C483.04 16.6505 484.694 18.1906 484.694 20.0962C484.694 21.9966 483.04 23.542 481.013 23.542Z" fill="#449CF4"/>
<path fill-rule="evenodd" clip-rule="evenodd" d="M444.201 23.542C442.174 23.542 440.526 21.9966 440.526 20.0962C440.526 18.1906 442.174 16.6505 444.201 16.6505C446.229 16.6505 447.877 18.1906 447.877 20.0962C447.877 21.9966 446.229 23.542 444.201 23.542Z" fill="#449CF4"/>
<path fill-rule="evenodd" clip-rule="evenodd" d="M628.267 58.0483C626.246 58.0483 624.592 56.5082 624.592 54.6026C624.592 52.7074 626.246 51.1568 628.267 51.1568C630.294 51.1568 631.948 52.7074 631.948 54.6026C631.948 56.5082 630.294 58.0483 628.267 58.0483Z" fill="#449CF4"/>
<path fill-rule="evenodd" clip-rule="evenodd" d="M591.461 58.0483C589.428 58.0483 587.78 56.5082 587.78 54.6026C587.78 52.7074 589.428 51.1568 591.461 51.1568C593.482 51.1568 595.13 52.7074 595.13 54.6026C595.13 56.5082 593.482 58.0483 591.461 58.0483Z" fill="#449CF4"/>
<path fill-rule="evenodd" clip-rule="evenodd" d="M554.643 58.0483C552.616 58.0483 550.968 56.5082 550.968 54.6026C550.968 52.7074 552.616 51.1568 554.643 51.1568C556.67 51.1568 558.319 52.7074 558.319 54.6026C558.319 56.5082 556.67 58.0483 554.643 58.0483Z" fill="#449CF4"/>
<path fill-rule="evenodd" clip-rule="evenodd" d="M517.831 58.0483C515.804 58.0483 514.155 56.5082 514.155 54.6026C514.155 52.7074 515.804 51.1568 517.831 51.1568C519.852 51.1568 521.506 52.7074 521.506 54.6026C521.506 56.5082 519.852 58.0483 517.831 58.0483Z" fill="#449CF4"/>
<path fill-rule="evenodd" clip-rule="evenodd" d="M481.013 58.0483C478.992 58.0483 477.343 56.5082 477.343 54.6026C477.343 52.7074 478.992 51.1568 481.013 51.1568C483.04 51.1568 484.694 52.7074 484.694 54.6026C484.694 56.5082 483.04 58.0483 481.013 58.0483Z" fill="#449CF4"/>
<path fill-rule="evenodd" clip-rule="evenodd" d="M444.201 58.0483C442.174 58.0483 440.526 56.5082 440.526 54.6026C440.526 52.7074 442.174 51.1568 444.201 51.1568C446.229 51.1568 447.877 52.7074 447.877 54.6026C447.877 56.5082 446.229 58.0483 444.201 58.0483Z" fill="#449CF4"/>
<path fill-rule="evenodd" clip-rule="evenodd" d="M628.267 92.5646C626.246 92.5646 624.592 91.0244 624.592 89.1188C624.592 87.2132 626.246 85.6731 628.267 85.6731C630.294 85.6731 631.948 87.2132 631.948 89.1188C631.948 91.0244 630.294 92.5646 628.267 92.5646Z" fill="#449CF4"/>
<path fill-rule="evenodd" clip-rule="evenodd" d="M591.461 92.5646C589.428 92.5646 587.78 91.0244 587.78 89.1188C587.78 87.2132 589.428 85.6731 591.461 85.6731C593.482 85.6731 595.13 87.2132 595.13 89.1188C595.13 91.0244 593.482 92.5646 591.461 92.5646Z" fill="#449CF4"/>
<path fill-rule="evenodd" clip-rule="evenodd" d="M554.643 92.5646C552.616 92.5646 550.968 91.0244 550.968 89.1188C550.968 87.2132 552.616 85.6731 554.643 85.6731C556.67 85.6731 558.319 87.2132 558.319 89.1188C558.319 91.0244 556.67 92.5646 554.643 92.5646Z" fill="#449CF4"/>
<path fill-rule="evenodd" clip-rule="evenodd" d="M517.831 92.5646C515.804 92.5646 514.155 91.0244 514.155 89.1188C514.155 87.2132 515.804 85.6731 517.831 85.6731C519.852 85.6731 521.506 87.2132 521.506 89.1188C521.506 91.0244 519.852 92.5646 517.831 92.5646Z" fill="#449CF4"/>
<path fill-rule="evenodd" clip-rule="evenodd" d="M481.013 92.5646C478.992 92.5646 477.343 91.0244 477.343 89.1188C477.343 87.2132 478.992 85.6731 481.013 85.6731C483.04 85.6731 484.694 87.2132 484.694 89.1188C484.694 91.0244 483.04 92.5646 481.013 92.5646Z" fill="#449CF4"/>
<path fill-rule="evenodd" clip-rule="evenodd" d="M444.201 92.5646C442.174 92.5646 440.526 91.0244 440.526 89.1188C440.526 87.2132 442.174 85.6731 444.201 85.6731C446.229 85.6731 447.877 87.2132 447.877 89.1188C447.877 91.0244 446.229 92.5646 444.201 92.5646Z" fill="#449CF4"/>
<path fill-rule="evenodd" clip-rule="evenodd" d="M628.267 127.076C626.246 127.076 624.592 125.53 624.592 123.635C624.592 121.73 626.246 120.189 628.267 120.189C630.294 120.189 631.948 121.73 631.948 123.635C631.948 125.53 630.294 127.076 628.267 127.076Z" fill="#449CF4"/>
<path fill-rule="evenodd" clip-rule="evenodd" d="M591.461 127.076C589.428 127.076 587.78 125.53 587.78 123.635C587.78 121.73 589.428 120.189 591.461 120.189C593.482 120.189 595.13 121.73 595.13 123.635C595.13 125.53 593.482 127.076 591.461 127.076Z" fill="#449CF4"/>
<path fill-rule="evenodd" clip-rule="evenodd" d="M554.643 127.076C552.616 127.076 550.968 125.53 550.968 123.635C550.968 121.73 552.616 120.189 554.643 120.189C556.67 120.189 558.319 121.73 558.319 123.635C558.319 125.53 556.67 127.076 554.643 127.076Z" fill="#449CF4"/>
<path fill-rule="evenodd" clip-rule="evenodd" d="M517.831 127.076C515.804 127.076 514.155 125.53 514.155 123.635C514.155 121.73 515.804 120.189 517.831 120.189C519.852 120.189 521.506 121.73 521.506 123.635C521.506 125.53 519.852 127.076 517.831 127.076Z" fill="#449CF4"/>
<path fill-rule="evenodd" clip-rule="evenodd" d="M481.013 127.076C478.992 127.076 477.343 125.53 477.343 123.635C477.343 121.73 478.992 120.189 481.013 120.189C483.04 120.189 484.694 121.73 484.694 123.635C484.694 125.53 483.04 127.076 481.013 127.076Z" fill="#449CF4"/>
<path fill-rule="evenodd" clip-rule="evenodd" d="M444.201 127.076C442.174 127.076 440.526 125.53 440.526 123.635C440.526 121.73 442.174 120.189 444.201 120.189C446.229 120.189 447.877 121.73 447.877 123.635C447.877 125.53 446.229 127.076 444.201 127.076Z" fill="#449CF4"/>
<path fill-rule="evenodd" clip-rule="evenodd" d="M628.267 161.587C626.246 161.587 624.592 160.047 624.592 158.142C624.592 156.241 626.246 154.696 628.267 154.696C630.294 154.696 631.948 156.241 631.948 158.142C631.948 160.047 630.294 161.587 628.267 161.587Z" fill="#449CF4"/>
<path fill-rule="evenodd" clip-rule="evenodd" d="M591.461 161.587C589.428 161.587 587.78 160.047 587.78 158.142C587.78 156.241 589.428 154.696 591.461 154.696C593.482 154.696 595.13 156.241 595.13 158.142C595.13 160.047 593.482 161.587 591.461 161.587Z" fill="#449CF4"/>
<path fill-rule="evenodd" clip-rule="evenodd" d="M554.643 161.587C552.616 161.587 550.968 160.047 550.968 158.142C550.968 156.241 552.616 154.696 554.643 154.696C556.67 154.696 558.319 156.241 558.319 158.142C558.319 160.047 556.67 161.587 554.643 161.587Z" fill="#449CF4"/>
<path fill-rule="evenodd" clip-rule="evenodd" d="M517.831 161.587C515.804 161.587 514.155 160.047 514.155 158.142C514.155 156.241 515.804 154.696 517.831 154.696C519.852 154.696 521.506 156.241 521.506 158.142C521.506 160.047 519.852 161.587 517.831 161.587Z" fill="#449CF4"/>
<path fill-rule="evenodd" clip-rule="evenodd" d="M481.013 161.587C478.992 161.587 477.343 160.047 477.343 158.142C477.343 156.241 478.992 154.696 481.013 154.696C483.04 154.696 484.694 156.241 484.694 158.142C484.694 160.047 483.04 161.587 481.013 161.587Z" fill="#449CF4"/>
<path fill-rule="evenodd" clip-rule="evenodd" d="M444.201 161.587C442.174 161.587 440.526 160.047 440.526 158.142C440.526 156.241 442.174 154.696 444.201 154.696C446.229 154.696 447.877 156.241 447.877 158.142C447.877 160.047 446.229 161.587 444.201 161.587Z" fill="#449CF4"/>
<path fill-rule="evenodd" clip-rule="evenodd" d="M628.267 196.103C626.246 196.103 624.592 194.563 624.592 192.658C624.592 190.752 626.246 189.212 628.267 189.212C630.294 189.212 631.948 190.752 631.948 192.658C631.948 194.563 630.294 196.103 628.267 196.103Z" fill="#449CF4"/>
<path fill-rule="evenodd" clip-rule="evenodd" d="M591.461 196.103C589.428 196.103 587.78 194.563 587.78 192.658C587.78 190.752 589.428 189.212 591.461 189.212C593.482 189.212 595.13 190.752 595.13 192.658C595.13 194.563 593.482 196.103 591.461 196.103Z" fill="#449CF4"/>
<path fill-rule="evenodd" clip-rule="evenodd" d="M554.643 196.103C552.616 196.103 550.968 194.563 550.968 192.658C550.968 190.752 552.616 189.212 554.643 189.212C556.67 189.212 558.319 190.752 558.319 192.658C558.319 194.563 556.67 196.103 554.643 196.103Z" fill="#449CF4"/>
<path fill-rule="evenodd" clip-rule="evenodd" d="M517.831 196.103C515.804 196.103 514.155 194.563 514.155 192.658C514.155 190.752 515.804 189.212 517.831 189.212C519.852 189.212 521.506 190.752 521.506 192.658C521.506 194.563 519.852 196.103 517.831 196.103Z" fill="#449CF4"/>
<path fill-rule="evenodd" clip-rule="evenodd" d="M481.013 196.103C478.992 196.103 477.343 194.563 477.343 192.658C477.343 190.752 478.992 189.212 481.013 189.212C483.04 189.212 484.694 190.752 484.694 192.658C484.694 194.563 483.04 196.103 481.013 196.103Z" fill="#449CF4"/>
<path fill-rule="evenodd" clip-rule="evenodd" d="M444.201 196.103C442.174 196.103 440.526 194.563 440.526 192.658C440.526 190.752 442.174 189.212 444.201 189.212C446.229 189.212 447.877 190.752 447.877 192.658C447.877 194.563 446.229 196.103 444.201 196.103Z" fill="#449CF4"/>
<path fill-rule="evenodd" clip-rule="evenodd" d="M628.267 230.615C626.246 230.615 624.592 229.07 624.592 227.169C624.592 225.269 626.246 223.724 628.267 223.724C630.294 223.724 631.948 225.269 631.948 227.169C631.948 229.07 630.294 230.615 628.267 230.615Z" fill="#449CF4"/>
<path fill-rule="evenodd" clip-rule="evenodd" d="M591.461 230.615C589.428 230.615 587.78 229.07 587.78 227.169C587.78 225.269 589.428 223.724 591.461 223.724C593.482 223.724 595.13 225.269 595.13 227.169C595.13 229.07 593.482 230.615 591.461 230.615Z" fill="#449CF4"/>
<path fill-rule="evenodd" clip-rule="evenodd" d="M554.643 230.615C552.616 230.615 550.968 229.07 550.968 227.169C550.968 225.269 552.616 223.724 554.643 223.724C556.67 223.724 558.319 225.269 558.319 227.169C558.319 229.07 556.67 230.615 554.643 230.615Z" fill="#449CF4"/>
<path fill-rule="evenodd" clip-rule="evenodd" d="M517.831 230.615C515.804 230.615 514.155 229.07 514.155 227.169C514.155 225.269 515.804 223.724 517.831 223.724C519.852 223.724 521.506 225.269 521.506 227.169C521.506 229.07 519.852 230.615 517.831 230.615Z" fill="#449CF4"/>
<path fill-rule="evenodd" clip-rule="evenodd" d="M481.013 230.615C478.992 230.615 477.343 229.07 477.343 227.169C477.343 225.269 478.992 223.724 481.013 223.724C483.04 223.724 484.694 225.269 484.694 227.169C484.694 229.07 483.04 230.615 481.013 230.615Z" fill="#449CF4"/>
<path fill-rule="evenodd" clip-rule="evenodd" d="M444.201 230.615C442.174 230.615 440.526 229.07 440.526 227.169C440.526 225.269 442.174 223.724 444.201 223.724C446.229 223.724 447.877 225.269 447.877 227.169C447.877 229.07 446.229 230.615 444.201 230.615Z" fill="#449CF4"/>
<path fill-rule="evenodd" clip-rule="evenodd" d="M628.267 265.126C626.246 265.126 624.592 263.586 624.592 261.68C624.592 259.775 626.246 258.235 628.267 258.235C630.294 258.235 631.948 259.775 631.948 261.68C631.948 263.586 630.294 265.126 628.267 265.126Z" fill="#449CF4"/>
<path fill-rule="evenodd" clip-rule="evenodd" d="M591.461 265.126C589.428 265.126 587.78 263.586 587.78 261.68C587.78 259.775 589.428 258.235 591.461 258.235C593.482 258.235 595.13 259.775 595.13 261.68C595.13 263.586 593.482 265.126 591.461 265.126Z" fill="#449CF4"/>
<path fill-rule="evenodd" clip-rule="evenodd" d="M554.643 265.126C552.616 265.126 550.968 263.586 550.968 261.68C550.968 259.775 552.616 258.235 554.643 258.235C556.67 258.235 558.319 259.775 558.319 261.68C558.319 263.586 556.67 265.126 554.643 265.126Z" fill="#449CF4"/>
<path fill-rule="evenodd" clip-rule="evenodd" d="M517.831 265.126C515.804 265.126 514.155 263.586 514.155 261.68C514.155 259.775 515.804 258.235 517.831 258.235C519.852 258.235 521.506 259.775 521.506 261.68C521.506 263.586 519.852 265.126 517.831 265.126Z" fill="#449CF4"/>
<path fill-rule="evenodd" clip-rule="evenodd" d="M481.013 265.126C478.992 265.126 477.343 263.586 477.343 261.68C477.343 259.775 478.992 258.235 481.013 258.235C483.04 258.235 484.694 259.775 484.694 261.68C484.694 263.586 483.04 265.126 481.013 265.126Z" fill="#449CF4"/>
<path fill-rule="evenodd" clip-rule="evenodd" d="M444.201 265.126C442.174 265.126 440.526 263.586 440.526 261.68C440.526 259.775 442.174 258.235 444.201 258.235C446.229 258.235 447.877 259.775 447.877 261.68C447.877 263.586 446.229 265.126 444.201 265.126Z" fill="#449CF4"/>
<path fill-rule="evenodd" clip-rule="evenodd" d="M628.267 299.643C626.246 299.643 624.592 298.098 624.592 296.197C624.592 294.292 626.246 292.752 628.267 292.752C630.294 292.752 631.948 294.292 631.948 296.197C631.948 298.098 630.294 299.643 628.267 299.643Z" fill="#449CF4"/>
<path fill-rule="evenodd" clip-rule="evenodd" d="M591.461 299.643C589.428 299.643 587.78 298.098 587.78 296.197C587.78 294.292 589.428 292.752 591.461 292.752C593.482 292.752 595.13 294.292 595.13 296.197C595.13 298.098 593.482 299.643 591.461 299.643Z" fill="#449CF4"/>
<path fill-rule="evenodd" clip-rule="evenodd" d="M554.643 299.643C552.616 299.643 550.968 298.098 550.968 296.197C550.968 294.292 552.616 292.752 554.643 292.752C556.67 292.752 558.319 294.292 558.319 296.197C558.319 298.098 556.67 299.643 554.643 299.643Z" fill="#449CF4"/>
<path fill-rule="evenodd" clip-rule="evenodd" d="M517.831 299.643C515.804 299.643 514.155 298.098 514.155 296.197C514.155 294.292 515.804 292.752 517.831 292.752C519.852 292.752 521.506 294.292 521.506 296.197C521.506 298.098 519.852 299.643 517.831 299.643Z" fill="#449CF4"/>
<path fill-rule="evenodd" clip-rule="evenodd" d="M481.013 299.643C478.992 299.643 477.343 298.098 477.343 296.197C477.343 294.292 478.992 292.752 481.013 292.752C483.04 292.752 484.694 294.292 484.694 296.197C484.694 298.098 483.04 299.643 481.013 299.643Z" fill="#449CF4"/>
<path fill-rule="evenodd" clip-rule="evenodd" d="M444.201 299.643C442.174 299.643 440.526 298.098 440.526 296.197C440.526 294.292 442.174 292.752 444.201 292.752C446.229 292.752 447.877 294.292 447.877 296.197C447.877 298.098 446.229 299.643 444.201 299.643Z" fill="#449CF4"/>
<path fill-rule="evenodd" clip-rule="evenodd" d="M628.267 334.149C626.246 334.149 624.592 332.609 624.592 330.703C624.592 328.808 626.246 327.257 628.267 327.257C630.294 327.257 631.948 328.808 631.948 330.703C631.948 332.609 630.294 334.149 628.267 334.149Z" fill="#449CF4"/>
<path fill-rule="evenodd" clip-rule="evenodd" d="M591.461 334.149C589.428 334.149 587.78 332.609 587.78 330.703C587.78 328.808 589.428 327.257 591.461 327.257C593.482 327.257 595.13 328.808 595.13 330.703C595.13 332.609 593.482 334.149 591.461 334.149Z" fill="#449CF4"/>
<path fill-rule="evenodd" clip-rule="evenodd" d="M554.643 334.149C552.616 334.149 550.968 332.609 550.968 330.703C550.968 328.808 552.616 327.257 554.643 327.257C556.67 327.257 558.319 328.808 558.319 330.703C558.319 332.609 556.67 334.149 554.643 334.149Z" fill="#449CF4"/>
<path fill-rule="evenodd" clip-rule="evenodd" d="M517.831 334.149C515.804 334.149 514.155 332.609 514.155 330.703C514.155 328.808 515.804 327.257 517.831 327.257C519.852 327.257 521.506 328.808 521.506 330.703C521.506 332.609 519.852 334.149 517.831 334.149Z" fill="#449CF4"/>
<path fill-rule="evenodd" clip-rule="evenodd" d="M481.013 334.149C478.992 334.149 477.343 332.609 477.343 330.703C477.343 328.808 478.992 327.257 481.013 327.257C483.04 327.257 484.694 328.808 484.694 330.703C484.694 332.609 483.04 334.149 481.013 334.149Z" fill="#449CF4"/>
<path fill-rule="evenodd" clip-rule="evenodd" d="M444.201 334.149C442.174 334.149 440.526 332.609 440.526 330.703C440.526 328.808 442.174 327.257 444.201 327.257C446.229 327.257 447.877 328.808 447.877 330.703C447.877 332.609 446.229 334.149 444.201 334.149Z" fill="#449CF4"/>
<path fill-rule="evenodd" clip-rule="evenodd" d="M628.267 368.666C626.246 368.666 624.592 367.126 624.592 365.22C624.592 363.314 626.246 361.774 628.267 361.774C630.294 361.774 631.948 363.314 631.948 365.22C631.948 367.126 630.294 368.666 628.267 368.666Z" fill="#449CF4"/>
<path fill-rule="evenodd" clip-rule="evenodd" d="M591.461 368.666C589.428 368.666 587.78 367.126 587.78 365.22C587.78 363.314 589.428 361.774 591.461 361.774C593.482 361.774 595.13 363.314 595.13 365.22C595.13 367.126 593.482 368.666 591.461 368.666Z" fill="#449CF4"/>
<path fill-rule="evenodd" clip-rule="evenodd" d="M554.643 368.666C552.616 368.666 550.968 367.126 550.968 365.22C550.968 363.314 552.616 361.774 554.643 361.774C556.67 361.774 558.319 363.314 558.319 365.22C558.319 367.126 556.67 368.666 554.643 368.666Z" fill="#449CF4"/>
<path fill-rule="evenodd" clip-rule="evenodd" d="M517.831 368.666C515.804 368.666 514.155 367.126 514.155 365.22C514.155 363.314 515.804 361.774 517.831 361.774C519.852 361.774 521.506 363.314 521.506 365.22C521.506 367.126 519.852 368.666 517.831 368.666Z" fill="#449CF4"/>
<path fill-rule="evenodd" clip-rule="evenodd" d="M481.013 368.666C478.992 368.666 477.343 367.126 477.343 365.22C477.343 363.314 478.992 361.774 481.013 361.774C483.04 361.774 484.694 363.314 484.694 365.22C484.694 367.126 483.04 368.666 481.013 368.666Z" fill="#449CF4"/>
<path fill-rule="evenodd" clip-rule="evenodd" d="M444.201 368.666C442.174 368.666 440.526 367.126 440.526 365.22C440.526 363.314 442.174 361.774 444.201 361.774C446.229 361.774 447.877 363.314 447.877 365.22C447.877 367.126 446.229 368.666 444.201 368.666Z" fill="#449CF4"/>
</g>
<g opacity="0.2">
<path fill-rule="evenodd" clip-rule="evenodd" d="M717.082 104.339H725.686V96.2712C725.686 94.6155 727.119 93.2744 728.885 93.2744C730.648 93.2744 732.079 94.6155 732.079 96.2712V104.339H740.684C742.453 104.339 743.883 105.68 743.883 107.336C743.883 108.991 742.453 110.332 740.684 110.332H732.079V118.4C732.079 120.056 730.648 121.397 728.885 121.397C727.119 121.397 725.686 120.056 725.686 118.4V110.332H717.082C715.316 110.332 713.883 108.991 713.883 107.336C713.883 105.68 715.316 104.339 717.082 104.339Z" fill="#449CF4"/>
<path fill-rule="evenodd" clip-rule="evenodd" d="M233.428 517.117H241.764V509.3C241.764 507.695 243.153 506.396 244.864 506.396C246.573 506.396 247.959 507.695 247.959 509.3V517.117H256.298C258.011 517.117 259.397 518.417 259.397 520.021C259.397 521.625 258.011 522.925 256.298 522.925H247.959V530.742C247.959 532.346 246.573 533.646 244.864 533.646C243.153 533.646 241.764 532.346 241.764 530.742V522.925H233.428C231.717 522.925 230.328 521.625 230.328 520.021C230.328 518.417 231.717 517.117 233.428 517.117Z" fill="#449CF4"/>
<path fill-rule="evenodd" clip-rule="evenodd" d="M652.196 593.099H655.948V589.581C655.948 588.859 656.573 588.274 657.343 588.274C658.112 588.274 658.736 588.859 658.736 589.581V593.099H662.488C663.259 593.099 663.883 593.684 663.883 594.406C663.883 595.128 663.259 595.713 662.488 595.713H658.736V599.231C658.736 599.953 658.112 600.538 657.343 600.538C656.573 600.538 655.948 599.953 655.948 599.231V595.713H652.196C651.426 595.713 650.801 595.128 650.801 594.406C650.801 593.684 651.426 593.099 652.196 593.099Z" fill="#449CF4"/>
<path fill-rule="evenodd" clip-rule="evenodd" d="M200.001 259.15C200.001 261.332 201.888 263.101 204.215 263.101C206.542 263.101 208.431 261.332 208.431 259.15C208.431 256.968 206.542 255.199 204.215 255.199C201.888 255.199 200.001 256.968 200.001 259.15Z" fill="#449CF4"/>
<path fill-rule="evenodd" clip-rule="evenodd" d="M882.258 39.6291C882.258 42.1854 884.469 44.2579 887.195 44.2579C889.922 44.2579 892.134 42.1854 892.134 39.6291C892.134 37.0728 889.922 35.0002 887.195 35.0002C884.469 35.0002 882.258 37.0728 882.258 39.6291Z" fill="#449CF4"/>
<path fill-rule="evenodd" clip-rule="evenodd" d="M344.802 433.392C344.802 435.948 347.012 438.021 349.739 438.021C352.466 438.021 354.678 435.948 354.678 433.392C354.678 430.835 352.466 428.763 349.739 428.763C347.012 428.763 344.802 430.835 344.802 433.392Z" fill="#449CF4"/>
<path fill-rule="evenodd" clip-rule="evenodd" d="M948.247 698.732C948.247 699.86 949.223 700.774 950.427 700.774C951.631 700.774 952.607 699.86 952.607 698.732C952.607 697.605 951.631 696.69 950.427 696.69C949.223 696.69 948.247 697.605 948.247 698.732Z" fill="#449CF4"/>
</g>
<g opacity="0.6">
<path d="M-157.783 201.851L-93.3785 217.943L-42.6289 184.574L16.6226 187.226L59.3761 114.944L130.532 157.963L186.814 144.679L252.682 170.329L295.816 104.692L342.377 48.5444L404.458 56.4703L454.921 23.5654" stroke="#FDCC5E" stroke-width="2" stroke-linecap="round" stroke-linejoin="round"/>
<circle cx="16.5728" cy="187.243" r="3.85526" transform="rotate(-13.2803 16.5728 187.243)" fill="#FDCC5E"/>
<circle cx="59.2169" cy="116.176" r="3.85526" transform="rotate(-13.2803 59.2169 116.176)" fill="#FDCC5E"/>
<circle cx="130.907" cy="157.875" r="3.85526" transform="rotate(-13.2803 130.907 157.875)" fill="#FDCC5E"/>
<circle cx="188.117" cy="145.164" r="3.85526" transform="rotate(-13.2803 188.117 145.164)" fill="#FDCC5E"/>
<circle cx="251.755" cy="169.756" r="3.85526" transform="rotate(-13.2803 251.755 169.756)" fill="#FDCC5E"/>
<circle cx="296.389" cy="103.764" r="3.85526" transform="rotate(-13.2803 296.389 103.764)" fill="#FDCC5E"/>
<circle cx="342.93" cy="49.2062" r="3.85526" transform="rotate(-13.2803 342.93 49.2062)" fill="#FDCC5E"/>
<circle cx="403.995" cy="56.1837" r="3.85526" transform="rotate(-13.2803 403.995 56.1837)" fill="#FDCC5E"/>
<circle cx="455.495" cy="22.6377" r="3.85526" transform="rotate(-13.2803 455.495 22.6377)" fill="#FDCC5E"/>
</g>
<g opacity="0.2">
<path fill-rule="evenodd" clip-rule="evenodd" d="M958.082 705.435H966.685V713.503C966.685 715.159 968.118 716.5 969.884 716.5C971.648 716.5 973.078 715.159 973.078 713.503V705.435H981.684C983.452 705.435 984.883 704.094 984.883 702.439C984.883 700.783 983.452 699.442 981.684 699.442H973.078V691.374C973.078 689.718 971.648 688.377 969.884 688.377C968.118 688.377 966.685 689.718 966.685 691.374V699.442H958.082C956.316 699.442 954.883 700.783 954.883 702.439C954.883 704.094 956.316 705.435 958.082 705.435Z" fill="#449CF4"/>
<path fill-rule="evenodd" clip-rule="evenodd" d="M474.427 292.657H482.764V300.475C482.764 302.079 484.152 303.379 485.863 303.379C487.572 303.379 488.958 302.079 488.958 300.475V292.657H497.297C499.011 292.657 500.397 291.358 500.397 289.754C500.397 288.149 499.011 286.85 497.297 286.85H488.958V279.032C488.958 277.428 487.572 276.128 485.863 276.128C484.152 276.128 482.764 277.428 482.764 279.032V286.85H474.427C472.716 286.85 471.328 288.149 471.328 289.754C471.328 291.358 472.716 292.657 474.427 292.657Z" fill="#449CF4"/>
<path fill-rule="evenodd" clip-rule="evenodd" d="M893.196 216.675H896.947V220.193C896.947 220.915 897.572 221.5 898.342 221.5C899.111 221.5 899.735 220.915 899.735 220.193V216.675H903.488C904.259 216.675 904.883 216.09 904.883 215.368C904.883 214.646 904.259 214.061 903.488 214.061H899.735V210.543C899.735 209.821 899.111 209.236 898.342 209.236C897.572 209.236 896.947 209.821 896.947 210.543V214.061H893.196C892.425 214.061 891.8 214.646 891.8 215.368C891.8 216.09 892.425 216.675 893.196 216.675Z" fill="#449CF4"/>
<path fill-rule="evenodd" clip-rule="evenodd" d="M441 550.625C441 548.443 442.887 546.674 445.215 546.674C447.542 546.674 449.43 548.443 449.43 550.625C449.43 552.807 447.542 554.576 445.215 554.576C442.887 554.576 441 552.807 441 550.625Z" fill="#449CF4"/>
<path fill-rule="evenodd" clip-rule="evenodd" d="M1123.26 770.145C1123.26 767.589 1125.47 765.516 1128.19 765.516C1130.92 765.516 1133.13 767.589 1133.13 770.145C1133.13 772.702 1130.92 774.774 1128.19 774.774C1125.47 774.774 1123.26 772.702 1123.26 770.145Z" fill="#449CF4"/>
<path fill-rule="evenodd" clip-rule="evenodd" d="M585.801 376.383C585.801 373.826 588.012 371.754 590.738 371.754C593.465 371.754 595.677 373.826 595.677 376.383C595.677 378.939 593.465 381.012 590.738 381.012C588.012 381.012 585.801 378.939 585.801 376.383Z" fill="#449CF4"/>
<path fill-rule="evenodd" clip-rule="evenodd" d="M1189.25 111.042C1189.25 109.914 1190.22 109 1191.43 109C1192.63 109 1193.61 109.914 1193.61 111.042C1193.61 112.17 1192.63 113.084 1191.43 113.084C1190.22 113.084 1189.25 112.17 1189.25 111.042Z" fill="#449CF4"/>
</g>
</svg>
