<svg width="27" height="21" viewBox="0 0 27 21" fill="none" xmlns="http://www.w3.org/2000/svg">
<g clip-path="url(#clip0)">
<rect width="26" height="21.8947" transform="translate(0.5 -0.447357)" fill="white"/>
<path d="M24.9319 -0.447357H1.98173C1.58875 -0.447357 1.21187 -0.291173 0.933989 -0.0131634C0.656111 0.264846 0.5 0.641908 0.5 1.03507V19.6943C0.5 20.0875 0.656111 20.4645 0.933989 20.7425C1.21187 21.0205 1.58875 21.1767 1.98173 21.1767H24.9319C25.3249 21.1767 25.7018 21.0205 25.9796 20.7425C26.2575 20.4645 26.4136 20.0875 26.4136 19.6943V1.03507C26.4136 0.641908 26.2575 0.264846 25.9796 -0.0131634C25.7018 -0.291173 25.3249 -0.447357 24.9319 -0.447357ZM23.529 0.977474C23.7159 0.977474 23.8987 1.03295 24.0542 1.13688C24.2097 1.24081 24.3308 1.38853 24.4024 1.56136C24.4739 1.73419 24.4927 1.92437 24.4562 2.10784C24.4197 2.29132 24.3297 2.45985 24.1975 2.59213C24.0652 2.72441 23.8968 2.81449 23.7134 2.85099C23.53 2.88749 23.3399 2.86875 23.1672 2.79717C22.9944 2.72558 22.8468 2.60435 22.7429 2.4488C22.639 2.29326 22.5836 2.11039 22.5836 1.92332C22.5836 1.67247 22.6832 1.43189 22.8605 1.25451C23.0378 1.07712 23.2782 0.977474 23.529 0.977474ZM20.1564 0.977474C20.3434 0.977474 20.5262 1.03295 20.6817 1.13688C20.8371 1.24081 20.9583 1.38853 21.0299 1.56136C21.1014 1.73419 21.1201 1.92437 21.0837 2.10784C21.0472 2.29132 20.9571 2.45985 20.8249 2.59213C20.6927 2.72441 20.5243 2.81449 20.3409 2.85099C20.1575 2.88749 19.9674 2.86875 19.7946 2.79717C19.6219 2.72558 19.4742 2.60435 19.3704 2.4488C19.2665 2.29326 19.211 2.11039 19.211 1.92332C19.211 1.79911 19.2355 1.67611 19.283 1.56136C19.3305 1.4466 19.4001 1.34234 19.4879 1.25451C19.5757 1.16668 19.6799 1.097 19.7946 1.04947C19.9093 1.00194 20.0323 0.977474 20.1564 0.977474ZM16.7839 0.977474C16.9709 0.977474 17.1537 1.03295 17.3091 1.13688C17.4646 1.24081 17.5858 1.38853 17.6573 1.56136C17.7289 1.73419 17.7476 1.92437 17.7111 2.10784C17.6746 2.29132 17.5846 2.45985 17.4524 2.59213C17.3202 2.72441 17.1517 2.81449 16.9683 2.85099C16.7849 2.88749 16.5949 2.86875 16.4221 2.79717C16.2494 2.72558 16.1017 2.60435 15.9978 2.4488C15.8939 2.29326 15.8385 2.11039 15.8385 1.92332C15.8385 1.67247 15.9381 1.43189 16.1154 1.25451C16.2927 1.07712 16.5332 0.977474 16.7839 0.977474ZM24.5107 19.2578H2.3908V4.14545H24.5107V19.2487V19.2578Z" fill="#394C60"/>
<path d="M9.28726 17.651C9.43888 17.3982 9.6691 17.202 9.94271 17.0925C10.2163 16.983 10.5183 16.9662 10.8023 17.0447C10.9325 17.0899 11.0705 17.1084 11.208 17.0992C11.3455 17.09 11.4798 17.0531 11.6028 16.9909C11.7257 16.9287 11.835 16.8423 11.9239 16.737C12.0128 16.6316 12.0797 16.5095 12.1204 16.3778C12.2206 16.1121 12.2133 15.8179 12.1001 15.5575C11.987 15.2972 11.7769 15.0912 11.5144 14.9832C11.2569 14.8664 11.0457 14.6671 10.914 14.4167C10.7823 14.1664 10.7377 13.8794 10.7872 13.6008C10.832 13.31 10.9777 13.0443 11.1988 12.8503C11.4198 12.6563 11.7022 12.5463 11.9962 12.5398C12.2879 12.535 12.5658 12.4144 12.7686 12.2046C12.9715 11.9948 13.0828 11.713 13.0779 11.4212C13.0731 11.1293 12.9526 10.8513 12.7429 10.6483C12.5332 10.4454 12.2515 10.3341 11.9598 10.3389C11.6646 10.3308 11.3808 10.2226 11.1551 10.032C10.9294 9.84146 10.7751 9.57981 10.7175 9.28997C10.6845 9.11467 10.6845 8.93475 10.7175 8.75945C10.7483 8.56576 10.8249 8.38222 10.9408 8.22406C11.0568 8.06589 11.2087 7.93766 11.3841 7.84999C11.6349 7.71567 11.8239 7.48938 11.9114 7.21863C11.999 6.94787 11.9783 6.6537 11.8538 6.39787C11.8078 6.26361 11.7357 6.13976 11.6418 6.03339C11.5478 5.92702 11.4339 5.84024 11.3064 5.77801C11.1789 5.71577 11.0403 5.67932 10.8987 5.67072C10.7571 5.66212 10.6152 5.68155 10.4811 5.7279C10.2072 5.83759 9.90325 5.84619 9.6236 5.75215C9.38322 5.64394 9.17458 5.4759 9.01757 5.26407C8.89872 5.10551 8.81462 4.92366 8.77076 4.73039C8.7269 4.53711 8.72427 4.33676 8.76305 4.1424H3.71486C6.05714 5.40049 8.28732 7.92881 8.34186 11.2847C8.40246 14.9226 6.47833 17.8602 3.64819 19.2547H9.35089C9.16051 19.034 9.05056 18.7553 9.039 18.464C9.02744 18.1727 9.11496 17.8861 9.28726 17.651Z" fill="#3C9BD6"/>
<path d="M16.4173 5.60057C16.6457 5.78839 16.8024 6.04926 16.8609 6.33919C16.9194 6.62913 16.8762 6.93038 16.7385 7.19214C16.6266 7.46535 16.4281 7.69427 16.1736 7.84377C15.9191 7.99327 15.6225 8.05509 15.3295 8.01975C15.1931 7.99329 15.0527 7.99479 14.9169 8.02417C14.7811 8.05356 14.6526 8.1102 14.5393 8.19069C14.426 8.27118 14.3302 8.37383 14.2577 8.49244C14.1852 8.61104 14.1375 8.74313 14.1175 8.88072C14.0577 9.15691 14.1074 9.44552 14.256 9.68582C14.4047 9.92612 14.6407 10.0994 14.9144 10.1691C15.1871 10.2447 15.4267 10.4093 15.5952 10.6366C15.7638 10.864 15.8515 11.1412 15.8446 11.4242C15.8412 11.711 15.7394 11.988 15.5563 12.2087C15.3731 12.4294 15.1198 12.5806 14.8386 12.6368C14.5509 12.6863 14.2947 12.848 14.1262 13.0865C13.9577 13.325 13.8908 13.6207 13.9402 13.9085C13.9896 14.1964 14.1513 14.4528 14.3897 14.6214C14.6281 14.7899 14.9236 14.8569 15.2113 14.8074C15.5042 14.7702 15.8011 14.8337 16.0532 14.9873C16.3053 15.141 16.4978 15.3758 16.5991 15.6532C16.6576 15.8216 16.6843 15.9995 16.6779 16.1777C16.6784 16.3751 16.6315 16.5698 16.5414 16.7454C16.4513 16.921 16.3204 17.0725 16.1598 17.1872C15.93 17.3585 15.7761 17.6127 15.7308 17.8958C15.6855 18.1789 15.7525 18.4685 15.9174 18.703C16.0668 18.9359 16.2761 19.1244 16.5234 19.2486H23.2684C21.1231 18.1846 19.1293 16.1837 18.6414 13.3371C17.9506 9.3021 19.8535 5.7855 23.0503 4.1424H16.1749C16.0208 4.37022 15.9601 4.64854 16.0052 4.9199C16.0503 5.19125 16.1978 5.43491 16.4173 5.60057Z" fill="#E74F38"/>
<path d="M18.3596 19.47H18.1626C18.2269 19.4889 18.2953 19.4889 18.3596 19.47Z" fill="#3C9BD6"/>
</g>
<defs>
<clipPath id="clip0">
<rect width="26" height="21.8947" fill="white" transform="translate(0.5 -0.447357)"/>
</clipPath>
</defs>
</svg>
