<svg width="49" height="30" viewBox="0 0 49 30" fill="none" xmlns="http://www.w3.org/2000/svg">
<path d="M0 3.86667C0 1.73117 1.73117 0 3.86667 0H44.4667C46.6022 0 48.3333 1.73117 48.3333 3.86667V26.1333C48.3333 28.2688 46.6022 30 44.4667 30H3.86666C1.73116 30 0 28.2688 0 26.1333V3.86667Z" fill="white"/>
<path d="M40.0832 14.9999C40.0832 20.2549 35.8388 24.5499 30.5332 24.5499C25.2782 24.5499 20.9833 20.2549 20.9833 14.9999C20.9833 9.74491 25.2277 5.44995 30.4827 5.44995C35.8388 5.44995 40.0832 9.74491 40.0832 14.9999Z" fill="#FFB600"/>
<path d="M30.5332 5.44995C35.7882 5.44995 40.0832 9.74491 40.0832 14.9999C40.0832 20.2549 35.8388 24.5499 30.5332 24.5499C25.2782 24.5499 20.9833 20.2549 20.9833 14.9999" fill="#F7981D"/>
<path d="M30.5332 5.44995C35.7882 5.44995 40.0832 9.74491 40.0832 14.9999C40.0832 20.2549 35.8387 24.5499 30.5332 24.5499" fill="#FF8500"/>
<path d="M17.6989 5.44995C12.4944 5.50048 8.25 9.74491 8.25 14.9999C8.25 20.2549 12.4944 24.5499 17.8 24.5499C20.2759 24.5499 22.4992 23.5898 24.2171 22.074C24.5708 21.7708 24.874 21.4171 25.1772 21.0634H23.2066C22.9539 20.7602 22.7013 20.4065 22.4992 20.1033H25.8846C26.0867 19.8002 26.2888 19.4465 26.4404 19.0928H21.9433C21.7917 18.7896 21.6402 18.4359 21.5391 18.0822H26.7941C27.0973 17.1221 27.2994 16.1116 27.2994 15.0504C27.2994 14.343 27.1983 13.6862 27.0973 13.0293H21.2359C21.2865 12.6756 21.3875 12.3724 21.4886 12.0187H26.7436C26.6425 11.665 26.4909 11.3113 26.3393 11.0081H21.8928C22.0444 10.6544 22.2465 10.3513 22.4486 9.99755H25.8341C25.6319 9.64385 25.3793 9.29015 25.0761 8.98697H23.2066C23.5097 8.63327 23.8129 8.3301 24.1666 8.02693C22.4992 6.46053 20.2254 5.55101 17.7494 5.55101C17.7494 5.44995 17.7494 5.44995 17.6989 5.44995Z" fill="#FF5050"/>
<path d="M8.25 14.9999C8.25 20.2549 12.4944 24.5499 17.8 24.5499C20.2759 24.5499 22.4992 23.5898 24.2171 22.074C24.5708 21.7708 24.874 21.4171 25.1772 21.0634H23.2066C22.9539 20.7602 22.7013 20.4065 22.4992 20.1034H25.8846C26.0867 19.8002 26.2888 19.4465 26.4404 19.0928H21.9433C21.7917 18.7896 21.6402 18.4359 21.5391 18.0822H26.7941C27.0973 17.1221 27.2994 16.1116 27.2994 15.0505C27.2994 14.3431 27.1983 13.6862 27.0973 13.0293H21.2359C21.2865 12.6756 21.3875 12.3724 21.4886 12.0187H26.7436C26.6425 11.665 26.4909 11.3113 26.3393 11.0081H21.8928C22.0444 10.6544 22.2465 10.3513 22.4486 9.99757H25.8341C25.6319 9.64387 25.3793 9.29016 25.0761 8.98699H23.2066C23.5097 8.63329 23.8129 8.33012 24.1666 8.02694C22.4992 6.46055 20.2254 5.55103 17.7494 5.55103H17.6989" fill="#E52836"/>
<path d="M17.8 24.5499C20.2759 24.5499 22.4992 23.5898 24.2172 22.074C24.5709 21.7708 24.8741 21.4171 25.1773 21.0634H23.2066C22.954 20.7602 22.7013 20.4065 22.4992 20.1034H25.8847C26.0868 19.8002 26.2889 19.4465 26.4405 19.0928H21.9434C21.7918 18.7896 21.6402 18.4359 21.5392 18.0822H26.7942C27.0974 17.1221 27.2995 16.1116 27.2995 15.0505C27.2995 14.3431 27.1984 13.6862 27.0974 13.0293H21.236C21.2865 12.6756 21.3876 12.3724 21.4886 12.0187H26.7436C26.6426 11.665 26.491 11.3113 26.3394 11.0081H21.8929C22.0445 10.6544 22.2466 10.3513 22.4487 9.99757H25.8341C25.632 9.64387 25.3794 9.29016 25.0762 8.98699H23.2066C23.5098 8.63329 23.813 8.33012 24.1667 8.02694C22.4992 6.46055 20.2254 5.55103 17.7495 5.55103H17.699" fill="#CB2026"/>
<path d="M21.1851 17.4258L21.3367 16.5668C21.2861 16.5668 21.1851 16.6173 21.084 16.6173C20.7303 16.6173 20.6798 16.4152 20.7303 16.3142L21.0335 14.5456H21.5893L21.7409 13.5856H21.2356L21.3367 12.9792H20.3261C20.3261 12.9792 19.7197 16.3142 19.7197 16.7184C19.7197 17.3247 20.0734 17.5774 20.5282 17.5774C20.8314 17.5774 21.084 17.4763 21.1851 17.4258Z" fill="white"/>
<path d="M21.5383 15.8085C21.5383 17.2233 22.4984 17.577 23.3068 17.577C24.0648 17.577 24.3679 17.4254 24.3679 17.4254L24.5701 16.4654C24.5701 16.4654 24.0142 16.718 23.509 16.718C22.3973 16.718 22.5994 15.9096 22.5994 15.9096H24.6711C24.6711 15.9096 24.8227 15.2527 24.8227 15.0001C24.8227 14.3432 24.469 13.5347 23.3574 13.5347C22.2963 13.4337 21.5383 14.5453 21.5383 15.8085ZM23.3068 14.3432C23.8627 14.3432 23.7616 15.0001 23.7616 15.0506H22.65C22.65 15.0001 22.751 14.3432 23.3068 14.3432Z" fill="white"/>
<path d="M29.7243 17.4255L29.9264 16.3138C29.9264 16.3138 29.4211 16.5665 29.0674 16.5665C28.36 16.5665 28.0568 16.0107 28.0568 15.4043C28.0568 14.1916 28.6632 13.5347 29.3706 13.5347C29.8759 13.5347 30.2801 13.8379 30.2801 13.8379L30.4317 12.7768C30.4317 12.7768 29.8253 12.5242 29.2695 12.5242C28.1074 12.5242 26.9452 13.5347 26.9452 15.4548C26.9452 16.7181 27.5515 17.5771 28.7642 17.5771C29.1685 17.5771 29.7243 17.4255 29.7243 17.4255Z" fill="white"/>
<path d="M15.6276 13.4338C14.9202 13.4338 14.4149 13.636 14.4149 13.636L14.2633 14.4949C14.2633 14.4949 14.7181 14.2928 15.375 14.2928C15.7287 14.2928 16.0318 14.3434 16.0318 14.6465C16.0318 14.8486 15.9813 14.8992 15.9813 14.8992C15.9813 14.8992 15.6781 14.8992 15.5266 14.8992C14.6676 14.8992 13.7075 15.2529 13.7075 16.415C13.7075 17.3246 14.3139 17.5267 14.6676 17.5267C15.375 17.5267 15.6781 17.0719 15.7287 17.0719L15.6781 17.4762H16.5877L16.9919 14.6971C16.9919 13.4844 15.9813 13.4338 15.6276 13.4338ZM15.8297 15.7076C15.8297 15.8592 15.7287 16.6677 15.1223 16.6677C14.8192 16.6677 14.7181 16.415 14.7181 16.2635C14.7181 16.0108 14.8697 15.6571 15.6276 15.6571C15.7792 15.7076 15.8297 15.7076 15.8297 15.7076Z" fill="white"/>
<path d="M17.9511 17.5264C18.2038 17.5264 19.467 17.577 19.467 16.2127C19.467 14.9495 18.2543 15.2021 18.2543 14.6968C18.2543 14.4442 18.4564 14.3431 18.8101 14.3431C18.9617 14.3431 19.5175 14.3936 19.5175 14.3936L19.6691 13.4841C19.6691 13.4841 19.3154 13.3831 18.709 13.3831C17.9511 13.3831 17.1932 13.6862 17.1932 14.6968C17.1932 15.859 18.4564 15.7579 18.4564 16.2127C18.4564 16.5158 18.1027 16.5664 17.85 16.5664C17.3953 16.5664 16.9405 16.4148 16.9405 16.4148L16.7889 17.3243C16.8395 17.4254 17.0921 17.5264 17.9511 17.5264Z" fill="white"/>
<path d="M38.1123 12.6252L37.9102 13.9895C37.9102 13.9895 37.506 13.4842 36.9502 13.4842C36.0406 13.4842 35.2322 14.5959 35.2322 15.9096C35.2322 16.7181 35.6364 17.5771 36.4954 17.5771C37.1017 17.5771 37.4554 17.1728 37.4554 17.1728L37.4049 17.5265H38.4155L39.1734 12.6758L38.1123 12.6252ZM37.6576 15.3033C37.6576 15.8591 37.4049 16.5665 36.8491 16.5665C36.4954 16.5665 36.2933 16.2633 36.2933 15.758C36.2933 14.9496 36.647 14.4443 37.1017 14.4443C37.4554 14.4443 37.6576 14.6969 37.6576 15.3033Z" fill="white"/>
<path d="M10.1195 17.476L10.7258 13.8379L10.8269 17.476H11.5343L12.848 13.8379L12.2922 17.476H13.3533L14.1618 12.6252H12.4943L11.4838 15.6065L11.4332 12.6252H9.96789L9.15942 17.476H10.1195Z" fill="white"/>
<path d="M25.7835 17.4762C26.0867 15.8087 26.1372 14.4444 26.8446 14.6971C26.9457 14.0402 27.0973 13.7876 27.1983 13.5349C27.1983 13.5349 27.1478 13.5349 26.9962 13.5349C26.5414 13.5349 26.1877 14.1413 26.1877 14.1413L26.2888 13.5854H25.3288L24.6719 17.5267H25.7835V17.4762Z" fill="white"/>
<path d="M32.0485 13.4338C31.3411 13.4338 30.8358 13.636 30.8358 13.636L30.6842 14.4949C30.6842 14.4949 31.139 14.2928 31.7959 14.2928C32.1496 14.2928 32.4527 14.3434 32.4527 14.6465C32.4527 14.8486 32.4022 14.8992 32.4022 14.8992C32.4022 14.8992 32.099 14.8992 31.9475 14.8992C31.0885 14.8992 30.1284 15.2529 30.1284 16.415C30.1284 17.3246 30.7348 17.5267 31.0885 17.5267C31.7959 17.5267 32.099 17.0719 32.1496 17.0719L32.099 17.4762H33.0086L33.4128 14.6971C33.4633 13.4844 32.4022 13.4338 32.0485 13.4338ZM32.3012 15.7076C32.3012 15.8592 32.2001 16.6677 31.5938 16.6677C31.2906 16.6677 31.1895 16.415 31.1895 16.2635C31.1895 16.0108 31.3411 15.6571 32.099 15.6571C32.2506 15.7076 32.2506 15.7076 32.3012 15.7076Z" fill="white"/>
<path d="M34.2726 17.4762C34.5758 15.8087 34.6263 14.4444 35.3338 14.6971C35.4348 14.0402 35.5864 13.7876 35.6875 13.5349C35.6875 13.5349 35.6369 13.5349 35.4853 13.5349C35.0306 13.5349 34.6769 14.1413 34.6769 14.1413L34.7779 13.5854H33.8179L33.161 17.5267H34.2726V17.4762Z" fill="white"/>
<path d="M19.6195 16.7184C19.6195 17.3247 19.9732 17.5774 20.428 17.5774C20.7817 17.5774 21.0848 17.4763 21.1859 17.4258L21.3375 16.5668C21.287 16.5668 21.1859 16.6173 21.0848 16.6173C20.7311 16.6173 20.6806 16.4152 20.7311 16.3142L21.0343 14.5456H21.5901L21.7417 13.5856H21.2364L21.3375 12.9792" fill="#DCE5E5"/>
<path d="M22.0443 15.8085C22.0443 17.2233 22.4991 17.577 23.3075 17.577C24.0655 17.577 24.3686 17.4254 24.3686 17.4254L24.5708 16.4654C24.5708 16.4654 24.0149 16.718 23.5097 16.718C22.398 16.718 22.6001 15.9096 22.6001 15.9096H24.6718C24.6718 15.9096 24.8234 15.2527 24.8234 15.0001C24.8234 14.3432 24.4697 13.5347 23.3581 13.5347C22.297 13.4337 22.0443 14.5453 22.0443 15.8085ZM23.3075 14.3432C23.8634 14.3432 23.9644 15.0001 23.9644 15.0506H22.6507C22.6507 15.0001 22.7517 14.3432 23.3075 14.3432Z" fill="#DCE5E5"/>
<path d="M29.7241 17.4255L29.9262 16.3138C29.9262 16.3138 29.4209 16.5665 29.0672 16.5665C28.3598 16.5665 28.0567 16.0107 28.0567 15.4043C28.0567 14.1916 28.663 13.5347 29.3704 13.5347C29.8757 13.5347 30.2799 13.8379 30.2799 13.8379L30.4315 12.7768C30.4315 12.7768 29.8252 12.5242 29.2694 12.5242C28.1072 12.5242 27.4503 13.5347 27.4503 15.4548C27.4503 16.7181 27.5514 17.5771 28.7641 17.5771C29.1683 17.5771 29.7241 17.4255 29.7241 17.4255Z" fill="#DCE5E5"/>
<path d="M14.2633 14.5455C14.2633 14.5455 14.7181 14.3434 15.375 14.3434C15.7287 14.3434 16.0318 14.3939 16.0318 14.6971C16.0318 14.8992 15.9813 14.9497 15.9813 14.9497C15.9813 14.9497 15.6781 14.9497 15.5266 14.9497C14.6676 14.9497 13.7075 15.3034 13.7075 16.4656C13.7075 17.3751 14.3139 17.5772 14.6676 17.5772C15.375 17.5772 15.6781 17.1225 15.7287 17.1225L15.6781 17.5267H16.5877L16.9919 14.7476C16.9919 13.5854 15.9813 13.5349 15.5771 13.5349L14.2633 14.5455ZM16.335 15.7077C16.335 15.8592 15.7287 16.6677 15.1223 16.6677C14.8192 16.6677 14.7181 16.4151 14.7181 16.2635C14.7181 16.0108 14.8697 15.6571 15.6276 15.6571C15.7792 15.7077 16.335 15.7077 16.335 15.7077Z" fill="#DCE5E5"/>
<path d="M16.8403 17.4254C16.8403 17.4254 17.1435 17.5264 18.0025 17.5264C18.2551 17.5264 19.5184 17.577 19.5184 16.2127C19.5184 14.9495 18.3057 15.2021 18.3057 14.6968C18.3057 14.4442 18.5078 14.3431 18.8615 14.3431C19.0131 14.3431 19.5689 14.3936 19.5689 14.3936L19.7205 13.4841C19.7205 13.4841 19.3668 13.3831 18.7604 13.3831C18.0025 13.3831 17.7499 13.6862 17.7499 14.6968C17.7499 15.859 18.5078 15.7579 18.5078 16.2127C18.5078 16.5158 18.1541 16.5664 17.9014 16.5664" fill="#DCE5E5"/>
<path d="M37.9099 13.9898C37.9099 13.9898 37.5057 13.4845 36.9499 13.4845C36.0404 13.4845 35.7372 14.5961 35.7372 15.9099C35.7372 16.7183 35.6361 17.5773 36.4951 17.5773C37.1015 17.5773 37.4552 17.1731 37.4552 17.1731L37.4046 17.5268H38.4152L39.1732 12.676L37.9099 13.9898ZM37.8594 15.3035C37.8594 15.8593 37.4046 16.5668 36.8488 16.5668C36.4951 16.5668 36.293 16.2636 36.293 15.7583C36.293 14.9498 36.6467 14.4445 37.1015 14.4445C37.4552 14.4445 37.8594 14.6972 37.8594 15.3035Z" fill="#DCE5E5"/>
<path d="M10.1195 17.476L10.7258 13.8379L10.8269 17.476H11.5343L12.848 13.8379L12.2922 17.476H13.3533L14.1618 12.6252H12.8986L11.4838 15.6065L11.4332 12.6252H10.8774L9.15942 17.476H10.1195Z" fill="#DCE5E5"/>
<path d="M24.7224 17.4762H25.7835C26.0867 15.8087 26.1372 14.4444 26.8446 14.6971C26.9457 14.0402 27.0973 13.7876 27.1983 13.5349C27.1983 13.5349 27.1478 13.5349 26.9962 13.5349C26.5415 13.5349 26.1878 14.1413 26.1878 14.1413L26.2888 13.5854" fill="#DCE5E5"/>
<path d="M30.6842 14.5455C30.6842 14.5455 31.139 14.3434 31.7959 14.3434C32.1496 14.3434 32.4527 14.3939 32.4527 14.6971C32.4527 14.8992 32.4022 14.9497 32.4022 14.9497C32.4022 14.9497 32.099 14.9497 31.9475 14.9497C31.0885 14.9497 30.1284 15.3034 30.1284 16.4656C30.1284 17.3751 30.7348 17.5772 31.0885 17.5772C31.7959 17.5772 32.099 17.1225 32.1496 17.1225L32.099 17.5267H33.0086L33.4128 14.7476C33.4128 13.5854 32.4022 13.5349 31.998 13.5349L30.6842 14.5455ZM32.7559 15.7077C32.7559 15.8592 32.1496 16.6677 31.5432 16.6677C31.2401 16.6677 31.139 16.4151 31.139 16.2635C31.139 16.0108 31.2906 15.6571 32.0485 15.6571C32.2506 15.7077 32.7559 15.7077 32.7559 15.7077Z" fill="#DCE5E5"/>
<path d="M33.2115 17.4762H34.2727C34.5758 15.8087 34.6264 14.4444 35.3338 14.6971C35.4348 14.0402 35.5864 13.7876 35.6875 13.5349C35.6875 13.5349 35.6369 13.5349 35.4853 13.5349C35.0306 13.5349 34.6769 14.1413 34.6769 14.1413L34.7779 13.5854" fill="#DCE5E5"/>
<path d="M3.86667 0.322222H44.4667V-0.322222H3.86667V0.322222ZM48.0111 3.86667V26.1333H48.6556V3.86667H48.0111ZM44.4667 29.6778H3.86666V30.3222H44.4667V29.6778ZM0.322222 26.1333V3.86667H-0.322222V26.1333H0.322222ZM3.86666 29.6778C1.90912 29.6778 0.322222 28.0909 0.322222 26.1333H-0.322222C-0.322222 28.4468 1.5532 30.3222 3.86666 30.3222V29.6778ZM48.0111 26.1333C48.0111 28.0909 46.4242 29.6778 44.4667 29.6778V30.3222C46.7801 30.3222 48.6556 28.4468 48.6556 26.1333H48.0111ZM44.4667 0.322222C46.4242 0.322222 48.0111 1.90912 48.0111 3.86667H48.6556C48.6556 1.55321 46.7801 -0.322222 44.4667 -0.322222V0.322222ZM3.86667 -0.322222C1.55321 -0.322222 -0.322222 1.55321 -0.322222 3.86667H0.322222C0.322222 1.90912 1.90912 0.322222 3.86667 0.322222V-0.322222Z" fill="#E4E6F1"/>
</svg>
