<svg width="100" height="100" viewBox="0 0 100 100" fill="none" xmlns="http://www.w3.org/2000/svg">
<g clip-path="url(#clip0)">
<path d="M23 38C27.5 27.5 38 20 50 20C65 20 77 31 79.5 45H89.5C87 25.5 70.5 10 50 10C35 10 22 18 15.5 30.5L10 25V45H30L23 38Z" fill="#C5C7D2"/>
<path d="M90 55H69.5L77 62C72.5 72.5 62 80 49.5 80C35 80 22.5 69 20 55H10C12.5 74.5 29.5 90 49.5 90C64.5 90 77.5 81.5 84.5 69.5L90 75V55Z" fill="#C5C7D2"/>
</g>
<rect width="40" height="40" transform="translate(30 30)" fill="white"/>
<path d="M50 30C39 30 30 39 30 50C30 61 39 70 50 70C61 70 70 61 70 50C70 39 61 30 50 30ZM50 48C53.4 48 56 50.6 56 54C56 56.6 54.2 58.8 52 59.6V62H48V59.6C45.6 58.8 44 56.6 44 54H48C48 55.2 48.8 56 50 56C51.2 56 52 55.2 52 54C52 52.8 51.2 52 50 52C46.6 52 44 49.4 44 46C44 43.4 45.8 41.2 48 40.4V38H52V40.4C54.4 41.2 56 43.4 56 46H52C52 44.8 51.2 44 50 44C48.8 44 48 45 48 46C48 47.2 48.8 48 50 48Z" fill="#4368E0"/>
<defs>
<clipPath id="clip0">
<rect width="80" height="80" fill="white" transform="translate(10 10)"/>
</clipPath>
</defs>
</svg>
