<svg width="14" height="14" viewBox="0 0 14 14" fill="none" xmlns="http://www.w3.org/2000/svg">
<path fill-rule="evenodd" clip-rule="evenodd" d="M7.09961 13.875C3.30265 13.875 0.224609 10.797 0.224609 7C0.224609 3.20304 3.30265 0.125 7.09961 0.125C10.8966 0.125 13.9746 3.20304 13.9746 7C13.9746 10.797 10.8966 13.875 7.09961 13.875ZM7.09961 12.625C10.2062 12.625 12.7246 10.1066 12.7246 7C12.7246 3.8934 10.2062 1.375 7.09961 1.375C3.99301 1.375 1.47461 3.8934 1.47461 7C1.47461 10.1066 3.99301 12.625 7.09961 12.625ZM5.84961 7.99112L9.15767 4.68306L10.0416 5.56694L5.84961 9.75888L3.53267 7.44194L4.41655 6.55806L5.84961 7.99112Z" fill="white"/>
</svg>
