<svg width="16" height="16" viewBox="0 0 16 16" fill="none" xmlns="http://www.w3.org/2000/svg">
<path d="M7.0989 12.8121C4.11157 12.6862 1.77148 10.2433 1.77148 7.25072C1.77148 4.18141 4.26857 1.68432 7.33788 1.68432C9.92602 1.68432 12.2113 3.51505 12.7717 6.03733C12.8419 6.35324 13.1548 6.5524 13.4708 6.48223C13.7867 6.41204 13.9859 6.09906 13.9157 5.78315C13.5885 4.31052 12.7598 2.97297 11.5823 2.01696C10.3872 1.04677 8.87989 0.512451 7.33788 0.512451C5.538 0.512451 3.8459 1.21335 2.57319 2.48603C1.30051 3.75874 0.599609 5.45084 0.599609 7.25072C0.599609 9.0003 1.26711 10.6583 2.47909 11.9194C3.68755 13.1768 5.31068 13.9096 7.04954 13.9829C7.05795 13.9833 7.0663 13.9835 7.07465 13.9835C7.38689 13.9835 7.64637 13.7371 7.65965 13.4222C7.6733 13.0989 7.42222 12.8257 7.0989 12.8121Z" fill="white"/>
<path d="M7.33802 2.86047C7.01441 2.86047 6.75209 3.1228 6.75209 3.44641V7.00799L4.85913 8.90095C4.63029 9.12976 4.63029 9.50074 4.85913 9.72958C4.97353 9.84399 5.12347 9.9012 5.27344 9.9012C5.42342 9.9012 5.57336 9.84399 5.68776 9.72958L7.75234 7.66501C7.86223 7.55514 7.92396 7.40608 7.92396 7.25069V3.44641C7.92396 3.1228 7.66164 2.86047 7.33802 2.86047Z" fill="white"/>
<path d="M14.3942 7.78818C13.7832 7.53883 12.9836 7.40149 12.1426 7.40149C11.3016 7.40149 10.5019 7.53883 9.891 7.78818C8.84217 8.21626 8.68555 8.831 8.68555 9.1593V13.7296C8.68555 14.0579 8.84217 14.6726 9.891 15.1007C10.5019 15.3501 11.3016 15.4874 12.1426 15.4874C12.9836 15.4874 13.7832 15.3501 14.3942 15.1007C15.443 14.6726 15.5996 14.0579 15.5996 13.7296V9.1593C15.5996 8.83097 15.443 8.21626 14.3942 7.78818ZM14.4277 13.711C14.3309 13.8912 13.5432 14.3155 12.1426 14.3155C10.742 14.3155 9.95422 13.8912 9.85742 13.711V12.772C9.8687 12.7768 9.87948 12.7816 9.891 12.7863C10.5019 13.0356 11.3016 13.173 12.1426 13.173C12.3454 13.173 12.5485 13.1649 12.7461 13.1491C13.0687 13.1232 13.3092 12.8407 13.2833 12.5181C13.2574 12.1956 12.9753 11.9552 12.6523 11.981C12.4858 11.9943 12.3143 12.0011 12.1426 12.0011C10.7416 12.0011 9.95387 11.5766 9.85742 11.3965V10.5162C9.8687 10.521 9.87948 10.5258 9.891 10.5305C10.5019 10.7798 11.3016 10.9172 12.1426 10.9172C12.3454 10.9172 12.5485 10.9091 12.7461 10.8933C13.0687 10.8674 13.3092 10.5849 13.2833 10.2624C13.2574 9.93977 12.9753 9.69936 12.6523 9.72517C12.4858 9.73853 12.3143 9.74532 12.1426 9.74532C10.7878 9.74532 10.0066 9.34838 9.86932 9.15936C10.0068 8.97027 10.7881 8.57345 12.1426 8.57345C13.5432 8.57345 14.3309 8.99778 14.4277 9.17796V13.711Z" fill="white"/>
</svg>
