<svg width="49" height="30" viewBox="0 0 49 30" fill="none" xmlns="http://www.w3.org/2000/svg">
<path d="M0 3.86667C0 1.73117 1.73117 0 3.86667 0H44.4667C46.6022 0 48.3333 1.73117 48.3333 3.86667V26.1333C48.3333 28.2688 46.6022 30 44.4667 30H3.86666C1.73116 30 0 28.2688 0 26.1333V3.86667Z" fill="white"/>
<path d="M34.9538 12.5857H32.8215C32.696 12.5857 32.5706 12.7111 32.5079 12.8366L31.6299 18.3555C31.6299 18.481 31.6926 18.5437 31.818 18.5437H32.9469C33.0723 18.5437 33.1351 18.481 33.1351 18.3555L33.3859 16.7876C33.3859 16.6622 33.5114 16.5368 33.6995 16.5368H34.3894C35.8318 16.5368 36.6471 15.8469 36.8353 14.4672C36.9607 13.9027 36.8353 13.401 36.5844 13.0874C36.2081 12.7738 35.6437 12.5857 34.9538 12.5857ZM35.2047 14.6553C35.0792 15.4079 34.5148 15.4079 33.9504 15.4079H33.5741L33.8249 13.9654C33.8249 13.9027 33.8876 13.84 34.0131 13.84H34.1385C34.5148 13.84 34.8911 13.84 35.0792 14.0909C35.2047 14.1536 35.2047 14.3417 35.2047 14.6553Z" fill="#139AD6"/>
<path d="M19.5882 12.5857H17.4559C17.3304 12.5857 17.205 12.7111 17.1423 12.8366L16.2643 18.3555C16.2643 18.481 16.327 18.5437 16.4524 18.5437H17.4559C17.5813 18.5437 17.7067 18.4182 17.7695 18.2928L18.0203 16.7876C18.0203 16.6622 18.1458 16.5368 18.3339 16.5368H19.0238C20.4662 16.5368 21.2815 15.8469 21.4697 14.4672C21.5951 13.9027 21.4697 13.401 21.2188 13.0874C20.8425 12.7738 20.3408 12.5857 19.5882 12.5857ZM19.8391 14.6553C19.7136 15.4079 19.1492 15.4079 18.5848 15.4079H18.2712L18.522 13.9654C18.522 13.9027 18.5848 13.84 18.7102 13.84H18.8356C19.2119 13.84 19.5882 13.84 19.7764 14.0909C19.8391 14.1536 19.9018 14.3417 19.8391 14.6553Z" fill="#263B80"/>
<path d="M26.0481 14.5922H25.0446C24.9819 14.5922 24.8565 14.6549 24.8565 14.7177L24.7938 15.0312L24.7311 14.9058C24.4802 14.5922 24.0412 14.4668 23.5395 14.4668C22.4106 14.4668 21.4071 15.3448 21.219 16.5364C21.0935 17.1636 21.2817 17.728 21.5953 18.1043C21.9088 18.4806 22.3479 18.606 22.9123 18.606C23.853 18.606 24.3548 18.0416 24.3548 18.0416L24.292 18.3552C24.292 18.4806 24.3548 18.5433 24.4802 18.5433H25.4209C25.5464 18.5433 25.6718 18.4179 25.7345 18.2925L26.2989 14.7804C26.2362 14.7177 26.1108 14.5922 26.0481 14.5922ZM24.6056 16.5991C24.4802 17.1636 24.0412 17.6026 23.414 17.6026C23.1004 17.6026 22.8496 17.4771 22.7242 17.3517C22.5987 17.1636 22.536 16.9127 22.536 16.5991C22.5987 16.0347 23.1004 15.5957 23.6649 15.5957C23.9785 15.5957 24.1666 15.7211 24.3548 15.8465C24.5429 16.0347 24.6056 16.3483 24.6056 16.5991Z" fill="#263B80"/>
<path d="M41.3503 14.5922H40.3469C40.2842 14.5922 40.1587 14.6549 40.1587 14.7177L40.096 15.0312L40.0333 14.9058C39.7824 14.5922 39.3434 14.4668 38.8417 14.4668C37.7128 14.4668 36.7094 15.3448 36.5212 16.5364C36.3958 17.1636 36.5839 17.728 36.8975 18.1043C37.2111 18.4806 37.6501 18.606 38.2145 18.606C39.1553 18.606 39.657 18.0416 39.657 18.0416L39.5943 18.3552C39.5943 18.4806 39.657 18.5433 39.7824 18.5433H40.7232C40.8486 18.5433 40.974 18.4179 41.0368 18.2925L41.6012 14.7804C41.5385 14.7177 41.4758 14.5922 41.3503 14.5922ZM39.9079 16.5991C39.7824 17.1636 39.3434 17.6026 38.7163 17.6026C38.4027 17.6026 38.1518 17.4771 38.0264 17.3517C37.901 17.1636 37.8383 16.9127 37.8383 16.5991C37.901 16.0347 38.4027 15.5957 38.9671 15.5957C39.2807 15.5957 39.4689 15.7211 39.657 15.8465C39.9079 16.0347 39.9706 16.3483 39.9079 16.5991Z" fill="#139AD6"/>
<path d="M31.5044 14.5925H30.4382C30.3128 14.5925 30.2501 14.6552 30.1874 14.718L28.8076 16.8503L28.1805 14.8434C28.1178 14.718 28.055 14.6552 27.8669 14.6552H26.8634C26.738 14.6552 26.6753 14.7807 26.6753 14.9061L27.8042 18.23L26.738 19.7352C26.6753 19.8606 26.738 20.0488 26.8634 20.0488H27.8669C27.9923 20.0488 28.055 19.9861 28.1178 19.9234L31.5671 14.9688C31.7553 14.7807 31.6298 14.5925 31.5044 14.5925Z" fill="#263B80"/>
<path d="M42.5424 12.7738L41.6644 18.4182C41.6644 18.5437 41.7271 18.6064 41.8526 18.6064H42.7306C42.856 18.6064 42.9815 18.4809 43.0442 18.3555L43.9222 12.8365C43.9222 12.7111 43.8595 12.6484 43.734 12.6484H42.7306C42.6679 12.5857 42.6052 12.6484 42.5424 12.7738Z" fill="#139AD6"/>
<path d="M11.6234 10.704C11.1844 10.2023 10.3691 9.95142 9.24024 9.95142H6.10446C5.91631 9.95142 5.72816 10.1396 5.66545 10.3277L4.41113 18.5435C4.41113 18.7316 4.53656 18.857 4.662 18.857H6.60618L7.10791 15.784V15.9094C7.17062 15.7213 7.35877 15.5331 7.54692 15.5331H8.48765C10.3064 15.5331 11.6861 14.7805 12.1252 12.7109C12.1252 12.6482 12.1252 12.5855 12.1252 12.5228C12.0624 12.5228 12.0624 12.5228 12.1252 12.5228C12.1879 11.7075 12.0624 11.2057 11.6234 10.704Z" fill="#263B80"/>
<path d="M12.0621 12.5227C12.0621 12.5854 12.0621 12.6481 12.0621 12.7109C11.6231 14.8432 10.2434 15.5331 8.42463 15.5331H7.48389C7.29574 15.5331 7.1076 15.7212 7.04488 15.9094L6.41772 19.735C6.41772 19.8604 6.48044 19.9859 6.66859 19.9859H8.29919C8.48734 19.9859 8.67549 19.8604 8.67549 19.6723V19.6096L8.98907 17.6654V17.54C8.98907 17.3518 9.17721 17.2264 9.36536 17.2264H9.61622C11.1841 17.2264 12.4384 16.5992 12.752 14.7178C12.8774 13.9652 12.8147 13.2753 12.4384 12.8363C12.3757 12.7109 12.2503 12.5854 12.0621 12.5227Z" fill="#139AD6"/>
<path d="M11.6234 12.3346C11.5607 12.3346 11.498 12.2719 11.4353 12.2719C11.3726 12.2719 11.3099 12.2719 11.2471 12.2092C10.9963 12.1465 10.7454 12.1465 10.4318 12.1465H7.98593C7.92321 12.1465 7.8605 12.1465 7.79778 12.2092C7.67235 12.2719 7.60964 12.3973 7.60964 12.5228L7.10791 15.784V15.9094C7.17063 15.7213 7.35877 15.5331 7.54692 15.5331H8.48765C10.3064 15.5331 11.6862 14.7805 12.1252 12.7109C12.1252 12.6482 12.1252 12.5855 12.1879 12.5228C12.0624 12.4601 11.9997 12.3973 11.8743 12.3973C11.6862 12.3346 11.6862 12.3346 11.6234 12.3346Z" fill="#232C65"/>
<path d="M3.86667 0.322222H44.4667V-0.322222H3.86667V0.322222ZM48.0111 3.86667V26.1333H48.6556V3.86667H48.0111ZM44.4667 29.6778H3.86666V30.3222H44.4667V29.6778ZM0.322222 26.1333V3.86667H-0.322222V26.1333H0.322222ZM3.86666 29.6778C1.90912 29.6778 0.322222 28.0909 0.322222 26.1333H-0.322222C-0.322222 28.4468 1.5532 30.3222 3.86666 30.3222V29.6778ZM48.0111 26.1333C48.0111 28.0909 46.4242 29.6778 44.4667 29.6778V30.3222C46.7801 30.3222 48.6556 28.4468 48.6556 26.1333H48.0111ZM44.4667 0.322222C46.4242 0.322222 48.0111 1.90912 48.0111 3.86667H48.6556C48.6556 1.55321 46.7801 -0.322222 44.4667 -0.322222V0.322222ZM3.86667 -0.322222C1.55321 -0.322222 -0.322222 1.55321 -0.322222 3.86667H0.322222C0.322222 1.90912 1.90912 0.322222 3.86667 0.322222V-0.322222Z" fill="#E4E6F1"/>
</svg>
