<svg width="137" height="34" viewBox="0 0 137 34" fill="none" xmlns="http://www.w3.org/2000/svg">
<g clip-path="url(#clip0)">
<path d="M51.2142 7.74304H43.7116C43.1981 7.74304 42.7615 8.12204 42.6807 8.63604L39.6463 28.158C39.6322 28.2487 39.6377 28.3414 39.6623 28.4297C39.6869 28.518 39.7302 28.5998 39.789 28.6695C39.8478 28.7392 39.9209 28.7951 40.0031 28.8334C40.0854 28.8716 40.1748 28.8913 40.2652 28.891H43.8476C44.36 28.891 44.7976 28.512 44.8774 27.997L45.6954 22.731C45.7742 22.216 46.2128 21.837 46.7252 21.837H49.1003C54.0426 21.837 56.8947 19.411 57.6397 14.602C57.9748 12.498 57.6535 10.845 56.6838 9.68704C55.6165 8.41604 53.7253 7.74304 51.2142 7.74304ZM52.0795 14.873C51.6695 17.605 49.6128 17.605 47.623 17.605H46.4907L47.285 12.503C47.3083 12.3538 47.3833 12.2178 47.4966 12.1198C47.6099 12.0217 47.754 11.9679 47.9029 11.968H48.4223C49.7774 11.968 51.0546 11.968 51.7158 12.751C52.1101 13.219 52.2303 13.914 52.0805 14.873H52.0795ZM73.6414 14.785H70.0473C69.8982 14.7851 69.7541 14.8391 69.6409 14.9374C69.5276 15.0356 69.4526 15.1717 69.4294 15.321L69.2717 16.341L69.0194 15.971C68.2408 14.825 66.5063 14.442 64.7758 14.442C60.8062 14.442 57.414 17.494 56.7538 21.774C56.4108 23.909 56.8996 25.951 58.0931 27.374C59.187 28.684 60.7539 29.229 62.6185 29.229C65.8175 29.229 67.5914 27.142 67.5914 27.142L67.4307 28.155C67.4163 28.2457 67.4215 28.3384 67.4459 28.4268C67.4702 28.5152 67.5132 28.5972 67.5719 28.6671C67.6306 28.737 67.7035 28.7932 67.7856 28.8316C67.8678 28.8701 67.9572 28.8901 68.0477 28.89H71.2841C71.7985 28.89 72.2331 28.511 72.3139 27.996L74.2554 15.518C74.2698 15.4277 74.2647 15.3352 74.2404 15.247C74.2162 15.1588 74.1733 15.0771 74.1148 15.0074C74.0563 14.9377 73.9836 14.8817 73.9017 14.8433C73.8198 14.8049 73.7307 14.785 73.6404 14.785H73.6414ZM68.6331 21.881C68.2862 23.964 66.6571 25.361 64.5797 25.361C63.536 25.361 62.7023 25.022 62.1672 24.379C61.636 23.739 61.4339 22.83 61.6034 21.817C61.9267 19.752 63.5843 18.309 65.6292 18.309C66.6502 18.309 67.479 18.653 68.025 19.302C68.5729 19.957 68.7898 20.872 68.6331 21.881ZM92.776 14.785H89.1661C88.8212 14.785 88.4979 14.959 88.3028 15.249L83.323 22.692L81.2121 15.54C81.1473 15.3219 81.0151 15.1307 80.835 14.9947C80.6548 14.8588 80.4363 14.7852 80.2118 14.785H76.664C76.5644 14.7849 76.4661 14.8089 76.3775 14.855C76.2889 14.9011 76.2123 14.968 76.1543 15.0501C76.0963 15.1323 76.0584 15.2273 76.0439 15.3273C76.0293 15.4273 76.0385 15.5294 76.0707 15.625L80.0472 27.467L76.3082 32.822C76.2415 32.917 76.2019 33.0287 76.1937 33.145C76.1856 33.2613 76.2092 33.3776 76.262 33.4812C76.3147 33.5848 76.3946 33.6716 76.4928 33.732C76.591 33.7925 76.7038 33.8244 76.8187 33.824H80.4247C80.7666 33.824 81.0869 33.655 81.2821 33.37L93.2895 15.782C93.3549 15.687 93.3934 15.5756 93.4007 15.4599C93.4081 15.3442 93.384 15.2286 93.3312 15.1259C93.2784 15.0231 93.1988 14.9369 93.101 14.8768C93.0033 14.8168 92.8913 14.785 92.777 14.785H92.776Z" fill="#253B80"/>
<path d="M104.731 7.74307H97.2259C96.7134 7.74307 96.2778 8.12207 96.197 8.63607L93.1626 28.1581C93.1483 28.2486 93.1536 28.3412 93.1781 28.4294C93.2025 28.5176 93.2456 28.5994 93.3042 28.6692C93.3629 28.7389 93.4358 28.7948 93.5179 28.8331C93.5999 28.8714 93.6892 28.8912 93.7795 28.8911H97.6299C97.8037 28.8908 97.9716 28.8276 98.1035 28.7128C98.2354 28.598 98.3226 28.4393 98.3493 28.2651L99.2107 22.7311C99.2895 22.2161 99.7281 21.8371 100.24 21.8371H102.615C107.557 21.8371 110.409 19.4111 111.155 14.6021C111.491 12.4981 111.168 10.8451 110.197 9.68707C109.132 8.41607 107.241 7.74307 104.731 7.74307ZM105.596 14.8731C105.187 17.6051 103.13 17.6051 101.139 17.6051H100.009L100.804 12.5031C100.827 12.354 100.902 12.2181 101.015 12.1199C101.128 12.0218 101.271 11.9679 101.42 11.9681H101.94C103.293 11.9681 104.572 11.9681 105.233 12.7511C105.627 13.2191 105.746 13.9141 105.596 14.8731ZM127.157 14.7851H123.566C123.417 14.7848 123.273 14.8387 123.16 14.9371C123.046 15.0354 122.972 15.1717 122.95 15.3211L122.79 16.3411L122.538 15.9711C121.76 14.8251 120.027 14.4421 118.295 14.4421C114.325 14.4421 110.935 17.4941 110.275 21.7741C109.933 23.9091 110.419 25.9511 111.612 27.3741C112.709 28.6841 114.273 29.2291 116.138 29.2291C119.337 29.2291 121.111 27.1421 121.111 27.1421L120.95 28.1551C120.936 28.2458 120.941 28.3387 120.966 28.4272C120.99 28.5156 121.033 28.5977 121.092 28.6676C121.151 28.7374 121.224 28.7935 121.306 28.832C121.389 28.8704 121.478 28.8902 121.569 28.8901H124.804C125.317 28.8901 125.753 28.5111 125.833 27.9961L127.777 15.5181C127.79 15.4273 127.785 15.3346 127.76 15.2463C127.735 15.158 127.691 15.0762 127.632 15.0065C127.573 14.9369 127.5 14.881 127.418 14.8428C127.336 14.8045 127.246 14.7849 127.156 14.7851H127.157ZM122.148 21.8811C121.803 23.9641 120.172 25.3611 118.095 25.3611C117.053 25.3611 116.218 25.0221 115.682 24.3791C115.151 23.7391 114.951 22.8301 115.119 21.8171C115.444 19.7521 117.099 18.3091 119.145 18.3091C120.165 18.3091 120.994 18.6531 121.54 19.3021C122.09 19.9571 122.307 20.8721 122.148 21.8811ZM131.392 8.27907L128.313 28.1591C128.299 28.2495 128.304 28.342 128.329 28.4301C128.353 28.5182 128.396 28.5999 128.455 28.6695C128.513 28.7391 128.586 28.7949 128.668 28.8332C128.75 28.8714 128.839 28.8912 128.93 28.8911H132.025C132.54 28.8911 132.976 28.5121 133.055 27.9971L136.092 8.47607C136.107 8.3855 136.101 8.29288 136.077 8.20459C136.052 8.1163 136.009 8.03443 135.951 7.96466C135.892 7.89488 135.819 7.83884 135.737 7.80041C135.655 7.76198 135.566 7.74207 135.475 7.74207H132.008C131.86 7.74284 131.716 7.79728 131.603 7.89566C131.49 7.99404 131.416 8.12994 131.392 8.27907Z" fill="#179BD7"/>
<path d="M8.48854 32.684L9.0621 28.986L7.78489 28.956H1.68164L5.92228 1.66801C5.93484 1.58455 5.97663 1.50848 6.03998 1.45374C6.10333 1.39901 6.184 1.36928 6.26721 1.37001H16.5579C19.9736 1.37001 22.332 2.09101 23.5629 3.51501C24.1394 4.18301 24.507 4.88101 24.6844 5.64901C24.8716 6.45501 24.8746 7.41901 24.6923 8.59301L24.6794 8.67801V9.43101L25.256 9.76301C25.7428 10.024 26.1281 10.323 26.4248 10.666C26.9175 11.238 27.2378 11.963 27.3728 12.824C27.5118 13.709 27.4655 14.762 27.2378 15.954C26.9747 17.326 26.548 18.52 25.9734 19.497C25.4664 20.3728 24.7847 21.1313 23.9718 21.724C23.2081 22.274 22.3004 22.691 21.2755 22.958C20.2811 23.221 19.1478 23.354 17.9051 23.354H17.1038C16.5322 23.354 15.9754 23.563 15.5389 23.938C15.1026 24.3169 14.8131 24.8407 14.7219 25.416L14.6627 25.749L13.6477 32.267L13.6023 32.507C13.5905 32.582 13.5688 32.62 13.5383 32.645C13.5086 32.6701 13.4714 32.6843 13.4328 32.685H8.48854V32.684Z" fill="#253B80"/>
<path d="M25.8027 8.76489C25.7721 8.96489 25.7367 9.16789 25.6972 9.37689C24.3402 16.4469 19.6975 18.8899 13.7677 18.8899H10.7481C10.0237 18.8899 9.41272 19.4239 9.29939 20.1499L7.75313 30.0969L7.31556 32.9169C7.2982 33.0287 7.30492 33.1431 7.33526 33.2521C7.3656 33.361 7.41885 33.462 7.49134 33.5481C7.56382 33.6342 7.65383 33.7034 7.75516 33.7508C7.8565 33.7982 7.96675 33.8228 8.07835 33.8229H13.4326C14.0673 33.8229 14.6054 33.3559 14.7059 32.7209L14.7581 32.4449L15.7663 25.9529L15.8313 25.5969C15.9299 24.9599 16.4699 24.4919 17.1036 24.4919H17.9048C23.0925 24.4919 27.1538 22.3549 28.3414 16.1699C28.8371 13.5859 28.5799 11.4289 27.2681 9.91189C26.8524 9.4424 26.3558 9.05372 25.8027 8.76489Z" fill="#179BD7"/>
<path d="M24.3825 8.18995C23.9492 8.06284 23.5085 7.96364 23.0629 7.89295C22.1825 7.75567 21.2927 7.6898 20.402 7.69595H12.3357C12.0288 7.69581 11.732 7.80701 11.4989 8.00947C11.2657 8.21193 11.1116 8.4923 11.0644 8.79995L9.34957 19.829L9.30029 20.151C9.35391 19.8001 9.5294 19.4802 9.79507 19.2492C10.0607 19.0181 10.3991 18.8911 10.749 18.891H13.7686C19.6984 18.891 24.3411 16.447 25.6981 9.37795C25.7386 9.16895 25.773 8.96495 25.8036 8.76595C25.4455 8.5756 25.0724 8.41604 24.688 8.28895C24.5895 8.25495 24.487 8.22295 24.3835 8.19195L24.3825 8.18995Z" fill="#222D65"/>
<path d="M11.0645 8.79998C11.1114 8.49234 11.2655 8.21197 11.4987 8.00977C11.732 7.80757 12.029 7.69695 12.3358 7.69798H20.4012C21.3571 7.69798 22.249 7.76098 23.063 7.89498C23.614 7.98282 24.1573 8.11422 24.6881 8.28798C25.0723 8.41555 25.4454 8.57509 25.8037 8.76498C26.2078 6.15198 25.8008 4.37398 24.4082 2.76298C22.8738 0.98898 20.1035 0.22998 16.5587 0.22998H6.26801C5.54367 0.22998 4.92674 0.76498 4.81439 1.49098L0.527435 29.06C0.507495 29.188 0.515145 29.3189 0.549856 29.4437C0.584568 29.5685 0.645516 29.6841 0.728505 29.7827C0.811493 29.8812 0.914549 29.9604 1.03057 30.0146C1.1466 30.0689 1.27284 30.097 1.40059 30.097H7.75317L9.3497 19.828L11.0645 8.80098V8.79998Z" fill="#253B80"/>
</g>
<defs>
<clipPath id="clip0">
<rect width="136" height="34" fill="white" transform="translate(0.5)"/>
</clipPath>
</defs>
</svg>
