<svg width="17" height="18" viewBox="0 0 17 18" fill="none" xmlns="http://www.w3.org/2000/svg">
<path fill-rule="evenodd" clip-rule="evenodd" d="M12.0997 11.4213L16.5891 15.9107L15.4106 17.0892L10.9212 12.5998C9.7923 13.4774 8.37376 14 6.83317 14C3.15127 14 0.166504 11.0152 0.166504 7.33329C0.166504 3.65139 3.15127 0.666626 6.83317 0.666626C10.5151 0.666626 13.4998 3.65139 13.4998 7.33329C13.4998 8.87389 12.9773 10.2924 12.0997 11.4213ZM6.83317 12.3333C9.59459 12.3333 11.8332 10.0947 11.8332 7.33329C11.8332 4.57187 9.59459 2.33329 6.83317 2.33329C4.07175 2.33329 1.83317 4.57187 1.83317 7.33329C1.83317 10.0947 4.07175 12.3333 6.83317 12.3333Z" fill="#C5C7D2"/>
</svg>
