<svg width="38" height="13" viewBox="0 0 38 13" fill="none" xmlns="http://www.w3.org/2000/svg">
<path d="M14.2686 11.7769L16.1344 1.28162H19.0497L17.2422 11.7769H14.2686Z" fill="#3C58BF"/>
<path d="M14.2686 11.7769L16.6591 1.28162H19.0497L17.2422 11.7769H14.2686Z" fill="#293688"/>
<path d="M27.796 1.39822C27.2129 1.16499 26.28 0.931763 25.1138 0.931763C22.1985 0.931763 20.0994 2.38943 20.0994 4.48848C20.0994 6.06277 21.5571 6.87906 22.7233 7.40383C23.8894 7.92859 24.2392 8.27843 24.2392 8.74488C24.2392 9.44457 23.3063 9.79441 22.49 9.79441C21.3239 9.79441 20.6825 9.61949 19.6913 9.21134L19.2831 9.03642L18.875 11.427C19.5747 11.7185 20.8574 12.0101 22.1985 12.0101C25.2888 12.0101 27.3295 10.5524 27.3295 8.33674C27.3295 7.11229 26.5715 6.17938 24.8223 5.42139C23.7728 4.89663 23.1314 4.6051 23.1314 4.08033C23.1314 3.61388 23.6562 3.14742 24.8223 3.14742C25.8135 3.14742 26.5132 3.32234 27.038 3.55557L27.3295 3.67219L27.796 1.39822Z" fill="#3C58BF"/>
<path d="M27.796 1.39822C27.2129 1.16499 26.28 0.931763 25.1138 0.931763C22.1985 0.931763 20.6242 2.38943 20.6242 4.48848C20.6242 6.06277 21.5571 6.87906 22.7233 7.40383C23.8894 7.92859 24.2392 8.27843 24.2392 8.74488C24.2392 9.44457 23.3063 9.79441 22.49 9.79441C21.3239 9.79441 20.6825 9.61949 19.6913 9.21134L19.2831 9.03642L18.875 11.427C19.5747 11.7185 20.8574 12.0101 22.1985 12.0101C25.2888 12.0101 27.3295 10.5524 27.3295 8.33674C27.3295 7.11229 26.5715 6.17938 24.8223 5.42139C23.7728 4.89663 23.1314 4.6051 23.1314 4.08033C23.1314 3.61388 23.6562 3.14742 24.8223 3.14742C25.8135 3.14742 26.5132 3.32234 27.038 3.55557L27.3295 3.67219L27.796 1.39822Z" fill="#293688"/>
<path d="M32.8099 1.28162C32.1102 1.28162 31.5854 1.33992 31.2939 2.03961L26.9209 11.7769H30.0695L30.6525 10.0276H34.3842L34.734 11.7769H37.5328L35.0839 1.28162H32.8099ZM31.4688 8.27844C31.6438 7.75368 32.635 5.18818 32.635 5.18818C32.635 5.18818 32.8682 4.5468 33.0431 4.13865L33.218 5.12987C33.218 5.12987 33.8011 7.75368 33.9177 8.33675H31.4688V8.27844Z" fill="#3C58BF"/>
<path d="M33.5096 1.28162C32.8099 1.28162 32.2851 1.33992 31.9936 2.03961L26.9209 11.7769H30.0695L30.6525 10.0276H34.3842L34.734 11.7769H37.5328L35.0839 1.28162H33.5096ZM31.4688 8.27844C31.7021 7.69537 32.635 5.18818 32.635 5.18818C32.635 5.18818 32.8682 4.5468 33.0431 4.13865L33.218 5.12987C33.218 5.12987 33.8011 7.75368 33.9177 8.33675H31.4688V8.27844Z" fill="#293688"/>
<path d="M8.90427 8.62833L8.61273 7.11235C8.08797 5.36314 6.39707 3.43901 4.53125 2.5061L7.15506 11.8352H10.3036L15.0265 1.33997H11.8779L8.90427 8.62833Z" fill="#3C58BF"/>
<path d="M8.90427 8.62833L8.61273 7.11235C8.08797 5.36314 6.39707 3.43901 4.53125 2.5061L7.15506 11.8352H10.3036L15.0265 1.33997H12.461L8.90427 8.62833Z" fill="#293688"/>
<path d="M0.799805 1.28162L1.32457 1.39823C5.05621 2.27283 7.62171 4.48849 8.61293 7.1123L7.5634 2.15622C7.38848 1.45654 6.86372 1.28162 6.22234 1.28162H0.799805Z" fill="#FFBC00"/>
<path d="M0.799805 1.28162C4.53145 2.15622 7.62171 4.43019 8.61293 7.054L7.62171 2.91421C7.44679 2.21453 6.86372 1.80638 6.22234 1.80638L0.799805 1.28162Z" fill="#F7981D"/>
<path d="M0.799805 1.28162C4.53145 2.15622 7.62171 4.43019 8.61293 7.054L7.91324 4.78003C7.73832 4.08035 7.5051 3.38066 6.6888 3.08913L0.799805 1.28162Z" fill="#ED7C00"/>
<path d="M11.8199 8.27856L9.83746 6.29613L8.90455 8.51179L8.67133 7.05412C8.14656 5.30491 6.45566 3.38079 4.58984 2.44788L7.21365 11.777H10.3622L11.8199 8.27856Z" fill="#051244"/>
<path d="M17.2422 11.777L14.735 9.21149L14.2686 11.777H17.2422Z" fill="#051244"/>
<path d="M23.9477 8.16193C24.1809 8.39515 24.2975 8.57008 24.2392 8.8033C24.2392 9.50299 23.3063 9.85283 22.49 9.85283C21.3239 9.85283 20.6825 9.67791 19.6913 9.26976L19.2831 9.09484L18.875 11.4854C19.5747 11.777 20.8574 12.0685 22.1985 12.0685C24.0643 12.0685 25.5803 11.5437 26.4549 10.6108L23.9477 8.16193Z" fill="#051244"/>
<path d="M27.3301 11.7771H30.0705L30.6536 10.0279H34.3852L34.7351 11.7771H37.5338L36.5426 7.52071L33.0442 4.13892L33.2191 5.07183C33.2191 5.07183 33.8021 7.69563 33.9188 8.2787H31.4699C31.7031 7.69563 32.636 5.18844 32.636 5.18844C32.636 5.18844 32.8692 4.54706 33.0442 4.13892" fill="#051244"/>
</svg>
